<?xml version="1.0" encoding="UTF-8"?><svg class="daco" xmlns="http://www.w3.org/2000/svg" viewBox="0 0 512 512"><style><![CDATA[svg.daco .C{stroke-linejoin:round}svg.daco .D{stroke-width:14.384}svg.daco .E{stroke:#111342}svg.daco .F{fill:none}svg.daco .G{stroke-linecap:round}svg.daco .H{stroke-miterlimit:10}svg.daco .I{stroke-width:16.296}]]></style><g fill="#fff"><path d="M170.667 273.711l-57.157 7.245-37.031 15.296-6.33 10.549-.11 164.143 21.736 17.711 41.862 11.27 45.887.805 45.082-5.635 34.616-9.66 19.321-9.66 2.625-168.973-17.92-22.624-27.371-3.22-41.057-6.44z" stroke="#000"/><ellipse ry="32.107" rx="105.509" cy="308.318" cx="175.657" class="C D E"/></g><g class="F G H C D E"><path d="M281.166 306.8v53.836c0 17.73-47.231 32.107-105.509 32.107S70.148 378.367 70.148 360.636V306.8"/><path d="M281.166 359.141v56.555c0 17.73-47.231 32.107-105.509 32.107S70.148 433.427 70.148 415.696v-56.555"/><path d="M281.166 414.19v56.555c0 17.73-47.231 32.107-105.509 32.107S70.148 488.475 70.148 470.745V414.19"/></g><circle r="81.004" cy="184.286" cx="361.705" fill="#fff" class="C D E"/><circle r="68.983" cy="192.432" cx="369.851" fill="#1ad9b2"/><g transform="matrix(1.13292 0 0 1.13292 -49.159727 -25.972445)" class="C D E F"><path d="M398.21 174.25c0 19.64-35.55 58.23-35.55 58.23s-35.55-38.59-35.55-58.23 15.92-35.55 35.55-35.55 35.55 15.92 35.55 35.55z" class="H"/><circle r="12.85" cy="173.61" cx="362.18"/></g><g class="C E G H"><path d="M206.529 35.726V14.79c0-3.059-3.365-5.642-7.353-5.642H77.625c-3.988 0-7.353 2.538-7.353 5.642v138.975c0 3.104 3.308 5.642 7.353 5.642H93.43" fill="#fff" class="D"/><path d="M365.398 265.29v91.744H327.83m10.945-30.193l-20.529 30.192 20.529 32.855" class="F I"/></g><path d="M204.297 172.232l33.285-31.337V30.288H114.219v141.728z" fill="#1ad9b2"/><g class="E C F H"><g class="D"><path d="M233.685 141.643V41.946c0-3.059-3.365-5.642-7.353-5.642H104.781c-3.988 0-7.353 2.538-7.353 5.642v138.975c0 3.104 3.308 5.642 7.353 5.642h78.273" class="G"/><path d="M233.685 139.015H193.75c-3.988 0-7.239 3.251-7.239 7.239v39.935z"/><path d="M124.109 141.745h38.735m-38.735-36.661h77.469m-77.469-31.937h77.469" class="G"/></g><path d="M180.189 231.314l-30.181 20.529-32.866-20.529" class="G I"/><path d="M149.26 199.773v46.982" class="D G"/></g></svg>
