<?xml version="1.0" encoding="UTF-8" standalone="no"?>
<svg
   xmlns:dc="http://purl.org/dc/elements/1.1/"
   xmlns:cc="http://creativecommons.org/ns#"
   xmlns:rdf="http://www.w3.org/1999/02/22-rdf-syntax-ns#"
   xmlns:svg="http://www.w3.org/2000/svg"
   xmlns="http://www.w3.org/2000/svg"
   xml:space="preserve"
   style="enable-background:new 0 0 512 512;"
   viewBox="0 0 512 512"
   y="0px"
   x="0px"
   id="Layer_1"
   version="1.1"><metadata
   id="metadata73"><rdf:RDF><cc:Work
       rdf:about=""><dc:format>image/svg+xml</dc:format><dc:type
         rdf:resource="http://purl.org/dc/dcmitype/StillImage" /><dc:title></dc:title></cc:Work></rdf:RDF></metadata><defs
   id="defs71">
	
	
	
	
</defs>
<style
   id="style10"
   type="text/css">
	.st0{opacity:0.6;fill:#38C1CE;}
	.st1{fill:none;stroke:#111342;stroke-width:14.3842;stroke-linecap:round;stroke-linejoin:round;stroke-miterlimit:10;}
	.st2{fill:#38C1CE;}
</style>
<g
   transform="matrix(1.0156119,0,0,1.0156119,-15.308474,-0.01561189)"
   id="g263"><g
     id="g22"
     transform="matrix(1.1155048,0,0,1.1155048,-33.330894,-25.557827)">
		<ellipse
   id="ellipse14"
   ry="28.34"
   rx="93.129997"
   cy="295.07001"
   cx="198.44"
   class="st1" />
		<path
   id="path16"
   d="m 291.57,293.73 v 47.52 c 0,15.65 -41.69,28.34 -93.13,28.34 -51.44,0 -93.13,-12.69 -93.13,-28.34 v -47.52"
   class="st1" />
		<path
   id="path18"
   d="m 291.57,339.93 v 49.92 c 0,15.65 -41.69,28.34 -93.13,28.34 -51.44,0 -93.13,-12.69 -93.13,-28.34 v -49.92"
   class="st1" />
		<path
   id="path20"
   d="m 291.57,388.52 v 49.92 c 0,15.65 -41.69,28.34 -93.13,28.34 -51.44,0 -93.13,-12.69 -93.13,-28.34 v -49.92"
   class="st1" />
	</g><g
     id="g40"
     transform="matrix(1.1155048,0,0,1.1155048,-33.330894,-25.557827)">
		<g
   id="g34">
			<circle
   id="circle24"
   r="60.889999"
   cy="192.78"
   cx="369.85001"
   class="st2" />
			<circle
   id="circle26"
   r="71.5"
   cy="185.59"
   cx="362.66"
   class="st1" />
			<g
   id="g32">
				<path
   id="path28"
   d="m 398.21,174.25 c 0,19.64 -35.55,58.23 -35.55,58.23 0,0 -35.55,-38.59 -35.55,-58.23 0,-19.64 15.92,-35.55 35.55,-35.55 19.63,0 35.55,15.92 35.55,35.55 z"
   class="st1" />
				<circle
   id="circle30"
   r="12.85"
   cy="173.61"
   cx="362.17999"
   class="st1" />
			</g>
		</g>
		<polyline
   id="polyline36"
   points="365.92,257.09 365.92,338.07 332.76,338.07   "
   class="st1" />
		<polyline
   id="polyline38"
   points="342.42,311.42 324.3,338.07 342.42,367.07   "
   class="st1" />
	</g><g
     id="g64"
     transform="matrix(1.1155048,0,0,1.1155048,-33.330894,-25.557827)">
		<g
   id="g58">
			<polygon
   id="polygon42"
   points="144.21,174.76 223.72,174.95 253.1,147.29 253.1,49.66 144.21,49.66 "
   class="st2" />
			<g
   id="g56">
				<path
   id="path44"
   d="m 249.66,147.95 v -88 c 0,-2.7 -2.97,-4.98 -6.49,-4.98 H 135.88 c -3.52,0 -6.49,2.24 -6.49,4.98 v 122.67 c 0,2.74 2.92,4.98 6.49,4.98 h 69.09"
   class="st1" />
				<path
   id="path46"
   d="M 225.69,54.46 V 35.98 c 0,-2.7 -2.97,-4.98 -6.49,-4.98 H 111.91 c -3.52,0 -6.49,2.24 -6.49,4.98 v 122.67 c 0,2.74 2.92,4.98 6.49,4.98 h 13.95"
   class="st1" />
				<path
   id="path48"
   d="m 249.66,145.63 h -35.25 c -3.52,0 -6.39,2.87 -6.39,6.39 v 35.25 z"
   class="st1" />
				<line
   id="line50"
   y2="148.03999"
   x2="187.13"
   y1="148.03999"
   x1="152.94"
   class="st1" />
				<line
   id="line52"
   y2="115.68"
   x2="221.32001"
   y1="115.68"
   x1="152.94"
   class="st1" />
				<line
   id="line54"
   y2="87.489998"
   x2="221.32001"
   y1="87.489998"
   x1="152.94"
   class="st1" />
			</g>
		</g>
		<polyline
   id="polyline60"
   points="202.44,227.1 175.8,245.22 146.79,227.1   "
   class="st1" />
		<line
   id="line62"
   y2="240.73"
   x2="175.14"
   y1="199.25999"
   x1="175.14"
   class="st1" />
	</g></g>
</svg>
