<?xml version="1.0" encoding="UTF-8" standalone="no"?>
<!-- Created with Inkscape (http://www.inkscape.org/) -->

<svg
   xmlns:dc="http://purl.org/dc/elements/1.1/"
   xmlns:cc="http://creativecommons.org/ns#"
   xmlns:rdf="http://www.w3.org/1999/02/22-rdf-syntax-ns#"
   xmlns:svg="http://www.w3.org/2000/svg"
   xmlns="http://www.w3.org/2000/svg"
   version="1.1"
   width="16"
   height="16"
   id="svg2"
   xml:space="preserve"><metadata
     id="metadata8"><rdf:RDF><cc:Work
         rdf:about=""><dc:format>image/svg+xml</dc:format><dc:type
           rdf:resource="http://purl.org/dc/dcmitype/StillImage" /><dc:title></dc:title></cc:Work></rdf:RDF></metadata><defs
     id="defs6"><clipPath
       id="clipPath16"><path
         d="m 2.478,41.872 0,-31.688 C 2.543,10.11 2.509,9.941 2.509,9.77 l 0,0 c 0,-4.069 7.997,-7.371 17.863,-7.371 l 0,0 c 9.864,0 17.863,3.302 17.863,7.371 l 0,0 c 0,0.169 -0.034,0.334 10e-4,0.562 l 0,0 0,31.694 -35.758,-0.154 z"
         id="path18" /></clipPath><linearGradient
       x1="0"
       y1="0"
       x2="1"
       y2="0"
       id="linearGradient24"
       gradientUnits="userSpaceOnUse"
       gradientTransform="matrix(35.758301,0,0,-35.758301,2.4780273,22.212891)"
       spreadMethod="pad"><stop
         id="stop26"
         style="stop-color:#d4e056;stop-opacity:1"
         offset="0" /><stop
         id="stop28"
         style="stop-color:#d0dd3a;stop-opacity:1"
         offset="0.55828202" /><stop
         id="stop30"
         style="stop-color:#65a04e;stop-opacity:1"
         offset="1" /></linearGradient><clipPath
       id="clipPath38"><path
         d="m 2.509,42.087 c 0,-0.334 0.072,-0.66 0.178,-0.982 l 0,0 c 1.167,3.605 8.629,6.389 17.685,6.389 l 0,0 c 9.055,0 16.521,-2.784 17.685,-6.389 l 0,0 c 0.105,0.322 0.178,0.648 0.178,0.982 l 0,0 c 0,4.072 -7.999,7.373 -17.863,7.373 l 0,0 c -9.866,0 -17.863,-3.301 -17.863,-7.373"
         id="path40" /></clipPath><linearGradient
       x1="0"
       y1="0"
       x2="1"
       y2="0"
       id="linearGradient46"
       gradientUnits="userSpaceOnUse"
       gradientTransform="matrix(35.725098,0,0,-35.725098,2.5092773,45.282227)"
       spreadMethod="pad"><stop
         id="stop48"
         style="stop-color:#d4e056;stop-opacity:1"
         offset="0" /><stop
         id="stop50"
         style="stop-color:#d0dd3a;stop-opacity:1"
         offset="0.40000001" /><stop
         id="stop52"
         style="stop-color:#65a04e;stop-opacity:1"
         offset="1" /></linearGradient><clipPath
       id="clipPath60"><path
         d="m 2.687,41.105 c 1.167,-3.606 8.629,-6.39 17.685,-6.39 l 0,0 c 9.055,0 16.521,2.784 17.685,6.39 l 0,0 c -1.164,3.605 -8.63,6.389 -17.685,6.389 l 0,0 c -9.056,0 -16.518,-2.784 -17.685,-6.389"
         id="path62" /></clipPath><linearGradient
       x1="0"
       y1="0"
       x2="1"
       y2="0"
       id="linearGradient68"
       gradientUnits="userSpaceOnUse"
       gradientTransform="matrix(35.723679,0,0,-35.723679,2.5102539,41.104492)"
       spreadMethod="pad"><stop
         id="stop70"
         style="stop-color:#eef8fe;stop-opacity:1"
         offset="0" /><stop
         id="stop72"
         style="stop-color:#88caef;stop-opacity:1"
         offset="1" /></linearGradient><clipPath
       id="clipPath80"><path
         d="M 0,50 50,50 50,0 0,0 0,50 z"
         id="path82" /></clipPath></defs><g
     transform="matrix(1.25,0,0,-1.25,-3.0975,18.99875)"
     id="g10"><g
       transform="matrix(0.26348781,0,0,0.26348781,3.4250772,2.0068927)"
       id="g12"><g
         clip-path="url(#clipPath16)"
         id="g14"><g
           id="g20"><g
             id="g22"><path
               d="m 2.478,41.872 0,-31.688 C 2.543,10.11 2.509,9.941 2.509,9.77 l 0,0 c 0,-4.069 7.997,-7.371 17.863,-7.371 l 0,0 c 9.864,0 17.863,3.302 17.863,7.371 l 0,0 c 0,0.169 -0.034,0.334 10e-4,0.562 l 0,0 0,31.694 -35.758,-0.154 z"
               id="path32"
               style="fill:url(#linearGradient24);stroke:none" /></g></g></g></g><g
       transform="matrix(0.26348781,0,0,0.26348781,3.4250772,2.0068927)"
       id="g34"><g
         clip-path="url(#clipPath38)"
         id="g36"><g
           id="g42"><g
             id="g44"><path
               d="m 2.509,42.087 c 0,-0.334 0.072,-0.66 0.178,-0.982 l 0,0 c 1.167,3.605 8.629,6.389 17.685,6.389 l 0,0 c 9.055,0 16.521,-2.784 17.685,-6.389 l 0,0 c 0.105,0.322 0.178,0.648 0.178,0.982 l 0,0 c 0,4.072 -7.999,7.373 -17.863,7.373 l 0,0 c -9.866,0 -17.863,-3.301 -17.863,-7.373"
               id="path54"
               style="fill:url(#linearGradient46);stroke:none" /></g></g></g></g><g
       transform="matrix(0.26348781,0,0,0.26348781,3.4250772,2.0068927)"
       id="g56"><g
         clip-path="url(#clipPath60)"
         id="g58"><g
           id="g64"><g
             id="g66"><path
               d="m 2.687,41.105 c 1.167,-3.606 8.629,-6.39 17.685,-6.39 l 0,0 c 9.055,0 16.521,2.784 17.685,6.39 l 0,0 c -1.164,3.605 -8.63,6.389 -17.685,6.389 l 0,0 c -9.056,0 -16.518,-2.784 -17.685,-6.389"
               id="path74"
               style="fill:url(#linearGradient68);stroke:none" /></g></g></g></g><g
       transform="matrix(0.26348781,0,0,0.26348781,3.4250772,2.0068927)"
       id="g76"><g
         clip-path="url(#clipPath80)"
         id="g78"><g
           transform="translate(33.9336,3.126)"
           id="g84"><path
             d="m 0,0 c -0.467,0 -0.847,0.382 -0.847,0.848 l 0,3.589 c 0,0.468 -0.382,0.847 -0.846,0.847 l -3.592,0 c -0.468,0 -0.85,0.384 -0.85,0.852 l 0,4.913 c 0,0.469 0.382,0.85 0.85,0.85 l 3.592,0 c 0.464,0 0.846,0.381 0.846,0.847 l 0,3.589 c 0,0.469 0.38,0.848 0.847,0.848 l 4.914,0 c 0.469,0 0.848,-0.379 0.848,-0.848 l 0,-3.589 c 0,-0.466 0.384,-0.847 0.849,-0.847 l 3.592,0 c 0.465,0 0.848,-0.381 0.848,-0.85 l 0,-4.913 c 0,-0.468 -0.383,-0.852 -0.848,-0.852 l -3.592,0 C 6.146,5.284 5.762,4.905 5.762,4.437 l 0,-3.589 C 5.762,0.382 5.383,0 4.914,0 L 0,0 z"
             id="path86"
             style="fill:#f1b85f;fill-opacity:1;fill-rule:nonzero;stroke:none" /></g><g
           transform="translate(33.9336,3.126)"
           id="g88"><path
             d="m 0,0 c -0.467,0 -0.847,0.382 -0.847,0.848 l 0,3.589 c 0,0.468 -0.382,0.847 -0.846,0.847 l -3.592,0 c -0.468,0 -0.85,0.384 -0.85,0.852 l 0,4.913 c 0,0.469 0.382,0.85 0.85,0.85 l 3.592,0 c 0.464,0 0.846,0.381 0.846,0.847 l 0,3.589 c 0,0.469 0.38,0.848 0.847,0.848 l 4.914,0 c 0.469,0 0.848,-0.379 0.848,-0.848 l 0,-3.589 c 0,-0.466 0.384,-0.847 0.849,-0.847 l 3.592,0 c 0.465,0 0.848,-0.381 0.848,-0.85 l 0,-4.913 c 0,-0.468 -0.383,-0.852 -0.848,-0.852 l -3.592,0 C 6.146,5.284 5.762,4.905 5.762,4.437 l 0,-3.589 C 5.762,0.382 5.383,0 4.914,0 L 0,0 z"
             id="path90"
             style="fill:none;stroke:#4961ab;stroke-width:0.69999999;stroke-linecap:butt;stroke-linejoin:miter;stroke-miterlimit:4;stroke-opacity:1;stroke-dasharray:none" /></g></g></g></g></svg>