<?xml version="1.0" encoding="UTF-8" standalone="no"?>
<svg
   xmlns:dc="http://purl.org/dc/elements/1.1/"
   xmlns:cc="http://creativecommons.org/ns#"
   xmlns:rdf="http://www.w3.org/1999/02/22-rdf-syntax-ns#"
   xmlns:svg="http://www.w3.org/2000/svg"
   xmlns="http://www.w3.org/2000/svg"
   id="svg49"
   xml:space="preserve"
   style="enable-background:new 0 0 512 512;"
   viewBox="0 0 512 512"
   
   
   version="1.1"><metadata
   id="metadata55"><rdf:RDF><cc:Work
       rdf:about=""><dc:format>image/svg+xml</dc:format><dc:type
         rdf:resource="http://purl.org/dc/dcmitype/StillImage" /><dc:title></dc:title></cc:Work></rdf:RDF></metadata><defs
   id="defs53">
	

		
		
		
		
			
	</defs>

<g
   transform="matrix(1.0698452,0,0,1.0698452,-41.821515,-0.06984521)"
   id="g201"><g
     id="XMLID_40_"
     transform="matrix(1.1757913,0,0,1.1757913,-56.669986,-42.206274)">
			<path
   id="XMLID_72_"
   style="fill:#6a71b5"
   d="m 292.343,85.954 c -5.251,0 -9.645,-3.608 -11.019,-8.614 -3.763,-13.715 -16.29,-19.194 -31.165,-19.194 -14.875,0 -27.403,10.075 -31.166,23.79 -1.373,5.006 -5.768,8.614 -11.019,8.614 h -4.188 c -9.561,0 -17.313,7.772 -17.313,17.359 v 32.647 c 0,0.564 0.463,1.022 1.035,1.022 h 125.301 c 0.571,0 1.035,-0.458 1.035,-1.022 v -37.243 c 0,-9.588 -7.752,-17.359 -17.314,-17.359 z" />
			
				<path
   id="XMLID_71_"
   style="fill:none;stroke:#111342;stroke-width:13.7869;stroke-linecap:round;stroke-linejoin:round;stroke-miterlimit:10"
   d="m 287.958,79.402 c -3.224,0 -6.01,-2.323 -6.503,-5.509 -2.65,-17.135 -17.463,-30.253 -35.34,-30.253 -17.877,0 -32.691,13.118 -35.341,30.253 -0.493,3.186 -3.279,5.509 -6.503,5.509 h -9.468 c -10.58,0 -19.157,8.577 -19.157,19.157 v 36.016 c 0,0.632 0.512,1.144 1.144,1.144 h 138.649 c 0.632,0 1.144,-0.512 1.144,-1.144 V 98.561 c 0,-10.581 -8.578,-19.159 -19.159,-19.159 z" />
			
				<path
   id="XMLID_70_"
   style="fill:none;stroke:#111342;stroke-width:13.7869;stroke-linecap:round;stroke-linejoin:round;stroke-miterlimit:10"
   d="m 316.02,91.131 h 75.257 c 0.984,0 1.783,0.798 1.783,1.783 v 340.274 c 0,1.159 -0.939,2.098 -2.098,2.098 H 99.997 c -0.293,0 -0.53,-0.237 -0.53,-0.53 V 92.915 c 0,-0.986 0.799,-1.785 1.785,-1.785 h 74.394" />
			
				<polyline
   id="XMLID_69_"
   style="fill:none;stroke:#111342;stroke-width:13.7869;stroke-linecap:round;stroke-linejoin:round;stroke-miterlimit:10"
   points="     178.414,123.395 133.259,123.395 133.259,400.938 294.04,400.938 358.97,400.938 358.97,123.395 319.77,123.395    " />
			
				<line
   id="XMLID_68_"
   style="fill:none;stroke:#111342;stroke-width:13.7869;stroke-linecap:round;stroke-linejoin:round;stroke-miterlimit:10"
   x1="243.265"
   y1="77"
   x2="251.59399"
   y2="77" />
			
				<polyline
   id="XMLID_67_"
   style="fill:none;stroke:#111342;stroke-width:13.7869;stroke-linecap:round;stroke-linejoin:round;stroke-miterlimit:10"
   points="     166.926,193.054 179.768,205.972 199.919,186.407    " />
			
				<line
   id="XMLID_66_"
   style="fill:none;stroke:#111342;stroke-width:15.651;stroke-linecap:round;stroke-linejoin:round;stroke-miterlimit:10"
   x1="171.049"
   y1="275.63599"
   x2="193.925"
   y2="253.425" />
			
				<line
   id="XMLID_65_"
   style="fill:none;stroke:#111342;stroke-width:15.651;stroke-linecap:round;stroke-linejoin:round;stroke-miterlimit:10"
   x1="193.925"
   y1="275.63599"
   x2="171.049"
   y2="253.425" />
			
				<polyline
   id="XMLID_64_"
   style="fill:none;stroke:#111342;stroke-width:13.7869;stroke-linecap:round;stroke-linejoin:round;stroke-miterlimit:10"
   points="     166.926,329.852 179.768,342.77 199.919,323.205    " />
			<g
   id="g23">
				
					<line
   id="XMLID_63_"
   style="fill:none;stroke:#111342;stroke-width:13.7869;stroke-linecap:round;stroke-linejoin:round;stroke-miterlimit:10"
   x1="231.371"
   y1="186.30099"
   x2="329.629"
   y2="186.30099" />
				
					<line
   id="XMLID_62_"
   style="fill:none;stroke:#111342;stroke-width:12.1965;stroke-linecap:round;stroke-linejoin:round;stroke-miterlimit:10"
   x1="231.371"
   y1="210.321"
   x2="290.133"
   y2="210.321" />
			</g>
			<g
   id="g27">
				
					<line
   id="XMLID_61_"
   style="fill:none;stroke:#111342;stroke-width:13.7869;stroke-linecap:round;stroke-linejoin:round;stroke-miterlimit:10"
   x1="231.371"
   y1="253.657"
   x2="329.629"
   y2="253.657" />
				
					<line
   id="XMLID_60_"
   style="fill:none;stroke:#111342;stroke-width:12.1965;stroke-linecap:round;stroke-linejoin:round;stroke-miterlimit:10"
   x1="231.371"
   y1="277.67599"
   x2="290.133"
   y2="277.67599" />
			</g>
			<g
   id="g31">
				
					<line
   id="XMLID_59_"
   style="fill:none;stroke:#111342;stroke-width:13.7869;stroke-linecap:round;stroke-linejoin:round;stroke-miterlimit:10"
   x1="231.371"
   y1="323.311"
   x2="329.629"
   y2="323.311" />
				
					<line
   id="XMLID_41_"
   style="fill:none;stroke:#111342;stroke-width:12.1965;stroke-linecap:round;stroke-linejoin:round;stroke-miterlimit:10"
   x1="231.371"
   y1="347.32999"
   x2="290.133"
   y2="347.32999" />
			</g>
		</g><g
     id="g41"
     transform="matrix(1.1757913,0,0,1.1757913,-56.669986,-42.206274)">
			
				<rect
   x="426.306"
   y="404.22101"
   style="fill:#6a71b5;stroke:#111342;stroke-width:13.7869;stroke-linecap:round;stroke-linejoin:round;stroke-miterlimit:10"
   width="44.164001"
   height="31.021"
   id="rect34" />
			
				<path
   style="fill:#6a71b5;stroke:#111342;stroke-width:13.7869;stroke-linecap:round;stroke-linejoin:round;stroke-miterlimit:10"
   d="m 470.47,174.761 h -44.164 l 20.543,-52.62 c 0.758,-1.654 3.102,-1.654 3.86,0 z"
   id="path36" />
			
				<rect
   x="426.306"
   y="174.761"
   style="fill:none;stroke:#111342;stroke-width:13.7869;stroke-linecap:round;stroke-linejoin:round;stroke-miterlimit:10"
   width="44.164001"
   height="229.46001"
   id="rect38" />
			
				<line
   id="XMLID_39_"
   style="fill:none;stroke:#111342;stroke-width:13.7869;stroke-linecap:round;stroke-linejoin:round;stroke-miterlimit:10"
   x1="448.397"
   y1="182.37"
   x2="448.397"
   y2="404.21899" />
		</g><line
     style="fill:#6a71b5;stroke:#111342;stroke-width:16.2105;stroke-linecap:round;stroke-linejoin:round;stroke-miterlimit:10"
     x1="463.42722"
     y1="123.48389"
     x2="477.84006"
     y2="123.48389"
     id="line43" /><g
     
     transform="matrix(1.1757913,0,0,1.1757913,-56.669986,-42.206274)">
</g></g>
</svg>
