<?xml version="1.0" encoding="UTF-8"?><svg xmlns="http://www.w3.org/2000/svg" viewBox="0 0 512 512"><style><![CDATA[.Bab1{stroke-linejoin:round}.Cab1{stroke-miterlimit:10}.Dab1{stroke-linecap:round}.Eab1{stroke:#111342}.Fab1{fill:none}.Gab1{stroke-width:13.787}.Hab1{stroke-width:16.211}.Iab1{stroke-width:12.197}]]></style><g transform="matrix(1.069845 0 0 1.069845 -41.821515 -.069845)"><g transform="matrix(1.175791 0 0 1.175791 -56.669986 -42.206274)"><g fill="#fff" class="Bab1 Cab1 Dab1 Eab1 Gab1"><path d="M316.02 91.131h75.257c.984 0 1.783.798 1.783 1.783v340.274a2.1 2.1 0 0 1-2.098 2.098H99.997a.53.53 0 0 1-.53-.53V92.915c0-.986.799-1.785 1.785-1.785h74.394"/><path d="M178.414 123.395h-45.155v277.543H294.04h64.93V123.395h-39.2"/></g><g class="Fab1 Bab1 Cab1 Dab1 Eab1"><path d="M166.926 193.054l12.842 12.918 20.151-19.565" class="Gab1"/><g stroke-width="15.651"><path d="M171.049 275.636l22.876-22.211"/><path d="M193.925 275.636l-22.876-22.211"/></g><path d="M166.926 329.852l12.842 12.918 20.151-19.565" class="Gab1"/></g><path d="M292.343 85.954c-5.251 0-9.645-3.608-11.019-8.614-3.763-13.715-16.29-19.194-31.165-19.194s-27.403 10.075-31.166 23.79c-1.373 5.006-5.768 8.614-11.019 8.614h-4.188c-9.561 0-17.313 7.772-17.313 17.359v32.647a1.03 1.03 0 0 0 1.035 1.022h125.301a1.03 1.03 0 0 0 1.035-1.022v-37.243c0-9.588-7.752-17.359-17.314-17.359z" fill="#2dbce9"/><g class="Eab1 Bab1 Cab1 Fab1"><g class="Gab1"><path d="M287.958 79.402c-3.224 0-6.01-2.323-6.503-5.509-2.65-17.135-17.463-30.253-35.34-30.253s-32.691 13.118-35.341 30.253c-.493 3.186-3.279 5.509-6.503 5.509h-9.468a19.16 19.16 0 0 0-19.157 19.157v36.016c0 .632.512 1.144 1.144 1.144h138.649c.632 0 1.144-.512 1.144-1.144V98.561c0-10.581-8.578-19.159-19.159-19.159z"/><path d="M243.265 77h8.329m-20.223 109.301h98.258" class="Dab1"/></g><path d="M231.371 210.321h58.762" class="Dab1 Iab1"/><path d="M231.371 253.657h98.258" class="Dab1 Gab1"/><path d="M231.371 277.676h58.762" class="Dab1 Iab1"/><path d="M231.371 323.311h98.258" class="Dab1 Gab1"/><path d="M231.371 347.33h58.762" class="Dab1 Iab1"/></g></g><path d="M444.577 433.073h51.928v36.474h-51.928zm51.927-269.797h-51.928l24.154-61.87c.891-1.945 3.647-1.945 4.539 0z" fill="#2dbce9" class="Bab1 Cab1 Eab1 Hab1"/><path d="M444.577 163.276h51.928v269.797h-51.928z" fill="#fff" class="Bab1 Cab1 Eab1 Hab1"/><g class="Dab1 Bab1 Cab1 Eab1 Hab1"><path d="M470.551 172.223v260.848" class="Fab1"/><path d="M463.427 123.484h14.413" fill="#6a71b5"/></g></g></svg>
