<?xml version="1.0" encoding="UTF-8" standalone="no"?>
<!-- Created with Inkscape (http://www.inkscape.org/) -->

<svg
   xmlns:dc="http://purl.org/dc/elements/1.1/"
   xmlns:cc="http://creativecommons.org/ns#"
   xmlns:rdf="http://www.w3.org/1999/02/22-rdf-syntax-ns#"
   xmlns:svg="http://www.w3.org/2000/svg"
   xmlns="http://www.w3.org/2000/svg"
   xmlns:xlink="http://www.w3.org/1999/xlink"
   version="1.1"
   width="30"
   height="30"
   id="svg2"
   xml:space="preserve"><metadata
     id="metadata8"><rdf:RDF><cc:Work
         rdf:about=""><dc:format>image/svg+xml</dc:format><dc:type
           rdf:resource="http://purl.org/dc/dcmitype/StillImage" /><dc:title></dc:title></cc:Work></rdf:RDF></metadata><defs
     id="defs6"><clipPath
       id="clipPath18"><path
         d="m 9.305,49.236 c -1.453,0 -2.642,-1.179 -2.642,-2.639 l 0,0 0,-4.826 c 0.216,0.018 0.438,0.03 0.67,0.03 l 0,0 2.59,0 c 1.457,0 2.645,-0.38 2.645,-0.847 l 0,0 C 12.568,40.486 11.38,40.1 9.923,40.1 l 0,0 -2.59,0 c -0.232,0 -0.454,0.012 -0.67,0.032 l 0,0 0,-4.575 1.179,0 c 1.458,0 2.645,-0.381 2.645,-0.846 l 0,0 c 0,-0.469 -1.187,-0.856 -2.645,-0.856 l 0,0 -1.179,0 0,-3.848 1.179,0 c 1.458,0 2.645,-0.381 2.645,-0.847 l 0,0 c 0,-0.469 -1.187,-0.854 -2.645,-0.854 l 0,0 -1.179,0 0,-4.574 c 0.216,0.018 0.438,0.032 0.67,0.032 l 0,0 2.59,0 c 1.457,0 2.645,-0.381 2.645,-0.848 l 0,0 c 0,-0.469 -1.188,-0.853 -2.645,-0.853 l 0,0 -2.59,0 c -0.232,0 -0.454,0.011 -0.67,0.031 l 0,0 0,-4.575 1.179,0 c 1.458,0 2.645,-0.38 2.645,-0.847 l 0,0 c 0,-0.469 -1.187,-0.854 -2.645,-0.854 l 0,0 -1.179,0 0,-4.574 c 0.216,0.02 0.438,0.031 0.67,0.031 l 0,0 2.59,0 c 1.457,0 2.645,-0.38 2.645,-0.845 l 0,0 c 0,-0.471 -1.188,-0.856 -2.645,-0.856 l 0,0 -2.59,0 c -0.232,0 -0.454,0.012 -0.67,0.032 l 0,0 0,-4.959 C 6.663,3.193 7.852,2.01 9.305,2.01 l 0,0 11.75,0 c 1.456,0 2.655,1.183 2.655,2.637 l 0,0 0,41.95 c 0,1.46 -1.199,2.639 -2.655,2.639 l 0,0 -11.75,0 z"
         id="path20" /></clipPath><linearGradient
       x1="0"
       y1="0"
       x2="1"
       y2="0"
       id="linearGradient26"
       gradientUnits="userSpaceOnUse"
       gradientTransform="matrix(17.047363,0,0,-17.047363,6.6625977,25.623047)"
       spreadMethod="pad"><stop
         id="stop28"
         style="stop-color:#c1e6f9;stop-opacity:1"
         offset="0" /><stop
         id="stop30"
         style="stop-color:#75bfea;stop-opacity:1"
         offset="1" /></linearGradient><clipPath
       id="clipPath38"><path
         d="M 21.451,22.657 21.355,22.615 C 21.299,22.58 13.711,17.598 14.492,7.549 l 0,0 C 14.889,2.475 23.132,1.168 26.67,0.834 l 0,0 c 0.01,0 1.318,-0.064 2.137,-0.07 l 0,0 0.042,0 c 0.816,0 2.213,0.059 2.226,0.059 l 0,0 c 3.534,0.314 11.786,1.579 12.208,6.653 l 0,0 c 0.83,10.043 -6.733,15.067 -6.788,15.104 l 0,0 -0.095,0.035 -4.081,1.393 -0.092,0.005 -2.038,0.003 -4.636,0.012 -4.102,-1.371 z"
         id="path40" /></clipPath><radialGradient
       cx="0"
       cy="0"
       r="1"
       fx="0"
       fy="0"
       id="radialGradient46"
       gradientUnits="userSpaceOnUse"
       gradientTransform="matrix(13.120591,0,0,-13.120591,28.890625,12.396484)"
       spreadMethod="pad"><stop
         id="stop48"
         style="stop-color:#ffffff;stop-opacity:1"
         offset="0" /><stop
         id="stop50"
         style="stop-color:#abd046;stop-opacity:1"
         offset="0.85276097" /><stop
         id="stop52"
         style="stop-color:#abd046;stop-opacity:1"
         offset="1" /></radialGradient><clipPath
       id="clipPath60"><path
         d="M 0,50 50,50 50,0 0,0 0,50 z"
         id="path62" /></clipPath><clipPath
       id="clipPath72"><path
         d="m 17.976,28.765 c 0,-5.898 4.783,-10.681 10.684,-10.681 l 0,0 c 5.897,0 10.684,4.783 10.684,10.681 l 0,0 c 0,5.901 -4.787,10.686 -10.684,10.686 l 0,0 c -5.901,0 -10.684,-4.785 -10.684,-10.686"
         id="path74" /></clipPath><radialGradient
       cx="0"
       cy="0"
       r="1"
       fx="0"
       fy="0"
       id="radialGradient80"
       gradientUnits="userSpaceOnUse"
       gradientTransform="matrix(10.683838,0,0,-10.683838,28.660156,28.76709)"
       spreadMethod="pad"><stop
         id="stop82"
         style="stop-color:#ffffff;stop-opacity:1"
         offset="0" /><stop
         id="stop84"
         style="stop-color:#abd046;stop-opacity:1"
         offset="0.85276097" /><stop
         id="stop86"
         style="stop-color:#abd046;stop-opacity:1"
         offset="1" /></radialGradient><clipPath
       id="clipPath94"><path
         d="M 0,50 50,50 50,0 0,0 0,50 z"
         id="path96" /></clipPath><linearGradient
       x1="0"
       y1="0"
       x2="1"
       y2="0"
       id="linearGradient3081"
       xlink:href="#linearGradient26"
       gradientUnits="userSpaceOnUse"
       gradientTransform="matrix(17.047363,0,0,-17.047363,6.6625977,25.623047)"
       spreadMethod="pad" /></defs><g
     transform="matrix(1.25,0,0,-1.25,-6.3287501,30.329)"
     id="g10"><path
       d="m 12.097741,4.3828818 -4.2421668,0 0,17.3026252 4.2421668,0 0,-17.3026252 z"
       id="path12"
       style="fill:#3cb879;fill-opacity:1;fill-rule:nonzero;stroke:none" /><g
       transform="matrix(0.48190016,0,0,0.48190016,4.5720993,0.37636388)"
       clip-path="url(#clipPath18)"
       id="g16"><g
         id="g22"><g
           id="g24"><path
             d="m 9.305,49.236 c -1.453,0 -2.642,-1.179 -2.642,-2.639 l 0,0 0,-4.826 c 0.216,0.018 0.438,0.03 0.67,0.03 l 0,0 2.59,0 c 1.457,0 2.645,-0.38 2.645,-0.847 l 0,0 C 12.568,40.486 11.38,40.1 9.923,40.1 l 0,0 -2.59,0 c -0.232,0 -0.454,0.012 -0.67,0.032 l 0,0 0,-4.575 1.179,0 c 1.458,0 2.645,-0.381 2.645,-0.846 l 0,0 c 0,-0.469 -1.187,-0.856 -2.645,-0.856 l 0,0 -1.179,0 0,-3.848 1.179,0 c 1.458,0 2.645,-0.381 2.645,-0.847 l 0,0 c 0,-0.469 -1.187,-0.854 -2.645,-0.854 l 0,0 -1.179,0 0,-4.574 c 0.216,0.018 0.438,0.032 0.67,0.032 l 0,0 2.59,0 c 1.457,0 2.645,-0.381 2.645,-0.848 l 0,0 c 0,-0.469 -1.188,-0.853 -2.645,-0.853 l 0,0 -2.59,0 c -0.232,0 -0.454,0.011 -0.67,0.031 l 0,0 0,-4.575 1.179,0 c 1.458,0 2.645,-0.38 2.645,-0.847 l 0,0 c 0,-0.469 -1.187,-0.854 -2.645,-0.854 l 0,0 -1.179,0 0,-4.574 c 0.216,0.02 0.438,0.031 0.67,0.031 l 0,0 2.59,0 c 1.457,0 2.645,-0.38 2.645,-0.845 l 0,0 c 0,-0.471 -1.188,-0.856 -2.645,-0.856 l 0,0 -2.59,0 c -0.232,0 -0.454,0.012 -0.67,0.032 l 0,0 0,-4.959 C 6.663,3.193 7.852,2.01 9.305,2.01 l 0,0 11.75,0 c 1.456,0 2.655,1.183 2.655,2.637 l 0,0 0,41.95 c 0,1.46 -1.199,2.639 -2.655,2.639 l 0,0 -11.75,0 z"
             id="path32"
             style="fill:url(#linearGradient3081);stroke:none" /></g></g></g><g
       transform="matrix(0.48190016,0,0,0.48190016,4.5720993,0.37636388)"
       id="g34"><g
         clip-path="url(#clipPath38)"
         id="g36"><g
           id="g42"><g
             id="g44"><path
               d="M 21.451,22.657 21.355,22.615 C 21.299,22.58 13.711,17.598 14.492,7.549 l 0,0 C 14.889,2.475 23.132,1.168 26.67,0.834 l 0,0 c 0.01,0 1.318,-0.064 2.137,-0.07 l 0,0 0.042,0 c 0.816,0 2.213,0.059 2.226,0.059 l 0,0 c 3.534,0.314 11.786,1.579 12.208,6.653 l 0,0 c 0.83,10.043 -6.733,15.067 -6.788,15.104 l 0,0 -0.095,0.035 -4.081,1.393 -0.092,0.005 -2.038,0.003 -4.636,0.012 -4.102,-1.371 z"
               id="path54"
               style="fill:url(#radialGradient46);stroke:none" /></g></g></g></g><g
       transform="matrix(0.48190016,0,0,0.48190016,4.5720993,0.37636388)"
       id="g56"><g
         clip-path="url(#clipPath60)"
         id="g58"><g
           transform="translate(21.355,22.6152)"
           id="g64"><path
             d="M 0,0 0.095,0.041 4.198,1.413 8.833,1.401 10.873,1.397 10.964,1.394 15.044,0 15.14,-0.035 c 0.055,-0.037 7.618,-5.061 6.788,-15.104 -0.423,-5.074 -8.675,-6.34 -12.208,-6.654 -0.013,0 -1.41,-0.059 -2.226,-0.059 l -0.041,0 c -0.82,0.006 -2.127,0.071 -2.138,0.071 -3.538,0.334 -11.781,1.64 -12.178,6.715 C -7.645,-5.018 -0.055,-0.035 0,0 z"
             id="path66"
             style="fill:none;stroke:#89c761;stroke-width:1;stroke-linecap:butt;stroke-linejoin:miter;stroke-miterlimit:4;stroke-opacity:1;stroke-dasharray:none" /></g></g></g><g
       transform="matrix(0.48190016,0,0,0.48190016,4.5720993,0.37636388)"
       id="g68"><g
         clip-path="url(#clipPath72)"
         id="g70"><g
           id="g76"><g
             id="g78"><path
               d="m 17.976,28.765 c 0,-5.898 4.783,-10.681 10.684,-10.681 l 0,0 c 5.897,0 10.684,4.783 10.684,10.681 l 0,0 c 0,5.901 -4.787,10.686 -10.684,10.686 l 0,0 c -5.901,0 -10.684,-4.785 -10.684,-10.686"
               id="path88"
               style="fill:url(#radialGradient80);stroke:none" /></g></g></g></g><g
       transform="matrix(0.48190016,0,0,0.48190016,4.5720993,0.37636388)"
       id="g90"><g
         clip-path="url(#clipPath94)"
         id="g92"><g
           transform="translate(28.6592,39.4502)"
           id="g98"><path
             d="m 0,0 c 5.898,0 10.686,-4.784 10.686,-10.686 0,-5.897 -4.788,-10.68 -10.686,-10.68 -5.9,0 -10.683,4.783 -10.683,10.68 C -10.683,-4.784 -5.9,0 0,0 z"
             id="path100"
             style="fill:none;stroke:#89c761;stroke-width:1;stroke-linecap:butt;stroke-linejoin:miter;stroke-miterlimit:4;stroke-opacity:1;stroke-dasharray:none" /></g></g></g></g></svg>