<?xml version="1.0" encoding="UTF-8" standalone="no"?>
<!-- Created with Inkscape (http://www.inkscape.org/) -->

<svg
   xmlns:dc="http://purl.org/dc/elements/1.1/"
   xmlns:cc="http://creativecommons.org/ns#"
   xmlns:rdf="http://www.w3.org/1999/02/22-rdf-syntax-ns#"
   xmlns:svg="http://www.w3.org/2000/svg"
   xmlns="http://www.w3.org/2000/svg"
   version="1.1"
   width="30"
   height="30"
   id="svg2"
   xml:space="preserve"><metadata
     id="metadata8"><rdf:RDF><cc:Work
         rdf:about=""><dc:format>image/svg+xml</dc:format><dc:type
           rdf:resource="http://purl.org/dc/dcmitype/StillImage" /><dc:title></dc:title></cc:Work></rdf:RDF></metadata><defs
     id="defs6"><clipPath
       id="clipPath16"><path
         d="m 1.07,25 c 0,-13.254 10.745,-24 24,-24 l 0,0 c 13.256,0 24.001,10.746 24.001,24 l 0,0 c 0,13.255 -10.745,24 -24.001,24 l 0,0 c -13.255,0 -24,-10.745 -24,-24"
         id="path18" /></clipPath><radialGradient
       cx="0"
       cy="0"
       r="1"
       fx="0"
       fy="0"
       id="radialGradient24"
       gradientUnits="userSpaceOnUse"
       gradientTransform="matrix(23.999998,0,0,-23.999998,25.070312,25)"
       spreadMethod="pad"><stop
         id="stop26"
         style="stop-color:#8abce5;stop-opacity:1"
         offset="0" /><stop
         id="stop28"
         style="stop-color:#193864;stop-opacity:1"
         offset="1" /></radialGradient><clipPath
       id="clipPath36"><path
         d="M 0,50 50,50 50,0 0,0 0,50 z"
         id="path38" /></clipPath></defs><g
     transform="matrix(1.25,0,0,-1.25,0,30)"
     id="g10"><g
       transform="matrix(0.49166667,0,0,0.49166667,-0.25608333,-0.29166667)"
       id="g12"><g
         clip-path="url(#clipPath16)"
         id="g14"><g
           id="g20"><g
             id="g22"><path
               d="m 1.07,25 c 0,-13.254 10.745,-24 24,-24 l 0,0 c 13.256,0 24.001,10.746 24.001,24 l 0,0 c 0,13.255 -10.745,24 -24.001,24 l 0,0 c -13.255,0 -24,-10.745 -24,-24"
               id="path30"
               style="fill:url(#radialGradient24);stroke:none" /></g></g></g></g><g
       transform="matrix(0.49166667,0,0,0.49166667,-0.25608333,-0.29166667)"
       id="g32"><g
         clip-path="url(#clipPath36)"
         id="g34"><g
           transform="translate(31.6074,30.5254)"
           id="g40"><path
             d="m 0,0 -8.41,-0.066 c -0.691,-0.007 -0.839,-0.037 -1.111,-0.671 -0.273,-0.635 4.195,-4.832 4.195,-4.832 0.328,-0.352 0.79,-0.552 1.271,-0.552 l 3.577,0 c 0.257,0 0.466,-0.21 0.466,-0.466 l 0,-7.044 c 0,-0.256 -0.209,-0.465 -0.466,-0.465 l -10.895,0 c -0.256,0 -0.465,0.209 -0.465,0.465 l 0,7.486 c 0,0.079 -0.006,0.157 -0.016,0.232 l 0,9.355 c 0,0.437 -0.164,0.857 -0.459,1.178 l -1.95,4.301 c -0.485,0.529 -1.248,0.705 -1.913,0.445 -0.669,-0.261 -1.109,-0.905 -1.109,-2.622 l 0,-21.539 c 0,-1.99 2.432,-5.422 5.422,-5.422 l 11.878,0 c 2.988,0 5.421,2.432 5.421,5.422 l 0,9.374 C 5.436,-2.432 3.003,0 0,0"
             id="path42"
             style="fill:#ffffff;fill-opacity:1;fill-rule:nonzero;stroke:none" /></g></g></g></g></svg>