<?xml version="1.0" encoding="UTF-8" standalone="no"?>
<svg class="survey"
   xmlns:dc="http://purl.org/dc/elements/1.1/"
   xmlns:cc="http://creativecommons.org/ns#"
   xmlns:rdf="http://www.w3.org/1999/02/22-rdf-syntax-ns#"
   xmlns:svg="http://www.w3.org/2000/svg"
   xmlns="http://www.w3.org/2000/svg"
   xml:space="preserve"
   style="enable-background:new 0 0 512 512;"
   viewBox="0 0 512 512"
   
   
   
   version="1.1"><metadata
   id="metadata66"><rdf:RDF><cc:Work
       rdf:about=""><dc:format>image/svg+xml</dc:format><dc:type
         rdf:resource="http://purl.org/dc/dcmitype/StillImage" /><dc:title></dc:title></cc:Work></rdf:RDF></metadata><defs
   id="defs64" />
<style
   id="style10"
   type="text/css">
	svg.survey .st0{opacity:0.6;fill:#FBA919;}
	svg.survey .st1{fill:none;stroke:#111342;stroke-width:14.3367;stroke-linecap:round;stroke-linejoin:round;stroke-miterlimit:10;}
	svg.survey .st2{fill:#FBA919;}
</style>
<g
   id="XMLID_43_">
	
	
	<g
   transform="translate(-19.720632,15.433538)"
   id="g58">
		
		
		
		
		
		
		
		<g
   transform="matrix(1.2371603,0,0,1.1474445,-77.280582,-28.239188)"
   id="g355"><polygon
     id="XMLID_53_"
     class="st1"
     points="110.43,449.3 110.43,19.2 460.21,19.2 460.21,449.3 359.59,449.3 " /><g
     id="g16">
			<polyline
   id="XMLID_52_"
   class="st1"
   points="329.52,98.63 347.8,117.02 376.48,89.17    " />
		</g><g
     id="g26">
			<circle
   class="st1"
   cx="212.97"
   cy="105.29"
   r="52.759998"
   id="circle18" />
			<line
   class="st1"
   x1="192.78"
   y1="89.019997"
   x2="192.78"
   y2="95.870003"
   id="line20" />
			<line
   class="st1"
   x1="230.08"
   y1="89.019997"
   x2="230.08"
   y2="95.870003"
   id="line22" />
			<path
   class="st1"
   d="m 192.78,123.2 v 0 c 11.51,6.77 25.79,6.77 37.3,0 v 0"
   id="path24" />
		</g><g
     id="g38">
			<g
   id="g36">
				<circle
   class="st1"
   cx="212.97"
   cy="364.22"
   r="52.759998"
   id="circle28" />
				<line
   class="st1"
   x1="192.78"
   y1="347.95001"
   x2="192.78"
   y2="354.79999"
   id="line30" />
				<line
   class="st1"
   x1="230.08"
   y1="347.95001"
   x2="230.08"
   y2="354.79999"
   id="line32" />
				<path
   class="st1"
   d="m 192.78,387.21 v 0 c 11.51,-6.77 25.79,-6.77 37.3,0 v 0"
   id="path34" />
			</g>
		</g><g
     id="g48">
			<circle
   class="st1"
   cx="212.97"
   cy="234.75"
   r="52.759998"
   id="circle40" />
			<line
   class="st1"
   x1="192.78"
   y1="218.49001"
   x2="192.78"
   y2="225.34"
   id="line42" />
			<line
   class="st1"
   x1="230.08"
   y1="218.49001"
   x2="230.08"
   y2="225.34"
   id="line44" />
			<line
   class="st1"
   x1="192.78"
   y1="252.67"
   x2="230.08"
   y2="252.67"
   id="line46" />
		</g><path
     class="st2"
     d="m 394.28,215.99 v 35.84 c 0,7.89 -6.45,14.34 -14.34,14.34 h -46.16 v -35.84 c 0,-7.89 6.45,-14.34 14.34,-14.34 z"
     id="path50" /><path
     class="st2"
     d="m 394.28,347.41 v 35.84 c 0,7.89 -6.45,14.34 -14.34,14.34 h -46.16 v -35.84 c 0,-7.89 6.45,-14.34 14.34,-14.34 z"
     id="path52" /><path
     class="st1"
     d="m 394.28,215.99 v 35.84 c 0,7.89 -6.45,14.34 -14.34,14.34 h -46.16 c -7.89,0 -14.34,-6.45 -14.34,-14.34 v -35.84 c 0,-7.89 6.45,-14.34 14.34,-14.34 h 46.16 c 7.89,0.01 14.34,6.46 14.34,14.34 z"
     id="path54" /><path
     class="st1"
     d="m 394.28,347.41 v 35.84 c 0,7.89 -6.45,14.34 -14.34,14.34 h -46.16 c -7.89,0 -14.34,-6.45 -14.34,-14.34 v -35.84 c 0,-7.89 6.45,-14.34 14.34,-14.34 h 46.16 c 7.89,0.01 14.34,6.46 14.34,14.34 z"
     id="path56" /></g>
	</g>
</g>
</svg>
