<?xml version="1.0" encoding="UTF-8"?><svg class="survey" xmlns="http://www.w3.org/2000/svg" xmlns:xlink="http://www.w3.org/1999/xlink" viewBox="0 0 512 512"><style><![CDATA[svg.survey .Fs0{stroke-linejoin:round}svg.survey .Gs0{stroke-miterlimit:10}svg.survey .Hs0{stroke-linecap:round}svg.survey .Is0{stroke-width:14.337}]]></style><g stroke="#111342" class="Fs0"><g fill="#fff" stroke-width="17.106" class="Gs0"><path d="M39.618 9.226h432.734v493.516H347.869 39.618z"/><path d="M310.667 100.367l22.615 21.102 35.482-31.956" class="Hs0"/></g><g transform="matrix(1.23716 0 0 1.147445 -97.001582 -12.805188)" fill="none" class="Is0"><circle r="52.76" cy="105.29" cx="212.97"/><path d="M192.78 89.02v6.85m37.3-6.85v6.85m-37.3 27.33h0a36.79 36.79 0 0 0 37.3 0h0" class="Gs0 Hs0"/><circle r="52.76" cy="364.22" cx="212.97"/><path d="M192.78 347.95v6.85m37.3-6.85v6.85m-37.3 32.41h0a36.79 36.79 0 0 1 37.3 0h0" class="Gs0 Hs0"/><circle r="52.76" cy="234.75" cx="212.97"/><path d="M192.78 218.49v6.85m37.3-6.85v6.85m-37.3 27.33h37.3" class="Gs0 Hs0"/></g></g><g fill="#1ad9b2"><use xlink:href="#As0s0"/><use xlink:href="#As0s0" y="150.798"/></g><g stroke="#111342" fill="none" class="Fs0 Gs0 Is0"><use xlink:href="#Bs0s0"/><use xlink:href="#Bs0s0" y="150.798"/></g><defs><path d="M390.786 235.031v41.124c0 9.053-7.98 16.454-17.741 16.454h-57.107v-41.124c0-9.053 7.98-16.454 17.741-16.454z" id="As0s0"/><path d="M390.786 235.031v41.124c0 9.053-7.98 16.454-17.741 16.454h-57.107c-9.761 0-17.741-7.401-17.741-16.454v-41.124c0-9.053 7.98-16.454 17.741-16.454h57.107c9.761.012 17.741 7.412 17.741 16.454z" id="Bs0s0"/></defs></svg>