<?xml version="1.0" encoding="UTF-8" standalone="no"?>
<svg class="wiki"
   xmlns:dc="http://purl.org/dc/elements/1.1/"
   xmlns:cc="http://creativecommons.org/ns#"
   xmlns:rdf="http://www.w3.org/1999/02/22-rdf-syntax-ns#"
   xmlns:svg="http://www.w3.org/2000/svg"
   xmlns="http://www.w3.org/2000/svg"
   xml:space="preserve"
   style="enable-background:new 0 0 512 512;"
   viewBox="0 0 512 512"
   
   
   
   version="1.1"><metadata
   id="metadata29"><rdf:RDF><cc:Work
       rdf:about=""><dc:format>image/svg+xml</dc:format><dc:type
         rdf:resource="http://purl.org/dc/dcmitype/StillImage" /><dc:title></dc:title></cc:Work></rdf:RDF></metadata><defs
   id="defs27">
	
	
	
	
</defs>
<style
   id="style10"
   type="text/css">
	svg.wiki .st0{opacity:0.6;fill:#87CB9D;}
	svg.wiki .st1{fill:#87CB9D;}
	svg.wiki .st2{fill:none;stroke:#111342;stroke-width:13.6949;stroke-linecap:round;stroke-linejoin:round;stroke-miterlimit:10;}
	svg.wiki .st3{fill:#111342;}
</style>
<g
   transform="matrix(1.0797727,0,0,1.0797727,-14.973705,-50.50236)"
   id="g58"><path
     id="path14"
     d="m 380.84466,253.59771 c -6.75397,29.46073 -13.60842,58.83216 -20.64149,88.21475 -0.91541,3.79562 -1.90897,7.56891 -2.98068,11.34221 -1.6857,5.83856 -3.4942,11.6213 -5.30271,17.40405 -2.16573,6.83212 -4.17518,8.94204 -8.26106,7.05539 -1.32846,-0.58051 -2.85788,-1.60756 -4.66638,-3.00301 -9.53371,-7.41262 -19.03393,-14.88107 -28.56764,-22.31603 -3.63933,-2.85788 -7.28983,-5.70459 -10.95149,-8.56248 -2.70159,-2.10992 -5.55947,-4.03005 -8.32804,-6.0395 -0.99356,-0.71447 -1.9313,-1.17218 -2.77974,-1.3508 -1.73035,-0.35723 -3.18162,0.51353 -4.27565,2.95836 -2.42251,5.4255 -5.02362,10.80636 -7.26751,16.31001 -3.81795,9.45557 -7.54659,18.95579 -11.30872,28.43368 -1.62988,4.07472 -3.2821,8.14943 -4.94547,12.23531 -1.27265,3.13697 -3.0365,6.19579 -5.06827,8.86389 -2.57879,3.33792 -4.99013,4.30915 -8.20525,2.92486 -0.61399,-0.23443 -1.25032,-0.59167 -1.9313,-1.01588 -4.74453,-3.0365 -9.29927,-6.47489 -13.60842,-10.11422 -26.8038,-22.85189 -53.56294,-45.75959 -80.31091,-68.62263 l 32.48606,-10.60542 c 16.68958,14.2894 33.47963,28.43368 50.32549,42.55563 5.91671,4.94548 12.20181,9.39975 19.19022,14.75828 0.0558,-0.10048 0.1228,-0.23444 0.17862,-0.33491 3.57235,-6.7763 6.95492,-12.55905 9.75698,-18.62088 3.67283,-7.94848 6.9326,-16.1314 10.29284,-24.23617 1.27265,-3.05883 0.89309,-5.78274 -1.9313,-7.92615 -6.1958,-4.68871 -12.3581,-9.43324 -18.52041,-14.14428 -4.48776,-3.41606 -8.96437,-6.83212 -13.47446,-10.21469 l 30.73338,-10.01375 22.27138,-7.23401 17.04681,-5.55947 c -3.85144,9.14298 -7.64707,18.31946 -11.48734,27.47361 -1.3508,3.18163 -0.81495,5.68227 2.10992,7.74754 0.87076,0.614 1.73035,1.22799 2.60111,1.86432 5.22457,3.69515 10.4268,7.43495 15.61787,11.18592 6.91027,4.94548 13.80937,9.89095 20.82011,14.68013 5.91671,4.05239 7.59125,3.25977 8.96437,-3.67282 4.99013,-25.53115 9.91327,-51.08462 14.72478,-76.64926 z"
     class="st1"
     style="stroke-width:1.11636" /><path
     id="path16"
     d="m 480.26765,271.29201 c -0.60284,-7.25633 -1.13869,-14.52384 -1.81967,-21.76901 -3.4942,-37.19711 -15.28296,-71.58098 -35.85747,-102.74975 -22.91886,-34.71878 -53.46246,-60.729965 -91.25123,-78.178667 -8.17175,-3.773296 -13.08374,-2.165738 -18.08503,6.407904 3.0365,1.507086 6.22929,2.746245 9.00902,4.588239 1.55174,1.027051 3.47188,3.170461 3.32676,4.632893 -0.13397,1.373122 -2.56763,2.98068 -4.30915,3.650496 -5.7046,2.188065 -9.4779,0.770288 -13.50795,-4.543584 -5.11293,-6.753976 -12.7265,-9.120659 -20.75313,-6.262778 -2.51181,0.893088 -5.03478,1.975957 -7.24517,3.449551 -9.31044,6.20696 -19.91586,5.325036 -30.27567,5.738089 -2.7909,0.111636 -3.98541,-1.607558 -3.87377,-4.286821 0.17862,-4.152858 -2.16574,-5.726925 -5.88322,-5.291545 -5.57063,0.658652 -11.15243,1.42894 -16.64492,2.578791 -2.86904,0.591671 -4.29798,2.656936 -3.90726,5.994851 0.37956,3.22628 0.0782,6.530705 0.0782,10.571927 -8.35037,0.893088 -16.56678,1.775012 -24.91715,2.679263 -1.47359,7.144701 -0.53585,13.987991 2.25505,20.563341 1.94246,4.57708 5.78274,5.9502 10.24818,3.79563 1.86432,-0.90425 3.55002,-2.1769 5.24689,-3.38257 7.7587,-5.44784 14.22242,-3.91842 17.67197,5.02362 3.24861,8.42851 1.70803,17.76128 -7.81452,19.07858 -2.7574,0.37957 -5.87205,-0.61399 -8.60713,-1.57406 -5.41434,-1.90898 -9.26578,-0.44655 -9.50022,5.28038 -0.31258,7.49077 0.77029,15.04853 1.39545,22.57279 0.16745,2.03178 0.90425,4.0189 1.19451,5.22456 -9.26579,1.33964 -18.45343,2.17691 -27.39547,4.13054 -6.78747,1.48475 -13.31817,4.25333 -19.8712,6.68699 -5.38085,1.99828 -5.98369,5.31387 -1.97596,9.37742 0.7368,0.74796 1.49593,1.46243 2.24389,2.18807 5.12409,5.00129 4.86732,7.62473 -0.9824,12.05668 -6.2851,4.77802 -13.7089,5.89438 -21.16618,5.88322 -5.5818,-0.0112 -11.2529,-1.08287 -16.72306,-2.35552 -4.06355,-0.94891 -4.64406,-3.17046 -2.25505,-6.65351 1.84199,-2.69042 4.29798,-4.9678 6.17347,-7.64706 1.3173,-1.88665 2.10992,-4.14169 3.13697,-6.22929 -0.39073,-0.56934 -0.78145,-1.14985 -1.17218,-1.71919 -7.91499,0.9824 -15.85231,1.81967 -23.7338,3.00301 -4.69988,0.7033 -9.32161,1.99828 -13.98799,2.94719 -4.85616,0.99356 -6.41907,-0.16746 -6.4414,-5.06828 -0.0112,-2.52297 -0.0558,-5.23572 0.82611,-7.52426 2.60112,-6.79863 5.48133,-13.49679 8.57364,-20.08331 1.9648,-4.18635 5.57064,-4.93431 9.84629,-3.51654 9.90211,3.2821 15.90813,-0.81494 16.28769,-11.38686 0.1228,-3.33792 -0.4912,-6.82096 -1.46243,-10.02491 -0.89309,-2.92487 -3.14813,-3.90726 -5.83856,-1.49593 -2.33319,2.0876 -4.54358,4.33148 -6.99958,6.26278 -4.94547,3.8961 -9.25462,2.03178 -10.08072,-4.21984 -1.57407,-11.85574 5.24689,-23.14213 16.45514,-26.70332 2.96951,-0.94891 4.845,-2.51181 6.06183,-5.29155 1.9313,-4.42078 4.05239,-8.763421 6.09532,-13.139551 -0.37956,-0.379562 -0.75912,-0.747961 -1.14985,-1.127523 -3.51653,1.942466 -7.04423,3.884932 -11.27523,6.218124 0.40189,-1.585231 0.34607,-2.735082 0.90425,-3.326752 3.76213,-4.007732 7.61357,-7.937318 11.532,-11.799922 0.69214,-0.68098 2.07643,-1.484759 2.73508,-1.227996 5.15758,2.054102 7.69172,-1.808503 10.62774,-4.565911 2.47832,-2.310865 4.71104,-4.878492 6.58652,-8.305716 -2.82439,0.669815 -5.64878,1.339631 -8.462,2.009447 -0.13397,-0.368399 -0.27909,-0.736797 -0.41306,-1.105196 3.61701,-1.808503 7.24518,-3.605842 10.86218,-5.414345 0.0112,-0.323744 0.0223,-0.647488 0.0447,-0.960069 -1.26149,0.08931 -2.69043,-0.178617 -3.75097,0.334908 -7.74754,3.806787 -15.68485,7.312156 -23.05283,11.755268 -20.85359,12.592537 -41.171339,26.011184 -58.173495,43.716644 -26.312596,27.40663 -42.533301,60.22761 -50.827853,97.02282 -12.592536,55.94079 -7.79219,110.16238 19.100913,161.25816 33.15588,63.01851 84.843325,103.18513 154.359045,118.78067 111.80341,25.07344 224.55573,-37.05197 264.1865,-144.63556 8.14942,-22.11508 12.80464,-44.9558 13.66424,-68.54448 0.0781,-2.06527 0.46887,-4.10821 0.71447,-6.17347"
     class="st2" /><g
     id="g20"
     transform="matrix(1.1163596,0,0,1.1163597,-28.122514,-29.834852)">
		<path
   id="path18"
   d="m 381.96,214.29 c 2.97,0 3.88,1.95 2.27,4.84 -0.96,1.73 -2.17,3.49 -3.7,4.68 -4.86,3.79 -7.83,8.56 -9.86,13.85 -1.19,3.04 -2.05,6.25 -2.81,9.54 -0.32,1.35 -0.62,2.72 -0.94,4.06 -0.21,0.87 -0.41,1.76 -0.59,2.62 -6.05,26.39 -12.19,52.7 -18.49,79.02 -0.82,3.4 -1.71,6.78 -2.67,10.16 -1.51,5.23 -3.13,10.41 -4.75,15.59 -1.49,4.7 -2.9,6.91 -5.14,6.91 -0.67,0 -1.42,-0.2 -2.26,-0.59 -1.19,-0.52 -2.56,-1.44 -4.18,-2.69 -8.54,-6.64 -17.05,-13.33 -25.59,-19.99 -3.26,-2.56 -6.53,-5.11 -9.81,-7.67 -2.42,-1.89 -4.98,-3.61 -7.46,-5.41 -0.89,-0.64 -1.73,-1.05 -2.49,-1.21 -0.22,-0.05 -0.44,-0.07 -0.65,-0.07 -1.27,0 -2.34,0.84 -3.19,2.72 -2.17,4.86 -4.5,9.68 -6.51,14.61 -3.42,8.47 -6.76,16.98 -10.13,25.47 -1.46,3.65 -2.94,7.3 -4.43,10.96 -1.14,2.81 -2.72,5.55 -4.54,7.94 -1.63,2.11 -3.19,3.17 -4.98,3.17 -0.74,0 -1.52,-0.18 -2.37,-0.54 -0.55,-0.21 -1.12,-0.52 -1.73,-0.91 -4.25,-2.72 -8.33,-5.8 -12.19,-9.06 -24.01,-20.47 -47.98,-40.99 -71.94,-61.47 -0.09,-0.07 -0.18,-0.16 -0.27,-0.23 -1.85,-1.57 -3.72,-3.17 -5.57,-4.75 -2.65,-2.26 -5.57,-4.18 -8.31,-6.32 -0.64,-0.5 -1.28,-0.94 -1.94,-1.32 -4.37,-2.67 -9.06,-3.3 -13.85,-3.3 -3.2,0 -6.44,0.28 -9.66,0.43 -1.18,0.04 -2.41,0.22 -3.58,0.22 -0.68,0 -1.34,-0.06 -1.97,-0.25 -1.42,-0.43 -3.29,-1.85 -3.49,-3.06 -0.21,-1.21 1.1,-3.4 2.31,-3.95 2.99,-1.42 6.25,-2.24 9.47,-3.1 20.43,-5.64 40.86,-11.25 61.33,-16.73 0.38,-0.11 0.77,-0.15 1.17,-0.15 1.16,0 2.4,0.34 3.57,0.42 -0.66,1.62 -0.91,3.65 -2.05,4.77 -1.96,1.94 -4.5,3.33 -6.78,4.95 -4.95,3.54 -6.51,7.12 -4.27,10.91 0.66,1.1 1.67,2.24 2.99,3.38 3.33,2.88 6.66,5.73 10,8.58 14.95,12.8 29.99,25.47 45.08,38.12 5.3,4.43 10.93,8.42 17.19,13.22 0.05,-0.09 0.11,-0.21 0.16,-0.3 3.2,-6.07 6.23,-11.25 8.74,-16.68 3.29,-7.12 6.21,-14.45 9.22,-21.71 1.14,-2.74 0.8,-5.18 -1.73,-7.1 -5.55,-4.2 -11.07,-8.45 -16.59,-12.67 -4.02,-3.06 -8.03,-6.12 -12.07,-9.15 -4.61,-3.42 -9.24,-6.82 -13.95,-10.11 -0.66,-0.46 -1.32,-0.94 -1.99,-1.39 -3.99,-2.78 -10.09,-2.6 -15.27,-3.61 -2.08,-0.39 -4.31,-0.05 -6.39,-0.46 -1.39,-0.27 -2.67,-1.26 -3.99,-1.92 1,-1.28 1.78,-2.9 3.06,-3.72 1.76,-1.14 3.86,-1.85 5.89,-2.47 15.57,-4.68 31.16,-9.34 46.75,-13.9 1.89,-0.55 3.95,-0.66 5.93,-0.68 0.94,0 1.87,0.66 2.81,1.05 -0.43,1.03 -0.59,2.4 -1.35,3.06 -2.12,1.85 -4.52,3.33 -6.73,5.07 -4.77,3.67 -5.11,6.14 -0.55,9.84 0.23,0.18 0.46,0.37 0.68,0.52 4.15,3.36 8.38,6.57 12.62,9.75 3.31,2.49 6.64,4.98 9.95,7.46 0.21,0.16 0.41,0.3 0.62,0.41 0.02,0.02 0.05,0.05 0.07,0.05 0.67,0.4 1.28,0.6 1.84,0.6 1.17,0 2.1,-0.85 2.81,-2.52 1.76,-4.11 3.4,-8.24 4.66,-12.49 1.1,-3.54 1.89,-7.12 2.33,-10.82 0.09,-0.78 0.16,-1.55 0.21,-2.35 0.02,-0.39 0.05,-0.8 0.07,-1.21 0.27,-6.78 -0.96,-7.76 -7.69,-8.33 -3.67,-0.32 -7.33,-1.21 -10.98,-1.83 -0.09,-0.66 -0.16,-1.35 -0.25,-2.01 2.56,-1.37 5,-3.15 7.74,-4.09 10.73,-3.65 21.55,-7.05 32.3,-10.59 3.29,-1.07 6.51,-2.37 9.79,-3.49 0.88,-0.29 1.87,-0.57 2.78,-0.57 0.25,0 0.5,0.02 0.73,0.07 1.28,0.27 2.88,0.96 3.47,1.96 0.39,0.62 -0.53,2.53 -1.39,3.29 -3.36,3.04 -7.08,5.73 -10.39,8.81 -1.94,1.8 -3.93,3.86 -4.95,6.21 -0.57,1.3 -1.12,2.58 -1.67,3.88 -1.8,4.18 -3.56,8.35 -5.34,12.53 -0.5,1.19 -1,2.37 -1.48,3.56 -3.45,8.19 -6.85,16.41 -10.29,24.61 -1.21,2.85 -0.73,5.09 1.89,6.94 0.78,0.55 1.55,1.1 2.33,1.67 4.68,3.31 9.34,6.66 13.99,10.02 6.19,4.43 12.37,8.86 18.65,13.15 2.1,1.44 3.61,2.2 4.74,2.2 1.71,0 2.55,-1.74 3.3,-5.49 4.47,-22.87 8.88,-45.76 13.19,-68.66 0.91,-4.77 1.83,-9.52 2.72,-14.29 1,-5.27 -0.21,-6.64 -5.66,-7.35 -2.76,-0.37 -5.64,-0.11 -8.38,-0.59 -1.48,-0.27 -3.88,-1.46 -3.93,-2.35 -0.09,-1.48 0.96,-3.61 2.21,-4.52 1.89,-1.37 4.34,-1.99 6.57,-2.83 9.86,-3.7 19.7,-7.44 29.6,-11 2.49,-0.91 5.11,-1.62 7.74,-1.8 0.22,-0.02 0.42,-0.03 0.61,-0.03 m 0,-13.7 c -0.53,0 -1.07,0.02 -1.62,0.06 -3.62,0.26 -7.35,1.1 -11.4,2.59 -7.94,2.85 -15.92,5.86 -23.64,8.76 -2.03,0.77 -4.07,1.53 -6.1,2.29 -0.45,0.17 -0.88,0.31 -1.3,0.46 -2.28,0.79 -5.41,1.87 -8.48,4.09 -0.85,0.62 -1.65,1.32 -2.38,2.08 -1.08,-0.21 -2.21,-0.32 -3.34,-0.32 -2.84,0 -5.25,0.67 -7.03,1.25 -0.05,0.02 -0.11,0.04 -0.16,0.05 -1.64,0.56 -3.22,1.14 -4.74,1.7 -1.71,0.63 -3.33,1.23 -4.89,1.74 -3.9,1.29 -7.79,2.54 -11.67,3.8 -6.81,2.2 -13.85,4.48 -20.79,6.85 -3.23,1.1 -5.82,2.65 -7.91,3.89 -0.69,0.41 -1.34,0.8 -1.89,1.09 -1.12,0.6 -2.14,1.35 -3.03,2.2 -0.52,-0.05 -1.06,-0.08 -1.62,-0.08 -0.05,0 -0.1,0 -0.16,0 -2.6,0.03 -6.03,0.2 -9.58,1.22 -17.27,5.06 -34.13,10.11 -46.88,13.94 -3.03,0.92 -6.24,2.04 -9.39,4.08 -1.29,0.83 -2.35,1.76 -3.23,2.66 -0.01,0 -0.03,0 -0.04,-0.01 -0.98,-0.16 -2.46,-0.39 -4.21,-0.39 -1.65,0 -3.25,0.21 -4.77,0.63 -21.4,5.73 -42.88,11.64 -61.34,16.73 l -0.72,0.19 c -3.33,0.89 -7.11,1.91 -10.96,3.72 -6.85,3.2 -11.24,11.35 -10,18.64 1.22,7.2 7.4,12.15 12.98,13.86 0.04,0.01 0.07,0.02 0.11,0.03 1.84,0.55 3.76,0.81 5.87,0.81 1.25,0 2.33,-0.09 3.19,-0.17 0.33,-0.03 0.71,-0.06 0.89,-0.07 0.04,0 0.08,0 0.12,0 1.11,-0.05 2.22,-0.12 3.33,-0.18 2.03,-0.12 3.95,-0.23 5.71,-0.23 3.22,0 5.23,0.39 6.71,1.29 0.07,0.04 0.14,0.09 0.22,0.13 0.14,0.08 0.26,0.17 0.4,0.28 1.29,1.01 2.53,1.92 3.73,2.79 1.52,1.11 2.96,2.16 4.15,3.18 l 2.82,2.4 2.76,2.36 c 0.05,0.04 0.1,0.08 0.15,0.13 0.08,0.07 0.17,0.14 0.26,0.22 8.34,7.12 16.67,14.25 25.01,21.38 15.33,13.1 31.18,26.66 46.79,39.97 0.01,0.01 0.03,0.02 0.04,0.03 4.52,3.83 9.12,7.24 13.65,10.14 0.03,0.02 0.06,0.04 0.08,0.05 0.89,0.56 2.25,1.37 3.9,2.02 2.47,1.02 4.99,1.54 7.5,1.54 4.23,0 10.41,-1.47 15.83,-8.5 0.02,-0.02 0.03,-0.04 0.05,-0.06 2.57,-3.37 4.76,-7.2 6.34,-11.09 l 0.03,-0.07 c 1.48,-3.65 2.97,-7.3 4.43,-10.95 1.14,-2.87 2.27,-5.71 3.39,-8.56 2.19,-5.54 4.46,-11.27 6.72,-16.87 0.44,-1.08 0.9,-2.16 1.38,-3.25 2.53,1.98 5.04,3.94 7.55,5.91 0.01,0 0.05,0.04 0.05,0.04 3.33,2.6 6.67,5.21 10,7.82 5.2,4.07 10.4,8.14 15.61,12.19 2.66,2.06 4.8,3.4 6.95,4.37 2.62,1.2 5.28,1.8 7.9,1.8 5.5,0 10.59,-2.7 13.97,-7.4 1.67,-2.32 2.97,-5.12 4.22,-9.07 0.01,-0.02 0.01,-0.03 0.02,-0.05 1.62,-5.16 3.29,-10.5 4.84,-15.88 0.01,-0.02 0.01,-0.04 0.02,-0.05 1.02,-3.58 1.96,-7.17 2.81,-10.68 5.96,-24.89 12.02,-50.78 18.52,-79.18 0.02,-0.08 0.04,-0.16 0.05,-0.24 0.13,-0.63 0.29,-1.33 0.52,-2.29 0.17,-0.71 0.33,-1.43 0.5,-2.15 0.14,-0.64 0.29,-1.27 0.44,-1.9 0.01,-0.03 0.02,-0.07 0.02,-0.1 0.75,-3.26 1.43,-5.61 2.21,-7.61 0.01,-0.03 0.02,-0.05 0.03,-0.08 1.39,-3.63 3.09,-6.08 5.49,-7.96 2.79,-2.16 5.17,-5.07 7.27,-8.86 3.22,-5.8 3.34,-12.09 0.31,-17.23 -2.92,-4.96 -8.37,-7.92 -14.57,-7.92 z m -58.34,59.76 c 0.16,-0.21 0.61,-0.76 1.83,-1.89 1.43,-1.34 3.08,-2.68 4.83,-4.1 1.68,-1.37 3.41,-2.78 5.16,-4.35 0.41,0.1 0.82,0.19 1.24,0.27 0.04,0.01 0.08,0.02 0.13,0.02 0.47,0.08 0.92,0.15 1.37,0.21 -0.25,1.31 -0.5,2.61 -0.75,3.92 l -0.39,2.04 c -3.38,17.95 -6.97,36.66 -10.68,55.78 -2.61,-1.85 -5.21,-3.71 -7.77,-5.54 -3.64,-2.62 -7.38,-5.32 -11.13,-7.99 0.91,-2.18 1.82,-4.36 2.73,-6.53 1.71,-4.09 3.41,-8.18 5.13,-12.27 0.03,-0.06 0.05,-0.12 0.07,-0.18 0.45,-1.11 0.92,-2.22 1.39,-3.33 0.59,-1.39 1.19,-2.79 1.78,-4.2 1.17,-2.75 2.34,-5.51 3.53,-8.26 0.02,-0.04 0.03,-0.08 0.05,-0.11 0.48,-1.17 0.97,-2.32 1.48,-3.49 z m -53.15,10.84 c 0,0 0,-0.01 0,0 0.74,-0.65 1.37,-1.33 1.91,-2.01 1.07,0.21 2.19,0.42 3.36,0.62 -0.27,1.5 -0.63,3.01 -1.07,4.57 -1.5,-1.13 -2.89,-2.19 -4.2,-3.18 z m -72.85,22.06 c 0.23,-0.22 0.44,-0.45 0.65,-0.67 0.46,0.13 0.93,0.24 1.43,0.34 2.27,0.45 4.26,0.47 5.71,0.49 0.33,0 0.77,0.01 0.99,0.02 1.86,0.35 3.68,0.57 5.29,0.77 1.55,0.19 3.86,0.47 4.76,0.78 0.21,0.15 0.42,0.3 0.63,0.45 0.36,0.26 0.73,0.51 1.09,0.77 4.79,3.35 9.54,6.85 13.56,9.83 4.01,3.01 8.06,6.09 11.97,9.08 l 4.39,3.36 c 2.42,1.85 4.89,3.74 7.37,5.63 -2.26,5.5 -4.42,10.71 -6.79,15.84 -0.32,0.7 -0.66,1.4 -1.01,2.11 -1.33,-1.04 -2.62,-2.07 -3.86,-3.11 -13.22,-11.08 -28.91,-24.27 -44.96,-38.01 -1.71,-1.47 -3.42,-2.93 -5.14,-4.4 1.29,-0.93 2.62,-2 3.92,-3.28 z"
   class="st3" />
	</g></g>
</svg>
