<?xml version="1.0" encoding="UTF-8"?><svg xmlns="http://www.w3.org/2000/svg" viewBox="0 0 512 512"><path d="M503.606 242.431l-1.965-23.506c-3.773-40.164-16.502-77.291-38.718-110.946-24.747-37.488-57.727-65.575-98.531-84.415-8.824-4.074-14.127-2.339-19.528 6.919 3.279 1.627 6.726 2.965 9.728 4.954 1.676 1.109 3.749 3.423 3.592 5.002-.145 1.483-2.772 3.218-4.653 3.942-6.16 2.363-10.234.832-14.586-4.906-5.521-7.293-13.742-9.848-22.409-6.762-2.712.964-5.436 2.134-7.823 3.725-10.053 6.702-21.505 5.75-32.691 6.196-3.014.121-4.303-1.736-4.183-4.629.193-4.484-2.339-6.184-6.353-5.714-6.015.711-12.042 1.543-17.973 2.785-3.098.639-4.641 2.869-4.219 6.473.41 3.484.084 7.052.084 11.415l-26.905 2.893c-1.591 7.715-.579 15.104 2.435 22.204 2.097 4.942 6.244 6.425 11.066 4.098 2.013-.976 3.833-2.351 5.665-3.652 8.378-5.882 15.357-4.231 19.082 5.424 3.508 9.101 1.844 19.178-8.438 20.601-2.977.41-6.34-.663-9.294-1.7-5.846-2.061-10.005-.482-10.258 5.702-.338 8.088.832 16.249 1.507 24.373.181 2.194.976 4.339 1.29 5.641-10.005 1.447-19.926 2.351-29.581 4.46-7.329 1.603-14.381 4.593-21.456 7.22-5.81 2.158-6.461 5.738-2.134 10.125.796.808 1.615 1.579 2.423 2.363 5.533 5.4 5.256 8.233-1.061 13.018-6.786 5.159-14.802 6.365-22.855 6.353-6.027-.012-12.151-1.169-18.057-2.543-4.388-1.025-5.015-3.423-2.435-7.184 1.989-2.905 4.641-5.364 6.666-8.257 1.422-2.037 2.278-4.472 3.387-6.726l-1.266-1.856-25.627 3.243c-5.075.759-10.065 2.158-15.104 3.182-5.244 1.073-6.931-.181-6.955-5.473-.012-2.724-.06-5.653.892-8.124 2.809-7.341 5.919-14.573 9.258-21.685 2.122-4.52 6.015-5.328 10.632-3.797 10.692 3.544 17.177-.88 17.587-12.295.133-3.604-.53-7.365-1.579-10.825-.964-3.158-3.399-4.219-6.304-1.615-2.519 2.254-4.906 4.677-7.558 6.762-5.34 4.207-9.993 2.194-10.885-4.556-1.7-12.802 5.665-24.988 17.768-28.834 3.206-1.025 5.231-2.712 6.545-5.714 2.085-4.773 4.376-9.463 6.582-14.188l-1.242-1.217-12.175 6.714c.434-1.712.374-2.953.976-3.592 4.062-4.327 8.221-8.57 12.452-12.741.747-.735 2.242-1.603 2.953-1.326 5.569 2.218 8.305-1.953 11.476-4.93 2.676-2.495 5.087-5.268 7.112-8.968l-9.137 2.17-.446-1.193 11.729-5.846.048-1.037c-1.362.096-2.905-.193-4.05.362-8.366 4.11-16.936 7.895-24.892 12.693-22.517 13.597-44.456 28.086-62.814 47.204-28.412 29.593-45.926 65.032-54.883 104.763-13.597 60.403-8.414 118.95 20.625 174.122 35.801 68.046 91.612 111.416 166.673 128.256 120.722 27.074 242.469-40.008 285.261-156.174 8.8-23.879 13.826-48.542 14.754-74.012.084-2.23.506-4.436.771-6.666" fill="#fff" stroke="#111342" stroke-width="13.695" stroke-linecap="round" stroke-linejoin="round" stroke-miterlimit="10"/><path d="M396.252 223.326l-22.288 95.252c-.988 4.098-2.061 8.173-3.218 12.247l-5.726 18.792c-2.339 7.377-4.508 9.655-8.92 7.618-1.434-.627-3.086-1.736-5.039-3.243l-30.847-24.096-11.825-9.246c-2.917-2.278-6.003-4.352-8.992-6.521-1.073-.771-2.085-1.266-3.001-1.459-1.868-.386-3.435.555-4.617 3.194-2.616 5.858-5.424 11.668-7.847 17.611l-12.211 30.702-5.34 13.211c-1.374 3.387-3.279 6.69-5.473 9.571-2.784 3.604-5.388 4.653-8.86 3.158-.663-.253-1.35-.639-2.085-1.097-5.123-3.279-10.041-6.991-14.694-10.921l-86.718-74.097 35.078-11.451 54.34 45.95c6.389 5.34 13.175 10.15 20.721 15.936.06-.108.133-.253.193-.362 3.857-7.317 7.51-13.561 10.535-20.106 3.966-8.583 7.486-17.418 11.114-26.17 1.374-3.303.964-6.244-2.085-8.558l-19.998-15.273-14.549-11.03 33.185-10.813 24.048-7.811 18.407-6.003-12.404 29.665c-1.459 3.435-.88 6.136 2.278 8.366l2.809 2.013 16.864 12.078 22.481 15.851c6.389 4.376 8.197 3.52 9.679-3.966l15.899-82.764z" fill="#ffcf60"/><path d="M415.081 175.591c3.58 0 4.677 2.351 2.736 5.834-1.157 2.085-2.616 4.207-4.46 5.641-5.858 4.569-9.438 10.318-11.885 16.695-1.434 3.664-2.471 7.534-3.387 11.5l-1.133 4.894a107.06 107.06 0 0 0-.711 3.158l-22.288 95.252c-.988 4.098-2.061 8.173-3.218 12.247l-5.726 18.792c-1.796 5.665-3.496 8.329-6.196 8.329-.808 0-1.712-.241-2.724-.711-1.434-.627-3.086-1.736-5.039-3.243l-30.847-24.096-11.825-9.246c-2.917-2.278-6.003-4.352-8.992-6.521-1.073-.771-2.085-1.266-3.001-1.459a3.54 3.54 0 0 0-.784-.084c-1.531 0-2.821 1.013-3.845 3.279-2.616 5.858-5.424 11.668-7.847 17.611l-12.211 30.702-5.34 13.211c-1.374 3.387-3.279 6.69-5.473 9.571-1.965 2.543-3.845 3.821-6.003 3.821-.892 0-1.832-.217-2.857-.651-.663-.253-1.35-.627-2.085-1.097-5.123-3.279-10.041-6.991-14.694-10.921l-86.718-74.097c-.108-.084-.217-.193-.325-.277l-6.714-5.726c-3.194-2.724-6.714-5.039-10.017-7.618-.771-.603-1.543-1.133-2.339-1.591-5.268-3.218-10.921-3.978-16.695-3.978-3.857 0-7.763.338-11.644.518-1.422.048-2.905.265-4.315.265-.82 0-1.615-.072-2.375-.301-1.712-.518-3.966-2.23-4.207-3.689-.253-1.459 1.326-4.098 2.785-4.761 3.604-1.712 7.534-2.7 11.415-3.737l73.928-20.167c.458-.133.928-.181 1.41-.181 1.398 0 2.893.41 4.303.506-.796 1.953-1.097 4.4-2.471 5.75-2.363 2.339-5.424 4.014-8.173 5.967-5.967 4.267-7.847 8.583-5.147 13.151.796 1.326 2.013 2.7 3.604 4.074l12.054 10.342 54.34 45.95c6.389 5.34 13.175 10.15 20.721 15.936.06-.108.133-.253.193-.362 3.857-7.317 7.51-13.561 10.535-20.106 3.966-8.583 7.486-17.418 11.114-26.17 1.374-3.303.964-6.244-2.085-8.558l-19.998-15.273-14.549-11.03-16.816-12.187-2.399-1.676c-4.81-3.351-12.163-3.134-18.407-4.352-2.507-.47-5.195-.06-7.703-.554-1.676-.325-3.218-1.519-4.81-2.314 1.205-1.543 2.146-3.496 3.689-4.484 2.122-1.374 4.653-2.23 7.1-2.977l56.353-16.755c2.278-.663 4.761-.796 7.148-.82 1.133 0 2.254.796 3.387 1.266-.518 1.242-.711 2.893-1.627 3.689-2.555 2.23-5.448 4.014-8.112 6.111-5.75 4.424-6.16 7.401-.663 11.861.277.217.554.446.82.627 5.002 4.05 10.101 7.92 15.212 11.753l11.994 8.992c.253.193.494.362.747.494.024.024.06.06.084.06.808.482 1.543.723 2.218.723 1.41 0 2.531-1.025 3.387-3.038 2.122-4.954 4.098-9.933 5.617-15.056 1.326-4.267 2.278-8.583 2.809-13.043.108-.94.193-1.868.253-2.833l.084-1.459c.325-8.173-1.157-9.354-9.27-10.041-4.424-.386-8.836-1.459-13.235-2.206l-.301-2.423c3.086-1.651 6.027-3.797 9.33-4.93l38.935-12.765c3.966-1.29 7.847-2.857 11.801-4.207 1.061-.35 2.254-.687 3.351-.687.301 0 .603.024.88.084 1.543.325 3.472 1.157 4.183 2.363.47.747-.639 3.05-1.676 3.966-4.05 3.664-8.534 6.907-12.524 10.62-2.339 2.17-4.737 4.653-5.967 7.486l-2.013 4.677-6.437 15.104-1.784 4.291-12.404 29.665c-1.459 3.435-.88 6.136 2.278 8.366l2.809 2.013 16.864 12.078 22.481 15.851c2.531 1.736 4.352 2.652 5.714 2.652 2.061 0 3.074-2.097 3.978-6.618l15.899-82.764 3.279-17.225c1.205-6.353-.253-8.004-6.823-8.86-3.327-.446-6.799-.133-10.101-.711-1.784-.325-4.677-1.76-4.737-2.833-.108-1.784 1.157-4.352 2.664-5.448 2.278-1.651 5.232-2.399 7.92-3.411l35.68-13.26c3.001-1.097 6.16-1.953 9.33-2.17.265-.024.506-.036.735-.036m0-16.514a26.92 26.92 0 0 0-1.953.072c-4.364.313-8.86 1.326-13.742 3.122l-28.496 10.559-7.353 2.76c-.542.205-1.061.374-1.567.554-2.748.952-6.521 2.254-10.222 4.93-1.025.747-1.989 1.591-2.869 2.507-1.302-.253-2.664-.386-4.026-.386-3.423 0-6.328.808-8.474 1.507-.06.024-.133.048-.193.06-1.977.675-3.881 1.374-5.714 2.049l-5.894 2.097-14.067 4.581-25.061 8.257c-3.893 1.326-7.016 3.194-9.535 4.689l-2.278 1.314a16.77 16.77 0 0 0-3.652 2.652 20.37 20.37 0 0 0-1.953-.096h-.193c-3.134.036-7.269.241-11.548 1.471l-56.51 16.803c-3.652 1.109-7.522 2.459-11.319 4.918-1.555 1-2.833 2.122-3.893 3.206-.012 0-.036 0-.048-.012-1.181-.193-2.965-.47-5.075-.47-1.989 0-3.918.253-5.75.759l-73.94 20.167-.868.229c-4.014 1.073-8.571 2.302-13.211 4.484-8.257 3.857-13.549 13.681-12.054 22.469 1.471 8.679 8.92 14.646 15.646 16.707.048.012.084.024.133.036 2.218.663 4.532.976 7.076.976 1.507 0 2.809-.108 3.845-.205l1.073-.084h.145l4.014-.217c2.447-.145 4.761-.277 6.883-.277 3.881 0 6.304.47 8.088 1.555.084.048.169.108.265.157a3.9 3.9 0 0 1 .482.338 149.71 149.71 0 0 0 4.496 3.363c1.832 1.338 3.568 2.604 5.002 3.833l3.399 2.893 3.327 2.845c.06.048.121.096.181.157.096.084.205.169.313.265l30.147 25.772 56.401 48.18c.012.012.036.024.048.036 5.448 4.617 10.993 8.727 16.454 12.223.036.024.072.048.096.06 1.073.675 2.712 1.651 4.701 2.435 2.977 1.23 6.015 1.856 9.041 1.856 5.099 0 12.548-1.772 19.082-10.246.024-.024.036-.048.06-.072 3.098-4.062 5.738-8.679 7.642-13.368l.036-.084 5.34-13.199 4.086-10.318 8.1-20.335 1.663-3.918 9.101 7.124c.012 0 .06.048.06.048l12.054 9.426 18.817 14.694c3.206 2.483 5.786 4.098 8.378 5.268 3.158 1.446 6.365 2.17 9.523 2.17 6.63 0 12.765-3.255 16.84-8.92 2.013-2.797 3.58-6.172 5.087-10.933.012-.024.012-.036.024-.06l5.834-19.142c.012-.024.012-.048.024-.06 1.23-4.315 2.363-8.643 3.387-12.874l22.324-95.445c.024-.096.048-.193.06-.289a89.56 89.56 0 0 1 .627-2.76l.603-2.592.53-2.29a.43.43 0 0 0 .024-.121c.904-3.93 1.724-6.762 2.664-9.173.012-.036.024-.06.036-.096 1.676-4.376 3.725-7.329 6.618-9.595 3.363-2.604 6.232-6.111 8.763-10.68 3.881-6.991 4.026-14.573.374-20.769-3.52-5.979-10.089-9.547-17.563-9.547zm-70.324 72.036c.193-.253.735-.916 2.206-2.278 1.724-1.615 3.713-3.231 5.822-4.942 2.025-1.651 4.11-3.351 6.22-5.244.494.121.988.229 1.495.325.048.012.096.024.157.024a46.11 46.11 0 0 0 1.651.253l-.904 4.725-.47 2.459-12.874 67.238-9.366-6.678-13.416-9.631 3.291-7.871 6.184-14.79c.036-.072.06-.145.084-.217l1.676-4.014 2.146-5.063 4.255-9.957c.024-.048.036-.096.06-.133l1.784-4.207zm-64.068 13.067a18.67 18.67 0 0 0 2.302-2.423l4.05.747c-.325 1.808-.759 3.628-1.29 5.509l-5.063-3.833zm-87.814 26.591c.277-.265.53-.542.784-.808.554.157 1.121.289 1.724.41 2.736.542 5.135.567 6.883.591a32.02 32.02 0 0 1 1.193.024c2.242.422 4.436.687 6.377.928 1.868.229 4.653.567 5.738.94l.759.542 1.314.928c5.774 4.038 11.5 8.257 16.345 11.849l14.429 10.945 5.292 4.05 8.884 6.786-8.185 19.094c-.386.844-.796 1.688-1.217 2.543-1.603-1.254-3.158-2.495-4.653-3.749l-54.195-45.818-6.196-5.304c1.555-1.121 3.158-2.411 4.725-3.954z" fill="#111342"/></svg>
