<svg xmlns="http://www.w3.org/2000/svg" width="19.636" height="24" viewBox="0 0 19.636 24">
  <g id="file" transform="translate(-4.5 -1.5)">
    <path id="Path_910" data-name="Path 910" d="M20.864,25.5H7.773A3.214,3.214,0,0,1,4.5,22.227V4.773A3.214,3.214,0,0,1,7.773,1.5h7.636a.99.99,0,0,1,.764.327l7.636,7.636a.99.99,0,0,1,.327.764v12A3.214,3.214,0,0,1,20.864,25.5ZM7.773,3.682A1.031,1.031,0,0,0,6.682,4.773V22.227a1.031,1.031,0,0,0,1.091,1.091H20.864a1.031,1.031,0,0,0,1.091-1.091V10.664L14.973,3.682Z" fill="#05ccd6"/>
    <path id="Path_911" data-name="Path 911" d="M26.727,11.318H19.091A1.031,1.031,0,0,1,18,10.227V2.591a1.091,1.091,0,0,1,2.182,0V9.136h6.545a1.031,1.031,0,0,1,1.091,1.091A1.031,1.031,0,0,1,26.727,11.318Z" transform="translate(-3.682)" fill="#05ccd6"/>
  </g>
</svg>
