<svg xmlns="http://www.w3.org/2000/svg" width="24" height="23.995" viewBox="0 0 24 23.995">
  <path id="message-circle" d="M4.2,27a1.089,1.089,0,0,1-.84-.36.955.955,0,0,1-.24-1.2l2.16-6.359A10.689,10.689,0,0,1,4.2,14.4,11.268,11.268,0,0,1,10.557,4.2,10.744,10.744,0,0,1,15.6,3h.6a11.405,11.405,0,0,1,10.8,10.678v.72a11.222,11.222,0,0,1-1.2,5.159A11.372,11.372,0,0,1,15.6,25.8a12.546,12.546,0,0,1-4.679-.96L4.558,27ZM15.6,5.4a8.768,8.768,0,0,0-3.959.96A8.878,8.878,0,0,0,6.6,14.4a8.768,8.768,0,0,0,.96,3.959,2.339,2.339,0,0,1,.12.96l-1.56,4.559,4.559-1.56a.939.939,0,0,1,.96.12,9.165,9.165,0,0,0,3.959.96,8.982,8.982,0,0,0,8.038-4.919,9.165,9.165,0,0,0,.96-3.959h0V13.8a8.864,8.864,0,0,0-8.518-8.4Z" transform="translate(-2.994 -3)" fill="#7075f9"/>
</svg>
