<svg xmlns="http://www.w3.org/2000/svg" width="24" height="22.76" viewBox="0 0 24 22.76">
  <path id="star" d="M20.184,24.362a.98.98,0,0,1-.544-.109l-6.2-3.262-6.2,3.262a1.207,1.207,0,0,1-1.2-.109,1.034,1.034,0,0,1-.435-1.087l1.2-6.958-5-4.784a1.1,1.1,0,0,1-.326-1.087,1.053,1.053,0,0,1,.87-.761l6.958-.978,3.153-6.306a1.124,1.124,0,0,1,1.957,0l3.153,6.306,6.958.978c.326,0,.652.326.87.761a.984.984,0,0,1-.326,1.087l-5,4.892,1.2,6.958a1.034,1.034,0,0,1-.435,1.087A1.379,1.379,0,0,1,20.184,24.362ZM4.855,11.316,8.66,15.121a.989.989,0,0,1,.435.87l-.87,5.327,4.784-2.5a.815.815,0,0,1,.978,0l4.784,2.5-.978-5.327a1.1,1.1,0,0,1,.326-.978l3.805-3.805L16.6,10.446c-.326,0-.652-.326-.87-.544L13.444,5.119,11.052,9.9a.818.818,0,0,1-.761.544Z" transform="translate(-1.444 -1.612)" fill="#fa0"/>
</svg>
