<?xml version="1.0" encoding="UTF-8"?><svg class="whiteboard" xmlns="http://www.w3.org/2000/svg" viewBox="0 0 512 512"><style><![CDATA[svg.whiteboard .Bw{stroke:#101342}svg.whiteboard .Cw{stroke-linejoin:round}svg.whiteboard .Dw{stroke-miterlimit:10}svg.whiteboard .Ew{stroke-width:7.659}svg.whiteboard .Fw{stroke-linecap:round}]]></style><g transform="matrix(1.44679 0 0 1.44679 -190.98404 -248.05932)"><path d="M446.388 477.43h-277.18c-19.06 0-34.511-17.822-34.511-39.806V264.916c0-21.984 15.451-39.806 34.511-39.806h277.18c19.06 0 34.511 17.822 34.511 39.806v172.709c0 21.984-15.451 39.806-34.511 39.806z" fill="#fff" stroke-width="6.768" class="Bw Cw Dw"/><path d="M208.619 318.168c5.724 1.59 10.105 2.14 14.416 6.253 6.323 6.032 7.833 9.597 12.515 17.163 12.01 20.17 11.812 19.68 21.842 35.338 4.304 6.951 5.381 9.174 10.75 14.955 9.405 13.388 22.838 22.281 41.031 19.131 9.156-2.544 20.332-5.316 27.773-9.565 13.251-9.115 27.22-24.212 31.525-29.012 5.588-7.376 2.261-10.04 5.228-16.494-1.512-19.023-20.017 15.089-19.545 11.763-4.742 5.072-10.818 8.57-16.286 12.664-2.202 1.452-8.978 5.478-6.606 4.357a62.74 62.74 0 0 0 10.083-6.001c2.251-1.639-4.836 2.707-7.297 3.972-2.09 1.075-7.714 3.724-10.292 4.711-1.383.53-2.806.938-4.208 1.407-3.95.925-5.914 1.66-10.049 1.481-8.643-.374-16.151-5.199-22.892-10.432-5.667-5.523-7.332-6.556-11.827-13.445-7.952-12.187-11.659-26.703-18.36-39.583-1.884-3.367-3.498-6.918-5.653-10.102-3.925-5.799-8.654-10.599-14.402-14.385-2.755-1.815-5.713-3.33-8.74-4.562-22.937-6.673-42.327 6.616-55.849 19.935-6.927 6.821-13.25 16.146-18.371 24.525h0c13.633-12.622 36.237-26.098 55.211-24.075z" fill="#ffcf60"/><g transform="matrix(1.094714 -.243408 .243409 1.094714 -100.71494 84.308591)"><g class="Bw Cw Dw Ew"><path d="M380.426 315.534l-15.659-12.808" fill="none" class="Fw"/><path d="M469.143 209.415l-17.966-14.692c-4.3-3.515-10.689-2.875-14.204 1.422l-7.369 9.011 33.592 27.473 7.369-9.009c3.516-4.297 2.876-10.689-1.422-14.205z" fill="#fff"/></g><path d="M358.243 326.52l12.596-49.33 58.067-70.999 33.035 27.788-57.669 70.511z" fill="#ffcf60"/><g fill="none" class="Bw Cw Dw Ew"><path d="M358.243 326.52l12.596-49.33 58.067-70.999 33.035 27.788-57.669 70.511z"/><path d="M389.272 288.741l56.345-68.889m-39.836 82.392l-33.018-27.004" class="Fw"/></g></g></g></svg>
