<?xml version="1.0" encoding="UTF-8" standalone="no"?>
<svg
   xmlns:dc="http://purl.org/dc/elements/1.1/"
   xmlns:cc="http://creativecommons.org/ns#"
   xmlns:rdf="http://www.w3.org/1999/02/22-rdf-syntax-ns#"
   xmlns:svg="http://www.w3.org/2000/svg"
   xmlns="http://www.w3.org/2000/svg"
   version="1.1"
   id="Layer_1"
   x="0px"
   y="0px"
   viewBox="0 0 512 512"
   xml:space="preserve"
   width="512"
   height="512"><metadata
   id="metadata872"><rdf:RDF><cc:Work
       rdf:about=""><dc:format>image/svg+xml</dc:format><dc:type
         rdf:resource="http://purl.org/dc/dcmitype/StillImage" /><dc:title></dc:title></cc:Work></rdf:RDF></metadata><defs
   id="defs870">
	
	
	
		
	
		
	
	
</defs>
<g
   id="g861"
   transform="matrix(1.4467901,0,0,1.4467901,-190.98404,-248.05932)">
		
			
		
			
		
		
			
		
			
		
			
	<g
   id="g857"><path
     transform="matrix(0.69118527,0,0,0.69118527,132.00535,171.45495)"
     style="fill:none;stroke:#101342;stroke-width:9.79189;stroke-linecap:round;stroke-linejoin:round;stroke-miterlimit:10;stroke-dasharray:none"
     d="M 454.84527,442.68143 H 53.824283 c -27.575141,0 -49.929675,-25.78448 -49.929675,-57.59061 V 135.21783 c 0,-31.80612 22.354534,-57.590612 49.929675,-57.590612 H 454.84527 c 27.57513,0 49.92968,25.784492 49.92968,57.590612 v 249.87299 c 0,31.80613 -22.35455,57.59061 -49.92968,57.59061 z"
     id="path833" /><path
     style="opacity:1;fill:#38c0cd;fill-opacity:1;stroke:none;stroke-width:0;stroke-linecap:round;stroke-linejoin:round;stroke-miterlimit:10;stroke-dasharray:none"
     id="path949"
     d="m 208.61931,318.16761 c 5.72395,1.58978 10.10478,2.14048 14.41585,6.25334 6.32294,6.0322 7.83275,9.59684 12.51514,17.1632 12.00979,20.17049 11.81165,19.67976 21.84248,35.33796 4.30436,6.95148 5.38141,9.17383 10.75039,14.95546 9.40522,13.38785 22.83821,22.28088 41.03119,19.13088 9.15616,-2.54353 20.33247,-5.31609 27.77321,-9.56508 13.25083,-9.11453 27.21979,-24.21173 31.52532,-29.01182 5.58792,-7.37564 2.26083,-10.04036 5.22835,-16.4939 -1.51186,-19.02288 -20.01666,15.08937 -19.54525,11.76339 -4.74197,5.07179 -10.81849,8.57023 -16.28569,12.66373 -2.202,1.45225 -8.97757,5.47834 -6.60601,4.35676 3.52324,-1.66622 6.90919,-3.68969 10.08322,-6.00121 2.25056,-1.63901 -4.83607,2.70669 -7.29663,3.97184 -2.08995,1.07458 -7.71438,3.72364 -10.29175,4.71055 -1.38304,0.52961 -2.80562,0.93808 -4.20842,1.40714 -3.94992,0.92468 -5.91399,1.66038 -10.04867,1.48148 -8.64257,-0.37396 -16.15079,-5.19934 -22.89186,-10.43211 -5.66658,-5.52285 -7.33168,-6.5559 -11.8267,-13.44482 -7.95171,-12.1866 -11.65938,-26.70348 -18.36007,-39.58256 -1.88422,-3.36723 -3.49785,-6.91757 -5.65265,-10.10171 -3.92466,-5.79942 -8.65371,-10.59852 -14.40168,-14.38544 -2.75532,-1.8153 -5.71309,-3.32975 -8.74007,-4.56166 -22.9371,-6.67275 -42.32677,6.61557 -55.84921,19.93475 -6.92689,6.82079 -13.25045,16.14648 -18.37103,24.52493 v 0 c 13.63252,-12.62169 36.2371,-26.0985 55.21054,-24.0751 z" /><g
     transform="matrix(1.0947142,-0.2434085,0.2434085,1.0947142,-100.71494,84.308591)"
     id="g943"><line
       style="fill:none;stroke:#101342;stroke-width:7.6593;stroke-linecap:round;stroke-linejoin:round;stroke-miterlimit:10"
       x1="380.42599"
       y1="315.534"
       x2="364.767"
       y2="302.72601"
       id="line849" /><path
       style="fill:none;stroke:#101342;stroke-width:7.6593;stroke-linecap:round;stroke-linejoin:round;stroke-miterlimit:10"
       d="m 469.143,209.415 -17.966,-14.692 c -4.3,-3.515 -10.689,-2.875 -14.204,1.422 l -7.369,9.011 33.592,27.473 7.369,-9.009 c 3.516,-4.297 2.876,-10.689 -1.422,-14.205 z"
       id="path851" /><polygon
       style="fill:#38c0cd"
       points="370.839,277.19 428.906,206.191 461.941,233.979 404.272,304.49 358.243,326.52 "
       id="polygon853" /><polygon
       style="fill:none;stroke:#101342;stroke-width:7.65916;stroke-linecap:round;stroke-linejoin:round;stroke-miterlimit:10;stroke-dasharray:none"
       points="370.839,277.19 428.906,206.191 461.941,233.979 404.272,304.49 358.243,326.52 "
       id="polygon855" /><line
       style="fill:none;stroke:#101342;stroke-width:7.6593;stroke-linecap:round;stroke-linejoin:round;stroke-miterlimit:10"
       x1="389.272"
       y1="288.741"
       x2="445.617"
       y2="219.85201"
       id="line857" /><line
       style="fill:none;stroke:#101342;stroke-width:7.6593;stroke-linecap:round;stroke-linejoin:round;stroke-miterlimit:10"
       x1="405.78101"
       y1="302.24399"
       x2="372.763"
       y2="275.23999"
       id="line859" /></g></g></g>
</svg>
