<?xml version="1.0" encoding="UTF-8" standalone="no"?>
<svg
   xmlns:dc="http://purl.org/dc/elements/1.1/"
   xmlns:cc="http://creativecommons.org/ns#"
   xmlns:rdf="http://www.w3.org/1999/02/22-rdf-syntax-ns#"
   xmlns:svg="http://www.w3.org/2000/svg"
   xmlns="http://www.w3.org/2000/svg"
   xmlns:sodipodi="http://sodipodi.sourceforge.net/DTD/sodipodi-0.dtd"
   xmlns:inkscape="http://www.inkscape.org/namespaces/inkscape"
   inkscape:export-ydpi="96"
   inkscape:export-xdpi="96"
   inkscape:export-filename="/tmp/a.png"
   inkscape:version="1.0 (4035a4f, 2020-05-01)"
   height="512"
   width="512"
   sodipodi:docname="logo-02.svg"
   xml:space="preserve"
   viewBox="0 0 512 512"
   y="0px"
   x="0px"
   id="Layer_1"
   version="1.1"><metadata
   id="metadata872"><rdf:RDF><cc:Work
       rdf:about=""><dc:format>image/svg+xml</dc:format><dc:type
         rdf:resource="http://purl.org/dc/dcmitype/StillImage" /><dc:title></dc:title></cc:Work></rdf:RDF></metadata><defs
   id="defs870">
	
	
	
		
	
		
	
	
</defs><sodipodi:namedview
   inkscape:current-layer="Layer_1"
   inkscape:window-maximized="0"
   inkscape:window-y="23"
   inkscape:window-x="0"
   inkscape:cy="237.03156"
   inkscape:cx="121.44566"
   inkscape:zoom="1.201043"
   inkscape:pagecheckerboard="false"
   lock-margins="false"
   fit-margin-bottom="73.9"
   fit-margin-top="73.9"
   fit-margin-right="1"
   fit-margin-left="1"
   showgrid="false"
   id="namedview868"
   inkscape:window-height="1100"
   inkscape:window-width="1900"
   inkscape:pageshadow="2"
   inkscape:pageopacity="0"
   guidetolerance="10"
   gridtolerance="10"
   objecttolerance="10"
   borderopacity="1"
   bordercolor="#666666"
   pagecolor="#ffffff" />
<path
   style="fill:none;stroke:#101342;stroke-width:8.46585;stroke-linecap:round;stroke-linejoin:round;stroke-miterlimit:10"
   d="M 456.77222,433.90135 H 55.227773 c -27.611135,0 -49.99485,-25.12861 -49.99485,-56.1257 V 134.25862 c 0,-30.99708 22.383715,-56.125697 49.99485,-56.125697 H 456.77222 c 27.61113,0 49.99486,25.128617 49.99486,56.125697 v 243.51703 c 0,30.99709 -22.38373,56.1257 -49.99486,56.1257 z"
   id="path833" /><g
   transform="matrix(1.0438806,0,0,1.0438806,-83.009593,-8.2354894)"
   id="g861">
		
			<line
   style="fill:none;stroke:#101342;stroke-width:7.6593;stroke-linecap:round;stroke-linejoin:round;stroke-miterlimit:10"
   x1="380.42599"
   y1="315.534"
   x2="364.767"
   y2="302.72601"
   id="line849" />
		
			<path
   style="fill:none;stroke:#101342;stroke-width:7.6593;stroke-linecap:round;stroke-linejoin:round;stroke-miterlimit:10"
   d="m 469.143,209.415 -17.966,-14.692 c -4.3,-3.515 -10.689,-2.875 -14.204,1.422 l -7.369,9.011 33.592,27.473 7.369,-9.009 c 3.516,-4.297 2.876,-10.689 -1.422,-14.205 z"
   id="path851" />
		<polygon
   style="fill:#38c0cd"
   points="370.839,277.19 428.906,206.191 461.941,233.979 404.272,304.49 358.243,326.52 "
   id="polygon853" />
		
			<polygon
   style="fill:none;stroke:#101342;stroke-width:7.6593;stroke-linecap:round;stroke-linejoin:round;stroke-miterlimit:10"
   points="370.839,277.19 428.906,206.191 461.941,233.979 404.272,304.49 358.243,326.52 "
   id="polygon855" />
		
			<line
   style="fill:none;stroke:#101342;stroke-width:7.6593;stroke-linecap:round;stroke-linejoin:round;stroke-miterlimit:10"
   x1="389.272"
   y1="288.741"
   x2="445.617"
   y2="219.85201"
   id="line857" />
		
			<line
   style="fill:none;stroke:#101342;stroke-width:7.6593;stroke-linecap:round;stroke-linejoin:round;stroke-miterlimit:10"
   x1="405.78101"
   y1="302.24399"
   x2="372.763"
   y2="275.23999"
   id="line859" />
	</g><path
   style="fill:none;stroke:#101342;stroke-width:11.184;stroke-linecap:round;stroke-linejoin:round;stroke-miterlimit:10"
   d="m 189.11563,377.05737 c -15.02033,-11.54558 -71.67724,-57.73806 -63.45191,-118.44996 3.49846,-25.82045 21.28358,-73.11276 56.8437,-75.64815 40.41153,-2.88134 86.05982,53.30582 71.38444,69.67643 -17.1019,19.07581 -129.89743,-0.55371 -138.8026,-32.84765 -10.36245,-37.58145 81.72838,-98.30601 133.51537,-82.6158 34.99134,10.60161 51.60693,56.69271 43.62391,91.57529 -9.52612,41.62087 -53.34018,64.09372 -39.65766,86.59825 6.26493,10.30384 21.35761,15.30624 33.04778,17.91643"
   id="path863" />
</svg>
