<svg class="rubbishBin" xmlns="http://www.w3.org/2000/svg" xmlns:xlink="http://www.w3.org/1999/xlink" viewBox="0 0 512 512"><style><![CDATA[svg.rubbishBin .h{enable-background:new}svg.rubbishBin .i{fill:none}svg.rubbishBin .j{stroke-width:11.261}svg.rubbishBin .k{opacity:.3}svg.rubbishBin .l{stroke:#555753}]]></style><radialGradient id="A" cx="150.719" cy="-643.742" r="168.57" gradientTransform="matrix(1.2847 0 0 -0.4478 62.3799 130.6748)" gradientUnits="userSpaceOnUse"><stop offset="0"/><stop offset="1" stop-opacity="0"/></radialGradient><path d="M485 418.9c0 44.1-102.5 79.8-229 79.8S27 463 27 418.9s102.5-79.8 229-79.8 229 35.7 229 79.8z" opacity=".8" fill="url(#A)" class="h"/><linearGradient id="B" gradientUnits="userSpaceOnUse" x1="499.574" y1="259.097" x2="54.674" y2="259.097"><stop offset="0" stop-color="#555753"/><stop offset=".618" stop-color="#d5d9d2"/><stop offset="1" stop-color="#888a85"/></linearGradient><path d="M239.1 50.8C163 53.4 92.7 76.2 92.7 107.1v304c0 31.1 72.5 56.3 162.9 56.3s163.6-25.2 163.6-56.3v-304c0-31.1-73.2-56.3-163.6-56.3-4.2 0-8.5-.1-12.7 0-1.3 0-2.5-.1-3.8 0z" fill="url(#B)" stroke-width="11.59" class="l"/><linearGradient id="C" gradientUnits="userSpaceOnUse" x1="198.228" y1="259.1" x2="461.715" y2="259.1"><stop offset="0" stop-color="#fff"/><stop offset="1" stop-color="#fff" stop-opacity="0"/></linearGradient><path d="M244 62.1c-74.1 1.8-133.3 21.9-139.9 45.2-.1.7-.1 303.1-.1 303.8 0 22.5 72.2 45 151.7 45 82.1 0 152.4-22.5 152.4-45V108.5C405 82.8 337.8 62 255.7 62c-4 .1-7.8 0-11.7.1z" opacity=".71" stroke="url(#C)" class="h i j"/><linearGradient id="D" gradientUnits="userSpaceOnUse" x1="224.97" y1="304.165" x2="270.773" y2="304.165"><stop offset="0"/><stop offset="1" stop-color="#fff"/></linearGradient><path d="M256 180.3h0c12.4 0 22.5 10.1 22.5 22.5v202.7c0 12.4-10.1 22.5-22.5 22.5h0c-12.4 0-22.5-10.1-22.5-22.5V202.8c0-12.4 10-22.5 22.5-22.5z" fill="url(#D)" class="h k"/><linearGradient id="E" gradientUnits="userSpaceOnUse" x1="288.894" y1="298.122" x2="345.073" y2="299.113"><stop offset="0"/><stop offset="1" stop-color="#fff"/></linearGradient><path d="M312.3 174.7h0c12.4 0 22.5 10.1 22.5 22.5v202.7c0 12.4-10.1 22.5-22.5 22.5h0c-12.4 0-22.5-10.1-22.5-22.5V197.2c0-12.5 10.1-22.5 22.5-22.5z" fill="url(#E)" class="h k"/><linearGradient id="F" gradientUnits="userSpaceOnUse" x1="346.075" y1="287.274" x2="414.148" y2="287.274"><stop offset="0"/><stop offset="1" stop-color="#fff"/></linearGradient><path d="M363 163.4h0c9.3 0 16.9 7.6 16.9 16.9v214c0 9.3-7.6 16.9-16.9 16.9h0c-9.3 0-16.9-7.6-16.9-16.9v-214c0-9.3 7.5-16.9 16.9-16.9z" fill="url(#F)" class="h k"/><use xlink:href="#d" class="h k"/><use xlink:href="#e" fill="#fff" class="h k"/><linearGradient id="G" gradientUnits="userSpaceOnUse" x1="75.1" y1="285.53" x2="157.655" y2="287.478"><stop offset="0"/><stop offset="1" stop-color="#fff"/></linearGradient><path d="M149 163.4h0c9.3 0 16.9 7.6 16.9 16.9v214c0 9.3-7.6 16.9-16.9 16.9h0c-9.3 0-16.9-7.6-16.9-16.9v-214c0-9.3 7.6-16.9 16.9-16.9z" opacity=".5" fill="url(#G)" class="h"/><linearGradient id="H" gradientUnits="userSpaceOnUse" x1="106.908" y1="299.116" x2="211.08" y2="298.463"><stop offset="0"/><stop offset="1" stop-color="#fff"/></linearGradient><path d="M199.7 174.7h0c12.4 0 22.5 10.1 22.5 22.5v202.7c0 12.4-10.1 22.5-22.5 22.5h0c-12.4 0-22.5-10.1-22.5-22.5V197.2c0-12.5 10-22.5 22.5-22.5z" opacity=".5" fill="url(#H)" class="h"/><linearGradient id="I" gradientUnits="userSpaceOnUse" x1="630.677" y1="181.871" x2="573.966" y2="204.134" gradientTransform="matrix(0.6103 0 0 -1 -85.3566 514)"><stop offset="0" stop-color="#fff"/><stop offset="1" stop-color="#fff" stop-opacity="0"/></linearGradient><path d="M255.9 185.7h0c9.5 0 17.2 7.7 17.2 17.2v202.3c0 9.5-7.7 17.2-17.2 17.2h0c-9.5 0-17.2-7.7-17.2-17.2V202.9c-.1-9.5 7.7-17.2 17.2-17.2z" stroke="url(#I)" class="i j"/><linearGradient id="J" gradientUnits="userSpaceOnUse" x1="398.25" y1="380.294" x2="359.973" y2="343.876"><stop offset="0" stop-color="#fff"/><stop offset="1" stop-color="#fff" stop-opacity="0"/></linearGradient><path d="M312.3 180.3h0c9.3 0 16.9 7.5 16.9 16.8V400c0 9.3-7.6 16.8-16.9 16.8h0c-9.3 0-16.9-7.5-16.9-16.8V197.1c0-9.3 7.6-16.8 16.9-16.8z" opacity=".494" stroke="url(#J)" class="h i j"/><linearGradient id="K" gradientUnits="userSpaceOnUse" x1="256.481" y1="319.003" x2="218.396" y2="305.186"><stop offset="0" stop-color="#fff"/><stop offset="1" stop-color="#fff" stop-opacity="0"/></linearGradient><path d="M199.7 180h0c9.4 0 16.9 7.7 16.9 17.3v202.1c0 9.6-7.6 17.3-16.9 17.3h0c-9.4 0-16.9-7.7-16.9-17.3V197.3c0-9.5 7.6-17.3 16.9-17.3z" stroke="url(#K)" class="i j"/><linearGradient id="L" gradientUnits="userSpaceOnUse" x1="396.749" y1="425.334" x2="396.749" y2="336.237"><stop offset="0" stop-color="#fff"/><stop offset="1" stop-color="#fff" stop-opacity="0"/></linearGradient><use xlink:href="#d" opacity=".4" fill="url(#L)" class="h"/><linearGradient id="M" gradientUnits="userSpaceOnUse" x1="115.222" y1="394.952" x2="115.222" y2="303.287"><stop offset="0" stop-color="#fff"/><stop offset="1" stop-color="#fff" stop-opacity="0"/></linearGradient><use xlink:href="#e" fill="url(#M)" class="h k"/><linearGradient id="N" gradientUnits="userSpaceOnUse" x1="373.085" y1="218.124" x2="325.462" y2="224.903" gradientTransform="matrix(0.693 0 0 -1 -72.5408 513.0223)"><stop offset="0" stop-color="#fff"/><stop offset="1" stop-color="#fff" stop-opacity="0"/></linearGradient><path d="M149.5 169h0c6.5 0 11.7 7.7 11.7 17.3v202.1c0 9.6-5.3 17.3-11.7 17.3h0c-6.5 0-11.7-7.7-11.7-17.3V186.3c-.1-9.5 5.2-17.3 11.7-17.3z" stroke="url(#N)" class="i j"/><linearGradient id="O" gradientUnits="userSpaceOnUse" x1="757.942" y1="143.967" x2="719.665" y2="180.385" gradientTransform="matrix(0.6464 0 0 -1 -71.8489 513.0005)"><stop offset="0" stop-color="#fff"/><stop offset="1" stop-color="#fff" stop-opacity="0"/></linearGradient><path d="M362.6 169h0a10.93 10.93 0 0 1 10.9 10.9v214.6a10.93 10.93 0 0 1-10.9 10.9h0a10.93 10.93 0 0 1-10.9-10.9V180c-.1-6.1 4.8-11 10.9-11z" opacity=".494" stroke="url(#O)" class="h i j"/><radialGradient id="P" cx="255.986" cy="-618.315" r="157.657" gradientTransform="matrix(1 0 0 -0.3036 0 0.9899)" gradientUnits="userSpaceOnUse"><stop offset="0"/><stop offset="1" stop-opacity="0"/></radialGradient><path d="M246.8 140.9c-64 .9-119.2 10.8-148.5 24.9v46c30.7 14.8 89.8 24.9 157.7 24.9s126.9-10.1 157.7-24.9v-46C383 151 323.9 140.9 256 140.9c-3.1 0-6.1-.1-9.2 0z" opacity=".553" fill="url(#P)" class="h"/><linearGradient id="Q" gradientUnits="userSpaceOnUse" x1="473.325" y1="123.971" x2="44.883" y2="123.971"><stop offset="0" stop-color="#6d6f6a"/><stop offset=".618" stop-color="#e7e8e5"/><stop offset="1" stop-color="#999b96"/></linearGradient><path d="M238.2 39.6c-88 3.5-156.8 32.3-156.8 67.3v33.8c0 37.3 78 67.6 174.4 67.6s174.7-30.4 174.7-67.6v-33.8c0-37.3-78.4-67.3-174.7-67.3-6 0-11.8-.2-17.6 0z" fill="url(#Q)" class="j l"/><linearGradient id="R" gradientUnits="userSpaceOnUse" x1="312.291" y1="53.626" x2="199.68" y2="53.626"><stop offset="0" stop-color="#95998e"/><stop offset=".595" stop-color="#fff"/><stop offset="1" stop-color="#dfdfdb"/></linearGradient><use xlink:href="#f" fill="url(#R)" stroke-width="22.522" class="l"/><linearGradient id="S" gradientUnits="userSpaceOnUse" x1="303.372" y1="374.701" x2="179.443" y2="256.144" gradientTransform="matrix(0.9677 0 0 -0.8333 -7.065 389.4141)"><stop offset="0" stop-color="#babdb6"/><stop offset="1" stop-color="#fff"/></linearGradient><path d="M424.9 103.5c0 31.1-75.7 54.3-168.9 54.3S87.1 132.5 87.1 101.5 162.7 45.2 256 45.2s168.9 34.1 168.9 58.3z" fill="url(#S)"/><radialGradient id="T" cx="660.514" cy="-1016.819" r="174.546" gradientTransform="matrix(0.5401 0 0 -0.18 -100.7264 -98.4744)" gradientUnits="userSpaceOnUse"><stop offset="0"/><stop offset="1" stop-opacity="0"/></radialGradient><path d="M350.3 84.6c0 17.4-42.2 31.4-94.3 31.4s-94.3-14.1-94.3-31.4 42.2-31.4 94.3-31.4 94.3 14 94.3 31.4z" fill="url(#T)" class="h k"/><linearGradient id="U" gradientUnits="userSpaceOnUse" x1="191.201" y1="124.14" x2="507.423" y2="124.14"><stop offset="0" stop-color="#fff"/><stop offset="1" stop-color="#fff" stop-opacity="0"/></linearGradient><path d="M239.4 50.8c-82.4 3-146.7 28.1-146.7 58.5v29.4c0 32.4 73 58.8 163.2 58.8s163.5-26.4 163.5-58.8v-29.4c0-32.4-73.3-58.5-163.5-58.5-5.6 0-11-.2-16.5 0z" opacity=".565" stroke="url(#U)" class="h i j"/><radialGradient id="V" cx="67.187" cy="-941.559" r="173.95" gradientTransform="matrix(1.1795 -0.224 -5.145861e-02 -0.271 79.5344 -78.4312)" gradientUnits="userSpaceOnUse"><stop offset="0" stop-color="#fff"/><stop offset="1" stop-color="#fff" stop-opacity="0"/></radialGradient><path d="M419.6 97.8c0 32.2-73.2 58.3-163.5 58.3S92.7 130 92.7 97.8s73.2-58.3 163.5-58.3 163.4 26.1 163.4 58.3z" stroke="url(#V)" stroke-width="10.065" class="i"/><g opacity=".557"><radialGradient id="W" cx="360.32" cy="164.943" r="30.968" gradientTransform="matrix(0.9091 0 0 -0.5454 -9.6361 174.5417)" gradientUnits="userSpaceOnUse"><stop offset="0"/><stop offset="1" stop-opacity="0"/></radialGradient><path d="M346.1 84.6c0 9.3-12.6 16.9-28.2 16.9s-28.2-7.6-28.2-16.9 12.6-16.9 28.2-16.9 28.2 7.5 28.2 16.9z" fill="url(#W)"/><radialGradient id="X" cx="236.155" cy="164.943" r="30.968" gradientTransform="matrix(0.9091 0 0 -0.5454 -20.6366 174.5417)" gradientUnits="userSpaceOnUse"><stop offset="0"/><stop offset="1" stop-opacity="0"/></radialGradient><path d="M222.2 84.6c0 9.3-12.6 16.9-28.2 16.9s-28.2-7.6-28.2-16.9 12.6-16.9 28.2-16.9 28.2 7.5 28.2 16.9z" fill="url(#X)"/></g><linearGradient id="Y" gradientUnits="userSpaceOnUse" x1="215.941" y1="429.577" x2="212.146" y2="415.151" gradientTransform="matrix(1 0 -0.3088 -0.9511 233.7238 477.013)"><stop offset="0" stop-color="#888a85"/><stop offset="1" stop-color="#d3d7cf"/></linearGradient><path d="M304.4 67.7h19.2c2.6 0 5.3 1.9 6.1 4.2l4.4 13.5c.8 2.3-.7 4.2-3.3 4.2h-19.2c-2.6 0-5.3-1.9-6.1-4.2L301 71.9c-.7-2.3.8-4.2 3.4-4.2z" fill="url(#Y)"/><linearGradient id="Z" gradientUnits="userSpaceOnUse" x1="194.39" y1="57.808" x2="194.388" y2="78.276"><stop offset="0" stop-color="#d3d7cf"/><stop offset="1" stop-color="#eeeeec"/></linearGradient><path d="M181.3 89.5h19.2c2.6 0 5.3-1.9 6.1-4.2l4.4-13.5c.8-2.3-.7-4.2-3.3-4.2h-19.2c-2.6 0-5.3 1.9-6.1 4.2L178 85.3c-.8 2.3.7 4.2 3.3 4.2z" fill="url(#Z)"/><use xlink:href="#f" fill="url(#R)"/><linearGradient id="a" gradientUnits="userSpaceOnUse" x1="255.823" y1="59.143" x2="255.823" y2="89.529"><stop offset="0" stop-opacity=".323"/><stop offset="1" stop-opacity="0"/></linearGradient><path d="M182.8 90.2h22.5s5.6-39.4 50.7-39.4 50.7 39.4 50.7 39.4h22.2" fill="url(#a)" stroke="#fff" stroke-linecap="round" class="j"/><radialGradient id="b" cx="212.752" cy="-1645.108" r="173.95" gradientTransform="matrix(0.8993 -2.275083e-02 -3.859305e-03 -0.1526 -15.0396 -121.4416)" gradientUnits="userSpaceOnUse"><stop offset="0" stop-color="#fff"/><stop offset="1" stop-color="#fff" stop-opacity="0"/></radialGradient><path d="M346.6 97.8c0 17.8-40.5 32.2-90.4 32.2s-90.4-14.4-90.4-32.2 40.5-32.2 90.4-32.2 90.4 14.4 90.4 32.2z" stroke="url(#b)" stroke-width="18.192" class="i"/><path d="M250.4 85.8h.5l.2.8.5-.8h.5l-.3 1.6h-.4l.2-1.2-.5.9h-.2l-.2-.9-.2 1.2h-.4l.3-1.6m2.1.4h.4l-.2 1.2h-.4l.2-1.2m.1-.5h.4l-.1.3h-.4l.1-.3m1.6.5l-.1.3-.1-.1h-.1c-.1 0-.2 0-.3.1s-.1.2-.1.3 0 .1.1.2c0 0 .1.1.2.1h.2c.1 0 .1 0 .2-.1l-.1.3c-.1 0-.1 0-.2.1h-.2c-.2 0-.3 0-.4-.1s-.1-.2-.1-.3 0-.2.1-.3c0-.1.1-.2.2-.2.1-.1.2-.1.3-.2.1 0 .2-.1.3-.1h.2c.1 0-.2 0-.1 0m1.1.3h-.2c-.1 0-.2 0-.2.1-.1.1-.1.1-.1.3l-.1.6h-.4l.2-1.2h.4v.2l.2-.2c.1 0 .2-.1.2-.1h.1l-.1.3m.8-.1c-.1 0-.2 0-.2.1-.1.1-.1.2-.1.3v.2l.1.1c.1 0 .2 0 .2-.1.1-.1.1-.2.1-.3v-.2c0-.1-.1-.1-.1-.1m0-.2c.2 0 .3 0 .4.1s.1.2.1.4v.3c0 .1-.1.2-.1.2-.1.1-.2.1-.3.2-.1 0-.2.1-.3.1-.2 0-.3 0-.4-.1s-.1-.2-.1-.4v-.3c0-.1.1-.2.1-.2.1-.1.2-.1.2-.2.2-.1.3-.1.4-.1m1.9 0l-.1.3c-.1 0-.1-.1-.2-.1h-.2-.2s-.1 0-.1.1h.1.1c.1 0 .3.1.3.1.1 0 .1.1.1.2s-.1.2-.2.3-.3.1-.5.1h-.2c-.1 0-.2 0-.3-.1l.1-.3c.1 0 .1.1.2.1h.2.2l.1-.1v-.1h-.1-.1c-.1 0-.2-.1-.3-.1s-.1-.1-.1-.2.1-.2.1-.3c.1-.1.2-.1.4-.1h.2c.3.2.4.2.5.2m.2.7l.1-.7h.4l-.1.6v.1.1.1h.1c.1 0 .1 0 .2-.1s.1-.1.1-.3l.1-.6h.4l-.2 1.2h-.4v-.2l-.2.2h-.2c-.1 0-.2 0-.3-.1s-.1-.1-.1-.2l.1-.1c0 .1 0 0 0 0m2.6-.7l-.1.3-.1-.1h-.1c-.1 0-.2 0-.3.1s-.1.2-.1.3 0 .1.1.2c0 0 .1.1.2.1h.2c.1 0 .1 0 .2-.1l-.1.3c-.1 0-.1 0-.2.1h-.2c-.2 0-.3 0-.4-.1s-.2-.2-.2-.3 0-.2.1-.3c0-.1.1-.2.2-.2.1-.1.2-.1.3-.2.1 0 .2-.1.3-.1h.2c-.1 0 0 0 0 0m.4-.5h.4l-.2.9.5-.4h.5l-.7.5.5.6h-.4l-.4-.5-.1.5h-.4l.3-1.6m2.3.5l-.1.3c-.1 0-.1-.1-.2-.1h-.2-.2s-.1 0-.1.1h.1.1c.1 0 .3.1.3.1.1 0 .1.1.1.2s-.1.2-.2.3-.3.1-.5.1h-.2c-.1 0-.2 0-.3-.1l.1-.3c.1 0 .1.1.2.1h.2.2l.1-.1v-.1h-.1-.1c-.1 0-.2-.1-.3-.1s-.1-.1-.1-.2.1-.2.1-.3c.1-.1.2-.1.4-.1h.2c.3.2.4.2.5.2" opacity=".263" class="h"/><defs ><path id="d" d="M396.7 140.9h0c3.1 0 5.6 10.1 5.6 22.5v202.7c0 12.4-2.5 22.5-5.6 22.5h0c-3.1 0-5.6-10.1-5.6-22.5V163.4c0-12.4 2.5-22.5 5.6-22.5z"/><path id="e" d="M115.2 146.5h0c3.1 0 5.6 10.1 5.6 22.5v202.7c0 12.4-2.5 22.5-5.6 22.5h0c-3.1 0-5.6-10.1-5.6-22.5V169c0-12.4 2.5-22.5 5.6-22.5z"/><path id="f" d="M205.3 67.7l-5.6 22.5H211c0-16.9 25.9-45 45-45s45 28.1 45 45h11.3l-5.6-22.5C303.6 47.1 289.8 17 256 17c-33.8.1-47.8 31-50.7 50.7z"/></defs></svg>