<?xml version="1.0" encoding="UTF-8"?><svg xmlns="http://www.w3.org/2000/svg" xmlns:xlink="http://www.w3.org/1999/xlink" height="512" width="512"><path d="M463.19 1.972a10.863 10.863 0 0 0-1.358.339H420.76c-2.911 0-5.765 1.32-7.807 3.394L260.205 160.83l13.238 16.972 41.072-41.412 7.468 70.943-11.88 17.651 12.22 15.954 1.697 2.037L453.346 49.154v238.627c-6.484 3.759-10.862 10.636-10.862 18.669s4.379 14.91 10.862 18.669v13.578c0 10.194 6.637 19.784 16.972 22.743 10.241 2.914 17.387 13.087 15.275 25.119-1.472 8.412-8.879 15.83-17.311 17.311-14.262 2.504-25.798-7.952-25.798-21.385a10.863 10.863 0 1 0-21.724 0c0 26.431 24.307 47.5 51.256 42.77 17.789-3.124 31.85-17.175 34.962-34.962 3.993-22.749-10.281-43.695-30.889-49.558-.44-.126-1.018-1.021-1.018-2.037V325.12c6.484-3.759 10.862-10.636 10.862-18.669s-4.379-14.91-10.862-18.669V13.853c.026-.529.051-1.168 0-1.697a10.863 10.863 0 0 0-.339-1.358 10.863 10.863 0 0 0-1.018-2.716 10.863 10.863 0 0 0-1.697-2.376 10.863 10.863 0 0 0-1.018-1.018 10.863 10.863 0 0 0-2.716-1.697 9.97 9.97 0 0 0-1.018-.339 10.863 10.863 0 0 0-4.073-.679z" fill="#38c1ce"/><path d="M71.518 154.235c-16.999 0-30.832 14.633-30.832 32.614v130.455c0 17.981 13.833 32.614 30.832 32.614h30.832v21.742H71.518c-34.008 0-61.664 29.254-61.664 65.227s27.656 65.227 61.664 65.227H297.62c34.008 0 61.664-29.254 61.664-65.227s-27.656-65.227-61.664-65.227h-30.832v-21.742h10.277c16.999 0 30.832-14.633 30.832-32.614V284.69v-10.531-.34c-.072-9.512-3.153-18.987-8.672-26.499l-59.095-80.515c-5.807-7.871-14.974-12.57-24.409-12.57h-44-7.708z" fill="#fff" stroke="#000" stroke-width="17"/><g fill="#38c1ce"><use xlink:href="#B"/><use xlink:href="#B" x="-65.173"/><use xlink:href="#B" x="-159.794"/><use xlink:href="#B" x="-224.966"/></g><path d="M133.483 349.899h100v21.724h-100z"/><path d="M161.188 180.105h40.393c3.335 0 6.444 1.456 8.486 4.073l62.797 80.787c2.878 3.704 4.337 8.195 4.413 12.899h-89.612z" fill="#38c1ce"/><path d="M381.009 121.455l-38.357 57.365-5.771-54.311zm4.752-55.329l2.716 33.265-38.017 2.376zm41.412-42.09h18.669l-36.999 55.668-3.055-34.284z" fill="#fff"/><defs ><path id="B" d="M300.139 415.072c12.003 0 21.724 9.722 21.724 21.724s-9.722 21.724-21.724 21.724-21.724-9.722-21.724-21.724 9.722-21.724 21.724-21.724z"/></defs></svg>