<?xml version="1.0" encoding="UTF-8" standalone="no"?>
<svg class="gateClosed"
   xmlns:dc="http://purl.org/dc/elements/1.1/"
   xmlns:cc="http://creativecommons.org/ns#"
   xmlns:rdf="http://www.w3.org/1999/02/22-rdf-syntax-ns#"
   xmlns:svg="http://www.w3.org/2000/svg"
   xmlns="http://www.w3.org/2000/svg"
   version="1.1"
   
   
   
   viewBox="0 0 512 512"
   style="enable-background:new 0 0 512 512;"
   xml:space="preserve"><metadata
   id="metadata1181"><rdf:RDF><cc:Work
       rdf:about=""><dc:format>image/svg+xml</dc:format><dc:type
         rdf:resource="http://purl.org/dc/dcmitype/StillImage" /><dc:title></dc:title></cc:Work></rdf:RDF></metadata><defs
   id="defs1179">
	
	
	
</defs>
<style
   type="text/css"
   id="style1150">
	svg.gateClosed .st0{fill:#FBA919;stroke:#111342;stroke-width:14.3597;stroke-linecap:round;stroke-linejoin:round;stroke-miterlimit:10;}
	svg.gateClosed .st1{display:none;}
	
		svg.gateClosed .st2{display:inline;fill:#FFFFFF;stroke:#111342;stroke-width:14.3597;stroke-linecap:round;stroke-linejoin:round;stroke-miterlimit:10;}
	svg.gateClosed .st3{fill:#FFFFFF;stroke:#111342;stroke-width:15;stroke-linecap:round;stroke-linejoin:round;stroke-miterlimit:10;}
</style>
<circle
   id="circle1152"
   cy="256"
   cx="256"
   class="st0"
   r="250.54585"
   style="fill:#ff2a2a;stroke:#ff2a2a;stroke-width:8.9083;stroke-miterlimit:10;stroke-dasharray:none;stroke-opacity:1" /><g
   id="g1158"
   class="st1">
		<circle
   id="circle1154"
   r="37.34"
   cy="118.83"
   cx="256.28"
   class="st2" />
		<path
   id="path1156"
   d="m 341.4,309.48 21.75,-11.32 c 3.35,-1.74 4.65,-5.87 2.91,-9.22 L 303.67,173.2 C 300,166.4 292.83,162.22 285.1,162.4 l -61.75,1.43 c -7.49,0.17 -14.3,4.41 -17.76,11.06 l -59.35,114.05 c -1.74,3.35 -0.44,7.48 2.91,9.22 l 21.75,11.32 c 3.35,1.74 7.48,0.44 9.22,-2.91 l 31.08,-59.73 v 57.76 3.49 110.28 c 0,3.78 3.06,6.84 6.84,6.84 h 24.52 c 3.78,0 6.84,-3.06 6.84,-6.84 V 314.93 c 0,-3.78 3.06,-6.84 6.84,-6.84 v 0 c 3.78,0 6.84,3.06 6.84,6.84 v 103.45 c 0,3.78 3.06,6.84 6.84,6.84 h 24.52 c 3.78,0 6.84,-3.06 6.84,-6.84 V 304.61 h -0.09 v -57.63 l 31.01,59.59 c 1.72,3.35 5.85,4.65 9.2,2.91 z"
   class="st2" />
	</g><g
   transform="matrix(1.1135371,0,0,1.1135371,-29.377288,-28.631235)"
   id="g1172"
   style="stroke-width:1;stroke-miterlimit:10;stroke-dasharray:none">
		<path
   id="path1160"
   d="M 292.21,418.27 V 284.14 h 20.63 V 201.6 c 0,-19.94 -16.17,-36.11 -36.11,-36.11 h -41.27 c -19.94,0 -36.11,16.17 -36.11,36.11 v 82.54 h 20.63 v 134.13 z"
   class="st3"
   style="stroke:#ffffff;stroke-width:1;stroke-miterlimit:10;stroke-dasharray:none;stroke-opacity:1" />
		<line
   id="line1162"
   y2="299.62"
   x2="256.10001"
   y1="422.84918"
   x1="256.10001"
   class="st3"
   style="stroke:#ff2a2a;stroke-width:15;stroke-miterlimit:10;stroke-dasharray:none;stroke-opacity:1" />
		<path
   id="path1164"
   d="m 281.9,119.07 c 0,14.25 -11.56,25.78 -25.8,25.78 -3.85,0 -7.51,-0.85 -10.8,-2.37 -1.52,-3.27 -2.37,-6.92 -2.37,-10.78 0,-14.25 11.56,-25.8 25.8,-25.8 3.85,0 7.51,0.85 10.8,2.37 1.52,3.29 2.37,6.94 2.37,10.8 z"
   class="st3"
   style="stroke-width:1;stroke-miterlimit:10;stroke-dasharray:none" />
		<path
   id="path1166"
   d="m 281.9,119.07 c 0,14.25 -11.56,25.78 -25.8,25.78 -3.85,0 -7.51,-0.85 -10.8,-2.37 -8.87,-4.08 -15,-13.04 -15,-23.42 0,-14.25 11.56,-25.8 25.8,-25.8 10.4,0 19.36,6.16 23.44,15 1.51,3.3 2.36,6.95 2.36,10.81 z"
   class="st3"
   style="stroke:#ffffff;stroke-width:1;stroke-miterlimit:10;stroke-dasharray:none;stroke-opacity:1" />
		
		
	</g>
</svg>
