<?xml version="1.0" encoding="UTF-8" standalone="no"?>
<svg
   xmlns:dc="http://purl.org/dc/elements/1.1/"
   xmlns:cc="http://creativecommons.org/ns#"
   xmlns:rdf="http://www.w3.org/1999/02/22-rdf-syntax-ns#"
   xmlns:svg="http://www.w3.org/2000/svg"
   xmlns="http://www.w3.org/2000/svg"
   xml:space="preserve"
   style="enable-background:new 0 0 512 512;"
   viewBox="0 0 512 512"
   y="0px"
   x="0px"
   id="Layer_1"
   version="1.1"><metadata
   id="metadata878"><rdf:RDF><cc:Work
       rdf:about=""><dc:format>image/svg+xml</dc:format><dc:type
         rdf:resource="http://purl.org/dc/dcmitype/StillImage" /><dc:title></dc:title></cc:Work></rdf:RDF></metadata><defs
   id="defs876">
	
	
	
	

		
		
		
		
	
		
		
		
		
	</defs>
<style
   id="style833"
   type="text/css">
	.st0{opacity:0.6;fill:#38C1CE;}
	.st1{fill:#38C1CE;}
	.st2{fill:none;stroke:#111342;stroke-width:10.7714;stroke-linecap:round;stroke-linejoin:round;stroke-miterlimit:10;}
</style>

<g
   transform="translate(0,11)"
   id="g1122"><g
     id="g869"
     transform="matrix(1.0922905,0,0,0.99920734,-31.801735,1.3639471)">
		<g
   id="g863">
			<path
   id="path857"
   d="m 284.06,223.87 v 21.78 l 16.33,16.33 c 38.11,21.78 76.22,16.33 76.22,70.78 v 49 H 137.06 v -49 c 0,-54.44 38.11,-49 76.22,-70.78 l 16.33,-16.33 v -21.78"
   class="st2" />
			<path
   id="path859"
   d="m 305.84,153.1 c 0,-33.08 -15.92,-49 -49,-49 -33.08,0 -49,15.92 -49,49 v 21.78 c 5.44,38.11 21.78,49 21.78,49 10.89,5.44 27.22,5.44 27.22,5.44 0,0 16.33,0 27.22,-5.44 0,0 16.33,-10.89 21.78,-49 z"
   class="st2" />
			<polyline
   id="polyline861"
   points="207.84,153.1 229.62,142.21 256.84,153.1 284.06,163.99 305.84,153.1    "
   class="st2" />
		</g>
		<line
   id="line865"
   y2="338.20999"
   x2="180.62"
   y1="381.76001"
   x1="180.62"
   class="st2" />
		<line
   id="line867"
   y2="338.20999"
   x2="333.06"
   y1="381.76001"
   x1="333.06"
   class="st2" />
	</g><g
     id="g1029"
     transform="matrix(1.0922905,0,0,0.99920734,-31.801735,1.3639471)"><path
       id="path837"
       d="m 166.61573,164.09405 c 0,30.62 -17.16,56.85999 -43.73,56.85999 -7.01,0 -13.37,-1.81999 -18.92,-5.08 -6.3,-10.01 -9.81,-22.95 -9.81,-36.77 0,-30.62 8.74,-48.1 43.73,-48.1 10.01,0 17.89,1.43 24,4.2 3.48,7.57 4.73,17.3 4.73,28.89001 z"
       class="st1" /><path
       id="path839"
       d="m 166.61573,164.09405 c 0,30.62 -17.16,56.85999 -43.73,56.85999 -7.01,0 -13.37,-1.81999 -18.92,-5.08 -15.51,-9.08 -24.81,-29.24 -24.81,-51.78 0,-30.62 8.74,-48.09999 43.73,-48.09999 21.73,0 33.34,6.75 39.01,19.19999 3.47,7.58 4.72,17.31 4.72,28.90001 z"
       class="st2" /><path
       style="stroke-width:10.771;stroke-miterlimit:10;stroke-dasharray:none"
       id="path843"
       d="m 96.64573,212.20404 -61.23,34.99001 c 0,0 0,3.00999 0,17.49 0,14.49 8.75,26.24 17.49,26.24 h 99.37"
       class="st2" /><path
       class="st2"
       d="m 141.02022,215.9209 56.19629,31.3945 v 17.49 c 0,13.0518 -26.13337,6.70292 -44.94078,26.11865 l -71.919214,0.12135"
       id="path843-3"
       style="fill:none;stroke:#111342;stroke-width:10.771;stroke-linecap:round;stroke-linejoin:round;stroke-miterlimit:10;stroke-dasharray:none" /></g><g
     id="g1023"
     transform="matrix(1.0922905,0,0,0.99920734,-31.801735,1.3639471)"><path
       id="path847"
       d="m 360.82247,164.18393 c 0,30.62 17.16,56.86 43.73,56.86 7.01,0 13.37,-1.82 18.92,-5.08 6.3,-10.01 9.81,-22.95 9.81,-36.77 0,-30.62 -8.74,-48.1 -43.73,-48.1 -10.01,0 -17.89,1.43 -24,4.2 -3.48,7.57 -4.73,17.3 -4.73,28.89 z"
       class="st1" /><path
       id="path849"
       d="m 360.82247,164.18393 c 0,30.62 17.16,56.86 43.73,56.86 7.01,0 13.37,-1.82 18.92,-5.08 15.51,-9.08 24.81,-29.24 24.81,-51.78 0,-30.62 -8.74,-48.1 -43.73,-48.1 -21.73,0 -33.34,6.75 -39.01,19.2 -3.47,7.58 -4.72,17.31 -4.72,28.9 z"
       class="st2" /><path
       id="path853"
       d="m 430.79247,211.0937 61.23,34.99 c 0,0 0,3.01 0,17.49 0,14.49 -8.75,26.24 -17.49,26.24 h -99.37"
       class="st2" /><path
       style="fill:none;stroke:#111342;stroke-width:10.7783;stroke-linecap:round;stroke-linejoin:round;stroke-miterlimit:10"
       class="st2"
       d="m 378.32506,211.56715 -61.31342,34.98698 -0.44557,21.9437 c 22.75147,10.03311 35.5278,14.454 42.49498,20.24594 l 25.89072,1.09092"
       id="path853-5" /></g></g></svg>
