<?xml version="1.0" encoding="UTF-8"?>
<!DOCTYPE svg  PUBLIC '-//W3C//DTD SVG 20010904//EN'  'http://www.w3.org/TR/2001/REC-SVG-20010904/DTD/svg10.dtd'>
<svg viewBox="0 0 867 276" xmlns="http://www.w3.org/2000/svg">
<path d="m175.14 250l20.55-45 62.89-141s21-48 21-48c2-4.61 4.38-14.9 10.42-14.9 5.82 0 8.16 10.4 10.01 14.9 0 0 19.98 48 19.98 48l58.87 139 19.45 44 10.69 24c-10.23-1.83-29.56-1.38-40 0 0 0-30.4-79-30.4-79l-6.4-16c-1.01-2.47-2.02-5.53-4.42-6.98-2.04-1.22-5.44-1.02-7.78-1.02h-28l-15-0.91-10 0.91h-27c-2.22 0-5.7-0.22-7.59 1.02-2.02 1.34-3.13 4.78-4.01 6.98l-6.4 16c-7.12 17.8-24.11 61.94-28 79-10.35-1.37-17.65-1.37-28 0 1.84-6.45 6.34-14.72 9.14-21zm545.23-28.01c1.61 1.13 3.54 5.17 4.72 7.01 2.29 3.57 5.65 7.77 8.5 10.91 8.51 9.39 21.03 16.65 33.41 19.43 35.11 7.86 69.56-14.9 70-52.34 0.1-8.6-0.39-15.1-4.38-23-8.07-16-28.83-26.07-44.62-32.85-23.12-9.93-44.75-15.86-60.87-37.15-4.5-5.95-7.22-10.75-9.21-18-1.4-5.1-2.85-14.73-2.92-20-0.09-7.9 0.93-17.42 3.21-25 1.42-4.74 4.68-11.77 7.25-16 13.23-21.71 41.68-33.96 66.54-34h15c12.49 0.15 24.96 3.55 36 9.26 2.89 1.49 9.54 5.01 10.87 7.92 1.18 2.57-0.47 5.45-1.45 7.82l-6.93 22.68c-1.84 3.11-4.3 1.55-5.81-0.83 0 0-3.94-7.85-3.94-7.85-4.28-8.16-9.92-14.08-17.74-18.94-29.35-18.22-72.58 3.79-73 38.94-0.1 8.87 0.07 14.69 3.9 23 6.84 14.85 25 24.54 39.1 31.25 22.56 10.75 43.07 13.83 62 32.75 6.58 6.59 10.7 12.08 13.64 21 1.68 5.09 3.22 15.62 3.35 21 0.48 21.48-8.57 46.77-24.08 61.83-16.34 15.87-37.69 22.7-59.91 24.36-9.59 0.57-9.73 1.31-20 0-19.18-2.18-22.08-1.83-40-10.95-3.42-1.74-11.34-5.8-12.8-9.33-1.17-2.84 1.23-7.95 2.06-10.91 1.77-6.4 3.2-16.32 3.74-23 1.57 0.12 2.98 0.03 4.37 0.99zm-700.37-214.03l17-1.96-1 42-1 17v174l1 15h49l20-1 37-4c-1.78 13.45-2.58 8.27 0 22l-17-1h-109l-16 1 1-20 0.96-12v-15l1.04-17v-86-50l-1.04-17v-16l-0.96-11-1-21 20 1.96zm240.15 92.04l-21.15 51 21 1 64-1-25.14-58-17.86-40s-20.85 47-20.85 47z" stroke="#000"/>
<path d="m394.21 196c-0.47-3.53 0.96-11.14 1.52-15l3.99-29 8-58 4.7-38 4.74-42c0.4-3.69-0.08-12.71 4.86-12.71 4.66 0 7.42 8.1 9.23 11.71l18.99 38 55.07 106 20 37c2.92 5.39 7.93 13.44 9.69 19h2c1.65-5.76 5.07-10.68 7.75-16l19.94-37 33.62-63 25.44-47s20.11-37 20.11-37c5.49-9.9 4.87-11.77 12.14-12l5.84 55 10.88 98c3.25 26.32 6.98 74.7 14 98l7.28 18s-43 1-43 1-3.83-48-3.83-48-8.34-94-8.34-94l-5.83-56c-5.09 4.45-7.17 10.23-10.42 16l-17.36 32-53.44 102s-16.64 36-16.64 36c-1.12 2.53-4 11.64-7.8 9.83-2.3-1.1-6.27-10.19-7.59-12.83 0 0-18-37-18-37s-49.5-97-49.5-97l-15.99-31c-2.9-5.61-5.91-13.65-10.26-18l-2.84 27-7.99 71s-3.89 41-3.89 41l-2.28 18c-2.93-6.8-14.13-28.99-14.79-34z" fill="#00f1f1" stroke="#000"/>
</svg>
