<svg xmlns="http://www.w3.org/2000/svg" viewBox="0 0 1024 1024"  xmlns:v="https://vecta.io/nano"><path d="M512 1024c282.8 0 512-229.2 512-512S794.8 0 512 0 0 229.2 0 512s229.2 512 512 512" fill="#fff"/><path d="M77.3 617.6V423.9c0-11.2 9.1-20.7 20.7-20.7 11.2 0 20.4 9.5 20.4 20.7v179.4h87.1c9.8 0 18.3 8.1 18.3 17.9 0 10.2-8.4 18.3-18.3 18.3H99c-14-.1-21.7-7.8-21.7-21.9zm383.3 2.8c0 11.6-9.5 21.1-21.1 21.1-8.8 0-16.5-5.6-19.3-13.3l-12.3-33.7H295.6l-12.3 33.7c-2.8 7.7-10.5 13.3-19.3 13.3-11.6 0-21.1-9.5-21.1-21.1 0-2.5 1.1-5.3 1.8-7.4l73.4-186.7c5.3-13.3 18.3-23.2 33.7-23.2s28.4 9.8 33.7 23.2L458.9 613c.6 2.2 1.7 5 1.7 7.4zm-65.7-62.1L351.8 440l-43.2 118.3zm302.3 62.5V462.1l-69.9 172c-1.8 4.6-6 7.4-10.9 7.4s-9.1-2.8-10.9-7.4l-69.5-172v158.7c0 11.2-9.1 20.7-20.4 20.7-11.6 0-20.7-9.5-20.7-20.7V437.2c0-18.6 15.1-34 34-34 14.4 0 26.7 8.8 31.6 21.4l55.8 138.3 56.2-138.3c4.9-12.6 17.2-21.4 31.6-21.4 19 0 34 15.4 34 34v183.6c0 11.2-9.1 20.7-20.7 20.7-11.1 0-20.2-9.5-20.2-20.7zm80.7-18.3c0-10.9 8.8-19.7 19.3-19.7 4.6 0 8.8 1.4 11.9 3.9 16.1 11.9 36.2 20.4 60.7 20.4 33.7 0 47-16.5 47-31.9 0-21.1-24.9-27.4-53.4-34.8-38.3-9.5-83.2-20.7-83.2-70.2 0-38.6 34-68.5 88.8-68.5 27.4 0 49.5 7 72.3 21.4 5.3 3.2 8.8 9.1 8.8 15.8 0 10.5-8.8 19.3-19.3 19.3-4.2 0-8.1-1.4-10.9-3.5-16.8-11.2-36.5-16.5-54.4-16.5-27.7 0-43.2 11.6-43.2 29.1 0 18.3 23.9 24.2 51.6 31.2 38.6 9.8 84.6 21.8 84.6 72.7 0 39-27.4 72.3-90.6 72.3-34.8 0-61.8-9.8-82.5-25.6-4.3-3.4-7.5-9-7.5-15.4z" enable-background="new" fill="#0175E2"/></svg>