<?xml version="1.0" encoding="UTF-8"?><svg xmlns="http://www.w3.org/2000/svg" width="512" height="512" viewBox="0 0 135.467 135.467"><path d="M48.733 97.883s-7.263-37.711.521-53.908c1.107-2.303 3.383-4.792 5.937-4.846 2.109-.044 4.091 1.921 5.067 3.791 4.54 8.697 1.409 21.146 1.339 30.84-.018 2.51-.068 5.011.044 7.092-.956 5.74 1.575.356 2.203-2.133.881-3.586-1.418-7.853.393-11.071 1.16-2.061 3.501-3.954 5.931-3.896s4.765 2.157 5.865 4.322c2.36 2.988-.057 10.081.073 14.067.051 1.563-.108 2.648 1.472 2.821.668.05 1.373-.486 1.702-1.071.501-.891-.339-1.865-.35-2.884-.028-2.444-.019-5.141.514-7.533.226-1.014.571-2.082 1.279-2.842.953-1.024 2.306-1.827 3.695-1.99 1.461-.171 3.086.256 4.264 1.137 1.021.764 1.622 2.047 1.99 3.269.747 2.482.986 5.723.784 8.39 2.222 8.984 1.967-.312 3.185-3.439.737-1.649 2.079-3.45 3.848-3.815 1.796-.111 3.858.537 4.852 1.711 1.117 1.32 1.071 3.269 1.401 4.827 2.075 9.973-.568 30.555-.568 30.555l-1.563 9.522-1.728 8.172-9.076.422h0l-26.573.961-9.974-1.398-5.658-2.757-6.395-11.938-8.669-9.38-8.669-5.116-1.137-2.984 2.132-2.274 4.406-1.279 6.111.426 7.594-.627z" fill="#fff" fill-opacity=".6"/><g stroke-miterlimit="7"><path d="M54.771 36.096c-2.547.144-4.998 1.483-6.519 3.422-1.244 1.541-2.02 3.488-1.935 5.487l-.144 27.888-.193 19.734c.071.857-.421.713-1.009.401-2.925-1.246-5.957-2.314-9.133-2.674-3.117-.39-6.497-.288-9.373.896-2.353.941-4.521 2.99-4.656 5.655-.139 2.419 1.055 4.899 3.166 6.146 2.16 1.25 4.44 2.308 6.449 3.809 5.522 3.989 9.69 9.577 12.951 15.498 1.484 3.063 3.489 6.003 6.426 7.834 1.803 1.106 3.828 1.959 5.942 2.187 5.666.223 11.341.108 17.011.138l20.2-.034c2.456-.831 5.012-1.677 6.928-3.51 2.431-2.028 4.245-4.803 4.928-7.909.617-2.548.787-5.175 1.089-7.772.322-3.144.485-6.303.698-9.456.243-7.77.387-15.604.095-23.341-.099-1.446-.198-2.775-.807-4.183-1.508-3.965-6.442-6.264-10.402-4.626-.734.264-1.329.817-2.084 1.027-.848-.547-.799-1.726-1.363-2.499-1.975-3.715-6.791-5.451-10.724-4.055-1.14.379-2.163 1.025-3.229 1.568-.733-2.367-2.129-4.637-4.348-5.861-2.684-1.541-6.144-1.604-8.875-.137-.534.241-1.097.526-1.697.354-.221-5.86-.12-11.802-.381-17.615-.047-2.553-1.511-4.905-3.364-6.576-1.548-1.3-3.64-1.907-5.646-1.795zm.42 3.033c3.023-.031 5.584 2.799 5.548 5.766.223 6.304.167 12.614.257 18.921l.288 17.574c.081.61.013 1.372.341 1.967.732.583 2.105.586 2.504-.375.295-3.796.176-7.612.254-11.417.091-1.5-.134-3.085.409-4.515.923-2.066 3.155-3.302 5.377-3.299 1.678-.181 3.243.781 4.445 1.855.954.953 1.288 2.299 1.298 3.61.172 4.815-.035 9.706.195 14.474-.091.711.73 1.353 1.473 1.271.751.16 1.473-.4 1.702-1.071.095-3.527-.024-7.063.193-10.585.287-2.295 2.38-4.068 4.585-4.479 2.098-.447 4.316.414 5.708 2.012 1.298 1.331 1.065 3.35 1.152 5.056.088 3.071-.125 6.16.21 9.218.036.943 1.185 1.31 1.969 1.169.822-.152 1.213-.96 1.208-1.734.25-2.174-.108-4.398.335-6.549.704-2.211 2.964-4.206 5.398-3.729 2.358.34 4.212 2.446 4.422 4.793.444 3.827.266 7.694.32 11.539-.02 4.855.022 9.745-.335 14.565-.257 4.805-.65 9.613-1.434 14.363-.558 3.52-2.796 6.703-5.92 8.416-1.6.929-3.415 1.537-5.284 1.447l-28.542.075c-2.667-.093-5.39.114-8.006-.512-2.429-.864-4.711-2.339-6.143-4.527-1.614-2.414-2.763-5.105-4.402-7.506-3.023-4.655-6.631-8.832-11.043-12.201-1.891-1.478-4.141-2.743-6.348-3.848-1.363-.665-2.519-1.989-2.466-3.578.015-1.766 1.713-2.831 3.191-3.375 3.039-1.114 6.387-.788 9.498-.172 3.27.697 6.543 1.947 9.1 4.108.594.477 1.549.723 2.088.025.695-.458.326-1.343.419-2.041l.102-51.867c.841-2.205 2.561-4.332 5-4.753.309-.071.623-.076.938-.093z" fill="#111342" stroke="#000" stroke-width=".265"/><g fill="none" stroke="#38c1ce" stroke-linecap="round" stroke-linejoin="round"><path d="M41.671 39.378a13.26 13.26 0 0 1 13.257-13.257 13.26 13.26 0 0 1 13.257 13.257" stroke-width="4.233"/><path d="M28.589 40.169c0-14.602 11.837-26.438 26.438-26.438s26.438 11.837 26.438 26.438" stroke-width="4.498"/><path d="M18.779 40.057c0-20.127 16.316-36.444 36.444-36.444S91.667 19.93 91.667 40.057" stroke-width="3.841"/></g></g></svg>