<?xml version="1.0" encoding="UTF-8" standalone="no"?>
<svg class="zoom"
   xmlns:dc="http://purl.org/dc/elements/1.1/"
   xmlns:cc="http://creativecommons.org/ns#"
   xmlns:rdf="http://www.w3.org/1999/02/22-rdf-syntax-ns#"
   xmlns:svg="http://www.w3.org/2000/svg"
   xmlns="http://www.w3.org/2000/svg"
   xml:space="preserve"
   style="enable-background:new 0 0 512 512;"
   viewBox="0 0 512 512"
   
   
   
   version="1.1"><metadata
   id="metadata31"><rdf:RDF><cc:Work
       rdf:about=""><dc:format>image/svg+xml</dc:format><dc:type
         rdf:resource="http://purl.org/dc/dcmitype/StillImage" /><dc:title></dc:title></cc:Work></rdf:RDF></metadata><defs
   id="defs29">
	
	
	
	
	
	
</defs>
<style
   id="style10"
   type="text/css">
	svg.zoom .st0{opacity:0.6;fill:#6A71B5;}
	svg.zoom .st1{fill:none;stroke:#111342;stroke-width:14.2795;stroke-linecap:round;stroke-linejoin:round;stroke-miterlimit:10;}
	svg.zoom .st2{fill:#6A71B5;}
</style>
<g
   transform="matrix(1.0361764,0,0,1.0361764,-9.6991244,-0.89162501)"
   id="g62"><ellipse
     id="circle14"
     cy="247.92268"
     cx="256.42249"
     class="st1"
     rx="238.95715"
     ry="238.95735" /><path
     id="path16"
     d="m 396.53467,216.46184 v 117.3534 c 0,10.00722 -5.54469,8.79118 -10.40884,5.15422 L 345.10405,309.0705 v -55.04531 z"
     class="st2"
     style="stroke-width:1.11563" /><path
     id="path18"
     d="m 318.74168,215.80362 v 112.31073 c 0,4.54063 -3.74853,8.28915 -8.38955,8.28915 H 146.65549 c -5.84591,0.0223 -11.44639,-1.03754 -16.58945,-3.02336 -1.90773,-5.02035 -2.97873,-10.46464 -3.00105,-16.14321 V 204.91504 c 0,-4.54062 3.74853,-8.28915 8.41187,-8.28915 h 163.68548 c 5.84591,-0.0223 11.41291,1.03754 16.56713,3.02337 1.91889,5.02035 2.97874,10.46463 3.01221,16.15436 z"
     class="st2"
     style="stroke-width:1.11563" /><path
     id="path20"
     d="m 396.53467,183.27177 v 150.54347 c 0,10.00722 -5.54469,8.79118 -10.40884,5.15422 L 345.10405,309.0705 318.55202,289.71428 v -62.24114 l 67.57381,-49.35559 c 5.86822,-4.853 10.40884,-3.63696 10.40884,5.15422 z"
     class="st1" /><path
     id="path22"
     d="m 318.74168,215.80362 v 112.31073 c 0,4.54063 -3.74853,8.28915 -8.38955,8.28915 H 146.65549 c -5.84591,0.0223 -11.44639,-1.03754 -16.58945,-3.02336 -17.18073,-6.58223 -29.47499,-23.14938 -29.55308,-42.69526 V 178.36299 c 0,-4.54063 3.74852,-8.28915 8.41186,-8.28915 h 163.68549 c 19.62396,-0.0781 36.48115,12.21618 43.11916,29.57542 1.91889,5.02035 2.97874,10.46463 3.01221,16.15436 z"
     class="st1" /></g>
</svg>
