<?xml version="1.0" encoding="UTF-8"?><svg xmlns="http://www.w3.org/2000/svg" viewBox="0 0 512 512"><circle cy="256" cx="256" r="247.602" fill="#fff" stroke="#111342" stroke-width="14.28" stroke-linejoin="round"/><path d="M401.181 223.401V345c0 10.369-5.745 9.109-10.785 5.341L347.89 319.36v-57.037zm-80.608-.682v116.374c0 4.705-3.884 8.589-8.693 8.589H142.262c-6.057.023-11.86-1.075-17.19-3.133a47.55 47.55 0 0 1-3.11-16.727V211.437c0-4.705 3.884-8.589 8.716-8.589h169.607c6.057-.023 11.826 1.075 17.166 3.133a47.57 47.57 0 0 1 3.121 16.739z" fill="#ffcf60"/><g stroke="#111342" stroke-width="14.28" stroke-linejoin="round" fill="none" stroke-miterlimit="10"><path d="M401.181 189.01V345c0 10.369-5.745 9.109-10.785 5.341L347.89 319.36l-27.513-20.056v-64.493l70.018-51.141c6.081-5.029 10.785-3.769 10.785 5.341z"/><path d="M320.573 222.719v116.374c0 4.705-3.884 8.589-8.693 8.589H142.262c-6.057.023-11.86-1.075-17.19-3.133-17.802-6.82-30.541-23.987-30.622-44.24V183.924c0-4.705 3.884-8.589 8.716-8.589h169.607c20.334-.081 37.801 12.658 44.679 30.645a47.57 47.57 0 0 1 3.121 16.739z"/></g></svg>
