<?xml version="1.0" encoding="UTF-8"?><svg xmlns="http://www.w3.org/2000/svg" viewBox="0 0 512 512"><style><![CDATA[.Ci{stroke:#111342}.Di{stroke-linejoin:round}.Ei{stroke-miterlimit:10}.Fi{stroke-width:14.015}.Gi{fill:#ff72ac}]]></style><path d="M65.676 218.3l-24.027 33.495 30.618 30.618 33.495-24.038c9.225 5.489 19.266 9.699 29.935 12.432l6.933 40.758h43.304l6.944-40.736c10.658-2.744 20.71-6.955 29.935-12.443l33.484 24.038 30.618-30.618-24.027-33.484c5.533-9.302 9.765-19.442 12.51-30.199l40.659-6.679V138.14l-40.67-6.69a113.89 113.89 0 0 0-12.366-29.979l23.884-33.682-30.618-30.618-33.693 23.895c-9.236-5.467-19.299-9.655-29.979-12.377l-6.679-40.681h-43.304l-6.679 40.681a113.82 113.82 0 0 0-29.968 12.366L72.267 37.16 41.649 67.767l23.895 33.693a113.59 113.59 0 0 0-12.311 29.736l-40.725 6.922v43.304l40.725 6.922A113.84 113.84 0 0 0 65.676 218.3z" fill="#fff" class="Ci Di Ei Fi"/><path d="M218.557 159.775c0 29.979-24.303 54.282-54.282 54.282a53.86 53.86 0 0 1-27.499-7.495c-4.761-8.068-7.495-17.469-7.495-27.499 0-29.979 24.303-54.282 54.282-54.282a53.86 53.86 0 0 1 27.499 7.495c4.772 8.068 7.495 17.469 7.495 27.499z" class="Gi"/><g class="Ci Di Ei"><path d="M218.557 159.775c0 29.979-24.303 54.282-54.282 54.282a53.86 53.86 0 0 1-27.499-7.495c-16.037-9.424-26.783-26.838-26.783-46.787 0-29.979 24.303-54.282 54.282-54.282 19.949 0 37.363 10.746 46.787 26.783 4.772 8.068 7.495 17.469 7.495 27.499z" fill="none" stroke-width="12.716"/><path d="M331.628 339.23l-16.136 22.495 20.566 20.566 22.495-16.147a75.87 75.87 0 0 0 20.103 8.343l4.662 27.367h29.086l4.662-27.367c7.164-1.841 13.909-4.662 20.103-8.354l22.484 16.147 20.566-20.566-16.136-22.484c3.714-6.249 6.558-13.061 8.398-20.28l27.312-4.486v-29.086l-27.312-4.486a76.01 76.01 0 0 0-8.31-20.137l16.048-22.627-20.566-20.566-22.627 16.048c-6.205-3.67-12.961-6.481-20.137-8.31l-4.497-27.323h-29.086l-4.486 27.323a76.43 76.43 0 0 0-20.126 8.299l-22.638-16.048-20.566 20.555 16.048 22.627c-3.648 6.161-6.448 12.862-8.266 19.971l-27.356 4.651v29.086l27.356 4.651a76.39 76.39 0 0 0 8.354 20.137z" fill="#fff" class="Fi"/></g><path d="M434.306 299.938c0 20.115-16.312 36.449-36.449 36.449-6.525 0-12.653-1.708-17.943-4.739-3.031-5.29-4.739-11.407-4.739-17.932 0-20.148 16.312-36.482 36.449-36.482 6.525 0 12.642 1.708 17.943 4.739 3.031 5.29 4.739 11.44 4.739 17.965z" class="Gi"/><g class="Ci Di Ei Fi"><path d="M434.306 299.938c0 20.115-16.312 36.449-36.449 36.449-6.525 0-12.653-1.708-17.943-4.739-11.055-6.227-18.516-18.109-18.516-31.709 0-20.148 16.312-36.482 36.449-36.482 13.612 0 25.46 7.473 31.72 18.516 3.031 5.29 4.739 11.44 4.739 17.965z" fill="none"/><path d="M159.668 453.238l-13.072 18.23 16.665 16.665 18.23-13.083c5.026 2.987 10.482 5.279 16.29 6.767l3.769 22.176h23.564l3.78-22.176a62.04 62.04 0 0 0 16.29-6.767l18.219 13.083 16.665-16.665-13.072-18.219c3.009-5.059 5.312-10.581 6.8-16.433l22.131-3.637v-23.564l-22.131-3.637c-1.477-5.808-3.747-11.286-6.734-16.312l13.006-18.329-16.665-16.665-18.34 13.006c-5.026-2.976-10.504-5.257-16.312-6.734l-3.637-22.131h-23.564l-3.637 22.142c-5.808 1.477-11.286 3.747-16.312 6.723l-18.34-13.006-16.665 16.665 13.006 18.34a62.06 62.06 0 0 0-6.701 16.18l-22.165 3.769v23.564l22.165 3.769c1.488 5.786 3.78 11.253 6.767 16.279z" fill="#fff"/></g><path d="M242.86 421.396c0 16.312-13.226 29.538-29.538 29.538-4.596 0-8.928-1.047-12.807-2.921l-.033-.033c-1.874-3.891-2.921-8.233-2.921-12.818 0-16.334 13.226-29.56 29.538-29.56 4.607 0 8.928 1.047 12.818 2.921 1.896 3.891 2.943 8.277 2.943 12.873z" class="Gi"/><path d="M242.86 421.396c0 16.312-13.226 29.538-29.538 29.538-4.596 0-8.928-1.047-12.807-2.921l-.033-.033c-9.864-4.761-16.698-14.879-16.698-26.595 0-16.334 13.226-29.56 29.538-29.56 11.716 0 21.823 6.8 26.595 16.698 1.896 3.891 2.943 8.277 2.943 12.873z" fill="none" class="Ci Di Ei Fi"/></svg>
