<?xml version="1.0" encoding="UTF-8" standalone="no"?>
<svg
   xmlns:dc="http://purl.org/dc/elements/1.1/"
   xmlns:cc="http://creativecommons.org/ns#"
   xmlns:rdf="http://www.w3.org/1999/02/22-rdf-syntax-ns#"
   xmlns:svg="http://www.w3.org/2000/svg"
   xmlns="http://www.w3.org/2000/svg"
   xml:space="preserve"
   style="enable-background:new 0 0 512 512;"
   viewBox="0 0 512 512"
   y="0px"
   x="0px"
   id="Layer_1"
   version="1.1"><metadata
   id="metadata51"><rdf:RDF><cc:Work
       rdf:about=""><dc:format>image/svg+xml</dc:format><dc:type
         rdf:resource="http://purl.org/dc/dcmitype/StillImage" /><dc:title></dc:title></cc:Work></rdf:RDF></metadata><defs
   id="defs49">
	
	
	
	
</defs>
<style
   id="style10"
   type="text/css">
	.st0{opacity:0.6;fill:#FBA919;}
	.st1{fill:none;stroke:#111342;stroke-width:12.7155;stroke-linecap:round;stroke-linejoin:round;stroke-miterlimit:10;}
	.st2{fill:#FBA919;}
</style>
<g
   transform="matrix(1.1021653,0,0,1.1021653,-26.002364,-26.159833)"
   id="g22">
		<g
   id="g16">
			<path
   class="st1"
   d="m 83.18,221.8 -21.8,30.39 27.78,27.78 30.39,-21.81 c 8.37,4.98 17.48,8.8 27.16,11.28 l 6.29,36.98 h 39.29 l 6.3,-36.96 c 9.67,-2.49 18.79,-6.31 27.16,-11.29 l 30.38,21.81 27.78,-27.78 -21.8,-30.38 c 5.02,-8.44 8.86,-17.64 11.35,-27.4 l 36.89,-6.06 V 149.07 L 273.45,143 c -2.46,-9.69 -6.26,-18.81 -11.22,-27.2 L 283.9,85.24 256.12,57.46 225.55,79.14 c -8.38,-4.96 -17.51,-8.76 -27.2,-11.23 L 192.29,31 H 153 l -6.06,36.91 c -9.68,2.46 -18.81,6.26 -27.19,11.22 L 89.16,57.45 61.38,85.22 83.06,115.79 c -4.93,8.32 -8.71,17.38 -11.17,26.98 l -36.95,6.28 v 39.29 l 36.95,6.28 c 2.49,9.7 6.31,18.81 11.29,27.18 z"
   id="path14" />
		</g>
		<path
   class="st2"
   d="m 221.89,168.7 c 0,27.2 -22.05,49.25 -49.25,49.25 -9.1,0 -17.62,-2.47 -24.95,-6.8 -4.32,-7.32 -6.8,-15.85 -6.8,-24.95 0,-27.2 22.05,-49.25 49.25,-49.25 9.1,0 17.62,2.47 24.95,6.8 4.33,7.32 6.8,15.85 6.8,24.95 z"
   id="path18" />
		<path
   class="st1"
   d="m 221.89,168.7 c 0,27.2 -22.05,49.25 -49.25,49.25 -9.1,0 -17.62,-2.47 -24.95,-6.8 -14.55,-8.55 -24.3,-24.35 -24.3,-42.45 0,-27.2 22.05,-49.25 49.25,-49.25 18.1,0 33.9,9.75 42.45,24.3 4.33,7.32 6.8,15.85 6.8,24.95 z"
   id="path20" />
	</g><g
   transform="matrix(1.1021653,0,0,1.1021653,-26.002364,-26.159833)"
   id="g32">
		<g
   id="g26">
			<path
   class="st1"
   d="m 324.48,331.52 -14.64,20.41 18.66,18.66 20.41,-14.65 c 5.62,3.35 11.74,5.91 18.24,7.57 l 4.23,24.83 h 26.39 L 402,363.51 c 6.5,-1.67 12.62,-4.23 18.24,-7.58 l 20.4,14.65 18.66,-18.66 -14.64,-20.4 c 3.37,-5.67 5.95,-11.85 7.62,-18.4 l 24.78,-4.07 v -26.39 l -24.78,-4.07 c -1.65,-6.51 -4.2,-12.64 -7.54,-18.27 l 14.56,-20.53 -18.66,-18.66 -20.53,14.56 c -5.63,-3.33 -11.76,-5.88 -18.27,-7.54 l -4.08,-24.79 h -26.39 l -4.07,24.79 c -6.5,1.65 -12.63,4.2 -18.26,7.53 l -20.54,-14.56 -18.66,18.65 14.56,20.53 c -3.31,5.59 -5.85,11.67 -7.5,18.12 l -24.82,4.22 v 26.39 l 24.82,4.22 c 1.67,6.53 4.24,12.65 7.58,18.27 z"
   id="path24" />
		</g>
		<path
   class="st2"
   d="m 417.64,295.87 c 0,18.25 -14.8,33.07 -33.07,33.07 -5.92,0 -11.48,-1.55 -16.28,-4.3 -2.75,-4.8 -4.3,-10.35 -4.3,-16.27 0,-18.28 14.8,-33.1 33.07,-33.1 5.92,0 11.47,1.55 16.28,4.3 2.75,4.8 4.3,10.38 4.3,16.3 z"
   id="path28" />
		<path
   class="st1"
   d="m 417.64,295.87 c 0,18.25 -14.8,33.07 -33.07,33.07 -5.92,0 -11.48,-1.55 -16.28,-4.3 -10.03,-5.65 -16.8,-16.43 -16.8,-28.77 0,-18.28 14.8,-33.1 33.07,-33.1 12.35,0 23.1,6.78 28.78,16.8 2.75,4.8 4.3,10.38 4.3,16.3 z"
   id="path30" />
	</g><g
   transform="matrix(1.1021653,0,0,1.1021653,-26.002364,-26.159833)"
   id="g42">
		<g
   id="g36">
			<path
   class="st1"
   d="m 168.46,434.96 -11.86,16.54 15.12,15.12 16.54,-11.87 c 4.56,2.71 9.51,4.79 14.78,6.14 l 3.42,20.12 h 21.38 l 3.43,-20.12 c 5.26,-1.35 10.22,-3.43 14.78,-6.14 l 16.53,11.87 15.12,-15.12 -11.86,-16.53 c 2.73,-4.59 4.82,-9.6 6.17,-14.91 l 20.08,-3.3 v -21.38 l -20.08,-3.3 c -1.34,-5.27 -3.4,-10.24 -6.11,-14.8 l 11.8,-16.63 -15.12,-15.12 -16.64,11.8 c -4.56,-2.7 -9.53,-4.77 -14.8,-6.11 l -3.3,-20.08 h -21.38 l -3.3,20.09 c -5.27,1.34 -10.24,3.4 -14.8,6.1 l -16.64,-11.8 -15.12,15.12 11.8,16.64 c -2.68,4.53 -4.74,9.46 -6.08,14.68 l -20.11,3.42 v 21.38 l 20.11,3.42 c 1.35,5.25 3.43,10.21 6.14,14.77 z"
   id="path34" />
		</g>
		<path
   class="st2"
   d="m 243.94,406.07 c 0,14.8 -12,26.8 -26.8,26.8 -4.17,0 -8.1,-0.95 -11.62,-2.65 0,0 0,0 -0.03,-0.03 -1.7,-3.53 -2.65,-7.47 -2.65,-11.63 0,-14.82 12,-26.82 26.8,-26.82 4.18,0 8.1,0.95 11.63,2.65 1.72,3.53 2.67,7.51 2.67,11.68 z"
   id="path38" />
		<path
   class="st1"
   d="m 243.94,406.07 c 0,14.8 -12,26.8 -26.8,26.8 -4.17,0 -8.1,-0.95 -11.62,-2.65 0,0 0,0 -0.03,-0.03 -8.95,-4.32 -15.15,-13.5 -15.15,-24.13 0,-14.82 12,-26.82 26.8,-26.82 10.63,0 19.8,6.17 24.13,15.15 1.72,3.53 2.67,7.51 2.67,11.68 z"
   id="path40" />
	</g>
</svg>
