<?xml version="1.0" encoding="UTF-8" standalone="no"?>
<!-- Created with Inkscape (http://www.inkscape.org/) -->

<svg
   xmlns:dc="http://purl.org/dc/elements/1.1/"
   xmlns:cc="http://creativecommons.org/ns#"
   xmlns:rdf="http://www.w3.org/1999/02/22-rdf-syntax-ns#"
   xmlns:svg="http://www.w3.org/2000/svg"
   xmlns="http://www.w3.org/2000/svg"
   xmlns:sodipodi="http://sodipodi.sourceforge.net/DTD/sodipodi-0.dtd"
   xmlns:inkscape="http://www.inkscape.org/namespaces/inkscape"
   id="svg2"
   version="1.1"
   inkscape:version="0.48.3.1 r9886"
   width="16"
   height="16"
   xml:space="preserve"
   sodipodi:docname="icon_commonCartridge.svg"><metadata
     id="metadata8"><rdf:RDF><cc:Work
         rdf:about=""><dc:format>image/svg+xml</dc:format><dc:type
           rdf:resource="http://purl.org/dc/dcmitype/StillImage" /><dc:title></dc:title></cc:Work></rdf:RDF></metadata><defs
     id="defs6"><clipPath
       clipPathUnits="userSpaceOnUse"
       id="clipPath20"><path
         d="M 0,50 50,50 50,0 0,0 0,50 z"
         id="path22"
         inkscape:connector-curvature="0" /></clipPath></defs><sodipodi:namedview
     pagecolor="#ffffff"
     bordercolor="#666666"
     borderopacity="1"
     objecttolerance="10"
     gridtolerance="10"
     guidetolerance="10"
     inkscape:pageopacity="0"
     inkscape:pageshadow="2"
     inkscape:window-width="1138"
     inkscape:window-height="746"
     id="namedview4"
     showgrid="false"
     inkscape:zoom="15"
     inkscape:cx="31.25"
     inkscape:cy="15.25"
     inkscape:window-x="2435"
     inkscape:window-y="133"
     inkscape:window-maximized="0"
     inkscape:current-layer="g10" /><g
     id="g10"
     inkscape:groupmode="layer"
     inkscape:label="icon_commonCartridge"
     transform="matrix(1.25,0,0,-1.25,0,16)"><g
       id="g12"
       transform="matrix(0,-0.2510933,0.2510933,0,12.41964,8.800076)"><path
         d="m 0,0 0,-1.931 -2.327,0 0,1.931 -6.089,0 0,-46.791 35.064,0 L 26.648,0 0,0 z"
         style="fill:#aaacae;fill-opacity:1;fill-rule:nonzero;stroke:none"
         id="path14"
         inkscape:connector-curvature="0" /></g><g
       id="g16"
       transform="matrix(0,-0.2510933,0.2510933,0,-0.09427826,11.871748)"><g
         id="g18"
         clip-path="url(#clipPath20)"><g
           id="g24"
           transform="translate(10.0684,47.4199)"><path
             d="m 0,0 0,1.932 -6.09,0 0,-46.791 35.065,0 0,46.791 -26.649,0 L 2.326,0 0,0 z"
             style="fill:none;stroke:#606163;stroke-width:1;stroke-linecap:butt;stroke-linejoin:miter;stroke-miterlimit:4;stroke-opacity:1;stroke-dasharray:none"
             id="path26"
             inkscape:connector-curvature="0" /></g><g
           id="g28"
           transform="translate(13.8828,9.4629)"><path
             d="m 0,0 c 0.678,-2.606 2.996,-4.541 5.783,-4.541 2.712,0 4.973,1.834 5.719,4.335 C 9.916,-1.25 7.988,-1.869 5.9,-1.869 3.678,-1.869 1.639,-1.168 0,0"
             style="fill:#d2d4d5;fill-opacity:1;fill-rule:nonzero;stroke:none"
             id="path30"
             inkscape:connector-curvature="0" /></g><g
           id="g32"
           transform="translate(13.8828,9.4629)"><path
             d="m 0,0 c 0.678,-2.606 2.996,-4.541 5.783,-4.541 2.712,0 4.973,1.834 5.719,4.335 C 9.916,-1.25 7.988,-1.869 5.9,-1.869 3.678,-1.869 1.639,-1.168 0,0 z"
             style="fill:none;stroke:#606163;stroke-width:0.25;stroke-linecap:butt;stroke-linejoin:miter;stroke-miterlimit:4;stroke-opacity:1;stroke-dasharray:none"
             id="path34"
             inkscape:connector-curvature="0" /></g><g
           id="g36"
           transform="translate(13.668,40.9141)"><path
             d="m 0,0 0,-17.273 c 1.67,1.261 3.797,2.021 6.115,2.021 2.214,0 4.248,-0.697 5.879,-1.857 l 0,17.109 c 0,3.356 -2.683,6.077 -5.996,6.077 C 2.687,6.077 0,3.356 0,0"
             style="fill:#f1f2f2;fill-opacity:1;fill-rule:nonzero;stroke:none"
             id="path38"
             inkscape:connector-curvature="0" /></g><g
           id="g40"
           transform="translate(13.668,40.9141)"><path
             d="m 0,0 0,-17.273 c 1.67,1.261 3.797,2.021 6.115,2.021 2.214,0 4.248,-0.697 5.879,-1.857 l 0,17.109 c 0,3.356 -2.683,6.077 -5.996,6.077 C 2.687,6.077 0,3.356 0,0 z"
             style="fill:none;stroke:#606163;stroke-width:0.25;stroke-linecap:butt;stroke-linejoin:miter;stroke-miterlimit:4;stroke-opacity:1;stroke-dasharray:none"
             id="path42"
             inkscape:connector-curvature="0" /></g><g
           id="g44"
           transform="translate(13.668,23.6406)"><path
             d="m 0,0 0,-12.642 c 0,-0.534 0.089,-1.042 0.215,-1.536 1.639,-1.168 3.678,-1.869 5.9,-1.869 2.088,0 4.016,0.619 5.602,1.663 0.164,0.554 0.277,1.132 0.277,1.742 l 0,12.806 C 10.363,1.324 8.329,2.021 6.115,2.021 3.797,2.021 1.67,1.262 0,0"
             style="fill:#373535;fill-opacity:1;fill-rule:nonzero;stroke:none"
             id="path46"
             inkscape:connector-curvature="0" /></g><g
           id="g48"
           transform="translate(19.7832,20.6279)"><path
             d="M 0,0 C 2.374,0 4.298,-1.791 4.298,-4.001 4.298,-6.209 2.374,-8 0,-8 -2.374,-8 -4.299,-6.209 -4.299,-4.001 -4.299,-1.791 -2.374,0 0,0"
             style="fill:#ffffff;fill-opacity:1;fill-rule:nonzero;stroke:none"
             id="path50"
             inkscape:connector-curvature="0" /></g><g
           id="g52"
           transform="translate(19.7832,18.873)"><path
             d="m 0,0 c 1.333,0 2.413,-1.004 2.413,-2.246 0,-1.24 -1.08,-2.244 -2.413,-2.244 -1.332,0 -2.415,1.004 -2.415,2.244 C -2.415,-1.004 -1.332,0 0,0"
             style="fill:#373535;fill-opacity:1;fill-rule:nonzero;stroke:none"
             id="path54"
             inkscape:connector-curvature="0" /></g><g
           id="g56"
           transform="translate(19.7832,39.2847)"><path
             d="m 0,0 c 2.374,0 4.298,-1.791 4.298,-4 0,-2.209 -1.924,-4 -4.298,-4 -2.374,0 -4.299,1.791 -4.299,4 0,2.209 1.925,4 4.299,4"
             style="fill:#ffffff;fill-opacity:1;fill-rule:nonzero;stroke:none"
             id="path58"
             inkscape:connector-curvature="0" /></g><g
           id="g60"
           transform="translate(19.7832,39.2847)"><path
             d="m 0,0 c 2.374,0 4.298,-1.791 4.298,-4 0,-2.209 -1.924,-4 -4.298,-4 -2.374,0 -4.299,1.791 -4.299,4 0,2.209 1.925,4 4.299,4 z"
             style="fill:none;stroke:#373535;stroke-width:0.5;stroke-linecap:butt;stroke-linejoin:miter;stroke-miterlimit:4;stroke-opacity:1;stroke-dasharray:none"
             id="path62"
             inkscape:connector-curvature="0" /></g><g
           id="g64"
           transform="translate(19.7832,37.5293)"><path
             d="m 0,0 c 1.333,0 2.413,-1.003 2.413,-2.244 0,-1.242 -1.08,-2.245 -2.413,-2.245 -1.332,0 -2.415,1.003 -2.415,2.245 C -2.415,-1.003 -1.332,0 0,0"
             style="fill:#373535;fill-opacity:1;fill-rule:nonzero;stroke:none"
             id="path66"
             inkscape:connector-curvature="0" /></g><g
           id="g68"
           transform="translate(34.8633,45.2334)"><path
             d="m 0,0 c 0.771,0 1.402,-0.629 1.402,-1.399 l 0,-35.944 c 0,-0.769 -0.631,-1.404 -1.402,-1.404 l -3.387,0 c -0.769,0 -1.399,0.635 -1.399,1.404 l 0,35.944 c 0,0.77 0.63,1.399 1.399,1.399 L 0,0 z"
             style="fill:#e7e8e9;fill-opacity:1;fill-rule:nonzero;stroke:none"
             id="path70"
             inkscape:connector-curvature="0" /></g></g></g></g></svg>