<?xml version="1.0" encoding="UTF-8"?>
<!DOCTYPE svg PUBLIC "-//W3C//DTD SVG 1.1//EN" "http://www.w3.org/Graphics/SVG/1.1/DTD/svg11.dtd">
<!-- Creator: CorelDRAW X7 -->
<svg xmlns="http://www.w3.org/2000/svg" xml:space="preserve" width="30px" height="30px" version="1.1" style="shape-rendering:geometricPrecision; text-rendering:geometricPrecision; image-rendering:optimizeQuality; fill-rule:evenodd; clip-rule:evenodd"
viewBox="0 0 1700 2000"
 xmlns:xlink="http://www.w3.org/1999/xlink"
 >
 <defs>
  <style type="text/css">
   <![CDATA[
    .str0 {stroke:#F19309;stroke-width:35.27}
    .fil0 {fill:none}
    .fil4 {fill:#FEFEFE}
    .fil5 {fill:#F19009}
    .fil2 {fill:url(#id0)}
    .fil1 {fill:url(#id1)}
    .fil3 {fill:url(#id2)}
   ]]>
  </style>
  <linearGradient id="id0" gradientUnits="userSpaceOnUse" x1="825.66" y1="1231.59" x2="848.35" y2="843.76">
   <stop offset="0" style="stop-opacity:1; stop-color:#FEFEFE"/>
   <stop offset="1" style="stop-opacity:1; stop-color:white"/>
  </linearGradient>
  <linearGradient id="id1" gradientUnits="userSpaceOnUse" x1="1068.18" y1="1404.83" x2="637.56" y2="649.21">
   <stop offset="0" style="stop-opacity:1; stop-color:#F19009"/>
   <stop offset="1" style="stop-opacity:1; stop-color:#FEE60F"/>
  </linearGradient>
  <linearGradient id="id2" gradientUnits="userSpaceOnUse" x1="147.26" y1="632.05" x2="455.42" y2="606.57">
   <stop offset="0" style="stop-opacity:1; stop-color:#FEFEFE"/>
   <stop offset="0.988235" style="stop-opacity:0.827451; stop-color:white"/>
   <stop offset="1" style="stop-opacity:1; stop-color:white"/>
  </linearGradient>
 </defs>
 <g id="Layer_x0020_1">
  <metadata id="CorelCorpID_0Corel-Layer"/>
  <path class="fil0" d="M604 747c60,-43 111,-118 210,-92 5,1 38,-18 76,-13 54,6 84,8 83,16"/>
  <path class="fil1" d="M505 1493l8 427 -401 -1 -4 -549 0 -653c17,-168 82,-301 197,-402 136,-119 328,-179 576,-181 240,-1 417,52 532,158 116,107 174,272 176,497l9 1126 -374 2 -25 -436c0,-8 -461,-20 -694,12z"/>
  <g id="_1060285920">
   <path class="fil0" d="M828 933c60,-42 111,-118 210,-92 5,1 38,-17 76,-13 54,6 84,8 84,16"/>
   <path class="fil2 str0" d="M1202 1530c-79,77 -115,98 -252,118 -172,25 -317,-35 -434,-123 -117,-88 -190,-225 -219,-410 -30,-192 -2,-349 84,-469 85,-122 209,-194 372,-218 158,-23 294,10 410,100 116,89 189,228 218,417 2,11 5,29 7,52l-880 128c28,124 79,215 155,272 76,57 164,78 262,64 73,-11 228,-51 274,-96m-704 -400l658 -96c-24,-96 -60,-164 -109,-206 -75,-65 -164,-91 -265,-76 -92,13 -164,54 -217,123 -53,69 -76,154 -67,255z"/>
  </g>
  <path class="fil0" d="M760 496c61,-43 112,-118 211,-93 5,2 38,-17 76,-12 54,6 84,8 83,16"/>
  <g id="_1060285088">
   <path class="fil3" d="M434 351c-155,86 -301,548 -250,536 -48,15 9,-426 250,-536z"/>
  </g>
  <path class="fil0" d="M434 351c-174,60 -307,555 -250,536"/>
  <g id="_1060282784">
   <g>
    <path class="fil4" d="M1874 1171c69,-45 130,-60 208,-42 0,0 16,4 12,7 -2,-1 -2,-1 -4,-1 -81,-10 -139,7 -205,55 -5,3 -12,2 -15,-3 -3,-6 -1,-12 4,-16z"/>
   </g>
   <path class="fil0" d="M1880 1181c34,-22 64,-60 121,-47 3,1 22,-8 44,-6 32,3 49,4 49,8"/>
   <g>
    <path class="fil4" d="M5363 992c-32,56 -71,89 -132,103 0,0 -13,3 -11,-1 1,0 1,0 3,0 61,-22 96,-54 126,-112 3,-4 8,-5 12,-3 4,3 5,8 2,13z"/>
   </g>
   <path class="fil0" d="M5356 987c-17,27 -25,65 -70,76 -2,0 -13,14 -29,20 -23,9 -36,14 -37,11"/>
  </g>
  <rect class="fil5" x="1173" y="1385" width="93.93" height="532.14"/>
 </g>
</svg>
