<?xml version="1.0" encoding="UTF-8"?><svg xmlns="http://www.w3.org/2000/svg" viewBox="0 0 512 512"><g transform="matrix(1.044745 0 0 1.044745 -.410365 -11.130041)"><g stroke="#111342" stroke-linejoin="round" stroke-miterlimit="10"><path d="M8.885 29.741h473.088v451.887H8.885z" fill="none" stroke-width="15.07"/><path d="M367.544 435.998l39.095-38.912c12.013-11.955 12.652-32.026 1.434-44.82l-9.502-10.835c14.703-14.933 15.414-39.722 1.507-55.565l-1.695-1.939 4.207-4.188c18.585-18.502 19.579-49.548 2.208-69.349l-.764-.87 7.409-7.367c19.119-19.021 20.196-50.897 2.491-71.358l8.895-8.966c10.642-10.715 11.113-28.597 1.046-39.932l-4.154-4.678c-10.067-11.335-26.852-11.835-37.494-1.11l-24.361 24.539c-18.114-19.681-47.749-20.361-66.627-1.349l-7.367 7.417-.774-.87c-17.476-19.691-46.64-20.551-65.12-1.939l-4.186 4.208-1.706-1.919c-13.991-15.763-37.264-16.543-52.165-1.829l-9.565-10.775c-11.302-12.724-30.138-13.284-42.088-1.249L69.39 131.505c-11.95 12.035-12.474 32.106-1.172 44.83l10.768 12.125c-7.587 14.653-5.829 33.425 5.536 46.239l1.789 2.019c-16.325 18.792-16.387 48.108.366 66.98l.774.87-1.549 1.559c-18.878 19.011-19.893 50.577-2.459 70.928l-14.336 14.434c-10.642 10.715-11.113 28.597-1.046 39.932l4.154 4.678c10.067 11.335 26.852 11.835 37.494 1.11l29.824-30.036c18.093 18.522 46.839 18.931 65.403.47l1.559-1.549.764.87c16.649 18.981 44.129 20.721 62.745 4.538l1.779 2.029c11.302 12.884 28.788 15.903 42.988 8.746l10.695 12.195c11.228 12.804 30.064 13.484 42.078 1.529z" fill="#fff" stroke-width="15.421"/></g><path d="M346.437 194.677L204.696 357.724l-59.637-62.802 25.638-27.328 37.065 39.492 122.12-130.071z" fill="#2dbce9"/><path d="M204.696 357.724l-59.637-62.802-14.514-15.273 38.091-40.602 37.065 39.502 122.12-130.071 30.504 32.515-11.888 13.684z" fill="none" stroke="#111342" stroke-linejoin="round" stroke-miterlimit="10" stroke-width="15.421"/></g></svg>
