<?xml version="1.0" encoding="UTF-8" standalone="no"?>
<svg class="scratchie"
   xmlns:dc="http://purl.org/dc/elements/1.1/"
   xmlns:cc="http://creativecommons.org/ns#"
   xmlns:rdf="http://www.w3.org/1999/02/22-rdf-syntax-ns#"
   xmlns:svg="http://www.w3.org/2000/svg"
   xmlns="http://www.w3.org/2000/svg"
   xml:space="preserve"
   style="enable-background:new 0 0 512 512;"
   viewBox="0 0 512 512"
   
   
   
   version="1.1"><metadata
   id="metadata31"><rdf:RDF><cc:Work
       rdf:about=""><dc:format>image/svg+xml</dc:format><dc:type
         rdf:resource="http://purl.org/dc/dcmitype/StillImage" /><dc:title></dc:title></cc:Work></rdf:RDF></metadata><defs
   id="defs29">
	
	
	
</defs>
<style
   id="style10"
   type="text/css">
	svg.scratchie .st0{opacity:0.6;fill:#B783B9;}
	svg.scratchie .st1{fill:none;stroke:#111342;stroke-width:15.0697;stroke-linecap:round;stroke-linejoin:round;stroke-miterlimit:10;}
	svg.scratchie .st2{fill:#B783B9;}
</style>
<g
   transform="matrix(1.0447452,0,0,1.0447452,-0.41036457,-11.130041)"
   id="g78"><rect
     id="rect14"
     height="451.88657"
     width="473.08759"
     class="st1"
     y="29.741261"
     x="8.8848104" /><g
     id="g22"
     transform="matrix(1.0464456,0,0,0.99954999,-12.096423,0.18456674)">
		<path
   id="path16"
   d="m 362.79,436.01 37.36,-38.93 c 11.48,-11.96 12.09,-32.04 1.37,-44.84 l -9.08,-10.84 c 14.05,-14.94 14.73,-39.74 1.44,-55.59 l -1.62,-1.94 4.02,-4.19 c 17.76,-18.51 18.71,-49.57 2.11,-69.38 l -0.73,-0.87 7.08,-7.37 c 18.27,-19.03 19.3,-50.92 2.38,-71.39 l 8.5,-8.97 c 10.17,-10.72 10.62,-28.61 1,-39.95 l -3.97,-4.68 C 403.03,65.73 386.99,65.23 376.82,75.96 l -23.28,24.55 C 336.23,80.82 307.91,80.14 289.87,99.16 l -7.04,7.42 -0.74,-0.87 c -16.7,-19.7 -44.57,-20.56 -62.23,-1.94 l -4,4.21 -1.63,-1.92 C 200.86,90.29 178.62,89.51 164.38,104.23 L 155.24,93.45 C 144.44,80.72 126.44,80.16 115.02,92.2 l -37.15,39.18 c -11.42,12.04 -11.92,32.12 -1.12,44.85 l 10.29,12.13 c -7.25,14.66 -5.57,33.44 5.29,46.26 l 1.71,2.02 c -15.6,18.8 -15.66,48.13 0.35,67.01 l 0.74,0.87 -1.48,1.56 c -18.04,19.02 -19.01,50.6 -2.35,70.96 l -13.7,14.44 c -10.17,10.72 -10.62,28.61 -1,39.95 l 3.97,4.68 c 9.62,11.34 25.66,11.84 35.83,1.11 l 28.5,-30.05 c 17.29,18.53 44.76,18.94 62.5,0.47 l 1.49,-1.55 0.73,0.87 c 15.91,18.99 42.17,20.73 59.96,4.54 l 1.7,2.03 c 10.8,12.89 27.51,15.91 41.08,8.75 l 10.22,12.2 c 10.73,12.81 28.73,13.49 40.21,1.53 z"
   class="st1" />
		<polygon
   id="polygon18"
   points="210.1,307.04 326.8,176.91 342.62,194.58 207.17,357.7 150.18,294.87 174.68,267.53 "
   class="st2" />
		<polygon
   id="polygon20"
   points="207.17,357.7 150.18,294.87 136.31,279.59 172.71,238.97 208.13,278.49 324.83,148.36 353.98,180.89 342.62,194.58 "
   class="st1" />
	</g></g>
</svg>
