<?xml version="1.0" encoding="UTF-8" standalone="no"?>
<!-- Created with Inkscape (http://www.inkscape.org/) -->

<svg
   xmlns:dc="http://purl.org/dc/elements/1.1/"
   xmlns:cc="http://creativecommons.org/ns#"
   xmlns:rdf="http://www.w3.org/1999/02/22-rdf-syntax-ns#"
   xmlns:svg="http://www.w3.org/2000/svg"
   xmlns="http://www.w3.org/2000/svg"
   version="1.1"
   width="16"
   height="16"
   id="svg2"
   xml:space="preserve"><metadata
     id="metadata8"><rdf:RDF><cc:Work
         rdf:about=""><dc:format>image/svg+xml</dc:format><dc:type
           rdf:resource="http://purl.org/dc/dcmitype/StillImage" /><dc:title></dc:title></cc:Work></rdf:RDF></metadata><defs
     id="defs6"><clipPath
       id="clipPath18"><path
         d="m 0,30.601 31.59,0 L 31.59,0 0,0 0,30.601 z"
         id="path20" /></clipPath><clipPath
       id="clipPath76"><path
         d="m 22.021,22.611 -8.644,-9.466 c -0.173,-0.191 -0.455,-0.191 -0.629,0 l 0,0 -2.548,2.826 c -0.171,0.185 -0.456,0.185 -0.629,0 l 0,0 -1.882,-2.093 c -0.172,-0.194 -0.172,-0.502 0,-0.693 l 0,0 5.061,-5.604 c 0.174,-0.193 0.454,-0.193 0.628,0 l 0,0 11.154,12.25 c 0.173,0.192 0.173,0.504 0,0.696 l 0,0 -1.885,2.084 c -0.086,0.096 -0.2,0.143 -0.313,0.143 l 0,0 c -0.114,0 -0.227,-0.047 -0.313,-0.143"
         id="path78" /></clipPath><radialGradient
       cx="0"
       cy="0"
       r="1"
       fx="0"
       fy="0"
       id="radialGradient84"
       gradientUnits="userSpaceOnUse"
       gradientTransform="matrix(7.7780514,0,0,-8.6112423,16.110352,15.095703)"
       spreadMethod="pad"><stop
         id="stop86"
         style="stop-color:#ffffff;stop-opacity:1"
         offset="0" /><stop
         id="stop88"
         style="stop-color:#abd046;stop-opacity:1"
         offset="0.85276097" /><stop
         id="stop90"
         style="stop-color:#abd046;stop-opacity:1"
         offset="1" /></radialGradient><clipPath
       id="clipPath98"><path
         d="m 0,30.601 31.59,0 L 31.59,0 0,0 0,30.601 z"
         id="path100" /></clipPath></defs><g
     transform="matrix(0.65677966,0,0,-0.65677966,0.11864404,16.021696)"
     id="g10"><path
       d="m 23.089237,2.0227642 -22.0141209,0 0,20.5747058 22.0141209,0 0,-20.5747058 z"
       id="path12"
       style="fill:#96989b;fill-opacity:1;fill-rule:nonzero;stroke:none" /><g
       transform="matrix(0.81322945,0,0,0.81322945,-1.0197629,0.03441814)"
       id="g14"><g
         clip-path="url(#clipPath18)"
         id="g16"><path
           d="m 29.646,2.445 -27.07,0 0,25.3 27.07,0 0,-25.3 z"
           id="path22"
           style="fill:none;stroke:#96989b;stroke-width:1.74800003;stroke-linecap:butt;stroke-linejoin:miter;stroke-miterlimit:4;stroke-opacity:1;stroke-dasharray:none" /><g
           transform="translate(6.7339,20.3159)"
           id="g24"><path
             d="m 0,0 c 0.156,0.241 0.146,0.24 -0.032,-0.004 0.071,0.085 0.564,0.491 0.09,0.135 0.322,0.242 0.688,0.427 1.043,0.615 0.801,0.424 1.54,0.878 2.22,1.489 1.014,0.911 0.925,2.611 0,3.536 -1.002,1.001 -2.523,0.909 -3.535,0 C -0.716,5.32 0.204,6.038 -0.353,5.663 -0.522,5.548 -0.703,5.451 -0.881,5.351 -1.237,5.152 -1.603,4.972 -1.958,4.771 -2.927,4.227 -3.738,3.473 -4.317,2.523 -5.028,1.359 -4.579,-0.219 -3.42,-0.897 -2.228,-1.596 -0.709,-1.161 0,0"
             id="path26"
             style="fill:#f1f2f2;fill-opacity:1;fill-rule:nonzero;stroke:none" /></g><g
           transform="translate(6.2935,15.9131)"
           id="g28"><path
             d="M 0,0 C 3.892,2.17 8.728,2.57 10.891,7.03 12.292,9.917 7.981,12.454 6.574,9.553 4.996,6.299 0.375,5.933 -2.523,4.317 -5.339,2.748 -2.819,-1.571 0,0"
             id="path30"
             style="fill:#f1f2f2;fill-opacity:1;fill-rule:nonzero;stroke:none" /></g><g
           transform="translate(12.8447,21.1152)"
           id="g32"><path
             d="M 0,0 C 0.1,0.193 0.208,0.378 0.325,0.561 0.48,0.781 0.451,0.747 0.237,0.459 0.34,0.586 0.459,0.697 0.58,0.808 c 1.007,0.918 0.93,2.605 0,3.535 -0.997,0.996 -2.53,0.917 -3.536,0 C -3.512,3.836 -3.971,3.191 -4.317,2.523 -4.945,1.314 -4.639,-0.183 -3.42,-0.897 -2.29,-1.559 -0.627,-1.208 0,0"
             id="path34"
             style="fill:#f1f2f2;fill-opacity:1;fill-rule:nonzero;stroke:none" /></g><g
           transform="translate(5.8369,12.1104)"
           id="g36"><path
             d="m 0,0 c 5.42,2.351 11.116,4.811 15.183,9.242 2.175,2.37 -1.351,5.915 -3.536,3.535 C 7.895,8.689 2.479,6.487 -2.523,4.317 -5.475,3.037 -2.926,-1.27 0,0"
             id="path38"
             style="fill:#f1f2f2;fill-opacity:1;fill-rule:nonzero;stroke:none" /></g><g
           transform="translate(7.3218,8.7969)"
           id="g40"><path
             d="m 0,0 c 3.458,1.515 7.339,1.615 10.495,3.805 3.306,2.295 4.21,6.623 7.144,9.321 2.379,2.186 -1.167,5.713 -3.535,3.535 C 11.511,14.278 10.484,11.036 8.259,8.442 6.892,6.848 4.571,6.6 2.657,6.175 0.793,5.762 -0.794,5.074 -2.523,4.316 -5.471,3.025 -2.923,-1.281 0,0"
             id="path42"
             style="fill:#f1f2f2;fill-opacity:1;fill-rule:nonzero;stroke:none" /></g><g
           transform="translate(9.98,5.46)"
           id="g44"><path
             d="M 0,0 C 2.155,0.849 4.178,1.918 6.194,3.051 9.004,4.63 6.485,8.949 3.67,7.367 2.043,6.453 0.411,5.507 -1.329,4.822 -2.596,4.323 -3.466,3.166 -3.075,1.746 -2.743,0.538 -1.27,-0.499 0,0"
             id="path46"
             style="fill:#f1f2f2;fill-opacity:1;fill-rule:nonzero;stroke:none" /></g><g
           transform="translate(24.3799,22.6987)"
           id="g48"><path
             d="m 0,0 c -0.64,-2.405 -3.22,-5.519 -5.559,-6.387 -2.867,-1.065 -5.306,-2.008 -6.982,-4.723 -1.698,-2.752 2.628,-5.261 4.317,-2.523 1.571,2.544 5.392,2.429 7.584,4.371 2.249,1.991 4.68,4.996 5.462,7.933 C 5.652,1.791 0.829,3.113 0,0"
             id="path50"
             style="fill:#f1f2f2;fill-opacity:1;fill-rule:nonzero;stroke:none" /></g><g
           transform="translate(13.7749,3.8281)"
           id="g52"><path
             d="m 0,0 c 1.196,0.887 2.561,1.36 3.895,1.996 1.641,0.781 3.222,2.068 4.729,3.087 1.394,0.941 3.076,1.521 4.299,2.714 1.389,1.354 2.343,2.984 3.336,4.636 1.668,2.77 -2.657,5.281 -4.316,2.523 C 11.151,13.642 10.452,12.139 9.193,11.202 7.989,10.307 6.553,9.706 5.306,8.863 2.807,7.175 -0.14,6.085 -2.523,4.316 -5.082,2.419 -2.593,-1.924 0,0"
             id="path54"
             style="fill:#f1f2f2;fill-opacity:1;fill-rule:nonzero;stroke:none" /></g><g
           transform="translate(19.0859,3.1426)"
           id="g56"><path
             d="M 0,0 C 1.707,1.062 3.752,1.331 5.48,2.361 7.363,3.482 8.804,5.375 10.329,6.901 12.61,9.184 9.075,12.719 6.794,10.437 5.503,9.146 4.271,7.863 2.908,6.642 2.258,6.06 1.035,5.881 0.23,5.605 -0.731,5.275 -1.661,4.854 -2.523,4.316 -5.253,2.617 -2.745,-1.71 0,0"
             id="path58"
             style="fill:#f1f2f2;fill-opacity:1;fill-rule:nonzero;stroke:none" /></g><g
           transform="translate(23.707,2.4014)"
           id="g60"><path
             d="m 0,0 c 1.347,-0.054 2.379,0.599 3.366,1.433 0.072,0.061 0.61,0.465 0.126,0.117 0.2,0.144 0.417,0.274 0.628,0.405 0.61,0.378 1.217,0.749 1.702,1.29 0.909,1.013 1.002,2.533 0,3.535 C 4.898,7.705 3.197,7.795 2.287,6.78 2.063,6.566 2.044,6.526 2.233,6.661 2.098,6.57 1.958,6.483 1.816,6.401 1.472,6.196 1.131,5.984 0.806,5.749 0.412,5.465 0.045,5.149 -0.325,4.837 -0.082,5.018 -0.074,5.031 -0.304,4.879 -0.176,4.96 0.54,4.979 0,5 -1.362,5.054 -2.5,3.822 -2.5,2.5 -2.5,1.097 -1.361,0.054 0,0"
             id="path62"
             style="fill:#f1f2f2;fill-opacity:1;fill-rule:nonzero;stroke:none" /></g><g
           transform="translate(4.4639,11.3701)"
           id="g64"><path
             d="m 0,0 c -0.126,-0.118 -0.502,-0.408 0.096,0.044 -0.151,-0.113 -0.315,-0.205 -0.481,-0.292 0.615,0.321 0.242,0.102 0.045,0.043 -0.265,-0.058 -0.197,-0.056 0.205,0.004 -0.109,-0.012 -0.219,-0.018 -0.329,-0.018 -1.362,-0.036 -2.5,-1.109 -2.5,-2.5 0,-1.335 1.137,-2.536 2.5,-2.5 1.539,0.041 2.885,0.632 3.999,1.684 0.991,0.934 0.943,2.593 0,3.535 C 2.551,0.984 0.99,0.935 0,0"
             id="path66"
             style="fill:#f1f2f2;fill-opacity:1;fill-rule:nonzero;stroke:none" /></g><g
           transform="translate(6.9282,8.5049)"
           id="g68"><path
             d="m 0,0 c -0.061,-0.131 -0.127,-0.251 -0.206,-0.372 0.362,0.56 0.152,0.208 0.003,0.063 -0.384,-0.373 0.474,0.321 0.03,0.029 -0.083,-0.053 -0.168,-0.101 -0.255,-0.145 0.382,0.149 0.451,0.178 0.209,0.089 -1.28,-0.465 -2.13,-1.683 -1.746,-3.076 0.34,-1.234 1.793,-2.211 3.075,-1.746 1.309,0.475 2.602,1.326 3.207,2.635 C 4.889,-1.286 4.679,0.16 3.42,0.896 2.331,1.535 0.572,1.237 0,0"
             id="path70"
             style="fill:#f1f2f2;fill-opacity:1;fill-rule:nonzero;stroke:none" /></g></g></g><g
       transform="matrix(0.81322945,0,0,0.81322945,-1.0197629,0.03441814)"
       id="g72"><g
         clip-path="url(#clipPath76)"
         id="g74"><g
           id="g80"><g
             id="g82"><path
               d="m 22.021,22.611 -8.644,-9.466 c -0.173,-0.191 -0.455,-0.191 -0.629,0 l 0,0 -2.548,2.826 c -0.171,0.185 -0.456,0.185 -0.629,0 l 0,0 -1.882,-2.093 c -0.172,-0.194 -0.172,-0.502 0,-0.693 l 0,0 5.061,-5.604 c 0.174,-0.193 0.454,-0.193 0.628,0 l 0,0 11.154,12.25 c 0.173,0.192 0.173,0.504 0,0.696 l 0,0 -1.885,2.084 c -0.086,0.096 -0.2,0.143 -0.313,0.143 l 0,0 c -0.114,0 -0.227,-0.047 -0.313,-0.143"
               id="path92"
               style="fill:url(#radialGradient84);stroke:none" /></g></g></g></g><g
       transform="matrix(0.81322945,0,0,0.81322945,-1.0197629,0.03441814)"
       id="g94"><g
         clip-path="url(#clipPath98)"
         id="g96"><g
           transform="translate(24.5322,19.8311)"
           id="g102"><path
             d="M 0,0 C 0.173,0.192 0.173,0.504 0,0.696 L -1.886,2.78 c -0.172,0.192 -0.454,0.192 -0.625,0 l -8.644,-9.466 c -0.173,-0.191 -0.455,-0.191 -0.63,0 l -2.548,2.825 c -0.17,0.186 -0.455,0.186 -0.629,0 l -1.881,-2.092 c -0.173,-0.193 -0.173,-0.502 0,-0.693 l 5.061,-5.604 c 0.174,-0.193 0.454,-0.193 0.628,0 L 0,0 z"
             id="path104"
             style="fill:none;stroke:#47b754;stroke-width:1.74800003;stroke-linecap:butt;stroke-linejoin:miter;stroke-miterlimit:4;stroke-opacity:1;stroke-dasharray:none" /></g></g></g></g></svg>