<?xml version="1.0" encoding="UTF-8"?><svg class="leaderselection" xmlns="http://www.w3.org/2000/svg" viewBox="0 0 512 512"><style><![CDATA[svg.leaderselection .B{stroke:#111342}svg.leaderselection .C{stroke-linejoin:round}svg.leaderselection .D{stroke-miterlimit:10}svg.leaderselection .Ex{fill:#fff}svg.leaderselection .F{stroke-width:17.419}svg.leaderselection .G{stroke-linecap:round}]]></style><path d="M247.977 460.442V340.235l119.88-55.313h39.285L407 497l-101 2-34-36z" stroke="#000" class="Ex"/><g fill="none" class="B C D G"><path d="M247.977 460.442h13.945c5.09 0 9.966 2.048 13.529 5.689l23.368 23.88c4.22 4.317 10.003 6.747 16.042 6.747h79.148" class="F"/><path d="M16.869 311.907h221.969a2.29 2.29 0 0 1 2.294 2.284v175.454a2.29 2.29 0 0 1-2.294 2.284H16.869" stroke-width="15.738"/></g><g stroke-width="16.518" class="Ex B C D"><path d="M450.073 375.683h-47.919c-12.486 0-22.608-9.068-22.608-20.254h0c0-11.186 10.121-20.254 22.608-20.254h47.919c12.486 0 22.607 9.068 22.607 20.254h0c0 11.186-10.121 20.254-22.607 20.254zm0 81.018h-47.919c-12.486 0-22.608-9.068-22.608-20.254h0c0-11.186 10.121-20.254 22.608-20.254h47.919c12.486 0 22.607 9.068 22.607 20.254h0c0 11.185-10.121 20.254-22.607 20.254z"/><path d="M433.443 497.21h-31.289c-12.486 0-22.608-9.068-22.608-20.255h0c0-11.186 10.121-20.254 22.608-20.254h31.289c12.486 0 22.607 9.068 22.607 20.254h0c.001 11.186-10.121 20.255-22.607 20.255zm30.278-81.018h-61.567c-12.486 0-22.608-9.068-22.608-20.254h0c0-11.186 10.121-20.254 22.608-20.254h61.567c12.486 0 22.607 9.068 22.607 20.254h0c.001 11.186-10.121 20.254-22.607 20.254z"/></g><path d="M305.056 368.669c0 25.483-20.658 46.142-46.142 46.142m-10.937-74.576l119.88-55.313h39.285" fill="none" class="F G B C D"/><path d="M151.297 241.734l31.61-84.915-31.957-75.196h134.354v160.111h-31.612z" class="B C D Ex F"/><path d="M179.806 99.67h97.187v133.265h-24.156-72.766l24.153-70.678z" fill="#1ad9b2"/><g class="B C D"><path d="M285.304 58.549h210.987v169.467H285.304z" class="Ex F"/><path d="M451.756 228.54v93.532z" fill="none" stroke-width="17.936"/></g><path d="M294.04 77.215h193.475v141.805H294.04z" fill="#1ad9b2"/><g class="B C D"><path d="M405.275 228.569v93.908z" fill="none" stroke-width="17.972"/><path d="M398.57 58.549V14.676h56.63v43.873" stroke-width="16.353" class="Ex G"/></g><path d="M414.107 236.218h28.744v90.755h-28.744z" class="Ex"/></svg>
