<?xml version="1.0" encoding="UTF-8" standalone="no"?>
<svg
   xmlns:dc="http://purl.org/dc/elements/1.1/"
   xmlns:cc="http://creativecommons.org/ns#"
   xmlns:rdf="http://www.w3.org/1999/02/22-rdf-syntax-ns#"
   xmlns:svg="http://www.w3.org/2000/svg"
   xmlns="http://www.w3.org/2000/svg"
   id="svg40"
   xml:space="preserve"
   style="enable-background:new 0 0 512 512;"
   viewBox="0 0 512 512"
   y="0px"
   x="0px"
   version="1.1"><metadata
   id="metadata46"><rdf:RDF><cc:Work
       rdf:about=""><dc:format>image/svg+xml</dc:format><dc:type
         rdf:resource="http://purl.org/dc/dcmitype/StillImage" /><dc:title></dc:title></cc:Work></rdf:RDF></metadata><defs
   id="defs44">
	

		
		
		
		
		
			
		
			
		
			
		
			
		
			
		
			
	</defs>

<g
   transform="matrix(1.1210507,0,0,1.1210507,-0.12105067,-26.010471)"
   id="g156"><polygon
     style="fill:#b783b9"
     points="241.833,236.049 179.314,236.049 200.066,177.633 179.086,125.904 262.587,125.904 262.587,236.049 "
     id="polygon12"
     transform="matrix(1.1270084,0,0,1.1270084,-35.981147,-29.785603)" /><rect
     x="265.95792"
     y="92.078941"
     style="fill:#b783b9;stroke-width:1.12701"
     width="187.38318"
     height="129.23743"
     id="rect14" /><g
     id="XMLID_10_"
     transform="matrix(1.1270084,0,0,1.1270084,-35.981147,-29.785603)">
			
				<path
   id="XMLID_27_"
   style="fill:none;stroke:#111342;stroke-width:13.7869;stroke-linecap:round;stroke-linejoin:round;stroke-miterlimit:10"
   d="m 233.043,411.453 h 11.037 c 4.029,0 7.888,1.621 10.708,4.503 l 18.496,18.901 c 3.34,3.417 7.917,5.34 12.697,5.34 h 41.947 20.698" />
			
				<path
   id="XMLID_26_"
   style="fill:none;stroke:#111342;stroke-width:13.7869;stroke-linecap:round;stroke-linejoin:round;stroke-miterlimit:10"
   d="m 39.707,277.141 h 194.03 c 1.107,0 2.005,0.897 2.005,2.005 v 154.046 c 0,1.107 -0.898,2.005 -2.005,2.005 H 39.707" />
			
				<path
   id="XMLID_25_"
   style="fill:none;stroke:#111342;stroke-width:13.7869;stroke-linecap:round;stroke-linejoin:round;stroke-miterlimit:10"
   d="m 392.698,333.035 h -37.857 c -9.864,0 -17.861,-7.996 -17.861,-17.86 v 0 c 0,-9.864 7.996,-17.86 17.861,-17.86 h 37.857 c 9.864,0 17.86,7.996 17.86,17.86 v 0 c 0,9.864 -7.996,17.86 -17.86,17.86 z" />
			
				<path
   id="XMLID_24_"
   style="fill:none;stroke:#111342;stroke-width:13.7869;stroke-linecap:round;stroke-linejoin:round;stroke-miterlimit:10"
   d="m 392.698,404.477 h -37.857 c -9.864,0 -17.861,-7.996 -17.861,-17.86 v 0 c 0,-9.864 7.996,-17.86 17.861,-17.86 h 37.857 c 9.864,0 17.86,7.996 17.86,17.86 v 0 c 0,9.863 -7.996,17.86 -17.86,17.86 z" />
			
				<path
   id="XMLID_23_"
   style="fill:none;stroke:#111342;stroke-width:13.7869;stroke-linecap:round;stroke-linejoin:round;stroke-miterlimit:10"
   d="m 379.56,440.198 h -24.719 c -9.864,0 -17.861,-7.996 -17.861,-17.861 v 0 c 0,-9.864 7.996,-17.86 17.861,-17.86 h 24.719 c 9.864,0 17.86,7.996 17.86,17.86 v 0 c 10e-4,9.864 -7.996,17.861 -17.86,17.861 z" />
			
				<path
   id="XMLID_20_"
   style="fill:none;stroke:#111342;stroke-width:13.7869;stroke-linecap:round;stroke-linejoin:round;stroke-miterlimit:10"
   d="m 403.48,368.756 h -48.639 c -9.864,0 -17.861,-7.996 -17.861,-17.86 v 0 c 0,-9.864 7.996,-17.86 17.861,-17.86 h 48.639 c 9.864,0 17.86,7.996 17.86,17.86 v 0 c 0.001,9.864 -7.996,17.86 -17.86,17.86 z" />
			
				<path
   id="XMLID_11_"
   style="fill:none;stroke:#111342;stroke-width:13.7869;stroke-linecap:round;stroke-linejoin:round;stroke-miterlimit:10"
   d="m 278.221,335.649 c 0,20.17 -16.351,36.521 -36.521,36.521" />
		</g><polyline
     style="fill:none;stroke:#111342;stroke-width:13.7869;stroke-linecap:round;stroke-linejoin:round;stroke-miterlimit:10"
     points="    233.043,297.314 327.927,253.534 359.021,253.534   "
     id="polyline24"
     transform="matrix(1.1270084,0,0,1.1270084,-35.981147,-29.785603)" /><polygon
     style="fill:none;stroke:#111342;stroke-width:13.7869;stroke-linecap:round;stroke-linejoin:round;stroke-miterlimit:10"
     points="237.566,238.347 156.522,238.347 181.541,171.137 156.247,111.62 262.587,111.62 262.587,238.347 "
     id="polygon26"
     transform="matrix(1.1270084,0,0,1.1270084,-35.981147,-29.785603)" /><line
     style="fill:none;stroke:#111342;stroke-width:15.538;stroke-linecap:round;stroke-linejoin:round;stroke-miterlimit:10"
     x1="408.43546"
     y1="226.59641"
     x2="408.43546"
     y2="305.28976"
     id="line28" /><line
     style="fill:none;stroke:#111342;stroke-width:15.538;stroke-linecap:round;stroke-linejoin:round;stroke-miterlimit:10"
     x1="366.97394"
     y1="226.59641"
     x2="366.97394"
     y2="305.28976"
     id="line30" /><polyline
     style="fill:none;stroke:#111342;stroke-width:12.9425;stroke-linecap:round;stroke-linejoin:round;stroke-miterlimit:10"
     points="    352.237,93.357 352.237,58.632 397.059,58.632 397.059,93.357   "
     id="polyline32"
     transform="matrix(1.1270084,0,0,1.1270084,-35.981147,-29.785603)" /><rect
     x="259.9566"
     y="75.42852"
     style="fill:none;stroke:#111342;stroke-width:15.538;stroke-linecap:round;stroke-linejoin:round;stroke-miterlimit:10"
     width="188.20476"
     height="151.16789"
     id="rect34" /><g
     id="Layer_1"
     transform="matrix(1.1270084,0,0,1.1270084,-35.981147,-29.785603)">
</g></g>
</svg>
