<?xml version="1.0" encoding="UTF-8" standalone="no"?>
<!-- Created with Inkscape (http://www.inkscape.org/) -->

<svg
   xmlns:dc="http://purl.org/dc/elements/1.1/"
   xmlns:cc="http://creativecommons.org/ns#"
   xmlns:rdf="http://www.w3.org/1999/02/22-rdf-syntax-ns#"
   xmlns:svg="http://www.w3.org/2000/svg"
   xmlns="http://www.w3.org/2000/svg"
   version="1.1"
   width="30"
   height="30"
   id="svg2"
   xml:space="preserve"><metadata
     id="metadata8"><rdf:RDF><cc:Work
         rdf:about=""><dc:format>image/svg+xml</dc:format><dc:type
           rdf:resource="http://purl.org/dc/dcmitype/StillImage" /><dc:title></dc:title></cc:Work></rdf:RDF></metadata><defs
     id="defs6"><clipPath
       id="clipPath16"><path
         d="m 24.23,48.674 c -0.549,0 -0.977,-0.358 -0.949,-0.791 l 0,0 0.285,-1.656 c 0.035,-0.434 0.048,-2.905 0.037,-3.344 l 0,0 -0.021,-1.249 c -0.009,-0.436 0.435,-0.795 0.986,-0.795 l 0,0 0.517,0 c 0.548,0 0.995,0.359 0.982,0.795 l 0,0 -0.023,1.249 c -0.008,0.439 0.008,2.91 0.038,3.344 l 0,0 0.283,1.656 c 0.034,0.433 -0.395,0.791 -0.944,0.791 l 0,0 -1.191,0 z"
         id="path18" /></clipPath><linearGradient
       x1="0"
       y1="0"
       x2="1"
       y2="0"
       id="linearGradient24"
       gradientUnits="userSpaceOnUse"
       gradientTransform="matrix(3.0874023,0,0,-3.0874023,23.279785,44.756836)"
       spreadMethod="pad"><stop
         id="stop26"
         style="stop-color:#ee4037;stop-opacity:1"
         offset="0" /><stop
         id="stop28"
         style="stop-color:#9b1c1f;stop-opacity:1"
         offset="1" /></linearGradient><clipPath
       id="clipPath36"><path
         d="M 38.608,45.334 37.772,43.877 C 37.52,43.523 35.96,41.607 35.677,41.275 l 0,0 -0.815,-0.951 c -0.286,-0.327 -0.17,-0.888 0.251,-1.235 l 0,0 0.401,-0.331 c 0.426,-0.349 0.994,-0.357 1.265,-0.014 l 0,0 0.779,0.976 c 0.271,0.347 1.853,2.242 2.154,2.557 l 0,0 1.277,1.094 c 0.296,0.318 0.192,0.866 -0.229,1.215 l 0,0 -0.918,0.758 c -0.211,0.173 -0.454,0.26 -0.676,0.26 l 0,0 c -0.226,0 -0.431,-0.09 -0.558,-0.27"
         id="path38" /></clipPath><linearGradient
       x1="0"
       y1="0"
       x2="1"
       y2="0"
       id="linearGradient44"
       gradientUnits="userSpaceOnUse"
       gradientTransform="matrix(6.453125,0,0,-6.453125,34.705078,42.047852)"
       spreadMethod="pad"><stop
         id="stop46"
         style="stop-color:#ee4037;stop-opacity:1"
         offset="0" /><stop
         id="stop48"
         style="stop-color:#9b1c1f;stop-opacity:1"
         offset="1" /></linearGradient><clipPath
       id="clipPath56"><path
         d="m 46.84,35.738 -1.571,-0.591 c -0.418,-0.114 -2.842,-0.596 -3.274,-0.673 l 0,0 -1.231,-0.216 c -0.431,-0.07 -0.698,-0.576 -0.594,-1.112 l 0,0 0.1,-0.508 c 0.103,-0.542 0.54,-0.91 0.965,-0.819 l 0,0 1.223,0.259 c 0.43,0.095 2.857,0.55 3.288,0.597 l 0,0 1.68,0.035 c 0.432,0.055 0.703,0.543 0.597,1.082 l 0,0 -0.226,1.168 c -0.09,0.472 -0.429,0.8 -0.793,0.8 l 0,0 c -0.054,0 -0.109,-0.007 -0.164,-0.022"
         id="path58" /></clipPath><linearGradient
       x1="0"
       y1="0"
       x2="1"
       y2="0"
       id="linearGradient64"
       gradientUnits="userSpaceOnUse"
       gradientTransform="matrix(7.8984375,0,0,-7.8984375,40.147461,33.782227)"
       spreadMethod="pad"><stop
         id="stop66"
         style="stop-color:#ee4037;stop-opacity:1"
         offset="0" /><stop
         id="stop68"
         style="stop-color:#9b1c1f;stop-opacity:1"
         offset="1" /></linearGradient><clipPath
       id="clipPath76"><path
         d="M 9.656,44.106 8.737,43.348 C 8.315,42.999 8.212,42.45 8.51,42.133 l 0,0 1.274,-1.094 c 0.302,-0.314 1.885,-2.209 2.155,-2.557 l 0,0 0.779,-0.975 c 0.27,-0.343 0.841,-0.335 1.265,0.014 l 0,0 0.401,0.33 c 0.421,0.347 0.538,0.908 0.251,1.235 l 0,0 -0.814,0.951 c -0.284,0.333 -1.844,2.249 -2.097,2.602 l 0,0 -0.835,1.457 c -0.127,0.181 -0.332,0.271 -0.558,0.271 l 0,0 c -0.222,0 -0.464,-0.087 -0.675,-0.261"
         id="path78" /></clipPath><linearGradient
       x1="0"
       y1="0"
       x2="1"
       y2="0"
       id="linearGradient84"
       gradientUnits="userSpaceOnUse"
       gradientTransform="matrix(6.453125,0,0,-6.453125,8.3393555,40.810547)"
       spreadMethod="pad"><stop
         id="stop86"
         style="stop-color:#ee4037;stop-opacity:1"
         offset="0" /><stop
         id="stop88"
         style="stop-color:#9b1c1f;stop-opacity:1"
         offset="1" /></linearGradient><clipPath
       id="clipPath96"><path
         d="M 2.602,34.276 2.375,33.107 C 2.271,32.568 2.541,32.081 2.973,32.026 l 0,0 1.681,-0.036 c 0.43,-0.047 2.858,-0.503 3.287,-0.597 l 0,0 1.223,-0.259 c 0.426,-0.091 0.862,0.277 0.966,0.818 l 0,0 0.099,0.509 c 0.104,0.536 -0.163,1.042 -0.594,1.113 l 0,0 -1.231,0.215 c -0.431,0.077 -2.855,0.559 -3.275,0.672 l 0,0 -1.571,0.591 c -0.055,0.015 -0.109,0.022 -0.163,0.022 l 0,0 c -0.364,0 -0.702,-0.327 -0.793,-0.798"
         id="path98" /></clipPath><linearGradient
       x1="0"
       y1="0"
       x2="1"
       y2="0"
       id="linearGradient104"
       gradientUnits="userSpaceOnUse"
       gradientTransform="matrix(7.8984375,0,0,-7.8984375,2.3530273,33.097168)"
       spreadMethod="pad"><stop
         id="stop106"
         style="stop-color:#ee4037;stop-opacity:1"
         offset="0" /><stop
         id="stop108"
         style="stop-color:#9b1c1f;stop-opacity:1"
         offset="1" /></linearGradient><clipPath
       id="clipPath116"><path
         d="M 5.333,19.592 5.286,19.572 C 5.26,19.553 1.511,17.095 1.898,12.133 l 0,0 C 2.093,9.627 6.164,8.982 7.91,8.819 l 0,0 c 0.005,0 0.652,-0.035 1.056,-0.037 l 0,0 0.02,0 c 0.403,0 1.094,0.028 1.099,0.028 l 0,0 c 1.744,0.157 5.82,0.782 6.029,3.288 l 0,0 c 0.409,4.958 -3.325,7.438 -3.352,7.455 l 0,0 -0.048,0.019 -2.014,0.689 -0.045,0.001 -1.007,0.002 -2.289,0.006 -2.026,-0.678 z"
         id="path118" /></clipPath><radialGradient
       cx="0"
       cy="0"
       r="1"
       fx="0"
       fy="0"
       id="radialGradient124"
       gradientUnits="userSpaceOnUse"
       gradientTransform="matrix(6.4776502,0,0,-6.4776497,9.0073242,14.525391)"
       spreadMethod="pad"><stop
         id="stop126"
         style="stop-color:#bee4f8;stop-opacity:1"
         offset="0" /><stop
         id="stop128"
         style="stop-color:#6fbde9;stop-opacity:1"
         offset="1" /></radialGradient><clipPath
       id="clipPath136"><path
         d="M 0,50 50,50 50,0 0,0 0,50 z"
         id="path138" /></clipPath><clipPath
       id="clipPath148"><path
         d="m 3.618,22.608 c 0,-2.911 2.361,-5.274 5.275,-5.274 l 0,0 c 2.911,0 5.276,2.363 5.276,5.274 l 0,0 c 0,2.914 -2.365,5.278 -5.276,5.278 l 0,0 c -2.914,0 -5.275,-2.364 -5.275,-5.278"
         id="path150" /></clipPath><radialGradient
       cx="0"
       cy="0"
       r="1"
       fx="0"
       fy="0"
       id="radialGradient156"
       gradientUnits="userSpaceOnUse"
       gradientTransform="matrix(5.2749581,0,0,-5.2749577,8.8930664,22.609375)"
       spreadMethod="pad"><stop
         id="stop158"
         style="stop-color:#bee4f8;stop-opacity:1"
         offset="0" /><stop
         id="stop160"
         style="stop-color:#6fbde9;stop-opacity:1"
         offset="1" /></radialGradient><clipPath
       id="clipPath168"><path
         d="M 0,50 50,50 50,0 0,0 0,50 z"
         id="path170" /></clipPath><clipPath
       id="clipPath180"><path
         d="m 36.898,19.592 -0.046,-0.02 c -0.027,-0.019 -3.774,-2.477 -3.387,-7.439 l 0,0 C 33.66,9.627 37.731,8.982 39.476,8.819 l 0,0 c 0.005,0 0.652,-0.035 1.056,-0.037 l 0,0 0.021,0 c 0.402,0 1.094,0.028 1.098,0.028 l 0,0 c 1.744,0.157 5.82,0.782 6.027,3.288 l 0,0 c 0.412,4.958 -3.322,7.438 -3.35,7.455 l 0,0 -0.047,0.019 -2.014,0.689 -0.046,0.001 -1.006,0.002 -2.29,0.006 -2.027,-0.678 z"
         id="path182" /></clipPath><radialGradient
       cx="0"
       cy="0"
       r="1"
       fx="0"
       fy="0"
       id="radialGradient188"
       gradientUnits="userSpaceOnUse"
       gradientTransform="matrix(6.4776502,0,0,-6.4776497,40.572266,14.525391)"
       spreadMethod="pad"><stop
         id="stop190"
         style="stop-color:#bee4f8;stop-opacity:1"
         offset="0" /><stop
         id="stop192"
         style="stop-color:#6fbde9;stop-opacity:1"
         offset="1" /></radialGradient><clipPath
       id="clipPath200"><path
         d="M 0,50 50,50 50,0 0,0 0,50 z"
         id="path202" /></clipPath><clipPath
       id="clipPath212"><path
         d="m 35.185,22.608 c 0,-2.911 2.36,-5.274 5.273,-5.274 l 0,0 c 2.912,0 5.277,2.363 5.277,5.274 l 0,0 c 0,2.914 -2.365,5.278 -5.277,5.278 l 0,0 c -2.913,0 -5.273,-2.364 -5.273,-5.278"
         id="path214" /></clipPath><radialGradient
       cx="0"
       cy="0"
       r="1"
       fx="0"
       fy="0"
       id="radialGradient220"
       gradientUnits="userSpaceOnUse"
       gradientTransform="matrix(5.2749581,0,0,-5.2749577,40.459961,22.609375)"
       spreadMethod="pad"><stop
         id="stop222"
         style="stop-color:#bee4f8;stop-opacity:1"
         offset="0" /><stop
         id="stop224"
         style="stop-color:#6fbde9;stop-opacity:1"
         offset="1" /></radialGradient><clipPath
       id="clipPath232"><path
         d="M 0,50 50,50 50,0 0,0 0,50 z"
         id="path234" /></clipPath><clipPath
       id="clipPath244"><path
         d="M 17.706,23.201 17.618,23.162 C 17.567,23.13 10.52,18.504 11.247,9.175 l 0,0 C 11.615,4.464 19.269,3.251 22.552,2.941 l 0,0 c 0.01,0 1.225,-0.061 1.986,-0.065 l 0,0 0.037,0 c 0.758,0 2.055,0.054 2.068,0.054 l 0,0 c 3.278,0.292 10.94,1.467 11.333,6.18 l 0,0 c 0.772,9.323 -6.25,13.986 -6.301,14.02 l 0,0 -0.09,0.032 -3.787,1.295 -0.085,0.004 -1.893,0.004 -4.305,0.011 -3.809,-1.275 z"
         id="path246" /></clipPath><radialGradient
       cx="0"
       cy="0"
       r="1"
       fx="0"
       fy="0"
       id="radialGradient252"
       gradientUnits="userSpaceOnUse"
       gradientTransform="matrix(12.181191,0,0,-12.18119,24.614746,13.675781)"
       spreadMethod="pad"><stop
         id="stop254"
         style="stop-color:#ffffff;stop-opacity:1"
         offset="0" /><stop
         id="stop256"
         style="stop-color:#a7ce38;stop-opacity:1"
         offset="0.85276097" /><stop
         id="stop258"
         style="stop-color:#a7ce38;stop-opacity:1"
         offset="1" /></radialGradient><clipPath
       id="clipPath266"><path
         d="M 0,50 50,50 50,0 0,0 0,50 z"
         id="path268" /></clipPath><clipPath
       id="clipPath278"><path
         d="m 14.48,28.873 c 0,-5.475 4.441,-9.918 9.918,-9.918 l 0,0 c 5.477,0 9.923,4.443 9.923,9.918 l 0,0 c 0,5.478 -4.446,9.921 -9.923,9.921 l 0,0 c -5.477,0 -9.918,-4.443 -9.918,-9.921"
         id="path280" /></clipPath><radialGradient
       cx="0"
       cy="0"
       r="1"
       fx="0"
       fy="0"
       id="radialGradient286"
       gradientUnits="userSpaceOnUse"
       gradientTransform="matrix(9.9195595,0,0,-9.9195585,24.400391,28.874512)"
       spreadMethod="pad"><stop
         id="stop288"
         style="stop-color:#ffffff;stop-opacity:1"
         offset="0" /><stop
         id="stop290"
         style="stop-color:#a7ce38;stop-opacity:1"
         offset="0.85276097" /><stop
         id="stop292"
         style="stop-color:#a7ce38;stop-opacity:1"
         offset="1" /></radialGradient><clipPath
       id="clipPath300"><path
         d="M 0,50 50,50 50,0 0,0 0,50 z"
         id="path302" /></clipPath></defs><g
     transform="matrix(1.25,0,0,-1.25,0,30)"
     id="g10"><g
       transform="matrix(0.50974234,0,0,0.50974234,-0.53908108,-1.0350988)"
       id="g12"><g
         clip-path="url(#clipPath16)"
         id="g14"><g
           id="g20"><g
             id="g22"><path
               d="m 24.23,48.674 c -0.549,0 -0.977,-0.358 -0.949,-0.791 l 0,0 0.285,-1.656 c 0.035,-0.434 0.048,-2.905 0.037,-3.344 l 0,0 -0.021,-1.249 c -0.009,-0.436 0.435,-0.795 0.986,-0.795 l 0,0 0.517,0 c 0.548,0 0.995,0.359 0.982,0.795 l 0,0 -0.023,1.249 c -0.008,0.439 0.008,2.91 0.038,3.344 l 0,0 0.283,1.656 c 0.034,0.433 -0.395,0.791 -0.944,0.791 l 0,0 -1.191,0 z"
               id="path30"
               style="fill:url(#linearGradient24);stroke:none" /></g></g></g></g><g
       transform="matrix(0.50974234,0,0,0.50974234,-0.87241441,-0.90176547)"
       id="g32"><g
         clip-path="url(#clipPath36)"
         id="g34"><g
           id="g40"><g
             id="g42"><path
               d="M 38.608,45.334 37.772,43.877 C 37.52,43.523 35.96,41.607 35.677,41.275 l 0,0 -0.815,-0.951 c -0.286,-0.327 -0.17,-0.888 0.251,-1.235 l 0,0 0.401,-0.331 c 0.426,-0.349 0.994,-0.357 1.265,-0.014 l 0,0 0.779,0.976 c 0.271,0.347 1.853,2.242 2.154,2.557 l 0,0 1.277,1.094 c 0.296,0.318 0.192,0.866 -0.229,1.215 l 0,0 -0.918,0.758 c -0.211,0.173 -0.454,0.26 -0.676,0.26 l 0,0 c -0.226,0 -0.431,-0.09 -0.558,-0.27"
               id="path50"
               style="fill:url(#linearGradient44);stroke:none" /></g></g></g></g><g
       transform="matrix(0.50974234,0,0,0.50974234,-1.1390811,-1.1017655)"
       id="g52"><g
         clip-path="url(#clipPath56)"
         id="g54"><g
           id="g60"><g
             id="g62"><path
               d="m 46.84,35.738 -1.571,-0.591 c -0.418,-0.114 -2.842,-0.596 -3.274,-0.673 l 0,0 -1.231,-0.216 c -0.431,-0.07 -0.698,-0.576 -0.594,-1.112 l 0,0 0.1,-0.508 c 0.103,-0.542 0.54,-0.91 0.965,-0.819 l 0,0 1.223,0.259 c 0.43,0.095 2.857,0.55 3.288,0.597 l 0,0 1.68,0.035 c 0.432,0.055 0.703,0.543 0.597,1.082 l 0,0 -0.226,1.168 c -0.09,0.472 -0.429,0.8 -0.793,0.8 l 0,0 c -0.054,0 -0.109,-0.007 -0.164,-0.022"
               id="path70"
               style="fill:url(#linearGradient64);stroke:none" /></g></g></g></g><g
       transform="matrix(0.50974234,0,0,0.50974234,-0.13908108,-0.36843213)"
       id="g72"><g
         clip-path="url(#clipPath76)"
         id="g74"><g
           id="g80"><g
             id="g82"><path
               d="M 9.656,44.106 8.737,43.348 C 8.315,42.999 8.212,42.45 8.51,42.133 l 0,0 1.274,-1.094 c 0.302,-0.314 1.885,-2.209 2.155,-2.557 l 0,0 0.779,-0.975 c 0.27,-0.343 0.841,-0.335 1.265,0.014 l 0,0 0.401,0.33 c 0.421,0.347 0.538,0.908 0.251,1.235 l 0,0 -0.814,0.951 c -0.284,0.333 -1.844,2.249 -2.097,2.602 l 0,0 -0.835,1.457 c -0.127,0.181 -0.332,0.271 -0.558,0.271 l 0,0 c -0.222,0 -0.464,-0.087 -0.675,-0.261"
               id="path90"
               style="fill:url(#linearGradient84);stroke:none" /></g></g></g></g><g
       transform="matrix(0.50974234,0,0,0.50974234,-0.53908108,-1.0350988)"
       id="g92"><g
         clip-path="url(#clipPath96)"
         id="g94"><g
           id="g100"><g
             id="g102"><path
               d="M 2.602,34.276 2.375,33.107 C 2.271,32.568 2.541,32.081 2.973,32.026 l 0,0 1.681,-0.036 c 0.43,-0.047 2.858,-0.503 3.287,-0.597 l 0,0 1.223,-0.259 c 0.426,-0.091 0.862,0.277 0.966,0.818 l 0,0 0.099,0.509 c 0.104,0.536 -0.163,1.042 -0.594,1.113 l 0,0 -1.231,0.215 c -0.431,0.077 -2.855,0.559 -3.275,0.672 l 0,0 -1.571,0.591 c -0.055,0.015 -0.109,0.022 -0.163,0.022 l 0,0 c -0.364,0 -0.702,-0.327 -0.793,-0.798"
               id="path110"
               style="fill:url(#linearGradient104);stroke:none" /></g></g></g></g><g
       transform="matrix(0.50974234,0,0,0.50974234,-0.53908108,-1.0350988)"
       id="g112"><g
         clip-path="url(#clipPath116)"
         id="g114"><g
           id="g120"><g
             id="g122"><path
               d="M 5.333,19.592 5.286,19.572 C 5.26,19.553 1.511,17.095 1.898,12.133 l 0,0 C 2.093,9.627 6.164,8.982 7.91,8.819 l 0,0 c 0.005,0 0.652,-0.035 1.056,-0.037 l 0,0 0.02,0 c 0.403,0 1.094,0.028 1.099,0.028 l 0,0 c 1.744,0.157 5.82,0.782 6.029,3.288 l 0,0 c 0.409,4.958 -3.325,7.438 -3.352,7.455 l 0,0 -0.048,0.019 -2.014,0.689 -0.045,0.001 -1.007,0.002 -2.289,0.006 -2.026,-0.678 z"
               id="path130"
               style="fill:url(#radialGradient124);stroke:none" /></g></g></g></g><g
       transform="matrix(0.50974234,0,0,0.50974234,-0.53908108,-1.0350988)"
       id="g132"><g
         clip-path="url(#clipPath136)"
         id="g134"><g
           transform="translate(5.2861,19.5723)"
           id="g140"><path
             d="M 0,0 0.047,0.02 2.073,0.697 4.362,0.692 5.369,0.689 5.414,0.688 7.428,0 7.476,-0.019 c 0.027,-0.017 3.761,-2.498 3.351,-7.456 -0.208,-2.505 -4.284,-3.13 -6.028,-3.287 -0.006,0 -0.696,-0.028 -1.099,-0.028 l -0.02,0 c -0.405,0.002 -1.051,0.037 -1.056,0.037 -1.746,0.163 -5.817,0.808 -6.012,3.314 C -3.775,-2.478 -0.027,-0.019 0,0 z"
             id="path142"
             style="fill:none;stroke:#00adee;stroke-width:0.5;stroke-linecap:butt;stroke-linejoin:miter;stroke-miterlimit:4;stroke-opacity:1;stroke-dasharray:none" /></g></g></g><g
       transform="matrix(0.50974234,0,0,0.50974234,-0.53908108,-1.0350988)"
       id="g144"><g
         clip-path="url(#clipPath148)"
         id="g146"><g
           id="g152"><g
             id="g154"><path
               d="m 3.618,22.608 c 0,-2.911 2.361,-5.274 5.275,-5.274 l 0,0 c 2.911,0 5.276,2.363 5.276,5.274 l 0,0 c 0,2.914 -2.365,5.278 -5.276,5.278 l 0,0 c -2.914,0 -5.275,-2.364 -5.275,-5.278"
               id="path162"
               style="fill:url(#radialGradient156);stroke:none" /></g></g></g></g><g
       transform="matrix(0.50974234,0,0,0.50974234,-0.53908108,-1.0350988)"
       id="g164"><g
         clip-path="url(#clipPath168)"
         id="g166"><g
           transform="translate(8.8926,27.8853)"
           id="g172"><path
             d="m 0,0 c 2.912,0 5.276,-2.363 5.276,-5.277 0,-2.911 -2.364,-5.274 -5.276,-5.274 -2.914,0 -5.274,2.363 -5.274,5.274 C -5.274,-2.363 -2.914,0 0,0 z"
             id="path174"
             style="fill:none;stroke:#00adee;stroke-width:0.5;stroke-linecap:butt;stroke-linejoin:miter;stroke-miterlimit:4;stroke-opacity:1;stroke-dasharray:none" /></g></g></g><g
       transform="matrix(0.50974234,0,0,0.50974234,-0.53908108,-1.0350988)"
       id="g176"><g
         clip-path="url(#clipPath180)"
         id="g178"><g
           id="g184"><g
             id="g186"><path
               d="m 36.898,19.592 -0.046,-0.02 c -0.027,-0.019 -3.774,-2.477 -3.387,-7.439 l 0,0 C 33.66,9.627 37.731,8.982 39.476,8.819 l 0,0 c 0.005,0 0.652,-0.035 1.056,-0.037 l 0,0 0.021,0 c 0.402,0 1.094,0.028 1.098,0.028 l 0,0 c 1.744,0.157 5.82,0.782 6.027,3.288 l 0,0 c 0.412,4.958 -3.322,7.438 -3.35,7.455 l 0,0 -0.047,0.019 -2.014,0.689 -0.046,0.001 -1.006,0.002 -2.29,0.006 -2.027,-0.678 z"
               id="path194"
               style="fill:url(#radialGradient188);stroke:none" /></g></g></g></g><g
       transform="matrix(0.50974234,0,0,0.50974234,-0.53908108,-1.0350988)"
       id="g196"><g
         clip-path="url(#clipPath200)"
         id="g198"><g
           transform="translate(36.8525,19.5723)"
           id="g204"><path
             d="M 0,0 0.046,0.02 2.072,0.697 4.362,0.692 5.368,0.689 5.414,0.688 7.429,0 7.476,-0.019 c 0.027,-0.017 3.761,-2.498 3.35,-7.456 -0.208,-2.505 -4.283,-3.13 -6.027,-3.287 -0.005,0 -0.696,-0.028 -1.099,-0.028 l -0.02,0 c -0.405,0.002 -1.051,0.037 -1.057,0.037 -1.745,0.163 -5.815,0.808 -6.011,3.314 C -3.774,-2.478 -0.027,-0.019 0,0 z"
             id="path206"
             style="fill:none;stroke:#00adee;stroke-width:0.5;stroke-linecap:butt;stroke-linejoin:miter;stroke-miterlimit:4;stroke-opacity:1;stroke-dasharray:none" /></g></g></g><g
       transform="matrix(0.50974234,0,0,0.50974234,-0.53908108,-1.0350988)"
       id="g208"><g
         clip-path="url(#clipPath212)"
         id="g210"><g
           id="g216"><g
             id="g218"><path
               d="m 35.185,22.608 c 0,-2.911 2.36,-5.274 5.273,-5.274 l 0,0 c 2.912,0 5.277,2.363 5.277,5.274 l 0,0 c 0,2.914 -2.365,5.278 -5.277,5.278 l 0,0 c -2.913,0 -5.273,-2.364 -5.273,-5.278"
               id="path226"
               style="fill:url(#radialGradient220);stroke:none" /></g></g></g></g><g
       transform="matrix(0.50974234,0,0,0.50974234,-0.53908108,-1.0350988)"
       id="g228"><g
         clip-path="url(#clipPath232)"
         id="g230"><g
           transform="translate(40.458,27.8853)"
           id="g236"><path
             d="m 0,0 c 2.912,0 5.277,-2.363 5.277,-5.277 0,-2.911 -2.365,-5.274 -5.277,-5.274 -2.913,0 -5.273,2.363 -5.273,5.274 C -5.273,-2.363 -2.913,0 0,0 z"
             id="path238"
             style="fill:none;stroke:#00adee;stroke-width:0.5;stroke-linecap:butt;stroke-linejoin:miter;stroke-miterlimit:4;stroke-opacity:1;stroke-dasharray:none" /></g></g></g><g
       transform="matrix(0.50974234,0,0,0.50974234,-0.53908108,-1.0350988)"
       id="g240"><g
         clip-path="url(#clipPath244)"
         id="g242"><g
           id="g248"><g
             id="g250"><path
               d="M 17.706,23.201 17.618,23.162 C 17.567,23.13 10.52,18.504 11.247,9.175 l 0,0 C 11.615,4.464 19.269,3.251 22.552,2.941 l 0,0 c 0.01,0 1.225,-0.061 1.986,-0.065 l 0,0 0.037,0 c 0.758,0 2.055,0.054 2.068,0.054 l 0,0 c 3.278,0.292 10.94,1.467 11.333,6.18 l 0,0 c 0.772,9.323 -6.25,13.986 -6.301,14.02 l 0,0 -0.09,0.032 -3.787,1.295 -0.085,0.004 -1.893,0.004 -4.305,0.011 -3.809,-1.275 z"
               id="path260"
               style="fill:url(#radialGradient252);stroke:none" /></g></g></g></g><g
       transform="matrix(0.50974234,0,0,0.50974234,-0.53908108,-1.0350988)"
       id="g262"><g
         clip-path="url(#clipPath266)"
         id="g264"><g
           transform="translate(17.6177,23.1621)"
           id="g270"><path
             d="M 0,0 0.088,0.039 3.898,1.314 8.203,1.302 10.095,1.299 10.18,1.295 13.967,0 l 0.09,-0.032 c 0.051,-0.034 7.073,-4.697 6.302,-14.021 -0.394,-4.712 -8.056,-5.887 -11.334,-6.178 -0.013,0 -1.309,-0.055 -2.067,-0.055 l -0.038,0 c -0.76,0.004 -1.976,0.065 -1.986,0.065 -3.283,0.31 -10.937,1.523 -11.305,6.234 C -7.098,-4.658 -0.05,-0.032 0,0 z"
             id="path272"
             style="fill:none;stroke:#84c459;stroke-width:1;stroke-linecap:butt;stroke-linejoin:miter;stroke-miterlimit:4;stroke-opacity:1;stroke-dasharray:none" /></g></g></g><g
       transform="matrix(0.50974234,0,0,0.50974234,-0.53908108,-1.0350988)"
       id="g274"><g
         clip-path="url(#clipPath278)"
         id="g276"><g
           id="g282"><g
             id="g284"><path
               d="m 14.48,28.873 c 0,-5.475 4.441,-9.918 9.918,-9.918 l 0,0 c 5.477,0 9.923,4.443 9.923,9.918 l 0,0 c 0,5.478 -4.446,9.921 -9.923,9.921 l 0,0 c -5.477,0 -9.918,-4.443 -9.918,-9.921"
               id="path294"
               style="fill:url(#radialGradient286);stroke:none" /></g></g></g></g><g
       transform="matrix(0.50974234,0,0,0.50974234,-0.53908108,-1.0350988)"
       id="g296"><g
         clip-path="url(#clipPath300)"
         id="g298"><g
           transform="translate(24.3984,38.7939)"
           id="g304"><path
             d="m 0,0 c 5.477,0 9.922,-4.442 9.922,-9.921 0,-5.475 -4.445,-9.918 -9.922,-9.918 -5.478,0 -9.918,4.443 -9.918,9.918 C -9.918,-4.442 -5.478,0 0,0 z"
             id="path306"
             style="fill:none;stroke:#84c459;stroke-width:1;stroke-linecap:butt;stroke-linejoin:miter;stroke-miterlimit:4;stroke-opacity:1;stroke-dasharray:none" /></g></g></g></g></svg>