<?xml version="1.0" encoding="UTF-8"?><svg class="leaderselection" xmlns="http://www.w3.org/2000/svg" viewBox="0 0 512 512"><style><![CDATA[svg.leaderselection .M{fill:#fff}svg.leaderselection .N{stroke-linejoin:round}svg.leaderselection .O{stroke-miterlimit:10}svg.leaderselection .P{stroke:#111342}svg.leaderselection .Q{stroke-linecap:round}svg.leaderselection .R{stroke-width:17.419}]]></style><path stroke="#000" d="M247.977 460.442V340.235l119.88-55.313h39.285L407 497l-101 2-34-36z" class="M"/><g class="P N O"><g fill="none" class="Q"><path d="M247.977 460.442h13.945c5.09 0 9.966 2.048 13.529 5.689l23.368 23.88a22.43 22.43 0 0 0 16.042 6.747h79.148" class="R"/><path stroke-width="15.738" d="M16.869 311.907h221.969a2.29 2.29 0 0 1 2.294 2.284v175.454a2.29 2.29 0 0 1-2.294 2.284H16.869"/></g><g stroke-width="16.518" class="M"><path d="M450.073 375.683h-47.919c-12.486 0-22.608-9.068-22.608-20.254h0c0-11.186 10.121-20.254 22.608-20.254h47.919c12.486 0 22.607 9.068 22.607 20.254h0c0 11.186-10.121 20.254-22.607 20.254zm0 81.018h-47.919c-12.486 0-22.608-9.068-22.608-20.254h0c0-11.186 10.121-20.254 22.608-20.254h47.919c12.486 0 22.607 9.068 22.607 20.254h0c0 11.185-10.121 20.254-22.607 20.254z"/><path d="M433.443 497.21h-31.289c-12.486 0-22.608-9.068-22.608-20.255h0c0-11.186 10.121-20.254 22.608-20.254h31.289c12.486 0 22.607 9.068 22.607 20.254h0c.001 11.186-10.121 20.255-22.607 20.255zm30.278-81.018h-61.567c-12.486 0-22.608-9.068-22.608-20.254h0c0-11.186 10.121-20.254 22.608-20.254h61.567c12.486 0 22.607 9.068 22.607 20.254h0c.001 11.186-10.121 20.254-22.607 20.254z"/></g><g class="R"><path fill="none" d="M305.056 368.669c0 25.483-20.658 46.142-46.142 46.142m-10.937-74.576l119.88-55.313h39.285" class="Q"/><path d="M151.297 241.734l31.61-84.915-31.957-75.196h134.354v160.111h-31.612z" class="M"/></g></g><path fill="#ffcf60" d="M179.806 99.67h97.187v133.265h-24.156-72.766l24.153-70.678z"/><g class="N O P"><path d="M285.304 58.549h210.987v169.467H285.304z" class="M R"/><path stroke-width="17.936" fill="none" d="M451.756 228.54v93.532z"/></g><path fill="#ffcf60" d="M294.04 77.215h193.475V219.02H294.04z"/><g class="N O P"><path stroke-width="17.972" fill="none" d="M405.275 228.569v93.908z"/><path stroke-width="16.353" d="M398.57 58.549V14.676h56.63v43.873" class="M Q"/></g><path d="M414.107 236.218h28.744v90.755h-28.744z" class="M"/></svg>