<?xml version="1.0" encoding="UTF-8" standalone="no"?>
<!-- Created with Inkscape (http://www.inkscape.org/) -->

<svg
   xmlns:dc="http://purl.org/dc/elements/1.1/"
   xmlns:cc="http://creativecommons.org/ns#"
   xmlns:rdf="http://www.w3.org/1999/02/22-rdf-syntax-ns#"
   xmlns:svg="http://www.w3.org/2000/svg"
   xmlns="http://www.w3.org/2000/svg"
   version="1.1"
   width="30"
   height="30"
   id="svg2"
   xml:space="preserve"><metadata
     id="metadata8"><rdf:RDF><cc:Work
         rdf:about=""><dc:format>image/svg+xml</dc:format><dc:type
           rdf:resource="http://purl.org/dc/dcmitype/StillImage" /><dc:title></dc:title></cc:Work></rdf:RDF></metadata><defs
     id="defs6"><clipPath
       id="clipPath16"><path
         d="m 12.187,43.877 c -2.353,0 -4.265,-1.798 -4.265,-4.006 l 0,0 0,-32.949 c 0,-2.207 1.912,-4.006 4.265,-4.006 l 0,0 25.997,0 c 2.355,0 4.265,1.799 4.265,4.006 l 0,0 0,32.949 c 0,2.208 -1.91,4.006 -4.265,4.006 l 0,0 -25.997,0 z"
         id="path18" /></clipPath><linearGradient
       x1="0"
       y1="0"
       x2="1"
       y2="0"
       id="linearGradient24"
       gradientUnits="userSpaceOnUse"
       gradientTransform="matrix(34.527344,0,0,-34.527344,7.921875,23.396484)"
       spreadMethod="pad"><stop
         id="stop26"
         style="stop-color:#e0dfdf;stop-opacity:1"
         offset="0" /><stop
         id="stop28"
         style="stop-color:#e1e1e1;stop-opacity:1"
         offset="0.54707402" /><stop
         id="stop30"
         style="stop-color:#ffffff;stop-opacity:1"
         offset="1" /></linearGradient><clipPath
       id="clipPath38"><path
         d="M 0,50 50,50 50,0 0,0 0,50 z"
         id="path40" /></clipPath></defs><g
     transform="matrix(1.25,0,0,-1.25,-9.2561249,32.998875)"
     id="g10"><g
       transform="matrix(0.51453114,0,0,0.51453114,6.7948483,1.4046884)"
       id="g12"><g
         clip-path="url(#clipPath16)"
         id="g14"><g
           id="g20"><g
             id="g22"><path
               d="m 12.187,43.877 c -2.353,0 -4.265,-1.798 -4.265,-4.006 l 0,0 0,-32.949 c 0,-2.207 1.912,-4.006 4.265,-4.006 l 0,0 25.997,0 c 2.355,0 4.265,1.799 4.265,4.006 l 0,0 0,32.949 c 0,2.208 -1.91,4.006 -4.265,4.006 l 0,0 -25.997,0 z"
               id="path32"
               style="fill:url(#linearGradient24);stroke:none" /></g></g></g></g><g
       transform="matrix(0.51453114,0,0,0.51453114,6.7948483,1.4046884)"
       id="g34"><g
         clip-path="url(#clipPath38)"
         id="g36"><g
           transform="translate(7.9219,39.8711)"
           id="g42"><path
             d="m 0,0 c 0,2.208 1.912,4.005 4.265,4.005 l 25.998,0 c 2.354,0 4.264,-1.797 4.264,-4.005 l 0,-32.949 c 0,-2.207 -1.91,-4.006 -4.264,-4.006 l -25.998,0 C 1.912,-36.955 0,-35.156 0,-32.949 L 0,0 z"
             id="path44"
             style="fill:none;stroke:#89c761;stroke-width:1.03400004;stroke-linecap:butt;stroke-linejoin:miter;stroke-miterlimit:4;stroke-opacity:1;stroke-dasharray:none" /></g><g
           transform="translate(41.7793,40.0522)"
           id="g46"><path
             d="m 0,0 c 0,1.695 -1.478,3.086 -3.287,3.086 l -26.614,0 c -1.804,0 -3.286,-1.391 -3.286,-3.086 l 0,-6.092 L 0,-6.092 0,0 z"
             id="path48"
             style="fill:#f1b85f;fill-opacity:1;fill-rule:nonzero;stroke:none" /></g><g
           transform="translate(19.4033,40.8906)"
           id="g50"><path
             d="m 0,0 c 0,-1.267 -1.174,-2.297 -2.618,-2.297 -1.449,0 -2.617,1.03 -2.617,2.297 0,1.265 1.168,2.293 2.617,2.293 C -1.174,2.293 0,1.265 0,0"
             id="path52"
             style="fill:#44366a;fill-opacity:1;fill-rule:nonzero;stroke:none" /></g><g
           transform="translate(18.8242,41.1411)"
           id="g54"><path
             d="m 0,0 c 0,-0.996 -0.814,-1.807 -1.8,-1.807 l -0.497,0 c -0.993,0 -1.804,0.811 -1.804,1.807 l 0,4.964 c 0,0.998 0.811,1.811 1.804,1.811 l 0.497,0 C -0.814,6.775 0,5.962 0,4.964 L 0,0 z"
             id="path56"
             style="fill:#f1b85f;fill-opacity:1;fill-rule:nonzero;stroke:none" /></g><g
           transform="translate(18.8242,41.1411)"
           id="g58"><path
             d="m 0,0 c 0,-0.996 -0.814,-1.807 -1.8,-1.807 l -0.497,0 c -0.993,0 -1.804,0.811 -1.804,1.807 l 0,4.964 c 0,0.998 0.811,1.811 1.804,1.811 l 0.497,0 C -0.814,6.775 0,5.962 0,4.964 L 0,0 z"
             id="path60"
             style="fill:none;stroke:#4670a1;stroke-width:0.69999999;stroke-linecap:butt;stroke-linejoin:miter;stroke-miterlimit:4;stroke-opacity:1;stroke-dasharray:none" /></g><g
           transform="translate(17.4287,46.8423)"
           id="g62"><path
             d="m 0,0 c 0.156,0 0.601,-0.283 0.601,-3.342 0,-3.021 -0.445,-3.335 -0.601,-3.335 -0.153,0 -0.602,0.314 -0.602,3.335 C -0.602,-0.283 -0.153,0 0,0"
             id="path64"
             style="fill:#ffffff;fill-opacity:1;fill-rule:nonzero;stroke:none" /></g><g
           transform="translate(27.8037,40.8906)"
           id="g66"><path
             d="m 0,0 c 0,-1.267 -1.176,-2.297 -2.616,-2.297 -1.45,0 -2.62,1.03 -2.62,2.297 0,1.265 1.17,2.293 2.62,2.293 C -1.176,2.293 0,1.265 0,0"
             id="path68"
             style="fill:#44366a;fill-opacity:1;fill-rule:nonzero;stroke:none" /></g><g
           transform="translate(27.2227,41.1411)"
           id="g70"><path
             d="m 0,0 c 0,-0.996 -0.812,-1.807 -1.799,-1.807 l -0.495,0 c -0.993,0 -1.805,0.811 -1.805,1.807 l 0,4.964 c 0,0.998 0.812,1.811 1.805,1.811 l 0.495,0 C -0.812,6.775 0,5.962 0,4.964 L 0,0 z"
             id="path72"
             style="fill:#f1b85f;fill-opacity:1;fill-rule:nonzero;stroke:none" /></g><g
           transform="translate(27.2227,41.1411)"
           id="g74"><path
             d="m 0,0 c 0,-0.996 -0.812,-1.807 -1.799,-1.807 l -0.495,0 c -0.993,0 -1.805,0.811 -1.805,1.807 l 0,4.964 c 0,0.998 0.812,1.811 1.805,1.811 l 0.495,0 C -0.812,6.775 0,5.962 0,4.964 L 0,0 z"
             id="path76"
             style="fill:none;stroke:#4670a1;stroke-width:0.69999999;stroke-linecap:butt;stroke-linejoin:miter;stroke-miterlimit:4;stroke-opacity:1;stroke-dasharray:none" /></g><g
           transform="translate(25.8276,46.8423)"
           id="g78"><path
             d="m 0,0 c 0.157,0 0.603,-0.283 0.603,-3.342 0,-3.021 -0.446,-3.335 -0.603,-3.335 -0.152,0 -0.6,0.314 -0.6,3.335 C -0.6,-0.283 -0.152,0 0,0"
             id="path80"
             style="fill:#ffffff;fill-opacity:1;fill-rule:nonzero;stroke:none" /></g><g
           transform="translate(36.2051,40.8906)"
           id="g82"><path
             d="m 0,0 c 0,-1.267 -1.176,-2.297 -2.618,-2.297 -1.45,0 -2.619,1.03 -2.619,2.297 0,1.265 1.169,2.293 2.619,2.293 C -1.176,2.293 0,1.265 0,0"
             id="path84"
             style="fill:#44366a;fill-opacity:1;fill-rule:nonzero;stroke:none" /></g><g
           transform="translate(35.624,41.1411)"
           id="g86"><path
             d="m 0,0 c 0,-0.996 -0.813,-1.807 -1.801,-1.807 l -0.496,0 c -0.992,0 -1.804,0.811 -1.804,1.807 l 0,4.964 c 0,0.998 0.812,1.811 1.804,1.811 l 0.496,0 C -0.813,6.775 0,5.962 0,4.964 L 0,0 z"
             id="path88"
             style="fill:#f1b85f;fill-opacity:1;fill-rule:nonzero;stroke:none" /></g><g
           transform="translate(35.624,41.1411)"
           id="g90"><path
             d="m 0,0 c 0,-0.996 -0.813,-1.807 -1.801,-1.807 l -0.496,0 c -0.992,0 -1.804,0.811 -1.804,1.807 l 0,4.964 c 0,0.998 0.812,1.811 1.804,1.811 l 0.496,0 C -0.813,6.775 0,5.962 0,4.964 L 0,0 z"
             id="path92"
             style="fill:none;stroke:#4670a1;stroke-width:0.69999999;stroke-linecap:butt;stroke-linejoin:miter;stroke-miterlimit:4;stroke-opacity:1;stroke-dasharray:none" /></g><g
           transform="translate(34.2285,46.8423)"
           id="g94"><path
             d="m 0,0 c 0.155,0 0.603,-0.283 0.603,-3.342 0,-3.021 -0.448,-3.335 -0.603,-3.335 -0.152,0 -0.601,0.314 -0.601,3.335 C -0.601,-0.283 -0.152,0 0,0"
             id="path96"
             style="fill:#ffffff;fill-opacity:1;fill-rule:nonzero;stroke:none" /></g><g
           transform="translate(38.2744,26.4805)"
           id="g98"><path
             d="m 0,0 -26.156,0 0,1.296 26.151,0 L 0,0 z"
             id="path100"
             style="fill:#b0b2bd;fill-opacity:1;fill-rule:nonzero;stroke:none" /></g><g
           transform="translate(38.2744,20.1934)"
           id="g102"><path
             d="m 0,0 -26.156,0 0,1.296 26.151,0 L 0,0 z"
             id="path104"
             style="fill:#b0b2bd;fill-opacity:1;fill-rule:nonzero;stroke:none" /></g><g
           transform="translate(38.2744,13.9072)"
           id="g106"><path
             d="m 0,0 -26.156,0 0,1.293 26.151,0 L 0,0 z"
             id="path108"
             style="fill:#b0b2bd;fill-opacity:1;fill-rule:nonzero;stroke:none" /></g><g
           transform="translate(38.2744,7.6182)"
           id="g110"><path
             d="m 0,0 -26.156,0 0,1.295 26.151,0 L 0,0 z"
             id="path112"
             style="fill:#b0b2bd;fill-opacity:1;fill-rule:nonzero;stroke:none" /></g></g></g></g></svg>