<?xml version="1.0" encoding="UTF-8" standalone="no"?>
<svg
   xmlns:dc="http://purl.org/dc/elements/1.1/"
   xmlns:cc="http://creativecommons.org/ns#"
   xmlns:rdf="http://www.w3.org/1999/02/22-rdf-syntax-ns#"
   xmlns:svg="http://www.w3.org/2000/svg"
   xmlns="http://www.w3.org/2000/svg"
   xml:space="preserve"
   style="enable-background:new 0 0 512 512;"
   viewBox="0 0 512 512"
   y="0px"
   x="0px"
   id="Layer_1"
   version="1.1"><metadata
   id="metadata70"><rdf:RDF><cc:Work
       rdf:about=""><dc:format>image/svg+xml</dc:format><dc:type
         rdf:resource="http://purl.org/dc/dcmitype/StillImage" /><dc:title></dc:title></cc:Work></rdf:RDF></metadata><defs
   id="defs68">
	
	
	
</defs>
<style
   id="style10"
   type="text/css">
	.st0{opacity:0.6;fill:#FBA919;}
	.st1{fill:#FBA919;}
	.st2{fill:none;stroke:#111342;stroke-width:14.5329;stroke-linecap:round;stroke-linejoin:round;stroke-miterlimit:10;}
	.st3{fill:#FBA919;stroke:#111342;stroke-width:16.1561;stroke-linecap:round;stroke-linejoin:round;stroke-miterlimit:10;}
</style>
<g
   id="g203"><g
     id="g52"
     transform="matrix(1.0959623,0,0,1.0959623,-25.372744,-23.224239)">
		<circle
   id="circle14"
   r="18.17"
   cy="141.31"
   cx="106.47"
   class="st1" />
		<circle
   id="circle16"
   r="18.17"
   cy="235.14"
   cx="106.47"
   class="st1" />
		<circle
   id="circle18"
   r="18.17"
   cy="334.19"
   cx="106.47"
   class="st1" />
		<rect
   id="rect20"
   height="32.689999"
   width="63.040001"
   class="st1"
   y="439.85999"
   x="133.77" />
		<rect
   id="rect22"
   height="41.59"
   width="80.190002"
   class="st2"
   y="425.73001"
   x="113.08" />
		<line
   id="line24"
   y2="134.03999"
   x2="31.33"
   y1="134.03999"
   x1="97.699997"
   class="st2" />
		<g
   id="g28">
			<line
   id="line26"
   y2="229.11"
   x2="31.33"
   y1="229.11"
   x1="97.699997"
   class="st2" />
		</g>
		<path
   id="path30"
   d="m 48.3,385.77 c 0,20.05 16.4,36.45 36.45,36.45 h 240.47 c 20.05,0 36.45,-16.4 36.45,-36.45 V 79.05 C 361.67,59 345.27,42.6 325.22,42.6 H 84.75 C 64.7,42.6 48.3,59 48.3,79.05 Z"
   class="st2" />
		<path
   id="path32"
   d="m 116.23,42.6 h 208.98 31.49 c 20.06,0 36.45,16.4 36.45,36.45 v 306.72 c 0,20.03 -16.4,36.45 -36.45,36.45 H 325.21 116.23"
   class="st2" />
		<g
   id="g36">
			<line
   id="line34"
   y2="325.53"
   x2="31.33"
   y1="325.53"
   x1="97.699997"
   class="st2" />
		</g>
		<circle
   id="circle38"
   r="23.610001"
   cy="134.03999"
   cx="99.209999"
   class="st2" />
		<circle
   id="circle40"
   r="23.610001"
   cy="227.87"
   cx="99.209999"
   class="st2" />
		<circle
   id="circle42"
   r="23.610001"
   cy="326.92001"
   cx="99.209999"
   class="st2" />
		<line
   id="line44"
   y2="133.42999"
   x2="317.01001"
   y1="133.42999"
   x1="165.28999"
   class="st2" />
		<line
   id="line46"
   y2="206.10001"
   x2="317.01001"
   y1="206.10001"
   x1="165.28999"
   class="st2" />
		<line
   id="line48"
   y2="278.76001"
   x2="317.01001"
   y1="278.76001"
   x1="165.28999"
   class="st2" />
		<line
   id="line50"
   y2="351.42999"
   x2="317.01001"
   y1="351.42999"
   x1="165.28999"
   class="st2" />
	</g><g
     id="g61"
     transform="matrix(1.0959623,0,0,1.0959623,-25.372744,-23.224239)">
		<rect
   id="rect54"
   height="36.349998"
   width="51.75"
   class="st3"
   y="430.17999"
   x="429.57999" />
		<path
   id="path56"
   d="m 481.33,161.28 h -51.75 l 24.07,-61.66 c 0.89,-1.94 3.64,-1.94 4.52,0 z"
   class="st3" />
		<rect
   id="rect58"
   height="268.89001"
   width="51.75"
   class="st2"
   y="161.28"
   x="429.57999" />
		<line
   y2="430.17001"
   x2="455.47"
   y1="170.2"
   x1="455.47"
   class="st2"
   id="XMLID_5_" />
	</g></g>
</svg>
