<?xml version="1.0" encoding="UTF-8" standalone="no"?>
<!-- Created with Inkscape (http://www.inkscape.org/) -->

<svg
   xmlns:dc="http://purl.org/dc/elements/1.1/"
   xmlns:cc="http://creativecommons.org/ns#"
   xmlns:rdf="http://www.w3.org/1999/02/22-rdf-syntax-ns#"
   xmlns:svg="http://www.w3.org/2000/svg"
   xmlns="http://www.w3.org/2000/svg"
   version="1.1"
   width="16"
   height="16"
   id="svg2"
   xml:space="preserve"><metadata
     id="metadata8"><rdf:RDF><cc:Work
         rdf:about=""><dc:format>image/svg+xml</dc:format><dc:type
           rdf:resource="http://purl.org/dc/dcmitype/StillImage" /><dc:title></dc:title></cc:Work></rdf:RDF></metadata><defs
     id="defs6"><clipPath
       id="clipPath16"><path
         d="m 12.187,43.877 c -2.353,0 -4.265,-1.798 -4.265,-4.006 l 0,0 0,-32.949 c 0,-2.207 1.912,-4.006 4.265,-4.006 l 0,0 25.997,0 c 2.355,0 4.265,1.799 4.265,4.006 l 0,0 0,32.949 c 0,2.208 -1.91,4.006 -4.265,4.006 l 0,0 -25.997,0 z"
         id="path18" /></clipPath><linearGradient
       x1="0"
       y1="0"
       x2="1"
       y2="0"
       id="linearGradient24"
       gradientUnits="userSpaceOnUse"
       gradientTransform="matrix(34.527344,0,0,-34.527344,7.921875,23.396484)"
       spreadMethod="pad"><stop
         id="stop26"
         style="stop-color:#e0dfdf;stop-opacity:1"
         offset="0" /><stop
         id="stop28"
         style="stop-color:#e1e1e1;stop-opacity:1"
         offset="0.54707402" /><stop
         id="stop30"
         style="stop-color:#ffffff;stop-opacity:1"
         offset="1" /></linearGradient><clipPath
       id="clipPath38"><path
         d="M 0,50 50,50 50,0 0,0 0,50 z"
         id="path40" /></clipPath><clipPath
       id="clipPath78"><path
         d="m 13.945,46.953 c -0.533,0 -1.006,-0.224 -1.416,-0.67 l 0,0 C 12.16,45.788 11.975,45.217 11.975,44.572 l 0,0 0,-2.38 c 0,-0.643 0.185,-1.188 0.554,-1.636 l 0,0 c 0.41,-0.495 0.883,-0.744 1.416,-0.744 l 0,0 0.061,0 c 0.534,0 0.984,0.249 1.354,0.744 l 0,0 c 0.41,0.448 0.615,0.993 0.615,1.636 l 0,0 0,2.38 c 0,0.645 -0.205,1.216 -0.615,1.711 l 0,0 c -0.37,0.446 -0.82,0.67 -1.354,0.67 l 0,0 -0.061,0 z m -0.555,-5.28 -0.184,0.074 0,3.347 0.062,0.074 0.369,0.149 0.677,0 0.37,-0.149 0.06,-0.074 0,-3.347 -0.06,-0.074 -0.863,-0.151 -0.431,0.151 z"
         id="path80" /></clipPath><linearGradient
       x1="0"
       y1="0"
       x2="1"
       y2="0"
       id="linearGradient86"
       gradientUnits="userSpaceOnUse"
       gradientTransform="matrix(0,-4.0329847,5.8478274,0,-262.60254,441.52881)"
       spreadMethod="pad"><stop
         id="stop88"
         style="stop-color:#fdbf67;stop-opacity:1"
         offset="0" /><stop
         id="stop90"
         style="stop-color:#9c6f3a;stop-opacity:1"
         offset="1" /></linearGradient><clipPath
       id="clipPath98"><path
         d="M 0,50 50,50 50,0 0,0 0,50 z"
         id="path100" /></clipPath><clipPath
       id="clipPath114"><path
         d="m 20.969,46.958 c -0.533,0 -1.005,-0.224 -1.416,-0.669 l 0,0 C 19.184,45.793 19,45.222 19,44.578 l 0,0 0,-2.381 c 0,-0.643 0.184,-1.188 0.553,-1.636 l 0,0 c 0.411,-0.495 0.883,-0.743 1.416,-0.743 l 0,0 0.062,0 c 0.534,0 0.985,0.248 1.353,0.743 l 0,0 C 22.795,41.009 23,41.554 23,42.197 l 0,0 0,2.381 c 0,0.644 -0.205,1.215 -0.616,1.711 l 0,0 c -0.368,0.445 -0.819,0.669 -1.353,0.669 l 0,0 -0.062,0 z m -0.554,-5.281 -0.185,0.076 0,3.346 0.062,0.075 0.369,0.148 0.677,0 0.37,-0.148 0.061,-0.075 0,-3.346 -0.061,-0.076 -0.862,-0.149 -0.431,0.149 z"
         id="path116" /></clipPath><linearGradient
       x1="0"
       y1="0"
       x2="1"
       y2="0"
       id="linearGradient122"
       gradientUnits="userSpaceOnUse"
       gradientTransform="matrix(0,-4.0329847,5.8478274,0,-262.60254,441.51465)"
       spreadMethod="pad"><stop
         id="stop124"
         style="stop-color:#fdbf67;stop-opacity:1"
         offset="0" /><stop
         id="stop126"
         style="stop-color:#9c6f3a;stop-opacity:1"
         offset="1" /></linearGradient><clipPath
       id="clipPath134"><path
         d="M 0,50 50,50 50,0 0,0 0,50 z"
         id="path136" /></clipPath><clipPath
       id="clipPath150"><path
         d="m 35.793,46.958 c -0.533,0 -1.006,-0.223 -1.416,-0.669 l 0,0 c -0.37,-0.496 -0.554,-1.067 -0.554,-1.71 l 0,0 0,-2.382 c 0,-0.642 0.184,-1.188 0.554,-1.636 l 0,0 c 0.41,-0.495 0.883,-0.742 1.416,-0.742 l 0,0 0.06,0 c 0.534,0 0.986,0.247 1.354,0.742 l 0,0 c 0.411,0.448 0.615,0.994 0.615,1.636 l 0,0 0,2.382 c 0,0.643 -0.204,1.214 -0.615,1.71 l 0,0 c -0.368,0.446 -0.82,0.669 -1.354,0.669 l 0,0 -0.06,0 z m -0.554,-5.28 -0.185,0.075 0,3.347 0.061,0.074 0.37,0.148 0.676,0 0.37,-0.148 0.062,-0.074 0,-3.347 -0.062,-0.075 -0.862,-0.149 -0.43,0.149 z"
         id="path152" /></clipPath><linearGradient
       x1="0"
       y1="0"
       x2="1"
       y2="0"
       id="linearGradient158"
       gradientUnits="userSpaceOnUse"
       gradientTransform="matrix(0,-4.0320001,5.8463998,0,-262.60254,441.48486)"
       spreadMethod="pad"><stop
         id="stop160"
         style="stop-color:#fdbf67;stop-opacity:1"
         offset="0" /><stop
         id="stop162"
         style="stop-color:#9c6f3a;stop-opacity:1"
         offset="1" /></linearGradient><clipPath
       id="clipPath170"><path
         d="M 0,50 50,50 50,0 0,0 0,50 z"
         id="path172" /></clipPath><clipPath
       id="clipPath186"><path
         d="m 28.312,46.958 c -0.533,0 -1.004,-0.223 -1.416,-0.669 l 0,0 c -0.369,-0.496 -0.552,-1.067 -0.552,-1.71 l 0,0 0,-2.382 c 0,-0.642 0.183,-1.188 0.552,-1.636 l 0,0 c 0.412,-0.495 0.883,-0.742 1.416,-0.742 l 0,0 0.062,0 c 0.533,0 0.984,0.247 1.354,0.742 l 0,0 c 0.41,0.448 0.615,0.994 0.615,1.636 l 0,0 0,2.382 c 0,0.643 -0.205,1.214 -0.615,1.71 l 0,0 c -0.37,0.446 -0.821,0.669 -1.354,0.669 l 0,0 -0.062,0 z m -0.553,-5.28 -0.185,0.075 0,3.347 0.061,0.074 0.37,0.148 0.676,0 0.37,-0.148 0.062,-0.074 0,-3.347 -0.062,-0.075 -0.86,-0.149 -0.432,0.149 z"
         id="path188" /></clipPath><linearGradient
       x1="0"
       y1="0"
       x2="1"
       y2="0"
       id="linearGradient194"
       gradientUnits="userSpaceOnUse"
       gradientTransform="matrix(0,-4.0320001,5.8463998,0,-262.60254,441.49951)"
       spreadMethod="pad"><stop
         id="stop196"
         style="stop-color:#fdbf67;stop-opacity:1"
         offset="0" /><stop
         id="stop198"
         style="stop-color:#9c6f3a;stop-opacity:1"
         offset="1" /></linearGradient></defs><g
     transform="matrix(1.25,0,0,-1.25,0,16)"
     id="g10"><g
       transform="matrix(0.27828335,0,0,0.27828335,-0.5222604,-0.45402958)"
       id="g12"><g
         clip-path="url(#clipPath16)"
         id="g14"><g
           id="g20"><g
             id="g22"><path
               d="m 12.187,43.877 c -2.353,0 -4.265,-1.798 -4.265,-4.006 l 0,0 0,-32.949 c 0,-2.207 1.912,-4.006 4.265,-4.006 l 0,0 25.997,0 c 2.355,0 4.265,1.799 4.265,4.006 l 0,0 0,32.949 c 0,2.208 -1.91,4.006 -4.265,4.006 l 0,0 -25.997,0 z"
               id="path32"
               style="fill:url(#linearGradient24);stroke:none" /></g></g></g></g><g
       transform="matrix(0.27828335,0,0,0.27828335,-0.5222604,-0.45402958)"
       id="g34"><g
         clip-path="url(#clipPath38)"
         id="g36"><g
           transform="translate(7.9219,39.8711)"
           id="g42"><path
             d="m 0,0 c 0,2.208 1.912,4.005 4.265,4.005 l 25.998,0 c 2.354,0 4.264,-1.797 4.264,-4.005 l 0,-32.949 c 0,-2.207 -1.91,-4.006 -4.264,-4.006 l -25.998,0 C 1.912,-36.955 0,-35.156 0,-32.949 L 0,0 z"
             id="path44"
             style="fill:none;stroke:#89c761;stroke-width:1.03400004;stroke-linecap:butt;stroke-linejoin:miter;stroke-miterlimit:4;stroke-opacity:1;stroke-dasharray:none" /></g><g
           transform="translate(41.7793,40.0522)"
           id="g46"><path
             d="m 0,0 c 0,1.695 -1.478,3.086 -3.287,3.086 l -26.614,0 c -1.804,0 -3.286,-1.391 -3.286,-3.086 l 0,-6.092 L 0,-6.092 0,0 z"
             id="path48"
             style="fill:#f1b85f;fill-opacity:1;fill-rule:nonzero;stroke:none" /></g><g
           transform="translate(38.2744,26.4805)"
           id="g50"><path
             d="m 0,0 -26.156,0 0,1.296 26.151,0 L 0,0 z"
             id="path52"
             style="fill:#b0b2bd;fill-opacity:1;fill-rule:nonzero;stroke:none" /></g><g
           transform="translate(38.2744,20.1934)"
           id="g54"><path
             d="m 0,0 -26.156,0 0,1.296 26.151,0 L 0,0 z"
             id="path56"
             style="fill:#b0b2bd;fill-opacity:1;fill-rule:nonzero;stroke:none" /></g><g
           transform="translate(38.2744,13.9072)"
           id="g58"><path
             d="m 0,0 -26.156,0 0,1.293 26.151,0 L 0,0 z"
             id="path60"
             style="fill:#b0b2bd;fill-opacity:1;fill-rule:nonzero;stroke:none" /></g><g
           transform="translate(38.2744,7.6182)"
           id="g62"><path
             d="m 0,0 -26.156,0 0,1.295 26.151,0 L 0,0 z"
             id="path64"
             style="fill:#b0b2bd;fill-opacity:1;fill-rule:nonzero;stroke:none" /></g><g
           transform="translate(12.7749,39.5596)"
           id="g66"><path
             d="m 0,0 c -0.328,0.165 -0.492,0.362 -0.492,0.595 l 0,1.934 3.323,0 0,-1.934 L 2.461,0 1.169,-0.248 0,0"
             id="path68"
             style="fill:#d7d6d6;fill-opacity:1;fill-rule:nonzero;stroke:none" /></g><g
           transform="translate(13.2061,41.3091)"
           id="g70"><path
             d="m 0,0 0,3.757 0.062,0.084 0.369,0.166 0.676,0 L 1.477,3.841 1.538,3.757 1.538,0 1.477,-0.083 0.615,-0.252 0.184,-0.083 0,0 z"
             id="path72"
             style="fill:#ffce43;fill-opacity:1;fill-rule:nonzero;stroke:none" /></g></g></g><g
       transform="matrix(0.27828335,0,0,0.27828335,-0.5222604,-0.45402958)"
       id="g74"><g
         clip-path="url(#clipPath78)"
         id="g76"><g
           id="g82"><g
             id="g84"><path
               d="m 13.945,46.953 c -0.533,0 -1.006,-0.224 -1.416,-0.67 l 0,0 C 12.16,45.788 11.975,45.217 11.975,44.572 l 0,0 0,-2.38 c 0,-0.643 0.185,-1.188 0.554,-1.636 l 0,0 c 0.41,-0.495 0.883,-0.744 1.416,-0.744 l 0,0 0.061,0 c 0.534,0 0.984,0.249 1.354,0.744 l 0,0 c 0.41,0.448 0.615,0.993 0.615,1.636 l 0,0 0,2.38 c 0,0.645 -0.205,1.216 -0.615,1.711 l 0,0 c -0.37,0.446 -0.82,0.67 -1.354,0.67 l 0,0 -0.061,0 z m -0.555,-5.28 -0.184,0.074 0,3.347 0.062,0.074 0.369,0.149 0.677,0 0.37,-0.149 0.06,-0.074 0,-3.347 -0.06,-0.074 -0.863,-0.151 -0.431,0.151 z"
               id="path92"
               style="fill:url(#linearGradient86);stroke:none" /></g></g></g></g><g
       transform="matrix(0.27828335,0,0,0.27828335,-0.5222604,-0.45402958)"
       id="g94"><g
         clip-path="url(#clipPath98)"
         id="g96"><g
           transform="translate(19.7998,39.5649)"
           id="g102"><path
             d="m 0,0 c -0.328,0.165 -0.492,0.362 -0.492,0.595 l 0,1.934 3.324,0 0,-1.934 L 2.462,0 1.169,-0.247 0,0"
             id="path104"
             style="fill:#d7d6d6;fill-opacity:1;fill-rule:nonzero;stroke:none" /></g><g
           transform="translate(20.2305,41.314)"
           id="g106"><path
             d="m 0,0 0,3.758 0.062,0.083 0.369,0.167 0.677,0 L 1.478,3.841 1.539,3.758 1.539,0 1.478,-0.083 0.616,-0.252 0.185,-0.083 0,0 z"
             id="path108"
             style="fill:#ffce43;fill-opacity:1;fill-rule:nonzero;stroke:none" /></g></g></g><g
       transform="matrix(0.27828335,0,0,0.27828335,-0.5222604,-0.45402958)"
       id="g110"><g
         clip-path="url(#clipPath114)"
         id="g112"><g
           id="g118"><g
             id="g120"><path
               d="m 20.969,46.958 c -0.533,0 -1.005,-0.224 -1.416,-0.669 l 0,0 C 19.184,45.793 19,45.222 19,44.578 l 0,0 0,-2.381 c 0,-0.643 0.184,-1.188 0.553,-1.636 l 0,0 c 0.411,-0.495 0.883,-0.743 1.416,-0.743 l 0,0 0.062,0 c 0.534,0 0.985,0.248 1.353,0.743 l 0,0 C 22.795,41.009 23,41.554 23,42.197 l 0,0 0,2.381 c 0,0.644 -0.205,1.215 -0.616,1.711 l 0,0 c -0.368,0.445 -0.819,0.669 -1.353,0.669 l 0,0 -0.062,0 z m -0.554,-5.281 -0.185,0.076 0,3.346 0.062,0.075 0.369,0.148 0.677,0 0.37,-0.148 0.061,-0.075 0,-3.346 -0.061,-0.076 -0.862,-0.149 -0.431,0.149 z"
               id="path128"
               style="fill:url(#linearGradient122);stroke:none" /></g></g></g></g><g
       transform="matrix(0.27828335,0,0,0.27828335,-0.5222604,-0.45402958)"
       id="g130"><g
         clip-path="url(#clipPath134)"
         id="g132"><g
           transform="translate(34.6221,39.5654)"
           id="g138"><path
             d="m 0,0 c -0.326,0.165 -0.491,0.362 -0.491,0.595 l 0,1.934 3.323,0 0,-1.934 L 2.462,0 1.171,-0.247 0,0"
             id="path140"
             style="fill:#d7d6d6;fill-opacity:1;fill-rule:nonzero;stroke:none" /></g><g
           transform="translate(35.0537,41.3145)"
           id="g142"><path
             d="m 0,0 0,3.758 0.062,0.083 0.37,0.167 0.675,0 L 1.478,3.841 1.539,3.758 1.539,0 1.478,-0.083 0.615,-0.252 0.185,-0.083 0,0 z"
             id="path144"
             style="fill:#ffce43;fill-opacity:1;fill-rule:nonzero;stroke:none" /></g></g></g><g
       transform="matrix(0.27828335,0,0,0.27828335,-0.5222604,-0.45402958)"
       id="g146"><g
         clip-path="url(#clipPath150)"
         id="g148"><g
           id="g154"><g
             id="g156"><path
               d="m 35.793,46.958 c -0.533,0 -1.006,-0.223 -1.416,-0.669 l 0,0 c -0.37,-0.496 -0.554,-1.067 -0.554,-1.71 l 0,0 0,-2.382 c 0,-0.642 0.184,-1.188 0.554,-1.636 l 0,0 c 0.41,-0.495 0.883,-0.742 1.416,-0.742 l 0,0 0.06,0 c 0.534,0 0.986,0.247 1.354,0.742 l 0,0 c 0.411,0.448 0.615,0.994 0.615,1.636 l 0,0 0,2.382 c 0,0.643 -0.204,1.214 -0.615,1.71 l 0,0 c -0.368,0.446 -0.82,0.669 -1.354,0.669 l 0,0 -0.06,0 z m -0.554,-5.28 -0.185,0.075 0,3.347 0.061,0.074 0.37,0.148 0.676,0 0.37,-0.148 0.062,-0.074 0,-3.347 -0.062,-0.075 -0.862,-0.149 -0.43,0.149 z"
               id="path164"
               style="fill:url(#linearGradient158);stroke:none" /></g></g></g></g><g
       transform="matrix(0.27828335,0,0,0.27828335,-0.5222604,-0.45402958)"
       id="g166"><g
         clip-path="url(#clipPath170)"
         id="g168"><g
           transform="translate(27.1436,39.5654)"
           id="g174"><path
             d="m 0,0 c -0.328,0.165 -0.492,0.362 -0.492,0.595 l 0,1.934 3.323,0 0,-1.934 L 2.461,0 1.169,-0.247 0,0"
             id="path176"
             style="fill:#d7d6d6;fill-opacity:1;fill-rule:nonzero;stroke:none" /></g><g
           transform="translate(27.5742,41.3145)"
           id="g178"><path
             d="m 0,0 0,3.758 0.062,0.083 0.369,0.167 0.676,0 L 1.477,3.841 1.539,3.758 1.539,0 1.477,-0.083 0.616,-0.252 0.185,-0.083 0,0 z"
             id="path180"
             style="fill:#ffce43;fill-opacity:1;fill-rule:nonzero;stroke:none" /></g></g></g><g
       transform="matrix(0.27828335,0,0,0.27828335,-0.5222604,-0.45402958)"
       id="g182"><g
         clip-path="url(#clipPath186)"
         id="g184"><g
           id="g190"><g
             id="g192"><path
               d="m 28.312,46.958 c -0.533,0 -1.004,-0.223 -1.416,-0.669 l 0,0 c -0.369,-0.496 -0.552,-1.067 -0.552,-1.71 l 0,0 0,-2.382 c 0,-0.642 0.183,-1.188 0.552,-1.636 l 0,0 c 0.412,-0.495 0.883,-0.742 1.416,-0.742 l 0,0 0.062,0 c 0.533,0 0.984,0.247 1.354,0.742 l 0,0 c 0.41,0.448 0.615,0.994 0.615,1.636 l 0,0 0,2.382 c 0,0.643 -0.205,1.214 -0.615,1.71 l 0,0 c -0.37,0.446 -0.821,0.669 -1.354,0.669 l 0,0 -0.062,0 z m -0.553,-5.28 -0.185,0.075 0,3.347 0.061,0.074 0.37,0.148 0.676,0 0.37,-0.148 0.062,-0.074 0,-3.347 -0.062,-0.075 -0.86,-0.149 -0.432,0.149 z"
               id="path200"
               style="fill:url(#linearGradient194);stroke:none" /></g></g></g></g></g></svg>