<?xml version="1.0" encoding="UTF-8"?><svg class="notebook" xmlns="http://www.w3.org/2000/svg" viewBox="0 0 512 512"><style><![CDATA[svg.notebook .Dz{stroke-linejoin:round}svg.notebook .Ez{stroke-miterlimit:10}svg.notebook .Fz{stroke:#111342}svg.notebook .Gz{fill:none}svg.notebook .Hz{stroke-linecap:round}svg.notebook .Iz{stroke-width:14.533}svg.notebook .Jz{fill:#1ad9b2}]]></style><g transform="matrix(1.095962 0 0 1.095962 -25.372744 -23.224239)"><g fill="#fff" class="Dz Ez Fz Iz"><path d="M116.23 42.6h208.98 31.49c20.06 0 36.45 16.4 36.45 36.45v306.72c0 20.03-16.4 36.45-36.45 36.45H116.23" class="Hz"/><path d="M48.3 385.77c0 20.05 16.4 36.45 36.45 36.45h240.47c20.05 0 36.45-16.4 36.45-36.45V79.05c0-20.05-16.4-36.45-36.45-36.45H84.75C64.7 42.6 48.3 59 48.3 79.05z"/></g><g class="Jz"><circle r="18.17" cy="141.31" cx="106.47"/><circle r="18.17" cy="235.14" cx="106.47"/></g><path d="M113.08 425.73h80.19v41.59h-80.19z" fill="#fff" class="Dz Ez Fz Iz"/><g class="Jz"><circle r="18.17" cy="334.19" cx="106.47"/><path d="M133.77 439.86h52.624v20.711H133.77z"/></g><g class="Fz Iz Dz Gz"><path d="M97.7 134.04H31.33m66.37 95.07H31.33m66.37 96.42H31.33" class="Ez Hz"/><circle r="23.61" cy="134.04" cx="99.21"/><circle r="23.61" cy="227.87" cx="99.21"/><circle r="23.61" cy="326.92" cx="99.21"/><path d="M165.29 133.43h151.72M165.29 206.1h151.72m-151.72 72.66h151.72m-151.72 72.67h151.72" class="Ez Hz"/></g></g><path d="M445.431 448.237h56.716v39.838h-56.716zm56.716-294.704h-56.716l26.38-67.577c.975-2.126 3.989-2.126 4.954 0z" stroke-width="17.706" class="Dz Ez Fz Jz"/><g stroke-width="15.928" class="Dz Ez Fz"><path d="M445.431 153.533h56.716v294.693h-56.716z" fill="#fff"/><path d="M473.805 163.308v284.917" class="Gz Hz"/></g></svg>
