<svg xmlns="http://www.w3.org/2000/svg" xmlns:xlink="http://www.w3.org/1999/xlink" width="24" height="22.76" viewBox="0 0 24 22.76">
  <defs>
    <clipPath id="clip-path">
      <path id="Rectangle_222" data-name="Rectangle 222" d="M11.38,0H24a0,0,0,0,1,0,0V22.76a0,0,0,0,1,0,0H11.38A11.38,11.38,0,0,1,0,11.38v0A11.38,11.38,0,0,1,11.38,0Z" fill="#fa0" opacity="0.2"/>
    </clipPath>
  </defs>
  <g id="Mask_Group_6" data-name="Mask Group 6" clip-path="url(#clip-path)">
    <path id="__TEMP__SVG__" d="M13.129,1.129c-6.627,0-12,5.1-12,11.38s5.373,11.38,12,11.38,12-5.093,12-11.38S19.756,1.129,13.129,1.129Zm0,20.557a9.432,9.432,0,0,1-9.677-9.177,9.434,9.434,0,0,1,9.677-9.177,9.434,9.434,0,0,1,9.677,9.177A9.432,9.432,0,0,1,13.129,21.686Zm5.189-11.71c0,3.077-3.5,3.124-3.5,4.261v.291a.567.567,0,0,1-.581.551H12.023a.567.567,0,0,1-.581-.551v-.4c0-1.641,1.311-2.3,2.3-2.823.85-.451,1.371-.759,1.371-1.358,0-.791-1.064-1.317-1.925-1.317a2.8,2.8,0,0,0-2.368,1.375.6.6,0,0,1-.806.1L8.67,9.139a.534.534,0,0,1-.128-.751A5.52,5.52,0,0,1,13.41,5.9c2.374,0,4.908,1.758,4.908,4.074Zm-3.157,7.672a2.035,2.035,0,1,1-2.033-1.928A1.984,1.984,0,0,1,15.162,17.648Z" transform="translate(-1.129 -1.129)" fill="#fa0"/>
  </g>
</svg>
