<svg id="book-open" xmlns="http://www.w3.org/2000/svg" width="24.2" height="22" viewBox="0 0 24.2 22">
  <path id="Path_912" data-name="Path 912" d="M13.6,25a1.039,1.039,0,0,1-1.1-1.1,2.206,2.206,0,0,0-2.2-2.2H2.6a1.039,1.039,0,0,1-1.1-1.1V4.1A1.039,1.039,0,0,1,2.6,3H9.2a5.447,5.447,0,0,1,5.5,5.5V23.9A1.039,1.039,0,0,1,13.6,25ZM3.7,19.5h6.6a5.007,5.007,0,0,1,2.2.55V8.5A3.241,3.241,0,0,0,9.2,5.2H3.7Z" transform="translate(-1.5 -3)" fill="#7fdaa1"/>
  <path id="Path_913" data-name="Path 913" d="M17.6,25a1.039,1.039,0,0,1-1.1-1.1V8.5A5.447,5.447,0,0,1,22,3h6.6a1.039,1.039,0,0,1,1.1,1.1V20.6a1.039,1.039,0,0,1-1.1,1.1H20.9a2.206,2.206,0,0,0-2.2,2.2A1.039,1.039,0,0,1,17.6,25ZM22,5.2a3.241,3.241,0,0,0-3.3,3.3V20.05a5.007,5.007,0,0,1,2.2-.55h6.6V5.2Z" transform="translate(-5.5 -3)" fill="#7fdaa1"/>
</svg>
