<svg xmlns="http://www.w3.org/2000/svg" width="21" height="24" viewBox="0 0 21 24">
  <path id="cog" d="M21.46,15.2l-1.884-1.19a10.18,10.18,0,0,0,0-3.4l1.884-1.19a.612.612,0,0,0,.243-.678,12.363,12.363,0,0,0-2.42-4.577.5.5,0,0,0-.654-.111l-1.884,1.19a8.2,8.2,0,0,0-2.689-1.7V1.173a.57.57,0,0,0-.416-.566,10.188,10.188,0,0,0-4.83,0,.57.57,0,0,0-.416.566V3.554a8.465,8.465,0,0,0-2.689,1.7L3.827,4.062a.494.494,0,0,0-.654.111A12.3,12.3,0,0,0,.753,8.75.6.6,0,0,0,1,9.428l1.884,1.19a10.18,10.18,0,0,0,0,3.4L1,15.205a.612.612,0,0,0-.243.678,12.363,12.363,0,0,0,2.42,4.577.5.5,0,0,0,.654.111l1.884-1.19a8.2,8.2,0,0,0,2.689,1.7V23.46a.57.57,0,0,0,.416.566,10.188,10.188,0,0,0,4.83,0,.57.57,0,0,0,.416-.566V21.079a8.465,8.465,0,0,0,2.689-1.7l1.884,1.19a.494.494,0,0,0,.654-.111,12.3,12.3,0,0,0,2.42-4.577.622.622,0,0,0-.248-.683Zm-10.234.982a3.72,3.72,0,0,1-3.538-3.871,3.72,3.72,0,0,1,3.538-3.871,3.72,3.72,0,0,1,3.538,3.871A3.72,3.72,0,0,1,11.226,16.183Z" transform="translate(-0.728 -0.317)" fill="#cc7fe2"/>
</svg>
