<?xml version="1.0" encoding="UTF-8" standalone="no"?>
<!-- Created with Inkscape (http://www.inkscape.org/) -->

<svg
   xmlns:dc="http://purl.org/dc/elements/1.1/"
   xmlns:cc="http://creativecommons.org/ns#"
   xmlns:rdf="http://www.w3.org/1999/02/22-rdf-syntax-ns#"
   xmlns:svg="http://www.w3.org/2000/svg"
   xmlns="http://www.w3.org/2000/svg"
   version="1.1"
   width="16"
   height="16"
   id="svg2"
   xml:space="preserve"><metadata
     id="metadata8"><rdf:RDF><cc:Work
         rdf:about=""><dc:format>image/svg+xml</dc:format><dc:type
           rdf:resource="http://purl.org/dc/dcmitype/StillImage" /><dc:title></dc:title></cc:Work></rdf:RDF></metadata><defs
     id="defs6"><clipPath
       id="clipPath16"><path
         d="m 0,31.583 26.25,0 L 26.25,0 0,0 0,31.583 z"
         id="path18" /></clipPath><clipPath
       id="clipPath24"><path
         d="m 3.17383,25.0522 20.90137,0 0,-23.65279 -20.90137,0 0,23.65279 z"
         id="path26" /></clipPath><clipPath
       id="clipPath40"><path
         d="m 3.32422,24.9497 20.60058,0 0,-23.3999 -20.60058,0 0,23.3999 z"
         id="path42" /></clipPath><clipPath
       id="clipPath56"><path
         d="m 3.4248,24.7993 20.3501,0 0,-23.14989 -20.3501,0 0,23.14989 z"
         id="path58" /></clipPath><clipPath
       id="clipPath76"><path
         d="M 4.825,26.05 C 3.058,26.05 2.174,25.2 2.174,23.5 l 0,0 0,-17.55 c 0,-1.668 0.884,-2.499 2.651,-2.499 l 0,0 14.5,0 c 1.767,0 2.65,0.831 2.65,2.499 l 0,0 0,17.55 c 0,1.7 -0.883,2.55 -2.65,2.55 l 0,0 -14.5,0 z"
         id="path78" /></clipPath><linearGradient
       x1="0"
       y1="0"
       x2="1"
       y2="0"
       id="linearGradient84"
       gradientUnits="userSpaceOnUse"
       gradientTransform="matrix(0,-21.574892,23.699692,0,12.074707,25.536621)"
       spreadMethod="pad"><stop
         id="stop86"
         style="stop-color:#cf7a27;stop-opacity:1"
         offset="0" /><stop
         id="stop88"
         style="stop-color:#fcca58;stop-opacity:1"
         offset="1" /></linearGradient><clipPath
       id="clipPath96"><path
         d="m 0,31.583 26.25,0 L 26.25,0 0,0 0,31.583 z"
         id="path98" /></clipPath><clipPath
       id="clipPath104"><path
         d="m 6.0752,23.0493 13.8999,0 0,-17.76512 -13.8999,0 0,17.76512 z"
         id="path106" /></clipPath><clipPath
       id="clipPath120"><path
         d="M 4.975,21.65 C 6.541,16.316 7.092,11.149 6.625,6.15 l 0,0 12.65,1.35 c -1.833,5.166 -2.384,10.333 -1.65,15.499 l 0,0 -12.65,-1.349 z"
         id="path122" /></clipPath><linearGradient
       x1="0"
       y1="0"
       x2="1"
       y2="0"
       id="linearGradient128"
       gradientUnits="userSpaceOnUse"
       gradientTransform="matrix(1.9691284,-19.199003,16.081217,1.6409405,11.138672,24.192383)"
       spreadMethod="pad"><stop
         id="stop130"
         style="stop-color:#ffffff;stop-opacity:1"
         offset="0" /><stop
         id="stop132"
         style="stop-color:#e1e1e1;stop-opacity:1"
         offset="1" /></linearGradient><clipPath
       id="clipPath140"><path
         d="m 0,31.583 26.25,0 L 26.25,0 0,0 0,31.583 z"
         id="path142" /></clipPath><clipPath
       id="clipPath152"><path
         d="m 10.4731,21.9497 7.0093,0 0,-5.5 -7.0093,0 0,5.5 z"
         id="path154" /></clipPath><clipPath
       id="clipPath168"><path
         d="m 10.7725,21.6494 6.4043,0 0,-4.8501 -6.4043,0 0,4.8501 z"
         id="path170" /></clipPath><clipPath
       id="clipPath184"><path
         d="m 11.0752,21.3496 5.8022,0 0,-4.25 -5.8022,0 0,4.25 z"
         id="path186" /></clipPath><clipPath
       id="clipPath200"><path
         d="m 12.5718,20.7495 3.2573,0 0,-2.7002 -3.2573,0 0,2.7002 z"
         id="path202" /></clipPath><clipPath
       id="clipPath216"><path
         d="m 12.9248,20.3496 2.5503,0 0,-1.8999 -2.5503,0 0,1.8999 z"
         id="path218" /></clipPath><clipPath
       id="clipPath232"><path
         d="m 12.7705,20.5493 2.9043,0 0,-2.2998 -2.9043,0 0,2.2998 z"
         id="path234" /></clipPath><clipPath
       id="clipPath280"><path
         d="m 18.875,30.199 -5.55,-10.799 0.05,0 0.35,-0.2 0.7,-0.301 0.3,0 8.1,8.951 c 0,1.899 -0.667,2.866 -2,2.899 l 0,0 c -0.733,-0.033 -1.383,-0.216 -1.95,-0.55"
         id="path282" /></clipPath><linearGradient
       x1="0"
       y1="0"
       x2="1"
       y2="0"
       id="linearGradient288"
       gradientUnits="userSpaceOnUse"
       gradientTransform="matrix(-9.1750422,5.4067211,-7.8643217,-13.598723,-253.31494,417.78125)"
       spreadMethod="pad"><stop
         id="stop290"
         style="stop-color:#000000;stop-opacity:1"
         offset="0" /><stop
         id="stop292"
         style="stop-color:#ffffff;stop-opacity:1"
         offset="1" /></linearGradient><clipPath
       id="clipPath300"><path
         d="m 0,31.583 26.25,0 L 26.25,0 0,0 0,31.583 z"
         id="path302" /></clipPath><clipPath
       id="clipPath308"><path
         d="m 18.8364,30.9839 4.127,0 0,-3.8511 -4.127,0 0,3.8511 z"
         id="path310" /></clipPath><clipPath
       id="clipPath324"><path
         d="m 13.7251,28.5493 5.1997,0 0,-9.0498 -5.1997,0 0,9.0498 z"
         id="path326" /></clipPath></defs><g
     transform="matrix(1.25,0,0,-1.25,0,16.000002)"
     id="g10"><g
       transform="matrix(0.41913982,0,0,0.41913982,1.0570277,-0.39152255)"
       id="g12"><g
         clip-path="url(#clipPath16)"
         id="g14"><g
           id="g20"><g
             id="g22" /><g
             id="g28"><g
               clip-path="url(#clipPath24)"
               id="g30"
               style="opacity:0.24705499"><g
                 transform="translate(24.0752,21.9995)"
                 id="g32"><path
                   d="m 0,0 0,-17.549 c 0,-1 -0.284,-1.768 -0.85,-2.301 -0.533,-0.5 -1.317,-0.75 -2.35,-0.75 l -14.5,0 c -2.167,0 -3.234,1.016 -3.2,3.051 L -20.9,0 c -0.034,2.067 1.033,3.083 3.2,3.05 l 14.5,0 C -2.167,3.083 -1.383,2.833 -0.85,2.3 -0.284,1.8 0,1.033 0,0 m -0.15,0 c 0,1 -0.267,1.733 -0.8,2.2 -0.5,0.5 -1.25,0.75 -2.25,0.75 l -14.5,0 c -2.067,0 -3.084,-0.983 -3.05,-2.95 l 0,-17.549 c -0.034,-1.934 0.983,-2.901 3.05,-2.901 l 14.5,0 c 1,0 1.75,0.233 2.25,0.7 0.533,0.5 0.8,1.234 0.8,2.201 L -0.15,0"
                   id="path34"
                   style="fill:#cccccc;fill-opacity:1;fill-rule:nonzero;stroke:none" /></g></g></g></g><g
           id="g36"><g
             id="g38" /><g
             id="g44"><g
               clip-path="url(#clipPath40)"
               id="g46"
               style="opacity:0.49803204"><g
                 transform="translate(23.9248,21.9995)"
                 id="g48"><path
                   d="m 0,0 0,-17.549 c 0,-0.967 -0.267,-1.701 -0.8,-2.201 -0.5,-0.467 -1.25,-0.7 -2.25,-0.7 l -14.5,0 c -2.067,0 -3.083,0.967 -3.05,2.901 L -20.6,0 c -0.033,1.967 0.983,2.95 3.05,2.95 l 14.5,0 c 1,0 1.75,-0.25 2.25,-0.75 C -0.267,1.733 0,1 0,0 m -0.15,0 c 0,0.933 -0.233,1.633 -0.7,2.1 -0.5,0.467 -1.233,0.7 -2.2,0.7 l -14.5,0 C -19.517,2.8 -20.5,1.867 -20.5,0 l 0,-17.549 c 0,-1.868 0.983,-2.801 2.95,-2.801 l 14.5,0 c 0.967,0 1.7,0.232 2.2,0.699 0.467,0.467 0.7,1.168 0.7,2.102 L -0.15,0"
                   id="path50"
                   style="fill:#cccccc;fill-opacity:1;fill-rule:nonzero;stroke:none" /></g></g></g></g><g
           id="g52"><g
             id="g54" /><g
             id="g60"><g
               clip-path="url(#clipPath56)"
               id="g62"
               style="opacity:0.74902302"><g
                 transform="translate(23.7749,21.9995)"
                 id="g64"><path
                   d="m 0,0 0,-17.549 c 0,-0.934 -0.233,-1.635 -0.7,-2.102 -0.5,-0.467 -1.233,-0.699 -2.2,-0.699 l -14.5,0 c -1.967,0 -2.95,0.933 -2.95,2.801 l 0,17.549 c 0,1.867 0.983,2.8 2.95,2.8 l 14.5,0 c 0.967,0 1.7,-0.233 2.2,-0.7 C -0.233,1.633 0,0.933 0,0 m -0.1,0 c 0,0.9 -0.233,1.567 -0.7,2 -0.467,0.433 -1.167,0.65 -2.1,0.65 l -14.5,0 c -1.867,0 -2.8,-0.883 -2.8,-2.65 l 0,-17.549 c 0,-1.768 0.933,-2.651 2.8,-2.651 l 14.5,0 c 0.933,0 1.633,0.217 2.1,0.651 0.467,0.465 0.7,1.132 0.7,2 L -0.1,0"
                   id="path66"
                   style="fill:#cccccc;fill-opacity:1;fill-rule:nonzero;stroke:none" /></g></g></g></g><g
           transform="translate(23.6748,21.9995)"
           id="g68"><path
             d="m 0,0 0,-17.549 c 0,-0.868 -0.233,-1.535 -0.7,-2 -0.467,-0.434 -1.167,-0.651 -2.1,-0.651 l -14.5,0 c -1.867,0 -2.8,0.883 -2.8,2.651 L -20.1,0 c 0,1.767 0.933,2.65 2.8,2.65 l 14.5,0 C -1.867,2.65 -1.167,2.433 -0.7,2 -0.233,1.567 0,0.9 0,0"
             id="path70"
             style="fill:#cccccc;fill-opacity:1;fill-rule:nonzero;stroke:none" /></g></g></g><g
       transform="matrix(0.41913982,0,0,0.41913982,1.0570277,-0.39152255)"
       id="g72"><g
         clip-path="url(#clipPath76)"
         id="g74"><g
           id="g80"><g
             id="g82"><path
               d="M 4.825,26.05 C 3.058,26.05 2.174,25.2 2.174,23.5 l 0,0 0,-17.55 c 0,-1.668 0.884,-2.499 2.651,-2.499 l 0,0 14.5,0 c 1.767,0 2.65,0.831 2.65,2.499 l 0,0 0,17.55 c 0,1.7 -0.883,2.55 -2.65,2.55 l 0,0 -14.5,0 z"
               id="path90"
               style="fill:url(#linearGradient84);stroke:none" /></g></g></g></g><g
       transform="matrix(0.41913982,0,0,0.41913982,1.0570277,-0.39152255)"
       id="g92"><g
         clip-path="url(#clipPath96)"
         id="g94"><g
           id="g100"><g
             id="g102" /><g
             id="g108"><g
               clip-path="url(#clipPath104)"
               id="g110"
               style="opacity:0.50196802"><g
                 transform="translate(19.7251,6.7993)"
                 id="g112"><path
                   d="m 0,0 c -3.833,-1.433 -7.817,-1.849 -11.95,-1.25 0.533,5.434 -0.033,10.85 -1.7,16.25 l 11.9,1.25 0.3,-0.05 0.15,-4.05 C -1.333,9.517 -1.067,6.883 -0.5,4.25 L 0.25,0.15 0,0"
                   id="path114"
                   style="fill:#b16a23;fill-opacity:1;fill-rule:nonzero;stroke:none" /></g></g></g></g></g></g><g
       transform="matrix(0.41913982,0,0,0.41913982,1.0570277,-0.39152255)"
       id="g116"><g
         clip-path="url(#clipPath120)"
         id="g118"><g
           id="g124"><g
             id="g126"><path
               d="M 4.975,21.65 C 6.541,16.316 7.092,11.149 6.625,6.15 l 0,0 12.65,1.35 c -1.833,5.166 -2.384,10.333 -1.65,15.499 l 0,0 -12.65,-1.349 z"
               id="path134"
               style="fill:url(#linearGradient128);stroke:none" /></g></g></g></g><g
       transform="matrix(0.41913982,0,0,0.41913982,1.0570277,-0.39152255)"
       id="g136"><g
         clip-path="url(#clipPath140)"
         id="g138"><g
           transform="translate(11.375,19.1997)"
           id="g144"><path
             d="M 0,0 C 0,0.5 0.267,0.95 0.8,1.35 1.3,1.683 1.9,1.833 2.6,1.8 3.3,1.833 3.883,1.683 4.35,1.35 4.917,0.983 5.2,0.533 5.2,0 5.2,-0.5 4.917,-0.934 4.35,-1.3 3.883,-1.633 3.3,-1.8 2.6,-1.8 1.9,-1.8 1.3,-1.633 0.8,-1.3 0.267,-0.934 0,-0.5 0,0"
             id="path146"
             style="fill:#cccccc;fill-opacity:1;fill-rule:nonzero;stroke:none" /></g><g
           id="g148"><g
             id="g150" /><g
             id="g156"><g
               clip-path="url(#clipPath152)"
               id="g158"
               style="opacity:0.24705499"><g
                 transform="translate(16.125,21.0493)"
                 id="g160"><path
                   d="M 0,0 -0.05,0 C -0.617,0.4 -1.317,0.6 -2.15,0.6 -2.983,0.6 -3.7,0.417 -4.3,0.05 l -0.05,-0.1 c -0.7,-0.5 -1.033,-1.1 -1,-1.8 -0.033,-0.7 0.317,-1.3 1.05,-1.8 0.6,-0.4 1.317,-0.6 2.15,-0.6 0.867,0 1.583,0.217 2.15,0.65 l -0.05,-0.05 c 0.767,0.5 1.133,1.1 1.1,1.8 C 1.083,-1.15 0.733,-0.533 0,0 m 0.15,0.3 0,-0.05 c 0.867,-0.6 1.267,-1.3 1.2,-2.1 C 1.417,-2.65 1,-3.333 0.1,-3.9 c -0.6,-0.467 -1.35,-0.7 -2.25,-0.7 -0.9,0 -1.667,0.25 -2.3,0.75 -0.833,0.534 -1.233,1.2 -1.2,2 -0.033,0.8 0.35,1.483 1.15,2.05 l 0.05,0.1 c 0.667,0.4 1.433,0.6 2.3,0.6 0.9,0 1.667,-0.2 2.3,-0.6"
                   id="path162"
                   style="fill:#cccccc;fill-opacity:1;fill-rule:nonzero;stroke:none" /></g></g></g></g><g
           id="g164"><g
             id="g166" /><g
             id="g172"><g
               clip-path="url(#clipPath168)"
               id="g174"
               style="opacity:0.49803204"><g
                 transform="translate(15.9248,20.7993)"
                 id="g176"><path
                   d="M 0,0 C -0.533,0.367 -1.183,0.55 -1.95,0.55 -2.683,0.55 -3.333,0.367 -3.9,0 l -0.05,0 c -0.6,-0.466 -0.9,-1 -0.9,-1.6 0,-0.6 0.317,-1.116 0.95,-1.55 0.533,-0.367 1.184,-0.55 1.95,-0.55 0.767,0 1.4,0.183 1.9,0.55 l 0.1,0.05 c 0.634,0.433 0.933,0.933 0.9,1.5 C 0.983,-1 0.667,-0.466 0,0 M 0.2,0.25 C 0.934,-0.283 1.284,-0.9 1.25,-1.6 1.284,-2.3 0.917,-2.9 0.15,-3.4 L 0.2,-3.35 C -0.367,-3.783 -1.083,-4 -1.95,-4 c -0.833,0 -1.55,0.2 -2.15,0.6 -0.733,0.5 -1.083,1.1 -1.05,1.8 -0.033,0.7 0.3,1.3 1,1.8 l 0.05,0.1 c 0.6,0.367 1.317,0.55 2.15,0.55 0.833,0 1.533,-0.2 2.1,-0.6 l 0.05,0"
                   id="path178"
                   style="fill:#cccccc;fill-opacity:1;fill-rule:nonzero;stroke:none" /></g></g></g></g><g
           id="g180"><g
             id="g182" /><g
             id="g188"><g
               clip-path="url(#clipPath184)"
               id="g190"
               style="opacity:0.74902302"><g
                 transform="translate(11.375,19.1997)"
                 id="g192"><path
                   d="m 0,0 c 0,-0.5 0.267,-0.934 0.8,-1.3 0.5,-0.333 1.1,-0.5 1.8,-0.5 0.7,0 1.283,0.167 1.75,0.5 C 4.917,-0.934 5.2,-0.5 5.2,0 5.2,0.533 4.917,0.983 4.35,1.35 3.883,1.683 3.3,1.833 2.6,1.8 1.9,1.833 1.3,1.683 0.8,1.35 0.267,0.95 0,0.5 0,0 M 4.55,1.6 C 5.217,1.133 5.533,0.6 5.5,0 5.533,-0.567 5.233,-1.067 4.6,-1.5 L 4.5,-1.55 C 4,-1.917 3.367,-2.1 2.6,-2.1 1.833,-2.1 1.183,-1.917 0.65,-1.55 0.017,-1.117 -0.3,-0.6 -0.3,0 -0.3,0.6 0,1.133 0.6,1.6 l 0.05,0 C 1.217,1.966 1.867,2.15 2.6,2.15 3.367,2.15 4.017,1.966 4.55,1.6"
                   id="path194"
                   style="fill:#cccccc;fill-opacity:1;fill-rule:nonzero;stroke:none" /></g></g></g></g><g
           id="g196"><g
             id="g198" /><g
             id="g204"><g
               clip-path="url(#clipPath200)"
               id="g206"
               style="opacity:0.24705499"><g
                 transform="translate(13.2749,20.2993)"
                 id="g208"><path
                   d="M 0,0 C -0.367,-0.233 -0.533,-0.533 -0.5,-0.9 -0.533,-1.233 -0.367,-1.517 0,-1.75 l 0.95,-0.3 0.9,0.3 C 2.217,-1.517 2.4,-1.233 2.4,-0.9 2.4,-0.533 2.217,-0.233 1.85,0 L 0.95,0.25 C 0.55,0.25 0.233,0.167 0,0 M 2,0.15 C 2.4,-0.117 2.583,-0.466 2.55,-0.9 2.583,-1.3 2.4,-1.633 2,-1.9 l 0,-0.05 -1.05,-0.3 c -0.433,0 -0.783,0.1 -1.05,0.3 l 0,0.05 c -0.433,0.267 -0.633,0.6 -0.6,1 -0.033,0.434 0.167,0.783 0.6,1.05 0.267,0.2 0.617,0.3 1.05,0.3 L 2,0.15"
                   id="path210"
                   style="fill:#333333;fill-opacity:1;fill-rule:nonzero;stroke:none" /></g></g></g></g><g
           id="g212"><g
             id="g214" /><g
             id="g220"><g
               clip-path="url(#clipPath216)"
               id="g222"
               style="opacity:0.74902302"><g
                 transform="translate(13.4751,19.9497)"
                 id="g224"><path
                   d="m 0,0 c -0.233,-0.133 -0.35,-0.317 -0.35,-0.55 0,-0.2 0.117,-0.384 0.35,-0.55 0.2,-0.133 0.45,-0.2 0.75,-0.2 l 0.7,0.2 0.35,0.55 C 1.8,-0.317 1.683,-0.133 1.45,0 L 0.75,0.2 C 0.45,0.233 0.2,0.167 0,0 M -0.1,0.15 C 0.133,0.316 0.417,0.4 0.75,0.4 L 1.55,0.15 C 1.85,-0.017 2,-0.25 2,-0.55 L 1.55,-1.25 0.75,-1.5 -0.1,-1.25 c -0.3,0.2 -0.45,0.433 -0.45,0.7 0,0.3 0.15,0.533 0.45,0.7"
                   id="path226"
                   style="fill:#333333;fill-opacity:1;fill-rule:nonzero;stroke:none" /></g></g></g></g><g
           id="g228"><g
             id="g230" /><g
             id="g236"><g
               clip-path="url(#clipPath232)"
               id="g238"
               style="opacity:0.49803204"><g
                 transform="translate(13.2749,20.2993)"
                 id="g240"><path
                   d="M 0,0 C 0.233,0.167 0.55,0.25 0.95,0.25 L 1.85,0 C 2.217,-0.233 2.4,-0.533 2.4,-0.9 2.4,-1.233 2.217,-1.517 1.85,-1.75 L 0.95,-2.05 0,-1.75 c -0.367,0.233 -0.533,0.517 -0.5,0.85 -0.033,0.367 0.133,0.667 0.5,0.9 m 0.1,-0.2 c -0.3,-0.167 -0.45,-0.4 -0.45,-0.7 0,-0.267 0.15,-0.5 0.45,-0.7 l 0.85,-0.25 0.8,0.25 0.45,0.7 c 0,0.3 -0.15,0.533 -0.45,0.7 L 0.95,0.05 C 0.617,0.05 0.333,-0.033 0.1,-0.2"
                   id="path242"
                   style="fill:#333333;fill-opacity:1;fill-rule:nonzero;stroke:none" /></g></g></g></g><g
           transform="translate(2.4751,24.4497)"
           id="g244"><path
             d="M 0,0 0,-19"
             id="path246"
             style="fill:none;stroke:#ffffff;stroke-width:0.5;stroke-linecap:round;stroke-linejoin:round;stroke-miterlimit:4;stroke-opacity:1;stroke-dasharray:none" /></g><g
           transform="translate(4.8252,26.0493)"
           id="g248"><path
             d="m 0,0 c -1.767,0 -2.65,-0.833 -2.65,-2.5 l 0,-17.599 c 0.3,-1.5 1.183,-2.334 2.65,-2.5 l 0.45,0 14.05,0 c 1.767,0 2.65,0.832 2.65,2.5 l 0,17.599 C 17.15,-0.833 16.267,0 14.5,0 L 0,0"
             id="path250"
             style="fill:none;stroke:#8f6114;stroke-width:0.5;stroke-linecap:round;stroke-linejoin:round;stroke-miterlimit:4;stroke-opacity:1;stroke-dasharray:none" /></g><g
           transform="translate(19.3252,7.5493)"
           id="g252"><path
             d="m 0,0 -12.65,-1.35 c 0.167,5.167 -0.384,10.333 -1.65,15.5 L -1.65,15.5 C -2.017,10.333 -1.467,5.167 0,0"
             id="path254"
             style="fill:none;stroke:#8d7147;stroke-width:0.75;stroke-linecap:round;stroke-linejoin:round;stroke-miterlimit:4;stroke-opacity:1;stroke-dasharray:none" /></g><g
           transform="translate(7.6748,17.1997)"
           id="g256"><path
             d="M 0,0 8.15,0.85"
             id="path258"
             style="fill:none;stroke:#cccccc;stroke-width:0.75;stroke-linecap:round;stroke-linejoin:round;stroke-miterlimit:4;stroke-opacity:1;stroke-dasharray:none" /></g><g
           transform="translate(7.9751,14.3994)"
           id="g260"><path
             d="M 0,0 8.15,0.85"
             id="path262"
             style="fill:none;stroke:#cccccc;stroke-width:0.75;stroke-linecap:round;stroke-linejoin:round;stroke-miterlimit:4;stroke-opacity:1;stroke-dasharray:none" /></g><g
           transform="translate(8.1748,11.9497)"
           id="g264"><path
             d="M 0,0 8.2,0.85"
             id="path266"
             style="fill:none;stroke:#cccccc;stroke-width:0.75;stroke-linecap:round;stroke-linejoin:round;stroke-miterlimit:4;stroke-opacity:1;stroke-dasharray:none" /></g><g
           transform="translate(8.4248,9.5493)"
           id="g268"><path
             d="M 0,0 8.2,0.85"
             id="path270"
             style="fill:none;stroke:#cccccc;stroke-width:0.75;stroke-linecap:round;stroke-linejoin:round;stroke-miterlimit:4;stroke-opacity:1;stroke-dasharray:none" /></g><g
           transform="translate(13.4751,19.9497)"
           id="g272"><path
             d="M 0,0 C 0.2,0.167 0.45,0.233 0.75,0.2 L 1.45,0 C 1.683,-0.133 1.8,-0.317 1.8,-0.55 L 1.45,-1.1 0.75,-1.3 c -0.3,0 -0.55,0.067 -0.75,0.2 -0.233,0.166 -0.35,0.35 -0.35,0.55 0,0.233 0.117,0.417 0.35,0.55"
             id="path274"
             style="fill:#333333;fill-opacity:1;fill-rule:nonzero;stroke:none" /></g></g></g><g
       transform="matrix(0.41913982,0,0,0.41913982,1.0570277,-0.39152255)"
       id="g276"><g
         clip-path="url(#clipPath280)"
         id="g278"><g
           id="g284"><g
             id="g286"><path
               d="m 18.875,30.199 -5.55,-10.799 0.05,0 0.35,-0.2 0.7,-0.301 0.3,0 8.1,8.951 c 0,1.899 -0.667,2.866 -2,2.899 l 0,0 c -0.733,-0.033 -1.383,-0.216 -1.95,-0.55"
               id="path294"
               style="fill:url(#linearGradient288);stroke:none" /></g></g></g></g><g
       transform="matrix(0.41913982,0,0,0.41913982,1.0570277,-0.39152255)"
       id="g296"><g
         clip-path="url(#clipPath300)"
         id="g298"><g
           id="g304"><g
             id="g306" /><g
             id="g312"><g
               clip-path="url(#clipPath308)"
               id="g314"
               style="opacity:0.49803204"><g
                 transform="translate(22.8252,29.3496)"
                 id="g316"><path
                   d="m 0,0 c 0.2,-0.533 0.183,-1.017 -0.05,-1.45 -0.234,-0.4 -0.617,-0.65 -1.15,-0.75 -0.533,-0.067 -1.067,0.067 -1.6,0.4 -0.5,0.3 -0.85,0.733 -1.05,1.3 -0.2,0.5 -0.184,0.967 0.05,1.4 0.233,0.4 0.6,0.633 1.1,0.7 0.533,0.1 1.067,-0.017 1.6,-0.35 C -0.6,0.917 -0.233,0.5 0,0"
                   id="path318"
                   style="fill:#ffffff;fill-opacity:1;fill-rule:nonzero;stroke:none" /></g></g></g></g><g
           id="g320"><g
             id="g322" /><g
             id="g328"><g
               clip-path="url(#clipPath324)"
               id="g330"
               style="opacity:0.60000598"><g
                 transform="translate(13.9751,19.7495)"
                 id="g332"><path
                   d="M 0,0 4.7,8.55"
                   id="path334"
                   style="fill:none;stroke:#ffffff;stroke-width:0.5;stroke-linecap:round;stroke-linejoin:round;stroke-miterlimit:4;stroke-opacity:1;stroke-dasharray:none" /></g></g></g></g></g></g></g></svg>