<?xml version="1.0" encoding="UTF-8" standalone="no"?>
<svg
   xmlns:dc="http://purl.org/dc/elements/1.1/"
   xmlns:cc="http://creativecommons.org/ns#"
   xmlns:rdf="http://www.w3.org/1999/02/22-rdf-syntax-ns#"
   xmlns:svg="http://www.w3.org/2000/svg"
   xmlns="http://www.w3.org/2000/svg"
   xml:space="preserve"
   style="enable-background:new 0 0 512 512;"
   viewBox="0 0 512 512"
   y="0px"
   x="0px"
   id="Layer_1"
   version="1.1"><metadata
   id="metadata65"><rdf:RDF><cc:Work
       rdf:about=""><dc:format>image/svg+xml</dc:format><dc:type
         rdf:resource="http://purl.org/dc/dcmitype/StillImage" /><dc:title></dc:title></cc:Work></rdf:RDF></metadata><defs
   id="defs63">
	
	
	
	
</defs>
<style
   id="style10"
   type="text/css">
	.st0{opacity:0.6;fill:#B783B9;}
	.st1{fill:none;stroke:#111342;stroke-width:13.7007;stroke-linecap:round;stroke-linejoin:round;stroke-miterlimit:10;}
	.st2{fill:#B783B9;}
	.st3{display:none;fill:#B783B9;}
	.st4{display:none;}
	
		.st5{display:inline;fill:none;stroke:#111342;stroke-width:13.7007;stroke-linecap:round;stroke-linejoin:round;stroke-miterlimit:10;}
	.st6{display:inline;}
</style>
<path
   class="st1"
   d="M 391.81384,466.82975 H 120.45949 c -29.101965,0 -52.693692,-23.59172 -52.693692,-52.69369 V 97.863945 c 0,-29.101962 23.591727,-52.693689 52.693692,-52.693689 h 271.35435 c 29.10196,0 52.69369,23.591727 52.69369,52.693689 V 414.13606 c 0,29.10197 -23.59173,52.69369 -52.69369,52.69369 z"
   id="path14" /><path
   class="st1"
   d="M 452.55841,503.46567 H 59.714915 c -13.627109,0 -24.680576,-11.05347 -24.680576,-24.68058 V 33.214915 c 0,-13.62711 11.053467,-24.6805759 24.680576,-24.6805759 H 452.56941 c 13.62711,0 24.68057,11.0534659 24.68057,24.6805759 V 478.78509 c 0,13.62711 -11.05346,24.68058 -24.69157,24.68058 z"
   id="path16" /><g
   transform="matrix(1.0998474,0,0,1.0998474,-25.974196,-26.110854)"
   id="g56">
		<g
   id="g26">
			<path
   class="st1"
   d="M 379.44,245.77 H 128.63 c -7.57,0 -13.7,-6.13 -13.7,-13.7 v -110.7 c 0,-7.57 6.13,-13.7 13.7,-13.7 h 250.81 c 7.57,0 13.7,6.13 13.7,13.7 v 110.7 c 0,7.56 -6.13,13.7 -13.7,13.7 z"
   id="path18" />
			<line
   class="st1"
   x1="255.5"
   y1="133.88"
   x2="263.44"
   y2="133.88"
   id="line20" />
			<line
   class="st1"
   x1="136.75999"
   y1="174.98"
   x2="366.20001"
   y2="174.98"
   id="line22" />
			<line
   class="st1"
   x1="136.75999"
   y1="213.8"
   x2="366.20001"
   y2="213.8"
   id="line24" />
		</g>
		<g
   id="g36">
			<path
   class="st2"
   d="m 391.44,420.68 h -98.98 c -6.72,0 -12.16,-5.44 -12.16,-12.16 v -98.25 c 0,-6.72 5.44,-12.16 12.16,-12.16 h 98.98 c 6.72,0 12.16,5.44 12.16,12.16 v 98.25 c 0,6.71 -5.45,12.16 -12.16,12.16 z"
   id="path28" />
			<path
   class="st1"
   d="M 386.29,417.03 H 274.77 c -7.57,0 -13.7,-6.13 -13.7,-13.7 v -110.7 c 0,-7.57 6.13,-13.7 13.7,-13.7 h 111.52 c 7.57,0 13.7,6.13 13.7,13.7 v 110.7 c 0,7.56 -6.13,13.7 -13.7,13.7 z"
   id="path30" />
			<path
   class="st1"
   d="m 337.88,341.58 v 0 c -10.9,0 -19.73,-8.83 -19.73,-19.73 v 0 c 0,-10.9 8.83,-19.73 19.73,-19.73 v 0 c 10.9,0 19.73,8.83 19.73,19.73 v 0 c 0,10.9 -8.83,19.73 -19.73,19.73 z"
   id="path32" />
			<polyline
   class="st1"
   points="261.07,378.39 289.84,347.98 337.88,385.06 372.04,359.76 399.99,385.06    "
   id="polyline34" />
		</g>
		<g
   id="g44">
			<circle
   class="st3"
   cx="182.42"
   cy="358.57001"
   r="59.599998"
   id="circle38" />
			<circle
   class="st1"
   cx="175.57001"
   cy="351.72"
   r="65.760002"
   id="circle40" />
			<polygon
   class="st1"
   points="155.78,381.52 203.92,353.73 155.78,325.94 "
   id="polygon42" />
		</g>
		<g
   class="st4"
   id="g54">
			<circle
   class="st5"
   cx="335.14001"
   cy="352.63"
   r="65.510002"
   id="circle46" />
			<g
   class="st6"
   id="g50">
				<path
   class="st1"
   d="m 352.28,325.28 c 0,4.54 -1.4,13.26 -3.71,16.47 -2.87,3.97 -7.14,6.49 -11.92,6.49 -3.92,0 -7.51,-1.7 -10.25,-4.51 -3.3,-3.37 -5.38,-12.91 -5.38,-18.45 0,-10.16 7,-13.83 15.63,-13.83 8.63,0 15.63,3.67 15.63,13.83 z"
   id="path48" />
			</g>
			<path
   class="st5"
   d="m 296.9,403.83 v -24.2 c 0,-9.33 7.57,-16.9 16.9,-16.9 h 7.3 l 15.18,13.56 15.51,-13.56 h 4.69 c 9.33,0 16.9,7.57 16.9,16.9 v 25.83"
   id="path52" />
		</g>
	</g>
</svg>
