<?xml version="1.0" encoding="UTF-8"?><svg xmlns="http://www.w3.org/2000/svg" viewBox="0 0 512 512"><style><![CDATA[.G{stroke-miterlimit:10}.H{stroke:#111342}.I{stroke-width:13.701}.J{stroke-linejoin:round}.K{stroke-linecap:round}]]></style><path d="M452.558 503.466H59.715a24.69 24.69 0 0 1-24.681-24.681V33.215A24.69 24.69 0 0 1 59.715 8.534h392.854a24.69 24.69 0 0 1 24.681 24.681v445.57c0 13.627-11.053 24.681-24.692 24.681z" fill="#fff" class="G H I J"/><g transform="matrix(1.231969 0 0 1.251961 -60.456929 -67.234351)"><g fill="none" class="G H I J"><path d="M379.44 245.77H128.63a13.7 13.7 0 0 1-13.7-13.7v-110.7a13.7 13.7 0 0 1 13.7-13.7h250.81a13.7 13.7 0 0 1 13.7 13.7v110.7c0 7.56-6.13 13.7-13.7 13.7z"/><path d="M255.5 133.88h7.94m-126.68 41.1H366.2M136.76 213.8H366.2" class="K"/></g><path d="M391.44 420.68h-98.98c-6.72 0-12.16-5.44-12.16-12.16v-98.25c0-6.72 5.44-12.16 12.16-12.16h98.98c6.72 0 12.16 5.44 12.16 12.16v98.25a12.17 12.17 0 0 1-12.16 12.16z" fill="#ff72ac"/><g fill="none" class="H I J"><g class="G"><path d="M386.29 417.03H274.77a13.7 13.7 0 0 1-13.7-13.7v-110.7a13.7 13.7 0 0 1 13.7-13.7h111.52a13.7 13.7 0 0 1 13.7 13.7v110.7c0 7.56-6.13 13.7-13.7 13.7z"/><path d="M337.88 341.58h0a19.73 19.73 0 0 1-19.73-19.73h0a19.73 19.73 0 0 1 19.73-19.73h0a19.73 19.73 0 0 1 19.73 19.73h0a19.73 19.73 0 0 1-19.73 19.73z"/><path d="M261.07 378.39l28.77-30.41 48.04 37.08 34.16-25.3 27.95 25.3" class="K"/></g><circle r="65.76" cy="351.72" cx="175.57"/><path d="M155.78 381.52l48.14-27.79-48.14-27.79z" class="G"/></g></g></svg>
