<svg xmlns="http://www.w3.org/2000/svg" width="20" height="20" viewBox="0 0 20 20"><defs><style>.a{fill:#fff;}</style></defs><g transform="translate(0 -3.762)"><g transform="translate(0 3.762)"><g transform="translate(0 0)"><path class="a" d="M17.352,11.307l-.1-.035-.372-.905.04-.093c1.126-2.606,1.048-2.684.861-2.873l-1.5-1.5a.4.4,0,0,0-.262-.106,9.471,9.471,0,0,0-2.558,1.025l-.089.041-.915-.376L12.425,6.4c-1.043-2.636-1.15-2.636-1.409-2.636H8.9c-.259,0-.376,0-1.343,2.64l-.036.1-.91.379L6.519,6.84a13.824,13.824,0,0,0-2.606-.973.4.4,0,0,0-.263.1l-1.5,1.5c-.191.192-.27.272.915,2.824l.044.095-.372.9-.091.036C0,12.372,0,12.473,0,12.745v2.121c0,.272,0,.385,2.648,1.354l.095.034.372.9-.04.092c-1.126,2.607-1.054,2.678-.863,2.872l1.5,1.5a.408.408,0,0,0,.264.106A9.506,9.506,0,0,0,6.534,20.7l.089-.042.915.378.036.093c1.043,2.635,1.151,2.635,1.41,2.635h2.121c.266,0,.377,0,1.344-2.642l.036-.1.912-.376.087.036a13.748,13.748,0,0,0,2.6.975.4.4,0,0,0,.264-.1l1.505-1.5c.189-.193.268-.272-.918-2.821l-.044-.1.372-.9.089-.035C20,15.151,20,15.048,20,14.777v-2.12C20,12.385,20,12.272,17.352,11.307ZM10,17.2a3.438,3.438,0,1,1,3.436-3.439A3.442,3.442,0,0,1,10,17.2Z" transform="translate(0 -3.762)"/></g></g></g></svg>