<?xml version="1.0" encoding="UTF-8" standalone="no"?>
<!-- Created with Inkscape (http://www.inkscape.org/) -->

<svg
   xmlns:dc="http://purl.org/dc/elements/1.1/"
   xmlns:cc="http://creativecommons.org/ns#"
   xmlns:rdf="http://www.w3.org/1999/02/22-rdf-syntax-ns#"
   xmlns:svg="http://www.w3.org/2000/svg"
   xmlns="http://www.w3.org/2000/svg"
   version="1.1"
   width="27.719412"
   height="30"
   id="svg13573">
  <defs
     id="defs13575">
    <clipPath
       id="clipPath5694">
      <path
         d="m 0,1505.001 539.578,0 L 539.578,0 0,0 0,1505.001 z"
         id="path5696" />
    </clipPath>
    <clipPath
       id="clipPath5668">
      <path
         d="m 354.217,1202.539 -2.033,-2.356 c -0.078,-0.091 -0.186,-0.172 -0.308,-0.237 l 0,0 c -0.011,-0.01 -0.019,-0.01 -0.029,-0.017 l 0,0 c -0.006,0 -0.012,-0.01 -0.018,-0.01 l 0,0 0.002,0 c -0.005,0 -0.009,-0.01 -0.013,-0.013 l 0,0 c -0.207,-0.24 0.386,-1.089 1.322,-1.898 l 0,0 c 0.938,-0.809 1.867,-1.271 2.072,-1.031 l 0,0 c 0.004,0 0.008,0.011 0.011,0.015 l 0,0 0.01,-0.01 c 0.049,0.149 0.12,0.287 0.208,0.39 l 0,0 2.034,2.356 c 0.061,0.071 0.142,0.137 0.234,0.196 l 0,0 c -0.319,-0.077 -1.143,0.367 -1.976,1.084 l 0,0 c -0.812,0.701 -1.365,1.433 -1.364,1.772 l 0,0 c -0.042,-0.092 -0.093,-0.176 -0.152,-0.243"
         id="path5670" />
    </clipPath>
    <linearGradient
       x1="0"
       y1="0"
       x2="1"
       y2="0"
       id="linearGradient5676"
       gradientUnits="userSpaceOnUse"
       gradientTransform="matrix(3.4032593,-2.9366608,-2.9366608,-3.4032593,352.85156,1201.1875)"
       spreadMethod="pad">
      <stop
         id="stop5678"
         style="stop-color:#b1e088;stop-opacity:1"
         offset="0" />
      <stop
         id="stop5680"
         style="stop-color:#c3e7a0;stop-opacity:1"
         offset="0.27528399" />
      <stop
         id="stop5682"
         style="stop-color:#c3e7a0;stop-opacity:1"
         offset="0.27528399" />
      <stop
         id="stop5684"
         style="stop-color:#7acc46;stop-opacity:1"
         offset="0.67977899" />
      <stop
         id="stop5686"
         style="stop-color:#7acc46;stop-opacity:1"
         offset="1" />
    </linearGradient>
    <clipPath
       id="clipPath5656">
      <path
         d="m 0,1505.001 539.578,0 L 539.578,0 0,0 0,1505.001 z"
         id="path5658" />
    </clipPath>
    <clipPath
       id="clipPath5630">
      <path
         d="m 348.689,1199.475 -0.616,-0.715 c -0.019,-0.019 -0.034,-0.041 -0.048,-0.064 l 0,0 c -0.017,-0.013 -0.032,-0.028 -0.046,-0.045 l 0,0 c -0.444,-0.513 0.661,-2.194 2.468,-3.753 l 0,0 c 1.806,-1.559 3.631,-2.406 4.075,-1.891 l 0,0 c 0.016,0.019 0.029,0.041 0.041,0.063 l 0,0 c 0.018,0.015 0.033,0.031 0.049,0.049 l 0,0 0.615,0.714 c 0.1,0.115 0.179,0.277 0.229,0.45 l 0,0 c -0.703,-0.102 -2.25,0.708 -3.785,2.033 l 0,0 c -1.539,1.327 -2.567,2.741 -2.566,3.451 l 0,0 c -0.166,-0.074 -0.316,-0.176 -0.416,-0.292"
         id="path5632" />
    </clipPath>
    <linearGradient
       x1="0"
       y1="0"
       x2="1"
       y2="0"
       id="linearGradient5638"
       gradientUnits="userSpaceOnUse"
       gradientTransform="matrix(6.5425568,-5.6455536,-5.6455536,-6.5425568,348.05176,1198.8203)"
       spreadMethod="pad">
      <stop
         id="stop5640"
         style="stop-color:#b1e088;stop-opacity:1"
         offset="0" />
      <stop
         id="stop5642"
         style="stop-color:#c3e7a0;stop-opacity:1"
         offset="0.27528399" />
      <stop
         id="stop5644"
         style="stop-color:#c3e7a0;stop-opacity:1"
         offset="0.27528399" />
      <stop
         id="stop5646"
         style="stop-color:#7acc46;stop-opacity:1"
         offset="0.67977899" />
      <stop
         id="stop5648"
         style="stop-color:#7acc46;stop-opacity:1"
         offset="1" />
    </linearGradient>
    <clipPath
       id="clipPath5604">
      <path
         d="m 355.383,1207.041 c -0.112,-0.051 -0.219,-0.114 -0.308,-0.187 l 0,0 -0.003,0 -0.628,-0.727 c -0.137,-0.16 -0.237,-0.409 -0.274,-0.653 l 0,0 c 0.126,-0.746 1.117,-2.06 2.552,-3.299 l 0,0 c 1.49,-1.284 2.991,-2.085 3.721,-2.039 l 0,0 c 0.143,0.05 0.281,0.123 0.395,0.209 l 0,0 c 0,0 0.002,0 0.002,0 l 0,0 c 0.016,0.015 0.032,0.031 0.047,0.048 l 0,0 0.616,0.714 c 0.119,0.138 0.21,0.344 0.254,0.553 l 0,0 c -0.016,0.15 -0.084,0.292 -0.207,0.396 l 0,0 -2.365,2.023 c -0.252,0.216 -0.665,0.572 -0.916,0.79 l 0,0 -2.346,2.043 c -0.115,0.099 -0.255,0.148 -0.395,0.148 l 0,0 c -0.049,0 -0.097,-0.01 -0.145,-0.018"
         id="path5606" />
    </clipPath>
    <linearGradient
       x1="0"
       y1="0"
       x2="1"
       y2="0"
       id="linearGradient5612"
       gradientUnits="userSpaceOnUse"
       gradientTransform="matrix(6.5285034,-5.6334381,-5.6334381,-6.5285034,354.42187,1206.1816)"
       spreadMethod="pad">
      <stop
         id="stop5614"
         style="stop-color:#b1e088;stop-opacity:1"
         offset="0" />
      <stop
         id="stop5616"
         style="stop-color:#c3e7a0;stop-opacity:1"
         offset="0.27528399" />
      <stop
         id="stop5618"
         style="stop-color:#c3e7a0;stop-opacity:1"
         offset="0.27528399" />
      <stop
         id="stop5620"
         style="stop-color:#7acc46;stop-opacity:1"
         offset="0.67977899" />
      <stop
         id="stop5622"
         style="stop-color:#7acc46;stop-opacity:1"
         offset="1" />
    </linearGradient>
    <clipPath
       id="clipPath5580">
      <path
         d="m 0,1505.001 539.578,0 L 539.578,0 0,0 0,1505.001 z"
         id="path5582" />
    </clipPath>
    <clipPath
       id="clipPath5558">
      <path
         d="m 330.01,1193.561 7.756,-31.045 24.813,6.2 -7.757,31.044 -24.812,-6.199 z"
         id="path5560" />
    </clipPath>
    <linearGradient
       x1="0"
       y1="0"
       x2="1"
       y2="0"
       id="linearGradient5566"
       gradientUnits="userSpaceOnUse"
       gradientTransform="matrix(24.813995,6.1996613,6.1996613,-24.813995,333.8877,1178.0386)"
       spreadMethod="pad">
      <stop
         id="stop5568"
         style="stop-color:#e1e0df;stop-opacity:1"
         offset="0" />
      <stop
         id="stop5570"
         style="stop-color:#e2e2e0;stop-opacity:1"
         offset="0.54707301" />
      <stop
         id="stop5572"
         style="stop-color:#ffffff;stop-opacity:1"
         offset="1" />
    </linearGradient>
    <clipPath
       id="clipPath5542">
      <path
         d="m 0,1505.001 539.578,0 L 539.578,0 0,0 0,1505.001 z"
         id="path5544" />
    </clipPath>
    <clipPath
       id="clipPath5522">
      <path
         d="m 330.034,1206.439 c -2.334,0 -4.223,-1.742 -4.223,-3.906 l 0,0 0,-43.515 c 0,-2.153 1.889,-3.909 4.223,-3.909 l 0,0 32.185,0 c 2.341,0 4.236,1.756 4.236,3.909 l 0,0 0,43.515 c 0,2.164 -1.895,3.906 -4.236,3.906 l 0,0 -32.185,0 z"
         id="path5524" />
    </clipPath>
    <linearGradient
       x1="0"
       y1="0"
       x2="1"
       y2="0"
       id="linearGradient5530"
       gradientUnits="userSpaceOnUse"
       gradientTransform="matrix(-42.52301,0.1949005,0.1949005,42.52301,366.70703,1180.6792)"
       spreadMethod="pad">
      <stop
         id="stop5532"
         style="stop-color:#e49f3d;stop-opacity:1"
         offset="0" />
      <stop
         id="stop5534"
         style="stop-color:#7a541f;stop-opacity:1"
         offset="1" />
    </linearGradient>
    <clipPath
       id="clipPath5502">
      <path
         d="m 328.263,1157.666 c 0,-2.507 10.687,-4.536 23.869,-4.536 l 0,0 c 13.18,0 23.868,2.029 23.868,4.536 l 0,0 c 0,2.504 -10.688,4.534 -23.868,4.534 l 0,0 c -13.182,0 -23.869,-2.03 -23.869,-4.534"
         id="path5504" />
    </clipPath>
    <radialGradient
       cx="0"
       cy="0"
       r="1"
       fx="0"
       fy="0"
       id="radialGradient5510"
       gradientUnits="userSpaceOnUse"
       gradientTransform="matrix(23.87352,0,0,-4.5341644,352.12988,1157.665)"
       spreadMethod="pad">
      <stop
         id="stop5512"
         style="stop-color:#a7a5a6;stop-opacity:1"
         offset="0" />
      <stop
         id="stop5514"
         style="stop-color:#ffffff;stop-opacity:1"
         offset="1" />
    </radialGradient>
  </defs>
  <metadata
     id="metadata13578">
    <rdf:RDF>
      <cc:Work
         rdf:about="">
        <dc:format>image/svg+xml</dc:format>
        <dc:type
           rdf:resource="http://purl.org/dc/dcmitype/StillImage" />
        <dc:title></dc:title>
      </cc:Work>
    </rdf:RDF>
  </metadata>
  <g
     transform="translate(-343.63187,-536.31108)"
     id="layer1">
    <g
       transform="matrix(0.55230054,0,0,-0.55230054,163.68628,1203.1854)"
       id="g5498">
      <g
         clip-path="url(#clipPath5502)"
         id="g5500">
        <g
           id="g5506">
          <g
             id="g5508">
            <path
               d="m 328.263,1157.666 c 0,-2.507 10.687,-4.536 23.869,-4.536 l 0,0 c 13.18,0 23.868,2.029 23.868,4.536 l 0,0 c 0,2.504 -10.688,4.534 -23.868,4.534 l 0,0 c -13.182,0 -23.869,-2.03 -23.869,-4.534"
               id="path5516"
               style="fill:url(#radialGradient5510);stroke:none" />
          </g>
        </g>
      </g>
    </g>
    <g
       transform="matrix(0.55230054,0,0,-0.55230054,163.68628,1203.1854)"
       id="g5518">
      <g
         clip-path="url(#clipPath5522)"
         id="g5520">
        <g
           id="g5526">
          <g
             id="g5528">
            <path
               d="m 330.034,1206.439 c -2.334,0 -4.223,-1.742 -4.223,-3.906 l 0,0 0,-43.515 c 0,-2.153 1.889,-3.909 4.223,-3.909 l 0,0 32.185,0 c 2.341,0 4.236,1.756 4.236,3.909 l 0,0 0,43.515 c 0,2.164 -1.895,3.906 -4.236,3.906 l 0,0 -32.185,0 z"
               id="path5536"
               style="fill:url(#linearGradient5530);stroke:none" />
          </g>
        </g>
      </g>
    </g>
    <g
       transform="matrix(0.55230054,0,0,-0.55230054,163.68628,1203.1854)"
       id="g5538">
      <g
         clip-path="url(#clipPath5542)"
         id="g5540">
        <g
           transform="translate(361.1563,1159.0918)"
           id="g5546">
          <path
             d="m 0,0 c 0.733,0 1.326,0.556 1.326,1.229 l 0,40.913 c 0,0.683 -0.593,1.226 -1.326,1.226 l -30.415,0 c -0.736,0 -1.338,-0.543 -1.338,-1.226 l 0,-40.913 C -31.753,0.556 -31.151,0 -30.415,0 L 0,0 z"
             id="path5548"
             style="fill:#875a1d;fill-opacity:1;fill-rule:nonzero;stroke:none" />
        </g>
        <g
           transform="translate(359.9053,1159.0918)"
           id="g5550">
          <path
             d="m 0,0 c 0.7,0 1.276,0.556 1.276,1.229 l 0,40.913 C 1.276,42.825 0.7,43.368 0,43.368 l -29.217,0 c -0.712,0 -1.285,-0.543 -1.285,-1.226 l 0,-40.913 C -30.502,0.556 -29.929,0 -29.217,0 L 0,0 z"
             id="path5552"
             style="fill:#efaf3f;fill-opacity:1;fill-rule:nonzero;stroke:none" />
        </g>
      </g>
    </g>
    <g
       transform="matrix(0.55230054,0,0,-0.55230054,163.68628,1203.1854)"
       id="g5554">
      <g
         clip-path="url(#clipPath5558)"
         id="g5556">
        <g
           id="g5562">
          <g
             id="g5564">
            <path
               d="m 330.01,1193.561 7.756,-31.045 24.813,6.2 -7.757,31.044 -24.812,-6.199 z"
               id="path5574"
               style="fill:url(#linearGradient5566);stroke:none" />
          </g>
        </g>
      </g>
    </g>
    <g
       transform="matrix(0.55230054,0,0,-0.55230054,163.68628,1203.1854)"
       id="g5576">
      <g
         clip-path="url(#clipPath5580)"
         id="g5578">
        <g
           transform="translate(362.5791,1168.7158)"
           id="g5584">
          <path
             d="M 0,0 -24.813,-6.199 -32.569,24.846 -7.757,31.045 0,0 z"
             id="path5586"
             style="fill:none;stroke:#7acc46;stroke-width:1.03400004;stroke-linecap:butt;stroke-linejoin:miter;stroke-miterlimit:4;stroke-opacity:1;stroke-dasharray:none" />
        </g>
        <g
           transform="translate(353.1572,1195.377)"
           id="g5588">
          <path
             d="m 0,0 c 0,0.102 -0.045,0.198 -0.122,0.265 l -2.236,1.9 C -2.436,2.23 -2.537,2.259 -2.638,2.243 -2.737,2.228 -2.826,2.168 -2.879,2.082 l -3.689,-6.011 c 0.379,-0.253 0.707,-0.596 0.964,-1.016 l 5.482,4.681 C -0.044,-0.198 0,-0.102 0,0"
             id="path5590"
             style="fill:#827f80;fill-opacity:1;fill-rule:nonzero;stroke:none" />
        </g>
        <g
           transform="translate(354.8809,1207.1826)"
           id="g5592">
          <path
             d="M 0,0 C 0,0 -0.028,-0.045 -0.056,-0.09 -0.063,-0.097 -0.071,-0.104 -0.071,-0.104 L -0.7,-0.833 C -0.989,-1.168 -1.138,-1.747 -1.046,-2.18 l 0.315,-1.485 c 0.045,-0.218 -0.049,-0.582 -0.194,-0.751 l -2.033,-2.356 c -0.145,-0.167 -0.488,-0.309 -0.708,-0.292 l -1.503,0.114 c -0.443,0.033 -0.996,-0.196 -1.286,-0.531 L -7.07,-8.195 c 0,0 -0.027,-0.034 -0.049,-0.065 -0.023,-0.022 -0.046,-0.044 -0.046,-0.044 -0.708,-0.821 0.803,-2.774 2.504,-4.243 1.702,-1.469 3.856,-2.676 4.564,-1.856 0,0 0.023,0.033 0.045,0.065 0.022,0.023 0.046,0.048 0.046,0.048 l 0.615,0.714 c 0.29,0.335 0.437,0.915 0.342,1.347 l -0.316,1.447 c -0.047,0.217 0.045,0.579 0.189,0.747 l 2.033,2.356 c 0.145,0.168 0.493,0.314 0.713,0.3 l 1.517,-0.093 c 0.441,-0.027 0.992,0.205 1.281,0.54 l 0.629,0.729 c 0,0 0.041,0.059 0.074,0.108 0,0 0,-0.002 -0.002,-0.002 0.703,0.823 -0.805,2.775 -2.505,4.242 C 2.862,-0.388 0.707,0.82 0,0"
             id="path5594"
             style="fill:#7acc46;fill-opacity:1;fill-rule:nonzero;stroke:none" />
        </g>
        <g
           transform="translate(358.4727,1200.1504)"
           id="g5596">
          <path
             d="m 0,0 1.517,-0.093 c 0.331,-0.02 0.78,0.168 0.997,0.42 L 3.142,1.056 C 3.359,1.308 3.33,1.689 3.077,1.905 L 0.713,3.928 C 0.46,4.145 0.048,4.5 -0.203,4.718 L -2.55,6.761 C -2.801,6.979 -3.184,6.952 -3.401,6.7 L -4.028,5.973 C -4.246,5.722 -4.367,5.249 -4.298,4.924 L -3.985,3.438 C -3.915,3.113 -4.037,2.642 -4.255,2.39 L -6.287,0.033 c -0.218,-0.251 -0.666,-0.436 -0.997,-0.411 l -1.503,0.114 c -0.331,0.025 -0.78,-0.16 -0.997,-0.412 l -0.615,-0.714 c -0.019,-0.02 -0.035,-0.042 -0.048,-0.064 -0.017,-0.014 -0.032,-0.028 -0.047,-0.045 -0.444,-0.514 0.662,-2.194 2.468,-3.753 1.806,-1.56 3.631,-2.406 4.075,-1.892 0.016,0.02 0.03,0.041 0.042,0.063 0.017,0.016 0.033,0.032 0.048,0.05 l 0.616,0.714 c 0.217,0.251 0.336,0.722 0.265,1.046 l -0.316,1.447 c -0.071,0.324 0.049,0.796 0.265,1.048 l 2.034,2.356 C -0.78,-0.169 -0.331,0.021 0,0"
             id="path5598"
             style="fill:#7acc46;fill-opacity:1;fill-rule:nonzero;stroke:none" />
        </g>
      </g>
    </g>
    <g
       transform="matrix(0.55230054,0,0,-0.55230054,163.68628,1203.1854)"
       id="g5600">
      <g
         clip-path="url(#clipPath5604)"
         id="g5602">
        <g
           id="g5608">
          <g
             id="g5610">
            <path
               d="m 355.383,1207.041 c -0.112,-0.051 -0.219,-0.114 -0.308,-0.187 l 0,0 -0.003,0 -0.628,-0.727 c -0.137,-0.16 -0.237,-0.409 -0.274,-0.653 l 0,0 c 0.126,-0.746 1.117,-2.06 2.552,-3.299 l 0,0 c 1.49,-1.284 2.991,-2.085 3.721,-2.039 l 0,0 c 0.143,0.05 0.281,0.123 0.395,0.209 l 0,0 c 0,0 0.002,0 0.002,0 l 0,0 c 0.016,0.015 0.032,0.031 0.047,0.048 l 0,0 0.616,0.714 c 0.119,0.138 0.21,0.344 0.254,0.553 l 0,0 c -0.016,0.15 -0.084,0.292 -0.207,0.396 l 0,0 -2.365,2.023 c -0.252,0.216 -0.665,0.572 -0.916,0.79 l 0,0 -2.346,2.043 c -0.115,0.099 -0.255,0.148 -0.395,0.148 l 0,0 c -0.049,0 -0.097,-0.01 -0.145,-0.018"
               id="path5624"
               style="fill:url(#linearGradient5612);stroke:none" />
          </g>
        </g>
      </g>
    </g>
    <g
       transform="matrix(0.55230054,0,0,-0.55230054,163.68628,1203.1854)"
       id="g5626">
      <g
         clip-path="url(#clipPath5630)"
         id="g5628">
        <g
           id="g5634">
          <g
             id="g5636">
            <path
               d="m 348.689,1199.475 -0.616,-0.715 c -0.019,-0.019 -0.034,-0.041 -0.048,-0.064 l 0,0 c -0.017,-0.013 -0.032,-0.028 -0.046,-0.045 l 0,0 c -0.444,-0.513 0.661,-2.194 2.468,-3.753 l 0,0 c 1.806,-1.559 3.631,-2.406 4.075,-1.891 l 0,0 c 0.016,0.019 0.029,0.041 0.041,0.063 l 0,0 c 0.018,0.015 0.033,0.031 0.049,0.049 l 0,0 0.615,0.714 c 0.1,0.115 0.179,0.277 0.229,0.45 l 0,0 c -0.703,-0.102 -2.25,0.708 -3.785,2.033 l 0,0 c -1.539,1.327 -2.567,2.741 -2.566,3.451 l 0,0 c -0.166,-0.074 -0.316,-0.176 -0.416,-0.292"
               id="path5650"
               style="fill:url(#linearGradient5638);stroke:none" />
          </g>
        </g>
      </g>
    </g>
    <g
       transform="matrix(0.55230054,0,0,-0.55230054,163.68628,1203.1854)"
       id="g5652">
      <g
         clip-path="url(#clipPath5656)"
         id="g5654">
        <g
           transform="translate(361.6865,1201.3105)"
           id="g5660">
          <path
             d="M 0,0 C -0.443,-0.514 -2.268,0.334 -4.074,1.893 -5.881,3.451 -6.986,5.131 -6.542,5.646 -6.1,6.159 -4.275,5.312 -2.469,3.753 -0.662,2.194 0.443,0.514 0,0"
             id="path5662"
             style="fill:#7acc46;fill-opacity:1;fill-rule:nonzero;stroke:none" />
        </g>
      </g>
    </g>
    <g
       transform="matrix(0.55230054,0,0,-0.55230054,163.68628,1203.1854)"
       id="g5664">
      <g
         clip-path="url(#clipPath5668)"
         id="g5666">
        <g
           id="g5672">
          <g
             id="g5674">
            <path
               d="m 354.217,1202.539 -2.033,-2.356 c -0.078,-0.091 -0.186,-0.172 -0.308,-0.237 l 0,0 c -0.011,-0.01 -0.019,-0.01 -0.029,-0.017 l 0,0 c -0.006,0 -0.012,-0.01 -0.018,-0.01 l 0,0 0.002,0 c -0.005,0 -0.009,-0.01 -0.013,-0.013 l 0,0 c -0.207,-0.24 0.386,-1.089 1.322,-1.898 l 0,0 c 0.938,-0.809 1.867,-1.271 2.072,-1.031 l 0,0 c 0.004,0 0.008,0.011 0.011,0.015 l 0,0 0.01,-0.01 c 0.049,0.149 0.12,0.287 0.208,0.39 l 0,0 2.034,2.356 c 0.061,0.071 0.142,0.137 0.234,0.196 l 0,0 c -0.319,-0.077 -1.143,0.367 -1.976,1.084 l 0,0 c -0.812,0.701 -1.365,1.433 -1.364,1.772 l 0,0 c -0.042,-0.092 -0.093,-0.176 -0.152,-0.243"
               id="path5688"
               style="fill:url(#linearGradient5676);stroke:none" />
          </g>
        </g>
      </g>
    </g>
    <g
       transform="matrix(0.55230054,0,0,-0.55230054,163.68628,1203.1854)"
       id="g5690">
      <g
         clip-path="url(#clipPath5694)"
         id="g5692">
        <g
           transform="translate(354.334,1183.1348)"
           id="g5698">
          <path
             d="M 0,0 -16.141,-4.135 -16.512,-2.688 -0.373,1.445 0,0 z"
             id="path5700"
             style="fill:#adacba;fill-opacity:1;fill-rule:nonzero;stroke:none" />
        </g>
        <g
           transform="translate(356.1348,1176.1094)"
           id="g5702">
          <path
             d="M 0,0 -16.142,-4.135 -16.513,-2.687 -0.375,1.447 0,0 z"
             id="path5704"
             style="fill:#adacba;fill-opacity:1;fill-rule:nonzero;stroke:none" />
        </g>
      </g>
    </g>
  </g>
</svg>
