<svg xmlns="http://www.w3.org/2000/svg" width="256" height="256" viewBox="3 3 256 256"><rect x="3" y="3" width="256" height="256" rx="128" fill="#259153"/><path d="M213.47 96.61l-15.459-15.459c-2.121-2.122-4.699-3.183-7.729-3.183s-5.609 1.06-7.731 3.183l-74.573 74.685-33.419-33.541c-2.122-2.122-4.699-3.183-7.729-3.183s-5.609 1.06-7.731 3.183L43.64 137.754c-2.122 2.122-3.182 4.699-3.182 7.731s1.06 5.609 3.182 7.729l56.607 56.607c2.121 2.122 4.698 3.182 7.729 3.182s5.609-1.062 7.729-3.182l97.756-97.756c2.121-2.122 3.182-4.699 3.182-7.731s-1.062-5.609-3.182-7.729" fill="#fff"/></svg>
