<svg class="urlcontentmessageboard" xmlns="http://www.w3.org/2000/svg" viewBox="0 0 512 512"><style><![CDATA[svg.urlcontentmessageboard .C{fill:none}svg.urlcontentmessageboard .D{stroke-miterlimit:10}svg.urlcontentmessageboard .E{stroke-linecap:round}svg.urlcontentmessageboard .F{stroke:#111342}svg.urlcontentmessageboard .G{stroke-linejoin:round}svg.urlcontentmessageboard .H{stroke-width:15.913}svg.urlcontentmessageboard .I{stroke-width:15.904}svg.urlcontentmessageboard .J{stroke-width:1.049}]]></style><g transform="matrix(.588235 0 0 .588235 -.440622 -15.917583)" class="F G"><path d="M429.456 422.653v102.751H315.258 32.482V59.049h79.421 248.612 68.941v141.269" class="C D E H"/><ellipse cy="323.748" cx="425.665" rx="97.738" ry="93.376" fill="#6a71b5" class="J"/><g class="C"><ellipse ry="106.752" rx="111.749" cy="313.388" cx="414.821" stroke-width="15.551"/><path d="M336.936 316.168c0-9.386 7.967-16.997 17.791-16.997s17.791 7.611 17.791 16.997-7.967 16.997-17.791 16.997c-9.824-.01-17.791-7.621-17.791-16.997z" class="D I"/></g><g transform="matrix(1.073687 0 0 1.025767 -2.220046 24.839679)" stroke-width="14.36" class="C D"><path d="M407.86 221.96c7.92-4.57 18.05-1.85 22.62 6.08a16.57 16.57 0 0 1-6.08 22.63c-7.93 4.57-18.06 1.84-22.63-6.09-4.57-7.92-1.85-18.05 6.09-22.62z"/><path d="M401.77 244.59l-44.88 25.95" class="E"/><path d="M407.86 346.05c7.92 4.57 18.05 1.85 22.62-6.08a16.57 16.57 0 1 0-28.71-16.55c-4.57 7.93-1.85 18.06 6.09 22.63z"/><path d="M401.77 323.42l-44.88-25.95" class="E"/></g><g class="D"><path d="M235.827 474.198H118.28c-7.977 0-14.441-6.175-14.441-13.797v-111.47c0-7.621 6.464-13.797 14.441-13.797h117.547c7.977 0 14.441 6.175 14.441 13.797v111.47c0 7.621-6.464 13.797-14.441 13.797z" fill="#6a71b5" class="J"/><g class="C"><g class="I"><path d="M229.718 470.064H97.278c-8.987 0-16.266-6.955-16.266-15.54V328.908c0-8.586 7.28-15.54 16.266-15.54h132.45c8.987 0 16.266 6.955 16.266 15.54v125.605c0 8.586-7.29 15.551-16.277 15.551z"/><path d="M172.233 384.463h0c-12.938 0-23.428-10.022-23.428-22.382h0c0-12.36 10.49-22.382 23.428-22.382h0c12.938 0 23.428 10.022 23.428 22.382h0c0 12.361-10.49 22.382-23.428 22.382z"/></g><path d="M81.001 426.222l34.175-34.507 57.056 42.077 40.564-28.711 33.198 28.711" class="E H"/></g></g><ellipse ry="74.614" rx="78.1" cx="166.585" cy="180.92" class="C I"/><path d="M143.082 151.676v63.054l57.174-31.522z" class="C D H"/></g><g class="D F G"><path d="M480.362 461.305c14.36-12.109 23.105-28.175 23.105-45.794 0-12.14-4.146-23.546-11.43-33.422-8.354-6.348-18.341-18.959-29.429-22.384l-.012 7.541c-4.361 42.413-50.877 75.792-107.588 75.792-4.844 0-24.707-.239-29.38-.722 1.767 7.785 20.335 15.1 25.221 21.735 16.182 12.231 38.462 19.79 63.047 19.79 11.461 0 22.414-1.645 32.487-4.648 6.654-1.975 32.156 28.267 37.936 25.191 5.571-2.984-8.513-39.232-3.957-43.079z" fill="#fba919" stroke-width=".611"/><g stroke-width="8.649" class="C"><path d="M447.857 345.62a62.67 62.67 0 0 1-.349 6.544c-4.361 42.413-50.877 75.792-107.588 75.792a139.19 139.19 0 0 1-14.299-.722c-8.642-.875-16.971-2.532-24.86-4.856-8.024-2.397-38.749 34.046-45.715 30.334-6.727-3.59 10.256-47.268 4.764-51.904-17.301-14.598-27.845-33.954-27.845-55.188 0-45.458 48.326-82.324 107.949-82.324 59.616-.006 107.942 36.859 107.942 82.324z"/><path d="M447.521 352.17c32.811 10.134 55.947 34.676 55.947 63.34 0 17.625-8.745 33.685-23.111 45.801-4.55 3.847 9.541 40.095 3.951 43.067-5.779 3.076-31.27-27.154-37.936-25.178-10.073 2.991-21.026 4.636-32.487 4.636-44.229 0-80.978-24.457-88.268-56.601m-35.509-96.672h99.607m-99.607 39.532h99.607" class="E"/></g></g></svg>