<svg class="forum_and_scribe" xmlns="http://www.w3.org/2000/svg" viewBox="0 0 512 512"><style><![CDATA[svg.forum_and_scribe .C{stroke:#111342}svg.forum_and_scribe .D{stroke-linejoin:round}svg.forum_and_scribe .E{stroke-miterlimit:10}svg.forum_and_scribe .F{stroke-linecap:round}svg.forum_and_scribe .G{stroke-width:15.771}svg.forum_and_scribe .H{stroke-width:1.098}]]></style><g class="C D E"><path d="M268.385 213.832c14.865-12.535 23.918-29.166 23.918-47.405 0-12.567-4.292-24.373-11.832-34.597-8.648-6.571-18.986-19.625-30.463-23.17l-.013 7.806c-4.514 43.904-52.665 78.457-111.37 78.457-5.014 0-25.576-.247-30.413-.747 1.83 8.059 21.05 15.631 26.108 22.499 16.751 12.661 39.814 20.486 65.264 20.486 11.864 0 23.202-1.703 33.629-4.811 6.888-2.045 33.287 29.261 39.27 26.076 5.767-3.089-8.812-40.612-4.096-44.594z" fill="#fba919" stroke-width=".633"/><g fill="none" stroke-width="8.953"><path d="M234.737 94.08a64.87 64.87 0 0 1-.361 6.774c-4.514 43.904-52.665 78.457-111.37 78.457-5.014 0-9.965-.247-14.801-.747-8.945-.905-17.568-2.621-25.734-5.027-8.306-2.482-40.112 35.243-47.322 31.4-6.964-3.716 10.617-48.93 4.932-53.729-17.91-15.111-28.824-35.148-28.824-57.129C11.256 47.023 61.281 8.862 123 8.862c61.712-.006 111.737 38.155 111.737 85.218z"/><path d="M234.389 100.86c33.964 10.49 57.914 35.895 57.914 65.567 0 18.245-9.053 34.87-23.924 47.411-4.71 3.982 9.876 41.504 4.09 44.581-5.983 3.184-32.369-28.108-39.27-26.064-10.427 3.096-21.765 4.799-33.629 4.799-45.784 0-83.825-25.317-91.372-58.591M71.442 78.493h103.109M71.442 119.415h103.109" class="F"/></g></g><g transform="matrix(.54902 0 0 .54902 206.56363 250.77252)" class="C D"><g fill="none" class="E F G"><path d="M201.999 204.887v43.811L88.415 287.39a20.49 20.49 0 0 0-13.882 19.396v117.132h266.807"/><path d="M302.482 204.887v43.811l36.705 15.189m-.605-221.613L337.1 92.84c9.116.945 15.563 9.665 13.355 18.803l-.835 3.46c-1.955 8.083-8.017 14.278-15.64 16.683l-3.668 31.664a40.26 40.26 0 0 1-21.526 32.751l-43.13 27.358h-27.545l-41.592-27.358c-12.367-6.447-20.505-18.847-21.526-32.751l-3.602-30.862c-9.083-1.516-16.573-8.303-18.803-17.485l-.835-3.46-3.416-27.424"/><path d="M201.999 248.697l32.202 36.562h38.001l32.202-36.562"/></g><path d="M378.186-10.729V1.649c0 20.56-16.661 37.221-37.221 37.221h-148.06a18.61 18.61 0 0 0-18.605 18.605v34.464c0 2.054-1.658 3.701-3.701 3.701h-9.116V37.42c4.393-13.114 16.749-12.718 22.713-11.697 1.757.319 3.262-.999 3.449-2.812 1.79-18.869 17.693-33.641 37.034-33.641z" fill="#38c1ce" class="E H"/><path d="M378.186-37.022V1.649c0 20.56-16.661 37.221-37.221 37.221h-148.06a18.61 18.61 0 0 0-18.605 18.605v34.464c0 2.054-1.658 3.701-3.701 3.701h-18.528c-2.054 0-3.734-1.658-3.734-3.701V11.138C152.73-1.976 165.086-1.58 171.05-.559c1.757.319 3.262-.999 3.449-2.812 1.79-18.869 17.693-33.641 37.034-33.641h166.654z" fill="none" class="E G"/><circle r="98.835" cy="354.287" cx="434.21" fill="#38c1ce" class="H"/><g fill="none" class="G"><circle r="114.925" cy="342.293" cx="425.215"/><g class="E"><path d="M448.103 256.155l-74.167 91.63-7.567 59.461c-.714 2.812 2.197 5.162 4.789 3.877l57.539-19.011 74.167-91.63z"/><path d="M428.708 392.123l-54.772-44.338m95.793-65.919l-66.205 86.062" class="F"/></g></g></g></svg>