<?xml version="1.0" encoding="UTF-8"?>
<svg class="urlcontentmessageboard" version="1.1" viewBox="0 0 512 512" xml:space="preserve" xmlns="http://www.w3.org/2000/svg" xmlns:cc="http://creativecommons.org/ns#" xmlns:dc="http://purl.org/dc/elements/1.1/" xmlns:rdf="http://www.w3.org/1999/02/22-rdf-syntax-ns#"><metadata><rdf:RDF><cc:Work rdf:about=""><dc:format>image/svg+xml</dc:format><dc:type rdf:resource="http://purl.org/dc/dcmitype/StillImage"/><dc:title/></cc:Work></rdf:RDF></metadata>
<style type="text/css">
	svg.urlcontentmessageboard .st0{opacity:0.6;fill:#FBA919;}
	svg.urlcontentmessageboard .st1{fill:#FBA919;}
	svg.urlcontentmessageboard .st2{fill:none;stroke:#111342;stroke-width:14.798;stroke-linecap:round;stroke-linejoin:round;stroke-miterlimit:10;}
</style>
<style type="text/css">
	svg.urlcontentmessageboard .st0{opacity:0.6;fill:#38C1CE;}
	svg.urlcontentmessageboard .st1{fill:none;stroke:#111342;stroke-width:14.3597;stroke-linecap:round;stroke-linejoin:round;stroke-miterlimit:10;}
	svg.urlcontentmessageboard .st2{fill:#38C1CE;}
</style>
<g transform="matrix(.58824 0 0 .58824 61.551 -104.39)"><polyline id="XMLID_56_" class="st1" transform="matrix(1.0737 0 0 1.0258 -110.84 172.36)" points="402.05 387.82 402.05 487.99 295.69 487.99 32.32 487.99 32.32 33.35 106.29 33.35 337.84 33.35 402.05 33.35 402.05 171.07" fill="none" stroke="#111342" stroke-linecap="round" stroke-linejoin="round" stroke-miterlimit="10" stroke-width="15.154"/><ellipse class="st2" cx="317.05" cy="471.27" rx="97.738" ry="93.376" fill="#6a71b5" stroke-width="1.0495"/><ellipse class="st1" cx="306.21" cy="460.91" rx="111.75" ry="106.75" fill="none" stroke="#111342" stroke-linecap="round" stroke-linejoin="round" stroke-miterlimit="10" stroke-width="15.551"/><g transform="matrix(1.0737 0 0 1.0258 -110.84 172.36)"><path class="st1" d="m315.88 284.01c0-9.15 7.42-16.57 16.57-16.57s16.57 7.42 16.57 16.57-7.42 16.57-16.57 16.57c-9.15-0.01-16.57-7.43-16.57-16.57z"/><path class="st1" d="m407.86 221.96c7.92-4.57 18.05-1.85 22.62 6.08s1.85 18.06-6.08 22.63-18.06 1.84-22.63-6.09c-4.57-7.92-1.85-18.05 6.09-22.62z"/><line class="st1" x1="401.77" x2="356.89" y1="244.59" y2="270.54"/><path class="st1" d="m407.86 346.05c7.92 4.57 18.05 1.85 22.62-6.08s1.85-18.06-6.08-22.63-18.06-1.85-22.63 6.08-1.85 18.06 6.09 22.63z"/><line class="st1" x1="401.77" x2="356.89" y1="323.42" y2="297.47"/></g><path class="st2" d="m127.21 621.72h-117.55c-7.9775 0-14.441-6.1751-14.441-13.797v-111.47c0-7.6214 6.4636-13.797 14.441-13.797h117.55c7.9775 0 14.441 6.1751 14.441 13.797v111.47c0 7.6214-6.4636 13.797-14.441 13.797z" fill="#6a71b5" stroke-width="1.0494"/><g fill="none" stroke="#111342" stroke-linecap="round" stroke-linejoin="round" stroke-miterlimit="10"><path class="st1" d="m121.1 617.59h-132.44c-8.9868 0-16.266-6.9547-16.266-15.54v-125.62c0-8.5857 7.2796-15.54 16.266-15.54h132.45c8.9868 0 16.266 6.9547 16.266 15.54v125.61c0 8.5857-7.2903 15.551-16.277 15.551z" stroke-width="15.904"/><path class="st1" d="m63.618 531.99c-12.938 0-23.428-10.022-23.428-22.382 0-12.36 10.49-22.382 23.428-22.382 12.938 0 23.428 10.022 23.428 22.382 0 12.36-10.49 22.382-23.428 22.382z" stroke-width="15.904"/><polyline class="st1" transform="matrix(1.0737 0 0 1.0258 -110.84 172.36)" points="77.51 391.3 109.34 357.66 162.48 398.68 200.26 370.69 231.18 398.68" stroke-width="15.154"/><ellipse class="st1" cx="57.97" cy="328.44" rx="78.1" ry="74.614" stroke-width="15.904"/><polygon class="st1" transform="matrix(1.0737 0 0 1.0258 -110.84 172.36)" points="135.33 123.65 135.33 185.12 188.58 154.39" stroke-width="15.154"/></g></g><g transform="matrix(.52941 0 0 .52941 27.059 208.94)"><path class="st1" d="m857.57 467.03c26.141-22.044 42.062-51.291 42.062-83.367 0-22.1-7.5484-42.863-20.808-60.844-15.208-11.556-33.389-34.513-53.574-40.748l-0.0222 13.727c-7.9381 77.21-92.619 137.98-195.86 137.98-8.8176 0-44.979-0.4342-53.485-1.3137 3.2176 14.173 37.018 27.488 45.914 39.568 29.459 22.267 70.018 36.028 114.77 36.028 20.864 0 40.804-2.9949 59.14-8.4614 12.113-3.5961 58.539 51.458 69.06 45.858 10.143-5.4331-15.498-71.421-7.2033-78.423z" fill="#fba919" stroke-width="1.1133"/><g fill="none" stroke="#111342" stroke-linecap="round" stroke-linejoin="round" stroke-miterlimit="10" stroke-width="15.745"><path class="st2" d="m798.39 256.43c0 4.008-0.22266 7.9938-0.6346 11.913-7.9381 77.21-92.619 137.98-195.86 137.98-8.8176 0-17.524-0.43419-26.03-1.3137-15.731-1.5921-30.895-4.6092-45.257-8.8399-14.607-4.3643-70.541 61.979-83.222 55.222-12.247-6.5353 18.671-86.05 8.6729-94.489-31.496-26.575-50.69-61.812-50.69-100.47 0-82.754 87.976-149.87 196.52-149.87 108.53-0.0111 196.5 67.101 196.5 149.87z"/><path class="st2" d="m797.78 268.36c59.731 18.448 101.85 63.126 101.85 115.31 0 32.086-15.921 61.323-42.073 83.378-8.2832 7.0029 17.368 72.99 7.1922 78.401-10.521 5.6001-56.925-49.432-69.06-45.836-18.337 5.4442-38.277 8.4391-59.14 8.4391-80.517 0-147.42-44.522-160.69-103.04"/><line class="st2" x1="511.22" x2="692.55" y1="229.02" y2="229.02"/><line class="st2" x1="511.22" x2="692.55" y1="300.99" y2="300.99"/></g></g></svg>
