<svg class="groupreporting" xmlns="http://www.w3.org/2000/svg" xmlns:xlink="http://www.w3.org/1999/xlink" viewBox="0 0 512 512" xmlns:v="https://vecta.io/nano"><style><![CDATA[svg.groupreporting .C{stroke:#111342}svg.groupreporting .D{stroke-linejoin:round}svg.groupreporting .E{stroke-miterlimit:10}svg.groupreporting .F{fill:#38c1ce}svg.groupreporting .G{stroke-width:15.913}svg.groupreporting .H{stroke-width:8.846}svg.groupreporting .I{stroke-linecap:round}]]></style><path d="M78.069 23.951h193.749c26.75 0 48.44 19.182 48.44 42.85v78.958c0 23.663-21.685 42.85-48.44 42.85h-97.66c-1.023 0-1.991.431-2.599 1.158l-47.077 56.389c-2.776 3.323-8.742 1.589-8.742-2.547v-52.145c0-1.578-1.443-2.854-3.227-2.854H78.069c-26.75 0-48.44-19.182-48.44-42.85V66.796c0-23.663 21.691-42.845 48.44-42.845z" fill="none" class="C D E H"/><path d="M240.435 109.344c0 7.889 7.232 14.282 16.145 14.282 8.919 0 16.145-6.392 16.145-14.282s-7.226-14.282-16.145-14.282c-8.906-.005-16.145 6.387-16.145 14.282zm-82.903 0c0 7.889 7.226 14.287 16.139 14.287 8.925 0 16.151-6.398 16.151-14.287 0-7.895-7.226-14.287-16.151-14.287-8.906 0-16.139 6.392-16.139 14.287zm-81.983 0c0 7.889 7.226 14.287 16.139 14.287 8.925 0 16.151-6.398 16.151-14.287 0-7.895-7.226-14.287-16.151-14.287-8.912 0-16.139 6.392-16.139 14.287z" class="F"/><g fill="none" class="C D E H"><path d="M230.391 107.912c0 11.217 10.288 20.313 22.963 20.313 12.687 0 22.963-9.096 22.963-20.313 0-11.223-10.276-20.313-22.963-20.313-12.675 0-22.963 9.09-22.963 20.313z"/><use xlink:href="#B"/><use xlink:href="#B" x="-81.99"/></g><g transform="matrix(.682046 0 0 .777049 156.84239 125.36283)"><g fill="none" class="C D E G I"><path d="M178.32 250.87v39.89L74.9 325.99c-7.56 2.57-12.64 9.68-12.64 17.66V450.3h242.93"/><path d="M269.81 250.87v39.89l33.42 13.83m-.55-201.78l-1.35 46.04c8.3.86 14.17 8.8 12.16 17.12l-.76 3.15c-1.78 7.36-7.3 13-14.24 15.19l-3.34 28.83c-.93 12.66-8.34 23.95-19.6 29.82l-39.27 24.91H211.2l-37.87-24.91c-11.26-5.87-18.67-17.16-19.6-29.82l-3.28-28.1c-8.27-1.38-15.09-7.56-17.12-15.92l-.76-3.15-3.11-24.97"/><path d="M178.32 290.76l29.32 33.29h34.6l29.32-33.29"/></g><path d="M338.74 54.55v11.27c0 18.72-15.17 33.89-33.89 33.89H170.04c-9.36 0-16.94 7.59-16.94 16.94v31.38c0 1.87-1.51 3.37-3.37 3.37h-8.3V98.39c4-11.94 15.25-11.58 20.68-10.65 1.6.29 2.97-.91 3.14-2.56 1.63-17.18 16.11-30.63 33.72-30.63z" class="F"/><path d="M338.74 30.61v35.21c0 18.72-15.17 33.89-33.89 33.89H170.04c-9.36 0-16.94 7.59-16.94 16.94v31.38c0 1.87-1.51 3.37-3.37 3.37h-16.87c-1.87 0-3.4-1.51-3.4-3.37V74.46c4-11.94 15.25-11.58 20.68-10.65 1.6.29 2.97-.91 3.14-2.56 1.63-17.18 16.11-30.63 33.72-30.63h151.74z" fill="none" class="C D E G"/><circle cx="389.75" cy="386.9" r="89.99" class="F"/><g fill="none" class="C D G"><circle cx="381.56" cy="375.98" r="104.64"/><g class="E"><path d="M402.4 297.55l-67.53 83.43-6.89 54.14c-.65 2.56 2 4.7 4.36 3.53l52.39-17.31 67.53-83.43z"/><path d="M384.74 421.35l-49.87-40.37m87.22-60.02l-60.28 78.36" class="I"/></g></g></g><defs ><path id="B" d="M147.494 107.912c0 11.217 10.276 20.313 22.951 20.313 12.687 0 22.963-9.096 22.963-20.313 0-11.223-10.276-20.313-22.963-20.313-12.675 0-22.951 9.09-22.951 20.313z"/></defs></svg>