<?xml version="1.0" encoding="UTF-8" standalone="no"?>
<svg
   xmlns:dc="http://purl.org/dc/elements/1.1/"
   xmlns:cc="http://creativecommons.org/ns#"
   xmlns:rdf="http://www.w3.org/1999/02/22-rdf-syntax-ns#"
   xmlns:svg="http://www.w3.org/2000/svg"
   xmlns="http://www.w3.org/2000/svg"
   xmlns:sodipodi="http://sodipodi.sourceforge.net/DTD/sodipodi-0.dtd"
   xmlns:inkscape="http://www.inkscape.org/namespaces/inkscape"
   inkscape:version="1.0 (4035a4f, 2020-05-01)"
   sodipodi:docname="forum-n-scribe.svg"
   version="1.1"
   id="Layer_1"
   x="0px"
   y="0px"
   viewBox="0 0 512 512"
   style="enable-background:new 0 0 512 512;"
   xml:space="preserve"><sodipodi:namedview
   inkscape:current-layer="Layer_1"
   inkscape:window-maximized="0"
   inkscape:window-y="56"
   inkscape:window-x="124"
   inkscape:cy="256"
   inkscape:cx="256"
   inkscape:zoom="0.8"
   showgrid="false"
   id="namedview2111"
   inkscape:window-height="916"
   inkscape:window-width="1657"
   inkscape:pageshadow="2"
   inkscape:pageopacity="0"
   guidetolerance="10"
   gridtolerance="10"
   objecttolerance="10"
   borderopacity="1"
   bordercolor="#666666"
   pagecolor="#ffffff" /><metadata
   id="metadata31"><rdf:RDF><cc:Work
       rdf:about=""><dc:format>image/svg+xml</dc:format><dc:type
         rdf:resource="http://purl.org/dc/dcmitype/StillImage" /><dc:title></dc:title></cc:Work></rdf:RDF></metadata><defs
   id="defs29">
	
	
	
	
	
	
</defs>
<style
   type="text/css"
   id="style10">
	.st0{opacity:0.6;fill:#FBA919;}
	.st1{fill:#FBA919;}
	.st2{fill:none;stroke:#111342;stroke-width:14.798;stroke-linecap:round;stroke-linejoin:round;stroke-miterlimit:10;}
</style>
<g
   id="g85"
   transform="matrix(0.52156813,0,0,0.52156813,0.6576416,-10.481065)"><path
     style="stroke-width:1.04637"
     class="st1"
     d="m 463.72601,394.07848 c 24.56878,-20.71813 39.53188,-48.20629 39.53188,-78.35223 0,-20.77045 -7.09439,-40.28527 -19.55667,-57.18415 -14.29342,-10.86133 -31.38065,-32.43749 -50.35135,-38.29716 l -0.0209,12.90174 c -7.46062,72.56581 -87.04757,129.67671 -184.07752,129.67671 -8.28725,0 -42.27337,-0.40808 -50.26764,-1.23471 3.02401,13.32029 34.79182,25.83489 43.15232,37.18801 27.68697,20.92741 65.80625,33.86055 107.87035,33.86055 19.60899,0 38.34948,-2.81474 55.58321,-7.95242 11.38451,-3.37977 55.01816,48.36325 64.90636,43.10001 9.53244,-5.10629 -14.56547,-67.12468 -6.77001,-73.70635 z"
     id="path14" /><path
     class="st2"
     d="m 408.11141,196.14702 c 0,3.76693 -0.20927,7.51294 -0.59643,11.19617 -7.46062,72.5658 -87.04757,129.6767 -184.07752,129.6767 -8.28725,0 -16.46987,-0.40808 -24.46414,-1.23471 -14.78522,-1.49631 -29.03679,-4.33198 -42.53497,-8.30819 -13.72838,-4.10177 -66.298038,58.25146 -78.2162,51.89999 -11.510076,-6.1422 17.547635,-80.87399 8.151227,-88.80548 C 56.771553,265.59464 38.732124,232.47701 38.732124,196.14702 38.732124,118.37029 121.41633,55.295074 223.427,55.295074 325.4272,55.28461 408.11141,118.35983 408.11141,196.14702 Z"
     id="path16" /><path
     class="st2"
     d="m 407.53591,207.35365 c 56.13778,17.33836 95.72198,59.32921 95.72198,108.3726 0,30.1564 -14.9631,57.6341 -39.54235,78.3627 -7.78499,6.58167 16.32338,68.60005 6.75956,73.68541 -9.8882,5.26325 -53.50093,-46.45885 -64.90637,-43.07907 -17.23372,5.11675 -35.97422,7.93149 -55.58321,7.93149 -75.67352,0 -138.54993,-41.84436 -151.02267,-96.8416"
     id="path18" /><line
     class="st2"
     x1="138.21059"
     y1="170.38538"
     x2="308.63293"
     y2="170.38538"
     id="line20" /><line
     class="st2"
     x1="138.21059"
     y1="238.02277"
     x2="308.63293"
     y2="238.02277"
     id="line22" /></g>
<style
   id="style10-6"
   type="text/css">
	.st0{opacity:0.6;fill:#38C1CE;}
	.st1{fill:none;stroke:#111342;stroke-width:14.3597;stroke-linecap:round;stroke-linejoin:round;stroke-miterlimit:10;}
	.st2{fill:#38C1CE;}
</style><g
   transform="matrix(0.68446317,0,0,0.68446317,169.61035,168.95608)"
   id="g35">
		<path
   id="XMLID_51_"
   class="st1"
   d="m 178.32,250.87 v 39.89 L 74.9,325.99 c -7.56,2.57 -12.64,9.68 -12.64,17.66 V 450.3 h 242.93" />
		<polyline
   class="st1"
   points="269.81,250.87 269.81,290.76 303.23,304.59   "
   id="polyline15" />
		<path
   id="XMLID_48_"
   class="st1"
   d="m 302.68,102.81 -1.35,46.04 c 8.3,0.86 14.17,8.8 12.16,17.12 l -0.76,3.15 c -1.78,7.36 -7.3,13 -14.24,15.19 l -3.34,28.83 c -0.93,12.66 -8.34,23.95 -19.6,29.82 l -39.27,24.91 H 211.2 l -37.87,-24.91 c -11.26,-5.87 -18.67,-17.16 -19.6,-29.82 l -3.28,-28.1 c -8.27,-1.38 -15.09,-7.56 -17.12,-15.92 l -0.76,-3.15 -3.11,-24.97" />
		<polyline
   id="XMLID_47_"
   class="st1"
   points="178.32,290.76 207.64,324.05 242.24,324.05 271.56,290.76   " />
		<path
   class="st2"
   d="m 338.74,54.55 v 11.27 c 0,18.72 -15.17,33.89 -33.89,33.89 H 170.04 c -9.36,0 -16.94,7.59 -16.94,16.94 v 31.38 c 0,1.87 -1.51,3.37 -3.37,3.37 h -8.3 V 98.39 c 4,-11.94 15.25,-11.58 20.68,-10.65 1.6,0.29 2.97,-0.91 3.14,-2.56 1.63,-17.18 16.11,-30.63 33.72,-30.63 z"
   id="path19" />
		<path
   class="st1"
   d="m 338.74,30.61 v 35.21 c 0,18.72 -15.17,33.89 -33.89,33.89 H 170.04 c -9.36,0 -16.94,7.59 -16.94,16.94 v 31.38 c 0,1.87 -1.51,3.37 -3.37,3.37 h -16.87 c -1.87,0 -3.4,-1.51 -3.4,-3.37 V 74.46 c 4,-11.94 15.25,-11.58 20.68,-10.65 1.6,0.29 2.97,-0.91 3.14,-2.56 1.63,-17.18 16.11,-30.63 33.72,-30.63 h 151.74 z"
   id="path21" />
		<g
   id="g33">
			<circle
   class="st2"
   cx="389.75"
   cy="386.89999"
   r="89.989998"
   id="circle23" />
			<circle
   class="st1"
   cx="381.56"
   cy="375.98001"
   r="104.64"
   id="circle25" />
			<g
   id="g31">
				<path
   id="XMLID_55_"
   class="st1"
   d="m 402.4,297.55 -67.53,83.43 -6.89,54.14 c -0.65,2.56 2,4.7 4.36,3.53 l 52.39,-17.31 67.53,-83.43 z" />
				<line
   id="XMLID_290_"
   class="st1"
   x1="384.73999"
   y1="421.35001"
   x2="334.87"
   y2="380.98001" />
				<line
   class="st1"
   x1="422.09"
   y1="320.95999"
   x2="361.81"
   y2="399.32001"
   id="line29" />
			</g>
		</g>
	</g></svg>
