<?xml version="1.0" encoding="UTF-8" standalone="no"?>
<svg
   xmlns:dc="http://purl.org/dc/elements/1.1/"
   xmlns:cc="http://creativecommons.org/ns#"
   xmlns:rdf="http://www.w3.org/1999/02/22-rdf-syntax-ns#"
   xmlns:svg="http://www.w3.org/2000/svg"
   xmlns="http://www.w3.org/2000/svg"
   xmlns:sodipodi="http://sodipodi.sourceforge.net/DTD/sodipodi-0.dtd"
   xmlns:inkscape="http://www.inkscape.org/namespaces/inkscape"
   inkscape:version="1.0 (4035a4f, 2020-05-01)"
   sodipodi:docname="chat-n-scribe.svg"
   version="1.1"
   id="Layer_1"
   x="0px"
   y="0px"
   viewBox="0 0 512 512"
   style="enable-background:new 0 0 512 512;"
   xml:space="preserve"><sodipodi:namedview
   inkscape:current-layer="Layer_1"
   inkscape:window-maximized="0"
   inkscape:window-y="23"
   inkscape:window-x="0"
   inkscape:cy="264.85535"
   inkscape:cx="257.61006"
   inkscape:zoom="1.2421875"
   showgrid="false"
   id="namedview845"
   inkscape:window-height="902"
   inkscape:window-width="1505"
   inkscape:pageshadow="2"
   inkscape:pageopacity="0"
   guidetolerance="10"
   gridtolerance="10"
   objecttolerance="10"
   borderopacity="1"
   bordercolor="#666666"
   pagecolor="#ffffff" /><metadata
   id="metadata138"><rdf:RDF><cc:Work
       rdf:about=""><dc:format>image/svg+xml</dc:format><dc:type
         rdf:resource="http://purl.org/dc/dcmitype/StillImage" /><dc:title /></cc:Work></rdf:RDF></metadata><defs
   id="defs136">
	
	
	
	
	
	
	
	
</defs>
<style
   type="text/css"
   id="style113">
	.st0{opacity:0.6;fill:#38C1CE;}
	.st1{fill:none;stroke:#111342;stroke-width:15.9132;stroke-linecap:round;stroke-linejoin:round;stroke-miterlimit:10;}
	.st2{fill:#38C1CE;}
</style>
<g
   id="g173"
   transform="matrix(0.58885679,0,0,0.52090102,24.195921,10.810985)"><path
     class="st1"
     d="M 91.487275,25.22574 H 420.51274 c 45.42631,0 82.26153,36.824882 82.26153,82.26153 v 151.57957 c 0,45.42632 -36.82488,82.26154 -82.26153,82.26154 H 254.66637 c -1.73683,0 -3.38061,0.82706 -4.41444,2.22272 l -79.94576,108.25192 c -4.71425,6.37871 -14.84574,3.04979 -14.84574,-4.88999 V 346.80766 c 0,-3.02911 -2.45017,-5.47928 -5.47928,-5.47928 H 91.487275 c -45.426314,0 -82.2615348,-36.82488 -82.2615348,-82.26154 v -151.5899 c 0,-45.426318 36.8352208,-82.2512 82.2615348,-82.2512 z"
     id="path117" /><path
     style="stroke-width:1.03383"
     class="st2"
     d="m 367.21901,189.15953 c 0,15.14555 12.28185,27.41706 27.41706,27.41706 15.14555,0 27.41707,-12.27151 27.41707,-27.41706 0,-15.14555 -12.27152,-27.41707 -27.41707,-27.41707 -15.12487,-0.0103 -27.41706,12.26118 -27.41706,27.41707 z"
     id="path119" /><path
     style="stroke-width:1.03383"
     class="st2"
     d="m 226.43258,189.15953 c 0,15.14555 12.27152,27.4274 27.40673,27.4274 15.15589,0 27.4274,-12.28185 27.4274,-27.4274 0,-15.15589 -12.27151,-27.4274 -27.4274,-27.4274 -15.12487,0 -27.40673,12.27151 -27.40673,27.4274 z"
     id="path121" /><path
     style="stroke-width:1.03383"
     class="st2"
     d="m 87.207235,189.15953 c 0,15.14555 12.271515,27.4274 27.406725,27.4274 15.15589,0 27.42741,-12.28185 27.42741,-27.4274 0,-15.15589 -12.27152,-27.4274 -27.42741,-27.4274 -15.13521,0 -27.406725,12.27151 -27.406725,27.4274 z"
     id="path123" /><path
     class="st1"
     d="m 350.16088,186.40955 c 0,21.5346 17.47166,38.99592 38.99592,38.99592 21.54493,0 38.99591,-17.46132 38.99591,-38.99592 0,-21.54493 -17.45098,-38.99591 -38.99591,-38.99591 -21.52426,0 -38.99592,17.45098 -38.99592,38.99591 z"
     id="path125" /><path
     class="st1"
     d="m 209.38479,186.40955 c 0,21.5346 17.45098,38.99592 38.97524,38.99592 21.54494,0 38.99592,-17.46132 38.99592,-38.99592 0,-21.54493 -17.45098,-38.99591 -38.99592,-38.99591 -21.52426,0 -38.97524,17.45098 -38.97524,38.99591 z"
     id="path127" /><path
     class="st1"
     d="m 70.149106,186.40955 c 0,21.5346 17.450983,38.99592 38.975244,38.99592 21.54493,0 38.99591,-17.46132 38.99591,-38.99592 0,-21.54493 -17.45098,-38.99591 -38.99591,-38.99591 -21.524261,0 -38.975244,17.45098 -38.975244,38.99591 z"
     id="path129" /></g>
<g
   transform="matrix(0.68204574,0,0,0.77704866,156.84239,125.36283)"
   id="g35"><path
     id="XMLID_51_"
     class="st1"
     d="m 178.32,250.87 v 39.89 L 74.9,325.99 c -7.56,2.57 -12.64,9.68 -12.64,17.66 V 450.3 h 242.93" /><polyline
     class="st1"
     points="269.81,250.87 269.81,290.76 303.23,304.59   "
     id="polyline15" /><path
     id="XMLID_48_"
     class="st1"
     d="m 302.68,102.81 -1.35,46.04 c 8.3,0.86 14.17,8.8 12.16,17.12 l -0.76,3.15 c -1.78,7.36 -7.3,13 -14.24,15.19 l -3.34,28.83 c -0.93,12.66 -8.34,23.95 -19.6,29.82 l -39.27,24.91 H 211.2 l -37.87,-24.91 c -11.26,-5.87 -18.67,-17.16 -19.6,-29.82 l -3.28,-28.1 c -8.27,-1.38 -15.09,-7.56 -17.12,-15.92 l -0.76,-3.15 -3.11,-24.97" /><polyline
     id="XMLID_47_"
     class="st1"
     points="178.32,290.76 207.64,324.05 242.24,324.05 271.56,290.76   " /><path
     class="st2"
     d="m 338.74,54.55 v 11.27 c 0,18.72 -15.17,33.89 -33.89,33.89 H 170.04 c -9.36,0 -16.94,7.59 -16.94,16.94 v 31.38 c 0,1.87 -1.51,3.37 -3.37,3.37 h -8.3 V 98.39 c 4,-11.94 15.25,-11.58 20.68,-10.65 1.6,0.29 2.97,-0.91 3.14,-2.56 1.63,-17.18 16.11,-30.63 33.72,-30.63 z"
     id="path19" /><path
     class="st1"
     d="m 338.74,30.61 v 35.21 c 0,18.72 -15.17,33.89 -33.89,33.89 H 170.04 c -9.36,0 -16.94,7.59 -16.94,16.94 v 31.38 c 0,1.87 -1.51,3.37 -3.37,3.37 h -16.87 c -1.87,0 -3.4,-1.51 -3.4,-3.37 V 74.46 c 4,-11.94 15.25,-11.58 20.68,-10.65 1.6,0.29 2.97,-0.91 3.14,-2.56 1.63,-17.18 16.11,-30.63 33.72,-30.63 h 151.74 z"
     id="path21" /><g
     id="g33"><circle
       class="st2"
       cx="389.75"
       cy="386.89999"
       r="89.989998"
       id="circle23" /><circle
       class="st1"
       cx="381.56"
       cy="375.98001"
       r="104.64"
       id="circle25" /><g
       id="g31"><path
         id="XMLID_55_"
         class="st1"
         d="m 402.4,297.55 -67.53,83.43 -6.89,54.14 c -0.65,2.56 2,4.7 4.36,3.53 l 52.39,-17.31 67.53,-83.43 z" /><line
         id="XMLID_290_"
         class="st1"
         x1="384.73999"
         y1="421.35001"
         x2="334.87"
         y2="380.98001" /><line
         class="st1"
         x1="422.09"
         y1="320.95999"
         x2="361.81"
         y2="399.32001"
         id="line29" /></g></g></g></svg>
