<?xml version="1.0" encoding="UTF-8"?><svg xmlns="http://www.w3.org/2000/svg" viewBox="0 0 512 512"><style><![CDATA[.C{stroke:#111342}.D{stroke-linejoin:round}.E{stroke-miterlimit:10}.F{stroke-linecap:round}.G{stroke-width:15.713}]]></style><path d="M70.406 435.408l58.446-53.76 40.78-15.957 46.076 11.28 77.226 3.245 28.184.771 1.673 19.02 112.297-53.105 21.509 8.899-7.195 27.939-168.798 65.265-195.196 8.612z" fill="#fff"/><g transform="matrix(1.047756 0 0 1.047756 -2.987165 -24.403522)"><g class="C D E"><path d="M342.876 31.756H189.903l-60.633 52.63v239.413c0 11.947 9.771 21.728 21.728 21.728h191.878c11.947 0 21.728-9.771 21.728-21.728V53.483c-.01-11.947-9.781-21.728-21.728-21.728z" fill="#fff" stroke-width="15.02"/><path d="M184.485 186.905H309.39m-124.905 46.049H309.39m-124.905 46.04H309.39" fill="none" class="F G"/></g><path d="M209.529 35.961v66.847h-75.665" fill="#2dbce9"/><path d="M209.529 35.961v66.847h-75.665" fill="none" class="C D E F G"/><path d="M439.202 383.741c-2.406 5.189-6.622 9.792-12.26 12.836L288.824 470.61l-7.302 1.831-128.818 3.484s-16.602 4.634-36.53 27.209l-30.766-45.516 51.301-47.169c28.548-19.269 62.411-8.641 62.411-8.641 16.393 4.32 46.855 5.293 46.855 5.293h50.569c6.392 0 12.281 1.935 16.947 5.157 5.816 4.038 9.739 10.085 10.346 16.916l1.391-.366 87.518-44.491c8.997-4.843 19.081-4.917 26.456-.575z" fill="#2dbce9"/><path d="M317.351 400.008l87.518-44.491c12.857-6.915 27.973-4.143 34.176 7.438 3.484 6.496 3.295 14.143.157 20.797-2.406 5.189-6.622 9.792-12.26 12.836l-138.118 74.033-7.302 1.831-128.818 3.484s-16.602 4.634-36.53 27.209l-30.766-45.527-15.001-22.209 58.446-53.76c28.548-19.269 62.411-8.641 62.411-8.641 16.393 4.32 46.855 5.293 46.855 5.293h50.569c15.054 0 27.366 10.764 27.366 23.914 0 3.588-.921 6.988-2.563 10.053-4.352 8.149-13.851 13.83-24.803 13.83h-69.943" fill="none" class="C D E F G"/></g></svg>
