<?xml version="1.0" encoding="UTF-8" standalone="no"?>
<!-- Created with Inkscape (http://www.inkscape.org/) -->

<svg
   xmlns:dc="http://purl.org/dc/elements/1.1/"
   xmlns:cc="http://creativecommons.org/ns#"
   xmlns:rdf="http://www.w3.org/1999/02/22-rdf-syntax-ns#"
   xmlns:svg="http://www.w3.org/2000/svg"
   xmlns="http://www.w3.org/2000/svg"
   version="1.1"
   width="30"
   height="30"
   id="svg2"
   xml:space="preserve"><metadata
     id="metadata8"><rdf:RDF><cc:Work
         rdf:about=""><dc:format>image/svg+xml</dc:format><dc:type
           rdf:resource="http://purl.org/dc/dcmitype/StillImage" /><dc:title></dc:title></cc:Work></rdf:RDF></metadata><defs
     id="defs6"><clipPath
       id="clipPath16"><path
         d="m 3.931,5.609 c 0,-2.277 9.697,-4.118 21.655,-4.118 l 0,0 c 11.959,0 21.654,1.841 21.654,4.118 l 0,0 c 0,2.27 -9.695,4.111 -21.654,4.111 l 0,0 C 13.628,9.72 3.931,7.879 3.931,5.609"
         id="path18" /></clipPath><radialGradient
       cx="0"
       cy="0"
       r="1"
       fx="0"
       fy="0"
       id="radialGradient24"
       gradientUnits="userSpaceOnUse"
       gradientTransform="matrix(21.659603,0,0,4.1136875,25.59375,5.6054687)"
       spreadMethod="pad"><stop
         id="stop26"
         style="stop-color:#aaa8a9;stop-opacity:1"
         offset="0" /><stop
         id="stop28"
         style="stop-color:#ffffff;stop-opacity:1"
         offset="1" /></radialGradient><clipPath
       id="clipPath36"><path
         d="m 8.982,46.49 c -2.463,0 -4.464,-1.879 -4.464,-4.19 l 0,0 0,-34.473 c 0,-2.308 2.001,-4.19 4.464,-4.19 l 0,0 27.199,0 c 2.462,0 4.46,1.882 4.46,4.19 l 0,0 0,34.473 c 0,2.311 -1.998,4.19 -4.46,4.19 l 0,0 -27.199,0 z"
         id="path38" /></clipPath><linearGradient
       x1="0"
       y1="0"
       x2="1"
       y2="0"
       id="linearGradient44"
       gradientUnits="userSpaceOnUse"
       gradientTransform="matrix(36.12402,0,0,36.12402,4.515625,25.0625)"
       spreadMethod="pad"><stop
         id="stop46"
         style="stop-color:#e2e1e0;stop-opacity:1"
         offset="0" /><stop
         id="stop48"
         style="stop-color:#e3e3e1;stop-opacity:1"
         offset="0.54707301" /><stop
         id="stop50"
         style="stop-color:#ffffff;stop-opacity:1"
         offset="1" /></linearGradient><clipPath
       id="clipPath62"><path
         d="M 0,50 50,50 50,0 0,0 0,50 z"
         id="path64" /></clipPath><clipPath
       id="clipPath74"><path
         d="m 8.656,45.72 c -1.885,0 -3.437,-1.455 -3.437,-3.23 l 0,0 0,-6.373 34.721,0 0,6.373 c 0,1.775 -1.545,3.23 -3.437,3.23 l 0,0 -27.847,0 z"
         id="path76" /></clipPath><radialGradient
       cx="0"
       cy="0"
       r="1"
       fx="0"
       fy="0"
       id="radialGradient82"
       gradientUnits="userSpaceOnUse"
       gradientTransform="matrix(12.738808,0,0,12.738808,22.574219,40.914062)"
       spreadMethod="pad"><stop
         id="stop84"
         style="stop-color:#c7eafa;stop-opacity:1"
         offset="0" /><stop
         id="stop86"
         style="stop-color:#82c3eb;stop-opacity:1"
         offset="1" /></radialGradient><clipPath
       id="clipPath94"><path
         d="M 0,50 50,50 50,0 0,0 0,50 z"
         id="path96" /></clipPath><clipPath
       id="clipPath114"><path
         d="m 31.421,31.421 0,-3.531 c 0,-0.165 -0.14,-0.307 -0.309,-0.307 l 0,0 -5.665,0 c -0.857,0 -1.548,-0.696 -1.548,-1.558 l 0,0 0,-5.723 c 0,-0.857 0.691,-1.55 1.548,-1.55 l 0,0 5.665,0 c 0.169,0 0.309,-0.145 0.309,-0.318 l 0,0 0,-3.525 c 0,-0.799 0.524,-1.158 1,-1.158 l 0,0 c 0.246,0 0.497,0.082 0.74,0.257 l 0,0 11.421,8.111 c 0.363,0.258 0.571,0.641 0.571,1.047 l 0,0 c 0,0.404 -0.208,0.784 -0.571,1.048 l 0,0 -11.421,8.108 c -0.243,0.174 -0.494,0.262 -0.74,0.262 l 0,0 c -0.476,0 -1,-0.363 -1,-1.163"
         id="path116" /></clipPath><radialGradient
       cx="0"
       cy="0"
       r="1"
       fx="0"
       fy="0"
       id="radialGradient122"
       gradientUnits="userSpaceOnUse"
       gradientTransform="matrix(10.037325,0,0,10.037325,34.53125,23.171875)"
       spreadMethod="pad"><stop
         id="stop124"
         style="stop-color:#ffffff;stop-opacity:1"
         offset="0" /><stop
         id="stop126"
         style="stop-color:#9fcc48;stop-opacity:1"
         offset="0.852768" /><stop
         id="stop128"
         style="stop-color:#9fcc48;stop-opacity:1"
         offset="1" /></radialGradient><clipPath
       id="clipPath140"><path
         d="M 0,50 50,50 50,0 0,0 0,50 z"
         id="path142" /></clipPath></defs><g
     transform="matrix(1.25,0,0,-1.25,0,30)"
     id="g10"><g
       transform="matrix(0.53814931,0,0,0.53814931,-0.94463011,-1.4976129)"
       id="g32"><g
         clip-path="url(#clipPath36)"
         id="g34"><g
           id="g40"><g
             id="g42"><path
               d="m 8.982,46.49 c -2.463,0 -4.464,-1.879 -4.464,-4.19 l 0,0 0,-34.473 c 0,-2.308 2.001,-4.19 4.464,-4.19 l 0,0 27.199,0 c 2.462,0 4.46,1.882 4.46,4.19 l 0,0 0,34.473 c 0,2.311 -1.998,4.19 -4.46,4.19 l 0,0 -27.199,0 z"
               id="path52"
               style="fill:url(#linearGradient44);stroke:none" /></g></g><g
           transform="translate(8.9819,46.4907)"
           id="g54"><path
             d="m 0,0 c -2.463,0 -4.464,-1.88 -4.464,-4.19 l 0,-34.474 c 0,-2.308 2.001,-4.19 4.464,-4.19 l 27.199,0 c 2.463,0 4.461,1.882 4.461,4.19 l 0,34.474 C 31.66,-1.88 29.662,0 27.199,0 L 0,0 z"
             id="path56"
             style="fill:none;stroke:#90c84b;stroke-width:1;stroke-linecap:butt;stroke-linejoin:miter;stroke-miterlimit:10;stroke-opacity:1;stroke-dasharray:none" /></g></g></g><g
       transform="matrix(0.53814931,0,0,0.53814931,-0.94463011,-1.4976129)"
       id="g58"><g
         clip-path="url(#clipPath62)"
         id="g60"><g
           transform="translate(8.9819,46.4907)"
           id="g66"><path
             d="m 0,0 c -2.463,0 -4.464,-1.88 -4.464,-4.19 l 0,-34.474 c 0,-2.308 2.001,-4.19 4.464,-4.19 l 27.199,0 c 2.463,0 4.461,1.882 4.461,4.19 l 0,34.474 C 31.66,-1.88 29.662,0 27.199,0 L 0,0 z"
             id="path68"
             style="fill:none;stroke:#90c84b;stroke-width:1;stroke-linecap:butt;stroke-linejoin:miter;stroke-miterlimit:10;stroke-opacity:1;stroke-dasharray:none" /></g></g></g><g
       transform="matrix(0.53814931,0,0,0.53814931,-0.94463011,-1.4976129)"
       id="g70"><g
         clip-path="url(#clipPath74)"
         id="g72"><g
           id="g78"><g
             id="g80"><path
               d="m 8.656,45.72 c -1.885,0 -3.437,-1.455 -3.437,-3.23 l 0,0 0,-6.373 34.721,0 0,6.373 c 0,1.775 -1.545,3.23 -3.437,3.23 l 0,0 -27.847,0 z"
               id="path88"
               style="fill:url(#radialGradient82);stroke:none" /></g></g></g></g><g
       transform="matrix(0.53814931,0,0,0.53814931,-0.94463011,-1.4976129)"
       id="g90"><g
         clip-path="url(#clipPath94)"
         id="g92"><g
           transform="translate(36.2725,28.291)"
           id="g98"><path
             d="m 0,0 -27.365,0 0,1.356 27.362,0 L 0,0 z"
             id="path100"
             style="fill:#b0afbc;fill-opacity:1;fill-rule:nonzero;stroke:none" /></g><g
           transform="translate(36.2725,21.7129)"
           id="g102"><path
             d="m 0,0 -27.365,0 0,1.356 27.362,0 L 0,0 z"
             id="path104"
             style="fill:#b0afbc;fill-opacity:1;fill-rule:nonzero;stroke:none" /></g><g
           transform="translate(36.2725,15.1357)"
           id="g106"><path
             d="m 0,0 -27.365,0 0,1.353 27.362,0 L 0,0 z"
             id="path108"
             style="fill:#b0afbc;fill-opacity:1;fill-rule:nonzero;stroke:none" /></g></g></g><g
       transform="matrix(0.53814931,0,0,0.53814931,-0.94463011,-1.4976129)"
       id="g110"><g
         clip-path="url(#clipPath114)"
         id="g112"><g
           id="g118"><g
             id="g120"><path
               d="m 31.421,31.421 0,-3.531 c 0,-0.165 -0.14,-0.307 -0.309,-0.307 l 0,0 -5.665,0 c -0.857,0 -1.548,-0.696 -1.548,-1.558 l 0,0 0,-5.723 c 0,-0.857 0.691,-1.55 1.548,-1.55 l 0,0 5.665,0 c 0.169,0 0.309,-0.145 0.309,-0.318 l 0,0 0,-3.525 c 0,-0.799 0.524,-1.158 1,-1.158 l 0,0 c 0.246,0 0.497,0.082 0.74,0.257 l 0,0 11.421,8.111 c 0.363,0.258 0.571,0.641 0.571,1.047 l 0,0 c 0,0.404 -0.208,0.784 -0.571,1.048 l 0,0 -11.421,8.108 c -0.243,0.174 -0.494,0.262 -0.74,0.262 l 0,0 c -0.476,0 -1,-0.363 -1,-1.163"
               id="path130"
               style="fill:url(#radialGradient122);stroke:none" /></g></g><g
           transform="translate(31.4209,31.4204)"
           id="g132"><path
             d="m 0,0 0,-3.53 c 0,-0.166 -0.14,-0.307 -0.309,-0.307 l -5.665,0 c -0.857,0 -1.548,-0.697 -1.548,-1.559 l 0,-5.723 c 0,-0.857 0.691,-1.549 1.548,-1.549 l 5.665,0 c 0.169,0 0.309,-0.146 0.309,-0.319 l 0,-3.524 c 0,-0.799 0.523,-1.158 1,-1.158 0.246,0 0.497,0.082 0.74,0.256 l 11.421,8.112 c 0.363,0.258 0.571,0.64 0.571,1.047 0,0.404 -0.208,0.784 -0.571,1.047 L 1.74,0.901 C 1.497,1.076 1.246,1.163 1,1.163 0.523,1.163 0,0.8 0,0"
             id="path134"
             style="fill:none;stroke:#47b754;stroke-width:1;stroke-linecap:butt;stroke-linejoin:miter;stroke-miterlimit:10;stroke-opacity:1;stroke-dasharray:none" /></g></g></g><g
       transform="matrix(0.53814931,0,0,0.53814931,-0.94463011,-1.4976129)"
       id="g136"><g
         clip-path="url(#clipPath140)"
         id="g138"><g
           transform="translate(31.4209,31.4204)"
           id="g144"><path
             d="m 0,0 0,-3.53 c 0,-0.166 -0.14,-0.307 -0.309,-0.307 l -5.665,0 c -0.857,0 -1.548,-0.697 -1.548,-1.559 l 0,-5.723 c 0,-0.857 0.691,-1.549 1.548,-1.549 l 5.665,0 c 0.169,0 0.309,-0.146 0.309,-0.319 l 0,-3.524 c 0,-0.799 0.523,-1.158 1,-1.158 0.246,0 0.497,0.082 0.74,0.256 l 11.421,8.112 c 0.363,0.258 0.571,0.64 0.571,1.047 0,0.404 -0.208,0.784 -0.571,1.047 L 1.74,0.901 C 1.497,1.076 1.246,1.163 1,1.163 0.523,1.163 0,0.8 0,0"
             id="path146"
             style="fill:none;stroke:#47b754;stroke-width:1;stroke-linecap:butt;stroke-linejoin:miter;stroke-miterlimit:10;stroke-opacity:1;stroke-dasharray:none" /></g></g></g></g></svg>