<?xml version="1.0" encoding="UTF-8" standalone="no"?>
<svg class="submitfile"
   xmlns:dc="http://purl.org/dc/elements/1.1/"
   xmlns:cc="http://creativecommons.org/ns#"
   xmlns:rdf="http://www.w3.org/1999/02/22-rdf-syntax-ns#"
   xmlns:svg="http://www.w3.org/2000/svg"
   xmlns="http://www.w3.org/2000/svg"
   xml:space="preserve"
   style="enable-background:new 0 0 512 512;"
   viewBox="0 0 512 512"
   
   
   
   version="1.1"><metadata
   id="metadata47"><rdf:RDF><cc:Work
       rdf:about=""><dc:format>image/svg+xml</dc:format><dc:type
         rdf:resource="http://purl.org/dc/dcmitype/StillImage" /><dc:title></dc:title></cc:Work></rdf:RDF></metadata><defs
   id="defs45">
	
	

		
		
		
		
		
	
		
		
	</defs>
<style
   id="style10"
   type="text/css">
	svg.submitfile .st0{opacity:0.6;fill:#38C1CE;}
	svg.submitfile .st1{fill:none;stroke:#111342;stroke-width:15.0201;stroke-linecap:round;stroke-linejoin:round;stroke-miterlimit:10;}
	svg.submitfile .st2{fill:#38C1CE;}
</style>
<g
   transform="matrix(1.0477564,0,0,1.0477564,-2.9871654,-24.403522)"
   id="g199"><g
     id="g20"
     transform="matrix(1.0461118,0,0,1.0461118,-12.090269,-11.406886)">
			<line
   class="st1"
   x1="187.91"
   y1="189.57001"
   x2="307.31"
   y2="189.57001"
   id="line14" />
			<line
   class="st1"
   x1="187.91"
   y1="233.59"
   x2="307.31"
   y2="233.59"
   id="line16" />
			<line
   class="st1"
   x1="187.91"
   y1="277.60001"
   x2="307.31"
   y2="277.60001"
   id="line18" />
		</g><path
     class="st1"
     d="M 342.87639,31.755687 H 189.90346 L 129.27082,84.385572 V 323.79872 c 0,11.94659 9.77068,21.72774 21.72774,21.72774 h 191.87783 c 11.94659,0 21.72774,-9.77068 21.72774,-21.72774 V 53.483429 c -0.0105,-11.946597 -9.78115,-21.727742 -21.72774,-21.727742 z"
     id="path22" /><polyline
     class="st2"
     points="211.85,45.28 211.85,109.18 139.52,109.18   "
     id="polyline24"
     transform="matrix(1.0461118,0,0,1.0461118,-12.090269,-11.406886)" /><polyline
     class="st1"
     points="211.85,45.28 211.85,109.18 139.52,109.18   "
     id="polyline26"
     transform="matrix(1.0461118,0,0,1.0461118,-12.090269,-11.406886)" /><g
     id="g32"
     transform="matrix(1.0461118,0,0,1.0461118,-12.090269,-11.406886)">
			<path
   class="st2"
   d="m 431.4,377.73 c -2.3,4.96 -6.33,9.36 -11.72,12.27 l -132.03,70.77 -6.98,1.75 -123.14,3.33 c 0,0 -15.87,4.43 -34.92,26.01 L 93.2,448.35 142.24,403.26 C 169.53,384.84 201.9,395 201.9,395 c 15.67,4.13 44.79,5.06 44.79,5.06 h 48.34 c 6.11,0 11.74,1.85 16.2,4.93 5.56,3.86 9.31,9.64 9.89,16.17 l 1.33,-0.35 83.66,-42.53 c 8.6,-4.63 18.24,-4.7 25.29,-0.55 z"
   id="path30" />
		</g><g
     id="g36"
     transform="matrix(1.0461118,0,0,1.0461118,-12.090269,-11.406886)">
			<path
   class="st1"
   d="m 314.92,393.28 83.66,-42.53 c 12.29,-6.61 26.74,-3.96 32.67,7.11 3.33,6.21 3.15,13.52 0.15,19.88 -2.3,4.96 -6.33,9.36 -11.72,12.27 l -132.03,70.77 -6.98,1.75 -123.14,3.33 c 0,0 -15.87,4.43 -34.92,26.01 L 93.2,448.35 78.86,427.12 134.73,375.73 c 27.29,-18.42 59.66,-8.26 59.66,-8.26 15.67,4.13 44.79,5.06 44.79,5.06 h 48.34 c 14.39,0 26.16,10.29 26.16,22.86 0,3.43 -0.88,6.68 -2.45,9.61 -4.16,7.79 -13.24,13.22 -23.71,13.22 h -66.86"
   id="path34" />
		</g></g>
</svg>
