<?xml version="1.0" encoding="UTF-8"?><svg class="scribe" xmlns="http://www.w3.org/2000/svg" viewBox="0 0 512 512"><style><![CDATA[svg.scribe .Cs{stroke:#111342}svg.scribe .Ds{stroke-width:14.36}svg.scribe .Es{stroke-linejoin:round}svg.scribe .Fs{stroke-miterlimit:10}svg.scribe .Gs{stroke-linecap:round}]]></style><g transform="matrix(1.098287 0 0 1.098287 -45.493785 -24.744)"><g fill="#fff"><path d="M181.074 243.94l30.126 23.93 30.812-3.617 27.798-13.383v39.89l24.508 13.103-21.836 52.306.508 45.704L178.32 250.87"/><path d="M178.32 250.87v39.89L74.9 325.99c-7.56 2.57-12.64 9.68-12.64 17.66V450.3h242.93" class="Cs Ds Es Fs Gs"/></g><path d="M269.81 250.87v39.89l33.42 13.83" fill="none" class="Cs Ds Es Fs Gs"/><path d="M302.68 102.81l-1.35 46.04c8.3.86 14.17 8.8 12.16 17.12l-.76 3.15c-1.78 7.36-7.3 13-14.24 15.19l-3.34 28.83c-.93 12.66-8.34 23.95-19.6 29.82l-39.27 24.91H211.2l-37.87-24.91c-11.26-5.87-18.67-17.16-19.6-29.82l-3.28-28.1c-8.27-1.38-15.09-7.56-17.12-15.92l-.76-3.15-2.094-63.564" fill="#fff" class="Cs Ds Es Fs Gs"/><path d="M178.32 290.76l29.32 33.29h34.6l29.32-33.29" fill="none" class="Cs Ds Es Fs Gs"/><path d="M338.74 54.55v11.27c0 18.72-15.17 33.89-33.89 33.89H170.04c-9.36 0-16.94 7.59-16.94 16.94v31.38c0 1.87-1.51 3.37-3.37 3.37h-8.3V98.39c4-11.94 15.25-11.58 20.68-10.65 1.6.29 2.97-.91 3.14-2.56 1.63-17.18 16.11-30.63 33.72-30.63z" fill="#ffcf60"/><g class="Cs Ds Es"><path d="M338.74 30.61v35.21c0 18.72-15.17 33.89-33.89 33.89H170.04c-9.36 0-16.94 7.59-16.94 16.94v31.38c0 1.87-1.51 3.37-3.37 3.37h-16.87c-1.87 0-3.4-1.51-3.4-3.37V74.46c4-11.94 15.25-11.58 20.68-10.65 1.6.29 2.97-.91 3.14-2.56 1.63-17.18 16.11-30.63 33.72-30.63h151.74z" fill="none" class="Fs"/><circle r="104.64" cy="375.98" cx="381.56" fill="#fff"/></g><circle r="89.99" cy="386.9" cx="389.75" fill="#ffcf60"/><g fill="none" class="Cs Ds Es Fs"><path d="M402.4 297.55l-67.53 83.43-6.89 54.14c-.65 2.56 2 4.7 4.36 3.53l52.39-17.31 67.53-83.43z"/><path d="M384.74 421.35l-49.87-40.37m87.22-60.02l-60.28 78.36" class="Gs"/></g></g></svg>
