<?xml version="1.0" encoding="UTF-8" standalone="no"?>
<svg
   xmlns:dc="http://purl.org/dc/elements/1.1/"
   xmlns:cc="http://creativecommons.org/ns#"
   xmlns:rdf="http://www.w3.org/1999/02/22-rdf-syntax-ns#"
   xmlns:svg="http://www.w3.org/2000/svg"
   xmlns="http://www.w3.org/2000/svg"
   xml:space="preserve"
   style="enable-background:new 0 0 512 512;"
   viewBox="0 0 512 512"
   y="0px"
   x="0px"
   id="Layer_1"
   version="1.1"><metadata
   id="metadata43"><rdf:RDF><cc:Work
       rdf:about=""><dc:format>image/svg+xml</dc:format><dc:type
         rdf:resource="http://purl.org/dc/dcmitype/StillImage" /><dc:title></dc:title></cc:Work></rdf:RDF></metadata><defs
   id="defs41">
	
	
</defs>
<style
   id="style10"
   type="text/css">
	.st0{opacity:0.6;fill:#38C1CE;}
	.st1{fill:none;stroke:#111342;stroke-width:14.3597;stroke-linecap:round;stroke-linejoin:round;stroke-miterlimit:10;}
	.st2{fill:#38C1CE;}
</style>
<g
   transform="matrix(1.0982865,0,0,1.0982865,-45.493785,-24.744)"
   id="g35">
		<path
   id="XMLID_51_"
   class="st1"
   d="m 178.32,250.87 v 39.89 L 74.9,325.99 c -7.56,2.57 -12.64,9.68 -12.64,17.66 V 450.3 h 242.93" />
		<polyline
   class="st1"
   points="269.81,250.87 269.81,290.76 303.23,304.59   "
   id="polyline15" />
		<path
   id="XMLID_48_"
   class="st1"
   d="m 302.68,102.81 -1.35,46.04 c 8.3,0.86 14.17,8.8 12.16,17.12 l -0.76,3.15 c -1.78,7.36 -7.3,13 -14.24,15.19 l -3.34,28.83 c -0.93,12.66 -8.34,23.95 -19.6,29.82 l -39.27,24.91 H 211.2 l -37.87,-24.91 c -11.26,-5.87 -18.67,-17.16 -19.6,-29.82 l -3.28,-28.1 c -8.27,-1.38 -15.09,-7.56 -17.12,-15.92 l -0.76,-3.15 -3.11,-24.97" />
		<polyline
   id="XMLID_47_"
   class="st1"
   points="178.32,290.76 207.64,324.05 242.24,324.05 271.56,290.76   " />
		<path
   class="st2"
   d="m 338.74,54.55 v 11.27 c 0,18.72 -15.17,33.89 -33.89,33.89 H 170.04 c -9.36,0 -16.94,7.59 -16.94,16.94 v 31.38 c 0,1.87 -1.51,3.37 -3.37,3.37 h -8.3 V 98.39 c 4,-11.94 15.25,-11.58 20.68,-10.65 1.6,0.29 2.97,-0.91 3.14,-2.56 1.63,-17.18 16.11,-30.63 33.72,-30.63 z"
   id="path19" />
		<path
   class="st1"
   d="m 338.74,30.61 v 35.21 c 0,18.72 -15.17,33.89 -33.89,33.89 H 170.04 c -9.36,0 -16.94,7.59 -16.94,16.94 v 31.38 c 0,1.87 -1.51,3.37 -3.37,3.37 h -16.87 c -1.87,0 -3.4,-1.51 -3.4,-3.37 V 74.46 c 4,-11.94 15.25,-11.58 20.68,-10.65 1.6,0.29 2.97,-0.91 3.14,-2.56 1.63,-17.18 16.11,-30.63 33.72,-30.63 h 151.74 z"
   id="path21" />
		<g
   id="g33">
			<circle
   class="st2"
   cx="389.75"
   cy="386.89999"
   r="89.989998"
   id="circle23" />
			<circle
   class="st1"
   cx="381.56"
   cy="375.98001"
   r="104.64"
   id="circle25" />
			<g
   id="g31">
				<path
   id="XMLID_55_"
   class="st1"
   d="m 402.4,297.55 -67.53,83.43 -6.89,54.14 c -0.65,2.56 2,4.7 4.36,3.53 l 52.39,-17.31 67.53,-83.43 z" />
				<line
   id="XMLID_290_"
   class="st1"
   x1="384.73999"
   y1="421.35001"
   x2="334.87"
   y2="380.98001" />
				<line
   class="st1"
   x1="422.09"
   y1="320.95999"
   x2="361.81"
   y2="399.32001"
   id="line29" />
			</g>
		</g>
	</g>
</svg>
