<?xml version="1.0" encoding="UTF-8" standalone="no"?>
<!-- Created with Inkscape (http://www.inkscape.org/) -->

<svg
   xmlns:dc="http://purl.org/dc/elements/1.1/"
   xmlns:cc="http://creativecommons.org/ns#"
   xmlns:rdf="http://www.w3.org/1999/02/22-rdf-syntax-ns#"
   xmlns:svg="http://www.w3.org/2000/svg"
   xmlns="http://www.w3.org/2000/svg"
   version="1.1"
   width="16"
   height="16"
   id="svg2"
   xml:space="preserve"><metadata
     id="metadata8"><rdf:RDF><cc:Work
         rdf:about=""><dc:format>image/svg+xml</dc:format><dc:type
           rdf:resource="http://purl.org/dc/dcmitype/StillImage" /><dc:title></dc:title></cc:Work></rdf:RDF></metadata><defs
     id="defs6"><clipPath
       id="clipPath16"><path
         d="M 10.832,48.117 4.486,28.742 C 4.288,28.139 4.62,27.484 5.223,27.286 l 0,0 34.849,-11.294 c 0.603,-0.197 1.258,0.135 1.454,0.738 l 0,0 6.347,19.375 c 0.196,0.601 -0.137,1.254 -0.74,1.451 l 0,0 -34.849,11.296 c -0.118,0.039 -0.238,0.057 -0.356,0.057 l 0,0 c -0.485,0 -0.938,-0.309 -1.096,-0.792"
         id="path18" /></clipPath><radialGradient
       cx="0"
       cy="0"
       r="1"
       fx="0"
       fy="0"
       id="radialGradient24"
       gradientUnits="userSpaceOnUse"
       gradientTransform="matrix(15.166321,-4.9506726,-4.9506726,-15.166321,26.179687,32.419922)"
       spreadMethod="pad"><stop
         id="stop26"
         style="stop-color:#ffffff;stop-opacity:1"
         offset="0" /><stop
         id="stop28"
         style="stop-color:#abd046;stop-opacity:1"
         offset="0.85276097" /><stop
         id="stop30"
         style="stop-color:#abd046;stop-opacity:1"
         offset="1" /></radialGradient><clipPath
       id="clipPath38"><path
         d="M 7.436,32.117 41.133,21.198 45.986,35.996 12.29,46.918 7.436,32.117 z"
         id="path40" /></clipPath><linearGradient
       x1="0"
       y1="0"
       x2="1"
       y2="0"
       id="linearGradient46"
       gradientUnits="userSpaceOnUse"
       gradientTransform="matrix(33.693386,-10.998377,-10.998377,-33.693386,9.8652344,39.554687)"
       spreadMethod="pad"><stop
         id="stop48"
         style="stop-color:#c1e6f9;stop-opacity:1"
         offset="0" /><stop
         id="stop50"
         style="stop-color:#75bfea;stop-opacity:1"
         offset="1" /></linearGradient><clipPath
       id="clipPath58"><path
         d="M 38.781,39.542 2.464,34.733 C 1.834,34.65 1.388,34.069 1.471,33.443 l 0,0 2.613,-20.218 c 0.082,-0.63 0.663,-1.079 1.293,-0.998 l 0,0 36.316,4.81 c 0.629,0.084 1.079,0.664 0.995,1.294 l 0,0 -2.612,20.22 c -0.077,0.577 -0.576,1.001 -1.147,1.001 l 0,0 c -0.049,0 -0.098,-0.003 -0.148,-0.01"
         id="path60" /></clipPath><radialGradient
       cx="0"
       cy="0"
       r="1"
       fx="0"
       fy="0"
       id="radialGradient66"
       gradientUnits="userSpaceOnUse"
       gradientTransform="matrix(15.821164,2.0612023,2.0612023,-15.821164,22.080078,25.885254)"
       spreadMethod="pad"><stop
         id="stop68"
         style="stop-color:#ffffff;stop-opacity:1"
         offset="0" /><stop
         id="stop70"
         style="stop-color:#f1b85f;stop-opacity:1"
         offset="1" /></radialGradient><clipPath
       id="clipPath78"><path
         d="M 3.303,32.989 5.296,17.541 40.41,22.193 38.418,37.641 3.303,32.989 z"
         id="path80" /></clipPath><radialGradient
       cx="0"
       cy="0"
       r="1"
       fx="0"
       fy="0"
       id="radialGradient86"
       gradientUnits="userSpaceOnUse"
       gradientTransform="matrix(13.583436,1.7696682,1.7696682,-13.583436,21.856445,27.59082)"
       spreadMethod="pad"><stop
         id="stop88"
         style="stop-color:#ffffff;stop-opacity:1"
         offset="0" /><stop
         id="stop90"
         style="stop-color:#abd046;stop-opacity:1"
         offset="0.85276097" /><stop
         id="stop92"
         style="stop-color:#abd046;stop-opacity:1"
         offset="1" /></radialGradient><clipPath
       id="clipPath100"><path
         d="m 31.271,26.023 -15.124,-1.168 -2.169,-1.163 -5.083,1.322 -3.988,-4.49 0.528,-4.05 35.114,4.652 -0.723,5.551 -2.085,1.069 -2.993,1.048 -3.477,-2.771 z"
         id="path102" /></clipPath><linearGradient
       x1="0"
       y1="0"
       x2="1"
       y2="0"
       id="linearGradient108"
       gradientUnits="userSpaceOnUse"
       gradientTransform="matrix(35.124969,4.5761275,4.5761275,-35.124969,4.8896484,20.65332)"
       spreadMethod="pad"><stop
         id="stop110"
         style="stop-color:#ffffff;stop-opacity:1"
         offset="0" /><stop
         id="stop112"
         style="stop-color:#74c04f;stop-opacity:1"
         offset="1" /></linearGradient><clipPath
       id="clipPath120"><path
         d="M 41.702,34.133 6.396,24.361 C 5.784,24.194 5.423,23.556 5.589,22.946 l 0,0 5.378,-19.665 C 11.136,2.67 11.773,2.306 12.384,2.472 l 0,0 35.307,9.774 c 0.612,0.168 0.975,0.807 0.806,1.419 l 0,0 -5.377,19.664 c -0.14,0.509 -0.606,0.845 -1.113,0.845 l 0,0 c -0.101,0 -0.204,-0.014 -0.305,-0.041"
         id="path122" /></clipPath><linearGradient
       x1="0"
       y1="0"
       x2="1"
       y2="0"
       id="linearGradient128"
       gradientUnits="userSpaceOnUse"
       gradientTransform="matrix(-6.0276127,21.958542,21.958542,6.0276127,30.057617,7.3242187)"
       spreadMethod="pad"><stop
         id="stop130"
         style="stop-color:#c1e6f9;stop-opacity:1"
         offset="0" /><stop
         id="stop132"
         style="stop-color:#75bfea;stop-opacity:1"
         offset="1" /></linearGradient><clipPath
       id="clipPath140"><path
         d="M 7.466,22.748 11.57,7.723 45.709,17.175 41.605,32.199 7.466,22.748 z"
         id="path142" /></clipPath><radialGradient
       cx="0"
       cy="0"
       r="1"
       fx="0"
       fy="0"
       id="radialGradient148"
       gradientUnits="userSpaceOnUse"
       gradientTransform="matrix(13.209758,3.6260738,3.6260738,-13.209758,26.587891,19.960937)"
       spreadMethod="pad"><stop
         id="stop150"
         style="stop-color:#ffffff;stop-opacity:1"
         offset="0" /><stop
         id="stop152"
         style="stop-color:#abd046;stop-opacity:1"
         offset="0.85276097" /><stop
         id="stop154"
         style="stop-color:#abd046;stop-opacity:1"
         offset="1" /></radialGradient><clipPath
       id="clipPath162"><path
         d="m 36.128,19.707 -14.818,-3.242 -1.988,-1.452 -5.216,0.609 -3.331,-4.996 1.082,-3.938 34.138,9.451 -1.484,5.397 -2.214,0.771 -3.106,0.625 -3.063,-3.225 z"
         id="path164" /></clipPath><linearGradient
       x1="0"
       y1="0"
       x2="1"
       y2="0"
       id="linearGradient170"
       gradientUnits="userSpaceOnUse"
       gradientTransform="matrix(34.158256,9.3764286,9.3764286,-34.158256,10.740234,10.751953)"
       spreadMethod="pad"><stop
         id="stop172"
         style="stop-color:#ffffff;stop-opacity:1"
         offset="0" /><stop
         id="stop174"
         style="stop-color:#74c04f;stop-opacity:1"
         offset="1" /></linearGradient><clipPath
       id="clipPath182"><path
         d="m 12.495,25.573 c 0,-6.821 5.477,-12.35 12.231,-12.35 l 0,0 c 6.755,0 12.231,5.529 12.231,12.35 l 0,0 c 0,6.818 -5.476,12.347 -12.231,12.347 l 0,0 c -6.754,0 -12.231,-5.529 -12.231,-12.347"
         id="path184" /></clipPath><radialGradient
       cx="0"
       cy="0"
       r="1"
       fx="0"
       fy="0"
       id="radialGradient190"
       gradientUnits="userSpaceOnUse"
       gradientTransform="matrix(12.230902,0,0,-12.348613,24.726074,25.570312)"
       spreadMethod="pad"><stop
         id="stop192"
         style="stop-color:#8fbee6;stop-opacity:1"
         offset="0" /><stop
         id="stop194"
         style="stop-color:#5e6687;stop-opacity:1"
         offset="0.69325203" /><stop
         id="stop196"
         style="stop-color:#5e6687;stop-opacity:1"
         offset="1" /></radialGradient><clipPath
       id="clipPath204"><path
         d="m 21.366,25.609 c 0,-1.915 1.538,-3.467 3.433,-3.467 l 0,0 c 1.898,0 3.434,1.552 3.434,3.467 l 0,0 c 0,1.915 -1.536,3.466 -3.434,3.466 l 0,0 c -1.895,0 -3.433,-1.551 -3.433,-3.466"
         id="path206" /></clipPath><radialGradient
       cx="0"
       cy="0"
       r="1"
       fx="0"
       fy="0"
       id="radialGradient212"
       gradientUnits="userSpaceOnUse"
       gradientTransform="matrix(3.4334023,0,0,-3.4664457,24.800293,25.607422)"
       spreadMethod="pad"><stop
         id="stop214"
         style="stop-color:#8fbee6;stop-opacity:1"
         offset="0" /><stop
         id="stop216"
         style="stop-color:#31466b;stop-opacity:1"
         offset="1" /></radialGradient><clipPath
       id="clipPath224"><path
         d="M 0,50 50,50 50,0 0,0 0,50 z"
         id="path226" /></clipPath><clipPath
       id="clipPath256"><path
         d="m 23.279,26.806 c 0,-0.509 0.408,-0.921 0.912,-0.921 l 0,0 c 0.503,0 0.912,0.412 0.912,0.921 l 0,0 c 0,0.507 -0.409,0.919 -0.912,0.919 l 0,0 c -0.504,0 -0.912,-0.412 -0.912,-0.919"
         id="path258" /></clipPath><linearGradient
       x1="0"
       y1="0"
       x2="1"
       y2="0"
       id="linearGradient264"
       gradientUnits="userSpaceOnUse"
       gradientTransform="matrix(1.8232422,0,0,-1.8232422,23.279297,26.805176)"
       spreadMethod="pad"><stop
         id="stop266"
         style="stop-color:#c1e6f9;stop-opacity:1"
         offset="0" /><stop
         id="stop268"
         style="stop-color:#75bfea;stop-opacity:1"
         offset="1" /></linearGradient></defs><g
     transform="matrix(1.25,0,0,-1.25,0,16)"
     id="g10"><g
       transform="matrix(0.26679774,0,0,0.26679774,-0.26900742,-0.47681057)"
       id="g12"><g
         clip-path="url(#clipPath16)"
         id="g14"><g
           id="g20"><g
             id="g22"><path
               d="M 10.832,48.117 4.486,28.742 C 4.288,28.139 4.62,27.484 5.223,27.286 l 0,0 34.849,-11.294 c 0.603,-0.197 1.258,0.135 1.454,0.738 l 0,0 6.347,19.375 c 0.196,0.601 -0.137,1.254 -0.74,1.451 l 0,0 -34.849,11.296 c -0.118,0.039 -0.238,0.057 -0.356,0.057 l 0,0 c -0.485,0 -0.938,-0.309 -1.096,-0.792"
               id="path32"
               style="fill:url(#radialGradient24);stroke:none" /></g></g></g></g><g
       transform="matrix(0.26679774,0,0,0.26679774,-0.26900742,-0.47681057)"
       id="g34"><g
         clip-path="url(#clipPath38)"
         id="g36"><g
           id="g42"><g
             id="g44"><path
               d="M 7.436,32.117 41.133,21.198 45.986,35.996 12.29,46.918 7.436,32.117 z"
               id="path52"
               style="fill:url(#linearGradient46);stroke:none" /></g></g></g></g><g
       transform="matrix(0.26679774,0,0,0.26679774,-0.26900742,-0.47681057)"
       id="g54"><g
         clip-path="url(#clipPath58)"
         id="g56"><g
           id="g62"><g
             id="g64"><path
               d="M 38.781,39.542 2.464,34.733 C 1.834,34.65 1.388,34.069 1.471,33.443 l 0,0 2.613,-20.218 c 0.082,-0.63 0.663,-1.079 1.293,-0.998 l 0,0 36.316,4.81 c 0.629,0.084 1.079,0.664 0.995,1.294 l 0,0 -2.612,20.22 c -0.077,0.577 -0.576,1.001 -1.147,1.001 l 0,0 c -0.049,0 -0.098,-0.003 -0.148,-0.01"
               id="path72"
               style="fill:url(#radialGradient66);stroke:none" /></g></g></g></g><g
       transform="matrix(0.26679774,0,0,0.26679774,-0.26900742,-0.47681057)"
       id="g74"><g
         clip-path="url(#clipPath78)"
         id="g76"><g
           id="g82"><g
             id="g84"><path
               d="M 3.303,32.989 5.296,17.541 40.41,22.193 38.418,37.641 3.303,32.989 z"
               id="path94"
               style="fill:url(#radialGradient86);stroke:none" /></g></g></g></g><g
       transform="matrix(0.26679774,0,0,0.26679774,-0.26900742,-0.47681057)"
       id="g96"><g
         clip-path="url(#clipPath100)"
         id="g98"><g
           id="g104"><g
             id="g106"><path
               d="m 31.271,26.023 -15.124,-1.168 -2.169,-1.163 -5.083,1.322 -3.988,-4.49 0.528,-4.05 35.114,4.652 -0.723,5.551 -2.085,1.069 -2.993,1.048 -3.477,-2.771 z"
               id="path114"
               style="fill:url(#linearGradient108);stroke:none" /></g></g></g></g><g
       transform="matrix(0.26679774,0,0,0.26679774,-0.26900742,-0.47681057)"
       id="g116"><g
         clip-path="url(#clipPath120)"
         id="g118"><g
           id="g124"><g
             id="g126"><path
               d="M 41.702,34.133 6.396,24.361 C 5.784,24.194 5.423,23.556 5.589,22.946 l 0,0 5.378,-19.665 C 11.136,2.67 11.773,2.306 12.384,2.472 l 0,0 35.307,9.774 c 0.612,0.168 0.975,0.807 0.806,1.419 l 0,0 -5.377,19.664 c -0.14,0.509 -0.606,0.845 -1.113,0.845 l 0,0 c -0.101,0 -0.204,-0.014 -0.305,-0.041"
               id="path134"
               style="fill:url(#linearGradient128);stroke:none" /></g></g></g></g><g
       transform="matrix(0.26679774,0,0,0.26679774,-0.26900742,-0.47681057)"
       id="g136"><g
         clip-path="url(#clipPath140)"
         id="g138"><g
           id="g144"><g
             id="g146"><path
               d="M 7.466,22.748 11.57,7.723 45.709,17.175 41.605,32.199 7.466,22.748 z"
               id="path156"
               style="fill:url(#radialGradient148);stroke:none" /></g></g></g></g><g
       transform="matrix(0.26679774,0,0,0.26679774,-0.26900742,-0.47681057)"
       id="g158"><g
         clip-path="url(#clipPath162)"
         id="g160"><g
           id="g166"><g
             id="g168"><path
               d="m 36.128,19.707 -14.818,-3.242 -1.988,-1.452 -5.216,0.609 -3.331,-4.996 1.082,-3.938 34.138,9.451 -1.484,5.397 -2.214,0.771 -3.106,0.625 -3.063,-3.225 z"
               id="path176"
               style="fill:url(#linearGradient170);stroke:none" /></g></g></g></g><g
       transform="matrix(0.26679774,0,0,0.26679774,-0.26900742,-0.47681057)"
       id="g178"><g
         clip-path="url(#clipPath182)"
         id="g180"><g
           id="g186"><g
             id="g188"><path
               d="m 12.495,25.573 c 0,-6.821 5.477,-12.35 12.231,-12.35 l 0,0 c 6.755,0 12.231,5.529 12.231,12.35 l 0,0 c 0,6.818 -5.476,12.347 -12.231,12.347 l 0,0 c -6.754,0 -12.231,-5.529 -12.231,-12.347"
               id="path198"
               style="fill:url(#radialGradient190);stroke:none" /></g></g></g></g><g
       transform="matrix(0.26679774,0,0,0.26679774,-0.26900742,-0.47681057)"
       id="g200"><g
         clip-path="url(#clipPath204)"
         id="g202"><g
           id="g208"><g
             id="g210"><path
               d="m 21.366,25.609 c 0,-1.915 1.538,-3.467 3.433,-3.467 l 0,0 c 1.898,0 3.434,1.552 3.434,3.467 l 0,0 c 0,1.915 -1.536,3.466 -3.434,3.466 l 0,0 c -1.895,0 -3.433,-1.551 -3.433,-3.466"
               id="path218"
               style="fill:url(#radialGradient212);stroke:none" /></g></g></g></g><g
       transform="matrix(0.26679774,0,0,0.26679774,-0.26900742,-0.47681057)"
       id="g220"><g
         clip-path="url(#clipPath224)"
         id="g222"><g
           transform="translate(14.2612,28.3467)"
           id="g228"><path
             d="m 0,0 c 0,0 -2.03,-5.023 2.032,-10.354 0,0 2.031,8.816 5.787,11.79 C 7.819,1.436 2.134,1.025 0,0"
             id="path230"
             style="fill:#515152;fill-opacity:1;fill-rule:nonzero;stroke:none" /></g><g
           transform="translate(21.9521,36.1318)"
           id="g232"><path
             d="m 0,0 c 0,0 -5.33,-0.692 -7.922,-6.888 0,0 8.599,2.561 13.013,0.725 0,0 -3.155,4.794 -5.091,6.163"
             id="path234"
             style="fill:#515152;fill-opacity:1;fill-rule:nonzero;stroke:none" /></g><g
           transform="translate(32.4521,33.2109)"
           id="g236"><path
             d="m 0,0 c 0,0 -3.223,4.342 -9.841,3.567 0,0 6.445,-6.293 7.039,-11.077 0,0 2.576,5.136 2.802,7.51"
             id="path238"
             style="fill:#515152;fill-opacity:1;fill-rule:nonzero;stroke:none" /></g><g
           transform="translate(35.1094,22.5479)"
           id="g240"><path
             d="m 0,0 c 0,0 2.155,4.971 -1.776,10.403 0,0 -2.247,-8.762 -6.076,-11.641 0,0 5.694,0.266 7.852,1.238"
             id="path242"
             style="fill:#515152;fill-opacity:1;fill-rule:nonzero;stroke:none" /></g><g
           transform="translate(27.2285,14.96)"
           id="g244"><path
             d="m 0,0 c 0,0 5.345,0.556 8.092,6.686 0,0 -8.662,-2.345 -13.029,-0.398 0,0 3.037,-4.871 4.937,-6.288"
             id="path246"
             style="fill:#515152;fill-opacity:1;fill-rule:nonzero;stroke:none" /></g><g
           transform="translate(16.8047,18.1436)"
           id="g248"><path
             d="m 0,0 c 0,0 3.114,-4.422 9.749,-3.813 0,0 -6.288,6.454 -6.763,11.249 C 2.986,7.436 0.285,2.367 0,0"
             id="path250"
             style="fill:#515152;fill-opacity:1;fill-rule:nonzero;stroke:none" /></g></g></g><g
       transform="matrix(0.26679774,0,0,0.26679774,-0.26900742,-0.47681057)"
       id="g252"><g
         clip-path="url(#clipPath256)"
         id="g254"><g
           id="g260"><g
             id="g262"><path
               d="m 23.279,26.806 c 0,-0.509 0.408,-0.921 0.912,-0.921 l 0,0 c 0.503,0 0.912,0.412 0.912,0.921 l 0,0 c 0,0.507 -0.409,0.919 -0.912,0.919 l 0,0 c -0.504,0 -0.912,-0.412 -0.912,-0.919"
               id="path270"
               style="fill:url(#linearGradient264);stroke:none" /></g></g></g></g></g></svg>