<?xml version="1.0" encoding="UTF-8" standalone="no"?>
<svg
   xmlns:dc="http://purl.org/dc/elements/1.1/"
   xmlns:cc="http://creativecommons.org/ns#"
   xmlns:rdf="http://www.w3.org/1999/02/22-rdf-syntax-ns#"
   xmlns:svg="http://www.w3.org/2000/svg"
   xmlns="http://www.w3.org/2000/svg"
   xml:space="preserve"
   style="enable-background:new 0 0 512 512;"
   viewBox="0 0 512 512"
   y="0px"
   x="0px"
   id="Layer_1"
   version="1.1"><metadata
   id="metadata247"><rdf:RDF><cc:Work
       rdf:about=""><dc:format>image/svg+xml</dc:format><dc:type
         rdf:resource="http://purl.org/dc/dcmitype/StillImage" /><dc:title></dc:title></cc:Work></rdf:RDF></metadata><defs
   id="defs245">
	
	
	
	
	
	
	
	
</defs>
<style
   id="style218"
   type="text/css">
	.st0{opacity:0.6;fill:#B783B9;}
	.st1{fill:#B783B9;}
	.st2{fill:none;stroke:#111342;stroke-width:13.85;stroke-linecap:round;stroke-linejoin:round;stroke-miterlimit:10;}
</style>
<g
   transform="matrix(1.1337227,0,0,1.1337227,-0.13372265,-32.713801)"
   id="g286"><polyline
     id="polyline222"
     points="40.66,355.09 162.7,215.46 294.35,351.25  "
     class="st1"
     transform="matrix(1.047736,0,0,0.99953625,-12.426737,0.49107761)" /><polyline
     id="polyline224"
     points="20.71,310.01 137.3,185.45 294.35,351.25  "
     class="st2"
     transform="matrix(1.047736,0,0,0.99953625,-12.426737,0.49107761)" /><g
     id="g228"
     transform="matrix(1.047736,0,0,0.99953625,-12.426737,0.49107761)">
		<polygon
   id="polygon226"
   points="19.74,355.09 19.74,84.74 365.99,84.72 365.97,355.08 "
   class="st2" />
	</g><g
     id="g232"
     transform="matrix(1.047736,0,0,0.99953625,-12.426737,0.49107761)">
		<polyline
   id="polyline230"
   points="365.99,153.98 435.24,153.98 435.22,424.33 88.99,424.33 88.99,355.08   "
   class="st2" />
	</g><polyline
     id="polyline234"
     points="227.95,278.22 286.23,219.7 365.95,304.78  "
     class="st2"
     transform="matrix(1.047736,0,0,0.99953625,-12.426737,0.49107761)" /><path
     id="path236"
     d="m 270.44103,162.32599 c 0,10.83497 -9.19912,19.6209 -20.56706,19.6209 -11.34698,0 -20.5461,-8.78593 -20.5461,-19.6209 0,-10.82498 9.19912,-19.6109 20.5461,-19.6109 11.36794,0.01 20.56706,8.79592 20.56706,19.6109 z"
     class="st1"
     style="stroke-width:1.02335" /><path
     id="path238"
     d="m 275.0825,157.71813 c 0,15.82266 -13.44245,28.6567 -30.03859,28.6567 -16.57519,0 -30.01764,-12.83404 -30.01764,-28.6567 0,-15.81266 13.44245,-28.64671 30.01764,-28.64671 16.59614,0 30.03859,12.83405 30.03859,28.64671 z"
     class="st2" /></g>
</svg>
