<?xml version="1.0" encoding="UTF-8"?><svg class="imageGallery" xmlns="http://www.w3.org/2000/svg" viewBox="0 0 512 512"><style><![CDATA[svg.imageGallery .Ci8{stroke:#111342}svg.imageGallery .Di8{stroke-linejoin:round}svg.imageGallery .Ei8{stroke-miterlimit:10}svg.imageGallery .Fi8{stroke-width:16.078}svg.imageGallery .Gi8{stroke-linecap:round}]]></style><g class="Ci8 Di8 Ei8 Fi8"><path d="M9.226 370.23V63.87l411.29-.023-.024 306.371z" fill="#fff"/><path d="M420.516 142.333h82.258l-.024 306.36H91.484v-78.474" fill="none" class="Gi8"/></g><path d="M42.261 362.285l138.637-150.283 143.346 154.156" fill="#ff72ac"/><path d="M10.378 319.145l138.491-141.151L335.42 365.878m-78.874-82.757l69.227-66.315 94.695 96.412" fill="none" class="Ci8 Di8 Ei8 Fi8 Gi8"/><path d="M306.471 151.319c0 12.284-10.429 22.245-23.317 22.245-12.864 0-23.294-9.961-23.294-22.245 0-12.273 10.429-22.233 23.294-22.233 12.888.011 23.317 9.972 23.317 22.233z" fill="#ff72ac"/><path d="M311.734 146.095c0 17.939-15.24 32.489-34.055 32.489-18.792 0-34.032-14.55-34.032-32.489 0-17.927 15.24-32.477 34.032-32.477 18.815 0 34.055 14.55 34.055 32.477z" fill="none" stroke-width="13.85" class="Ci8 Di8 Ei8"/><g fill="#fff"><path d="M98.639 378.028h395.056v62.302H98.639z"/><path d="M428.646 149.991h65.05v228.037h-65.05z"/></g></svg>
