<?xml version="1.0" encoding="iso-8859-1"?>
<!DOCTYPE svg PUBLIC "-//W3C//DTD SVG 1.1//EN" "http://www.w3.org/Graphics/SVG/1.1/DTD/svg11.dtd">
<svg version="1.1" xmlns="http://www.w3.org/2000/svg" xmlns:xlink="http://www.w3.org/1999/xlink" x="0px" y="0px"
	 width="11px" height="20.634px">
   <g transform="translate(11, 0) scale(-1, 1)">
<path d="M0.199,10.79l9.646,9.646c0.13,0.133,0.302,0.197,0.471,0.197c0.173,0,0.344-0.064,0.473-0.197l0.013-0.011
	C10.929,20.305,11,20.132,11,19.952v-4.68c0-0.182-0.07-0.347-0.198-0.475L6.323,10.32l4.479-4.483C10.929,5.714,11,5.543,11,5.364
	V0.682c0-0.176-0.07-0.345-0.198-0.474l-0.013-0.012C10.667,0.071,10.497,0,10.316,0C10.143,0,9.97,0.071,9.845,0.196L0.199,9.845
	C-0.066,10.104-0.066,10.532,0.199,10.79z"/>
  </g>
</svg>
