<?xml version="1.0" encoding="UTF-8" standalone="no"?>
<svg class="mindmap"
   xmlns:dc="http://purl.org/dc/elements/1.1/"
   xmlns:cc="http://creativecommons.org/ns#"
   xmlns:rdf="http://www.w3.org/1999/02/22-rdf-syntax-ns#"
   xmlns:svg="http://www.w3.org/2000/svg"
   xmlns="http://www.w3.org/2000/svg"
   id="svg56"
   xml:space="preserve"
   style="enable-background:new 0 0 512 512;"
   viewBox="0 0 512 512"
   
   
   version="1.1"><metadata
   id="metadata62"><rdf:RDF><cc:Work
       rdf:about=""><dc:format>image/svg+xml</dc:format><dc:type
         rdf:resource="http://purl.org/dc/dcmitype/StillImage" /><dc:title></dc:title></cc:Work></rdf:RDF></metadata><defs
   id="defs60">
	

		
		
		
		
			
	
			
			
			
				
			
				
			
				
			
				
			
				
			
				
			
			
				
			
				
			
				
			
				
			
				
		

				
				
					
				
					
				
					
				
					
				
					
				
					
			</defs>

<rect
   id="rect12"
   height="24.09284"
   width="48.499611"
   style="fill:#fba919;stroke-width:1.22629"
   y="320.95084"
   x="234.6837" /><circle
   style="fill:#fba919;stroke-width:1.22629"
   cx="74.378693"
   cy="118.09861"
   r="35.559841"
   id="circle14" /><circle
   style="fill:#fba919;stroke-width:1.22629"
   cx="450.26111"
   cy="174.62917"
   r="46.410019"
   id="circle16" /><circle
   style="fill:none;stroke:#111342;stroke-width:16.9067;stroke-linecap:round;stroke-linejoin:round;stroke-miterlimit:10"
   cx="67.041832"
   cy="112.46383"
   r="41.195854"
   id="circle18" /><circle
   style="fill:none;stroke:#111342;stroke-width:16.9067;stroke-linecap:round;stroke-linejoin:round;stroke-miterlimit:10"
   cx="78.312614"
   cy="439.47137"
   r="58.859276"
   id="circle20" /><circle
   style="fill:none;stroke:#111342;stroke-width:16.9067;stroke-linecap:round;stroke-linejoin:round;stroke-miterlimit:10"
   cx="441.51767"
   cy="166.7515"
   r="51.920948"
   id="circle22" /><circle
   style="fill:none;stroke:#111342;stroke-width:16.9067;stroke-linecap:round;stroke-linejoin:round;stroke-miterlimit:10"
   cx="248.95891"
   cy="45.339375"
   r="35.886032"
   id="circle24" /><circle
   style="fill:none;stroke:#111342;stroke-width:16.9067;stroke-linecap:round;stroke-linejoin:round;stroke-miterlimit:10"
   cx="429.272"
   cy="453.00592"
   r="49.540726"
   id="circle26" /><circle
   style="fill:none;stroke:#111342;stroke-width:16.9067;stroke-linecap:round;stroke-linejoin:round;stroke-miterlimit:10"
   cx="248.95891"
   cy="274.33481"
   r="129.45044"
   id="circle28" /><path
   d="m 300.75968,236.90978 c 0,-27.01631 -22.55018,-48.75223 -49.80684,-47.31257 -25.04321,1.32316 -45.02186,22.80647 -44.69076,47.95024 0.13857,10.50681 3.69602,20.1773 9.60304,27.96177 8.15848,10.7533 12.06175,24.15906 12.06175,37.6715 v 1.89707 h 51.16311 v -1.9498 c 0,-14.01399 4.85486,-27.4222 12.95816,-38.84015 5.48272,-7.7256 8.71154,-17.16923 8.71154,-27.37806 z"
   style="fill:#fba919;stroke-width:1.22629"
   id="XMLID_33_" /><path
   d="m 266.75599,352.17698 h -45.48417 c -5.09277,0 -9.6803,-3.08043 -11.6068,-7.7955 v 0 c -0.6156,-1.50588 -0.93198,-3.11599 -0.93198,-4.74327 v -15.22312 c 0,-6.92483 5.61394,-12.53877 12.53878,-12.53877 h 45.60312 c 6.92484,0 12.53755,5.61394 12.53755,12.53877 v 14.92145 c 0,1.5721 -0.29554,3.12948 -0.87066,4.59122 l -0.11895,0.30166 c -1.88603,4.79601 -6.51404,7.94756 -11.66689,7.94756 z"
   style="fill:none;stroke:#111342;stroke-width:16.9067;stroke-linecap:round;stroke-linejoin:round;stroke-miterlimit:10"
   id="XMLID_22_" /><path
   d="m 251.00312,364.8298 h -13.85948 c -2.3839,0 -4.31653,-1.93263 -4.31653,-4.31653 v -4.01854 c 0,-2.3839 1.93263,-4.31652 4.31653,-4.31652 h 13.85948 c 2.3839,0 4.31653,1.93262 4.31653,4.31652 v 4.01854 c 0,2.3839 -1.93263,4.31653 -4.31653,4.31653 z"
   style="fill:none;stroke:#111342;stroke-width:16.9067;stroke-linecap:round;stroke-linejoin:round;stroke-miterlimit:10"
   id="XMLID_21_" /><path
   d="m 300.75968,230.7808 c 0,-32.14096 -26.90104,-57.99842 -59.41479,-56.2853 -29.87478,1.57332 -53.70765,27.13158 -53.31156,57.04437 0.16555,12.49953 4.40973,24.00332 11.45597,33.26546 9.73303,12.79262 14.38801,28.74169 14.38801,44.81585 v 2.25759 h 61.03348 v -2.31891 c 0,-16.67135 5.79175,-32.62288 15.45734,-46.20645 6.54101,-9.19224 10.39155,-20.42747 10.39155,-32.57261 z"
   style="fill:none;stroke:#111342;stroke-width:16.9067;stroke-linecap:round;stroke-linejoin:round;stroke-miterlimit:10"
   id="XMLID_253_" /><line
   style="fill:none;stroke:#111342;stroke-width:16.9067;stroke-linecap:round;stroke-linejoin:round;stroke-miterlimit:10"
   x1="249.00673"
   y1="332.02786"
   x2="276.24008"
   y2="332.02786"
   id="line38" /><line
   style="fill:none;stroke:#111342;stroke-width:16.9067;stroke-linecap:round;stroke-linejoin:round;stroke-miterlimit:10"
   x1="92.441887"
   y1="144.88438"
   x2="144.45358"
   y2="194.13936"
   id="line40" /><line
   style="fill:none;stroke:#111342;stroke-width:16.9067;stroke-linecap:round;stroke-linejoin:round;stroke-miterlimit:10"
   x1="157.27194"
   y1="365.71027"
   x2="119.50847"
   y2="395.51392"
   id="line42" /><line
   style="fill:none;stroke:#111342;stroke-width:16.9067;stroke-linecap:round;stroke-linejoin:round;stroke-miterlimit:10"
   x1="393.61038"
   y1="203.64308"
   x2="365.85214"
   y2="218.67368"
   id="line44" /><line
   style="fill:none;stroke:#111342;stroke-width:16.9067;stroke-linecap:round;stroke-linejoin:round;stroke-miterlimit:10"
   x1="340.64584"
   y1="365.71027"
   x2="393.61038"
   y2="413.31714"
   id="line46" /><line
   id="line50"
   y2="138.96141"
   x2="248.95891"
   y1="86.860191"
   x1="248.95891"
   style="fill:none;stroke:#111342;stroke-width:16.9067;stroke-linecap:round;stroke-linejoin:round;stroke-miterlimit:10" />
</svg>
