<?xml version="1.0" encoding="UTF-8" standalone="no"?>
<!-- Created with Inkscape (http://www.inkscape.org/) -->

<svg
   xmlns:dc="http://purl.org/dc/elements/1.1/"
   xmlns:cc="http://creativecommons.org/ns#"
   xmlns:rdf="http://www.w3.org/1999/02/22-rdf-syntax-ns#"
   xmlns:svg="http://www.w3.org/2000/svg"
   xmlns="http://www.w3.org/2000/svg"
   version="1.1"
   width="16"
   height="16"
   id="svg2"
   xml:space="preserve"><metadata
     id="metadata8"><rdf:RDF><cc:Work
         rdf:about=""><dc:format>image/svg+xml</dc:format><dc:type
           rdf:resource="http://purl.org/dc/dcmitype/StillImage" /><dc:title></dc:title></cc:Work></rdf:RDF></metadata><defs
     id="defs6"><clipPath
       id="clipPath16"><path
         d="m 15.781,21.579 c 0,-2.175 6.034,-3.933 13.476,-3.933 l 0,0 c 7.441,0 13.474,1.758 13.474,3.933 l 0,0 c 0,2.169 -6.033,3.927 -13.474,3.927 l 0,0 c -7.442,0 -13.476,-1.758 -13.476,-3.927"
         id="path18" /></clipPath><radialGradient
       cx="0"
       cy="0"
       r="1"
       fx="0"
       fy="0"
       id="radialGradient24"
       gradientUnits="userSpaceOnUse"
       gradientTransform="matrix(13.477599,0,0,-3.9290624,29.256836,21.576172)"
       spreadMethod="pad"><stop
         id="stop26"
         style="stop-color:#aaacae;stop-opacity:1"
         offset="0" /><stop
         id="stop28"
         style="stop-color:#ffffff;stop-opacity:1"
         offset="1" /></radialGradient><clipPath
       id="clipPath36"><path
         d="m 10.437,32.825 c 0,-7.975 6.468,-14.444 14.447,-14.444 l 0,0 c 7.975,0 14.448,6.469 14.448,14.444 l 0,0 c 0,7.98 -6.473,14.449 -14.448,14.449 l 0,0 c -7.979,0 -14.447,-6.469 -14.447,-14.449"
         id="path38" /></clipPath><radialGradient
       cx="0"
       cy="0"
       r="1"
       fx="0"
       fy="0"
       id="radialGradient44"
       gradientUnits="userSpaceOnUse"
       gradientTransform="matrix(14.44702,0,0,-13.002318,24.884766,32.827637)"
       spreadMethod="pad"><stop
         id="stop46"
         style="stop-color:#f04d45;stop-opacity:1"
         offset="0" /><stop
         id="stop48"
         style="stop-color:#9f3335;stop-opacity:1"
         offset="0.76847303" /><stop
         id="stop50"
         style="stop-color:#9f3335;stop-opacity:1"
         offset="0.76847303" /><stop
         id="stop52"
         style="stop-color:#9f3335;stop-opacity:1"
         offset="1" /></radialGradient><clipPath
       id="clipPath60"><path
         d="M 0,50 50,50 50,0 0,0 0,50 z"
         id="path62" /></clipPath><clipPath
       id="clipPath72"><path
         d="m 3.794,9.672 c 0,-4.763 3.863,-8.627 8.629,-8.627 l 0,0 c 4.763,0 8.63,3.864 8.63,8.627 l 0,0 c 0,4.767 -3.867,8.63 -8.63,8.63 l 0,0 c -4.766,0 -8.629,-3.863 -8.629,-8.63"
         id="path74" /></clipPath><radialGradient
       cx="0"
       cy="0"
       r="1"
       fx="0"
       fy="0"
       id="radialGradient80"
       gradientUnits="userSpaceOnUse"
       gradientTransform="matrix(8.6291504,0,0,-8.6291504,12.423828,9.6738281)"
       spreadMethod="pad"><stop
         id="stop82"
         style="stop-color:#c1e6f9;stop-opacity:1"
         offset="0" /><stop
         id="stop84"
         style="stop-color:#75bfea;stop-opacity:1"
         offset="1" /></radialGradient><clipPath
       id="clipPath92"><path
         d="M 0,50 50,50 50,0 0,0 0,50 z"
         id="path94" /></clipPath><clipPath
       id="clipPath104"><path
         d="m 28.885,17.187 c 0,-3.35 2.719,-6.068 6.072,-6.068 l 0,0 c 3.35,0 6.07,2.718 6.07,6.068 l 0,0 c 0,3.352 -2.72,6.072 -6.07,6.072 l 0,0 c -3.353,0 -6.072,-2.72 -6.072,-6.072"
         id="path106" /></clipPath><radialGradient
       cx="0"
       cy="0"
       r="1"
       fx="0"
       fy="0"
       id="radialGradient112"
       gradientUnits="userSpaceOnUse"
       gradientTransform="matrix(6.0703125,0,0,-6.0703125,34.957031,17.188477)"
       spreadMethod="pad"><stop
         id="stop114"
         style="stop-color:#c1e6f9;stop-opacity:1"
         offset="0" /><stop
         id="stop116"
         style="stop-color:#75bfea;stop-opacity:1"
         offset="1" /></radialGradient><clipPath
       id="clipPath124"><path
         d="M 0,50 50,50 50,0 0,0 0,50 z"
         id="path126" /></clipPath><clipPath
       id="clipPath136"><path
         d="m 3.311,44.92 c 0,-2.138 1.735,-3.872 3.874,-3.872 l 0,0 c 2.14,0 3.874,1.734 3.874,3.872 l 0,0 c 0,2.14 -1.734,3.875 -3.874,3.875 l 0,0 c -2.139,0 -3.874,-1.735 -3.874,-3.875"
         id="path138" /></clipPath><radialGradient
       cx="0"
       cy="0"
       r="1"
       fx="0"
       fy="0"
       id="radialGradient144"
       gradientUnits="userSpaceOnUse"
       gradientTransform="matrix(3.8735352,0,0,-3.8735352,7.1855469,44.921387)"
       spreadMethod="pad"><stop
         id="stop146"
         style="stop-color:#c1e6f9;stop-opacity:1"
         offset="0" /><stop
         id="stop148"
         style="stop-color:#75bfea;stop-opacity:1"
         offset="1" /></radialGradient><clipPath
       id="clipPath156"><path
         d="M 0,50 50,50 50,0 0,0 0,50 z"
         id="path158" /></clipPath></defs><g
     transform="matrix(1.25,0,0,-1.25,0,16)"
     id="g10"><g
       transform="matrix(0.25699375,0,0,0.25699375,0.72726908,-0.01120136)"
       id="g12"><g
         clip-path="url(#clipPath16)"
         id="g14"><g
           id="g20"><g
             id="g22"><path
               d="m 15.781,21.579 c 0,-2.175 6.034,-3.933 13.476,-3.933 l 0,0 c 7.441,0 13.474,1.758 13.474,3.933 l 0,0 c 0,2.169 -6.033,3.927 -13.474,3.927 l 0,0 c -7.442,0 -13.476,-1.758 -13.476,-3.927"
               id="path30"
               style="fill:url(#radialGradient24);stroke:none" /></g></g></g></g><g
       transform="matrix(0.25699375,0,0,0.25699375,0.72726908,-0.01120136)"
       id="g32"><g
         clip-path="url(#clipPath36)"
         id="g34"><g
           id="g40"><g
             id="g42"><path
               d="m 10.437,32.825 c 0,-7.975 6.468,-14.444 14.447,-14.444 l 0,0 c 7.975,0 14.448,6.469 14.448,14.444 l 0,0 c 0,7.98 -6.473,14.449 -14.448,14.449 l 0,0 c -7.979,0 -14.447,-6.469 -14.447,-14.449"
               id="path54"
               style="fill:url(#radialGradient44);stroke:none" /></g></g></g></g><g
       transform="matrix(0.25699375,0,0,0.25699375,0.72726908,-0.01120136)"
       id="g56"><g
         clip-path="url(#clipPath60)"
         id="g58"><g
           transform="translate(24.8838,47.2744)"
           id="g64"><path
             d="m 0,0 c 7.976,0 14.448,-6.47 14.448,-14.449 0,-7.976 -6.472,-14.445 -14.448,-14.445 -7.979,0 -14.447,6.469 -14.447,14.445 C -14.447,-6.47 -7.979,0 0,0 z"
             id="path66"
             style="fill:none;stroke:#aaacae;stroke-width:0.5;stroke-linecap:butt;stroke-linejoin:miter;stroke-miterlimit:4;stroke-opacity:1;stroke-dasharray:none" /></g></g></g><g
       transform="matrix(0.25699375,0,0,0.25699375,0.72726908,-0.01120136)"
       id="g68"><g
         clip-path="url(#clipPath72)"
         id="g70"><g
           id="g76"><g
             id="g78"><path
               d="m 3.794,9.672 c 0,-4.763 3.863,-8.627 8.629,-8.627 l 0,0 c 4.763,0 8.63,3.864 8.63,8.627 l 0,0 c 0,4.767 -3.867,8.63 -8.63,8.63 l 0,0 c -4.766,0 -8.629,-3.863 -8.629,-8.63"
               id="path86"
               style="fill:url(#radialGradient80);stroke:none" /></g></g></g></g><g
       transform="matrix(0.25699375,0,0,0.25699375,0.72726908,-0.01120136)"
       id="g88"><g
         clip-path="url(#clipPath92)"
         id="g90"><g
           transform="translate(12.4229,18.3027)"
           id="g96"><path
             d="m 0,0 c 4.764,0 8.63,-3.864 8.63,-8.631 0,-4.764 -3.866,-8.627 -8.63,-8.627 -4.766,0 -8.628,3.863 -8.628,8.627 C -8.628,-3.864 -4.766,0 0,0 z"
             id="path98"
             style="fill:none;stroke:#aaacae;stroke-width:0.5;stroke-linecap:butt;stroke-linejoin:miter;stroke-miterlimit:4;stroke-opacity:1;stroke-dasharray:none" /></g></g></g><g
       transform="matrix(0.25699375,0,0,0.25699375,0.72726908,-0.01120136)"
       id="g100"><g
         clip-path="url(#clipPath104)"
         id="g102"><g
           id="g108"><g
             id="g110"><path
               d="m 28.885,17.187 c 0,-3.35 2.719,-6.068 6.072,-6.068 l 0,0 c 3.35,0 6.07,2.718 6.07,6.068 l 0,0 c 0,3.352 -2.72,6.072 -6.07,6.072 l 0,0 c -3.353,0 -6.072,-2.72 -6.072,-6.072"
               id="path118"
               style="fill:url(#radialGradient112);stroke:none" /></g></g></g></g><g
       transform="matrix(0.25699375,0,0,0.25699375,0.72726908,-0.01120136)"
       id="g120"><g
         clip-path="url(#clipPath124)"
         id="g122"><g
           transform="translate(34.957,23.2588)"
           id="g128"><path
             d="m 0,0 c 3.35,0 6.07,-2.72 6.07,-6.071 0,-3.351 -2.72,-6.07 -6.07,-6.07 -3.354,0 -6.071,2.719 -6.071,6.07 C -6.071,-2.72 -3.354,0 0,0 z"
             id="path130"
             style="fill:none;stroke:#aaacae;stroke-width:0.75;stroke-linecap:butt;stroke-linejoin:miter;stroke-miterlimit:4;stroke-opacity:1;stroke-dasharray:none" /></g></g></g><g
       transform="matrix(0.25699375,0,0,0.25699375,0.72726908,-0.01120136)"
       id="g132"><g
         clip-path="url(#clipPath136)"
         id="g134"><g
           id="g140"><g
             id="g142"><path
               d="m 3.311,44.92 c 0,-2.138 1.735,-3.872 3.874,-3.872 l 0,0 c 2.14,0 3.874,1.734 3.874,3.872 l 0,0 c 0,2.14 -1.734,3.875 -3.874,3.875 l 0,0 c -2.139,0 -3.874,-1.735 -3.874,-3.875"
               id="path150"
               style="fill:url(#radialGradient144);stroke:none" /></g></g></g></g><g
       transform="matrix(0.25699375,0,0,0.25699375,0.72726908,-0.01120136)"
       id="g152"><g
         clip-path="url(#clipPath156)"
         id="g154"><g
           transform="translate(7.1851,48.7949)"
           id="g160"><path
             d="M 0,0 C 2.14,0 3.874,-1.734 3.874,-3.875 3.874,-6.013 2.14,-7.747 0,-7.747 c -2.139,0 -3.874,1.734 -3.874,3.872 C -3.874,-1.734 -2.139,0 0,0 z"
             id="path162"
             style="fill:none;stroke:#aaacae;stroke-width:0.5;stroke-linecap:butt;stroke-linejoin:miter;stroke-miterlimit:4;stroke-opacity:1;stroke-dasharray:none" /></g></g></g></g></svg>