<?xml version="1.0" encoding="UTF-8"?><svg xmlns="http://www.w3.org/2000/svg" viewBox="0 0 512 512"><g fill="#1ad9b2"><circle r="35.56" cy="118.099" cx="74.379"/><circle r="46.41" cy="174.629" cx="450.261"/></g><g stroke="#111342" stroke-width="16.907" stroke-linejoin="round"><circle r="41.196" cy="112.464" cx="67.042" fill="none"/><circle r="58.859" cy="439.471" cx="78.313" fill="#fff"/><circle r="51.921" cy="166.752" cx="441.518" fill="none"/><g fill="#fff"><circle r="35.886" cy="45.339" cx="248.959"/><circle r="49.541" cy="453.006" cx="429.272"/><circle r="129.45" cy="274.335" cx="248.959"/></g></g><path d="M300.76 236.91c0-27.016-22.55-48.752-49.807-47.313-25.043 1.323-45.022 22.806-44.691 47.95a47.13 47.13 0 0 0 9.603 27.962c8.158 10.753 12.062 24.159 12.062 37.671v1.897h51.163v-1.95c0-14.014 4.855-27.422 12.958-38.84 5.483-7.726 8.712-17.169 8.712-27.378zm-66.076 84.041h48.5v24.093h-48.5z" fill="#1ad9b2"/><g fill="none" stroke="#111342" stroke-width="16.907" stroke-linejoin="round" stroke-miterlimit="10"><path d="M266.756 352.177h-45.484a12.54 12.54 0 0 1-11.607-7.796h0a12.53 12.53 0 0 1-.932-4.743v-15.223a12.54 12.54 0 0 1 12.539-12.539h45.603a12.54 12.54 0 0 1 12.538 12.539v14.921a12.54 12.54 0 0 1-.871 4.591l-.119.302c-1.886 4.796-6.514 7.948-11.667 7.948z"/><path d="M251.003 364.83h-13.859a4.32 4.32 0 0 1-4.317-4.317v-4.019a4.32 4.32 0 0 1 4.317-4.317h13.859a4.32 4.32 0 0 1 4.317 4.317v4.019a4.32 4.32 0 0 1-4.317 4.317zm49.757-134.049c0-32.141-26.901-57.998-59.415-56.285-29.875 1.573-53.708 27.132-53.312 57.044a55.98 55.98 0 0 0 11.456 33.265c9.733 12.793 14.388 28.742 14.388 44.816v2.258h61.033v-2.319c0-16.671 5.792-32.623 15.457-46.206 6.541-9.192 10.392-20.427 10.392-32.573z"/><path d="M249.007 332.028h27.233M92.442 144.884l52.012 49.255m12.818 171.571l-37.763 29.804M393.61 203.643l-27.758 15.031M340.646 365.71l52.965 47.607M248.959 86.86v52.101" stroke-linecap="round"/></g></svg>
