<?xml version="1.0" encoding="UTF-8" standalone="no"?>
<!-- Created with Inkscape (http://www.inkscape.org/) -->

<svg
   xmlns:dc="http://purl.org/dc/elements/1.1/"
   xmlns:cc="http://creativecommons.org/ns#"
   xmlns:rdf="http://www.w3.org/1999/02/22-rdf-syntax-ns#"
   xmlns:svg="http://www.w3.org/2000/svg"
   xmlns="http://www.w3.org/2000/svg"
   version="1.1"
   width="16"
   height="16"
   id="svg11161">
  <defs
     id="defs11163">
    <clipPath
       id="clipPath3330">
      <path
         d="m 0,1505.001 539.578,0 L 539.578,0 0,0 0,1505.001 z"
         id="path3332" />
    </clipPath>
    <clipPath
       id="clipPath3310">
      <path
         d="m 90.919,1278.766 c -0.019,-0.036 -0.023,-0.047 -0.023,-0.055 l 0,0 -0.009,0 c -0.019,0.01 -0.018,-0.022 -0.009,-0.055 l 0,0 c 0.016,-0.054 0.051,-0.107 0.056,0.028 l 0,0 -0.015,0.086 0,-10e-4 z"
         id="path3312" />
    </clipPath>
    <radialGradient
       cx="0"
       cy="0"
       r="1"
       fx="0"
       fy="0"
       id="radialGradient3318"
       gradientUnits="userSpaceOnUse"
       gradientTransform="matrix(0.0638885,0,0,-0.0638885,90.903809,1278.6816)"
       spreadMethod="pad">
      <stop
         id="stop3320"
         style="stop-color:#ffffff;stop-opacity:1"
         offset="0" />
      <stop
         id="stop3322"
         style="stop-color:#eeaf3f;stop-opacity:1"
         offset="1" />
    </radialGradient>
    <clipPath
       id="clipPath3290">
      <path
         d="m 92.82,1274.932 c 0.084,-0.349 0.088,-0.356 0.093,-0.367 l 0,0 c 0.019,0.153 -0.005,0.299 -0.072,0.434 l 0,0 c -0.008,-0.015 -0.017,-0.043 -0.021,-0.067"
         id="path3292" />
    </clipPath>
    <radialGradient
       cx="0"
       cy="0"
       r="1"
       fx="0"
       fy="0"
       id="radialGradient3298"
       gradientUnits="userSpaceOnUse"
       gradientTransform="matrix(0.1576996,0,0,-0.1576996,92.869141,1274.7817)"
       spreadMethod="pad">
      <stop
         id="stop3300"
         style="stop-color:#ffffff;stop-opacity:1"
         offset="0" />
      <stop
         id="stop3302"
         style="stop-color:#eeaf3f;stop-opacity:1"
         offset="1" />
    </radialGradient>
    <clipPath
       id="clipPath3270">
      <path
         d="m 92.932,1274.449 c 0.228,-1.435 0.199,-0.098 0,0.014 l 0,0 0,-0.014 z"
         id="path3272" />
    </clipPath>
    <radialGradient
       cx="0"
       cy="0"
       r="1"
       fx="0"
       fy="0"
       id="radialGradient3278"
       gradientUnits="userSpaceOnUse"
       gradientTransform="matrix(0.2447968,0,0,-0.2447968,93.012695,1274.1265)"
       spreadMethod="pad">
      <stop
         id="stop3280"
         style="stop-color:#ffffff;stop-opacity:1"
         offset="0" />
      <stop
         id="stop3282"
         style="stop-color:#eeaf3f;stop-opacity:1"
         offset="1" />
    </radialGradient>
    <clipPath
       id="clipPath3250">
      <path
         d="m 93.286,1273.556 c -0.005,-0.018 0.004,-0.049 -0.005,-0.075 l 0,0 c -0.004,0 -0.004,0 -0.019,0.014 l 0,0 c 0.065,-0.319 0.065,-0.319 0.074,-0.336 l 0,0 c 0.021,0 0.042,-0.033 0.042,-0.033 l 0,0 c 0.021,-0.047 0.016,-0.095 0.034,-0.141 l 0,0 c -0.005,0.174 -0.034,0.357 -0.076,0.529 l 0,0 c -0.009,-0.012 -0.003,-0.027 -0.003,-0.033 l 0,0 c -0.043,0.013 -0.008,0.061 -0.047,0.082 l 0,0 0,-0.01 z"
         id="path3252" />
    </clipPath>
    <radialGradient
       cx="0"
       cy="0"
       r="1"
       fx="0"
       fy="0"
       id="radialGradient3258"
       gradientUnits="userSpaceOnUse"
       gradientTransform="matrix(0.2111969,0,0,-0.2111969,93.336914,1273.2739)"
       spreadMethod="pad">
      <stop
         id="stop3260"
         style="stop-color:#ffffff;stop-opacity:1"
         offset="0" />
      <stop
         id="stop3262"
         style="stop-color:#eeaf3f;stop-opacity:1"
         offset="1" />
    </radialGradient>
    <clipPath
       id="clipPath3234">
      <path
         d="m 0,1505.001 539.578,0 L 539.578,0 0,0 0,1505.001 z"
         id="path3236" />
    </clipPath>
    <clipPath
       id="clipPath3212">
      <path
         d="m 93.109,1265.657 c 0.009,0.01 0.038,0.128 0.055,0.167 l 0,0 c 0,0 -0.004,0.033 -0.004,0.033 l 0,0 c -0.034,0.094 0.079,0.207 0.03,0.304 l 0,0 c -0.043,-0.174 -0.092,-0.489 -0.081,-0.504"
         id="path3214" />
    </clipPath>
    <linearGradient
       x1="0"
       y1="0"
       x2="1"
       y2="0"
       id="linearGradient3220"
       gradientUnits="userSpaceOnUse"
       gradientTransform="matrix(0,0.5039063,0.5039063,0,93.154785,1265.6572)"
       spreadMethod="pad">
      <stop
         id="stop3222"
         style="stop-color:#ecf5b0;stop-opacity:1"
         offset="0" />
      <stop
         id="stop3224"
         style="stop-color:#63c431;stop-opacity:1"
         offset="0.66258198" />
      <stop
         id="stop3226"
         style="stop-color:#63c431;stop-opacity:1"
         offset="1" />
    </linearGradient>
    <clipPath
       id="clipPath3190">
      <path
         d="m 92.954,1272.998 c -0.05,0.047 -0.087,0.109 -0.138,0.159 l 0,0 c -0.383,-0.573 -0.383,-0.573 -0.929,-0.459 l 0,0 c -0.054,-0.343 -1.758,-4.12 -1.625,-4.681 l 0,0 c -0.448,0.227 0.999,-4.255 1.269,-4.466 l 0,0 c 0.175,0.059 0.192,0.273 0.349,0.35 l 0,0 c 0.124,-0.135 0.163,-0.327 0.285,-0.465 l 0,0 c 0.041,0.012 0.041,0.012 0.162,0.103 l 0,0 c 0,-0.739 -0.536,-1.294 -0.701,-1.969 l 0,0 c 0.089,-0.024 0.149,-0.024 0.157,-0.024 l 0,0 c 1.384,3.141 1.994,6.356 1.826,9.644 l 0,0 -0.005,0.015 c -0.016,0.199 -0.025,0.274 -0.075,0.509 l 0,0 c -0.012,0.01 -0.024,0.014 -0.033,0.019 l 0,0 c -0.273,0.457 -0.16,0.982 -0.277,1.462 l 0,0 c -0.035,-0.019 -0.072,-0.051 -0.105,-0.073 l 0,0 c -0.022,0.035 -0.051,0.086 -0.063,0.123 l 0,0 -0.005,0.013 c -0.042,-0.082 -0.045,-0.179 -0.092,-0.26"
         id="path3192" />
    </clipPath>
    <linearGradient
       x1="0"
       y1="0"
       x2="1"
       y2="0"
       id="linearGradient3198"
       gradientUnits="userSpaceOnUse"
       gradientTransform="matrix(0,11.711426,11.711426,0,91.906738,1261.5464)"
       spreadMethod="pad">
      <stop
         id="stop3200"
         style="stop-color:#ecf5b0;stop-opacity:1"
         offset="0" />
      <stop
         id="stop3202"
         style="stop-color:#63c431;stop-opacity:1"
         offset="0.66258198" />
      <stop
         id="stop3204"
         style="stop-color:#63c431;stop-opacity:1"
         offset="1" />
    </linearGradient>
    <clipPath
       id="clipPath3168">
      <path
         d="m 90.919,1278.766 c -0.019,-0.036 -0.023,-0.047 -0.023,-0.055 l 0,0 -0.009,0 c -0.019,0.01 -0.018,-0.022 -0.009,-0.055 l 0,0 c 0.016,-0.054 0.051,-0.107 0.056,0.028 l 0,0 -0.015,0.086 0,-10e-4 z"
         id="path3170" />
    </clipPath>
    <linearGradient
       x1="0"
       y1="0"
       x2="1"
       y2="0"
       id="linearGradient3176"
       gradientUnits="userSpaceOnUse"
       gradientTransform="matrix(0,0.1708984,0.1708984,0,90.903809,1278.5962)"
       spreadMethod="pad">
      <stop
         id="stop3178"
         style="stop-color:#ecf5b0;stop-opacity:1"
         offset="0" />
      <stop
         id="stop3180"
         style="stop-color:#63c431;stop-opacity:1"
         offset="0.66258198" />
      <stop
         id="stop3182"
         style="stop-color:#63c431;stop-opacity:1"
         offset="1" />
    </linearGradient>
    <clipPath
       id="clipPath3146">
      <path
         d="m 92.82,1274.932 c 0.084,-0.349 0.088,-0.356 0.093,-0.367 l 0,0 c 0.019,0.153 -0.005,0.299 -0.072,0.434 l 0,0 c -0.008,-0.015 -0.017,-0.043 -0.021,-0.067"
         id="path3148" />
    </clipPath>
    <linearGradient
       x1="0"
       y1="0"
       x2="1"
       y2="0"
       id="linearGradient3154"
       gradientUnits="userSpaceOnUse"
       gradientTransform="matrix(0,0.4345703,0.4345703,0,92.869629,1274.5645)"
       spreadMethod="pad">
      <stop
         id="stop3156"
         style="stop-color:#ecf5b0;stop-opacity:1"
         offset="0" />
      <stop
         id="stop3158"
         style="stop-color:#63c431;stop-opacity:1"
         offset="0.66258198" />
      <stop
         id="stop3160"
         style="stop-color:#63c431;stop-opacity:1"
         offset="1" />
    </linearGradient>
    <clipPath
       id="clipPath3124">
      <path
         d="m 92.932,1274.449 c 0.228,-1.435 0.199,-0.098 0,0.014 l 0,0 0,-0.014 z"
         id="path3126" />
    </clipPath>
    <linearGradient
       x1="0"
       y1="0"
       x2="1"
       y2="0"
       id="linearGradient3132"
       gradientUnits="userSpaceOnUse"
       gradientTransform="matrix(0,0.6738281,0.6738281,0,93.012207,1273.7896)"
       spreadMethod="pad">
      <stop
         id="stop3134"
         style="stop-color:#ecf5b0;stop-opacity:1"
         offset="0" />
      <stop
         id="stop3136"
         style="stop-color:#63c431;stop-opacity:1"
         offset="0.66258198" />
      <stop
         id="stop3138"
         style="stop-color:#63c431;stop-opacity:1"
         offset="1" />
    </linearGradient>
    <clipPath
       id="clipPath3102">
      <path
         d="m 93.286,1273.556 c -0.005,-0.018 0.004,-0.049 -0.005,-0.075 l 0,0 c -0.004,0 -0.004,0 -0.019,0.014 l 0,0 c 0.065,-0.319 0.065,-0.319 0.074,-0.336 l 0,0 c 0.021,0 0.042,-0.033 0.042,-0.033 l 0,0 c 0.021,-0.047 0.016,-0.095 0.034,-0.141 l 0,0 c -0.005,0.174 -0.034,0.357 -0.076,0.529 l 0,0 c -0.009,-0.012 -0.003,-0.027 -0.003,-0.033 l 0,0 c -0.043,0.013 -0.008,0.061 -0.047,0.082 l 0,0 0,-0.01 z"
         id="path3104" />
    </clipPath>
    <linearGradient
       x1="0"
       y1="0"
       x2="1"
       y2="0"
       id="linearGradient3110"
       gradientUnits="userSpaceOnUse"
       gradientTransform="matrix(0,0.578125,0.578125,0,93.336426,1272.9849)"
       spreadMethod="pad">
      <stop
         id="stop3112"
         style="stop-color:#ecf5b0;stop-opacity:1"
         offset="0" />
      <stop
         id="stop3114"
         style="stop-color:#63c431;stop-opacity:1"
         offset="0.66258198" />
      <stop
         id="stop3116"
         style="stop-color:#63c431;stop-opacity:1"
         offset="1" />
    </linearGradient>
    <clipPath
       id="clipPath3080">
      <path
         d="m 91.916,1272.815 c 0.038,0.033 0.051,0.05 0.08,0.21 l 0,0 c 0.097,0.013 0.223,0.029 0.315,0.047 l 0,0 c 0.114,0.29 0.114,0.29 0.143,0.568 l 0,0 c -0.021,0.027 -0.055,1.516 -0.074,1.619 l 0,0 c 0.028,0.01 0.028,0.01 0.276,-0.218 l 0,0 c 0.047,0.153 -0.05,0.31 0.047,0.449 l 0,0 c 0,0 0.307,-0.357 0.63,-1.871 l 0,0 c -0.006,0.195 -0.077,0.38 -0.103,0.573 l 0,0 c -0.003,0.048 -0.011,0.089 -0.024,0.137 l 0,0 c -0.483,1.547 -0.483,1.547 -0.478,1.621 l 0,0 0.025,0 c 0.034,-0.051 0.065,-0.103 0.093,-0.154 l 0,0 c -0.317,1.109 -0.721,2.182 -1.215,3.221 l 0,0 c 0.105,-0.3 0.105,-0.3 0.105,-0.309 l 0,0 c -0.055,0.01 -0.049,0.07 -0.08,0.091 l 0,0 c -0.016,-0.012 -0.016,-0.021 -0.025,-0.038 l 0,0 c -0.259,0.44 -0.486,0.886 -0.701,1.346 l 0,0 c 0,-2.018 0.066,-6.467 0.986,-7.292 m 1.135,2.209 c 0,0.268 -0.07,0.524 -0.205,0.772 l 0,0 c 0.073,-0.256 0.141,-0.513 0.205,-0.772"
         id="path3082" />
    </clipPath>
    <linearGradient
       x1="0"
       y1="0"
       x2="1"
       y2="0"
       id="linearGradient3088"
       gradientUnits="userSpaceOnUse"
       gradientTransform="matrix(0,7.2919922,7.2919922,0,92.131348,1272.8149)"
       spreadMethod="pad">
      <stop
         id="stop3090"
         style="stop-color:#ecf5b0;stop-opacity:1"
         offset="0" />
      <stop
         id="stop3092"
         style="stop-color:#63c431;stop-opacity:1"
         offset="0.66258198" />
      <stop
         id="stop3094"
         style="stop-color:#63c431;stop-opacity:1"
         offset="1" />
    </linearGradient>
    <clipPath
       id="clipPath3058">
      <path
         d="m 88.385,1283.901 c 0.534,-0.617 1.319,-1.729 1.319,-1.997 l 0,0 c 0,-0.394 1.021,-1.778 1.03,-1.789 l 0,0 c 0.027,0.019 0.027,0.019 -0.073,0.471 l 0,0 c 0.235,-0.448 0.504,-0.88 0.782,-1.295 l 0,0 c -0.169,0.433 -0.375,0.847 -0.61,1.246 l 0,0 c -0.038,0.061 -0.074,0.114 -0.117,0.173 l 0,0 c 0.018,-0.017 0.034,-0.039 0.043,-0.051 l 0,0 c -0.078,0.133 -0.161,0.271 -0.244,0.409 l 0,0 -0.008,0 c -0.63,1.015 -1.354,1.974 -2.151,2.871 l 0,0 0.029,-0.038 z"
         id="path3060" />
    </clipPath>
    <linearGradient
       x1="0"
       y1="0"
       x2="1"
       y2="0"
       id="linearGradient3066"
       gradientUnits="userSpaceOnUse"
       gradientTransform="matrix(0,4.6484375,4.6484375,0,89.898926,1279.2905)"
       spreadMethod="pad">
      <stop
         id="stop3068"
         style="stop-color:#ecf5b0;stop-opacity:1"
         offset="0" />
      <stop
         id="stop3070"
         style="stop-color:#63c431;stop-opacity:1"
         offset="0.66258198" />
      <stop
         id="stop3072"
         style="stop-color:#63c431;stop-opacity:1"
         offset="1" />
    </linearGradient>
    <clipPath
       id="clipPath3036">
      <path
         d="m 78.391,1288.885 c -0.008,-0.039 -0.022,-0.087 -0.03,-0.129 l 0,0 -0.246,0.018 c -0.406,-0.154 -0.474,-0.281 -0.212,-0.378 l 0,0 c -0.218,0.054 -0.436,0.113 -0.655,0.174 l 0,0 c -0.511,-0.067 -1.033,-0.137 -1.544,-0.212 l 0,0 c 0.025,-0.077 0.041,-0.098 0.126,-0.178 l 0,0 c -0.005,-0.01 -0.005,-0.024 -0.005,-0.032 l 0,0 c -0.239,0 -0.445,0 -0.776,-0.325 l 0,0 c 0.378,-0.081 0.378,-0.081 0.406,-0.09 l 0,0 c -0.315,-0.345 -0.714,-0.53 -1.204,-0.579 l 0,0 c -0.014,-0.013 -0.022,-0.025 -0.025,-0.042 l 0,0 0.168,-0.065 c 0.276,-0.076 0.553,-0.072 0.831,-0.107 l 0,0 c -0.122,-0.175 -0.336,-0.099 -0.491,-0.175 l 0,0 c 1.771,-0.617 3.602,-0.554 4.77,-2.165 l 0,0 c -0.092,-0.113 -0.219,-0.062 -0.339,-0.012 l 0,0 c -0.129,0.054 -0.248,0.107 -0.299,-0.041 l 0,0 c 0.055,-0.036 0.104,-0.073 0.149,-0.11 l 0,0 c -0.013,0 -0.027,0 -0.041,0.01 l 0,0 c -0.211,-0.204 0.1,-0.314 0.334,-0.325 l 0,0 c 0.379,-0.588 0.043,-1.195 1.056,-1.811 l 0,0 c 0.021,-0.14 0.047,-0.166 0.047,-0.175 l 0,0 0.823,-0.813 c -0.004,0.014 0.025,-0.01 0.033,-0.014 l 0,0 c 1.411,-0.455 1.785,-0.809 1.345,0.392 l 0,0 c 0.075,0.151 0.213,0.269 0.238,0.444 l 0,0 c -0.003,0 -0.003,0 -0.108,0.073 l 0,0 c -0.013,0.053 -0.013,0.053 0.034,0.122 l 0,0 c -0.007,0.033 -0.015,0.076 -0.026,0.109 l 0,0 -0.086,0.115 c 0.271,-0.039 0.133,0.21 0.368,0.345 l 0,0 c 0.003,0.027 0.012,0.067 0.012,0.097 l 0,0 c 0.024,0.012 0.062,0.023 0.093,0.028 l 0,0 c 0.024,-0.033 0.024,-0.033 0.034,-0.147 l 0,0 c 0.427,0.089 0.606,0.125 0.701,0.946 l 0,0 c 0.036,-0.04 0.083,-0.101 0.112,-0.145 l 0,0 c 0.438,0.129 0.979,0.296 0.882,0.663 l 0,0 c -0.215,0.12 -0.461,0.063 -0.679,0.145 l 0,0 c 0.044,0.039 0.044,0.039 0.091,0.118 l 0,0 c -0.171,0.118 -0.171,0.118 -0.218,0.199 l 0,0 c 0.162,0.051 0.258,-0.048 0.355,-0.146 l 0,0 c 0.095,-0.098 0.19,-0.196 0.346,-0.148 l 0,0 c 0.025,0.047 0.025,0.047 -0.93,0.735 l 0,0 c 0.141,0 0.243,-0.145 0.388,-0.126 l 0,0 c 0.008,0.017 0.012,0.032 0.012,0.045 l 0,0 c -0.083,0.108 -0.306,0.247 -0.428,0.324 l 0,0 c 0.181,-0.056 0.265,-0.01 0.24,0.152 l 0,0 c -0.042,0.01 -0.075,0.012 -0.29,0.124 l 0,0 c 0.093,0.034 0.104,0.034 0.235,0.035 l 0,0 c -0.235,0.434 -0.743,0.543 -1.075,0.868 l 0,0 c 0.022,0.027 0.038,0.052 0.055,0.081 l 0,0 c 0.027,-0.01 0.057,0 0.087,0 l 0,0 c 0.025,0 0.051,0 0.076,0 l 0,0 c -0.033,0.154 -1.163,1.084 -1.343,1.256 l 0,0 c 0.017,0.017 0.042,0.05 0.072,0.063 l 0,0 c -0.018,0.266 -0.359,0.233 -0.646,0.2 l 0,0 c -0.216,-0.025 -0.401,-0.052 -0.396,0.052 l 0,0 c -0.063,0.035 -0.15,0.077 -0.215,0.113 l 0,0 c -0.03,-0.031 -0.983,-0.042 -0.991,-0.042 l 0,0 c -0.003,0.011 -0.011,0.026 -0.016,0.039 l 0,0 c 0.104,0.07 0.104,0.07 0.828,0.096 l 0,0 c 0.008,0.016 0.02,0.03 0.024,0.037 l 0,0 c -0.041,0.198 -1.214,0.338 -1.225,0.338 l 0,0 c -0.361,-0.025 -0.361,-0.025 -0.832,-0.019 m -4.196,-0.08 c -0.428,-0.016 -0.832,-0.024 -1.245,-0.024 l 0,0 c -0.299,-0.028 -0.567,-0.231 -0.888,-0.142 l 0,0 c -0.301,-0.302 -0.734,-0.086 -1.065,-0.255 l 0,0 0.347,-0.292 c 0.307,-0.103 0.608,-0.09 0.854,-0.09 l 0,0 c 0.141,0 0.238,0.019 0.414,0.029 l 0,0 0.017,0 c 0.185,0.032 0.361,0.117 0.555,0.125 l 0,0 c -0.005,-0.01 -0.005,-0.024 -0.005,-0.033 l 0,0 c -0.263,-0.039 -0.511,-0.134 -0.73,-0.274 l 0,0 c 0.012,-0.038 0.05,-0.08 0.064,-0.122 l 0,0 c -0.359,0.178 -0.359,0.178 -0.837,0.128 l 0,0 c 0,-0.326 -0.104,-0.83 0.168,-0.674 l 0,0 c -0.105,-0.103 -0.105,-0.103 0.299,-0.214 l 0,0 c 0.003,-0.011 0.008,-0.019 0.008,-0.025 l 0,0 c -0.293,0.025 -0.579,0.058 -0.87,0.112 l 0,0 c 0.047,-0.067 0.121,-0.101 0.177,-0.148 l 0,0 c -0.147,-0.445 -0.21,-0.396 0.078,-0.346 l 0,0 c 0.146,0.025 0.382,0.049 0.742,0.012 l 0,0 c 0.218,0.073 0.218,0.073 0.411,-0.021 l 0,0 c -0.005,-0.017 -0.018,-0.042 -0.021,-0.063 l 0,0 c 0.008,-0.01 0.021,-0.013 0.029,-0.021 l 0,0 c 0.083,0.013 0.965,0.517 1.067,0.811 l 0,0 c -0.135,0.218 -0.093,0.319 0.133,0.302 l 0,0 0.488,0.122 c 0.213,0.074 0.894,0.397 0.962,0.564 l 0,0 c -0.025,0.018 -0.025,0.018 -0.287,0.04 l 0,0 c 0.207,0.156 0.508,0.031 0.698,0.228 l 0,0 c -0.041,0.106 -0.555,0.198 -0.646,0.209 l 0,0 -0.903,0.062 -0.014,0 z m -3.548,-0.556 c -0.063,-0.022 -0.402,-0.121 -0.269,-0.218 l 0,0 c -0.07,-0.105 -0.804,-0.262 -0.189,-0.407 l 0,0 c 0.09,-0.02 0.181,-0.019 0.272,-0.018 l 0,0 c 0.074,0 0.147,10e-4 0.221,-0.01 l 0,0 0,-0.01 c -0.812,-0.484 0.192,-0.568 0.563,-0.354 l 0,0 c 0,0.021 0.003,0.055 0.003,0.076 l 0,0 c 0.093,0.288 0.286,0.278 0.362,0.269 l 0,0 c 0.078,-0.01 0.035,-0.017 -0.362,0.292 l 0,0 c 0.008,0.021 0.033,0.033 0.033,0.06 l 0,0 c -0.025,0.029 -0.542,0.317 -0.63,0.317 l 0,0 c -10e-4,0 -0.003,0 -0.004,0 m -1.469,-0.211 c -0.026,-0.01 -0.076,-0.036 -0.089,-0.077 l 0,0 c 0,-0.01 0.004,-0.01 0.02,-0.029 l 0,0 c 0.079,-0.091 0.115,-0.03 0.114,0.029 l 0,0 c 0,0.039 -0.015,0.077 -0.043,0.077 l 0,0 c 0,0 -0.001,0 -0.002,0 m 0.244,-0.183 c -0.114,-0.058 -0.106,-0.107 0.019,-0.128 l 0,0 c 0.105,-0.024 0.145,0.02 0.136,0.064 l 0,0 c -0.006,0.035 -0.044,0.071 -0.106,0.071 l 0,0 c -0.015,0 -0.032,0 -0.049,-0.01 m 14.439,-0.146 c -0.012,0.01 -0.03,0.019 -0.045,0.024 l 0,0 c 0.023,-0.018 0.041,-0.031 0.063,-0.045 l 0,0 c -0.063,0.03 -0.121,0.074 -0.184,0.109 l 0,0 c 0.332,-0.255 0.676,-0.485 1.036,-0.682 l 0,0 c 0.113,-0.073 0.127,-0.079 0.135,-0.085 l 0,0 c 0,0 0,0.01 -0.008,0.012 l 0,0 c 0.014,0 0.021,-0.01 0.03,-0.01 l 0,0 c -0.383,0.271 -0.77,0.528 -1.165,0.772 l 0,0 -0.028,0.018 c -0.047,0.026 -0.047,0.026 -0.05,0.026 l 0,0 c 0.073,-0.046 0.143,-0.087 0.216,-0.14 m -15.434,-0.143 c -0.424,-0.088 0.151,-0.177 0.171,-0.197 l 0,0 c -0.021,10e-4 -0.572,-0.174 -0.223,-0.182 l 0,0 c 0.13,-0.01 0.831,-0.14 0.865,-0.046 l 0,0 c -0.128,0.182 -0.307,0.43 -0.715,0.43 l 0,0 c -0.031,0 -0.064,0 -0.098,0 m 1.175,-0.112 c -0.042,-0.059 -0.109,-0.072 -0.153,-0.082 l 0,0 c -0.209,-0.04 0.649,-0.714 0.527,-0.094 l 0,0 c -0.114,0.054 -0.261,0.129 -0.37,0.179 l 0,0 -0.004,0 z m -2.633,-0.176 c 0.058,-0.031 0.163,-0.083 0.235,-0.086 l 0,0 c 0.504,0.083 0.397,0.117 0.173,0.117 l 0,0 c -0.128,0 -0.296,-0.011 -0.408,-0.031 m -0.257,-0.269 c -0.058,-0.103 0,-0.112 0.021,-0.116 l 0,0 c 0.164,0 0.329,0.031 0.484,0.086 l 0,0 c 0.042,0.026 -0.025,0.126 -0.03,0.162 l 0,0 c -0.038,0 -0.063,0 -0.08,0 l 0,0 c -0.122,0 -0.314,-0.103 -0.395,-0.136 m 1.227,0.033 c -0.05,-0.159 0.013,-0.227 0.173,-0.21 l 0,0 c 0.021,0.014 0.039,0.033 0.046,0.039 l 0,0 c -0.032,-0.01 -0.116,0.186 -0.139,0.186 l 0,0 c -0.025,0 -0.058,0 -0.08,-0.015 m 17.041,-0.071 c -0.025,0.029 -0.056,0.053 -0.092,0.062 l 0,0 c 0.033,-0.02 0.061,-0.046 0.092,-0.062 m -15.171,-0.018 c 0.309,-0.029 0.389,-0.029 0.423,0.018 l 0,0 c 0.029,0.042 -0.445,0.042 -0.487,0.05 l 0,0 c 0.021,-0.021 0.049,-0.046 0.064,-0.068 m 0.927,0.06 c -0.118,-0.029 -0.144,-0.089 -0.089,-0.12 l 0,0 c 0.213,-0.11 0.27,-0.039 0.242,0.032 l 0,0 c -0.017,0.045 -0.069,0.089 -0.137,0.089 l 0,0 c -0.005,0 -0.01,0 -0.016,-10e-4 m -4.557,-0.034 c -0.133,-0.111 -0.294,-0.143 -0.478,-0.082 l 0,0 c 0.361,0.175 -1.072,-0.481 -0.887,-0.481 l 0,0 c 0.047,0 0.08,0 0.122,0 l 0,0 c 0.148,0.041 0.148,0.041 0.156,0.031 l 0,0 c -0.013,-0.071 -0.051,-0.166 0.109,-0.049 l 0,0 0.312,0.196 c 0.075,0.048 0.166,0.076 0.234,0.134 l 0,0 c -0.038,-0.046 -0.085,-0.105 -0.126,-0.151 l 0,0 c 0.096,-0.084 0.273,0.053 0.364,0.086 l 0,0 c 0.047,0.081 0.098,0.174 0.098,0.174 l 0,0 c 0.076,0.068 0.124,0.085 0.149,0.086 l 0,0 c -0.012,0.01 -0.028,0.028 -0.048,0.061 l 0,0 -0.005,0 z m 19.179,-0.292 c -0.126,0.101 -0.249,0.196 -0.378,0.284 l 0,0 c 0.104,-0.113 0.243,-0.196 0.378,-0.284 m -19.126,0.231 c 0.017,-0.014 0.025,-0.01 0.02,0 l 0,0 c -0.003,0 -0.008,0 -0.018,0 l 0,0 c 0,0 -10e-4,0 -0.002,0 m 1.926,-0.047 c 0.001,0 0.003,0 0.003,0 l 0,0 c 0,0 -0.001,0 -0.003,0 m 2.133,-0.648 c -0.093,-0.039 -0.093,-0.039 -0.123,-0.075 l 0,0 c 0.089,-0.471 1.891,-0.188 2.017,-0.179 l 0,0 c 0.243,-0.05 0.629,-0.241 0.814,0.132 l 0,0 c -0.058,0.299 -0.657,0.272 -1.251,0.245 l 0,0 c -0.487,-0.023 -0.971,-0.044 -1.152,0.113 l 0,0 c 0.043,0.016 0.09,0.015 0.136,0.013 l 0,0 c 0.047,-10e-4 0.094,0 0.134,0.016 l 0,0 c 0.037,0.117 -0.159,0.084 -0.24,0.126 l 0,0 c 0.005,-0.042 -0.5,0.161 -0.554,0.172 l 0,0 -0.504,0.038 c -0.193,-0.07 1.067,-0.449 0.723,-0.601 m -3.352,0.359 c 0.008,-0.053 0.06,-0.073 0.077,-0.122 l 0,0 c -0.031,-0.044 -0.105,-10e-4 -0.122,-0.067 l 0,0 c 0.023,-0.028 0.077,-0.039 0.093,-0.077 l 0,0 c 0.533,0.194 0.936,0.399 0.267,0.399 l 0,0 c -0.011,-0.01 -0.062,-0.01 -0.315,-0.133 m 1.159,0 c -0.021,-0.042 -0.029,-0.082 -0.029,-0.123 l 0,0 c 0.139,-0.036 0.168,0.186 -0.07,0.207 l 0,0 c -0.01,-0.077 0.061,-0.052 0.099,-0.084 m 1.028,0.059 c -0.019,0 -0.024,-0.01 -0.066,-0.021 l 0,0 c -0.122,0.017 -0.243,0.021 -0.369,0.013 l 0,0 c -0.099,-0.229 -0.077,-0.166 -0.099,-0.103 l 0,0 c -0.018,0.05 -0.065,0.1 -0.224,0 l 0,0 c 0,-0.139 -0.072,-0.206 -0.215,-0.206 l 0,0 c 0.026,-0.152 0.378,-0.096 0.517,-0.042 l 0,0 c 0.054,-0.082 -0.135,-0.065 -0.13,-0.159 l 0,0 c 0.289,-0.271 0.512,-0.038 0.603,0.196 l 0,0 c 0.062,0.159 0.063,0.318 -0.015,0.318 l 0,0 c -0.001,0 -0.001,0 -0.002,0 m -3.166,-0.08 c -0.088,-0.01 -0.014,-0.174 -0.136,-0.159 l 0,0 c -0.046,-0.025 -0.109,-0.058 -0.157,-0.082 l 0,0 0.181,-0.017 c -0.278,-0.04 -0.458,-0.145 -0.462,-0.149 l 0,0 c 0.268,-0.145 0.499,-0.12 0.697,0.069 l 0,0 c 0.023,-0.093 0.07,-0.146 0.144,-0.158 l 0,0 c 0.168,0.051 0.385,0.12 0.596,0.193 l 0,0 c -0.131,-10e-4 -0.262,0.028 -0.265,0.028 l 0,0 c -0.093,0.202 -0.093,0.202 -0.29,0.223 l 0,0 c 0.031,0.064 -0.033,0.083 -0.111,0.083 l 0,0 c -0.079,0 -0.172,-0.019 -0.197,-0.031 m -0.381,-0.101 c 0,0 0,0 0,0 l 0,0 c 0.001,0 0.002,0 0.003,0 l 0,0 c 0,10e-4 0,0 0,0 l 0,0 c 0,0 -10e-4,0 -0.003,0 m 0,0 c -0.242,0 -0.536,-0.203 0,0 m 0.245,-0.058 c 0.002,0 0.004,0 0.007,0 l 0,0 -0.059,0.01 c 0.02,-0.01 0.038,-0.012 0.052,-0.014 m 0.999,-0.144 c 0.06,0 0.12,0.01 0.168,0.026 l 0,0 c 0.001,0.013 0,0.023 -0.004,0.032 l 0,0 c -0.054,-0.02 -0.109,-0.039 -0.164,-0.058 m 0.99,-0.054 c -0.12,-0.023 -0.165,-0.072 -0.126,-0.133 l 0,0 c 0.143,-0.035 0.332,0.133 0.193,0.133 l 0,0 -0.067,0 z m -1.561,-0.142 c 0.059,0 0.133,0.017 0.222,0.06 l 0,0 c -0.085,-0.023 -0.158,-0.043 -0.222,-0.06 m 0,0 c -0.009,0 -0.017,0 -0.025,0 l 0,0 c -0.347,-0.107 -0.492,-0.143 0.025,0 m -1.703,-0.137 c -0.155,-0.08 -0.326,-0.1 -0.503,-0.067 l 0,0 c -0.187,-0.214 -1.011,-0.868 -0.652,-1.014 l 0,0 c 0.006,0 0.023,-0.01 0.027,-0.017 l 0,0 c -0.03,-0.13 -0.027,-0.149 -0.021,-0.16 l 0,0 c 0.196,-0.035 1.027,0.286 1.108,0.567 l 0,0 0.928,0.279 -0.147,0.159 c -0.099,0.137 -0.547,0.18 -0.731,0.253 l 0,0 -0.009,0 z m 4.784,-0.899 c -0.478,-0.73 -0.478,-0.73 0.083,-0.846 l 0,0 c -0.049,-0.061 -0.112,-0.145 -0.149,-0.214 l 0,0 c 0.037,-0.021 0.083,-0.036 0.121,-0.057 l 0,0 c -0.052,-0.136 -0.052,-0.136 -0.466,-0.308 l 0,0 c -0.025,-0.081 -0.076,-0.183 -0.135,-0.254 l 0,0 c -0.028,0.028 -0.075,0.061 -0.105,0.085 l 0,0 c -0.443,0.296 -0.929,0.466 -1.46,0.503 l 0,0 c 0.089,0.024 0.178,0.066 0.268,0.126 l 0,0 c -0.08,0 -0.159,0 -0.245,0 l 0,0 c -0.011,0 -0.033,0.01 -0.045,0.013 l 0,0 c 0.004,0.054 0.012,0.084 0.625,0.205 l 0,0 0.021,0 c -0.046,0.02 -0.104,0.05 -0.152,0.072 l 0,0 c -0.179,0.062 -0.642,0.254 -0.658,0.293 l 0,0 c 0.121,0.186 0.164,0.383 0.126,0.601 l 0,0 c -0.067,0.09 -0.445,0.223 -0.45,0.223 l 0,0 c -0.049,-0.057 -0.154,-0.399 -0.114,-0.527 l 0,0 c -0.175,0.065 -0.29,0.199 -0.33,0.393 l 0,0 c -0.017,-0.041 -0.037,-0.089 -0.056,-0.131 l 0,0 c -0.227,-0.155 -0.323,-0.138 -0.276,0.051 l 0,0 c -0.189,0 -0.374,-0.01 -0.555,-0.024 l 0,0 c 0.027,0.087 0.181,0.054 0.169,0.164 l 0,0 c -0.186,0.085 -1.211,-0.351 -1.219,-0.514 l 0,0 c 0,-0.01 0.017,-0.01 0.022,-0.017 l 0,0 0.168,-0.087 c 0.073,-0.011 0.141,0 0.211,0.01 l 0,0 c 0.069,0.01 0.138,0.017 0.212,0.01 l 0,0 0,-0.016 c -0.113,-0.075 -0.381,-0.097 -0.587,-0.103 l 0,0 c 0.358,-0.114 0.727,-0.197 1.104,-0.24 l 0,0 c -0.289,-0.196 -1.909,-0.263 -0.534,-0.38 l 0,0 c -0.008,-0.056 -0.024,-0.138 -0.033,-0.198 l 0,0 c 0.042,-0.026 0.042,-0.026 0.467,-0.018 l 0,0 0.017,0 c 0.041,0.01 0.107,0.012 0.533,0.069 l 0,0 c 0.135,0.193 0.411,0.047 0.549,0.227 l 0,0 0.018,0.012 c 0.121,-0.101 0.242,-0.17 0.364,-0.205 l 0,0 c -0.084,0 -0.169,-0.011 -0.255,-0.022 l 0,0 c -0.215,0.022 -0.243,0.025 -0.651,-0.108 l 0,0 c 0.041,-0.013 0.102,-0.027 0.143,-0.036 l 0,0 0.105,-0.021 c 0.051,0.01 0.108,0.015 0.16,0.021 l 0,0 c -0.295,-0.338 -0.32,-0.329 -0.917,-0.193 l 0,0 c -0.008,0 -0.029,0 -0.041,0 l 0,0 c -0.837,-0.062 -0.837,-0.062 -0.912,-0.057 l 0,0 c 0,0.04 0,0.09 -0.008,0.133 l 0,0 c 0.08,0.031 0.177,0.097 0.223,0.163 l 0,0 -1.667,0.332 0,0.139 c -0.147,0 -0.252,-0.112 -0.391,-0.148 l 0,0 c -0.013,0.107 -0.055,0.249 -0.093,0.347 l 0,0 c -0.041,0 -0.097,0 -0.133,0 l 0,0 c -0.152,-0.19 -0.177,-0.194 -0.337,-0.255 l 0,0 -0.083,-0.025 c -0.033,0.025 -0.069,0.062 -0.094,0.086 l 0,0 c -1.695,-0.269 -1.695,-0.269 -2.443,0.186 l 0,0 c -0.035,-0.017 -0.084,-0.036 -0.125,-0.046 l 0,0 c -0.086,0.22 -0.11,0.235 -0.258,0.309 l 0,0 c -0.884,-0.332 -1.539,-0.904 -1.977,-1.714 l 0,0 c -0.323,-0.164 -0.328,-0.173 -0.566,-0.621 l 0,0 c 0.037,-0.02 0.091,-0.05 0.129,-0.071 l 0,0 c 0.042,0.023 0.091,0.059 0.138,0.082 l 0,0 c -0.149,-0.687 -0.889,-0.922 -1.157,-1.521 l 0,0 c 0.062,-0.139 0.062,-0.139 -0.08,-0.541 l 0,0 c 0.037,-0.018 0.091,-0.036 0.129,-0.052 l 0,0 c 0.039,0.026 0.089,0.059 0.123,0.083 l 0,0 c 0.013,-0.04 0.029,-0.09 0.041,-0.126 l 0,0 c -0.299,-0.424 -0.713,-0.722 -1.07,-1.091 l 0,0 c 1.014,0.388 1.498,1.374 2.263,2.048 l 0,0 c -0.05,-0.214 -0.252,-0.315 -0.37,-0.477 l 0,0 c 0.021,-0.035 0.05,-0.078 0.072,-0.11 l 0,0 c 0.209,0.041 0.403,0.227 0.702,0.513 l 0,0 c 0.288,-0.381 0.856,-0.42 0.859,-0.42 l 0,0 c 0.289,-0.521 0.289,-0.521 0.618,-0.509 l 0,0 c 0.143,-0.221 0.13,-0.261 0.083,-0.415 l 0,0 c 0.085,-0.055 0.141,-0.2 0.16,-0.297 l 0,0 0.11,-0.115 c -0.173,-0.588 0.34,-1.049 0.285,-1.608 l 0,0 c 0.055,-0.057 0.146,-0.123 0.226,-0.159 l 0,0 c 2.084,-0.022 4.515,-0.022 7.202,-0.022 l 0,0 c -0.125,0.235 -0.125,0.235 -0.091,0.461 l 0,0 c 0.194,-0.326 0.194,-0.326 0.226,-0.368 l 0,0 c 0.155,-0.086 0.287,-0.093 0.413,-0.093 l 0,0 c -0.125,0 -0.251,0 -0.376,0 l 0,0 c -0.029,-0.021 -0.075,-0.046 -0.105,-0.063 l 0,0 c -2.754,0.063 -5.185,0.063 -7.218,0.063 l 0,0 c 0.118,-0.063 0.436,-0.233 0.782,-0.737 l 0,0 c -0.059,-0.185 -0.097,-0.322 -0.315,-0.322 l 0,0 c -0.031,0.064 -0.08,0.141 -0.113,0.202 l 0,0 c -0.043,0 -0.093,0 -0.131,0.011 l 0,0 c -2.491,-3.203 2.922,-5.273 1.722,-6.694 l 0,0 c 0.227,-0.273 0.662,-0.17 0.852,-0.499 l 0,0 c -0.022,-0.073 -0.059,-0.175 -0.093,-0.239 l 0,0 c 0.093,-0.273 0.345,-0.38 0.853,-0.612 l 0,0 c -1.36,1.784 -1.588,2.524 -1.616,2.65 l 0,0 c 0.036,0.016 0.092,0.04 0.133,0.055 l 0,0 c 0.114,-0.051 0.278,-0.12 0.409,-0.308 l 0,0 1.18,-1.607 c 1.082,-1.248 1.082,-1.248 0.922,-1.579 l 0,0 c 1.574,-1.888 5.603,-0.677 6.837,-2.646 l 0,0 c -0.088,-0.077 -0.214,-0.106 -0.29,-0.206 l 0,0 c 0.345,-0.432 0.693,-0.347 0.892,-0.299 l 0,0 c -0.088,0.206 -0.279,0.369 -0.32,0.601 l 0,0 c 0.356,0.899 0.041,1.296 -0.931,1.181 l 0,0 -0.724,0 c -0.025,0.508 0.484,0.84 0.454,1.349 l 0,0 c 0.063,0.058 0.138,0.133 0.198,0.189 l 0,0 c -0.278,0.145 -1.155,0.063 -1.168,0.063 l 0,0 c -1.05,-1.286 -1.89,-1.103 -2.519,0.537 l 0,0 0.192,1.448 c 0.654,1.31 4.321,0.852 5.053,0.214 l 0,0 c -0.052,-0.033 -0.106,-0.105 -0.127,-0.166 l 0,0 c 0.044,-0.085 0.099,-0.161 0.161,-0.231 l 0,0 c 0.144,0.351 0.424,0.803 0.746,1.256 l 0,0 c 0.495,0.695 1.087,1.391 1.43,1.719 l 0,0 c -0.164,0.208 -0.39,0.375 -0.472,0.643 l 0,0 c 0.101,0.128 0.101,0.128 0.328,0.312 l 0,0 c -0.005,-0.077 -0.013,-0.18 -0.009,-0.255 l 0,0 c 0.123,-0.057 0.202,-0.09 0.382,0.031 l 0,0 c -0.042,0.071 -0.089,0.166 -0.13,0.235 l 0,0 c 0.466,-0.207 0.52,0.186 0.562,0.5 l 0,0 c 0.151,0.055 0.176,0.076 0.198,0.236 l 0,0 c 0.273,-0.073 0.646,-0.167 0.936,0.016 l 0,0 c -0.491,0.59 0.815,0.718 1.18,1.118 l 0,0 c 0.323,0.014 0.643,0.112 0.966,0.062 l 0,0 c -0.533,0.01 -0.794,-0.344 -0.814,-0.389 l 0,0 c 0.685,0.053 1.323,0.245 1.918,0.561 l 0,0 c -0.008,0.03 -0.017,0.076 -0.026,0.105 l 0,0 c -0.121,0.061 -0.133,0.069 -0.174,0.261 l 0,0 c -0.177,-0.013 -0.229,-0.039 -0.395,-0.387 l 0,0 c -0.134,-0.01 -0.315,-0.023 -0.456,-0.032 l 0,0 -0.271,0.132 -0.328,0.343 c 0.03,0.049 0.066,0.125 0.094,0.183 l 0,0 c -0.135,0.056 -0.135,0.056 -0.313,0.138 l 0,0 c 0.249,0.036 0.249,0.036 0.383,0.137 l 0,0 c -0.01,0.083 -0.032,0.148 -0.066,0.197 l 0,0 c 0.496,0.172 0.994,0.339 1.493,0.502 l 0,0 c -0.551,0.01 -1.103,0.01 -1.655,0.014 l 0,0 c 0.563,0 1.125,0 1.688,0.01 l 0,0 c 0.9,0.613 0.9,0.613 0.896,0.731 l 0,0 c -0.021,0.176 -0.101,0.241 -0.214,0.34 l 0,0 c -0.322,-0.062 -0.331,-0.044 -0.436,0.365 l 0,0 c -0.74,0.625 -1.48,1.241 -2.218,1.86 l 0,0 -0.135,0 c -1.288,-0.768 -2.537,-0.521 -3.75,0.725 l 0,0 c -0.012,-0.447 -0.012,-0.447 0.247,-0.817 l 0,0 c -0.096,-0.122 -0.226,-0.216 -0.327,-0.344 l 0,0 c 0.898,-0.719 0.802,-1.196 -0.281,-1.449 l 0,0 c 0.323,-1.411 0.005,-1.638 -0.961,-0.674 l 0,0 c 0.016,0.412 0.016,0.418 0,0.713 l 0,0 c -0.219,0.154 -2.254,0.782 -2.368,0.801 l 0,0 -0.009,0 c -0.206,-0.013 -0.407,-0.027 -0.61,-0.042 l 0,0 c -0.004,0.102 0.009,0.246 0.022,0.344 l 0,0 c -0.172,0.244 -0.524,0.153 -0.715,0.378 l 0,0 c 0.127,0.614 0.127,0.614 1.378,1.375 l 0,0 c -0.021,0.036 -0.042,0.088 -0.054,0.123 l 0,0 c 0.075,0.056 0.189,0.126 0.276,0.17 l 0,0 c 0.447,0.15 0.798,0.231 1.147,0.774 l 0,0 c -0.051,0.046 -0.117,0.107 -0.159,0.154 l 0,0 c 0.34,-0.083 0.981,-0.232 1.457,0.272 l 0,0 c -0.164,0.261 -0.164,0.261 -0.211,0.376 l 0,0 c 0.08,0.036 0.191,0.084 0.268,0.124 l 0,0 c -0.002,0 -0.75,0.564 -1.069,0.291 l 0,0 c 0.147,-0.291 -0.337,-0.8 -0.55,-0.853 l 0,0 c -0.152,0.127 -0.156,0.127 -0.227,0.368 l 0,0 c 0.017,0.034 0.054,0.072 0.075,0.106 l 0,0 c -0.046,0.068 -0.126,0.162 -0.198,0.214 l 0,0 c -0.175,-0.035 -0.204,-0.044 -0.284,-0.25 l 0,0 c -0.24,0.07 -0.307,0.346 -0.537,0.433 l 0,0 c 0.066,0.058 0.142,0.144 0.196,0.211 l 0,0 c -0.029,0.058 -0.029,0.058 -0.46,0.542 l 0,0 c 0.082,0.139 0.104,0.173 0.237,0.318 l 0,0 c 0.358,-0.015 0.358,-0.015 0.764,0.355 l 0,0 c -0.171,0.06 -0.247,0.094 -0.764,0.109 l 0,0 c -0.174,-0.019 -0.614,-0.049 -0.415,-0.715 m -6.298,-1.737 c 0.103,0.016 0.147,-0.01 0.074,-0.114 l 0,0 c 0.05,-0.084 0.108,-0.193 0.162,-0.302 l 0,0 c 0.193,-0.39 0.333,-0.781 -0.153,-0.038 l 0,0 c -0.05,-0.014 -0.117,-0.04 -0.168,-0.053 l 0,0 c -0.026,-0.124 -0.194,-0.223 -0.357,-0.221 l 0,0 c 0.033,0.093 0.139,0.115 0.186,0.187 l 0,0 c 0,0 0,0 -0.006,0.01 l 0,0 c -0.201,-0.086 -0.415,-0.13 -0.638,-0.139 l 0,0 c 0.165,0.178 0.367,0.272 0.601,0.284 l 0,0 c -0.11,0.251 -0.441,0.051 -0.638,0.051 l 0,0 c -0.004,0 -0.017,0 -0.021,0.01 l 0,0 c 0.2,0.054 0.662,0.264 0.908,0.32 l 0,0 c -0.013,0.073 0.009,0.065 0.05,0.01 m 1.988,-1.533 c -0.304,-0.12 -1.193,-0.482 -1.164,-0.487 l 0,0 c -0.193,0.021 -0.294,-0.041 -0.383,-0.104 l 0,0 c -0.138,-0.097 -0.249,-0.194 -0.634,0.031 l 0,0 c 0.243,0.057 0.475,0.136 0.695,0.238 l 0,0 c -0.154,0.279 -0.154,0.279 -0.146,0.292 l 0,0 c 0.189,-0.063 0.382,-0.134 0.575,-0.216 l 0,0 c 0.302,0.289 0.655,0.371 1.057,0.246 m 0.252,-1.239 c -0.372,-0.131 -0.872,-0.289 -1.245,-0.399 l 0,0 c -0.478,0.443 1.188,0.428 1.245,0.399 m 1.741,-1.828 c 0.079,0.064 0.146,0.064 0.213,0.064 l 0,0 c 0.497,-0.719 0.525,-0.782 0.445,-1.106 l 0,0 c 1.411,-0.02 2.822,-0.035 4.234,-0.045 l 0,0 c -1.448,-10e-4 -2.896,0 -4.342,0 l 0,0 c -0.055,0.324 -0.055,0.324 -0.178,0.497 l 0,0 c -0.038,-0.011 -0.096,-0.019 -0.134,-0.036 l 0,0 c -0.335,0.384 -0.335,0.384 -0.238,0.63 m 5.95,-3.007 c -0.046,-0.192 -0.223,-0.171 -0.521,0.069 l 0,0 -0.167,-0.488 c 0.028,-0.162 -0.056,-0.222 -0.24,-0.186 l 0,0 c -0.008,0.092 -0.022,0.205 -0.034,0.29 l 0,0 c -0.117,-0.025 -0.218,-0.112 -0.345,-0.099 l 0,0 c -0.016,0.016 -0.03,0.042 -0.033,0.138 l 0,0 c 0.227,0.317 0.127,0.506 -0.312,0.575 l 0,0 c -2.431,-1.564 -0.339,0.052 0.006,0.101 l 0,0 0.145,0.049 c -0.712,0.194 -1.645,-0.028 -2.32,0.235 l 0,0 c -0.013,0.01 -0.029,0.016 -0.043,0.02 l 0,0 c 0.496,0.294 0.496,0.294 0.576,0.29 l 0,0 c 0.714,0.067 2.754,-0.12 3.288,-0.994 m 1.05,-0.207 c 0.516,-0.468 -0.986,-0.319 -0.967,-0.317 l 0,0 c -0.034,-0.01 -0.081,-0.029 -0.117,-0.042 l 0,0 c 0.042,0.197 0.188,0.226 0.474,0.303 l 0,0 c 0.19,0.058 0.374,0.042 0.56,-0.055 l 0,0 c 0.045,0 0.088,0.031 0.05,0.111 m -2.307,-0.821 c 0.072,0.2 1.433,0.335 1.592,0.353 l 0,0 c -0.003,0 -0.003,0 -0.009,-0.01 l 0,0 c -0.342,-0.305 -0.69,-0.458 -1.047,-0.458 l 0,0 c -0.176,0 -0.355,0.038 -0.536,0.113 m -2.917,10.978 c -0.064,-0.01 -0.127,-0.01 -0.194,-0.01 l 0,0 c -0.328,0.168 -0.919,-0.22 -0.281,-0.783 l 0,0 0.047,-0.082 0.138,0 c 0.008,0 0.029,0 0.092,0.082 l 0,0 c 0.035,0.01 0.085,0.01 0.126,0.012 l 0,0 c 0.251,0.053 0.273,0.119 0.286,0.154 l 0,0 0.051,0.186 c -0.019,0.098 -0.171,0.133 -0.277,0.133 l 0,0 c 0.129,0.083 0.403,0.326 0.142,0.354 l 0,0 c -0.047,0 -0.089,-0.018 -0.13,-0.051 m 2.714,0.012 c 0.021,0 0.04,0 0.057,0.01 l 0,0 c -0.01,0.01 -0.02,0.013 -0.028,0.013 l 0,0 c -0.011,0 -0.021,-0.01 -0.029,-0.019 m -1.076,-0.864 c 0.017,-0.015 0.042,-0.022 0.053,-0.028 l 0,0 c 0.077,-0.011 0.16,-0.011 0.492,-0.08 l 0,0 c -0.344,-0.016 -0.344,-0.016 -0.387,-0.04 l 0,0 c 0.072,-0.381 1.977,-0.506 2.554,-0.171 l 0,0 c 0.23,-0.076 0.575,-0.255 0.755,-0.418 l 0,0 c -0.029,-0.041 -0.075,-0.064 -0.1,-0.106 l 0,0 c 0.08,-0.125 0.238,-0.078 0.357,-0.02 l 0,0 c 1.276,-0.482 0.331,-0.473 0.378,-1.19 l 0,0 c -2.734,-1.278 2.188,-1.204 2.222,-1.182 l 0,0 c -0.148,0.294 -0.487,0.326 -0.706,0.51 l 0,0 c 0.009,0.016 0.013,0.024 0.02,0.033 l 0,0 c 0.345,-0.094 0.614,-0.441 1.03,-0.289 l 0,0 c -0.24,0.488 -0.593,0.855 -1.079,1.083 l 0,0 c 0.099,0.374 0.792,-0.022 0.889,-0.121 l 0,0 c 0.146,-0.16 0.256,-0.208 0.286,-0.195 l 0,0 0.369,0.316 c 0.072,0.082 0.094,0.238 0.094,0.243 l 0,0 c -0.059,0.408 -1.609,0.469 -1.928,0.805 l 0,0 c 0.024,0.041 0.024,0.041 0.298,0.113 l 0,0 c -0.395,0.732 -4.238,1.84 -4.497,1.226 l 0,0 c 0.03,-0.053 0.03,-0.053 0.146,-0.104 l 0,0 c 0,-0.01 0,-0.01 -0.188,-0.118 l 0,0 c 0.008,-0.033 0.008,-0.033 0.141,-0.147 l 0,0 c -0.107,-0.188 -0.167,0.08 -0.174,0.35 l 0,0 c -0.006,0.17 0.011,0.339 0.051,0.394 l 0,0 c -0.355,-0.04 -1.217,-0.219 -1.076,-0.864 m -3.403,0.717 0.101,-0.126 c 0.381,-0.321 0.233,-0.161 0.066,0 l 0,0 c -0.096,0.092 -0.199,0.184 -0.21,0.184 l 0,0 c -0.004,0 0.007,-0.017 0.043,-0.056 m 17.817,-1.121 0.005,0 -0.005,0 0,0 z m -16.339,-0.128 c -0.125,-0.152 -0.28,-0.252 -0.469,-0.296 l 0,0 c 0.137,0.01 0.264,-0.022 0.383,-0.088 l 0,0 c 0.149,-0.064 0.368,-0.055 0.511,0.013 l 0,0 c 0.008,0.011 0.014,0.105 -0.42,0.374 l 0,0 c 0,0 0,0 -0.005,0 m 5.06,-0.83 c 0.017,-0.071 0.056,-0.105 0.119,-0.094 l 0,0 c 0.163,0 0.318,0.051 0.462,0.151 l 0,0 c 0.02,0.157 -0.063,0.219 -0.172,0.219 l 0,0 c -0.155,0 -0.364,-0.124 -0.409,-0.276 m -10.58,-0.139 c 0.007,-0.038 0.024,-0.1 0.054,-0.19 l 0,0 c 0.03,0.033 0.053,0.062 0.07,0.086 l 0,0 c -0.028,0.047 -0.053,0.087 -0.074,0.114 l 0,0 c -0.015,0 -0.032,0 -0.05,-0.01 m 8.23,-0.582 c -0.017,-0.172 -0.072,-0.329 -0.089,-0.492 l 0,0 c -0.092,-0.024 -0.213,-0.052 -0.315,-0.08 l 0,0 c 0.046,-0.111 0.14,-0.08 0.239,-0.048 l 0,0 c 0.076,0.024 0.156,0.049 0.219,0.01 l 0,0 c 0.042,-0.414 0.63,0.187 0.769,0.235 l 0,0 c 0.201,-0.318 0.453,-0.371 0.748,-0.157 l 0,0 c -0.417,0.271 -1,0.291 -1.403,0.69 l 0,0 c -0.055,-0.045 -0.114,-0.116 -0.168,-0.154 m 0.533,-0.998 c -0.039,-0.019 0.398,-0.078 0.591,0.07 l 0,0 0,0.053 c -0.043,0.01 -0.086,0.01 -0.129,0.01 l 0,0 c -0.16,0 -0.316,-0.043 -0.462,-0.132 m 1.028,-0.176 c 0.026,-0.028 0.112,-0.144 0.176,-0.15 l 0,0 c 0.159,-0.015 0.208,0.055 0.203,0.125 l 0,0 c -0.005,0.066 -0.058,0.132 -0.115,0.129 l 0,0 c -0.02,0 -0.039,0.01 -0.057,0.01 l 0,0 c -0.089,0 -0.157,-0.039 -0.207,-0.109 m -16.498,-1.336 c -0.033,-0.028 -0.541,-0.399 -0.437,-0.588 l 0,0 c 0.134,0.126 0.272,0.258 0.412,0.394 l 0,0 c -0.014,0.019 -0.026,0.043 -0.035,0.07 l 0,0 0.177,0.083 -0.033,0.082 -0.029,0.056 -0.055,-0.097 z m 2.335,-0.057 c 0,-0.039 0.099,-0.592 0.125,-0.571 l 0,0 c 0.063,0.075 0.118,0.269 0.109,0.357 l 0,0 -0.029,0.167 c -0.009,0.032 -0.08,0.051 -0.202,0.051 l 0,0 c 0,0 0,0 -0.003,0 m 30.528,-0.44 c 0.004,-0.01 0.009,-0.017 0.009,-0.026 l 0,0 0.097,-0.082 c 0.197,-0.195 0.197,-0.195 0.205,-0.191 l 0,0 c 0,0.18 -0.083,0.305 -0.252,0.373 l 0,0 c -0.008,-0.01 -0.033,-0.016 -0.059,-0.074 m -30.407,-0.931 0.004,-0.01 c 0.004,-0.831 0.454,0.547 0.101,0.916 l 0,0 c 0.083,-0.261 -0.214,-0.753 -0.105,-0.91 m -3.776,0.37 c -0.003,0 0.11,-0.172 0.11,0 l 0,0 -0.11,0 z m -0.44,-0.306 c 0.072,0.06 0.126,0.135 0.155,0.225 l 0,0 c -0.021,-0.031 -0.151,-0.207 -0.155,-0.225 m -0.092,-0.098 c 0.063,0.053 0.096,0.116 0.109,0.191 l 0,0 c -0.041,-0.068 -0.106,-0.175 -0.109,-0.191 m -0.101,-0.047 c 0,0 -0.024,-0.066 -0.024,-0.072 l 0,0 0.002,0 c 0.009,0.019 0.039,0.072 0.039,0.088 l 0,0 c -0.005,0 -0.017,-0.016 -0.017,-0.016 m 0.025,-0.028 c -0.063,-0.12 0.039,0.039 0.025,0.039 l 0,0 c -0.009,0 -0.009,0 -0.025,-0.039 m -0.147,-0.161 c 0.012,-0.01 0.026,-0.02 0.029,-0.017 l 0,0 c 0,0.01 0,0.01 0.005,0.054 l 0,0 c -0.008,-0.013 -0.022,-0.029 -0.034,-0.037 m -0.088,-0.118 c 0.033,0.031 0.055,0.068 0.055,0.113 l 0,0 c -0.022,-0.038 -0.043,-0.076 -0.055,-0.113 m 26.027,-0.454 c -0.05,-0.055 -0.207,-0.214 -0.256,-0.319 l 0,0 c -0.432,-1.011 -0.411,-0.99 0.208,-0.969 l 0,0 c 0.189,0.01 0.433,0.013 0.737,-0.01 l 0,0 c 0.066,0.116 0.364,0.154 0.327,0.367 l 0,0 c -0.016,0.01 -0.06,0 -0.107,0 l 0,0 c -0.107,-0.014 -0.223,-0.026 -0.002,0.139 l 0,0 0,0.014 c -0.31,0.319 -1.196,-0.014 -0.823,0.462 l 0,0 c 0.101,0.118 0.104,0.235 0.025,0.36 l 0,0 c -0.029,-0.016 -0.075,-0.032 -0.109,-0.041 m -20.723,-0.275 c -0.016,-0.016 -0.022,-0.033 -0.033,-0.044 l 0,0 c -0.114,-0.26 0.343,-0.435 0.465,-0.596 l 0,0 c 0.427,-0.561 0.496,0.645 -0.446,0.645 l 0,0 c 0,0 0.008,0 0.014,0 m 21.768,-0.98 c -0.177,-0.059 -0.243,-0.193 -0.189,-0.389 l 0,0 c 0.399,-0.21 0.517,0.334 0.194,0.389 l 0,0 -0.005,0 z m -6.884,-3.734 c 0.046,-0.058 0.087,-0.119 0.119,-0.187 l 0,0 c 0.158,0.268 0.193,0.382 0.143,0.382 l 0,0 c -0.04,0 -0.133,-0.072 -0.262,-0.195 m -1.632,-3.552 c -0.142,0.221 -0.368,0.377 -0.544,0.577 l 0,0 c -0.21,-0.513 -0.128,-0.81 0.544,-0.577 m -0.928,-0.605 c -0.495,-0.137 -0.57,-0.208 -0.638,-0.269 l 0,0 c 0.021,-0.19 0.314,-0.101 0.957,0.112 l 0,0 c 0.417,-0.105 0.826,-0.338 1.236,-0.436 l 0,0 0.003,0 c 0.005,0 0.017,0.014 0.021,0.017 l 0,0 c -0.063,0.274 -0.218,0.424 -0.462,0.45 l 0,0 c -0.21,0.03 -0.667,0.141 -0.964,0.141 l 0,0 c -0.059,0 -0.111,-0.01 -0.153,-0.015 m 3.015,-0.208 c 0.11,-0.07 0.161,-0.163 0.244,0 l 0,0 -0.147,0.063 -0.097,-0.063 z m 0.774,-0.262 0.26,-0.04 c 0,0.092 -0.025,0.092 -0.039,0.092 l 0,0 c -0.017,-0.01 -0.058,-0.01 -0.221,-0.052 m -2.185,-0.15 c 0,-0.093 0.093,-0.155 0.55,-0.188 l 0,0 c -0.227,-0.102 -0.245,-0.14 -0.246,-0.162 l 0,0 c 0.037,0.037 1.021,0 0.859,-0.012 l 0,0 c 0.707,0.063 -0.986,0.54 -0.99,0.54 l 0,0 c -0.055,-0.049 -0.123,-0.126 -0.173,-0.178 m 1.801,0.041 c -0.008,-0.041 0.055,-0.12 0.089,-0.104 l 0,0 c 0.025,0.034 0.055,0.066 0.068,0.104 l 0,0 -0.157,0 z m 0.757,-0.353 c -0.34,-0.132 -0.723,-0.151 -1,-0.403 l 0,0 c 0.118,0.023 0.268,0.063 0.374,0.088 l 0,0 c 0.27,-0.153 0.27,-0.158 0.294,-0.202 l 0,0 c 0.076,-0.154 0.92,0.011 1.012,0.089 l 0,0 c -0.092,0.071 -0.134,0.165 -0.116,0.296 l 0,0 c 0,0 -0.415,0.133 -0.546,0.133 l 0,0 c -0.007,0 -0.013,0 -0.018,0 m -2.254,-0.042 c 0,10e-4 0,0 0,0 l 0,0 c -0.002,-10e-4 -0.002,0 0,0 m 3.551,-0.45 c 0.019,0 0.066,-0.016 0.12,-0.029 l 0,0 c 0.136,-0.032 0.318,-0.066 0.208,0.058 l 0,0 c -0.106,0 -0.222,-0.01 -0.328,-0.029 m -0.008,-10e-4 c 0.003,0 0.005,10e-4 0.008,10e-4 l 0,0 c -0.003,0 -0.006,0 -0.007,0 l 0,0 c -0.003,0 -0.003,0 -10e-4,0 m -3.712,-0.015 c 0.002,0 0.003,0 0.004,0 l 0,0 c 0,0 0,0 0,0 l 0,0 -0.004,0 z m 0.664,-0.101 c -0.034,0.036 -0.1,0.096 -0.66,0.101 l 0,0 c 0.026,-0.031 0.571,-0.638 0.66,-0.101 m -0.147,-2.742 c -0.12,0.023 -0.372,0.088 -0.669,0.152 l 0,0 c 0.089,-0.277 0.019,-0.892 -0.091,-1.506 l 0,0 c -0.118,-0.662 -0.283,-1.324 -0.35,-1.564 l 0,0 c 12.072,-0.024 12.075,-0.036 -0.006,-0.024 l 0,0 c -0.025,-0.089 -0.031,-0.1 -0.008,0 l 0,0 c -0.002,0 -0.003,0 -0.006,0 l 0,0 c -0.067,-0.217 -0.584,-0.359 -0.344,-0.561 l 0,0 c 0.007,-0.062 0.007,-0.062 0.012,-0.224 l 0,0 c 2.843,-1.282 3.338,-4.563 1.65,-6.927 l 0,0 c 0.176,-0.202 0.207,-0.462 0.086,-0.77 l 0,0 c 0.01,-0.035 0.01,-0.035 -0.174,-0.626 l 0,0 c -0.029,0.038 -0.029,0.038 -0.076,0.17 l 0,0 c -0.016,0.015 -0.038,0.019 -0.049,0.025 l 0,0 c -0.106,-0.107 -0.215,-0.445 -0.215,-0.449 l 0,0 c 0.118,-0.012 0.118,-0.012 0.155,-0.031 l 0,0 c -0.34,-0.185 -0.424,-0.473 -0.26,-0.879 l 0,0 c 0.058,-0.064 0.116,-0.114 0.174,-0.152 l 0,0 c -0.034,0 -0.072,0 -0.116,-10e-4 l 0,0 c 0.262,-0.181 0.543,-0.268 0.845,-0.251 l 0,0 c 0.121,-0.016 0.121,-0.016 0.196,0.025 l 0,0 c -0.086,0.023 -0.163,0.072 -0.212,0.148 l 0,0 c -0.031,0.065 -0.07,0.12 -0.125,0.167 l 0,0 c 0.02,0.02 0.041,0.041 0.061,0.064 l 0,0 c 0.199,0.293 0.587,0.454 0.782,0.767 l 0,0 c -0.009,0.013 -0.017,0.035 -0.017,0.055 l 0,0 c -0.374,0.166 -0.088,0.359 -0.085,0.359 l 0,0 c 0.025,0.01 0.035,0.01 0.046,0.01 l 0,0 c 0.177,0.01 0.177,0.01 0.567,0.408 l 0,0 c 0.122,-0.044 0.218,0 0.257,0.031 l 0,0 c -0.067,0.114 -0.219,0.023 -0.294,0.122 l 0,0 c 0.02,0.074 0.02,0.074 0.053,0.178 l 0,0 c 0.417,-0.165 0.657,-0.029 0.71,0.405 l 0,0 c 0.719,-0.036 0.824,0.057 1.266,0.45 l 0,0 c -0.14,0.398 -0.119,0.489 -0.119,0.489 l 0,0 c 0.497,-0.117 2.057,-0.048 2.057,0.903 l 0,0 c 0.098,0.082 0.228,0.107 0.321,0.21 l 0,0 c 0.755,0.531 2.003,1.184 2.671,1.826 l 0,0 0.595,0.689 c 0.201,0.326 0.298,0.697 0.471,1.029 l 0,0 c 0.807,-0.109 1.7,1.387 0.948,1.946 l 0,0 c -0.508,0.378 -1.716,1.178 -2.414,0.979 l 0,0 c -0.163,0.108 -0.348,0.166 -0.555,0.166 l 0,0 c 0.022,0.067 0.022,0.067 0.245,0.38 l 0,0 c -0.19,0.266 -0.14,0.585 -0.206,0.877 l 0,0 c -0.702,0.416 -1.482,0.055 -2.037,0.596 l 0,0 0,0.066 c -0.013,0.019 -0.03,0.033 -0.039,0.039 l 0,0 c -0.113,-0.01 -0.113,-0.01 -0.16,0.01 l 0,0 c -0.033,0.086 -0.033,0.086 -0.049,0.195 l 0,0 c -0.335,0.128 -0.335,0.128 -0.382,0.128 l 0,0 c -0.168,0.37 -0.403,0.307 -0.642,0.595 l 0,0 c -0.148,-0.082 -0.148,-0.082 -0.391,-0.108 l 0,0 c -0.235,-0.052 -0.281,-0.052 -0.39,-0.052 l 0,0 -0.845,0.065 c -0.004,0 -0.482,0.324 -0.486,0.33 l 0,0 c -0.505,0.015 -0.685,-0.17 -0.56,-0.553 l 0,0 c -0.05,-0.031 -0.105,-0.052 -0.222,0.03 l 0,0 c 0.034,0.2 0.034,0.2 -0.046,0.243 l 0,0 c -0.056,0.192 0.185,0.255 0.185,0.425 l 0,0 c -0.008,0 -0.022,0 -0.034,0 l 0,0 c -0.793,-0.056 -1.414,-0.361 -1.679,-1.069 m 1.742,-5.85 c 0.08,-0.011 0.466,-0.34 0.47,-0.34 l 0,0 c -0.012,-0.01 -0.071,-0.017 -0.117,-0.022 l 0,0 c -0.214,0.043 -0.327,0.165 -0.353,0.362 m -2.758,6.07 c 0.119,-0.021 0.237,-0.045 0.347,-0.068 l 0,0 c -0.03,0.097 -0.081,0.153 -0.155,0.153 l 0,0 c -0.052,0 -0.115,-0.027 -0.192,-0.085 m -1.362,-0.147 c 0.249,-0.116 0.249,-0.116 0.709,-0.084 l 0,0 c 0.249,-0.264 0.275,-0.294 0.551,-0.162 l 0,0 c -0.003,0.021 -0.017,0.049 -0.017,0.063 l 0,0 c -0.045,0.023 -0.092,0.06 -0.13,0.082 l 0,0 c 0.096,0.113 0.178,0.194 0.249,0.248 l 0,0 c -0.249,0.043 -0.506,0.075 -0.73,0.075 l 0,0 c -0.3,0 -0.543,-0.057 -0.632,-0.222 m 1.254,-3.015 c 0.003,0 0.006,0 0.008,0 l 0,0 c 0.002,0.01 0.004,0.015 0.006,0.024 l 0,0 c -0.002,0 -0.005,0 -0.008,0 l 0,0 c -0.002,-0.01 -0.004,-0.017 -0.006,-0.024 m 18.748,0 c -0.232,-1.033 -2.122,-4.149 -4.149,-6.179 l 0,0 c 1.784,1.77 3.254,3.857 4.309,6.179 l 0,0 -0.16,0 z m -17.596,-8.509 c -0.05,-0.354 0.064,-0.312 0.127,-0.013 l 0,0 c -0.039,0.01 -0.088,0.013 -0.127,0.021 l 0,0 0,-0.01 z"
         id="path3038" />
    </clipPath>
    <linearGradient
       x1="0"
       y1="0"
       x2="1"
       y2="0"
       id="linearGradient3044"
       gradientUnits="userSpaceOnUse"
       gradientTransform="matrix(0,38.044434,38.044434,0,72.94873,1250.8604)"
       spreadMethod="pad">
      <stop
         id="stop3046"
         style="stop-color:#ecf5b0;stop-opacity:1"
         offset="0" />
      <stop
         id="stop3048"
         style="stop-color:#63c431;stop-opacity:1"
         offset="0.66258198" />
      <stop
         id="stop3050"
         style="stop-color:#63c431;stop-opacity:1"
         offset="1" />
    </linearGradient>
    <clipPath
       id="clipPath3016">
      <path
         d="m 51.494,1270.467 c 0,-12.069 9.818,-21.887 21.887,-21.887 l 0,0 c 12.073,0 21.895,9.818 21.895,21.887 l 0,0 c 0,12.074 -9.822,21.893 -21.895,21.893 l 0,0 c -12.069,0 -21.887,-9.819 -21.887,-21.893"
         id="path3018" />
    </clipPath>
    <linearGradient
       x1="0"
       y1="0"
       x2="1"
       y2="0"
       id="linearGradient3024"
       gradientUnits="userSpaceOnUse"
       gradientTransform="matrix(0,43.78125,43.78125,0,73.384766,1248.5796)"
       spreadMethod="pad">
      <stop
         id="stop3026"
         style="stop-color:#c5ebfb;stop-opacity:1"
         offset="0" />
      <stop
         id="stop3028"
         style="stop-color:#7cc2ed;stop-opacity:1"
         offset="1" />
    </linearGradient>
    <clipPath
       id="clipPath2996">
      <path
         d="m 59.228,1248.838 c 0,-2.251 9.105,-4.071 20.336,-4.071 l 0,0 c 11.231,0 20.338,1.82 20.338,4.071 l 0,0 c 0,2.246 -9.107,4.065 -20.338,4.065 l 0,0 c -11.231,0 -20.336,-1.819 -20.336,-4.065"
         id="path2998" />
    </clipPath>
    <radialGradient
       cx="0"
       cy="0"
       r="1"
       fx="0"
       fy="0"
       id="radialGradient3004"
       gradientUnits="userSpaceOnUse"
       gradientTransform="matrix(20.340469,0,0,-4.0671082,79.563965,1248.8359)"
       spreadMethod="pad">
      <stop
         id="stop3006"
         style="stop-color:#a7a5a6;stop-opacity:1"
         offset="0" />
      <stop
         id="stop3008"
         style="stop-color:#ffffff;stop-opacity:1"
         offset="1" />
    </radialGradient>
  </defs>
  <metadata
     id="metadata11166">
    <rdf:RDF>
      <cc:Work
         rdf:about="">
        <dc:format>image/svg+xml</dc:format>
        <dc:type
           rdf:resource="http://purl.org/dc/dcmitype/StillImage" />
        <dc:title></dc:title>
      </cc:Work>
    </rdf:RDF>
  </metadata>
  <g
     transform="translate(-344.745,-546.1079)"
     id="layer1">
    <g
       transform="matrix(0.33052388,0,0,-0.33618389,327.725,980.57851)"
       id="g2992">
      <g
         clip-path="url(#clipPath2996)"
         id="g2994">
        <g
           id="g3000">
          <g
             id="g3002">
            <path
               d="m 59.228,1248.838 c 0,-2.251 9.105,-4.071 20.336,-4.071 l 0,0 c 11.231,0 20.338,1.82 20.338,4.071 l 0,0 c 0,2.246 -9.107,4.065 -20.338,4.065 l 0,0 c -11.231,0 -20.336,-1.819 -20.336,-4.065"
               id="path3010"
               style="fill:url(#radialGradient3004);stroke:none" />
          </g>
        </g>
      </g>
    </g>
    <g
       transform="matrix(0.33052388,0,0,-0.33618389,327.725,980.57851)"
       id="g3012">
      <g
         clip-path="url(#clipPath3016)"
         id="g3014">
        <g
           id="g3020">
          <g
             id="g3022">
            <path
               d="m 51.494,1270.467 c 0,-12.069 9.818,-21.887 21.887,-21.887 l 0,0 c 12.073,0 21.895,9.818 21.895,21.887 l 0,0 c 0,12.074 -9.822,21.893 -21.895,21.893 l 0,0 c -12.069,0 -21.887,-9.819 -21.887,-21.893"
               id="path3030"
               style="fill:url(#linearGradient3024);stroke:none" />
          </g>
        </g>
      </g>
    </g>
    <g
       transform="matrix(0.33052388,0,0,-0.33618389,327.725,980.57851)"
       id="g3032">
      <g
         clip-path="url(#clipPath3036)"
         id="g3034">
        <g
           id="g3040">
          <g
             id="g3042">
            <path
               d="m 78.391,1288.885 c -0.008,-0.039 -0.022,-0.087 -0.03,-0.129 l 0,0 -0.246,0.018 c -0.406,-0.154 -0.474,-0.281 -0.212,-0.378 l 0,0 c -0.218,0.054 -0.436,0.113 -0.655,0.174 l 0,0 c -0.511,-0.067 -1.033,-0.137 -1.544,-0.212 l 0,0 c 0.025,-0.077 0.041,-0.098 0.126,-0.178 l 0,0 c -0.005,-0.01 -0.005,-0.024 -0.005,-0.032 l 0,0 c -0.239,0 -0.445,0 -0.776,-0.325 l 0,0 c 0.378,-0.081 0.378,-0.081 0.406,-0.09 l 0,0 c -0.315,-0.345 -0.714,-0.53 -1.204,-0.579 l 0,0 c -0.014,-0.013 -0.022,-0.025 -0.025,-0.042 l 0,0 0.168,-0.065 c 0.276,-0.076 0.553,-0.072 0.831,-0.107 l 0,0 c -0.122,-0.175 -0.336,-0.099 -0.491,-0.175 l 0,0 c 1.771,-0.617 3.602,-0.554 4.77,-2.165 l 0,0 c -0.092,-0.113 -0.219,-0.062 -0.339,-0.012 l 0,0 c -0.129,0.054 -0.248,0.107 -0.299,-0.041 l 0,0 c 0.055,-0.036 0.104,-0.073 0.149,-0.11 l 0,0 c -0.013,0 -0.027,0 -0.041,0.01 l 0,0 c -0.211,-0.204 0.1,-0.314 0.334,-0.325 l 0,0 c 0.379,-0.588 0.043,-1.195 1.056,-1.811 l 0,0 c 0.021,-0.14 0.047,-0.166 0.047,-0.175 l 0,0 0.823,-0.813 c -0.004,0.014 0.025,-0.01 0.033,-0.014 l 0,0 c 1.411,-0.455 1.785,-0.809 1.345,0.392 l 0,0 c 0.075,0.151 0.213,0.269 0.238,0.444 l 0,0 c -0.003,0 -0.003,0 -0.108,0.073 l 0,0 c -0.013,0.053 -0.013,0.053 0.034,0.122 l 0,0 c -0.007,0.033 -0.015,0.076 -0.026,0.109 l 0,0 -0.086,0.115 c 0.271,-0.039 0.133,0.21 0.368,0.345 l 0,0 c 0.003,0.027 0.012,0.067 0.012,0.097 l 0,0 c 0.024,0.012 0.062,0.023 0.093,0.028 l 0,0 c 0.024,-0.033 0.024,-0.033 0.034,-0.147 l 0,0 c 0.427,0.089 0.606,0.125 0.701,0.946 l 0,0 c 0.036,-0.04 0.083,-0.101 0.112,-0.145 l 0,0 c 0.438,0.129 0.979,0.296 0.882,0.663 l 0,0 c -0.215,0.12 -0.461,0.063 -0.679,0.145 l 0,0 c 0.044,0.039 0.044,0.039 0.091,0.118 l 0,0 c -0.171,0.118 -0.171,0.118 -0.218,0.199 l 0,0 c 0.162,0.051 0.258,-0.048 0.355,-0.146 l 0,0 c 0.095,-0.098 0.19,-0.196 0.346,-0.148 l 0,0 c 0.025,0.047 0.025,0.047 -0.93,0.735 l 0,0 c 0.141,0 0.243,-0.145 0.388,-0.126 l 0,0 c 0.008,0.017 0.012,0.032 0.012,0.045 l 0,0 c -0.083,0.108 -0.306,0.247 -0.428,0.324 l 0,0 c 0.181,-0.056 0.265,-0.01 0.24,0.152 l 0,0 c -0.042,0.01 -0.075,0.012 -0.29,0.124 l 0,0 c 0.093,0.034 0.104,0.034 0.235,0.035 l 0,0 c -0.235,0.434 -0.743,0.543 -1.075,0.868 l 0,0 c 0.022,0.027 0.038,0.052 0.055,0.081 l 0,0 c 0.027,-0.01 0.057,0 0.087,0 l 0,0 c 0.025,0 0.051,0 0.076,0 l 0,0 c -0.033,0.154 -1.163,1.084 -1.343,1.256 l 0,0 c 0.017,0.017 0.042,0.05 0.072,0.063 l 0,0 c -0.018,0.266 -0.359,0.233 -0.646,0.2 l 0,0 c -0.216,-0.025 -0.401,-0.052 -0.396,0.052 l 0,0 c -0.063,0.035 -0.15,0.077 -0.215,0.113 l 0,0 c -0.03,-0.031 -0.983,-0.042 -0.991,-0.042 l 0,0 c -0.003,0.011 -0.011,0.026 -0.016,0.039 l 0,0 c 0.104,0.07 0.104,0.07 0.828,0.096 l 0,0 c 0.008,0.016 0.02,0.03 0.024,0.037 l 0,0 c -0.041,0.198 -1.214,0.338 -1.225,0.338 l 0,0 c -0.361,-0.025 -0.361,-0.025 -0.832,-0.019 m -4.196,-0.08 c -0.428,-0.016 -0.832,-0.024 -1.245,-0.024 l 0,0 c -0.299,-0.028 -0.567,-0.231 -0.888,-0.142 l 0,0 c -0.301,-0.302 -0.734,-0.086 -1.065,-0.255 l 0,0 0.347,-0.292 c 0.307,-0.103 0.608,-0.09 0.854,-0.09 l 0,0 c 0.141,0 0.238,0.019 0.414,0.029 l 0,0 0.017,0 c 0.185,0.032 0.361,0.117 0.555,0.125 l 0,0 c -0.005,-0.01 -0.005,-0.024 -0.005,-0.033 l 0,0 c -0.263,-0.039 -0.511,-0.134 -0.73,-0.274 l 0,0 c 0.012,-0.038 0.05,-0.08 0.064,-0.122 l 0,0 c -0.359,0.178 -0.359,0.178 -0.837,0.128 l 0,0 c 0,-0.326 -0.104,-0.83 0.168,-0.674 l 0,0 c -0.105,-0.103 -0.105,-0.103 0.299,-0.214 l 0,0 c 0.003,-0.011 0.008,-0.019 0.008,-0.025 l 0,0 c -0.293,0.025 -0.579,0.058 -0.87,0.112 l 0,0 c 0.047,-0.067 0.121,-0.101 0.177,-0.148 l 0,0 c -0.147,-0.445 -0.21,-0.396 0.078,-0.346 l 0,0 c 0.146,0.025 0.382,0.049 0.742,0.012 l 0,0 c 0.218,0.073 0.218,0.073 0.411,-0.021 l 0,0 c -0.005,-0.017 -0.018,-0.042 -0.021,-0.063 l 0,0 c 0.008,-0.01 0.021,-0.013 0.029,-0.021 l 0,0 c 0.083,0.013 0.965,0.517 1.067,0.811 l 0,0 c -0.135,0.218 -0.093,0.319 0.133,0.302 l 0,0 0.488,0.122 c 0.213,0.074 0.894,0.397 0.962,0.564 l 0,0 c -0.025,0.018 -0.025,0.018 -0.287,0.04 l 0,0 c 0.207,0.156 0.508,0.031 0.698,0.228 l 0,0 c -0.041,0.106 -0.555,0.198 -0.646,0.209 l 0,0 -0.903,0.062 -0.014,0 z m -3.548,-0.556 c -0.063,-0.022 -0.402,-0.121 -0.269,-0.218 l 0,0 c -0.07,-0.105 -0.804,-0.262 -0.189,-0.407 l 0,0 c 0.09,-0.02 0.181,-0.019 0.272,-0.018 l 0,0 c 0.074,0 0.147,10e-4 0.221,-0.01 l 0,0 0,-0.01 c -0.812,-0.484 0.192,-0.568 0.563,-0.354 l 0,0 c 0,0.021 0.003,0.055 0.003,0.076 l 0,0 c 0.093,0.288 0.286,0.278 0.362,0.269 l 0,0 c 0.078,-0.01 0.035,-0.017 -0.362,0.292 l 0,0 c 0.008,0.021 0.033,0.033 0.033,0.06 l 0,0 c -0.025,0.029 -0.542,0.317 -0.63,0.317 l 0,0 c -10e-4,0 -0.003,0 -0.004,0 m -1.469,-0.211 c -0.026,-0.01 -0.076,-0.036 -0.089,-0.077 l 0,0 c 0,-0.01 0.004,-0.01 0.02,-0.029 l 0,0 c 0.079,-0.091 0.115,-0.03 0.114,0.029 l 0,0 c 0,0.039 -0.015,0.077 -0.043,0.077 l 0,0 c 0,0 -0.001,0 -0.002,0 m 0.244,-0.183 c -0.114,-0.058 -0.106,-0.107 0.019,-0.128 l 0,0 c 0.105,-0.024 0.145,0.02 0.136,0.064 l 0,0 c -0.006,0.035 -0.044,0.071 -0.106,0.071 l 0,0 c -0.015,0 -0.032,0 -0.049,-0.01 m 14.439,-0.146 c -0.012,0.01 -0.03,0.019 -0.045,0.024 l 0,0 c 0.023,-0.018 0.041,-0.031 0.063,-0.045 l 0,0 c -0.063,0.03 -0.121,0.074 -0.184,0.109 l 0,0 c 0.332,-0.255 0.676,-0.485 1.036,-0.682 l 0,0 c 0.113,-0.073 0.127,-0.079 0.135,-0.085 l 0,0 c 0,0 0,0.01 -0.008,0.012 l 0,0 c 0.014,0 0.021,-0.01 0.03,-0.01 l 0,0 c -0.383,0.271 -0.77,0.528 -1.165,0.772 l 0,0 -0.028,0.018 c -0.047,0.026 -0.047,0.026 -0.05,0.026 l 0,0 c 0.073,-0.046 0.143,-0.087 0.216,-0.14 m -15.434,-0.143 c -0.424,-0.088 0.151,-0.177 0.171,-0.197 l 0,0 c -0.021,10e-4 -0.572,-0.174 -0.223,-0.182 l 0,0 c 0.13,-0.01 0.831,-0.14 0.865,-0.046 l 0,0 c -0.128,0.182 -0.307,0.43 -0.715,0.43 l 0,0 c -0.031,0 -0.064,0 -0.098,0 m 1.175,-0.112 c -0.042,-0.059 -0.109,-0.072 -0.153,-0.082 l 0,0 c -0.209,-0.04 0.649,-0.714 0.527,-0.094 l 0,0 c -0.114,0.054 -0.261,0.129 -0.37,0.179 l 0,0 -0.004,0 z m -2.633,-0.176 c 0.058,-0.031 0.163,-0.083 0.235,-0.086 l 0,0 c 0.504,0.083 0.397,0.117 0.173,0.117 l 0,0 c -0.128,0 -0.296,-0.011 -0.408,-0.031 m -0.257,-0.269 c -0.058,-0.103 0,-0.112 0.021,-0.116 l 0,0 c 0.164,0 0.329,0.031 0.484,0.086 l 0,0 c 0.042,0.026 -0.025,0.126 -0.03,0.162 l 0,0 c -0.038,0 -0.063,0 -0.08,0 l 0,0 c -0.122,0 -0.314,-0.103 -0.395,-0.136 m 1.227,0.033 c -0.05,-0.159 0.013,-0.227 0.173,-0.21 l 0,0 c 0.021,0.014 0.039,0.033 0.046,0.039 l 0,0 c -0.032,-0.01 -0.116,0.186 -0.139,0.186 l 0,0 c -0.025,0 -0.058,0 -0.08,-0.015 m 17.041,-0.071 c -0.025,0.029 -0.056,0.053 -0.092,0.062 l 0,0 c 0.033,-0.02 0.061,-0.046 0.092,-0.062 m -15.171,-0.018 c 0.309,-0.029 0.389,-0.029 0.423,0.018 l 0,0 c 0.029,0.042 -0.445,0.042 -0.487,0.05 l 0,0 c 0.021,-0.021 0.049,-0.046 0.064,-0.068 m 0.927,0.06 c -0.118,-0.029 -0.144,-0.089 -0.089,-0.12 l 0,0 c 0.213,-0.11 0.27,-0.039 0.242,0.032 l 0,0 c -0.017,0.045 -0.069,0.089 -0.137,0.089 l 0,0 c -0.005,0 -0.01,0 -0.016,-10e-4 m -4.557,-0.034 c -0.133,-0.111 -0.294,-0.143 -0.478,-0.082 l 0,0 c 0.361,0.175 -1.072,-0.481 -0.887,-0.481 l 0,0 c 0.047,0 0.08,0 0.122,0 l 0,0 c 0.148,0.041 0.148,0.041 0.156,0.031 l 0,0 c -0.013,-0.071 -0.051,-0.166 0.109,-0.049 l 0,0 0.312,0.196 c 0.075,0.048 0.166,0.076 0.234,0.134 l 0,0 c -0.038,-0.046 -0.085,-0.105 -0.126,-0.151 l 0,0 c 0.096,-0.084 0.273,0.053 0.364,0.086 l 0,0 c 0.047,0.081 0.098,0.174 0.098,0.174 l 0,0 c 0.076,0.068 0.124,0.085 0.149,0.086 l 0,0 c -0.012,0.01 -0.028,0.028 -0.048,0.061 l 0,0 -0.005,0 z m 19.179,-0.292 c -0.126,0.101 -0.249,0.196 -0.378,0.284 l 0,0 c 0.104,-0.113 0.243,-0.196 0.378,-0.284 m -19.126,0.231 c 0.017,-0.014 0.025,-0.01 0.02,0 l 0,0 c -0.003,0 -0.008,0 -0.018,0 l 0,0 c 0,0 -10e-4,0 -0.002,0 m 1.926,-0.047 c 0.001,0 0.003,0 0.003,0 l 0,0 c 0,0 -0.001,0 -0.003,0 m 2.133,-0.648 c -0.093,-0.039 -0.093,-0.039 -0.123,-0.075 l 0,0 c 0.089,-0.471 1.891,-0.188 2.017,-0.179 l 0,0 c 0.243,-0.05 0.629,-0.241 0.814,0.132 l 0,0 c -0.058,0.299 -0.657,0.272 -1.251,0.245 l 0,0 c -0.487,-0.023 -0.971,-0.044 -1.152,0.113 l 0,0 c 0.043,0.016 0.09,0.015 0.136,0.013 l 0,0 c 0.047,-10e-4 0.094,0 0.134,0.016 l 0,0 c 0.037,0.117 -0.159,0.084 -0.24,0.126 l 0,0 c 0.005,-0.042 -0.5,0.161 -0.554,0.172 l 0,0 -0.504,0.038 c -0.193,-0.07 1.067,-0.449 0.723,-0.601 m -3.352,0.359 c 0.008,-0.053 0.06,-0.073 0.077,-0.122 l 0,0 c -0.031,-0.044 -0.105,-10e-4 -0.122,-0.067 l 0,0 c 0.023,-0.028 0.077,-0.039 0.093,-0.077 l 0,0 c 0.533,0.194 0.936,0.399 0.267,0.399 l 0,0 c -0.011,-0.01 -0.062,-0.01 -0.315,-0.133 m 1.159,0 c -0.021,-0.042 -0.029,-0.082 -0.029,-0.123 l 0,0 c 0.139,-0.036 0.168,0.186 -0.07,0.207 l 0,0 c -0.01,-0.077 0.061,-0.052 0.099,-0.084 m 1.028,0.059 c -0.019,0 -0.024,-0.01 -0.066,-0.021 l 0,0 c -0.122,0.017 -0.243,0.021 -0.369,0.013 l 0,0 c -0.099,-0.229 -0.077,-0.166 -0.099,-0.103 l 0,0 c -0.018,0.05 -0.065,0.1 -0.224,0 l 0,0 c 0,-0.139 -0.072,-0.206 -0.215,-0.206 l 0,0 c 0.026,-0.152 0.378,-0.096 0.517,-0.042 l 0,0 c 0.054,-0.082 -0.135,-0.065 -0.13,-0.159 l 0,0 c 0.289,-0.271 0.512,-0.038 0.603,0.196 l 0,0 c 0.062,0.159 0.063,0.318 -0.015,0.318 l 0,0 c -0.001,0 -0.001,0 -0.002,0 m -3.166,-0.08 c -0.088,-0.01 -0.014,-0.174 -0.136,-0.159 l 0,0 c -0.046,-0.025 -0.109,-0.058 -0.157,-0.082 l 0,0 0.181,-0.017 c -0.278,-0.04 -0.458,-0.145 -0.462,-0.149 l 0,0 c 0.268,-0.145 0.499,-0.12 0.697,0.069 l 0,0 c 0.023,-0.093 0.07,-0.146 0.144,-0.158 l 0,0 c 0.168,0.051 0.385,0.12 0.596,0.193 l 0,0 c -0.131,-10e-4 -0.262,0.028 -0.265,0.028 l 0,0 c -0.093,0.202 -0.093,0.202 -0.29,0.223 l 0,0 c 0.031,0.064 -0.033,0.083 -0.111,0.083 l 0,0 c -0.079,0 -0.172,-0.019 -0.197,-0.031 m -0.381,-0.101 c 0,0 0,0 0,0 l 0,0 c 0.001,0 0.002,0 0.003,0 l 0,0 c 0,10e-4 0,0 0,0 l 0,0 c 0,0 -10e-4,0 -0.003,0 m 0,0 c -0.242,0 -0.536,-0.203 0,0 m 0.245,-0.058 c 0.002,0 0.004,0 0.007,0 l 0,0 -0.059,0.01 c 0.02,-0.01 0.038,-0.012 0.052,-0.014 m 0.999,-0.144 c 0.06,0 0.12,0.01 0.168,0.026 l 0,0 c 0.001,0.013 0,0.023 -0.004,0.032 l 0,0 c -0.054,-0.02 -0.109,-0.039 -0.164,-0.058 m 0.99,-0.054 c -0.12,-0.023 -0.165,-0.072 -0.126,-0.133 l 0,0 c 0.143,-0.035 0.332,0.133 0.193,0.133 l 0,0 -0.067,0 z m -1.561,-0.142 c 0.059,0 0.133,0.017 0.222,0.06 l 0,0 c -0.085,-0.023 -0.158,-0.043 -0.222,-0.06 m 0,0 c -0.009,0 -0.017,0 -0.025,0 l 0,0 c -0.347,-0.107 -0.492,-0.143 0.025,0 m -1.703,-0.137 c -0.155,-0.08 -0.326,-0.1 -0.503,-0.067 l 0,0 c -0.187,-0.214 -1.011,-0.868 -0.652,-1.014 l 0,0 c 0.006,0 0.023,-0.01 0.027,-0.017 l 0,0 c -0.03,-0.13 -0.027,-0.149 -0.021,-0.16 l 0,0 c 0.196,-0.035 1.027,0.286 1.108,0.567 l 0,0 0.928,0.279 -0.147,0.159 c -0.099,0.137 -0.547,0.18 -0.731,0.253 l 0,0 -0.009,0 z m 4.784,-0.899 c -0.478,-0.73 -0.478,-0.73 0.083,-0.846 l 0,0 c -0.049,-0.061 -0.112,-0.145 -0.149,-0.214 l 0,0 c 0.037,-0.021 0.083,-0.036 0.121,-0.057 l 0,0 c -0.052,-0.136 -0.052,-0.136 -0.466,-0.308 l 0,0 c -0.025,-0.081 -0.076,-0.183 -0.135,-0.254 l 0,0 c -0.028,0.028 -0.075,0.061 -0.105,0.085 l 0,0 c -0.443,0.296 -0.929,0.466 -1.46,0.503 l 0,0 c 0.089,0.024 0.178,0.066 0.268,0.126 l 0,0 c -0.08,0 -0.159,0 -0.245,0 l 0,0 c -0.011,0 -0.033,0.01 -0.045,0.013 l 0,0 c 0.004,0.054 0.012,0.084 0.625,0.205 l 0,0 0.021,0 c -0.046,0.02 -0.104,0.05 -0.152,0.072 l 0,0 c -0.179,0.062 -0.642,0.254 -0.658,0.293 l 0,0 c 0.121,0.186 0.164,0.383 0.126,0.601 l 0,0 c -0.067,0.09 -0.445,0.223 -0.45,0.223 l 0,0 c -0.049,-0.057 -0.154,-0.399 -0.114,-0.527 l 0,0 c -0.175,0.065 -0.29,0.199 -0.33,0.393 l 0,0 c -0.017,-0.041 -0.037,-0.089 -0.056,-0.131 l 0,0 c -0.227,-0.155 -0.323,-0.138 -0.276,0.051 l 0,0 c -0.189,0 -0.374,-0.01 -0.555,-0.024 l 0,0 c 0.027,0.087 0.181,0.054 0.169,0.164 l 0,0 c -0.186,0.085 -1.211,-0.351 -1.219,-0.514 l 0,0 c 0,-0.01 0.017,-0.01 0.022,-0.017 l 0,0 0.168,-0.087 c 0.073,-0.011 0.141,0 0.211,0.01 l 0,0 c 0.069,0.01 0.138,0.017 0.212,0.01 l 0,0 0,-0.016 c -0.113,-0.075 -0.381,-0.097 -0.587,-0.103 l 0,0 c 0.358,-0.114 0.727,-0.197 1.104,-0.24 l 0,0 c -0.289,-0.196 -1.909,-0.263 -0.534,-0.38 l 0,0 c -0.008,-0.056 -0.024,-0.138 -0.033,-0.198 l 0,0 c 0.042,-0.026 0.042,-0.026 0.467,-0.018 l 0,0 0.017,0 c 0.041,0.01 0.107,0.012 0.533,0.069 l 0,0 c 0.135,0.193 0.411,0.047 0.549,0.227 l 0,0 0.018,0.012 c 0.121,-0.101 0.242,-0.17 0.364,-0.205 l 0,0 c -0.084,0 -0.169,-0.011 -0.255,-0.022 l 0,0 c -0.215,0.022 -0.243,0.025 -0.651,-0.108 l 0,0 c 0.041,-0.013 0.102,-0.027 0.143,-0.036 l 0,0 0.105,-0.021 c 0.051,0.01 0.108,0.015 0.16,0.021 l 0,0 c -0.295,-0.338 -0.32,-0.329 -0.917,-0.193 l 0,0 c -0.008,0 -0.029,0 -0.041,0 l 0,0 c -0.837,-0.062 -0.837,-0.062 -0.912,-0.057 l 0,0 c 0,0.04 0,0.09 -0.008,0.133 l 0,0 c 0.08,0.031 0.177,0.097 0.223,0.163 l 0,0 -1.667,0.332 0,0.139 c -0.147,0 -0.252,-0.112 -0.391,-0.148 l 0,0 c -0.013,0.107 -0.055,0.249 -0.093,0.347 l 0,0 c -0.041,0 -0.097,0 -0.133,0 l 0,0 c -0.152,-0.19 -0.177,-0.194 -0.337,-0.255 l 0,0 -0.083,-0.025 c -0.033,0.025 -0.069,0.062 -0.094,0.086 l 0,0 c -1.695,-0.269 -1.695,-0.269 -2.443,0.186 l 0,0 c -0.035,-0.017 -0.084,-0.036 -0.125,-0.046 l 0,0 c -0.086,0.22 -0.11,0.235 -0.258,0.309 l 0,0 c -0.884,-0.332 -1.539,-0.904 -1.977,-1.714 l 0,0 c -0.323,-0.164 -0.328,-0.173 -0.566,-0.621 l 0,0 c 0.037,-0.02 0.091,-0.05 0.129,-0.071 l 0,0 c 0.042,0.023 0.091,0.059 0.138,0.082 l 0,0 c -0.149,-0.687 -0.889,-0.922 -1.157,-1.521 l 0,0 c 0.062,-0.139 0.062,-0.139 -0.08,-0.541 l 0,0 c 0.037,-0.018 0.091,-0.036 0.129,-0.052 l 0,0 c 0.039,0.026 0.089,0.059 0.123,0.083 l 0,0 c 0.013,-0.04 0.029,-0.09 0.041,-0.126 l 0,0 c -0.299,-0.424 -0.713,-0.722 -1.07,-1.091 l 0,0 c 1.014,0.388 1.498,1.374 2.263,2.048 l 0,0 c -0.05,-0.214 -0.252,-0.315 -0.37,-0.477 l 0,0 c 0.021,-0.035 0.05,-0.078 0.072,-0.11 l 0,0 c 0.209,0.041 0.403,0.227 0.702,0.513 l 0,0 c 0.288,-0.381 0.856,-0.42 0.859,-0.42 l 0,0 c 0.289,-0.521 0.289,-0.521 0.618,-0.509 l 0,0 c 0.143,-0.221 0.13,-0.261 0.083,-0.415 l 0,0 c 0.085,-0.055 0.141,-0.2 0.16,-0.297 l 0,0 0.11,-0.115 c -0.173,-0.588 0.34,-1.049 0.285,-1.608 l 0,0 c 0.055,-0.057 0.146,-0.123 0.226,-0.159 l 0,0 c 2.084,-0.022 4.515,-0.022 7.202,-0.022 l 0,0 c -0.125,0.235 -0.125,0.235 -0.091,0.461 l 0,0 c 0.194,-0.326 0.194,-0.326 0.226,-0.368 l 0,0 c 0.155,-0.086 0.287,-0.093 0.413,-0.093 l 0,0 c -0.125,0 -0.251,0 -0.376,0 l 0,0 c -0.029,-0.021 -0.075,-0.046 -0.105,-0.063 l 0,0 c -2.754,0.063 -5.185,0.063 -7.218,0.063 l 0,0 c 0.118,-0.063 0.436,-0.233 0.782,-0.737 l 0,0 c -0.059,-0.185 -0.097,-0.322 -0.315,-0.322 l 0,0 c -0.031,0.064 -0.08,0.141 -0.113,0.202 l 0,0 c -0.043,0 -0.093,0 -0.131,0.011 l 0,0 c -2.491,-3.203 2.922,-5.273 1.722,-6.694 l 0,0 c 0.227,-0.273 0.662,-0.17 0.852,-0.499 l 0,0 c -0.022,-0.073 -0.059,-0.175 -0.093,-0.239 l 0,0 c 0.093,-0.273 0.345,-0.38 0.853,-0.612 l 0,0 c -1.36,1.784 -1.588,2.524 -1.616,2.65 l 0,0 c 0.036,0.016 0.092,0.04 0.133,0.055 l 0,0 c 0.114,-0.051 0.278,-0.12 0.409,-0.308 l 0,0 1.18,-1.607 c 1.082,-1.248 1.082,-1.248 0.922,-1.579 l 0,0 c 1.574,-1.888 5.603,-0.677 6.837,-2.646 l 0,0 c -0.088,-0.077 -0.214,-0.106 -0.29,-0.206 l 0,0 c 0.345,-0.432 0.693,-0.347 0.892,-0.299 l 0,0 c -0.088,0.206 -0.279,0.369 -0.32,0.601 l 0,0 c 0.356,0.899 0.041,1.296 -0.931,1.181 l 0,0 -0.724,0 c -0.025,0.508 0.484,0.84 0.454,1.349 l 0,0 c 0.063,0.058 0.138,0.133 0.198,0.189 l 0,0 c -0.278,0.145 -1.155,0.063 -1.168,0.063 l 0,0 c -1.05,-1.286 -1.89,-1.103 -2.519,0.537 l 0,0 0.192,1.448 c 0.654,1.31 4.321,0.852 5.053,0.214 l 0,0 c -0.052,-0.033 -0.106,-0.105 -0.127,-0.166 l 0,0 c 0.044,-0.085 0.099,-0.161 0.161,-0.231 l 0,0 c 0.144,0.351 0.424,0.803 0.746,1.256 l 0,0 c 0.495,0.695 1.087,1.391 1.43,1.719 l 0,0 c -0.164,0.208 -0.39,0.375 -0.472,0.643 l 0,0 c 0.101,0.128 0.101,0.128 0.328,0.312 l 0,0 c -0.005,-0.077 -0.013,-0.18 -0.009,-0.255 l 0,0 c 0.123,-0.057 0.202,-0.09 0.382,0.031 l 0,0 c -0.042,0.071 -0.089,0.166 -0.13,0.235 l 0,0 c 0.466,-0.207 0.52,0.186 0.562,0.5 l 0,0 c 0.151,0.055 0.176,0.076 0.198,0.236 l 0,0 c 0.273,-0.073 0.646,-0.167 0.936,0.016 l 0,0 c -0.491,0.59 0.815,0.718 1.18,1.118 l 0,0 c 0.323,0.014 0.643,0.112 0.966,0.062 l 0,0 c -0.533,0.01 -0.794,-0.344 -0.814,-0.389 l 0,0 c 0.685,0.053 1.323,0.245 1.918,0.561 l 0,0 c -0.008,0.03 -0.017,0.076 -0.026,0.105 l 0,0 c -0.121,0.061 -0.133,0.069 -0.174,0.261 l 0,0 c -0.177,-0.013 -0.229,-0.039 -0.395,-0.387 l 0,0 c -0.134,-0.01 -0.315,-0.023 -0.456,-0.032 l 0,0 -0.271,0.132 -0.328,0.343 c 0.03,0.049 0.066,0.125 0.094,0.183 l 0,0 c -0.135,0.056 -0.135,0.056 -0.313,0.138 l 0,0 c 0.249,0.036 0.249,0.036 0.383,0.137 l 0,0 c -0.01,0.083 -0.032,0.148 -0.066,0.197 l 0,0 c 0.496,0.172 0.994,0.339 1.493,0.502 l 0,0 c -0.551,0.01 -1.103,0.01 -1.655,0.014 l 0,0 c 0.563,0 1.125,0 1.688,0.01 l 0,0 c 0.9,0.613 0.9,0.613 0.896,0.731 l 0,0 c -0.021,0.176 -0.101,0.241 -0.214,0.34 l 0,0 c -0.322,-0.062 -0.331,-0.044 -0.436,0.365 l 0,0 c -0.74,0.625 -1.48,1.241 -2.218,1.86 l 0,0 -0.135,0 c -1.288,-0.768 -2.537,-0.521 -3.75,0.725 l 0,0 c -0.012,-0.447 -0.012,-0.447 0.247,-0.817 l 0,0 c -0.096,-0.122 -0.226,-0.216 -0.327,-0.344 l 0,0 c 0.898,-0.719 0.802,-1.196 -0.281,-1.449 l 0,0 c 0.323,-1.411 0.005,-1.638 -0.961,-0.674 l 0,0 c 0.016,0.412 0.016,0.418 0,0.713 l 0,0 c -0.219,0.154 -2.254,0.782 -2.368,0.801 l 0,0 -0.009,0 c -0.206,-0.013 -0.407,-0.027 -0.61,-0.042 l 0,0 c -0.004,0.102 0.009,0.246 0.022,0.344 l 0,0 c -0.172,0.244 -0.524,0.153 -0.715,0.378 l 0,0 c 0.127,0.614 0.127,0.614 1.378,1.375 l 0,0 c -0.021,0.036 -0.042,0.088 -0.054,0.123 l 0,0 c 0.075,0.056 0.189,0.126 0.276,0.17 l 0,0 c 0.447,0.15 0.798,0.231 1.147,0.774 l 0,0 c -0.051,0.046 -0.117,0.107 -0.159,0.154 l 0,0 c 0.34,-0.083 0.981,-0.232 1.457,0.272 l 0,0 c -0.164,0.261 -0.164,0.261 -0.211,0.376 l 0,0 c 0.08,0.036 0.191,0.084 0.268,0.124 l 0,0 c -0.002,0 -0.75,0.564 -1.069,0.291 l 0,0 c 0.147,-0.291 -0.337,-0.8 -0.55,-0.853 l 0,0 c -0.152,0.127 -0.156,0.127 -0.227,0.368 l 0,0 c 0.017,0.034 0.054,0.072 0.075,0.106 l 0,0 c -0.046,0.068 -0.126,0.162 -0.198,0.214 l 0,0 c -0.175,-0.035 -0.204,-0.044 -0.284,-0.25 l 0,0 c -0.24,0.07 -0.307,0.346 -0.537,0.433 l 0,0 c 0.066,0.058 0.142,0.144 0.196,0.211 l 0,0 c -0.029,0.058 -0.029,0.058 -0.46,0.542 l 0,0 c 0.082,0.139 0.104,0.173 0.237,0.318 l 0,0 c 0.358,-0.015 0.358,-0.015 0.764,0.355 l 0,0 c -0.171,0.06 -0.247,0.094 -0.764,0.109 l 0,0 c -0.174,-0.019 -0.614,-0.049 -0.415,-0.715 m -6.298,-1.737 c 0.103,0.016 0.147,-0.01 0.074,-0.114 l 0,0 c 0.05,-0.084 0.108,-0.193 0.162,-0.302 l 0,0 c 0.193,-0.39 0.333,-0.781 -0.153,-0.038 l 0,0 c -0.05,-0.014 -0.117,-0.04 -0.168,-0.053 l 0,0 c -0.026,-0.124 -0.194,-0.223 -0.357,-0.221 l 0,0 c 0.033,0.093 0.139,0.115 0.186,0.187 l 0,0 c 0,0 0,0 -0.006,0.01 l 0,0 c -0.201,-0.086 -0.415,-0.13 -0.638,-0.139 l 0,0 c 0.165,0.178 0.367,0.272 0.601,0.284 l 0,0 c -0.11,0.251 -0.441,0.051 -0.638,0.051 l 0,0 c -0.004,0 -0.017,0 -0.021,0.01 l 0,0 c 0.2,0.054 0.662,0.264 0.908,0.32 l 0,0 c -0.013,0.073 0.009,0.065 0.05,0.01 m 1.988,-1.533 c -0.304,-0.12 -1.193,-0.482 -1.164,-0.487 l 0,0 c -0.193,0.021 -0.294,-0.041 -0.383,-0.104 l 0,0 c -0.138,-0.097 -0.249,-0.194 -0.634,0.031 l 0,0 c 0.243,0.057 0.475,0.136 0.695,0.238 l 0,0 c -0.154,0.279 -0.154,0.279 -0.146,0.292 l 0,0 c 0.189,-0.063 0.382,-0.134 0.575,-0.216 l 0,0 c 0.302,0.289 0.655,0.371 1.057,0.246 m 0.252,-1.239 c -0.372,-0.131 -0.872,-0.289 -1.245,-0.399 l 0,0 c -0.478,0.443 1.188,0.428 1.245,0.399 m 1.741,-1.828 c 0.079,0.064 0.146,0.064 0.213,0.064 l 0,0 c 0.497,-0.719 0.525,-0.782 0.445,-1.106 l 0,0 c 1.411,-0.02 2.822,-0.035 4.234,-0.045 l 0,0 c -1.448,-10e-4 -2.896,0 -4.342,0 l 0,0 c -0.055,0.324 -0.055,0.324 -0.178,0.497 l 0,0 c -0.038,-0.011 -0.096,-0.019 -0.134,-0.036 l 0,0 c -0.335,0.384 -0.335,0.384 -0.238,0.63 m 5.95,-3.007 c -0.046,-0.192 -0.223,-0.171 -0.521,0.069 l 0,0 -0.167,-0.488 c 0.028,-0.162 -0.056,-0.222 -0.24,-0.186 l 0,0 c -0.008,0.092 -0.022,0.205 -0.034,0.29 l 0,0 c -0.117,-0.025 -0.218,-0.112 -0.345,-0.099 l 0,0 c -0.016,0.016 -0.03,0.042 -0.033,0.138 l 0,0 c 0.227,0.317 0.127,0.506 -0.312,0.575 l 0,0 c -2.431,-1.564 -0.339,0.052 0.006,0.101 l 0,0 0.145,0.049 c -0.712,0.194 -1.645,-0.028 -2.32,0.235 l 0,0 c -0.013,0.01 -0.029,0.016 -0.043,0.02 l 0,0 c 0.496,0.294 0.496,0.294 0.576,0.29 l 0,0 c 0.714,0.067 2.754,-0.12 3.288,-0.994 m 1.05,-0.207 c 0.516,-0.468 -0.986,-0.319 -0.967,-0.317 l 0,0 c -0.034,-0.01 -0.081,-0.029 -0.117,-0.042 l 0,0 c 0.042,0.197 0.188,0.226 0.474,0.303 l 0,0 c 0.19,0.058 0.374,0.042 0.56,-0.055 l 0,0 c 0.045,0 0.088,0.031 0.05,0.111 m -2.307,-0.821 c 0.072,0.2 1.433,0.335 1.592,0.353 l 0,0 c -0.003,0 -0.003,0 -0.009,-0.01 l 0,0 c -0.342,-0.305 -0.69,-0.458 -1.047,-0.458 l 0,0 c -0.176,0 -0.355,0.038 -0.536,0.113 m -2.917,10.978 c -0.064,-0.01 -0.127,-0.01 -0.194,-0.01 l 0,0 c -0.328,0.168 -0.919,-0.22 -0.281,-0.783 l 0,0 0.047,-0.082 0.138,0 c 0.008,0 0.029,0 0.092,0.082 l 0,0 c 0.035,0.01 0.085,0.01 0.126,0.012 l 0,0 c 0.251,0.053 0.273,0.119 0.286,0.154 l 0,0 0.051,0.186 c -0.019,0.098 -0.171,0.133 -0.277,0.133 l 0,0 c 0.129,0.083 0.403,0.326 0.142,0.354 l 0,0 c -0.047,0 -0.089,-0.018 -0.13,-0.051 m 2.714,0.012 c 0.021,0 0.04,0 0.057,0.01 l 0,0 c -0.01,0.01 -0.02,0.013 -0.028,0.013 l 0,0 c -0.011,0 -0.021,-0.01 -0.029,-0.019 m -1.076,-0.864 c 0.017,-0.015 0.042,-0.022 0.053,-0.028 l 0,0 c 0.077,-0.011 0.16,-0.011 0.492,-0.08 l 0,0 c -0.344,-0.016 -0.344,-0.016 -0.387,-0.04 l 0,0 c 0.072,-0.381 1.977,-0.506 2.554,-0.171 l 0,0 c 0.23,-0.076 0.575,-0.255 0.755,-0.418 l 0,0 c -0.029,-0.041 -0.075,-0.064 -0.1,-0.106 l 0,0 c 0.08,-0.125 0.238,-0.078 0.357,-0.02 l 0,0 c 1.276,-0.482 0.331,-0.473 0.378,-1.19 l 0,0 c -2.734,-1.278 2.188,-1.204 2.222,-1.182 l 0,0 c -0.148,0.294 -0.487,0.326 -0.706,0.51 l 0,0 c 0.009,0.016 0.013,0.024 0.02,0.033 l 0,0 c 0.345,-0.094 0.614,-0.441 1.03,-0.289 l 0,0 c -0.24,0.488 -0.593,0.855 -1.079,1.083 l 0,0 c 0.099,0.374 0.792,-0.022 0.889,-0.121 l 0,0 c 0.146,-0.16 0.256,-0.208 0.286,-0.195 l 0,0 0.369,0.316 c 0.072,0.082 0.094,0.238 0.094,0.243 l 0,0 c -0.059,0.408 -1.609,0.469 -1.928,0.805 l 0,0 c 0.024,0.041 0.024,0.041 0.298,0.113 l 0,0 c -0.395,0.732 -4.238,1.84 -4.497,1.226 l 0,0 c 0.03,-0.053 0.03,-0.053 0.146,-0.104 l 0,0 c 0,-0.01 0,-0.01 -0.188,-0.118 l 0,0 c 0.008,-0.033 0.008,-0.033 0.141,-0.147 l 0,0 c -0.107,-0.188 -0.167,0.08 -0.174,0.35 l 0,0 c -0.006,0.17 0.011,0.339 0.051,0.394 l 0,0 c -0.355,-0.04 -1.217,-0.219 -1.076,-0.864 m -3.403,0.717 0.101,-0.126 c 0.381,-0.321 0.233,-0.161 0.066,0 l 0,0 c -0.096,0.092 -0.199,0.184 -0.21,0.184 l 0,0 c -0.004,0 0.007,-0.017 0.043,-0.056 m 17.817,-1.121 0.005,0 -0.005,0 0,0 z m -16.339,-0.128 c -0.125,-0.152 -0.28,-0.252 -0.469,-0.296 l 0,0 c 0.137,0.01 0.264,-0.022 0.383,-0.088 l 0,0 c 0.149,-0.064 0.368,-0.055 0.511,0.013 l 0,0 c 0.008,0.011 0.014,0.105 -0.42,0.374 l 0,0 c 0,0 0,0 -0.005,0 m 5.06,-0.83 c 0.017,-0.071 0.056,-0.105 0.119,-0.094 l 0,0 c 0.163,0 0.318,0.051 0.462,0.151 l 0,0 c 0.02,0.157 -0.063,0.219 -0.172,0.219 l 0,0 c -0.155,0 -0.364,-0.124 -0.409,-0.276 m -10.58,-0.139 c 0.007,-0.038 0.024,-0.1 0.054,-0.19 l 0,0 c 0.03,0.033 0.053,0.062 0.07,0.086 l 0,0 c -0.028,0.047 -0.053,0.087 -0.074,0.114 l 0,0 c -0.015,0 -0.032,0 -0.05,-0.01 m 8.23,-0.582 c -0.017,-0.172 -0.072,-0.329 -0.089,-0.492 l 0,0 c -0.092,-0.024 -0.213,-0.052 -0.315,-0.08 l 0,0 c 0.046,-0.111 0.14,-0.08 0.239,-0.048 l 0,0 c 0.076,0.024 0.156,0.049 0.219,0.01 l 0,0 c 0.042,-0.414 0.63,0.187 0.769,0.235 l 0,0 c 0.201,-0.318 0.453,-0.371 0.748,-0.157 l 0,0 c -0.417,0.271 -1,0.291 -1.403,0.69 l 0,0 c -0.055,-0.045 -0.114,-0.116 -0.168,-0.154 m 0.533,-0.998 c -0.039,-0.019 0.398,-0.078 0.591,0.07 l 0,0 0,0.053 c -0.043,0.01 -0.086,0.01 -0.129,0.01 l 0,0 c -0.16,0 -0.316,-0.043 -0.462,-0.132 m 1.028,-0.176 c 0.026,-0.028 0.112,-0.144 0.176,-0.15 l 0,0 c 0.159,-0.015 0.208,0.055 0.203,0.125 l 0,0 c -0.005,0.066 -0.058,0.132 -0.115,0.129 l 0,0 c -0.02,0 -0.039,0.01 -0.057,0.01 l 0,0 c -0.089,0 -0.157,-0.039 -0.207,-0.109 m -16.498,-1.336 c -0.033,-0.028 -0.541,-0.399 -0.437,-0.588 l 0,0 c 0.134,0.126 0.272,0.258 0.412,0.394 l 0,0 c -0.014,0.019 -0.026,0.043 -0.035,0.07 l 0,0 0.177,0.083 -0.033,0.082 -0.029,0.056 -0.055,-0.097 z m 2.335,-0.057 c 0,-0.039 0.099,-0.592 0.125,-0.571 l 0,0 c 0.063,0.075 0.118,0.269 0.109,0.357 l 0,0 -0.029,0.167 c -0.009,0.032 -0.08,0.051 -0.202,0.051 l 0,0 c 0,0 0,0 -0.003,0 m 30.528,-0.44 c 0.004,-0.01 0.009,-0.017 0.009,-0.026 l 0,0 0.097,-0.082 c 0.197,-0.195 0.197,-0.195 0.205,-0.191 l 0,0 c 0,0.18 -0.083,0.305 -0.252,0.373 l 0,0 c -0.008,-0.01 -0.033,-0.016 -0.059,-0.074 m -30.407,-0.931 0.004,-0.01 c 0.004,-0.831 0.454,0.547 0.101,0.916 l 0,0 c 0.083,-0.261 -0.214,-0.753 -0.105,-0.91 m -3.776,0.37 c -0.003,0 0.11,-0.172 0.11,0 l 0,0 -0.11,0 z m -0.44,-0.306 c 0.072,0.06 0.126,0.135 0.155,0.225 l 0,0 c -0.021,-0.031 -0.151,-0.207 -0.155,-0.225 m -0.092,-0.098 c 0.063,0.053 0.096,0.116 0.109,0.191 l 0,0 c -0.041,-0.068 -0.106,-0.175 -0.109,-0.191 m -0.101,-0.047 c 0,0 -0.024,-0.066 -0.024,-0.072 l 0,0 0.002,0 c 0.009,0.019 0.039,0.072 0.039,0.088 l 0,0 c -0.005,0 -0.017,-0.016 -0.017,-0.016 m 0.025,-0.028 c -0.063,-0.12 0.039,0.039 0.025,0.039 l 0,0 c -0.009,0 -0.009,0 -0.025,-0.039 m -0.147,-0.161 c 0.012,-0.01 0.026,-0.02 0.029,-0.017 l 0,0 c 0,0.01 0,0.01 0.005,0.054 l 0,0 c -0.008,-0.013 -0.022,-0.029 -0.034,-0.037 m -0.088,-0.118 c 0.033,0.031 0.055,0.068 0.055,0.113 l 0,0 c -0.022,-0.038 -0.043,-0.076 -0.055,-0.113 m 26.027,-0.454 c -0.05,-0.055 -0.207,-0.214 -0.256,-0.319 l 0,0 c -0.432,-1.011 -0.411,-0.99 0.208,-0.969 l 0,0 c 0.189,0.01 0.433,0.013 0.737,-0.01 l 0,0 c 0.066,0.116 0.364,0.154 0.327,0.367 l 0,0 c -0.016,0.01 -0.06,0 -0.107,0 l 0,0 c -0.107,-0.014 -0.223,-0.026 -0.002,0.139 l 0,0 0,0.014 c -0.31,0.319 -1.196,-0.014 -0.823,0.462 l 0,0 c 0.101,0.118 0.104,0.235 0.025,0.36 l 0,0 c -0.029,-0.016 -0.075,-0.032 -0.109,-0.041 m -20.723,-0.275 c -0.016,-0.016 -0.022,-0.033 -0.033,-0.044 l 0,0 c -0.114,-0.26 0.343,-0.435 0.465,-0.596 l 0,0 c 0.427,-0.561 0.496,0.645 -0.446,0.645 l 0,0 c 0,0 0.008,0 0.014,0 m 21.768,-0.98 c -0.177,-0.059 -0.243,-0.193 -0.189,-0.389 l 0,0 c 0.399,-0.21 0.517,0.334 0.194,0.389 l 0,0 -0.005,0 z m -6.884,-3.734 c 0.046,-0.058 0.087,-0.119 0.119,-0.187 l 0,0 c 0.158,0.268 0.193,0.382 0.143,0.382 l 0,0 c -0.04,0 -0.133,-0.072 -0.262,-0.195 m -1.632,-3.552 c -0.142,0.221 -0.368,0.377 -0.544,0.577 l 0,0 c -0.21,-0.513 -0.128,-0.81 0.544,-0.577 m -0.928,-0.605 c -0.495,-0.137 -0.57,-0.208 -0.638,-0.269 l 0,0 c 0.021,-0.19 0.314,-0.101 0.957,0.112 l 0,0 c 0.417,-0.105 0.826,-0.338 1.236,-0.436 l 0,0 0.003,0 c 0.005,0 0.017,0.014 0.021,0.017 l 0,0 c -0.063,0.274 -0.218,0.424 -0.462,0.45 l 0,0 c -0.21,0.03 -0.667,0.141 -0.964,0.141 l 0,0 c -0.059,0 -0.111,-0.01 -0.153,-0.015 m 3.015,-0.208 c 0.11,-0.07 0.161,-0.163 0.244,0 l 0,0 -0.147,0.063 -0.097,-0.063 z m 0.774,-0.262 0.26,-0.04 c 0,0.092 -0.025,0.092 -0.039,0.092 l 0,0 c -0.017,-0.01 -0.058,-0.01 -0.221,-0.052 m -2.185,-0.15 c 0,-0.093 0.093,-0.155 0.55,-0.188 l 0,0 c -0.227,-0.102 -0.245,-0.14 -0.246,-0.162 l 0,0 c 0.037,0.037 1.021,0 0.859,-0.012 l 0,0 c 0.707,0.063 -0.986,0.54 -0.99,0.54 l 0,0 c -0.055,-0.049 -0.123,-0.126 -0.173,-0.178 m 1.801,0.041 c -0.008,-0.041 0.055,-0.12 0.089,-0.104 l 0,0 c 0.025,0.034 0.055,0.066 0.068,0.104 l 0,0 -0.157,0 z m 0.757,-0.353 c -0.34,-0.132 -0.723,-0.151 -1,-0.403 l 0,0 c 0.118,0.023 0.268,0.063 0.374,0.088 l 0,0 c 0.27,-0.153 0.27,-0.158 0.294,-0.202 l 0,0 c 0.076,-0.154 0.92,0.011 1.012,0.089 l 0,0 c -0.092,0.071 -0.134,0.165 -0.116,0.296 l 0,0 c 0,0 -0.415,0.133 -0.546,0.133 l 0,0 c -0.007,0 -0.013,0 -0.018,0 m -2.254,-0.042 c 0,10e-4 0,0 0,0 l 0,0 c -0.002,-10e-4 -0.002,0 0,0 m 3.551,-0.45 c 0.019,0 0.066,-0.016 0.12,-0.029 l 0,0 c 0.136,-0.032 0.318,-0.066 0.208,0.058 l 0,0 c -0.106,0 -0.222,-0.01 -0.328,-0.029 m -0.008,-10e-4 c 0.003,0 0.005,10e-4 0.008,10e-4 l 0,0 c -0.003,0 -0.006,0 -0.007,0 l 0,0 c -0.003,0 -0.003,0 -10e-4,0 m -3.712,-0.015 c 0.002,0 0.003,0 0.004,0 l 0,0 c 0,0 0,0 0,0 l 0,0 -0.004,0 z m 0.664,-0.101 c -0.034,0.036 -0.1,0.096 -0.66,0.101 l 0,0 c 0.026,-0.031 0.571,-0.638 0.66,-0.101 m -0.147,-2.742 c -0.12,0.023 -0.372,0.088 -0.669,0.152 l 0,0 c 0.089,-0.277 0.019,-0.892 -0.091,-1.506 l 0,0 c -0.118,-0.662 -0.283,-1.324 -0.35,-1.564 l 0,0 c 12.072,-0.024 12.075,-0.036 -0.006,-0.024 l 0,0 c -0.025,-0.089 -0.031,-0.1 -0.008,0 l 0,0 c -0.002,0 -0.003,0 -0.006,0 l 0,0 c -0.067,-0.217 -0.584,-0.359 -0.344,-0.561 l 0,0 c 0.007,-0.062 0.007,-0.062 0.012,-0.224 l 0,0 c 2.843,-1.282 3.338,-4.563 1.65,-6.927 l 0,0 c 0.176,-0.202 0.207,-0.462 0.086,-0.77 l 0,0 c 0.01,-0.035 0.01,-0.035 -0.174,-0.626 l 0,0 c -0.029,0.038 -0.029,0.038 -0.076,0.17 l 0,0 c -0.016,0.015 -0.038,0.019 -0.049,0.025 l 0,0 c -0.106,-0.107 -0.215,-0.445 -0.215,-0.449 l 0,0 c 0.118,-0.012 0.118,-0.012 0.155,-0.031 l 0,0 c -0.34,-0.185 -0.424,-0.473 -0.26,-0.879 l 0,0 c 0.058,-0.064 0.116,-0.114 0.174,-0.152 l 0,0 c -0.034,0 -0.072,0 -0.116,-10e-4 l 0,0 c 0.262,-0.181 0.543,-0.268 0.845,-0.251 l 0,0 c 0.121,-0.016 0.121,-0.016 0.196,0.025 l 0,0 c -0.086,0.023 -0.163,0.072 -0.212,0.148 l 0,0 c -0.031,0.065 -0.07,0.12 -0.125,0.167 l 0,0 c 0.02,0.02 0.041,0.041 0.061,0.064 l 0,0 c 0.199,0.293 0.587,0.454 0.782,0.767 l 0,0 c -0.009,0.013 -0.017,0.035 -0.017,0.055 l 0,0 c -0.374,0.166 -0.088,0.359 -0.085,0.359 l 0,0 c 0.025,0.01 0.035,0.01 0.046,0.01 l 0,0 c 0.177,0.01 0.177,0.01 0.567,0.408 l 0,0 c 0.122,-0.044 0.218,0 0.257,0.031 l 0,0 c -0.067,0.114 -0.219,0.023 -0.294,0.122 l 0,0 c 0.02,0.074 0.02,0.074 0.053,0.178 l 0,0 c 0.417,-0.165 0.657,-0.029 0.71,0.405 l 0,0 c 0.719,-0.036 0.824,0.057 1.266,0.45 l 0,0 c -0.14,0.398 -0.119,0.489 -0.119,0.489 l 0,0 c 0.497,-0.117 2.057,-0.048 2.057,0.903 l 0,0 c 0.098,0.082 0.228,0.107 0.321,0.21 l 0,0 c 0.755,0.531 2.003,1.184 2.671,1.826 l 0,0 0.595,0.689 c 0.201,0.326 0.298,0.697 0.471,1.029 l 0,0 c 0.807,-0.109 1.7,1.387 0.948,1.946 l 0,0 c -0.508,0.378 -1.716,1.178 -2.414,0.979 l 0,0 c -0.163,0.108 -0.348,0.166 -0.555,0.166 l 0,0 c 0.022,0.067 0.022,0.067 0.245,0.38 l 0,0 c -0.19,0.266 -0.14,0.585 -0.206,0.877 l 0,0 c -0.702,0.416 -1.482,0.055 -2.037,0.596 l 0,0 0,0.066 c -0.013,0.019 -0.03,0.033 -0.039,0.039 l 0,0 c -0.113,-0.01 -0.113,-0.01 -0.16,0.01 l 0,0 c -0.033,0.086 -0.033,0.086 -0.049,0.195 l 0,0 c -0.335,0.128 -0.335,0.128 -0.382,0.128 l 0,0 c -0.168,0.37 -0.403,0.307 -0.642,0.595 l 0,0 c -0.148,-0.082 -0.148,-0.082 -0.391,-0.108 l 0,0 c -0.235,-0.052 -0.281,-0.052 -0.39,-0.052 l 0,0 -0.845,0.065 c -0.004,0 -0.482,0.324 -0.486,0.33 l 0,0 c -0.505,0.015 -0.685,-0.17 -0.56,-0.553 l 0,0 c -0.05,-0.031 -0.105,-0.052 -0.222,0.03 l 0,0 c 0.034,0.2 0.034,0.2 -0.046,0.243 l 0,0 c -0.056,0.192 0.185,0.255 0.185,0.425 l 0,0 c -0.008,0 -0.022,0 -0.034,0 l 0,0 c -0.793,-0.056 -1.414,-0.361 -1.679,-1.069 m 1.742,-5.85 c 0.08,-0.011 0.466,-0.34 0.47,-0.34 l 0,0 c -0.012,-0.01 -0.071,-0.017 -0.117,-0.022 l 0,0 c -0.214,0.043 -0.327,0.165 -0.353,0.362 m -2.758,6.07 c 0.119,-0.021 0.237,-0.045 0.347,-0.068 l 0,0 c -0.03,0.097 -0.081,0.153 -0.155,0.153 l 0,0 c -0.052,0 -0.115,-0.027 -0.192,-0.085 m -1.362,-0.147 c 0.249,-0.116 0.249,-0.116 0.709,-0.084 l 0,0 c 0.249,-0.264 0.275,-0.294 0.551,-0.162 l 0,0 c -0.003,0.021 -0.017,0.049 -0.017,0.063 l 0,0 c -0.045,0.023 -0.092,0.06 -0.13,0.082 l 0,0 c 0.096,0.113 0.178,0.194 0.249,0.248 l 0,0 c -0.249,0.043 -0.506,0.075 -0.73,0.075 l 0,0 c -0.3,0 -0.543,-0.057 -0.632,-0.222 m 1.254,-3.015 c 0.003,0 0.006,0 0.008,0 l 0,0 c 0.002,0.01 0.004,0.015 0.006,0.024 l 0,0 c -0.002,0 -0.005,0 -0.008,0 l 0,0 c -0.002,-0.01 -0.004,-0.017 -0.006,-0.024 m 18.748,0 c -0.232,-1.033 -2.122,-4.149 -4.149,-6.179 l 0,0 c 1.784,1.77 3.254,3.857 4.309,6.179 l 0,0 -0.16,0 z m -17.596,-8.509 c -0.05,-0.354 0.064,-0.312 0.127,-0.013 l 0,0 c -0.039,0.01 -0.088,0.013 -0.127,0.021 l 0,0 0,-0.01 z"
               id="path3052"
               style="fill:url(#linearGradient3044);stroke:none" />
          </g>
        </g>
      </g>
    </g>
    <g
       transform="matrix(0.33052388,0,0,-0.33618389,327.725,980.57851)"
       id="g3054">
      <g
         clip-path="url(#clipPath3058)"
         id="g3056">
        <g
           id="g3062">
          <g
             id="g3064">
            <path
               d="m 88.385,1283.901 c 0.534,-0.617 1.319,-1.729 1.319,-1.997 l 0,0 c 0,-0.394 1.021,-1.778 1.03,-1.789 l 0,0 c 0.027,0.019 0.027,0.019 -0.073,0.471 l 0,0 c 0.235,-0.448 0.504,-0.88 0.782,-1.295 l 0,0 c -0.169,0.433 -0.375,0.847 -0.61,1.246 l 0,0 c -0.038,0.061 -0.074,0.114 -0.117,0.173 l 0,0 c 0.018,-0.017 0.034,-0.039 0.043,-0.051 l 0,0 c -0.078,0.133 -0.161,0.271 -0.244,0.409 l 0,0 -0.008,0 c -0.63,1.015 -1.354,1.974 -2.151,2.871 l 0,0 0.029,-0.038 z"
               id="path3074"
               style="fill:url(#linearGradient3066);stroke:none" />
          </g>
        </g>
      </g>
    </g>
    <g
       transform="matrix(0.33052388,0,0,-0.33618389,327.725,980.57851)"
       id="g3076">
      <g
         clip-path="url(#clipPath3080)"
         id="g3078">
        <g
           id="g3084">
          <g
             id="g3086">
            <path
               d="m 91.916,1272.815 c 0.038,0.033 0.051,0.05 0.08,0.21 l 0,0 c 0.097,0.013 0.223,0.029 0.315,0.047 l 0,0 c 0.114,0.29 0.114,0.29 0.143,0.568 l 0,0 c -0.021,0.027 -0.055,1.516 -0.074,1.619 l 0,0 c 0.028,0.01 0.028,0.01 0.276,-0.218 l 0,0 c 0.047,0.153 -0.05,0.31 0.047,0.449 l 0,0 c 0,0 0.307,-0.357 0.63,-1.871 l 0,0 c -0.006,0.195 -0.077,0.38 -0.103,0.573 l 0,0 c -0.003,0.048 -0.011,0.089 -0.024,0.137 l 0,0 c -0.483,1.547 -0.483,1.547 -0.478,1.621 l 0,0 0.025,0 c 0.034,-0.051 0.065,-0.103 0.093,-0.154 l 0,0 c -0.317,1.109 -0.721,2.182 -1.215,3.221 l 0,0 c 0.105,-0.3 0.105,-0.3 0.105,-0.309 l 0,0 c -0.055,0.01 -0.049,0.07 -0.08,0.091 l 0,0 c -0.016,-0.012 -0.016,-0.021 -0.025,-0.038 l 0,0 c -0.259,0.44 -0.486,0.886 -0.701,1.346 l 0,0 c 0,-2.018 0.066,-6.467 0.986,-7.292 m 1.135,2.209 c 0,0.268 -0.07,0.524 -0.205,0.772 l 0,0 c 0.073,-0.256 0.141,-0.513 0.205,-0.772"
               id="path3096"
               style="fill:url(#linearGradient3088);stroke:none" />
          </g>
        </g>
      </g>
    </g>
    <g
       transform="matrix(0.33052388,0,0,-0.33618389,327.725,980.57851)"
       id="g3098">
      <g
         clip-path="url(#clipPath3102)"
         id="g3100">
        <g
           id="g3106">
          <g
             id="g3108">
            <path
               d="m 93.286,1273.556 c -0.005,-0.018 0.004,-0.049 -0.005,-0.075 l 0,0 c -0.004,0 -0.004,0 -0.019,0.014 l 0,0 c 0.065,-0.319 0.065,-0.319 0.074,-0.336 l 0,0 c 0.021,0 0.042,-0.033 0.042,-0.033 l 0,0 c 0.021,-0.047 0.016,-0.095 0.034,-0.141 l 0,0 c -0.005,0.174 -0.034,0.357 -0.076,0.529 l 0,0 c -0.009,-0.012 -0.003,-0.027 -0.003,-0.033 l 0,0 c -0.043,0.013 -0.008,0.061 -0.047,0.082 l 0,0 0,-0.01 z"
               id="path3118"
               style="fill:url(#linearGradient3110);stroke:none" />
          </g>
        </g>
      </g>
    </g>
    <g
       transform="matrix(0.33052388,0,0,-0.33618389,327.725,980.57851)"
       id="g3120">
      <g
         clip-path="url(#clipPath3124)"
         id="g3122">
        <g
           id="g3128">
          <g
             id="g3130">
            <path
               d="m 92.932,1274.449 c 0.228,-1.435 0.199,-0.098 0,0.014 l 0,0 0,-0.014 z"
               id="path3140"
               style="fill:url(#linearGradient3132);stroke:none" />
          </g>
        </g>
      </g>
    </g>
    <g
       transform="matrix(0.33052388,0,0,-0.33618389,327.725,980.57851)"
       id="g3142">
      <g
         clip-path="url(#clipPath3146)"
         id="g3144">
        <g
           id="g3150">
          <g
             id="g3152">
            <path
               d="m 92.82,1274.932 c 0.084,-0.349 0.088,-0.356 0.093,-0.367 l 0,0 c 0.019,0.153 -0.005,0.299 -0.072,0.434 l 0,0 c -0.008,-0.015 -0.017,-0.043 -0.021,-0.067"
               id="path3162"
               style="fill:url(#linearGradient3154);stroke:none" />
          </g>
        </g>
      </g>
    </g>
    <g
       transform="matrix(0.33052388,0,0,-0.33618389,327.725,980.57851)"
       id="g3164">
      <g
         clip-path="url(#clipPath3168)"
         id="g3166">
        <g
           id="g3172">
          <g
             id="g3174">
            <path
               d="m 90.919,1278.766 c -0.019,-0.036 -0.023,-0.047 -0.023,-0.055 l 0,0 -0.009,0 c -0.019,0.01 -0.018,-0.022 -0.009,-0.055 l 0,0 c 0.016,-0.054 0.051,-0.107 0.056,0.028 l 0,0 -0.015,0.086 0,-10e-4 z"
               id="path3184"
               style="fill:url(#linearGradient3176);stroke:none" />
          </g>
        </g>
      </g>
    </g>
    <g
       transform="matrix(0.33052388,0,0,-0.33618389,327.725,980.57851)"
       id="g3186">
      <g
         clip-path="url(#clipPath3190)"
         id="g3188">
        <g
           id="g3194">
          <g
             id="g3196">
            <path
               d="m 92.954,1272.998 c -0.05,0.047 -0.087,0.109 -0.138,0.159 l 0,0 c -0.383,-0.573 -0.383,-0.573 -0.929,-0.459 l 0,0 c -0.054,-0.343 -1.758,-4.12 -1.625,-4.681 l 0,0 c -0.448,0.227 0.999,-4.255 1.269,-4.466 l 0,0 c 0.175,0.059 0.192,0.273 0.349,0.35 l 0,0 c 0.124,-0.135 0.163,-0.327 0.285,-0.465 l 0,0 c 0.041,0.012 0.041,0.012 0.162,0.103 l 0,0 c 0,-0.739 -0.536,-1.294 -0.701,-1.969 l 0,0 c 0.089,-0.024 0.149,-0.024 0.157,-0.024 l 0,0 c 1.384,3.141 1.994,6.356 1.826,9.644 l 0,0 -0.005,0.015 c -0.016,0.199 -0.025,0.274 -0.075,0.509 l 0,0 c -0.012,0.01 -0.024,0.014 -0.033,0.019 l 0,0 c -0.273,0.457 -0.16,0.982 -0.277,1.462 l 0,0 c -0.035,-0.019 -0.072,-0.051 -0.105,-0.073 l 0,0 c -0.022,0.035 -0.051,0.086 -0.063,0.123 l 0,0 -0.005,0.013 c -0.042,-0.082 -0.045,-0.179 -0.092,-0.26"
               id="path3206"
               style="fill:url(#linearGradient3198);stroke:none" />
          </g>
        </g>
      </g>
    </g>
    <g
       transform="matrix(0.33052388,0,0,-0.33618389,327.725,980.57851)"
       id="g3208">
      <g
         clip-path="url(#clipPath3212)"
         id="g3210">
        <g
           id="g3216">
          <g
             id="g3218">
            <path
               d="m 93.109,1265.657 c 0.009,0.01 0.038,0.128 0.055,0.167 l 0,0 c 0,0 -0.004,0.033 -0.004,0.033 l 0,0 c -0.034,0.094 0.079,0.207 0.03,0.304 l 0,0 c -0.043,-0.174 -0.092,-0.489 -0.081,-0.504"
               id="path3228"
               style="fill:url(#linearGradient3220);stroke:none" />
          </g>
        </g>
      </g>
    </g>
    <g
       transform="matrix(0.33052388,0,0,-0.33618389,327.725,980.57851)"
       id="g3230">
      <g
         clip-path="url(#clipPath3234)"
         id="g3232">
        <g
           transform="translate(89.7036,1281.9043)"
           id="g3238">
          <path
             d="m 0,0 c 0,-0.394 1.021,-1.778 1.03,-1.789 0.028,0.019 0.028,0.019 -0.072,0.471 0.235,-0.448 0.503,-0.88 0.781,-1.296 -0.168,0.433 -0.375,0.848 -0.61,1.247 -0.038,0.061 -0.074,0.114 -0.116,0.173 0.017,-0.018 0.033,-0.039 0.042,-0.051 -0.077,0.133 -0.16,0.271 -0.243,0.409 l -0.009,0 C 0.173,0.179 -0.55,1.138 -1.348,2.035 l 0.03,-0.038 C -0.785,1.38 0,0.267 0,0"
             id="path3240"
             style="fill:#efaf3f;fill-opacity:1;fill-rule:nonzero;stroke:none" />
        </g>
        <g
           transform="translate(90.9297,1280.1069)"
           id="g3242">
          <path
             d="m 0,0 c 0,-2.018 0.066,-6.467 0.987,-7.292 0.037,0.034 0.051,0.05 0.079,0.21 0.098,0.013 0.224,0.03 0.316,0.046 0.113,0.291 0.113,0.291 0.142,0.569 -0.021,0.028 -0.054,1.516 -0.074,1.619 0.028,0.009 0.028,0.009 0.277,-0.218 0.046,0.153 -0.051,0.311 0.046,0.449 0,0 0.307,-0.357 0.63,-1.871 -0.005,0.196 -0.077,0.38 -0.102,0.573 -0.003,0.048 -0.011,0.089 -0.025,0.137 -0.483,1.547 -0.483,1.547 -0.478,1.621 l 0.025,0 C 2.02,-4.453 2.122,-4.759 2.122,-5.083 1.781,-3.699 1.31,-2.368 0.701,-1.09 0.806,-1.389 0.806,-1.389 0.806,-1.398 0.751,-1.392 0.757,-1.329 0.727,-1.308 0.71,-1.32 0.71,-1.329 0.701,-1.345 0.442,-0.906 0.215,-0.46 0,0"
             id="path3244"
             style="fill:#efaf3f;fill-opacity:1;fill-rule:nonzero;stroke:none" />
        </g>
      </g>
    </g>
    <g
       transform="matrix(0.33052388,0,0,-0.33618389,327.725,980.57851)"
       id="g3246">
      <g
         clip-path="url(#clipPath3250)"
         id="g3248">
        <g
           id="g3254">
          <g
             id="g3256">
            <path
               d="m 93.286,1273.556 c -0.005,-0.018 0.004,-0.049 -0.005,-0.075 l 0,0 c -0.004,0 -0.004,0 -0.019,0.014 l 0,0 c 0.065,-0.319 0.065,-0.319 0.074,-0.336 l 0,0 c 0.021,0 0.042,-0.033 0.042,-0.033 l 0,0 c 0.021,-0.047 0.016,-0.095 0.034,-0.141 l 0,0 c -0.005,0.174 -0.034,0.357 -0.076,0.529 l 0,0 c -0.009,-0.012 -0.003,-0.027 -0.003,-0.033 l 0,0 c -0.043,0.013 -0.008,0.061 -0.047,0.082 l 0,0 0,-0.01 z"
               id="path3264"
               style="fill:url(#radialGradient3258);stroke:none" />
          </g>
        </g>
      </g>
    </g>
    <g
       transform="matrix(0.33052388,0,0,-0.33618389,327.725,980.57851)"
       id="g3266">
      <g
         clip-path="url(#clipPath3270)"
         id="g3268">
        <g
           id="g3274">
          <g
             id="g3276">
            <path
               d="m 92.932,1274.449 c 0.228,-1.435 0.199,-0.098 0,0.014 l 0,0 0,-0.014 z"
               id="path3284"
               style="fill:url(#radialGradient3278);stroke:none" />
          </g>
        </g>
      </g>
    </g>
    <g
       transform="matrix(0.33052388,0,0,-0.33618389,327.725,980.57851)"
       id="g3286">
      <g
         clip-path="url(#clipPath3290)"
         id="g3288">
        <g
           id="g3294">
          <g
             id="g3296">
            <path
               d="m 92.82,1274.932 c 0.084,-0.349 0.088,-0.356 0.093,-0.367 l 0,0 c 0.019,0.153 -0.005,0.299 -0.072,0.434 l 0,0 c -0.008,-0.015 -0.017,-0.043 -0.021,-0.067"
               id="path3304"
               style="fill:url(#radialGradient3298);stroke:none" />
          </g>
        </g>
      </g>
    </g>
    <g
       transform="matrix(0.33052388,0,0,-0.33618389,327.725,980.57851)"
       id="g3306">
      <g
         clip-path="url(#clipPath3310)"
         id="g3308">
        <g
           id="g3314">
          <g
             id="g3316">
            <path
               d="m 90.919,1278.766 c -0.019,-0.036 -0.023,-0.047 -0.023,-0.055 l 0,0 -0.009,0 c -0.019,0.01 -0.018,-0.022 -0.009,-0.055 l 0,0 c 0.016,-0.054 0.051,-0.107 0.056,0.028 l 0,0 -0.015,0.086 0,-10e-4 z"
               id="path3324"
               style="fill:url(#radialGradient3318);stroke:none" />
          </g>
        </g>
      </g>
    </g>
    <g
       transform="matrix(0.33052388,0,0,-0.33618389,327.725,980.57851)"
       id="g3326">
      <g
         clip-path="url(#clipPath3330)"
         id="g3328">
        <g
           transform="translate(93.6094,1271.1895)"
           id="g3334">
          <path
             d="M 0,0 -0.005,0.016 C -0.021,0.215 -0.03,0.29 -0.08,0.525 -0.092,0.529 -0.105,0.538 -0.114,0.544 -0.387,1 -0.273,1.525 -0.39,2.006 -0.425,1.987 -0.462,1.955 -0.495,1.933 -0.517,1.968 -0.547,2.019 -0.558,2.056 L -0.563,2.068 C -0.605,1.987 -0.608,1.89 -0.655,1.809 -0.705,1.856 -0.743,1.917 -0.793,1.968 -1.177,1.395 -1.177,1.395 -1.722,1.508 c -0.054,-0.342 -1.759,-4.12 -1.626,-4.68 -0.448,0.226 1,-4.256 1.27,-4.466 0.175,0.059 0.192,0.273 0.349,0.349 0.124,-0.134 0.163,-0.326 0.284,-0.464 0.042,0.012 0.042,0.012 0.163,0.103 0,-0.74 -0.536,-1.294 -0.701,-1.97 0.088,-0.023 0.149,-0.023 0.156,-0.023 C -0.442,-6.502 0.168,-3.287 0,0"
             id="path3336"
             style="fill:#efaf3f;fill-opacity:1;fill-rule:nonzero;stroke:none" />
        </g>
        <g
           transform="translate(93.1597,1265.8569)"
           id="g3338">
          <path
             d="M 0,0 C 0,0 0.004,-0.029 0.004,-0.033 -0.012,-0.072 -0.042,-0.195 -0.05,-0.2 -0.062,-0.185 -0.012,0.13 0.03,0.304 0.08,0.207 -0.034,0.094 0,0"
             id="path3340"
             style="fill:#efaf3f;fill-opacity:1;fill-rule:nonzero;stroke:none" />
        </g>
      </g>
    </g>
  </g>
</svg>
