<?xml version="1.0" encoding="UTF-8" standalone="no"?>
<!-- Created with Inkscape (http://www.inkscape.org/) -->

<svg class="gmap"
   xmlns:dc="http://purl.org/dc/elements/1.1/"
   xmlns:cc="http://creativecommons.org/ns#"
   xmlns:rdf="http://www.w3.org/1999/02/22-rdf-syntax-ns#"
   xmlns:svg="http://www.w3.org/2000/svg"
   xmlns="http://www.w3.org/2000/svg"
   version="1.1"
   width="30"
   height="30"
   id="svg2"
   xml:space="preserve"><metadata
     id="metadata8"><rdf:RDF><cc:Work
         rdf:about=""><dc:format>image/svg+xml</dc:format><dc:type
           rdf:resource="http://purl.org/dc/dcmitype/StillImage" /><dc:title></dc:title></cc:Work></rdf:RDF></metadata><defs
     id="defs6"><clipPath
       id="clipPath16"><path
         d="m 3.109,24.997 c 0,-12.069 9.819,-21.888 21.887,-21.888 l 0,0 c 12.073,0 21.895,9.819 21.895,21.888 l 0,0 c 0,12.074 -9.822,21.894 -21.895,21.894 l 0,0 c -12.068,0 -21.887,-9.82 -21.887,-21.894"
         id="path18" /></clipPath><linearGradient
       x1="0"
       y1="0"
       x2="1"
       y2="0"
       id="linearGradient24"
       gradientUnits="userSpaceOnUse"
       gradientTransform="matrix(-1.9e-6,43.78125,43.78125,1.9e-6,25.000488,3.109375)"
       spreadMethod="pad"><stop
         id="stop26"
         style="stop-color:#c1e6f9;stop-opacity:1"
         offset="0" /><stop
         id="stop28"
         style="stop-color:#75bfea;stop-opacity:1"
         offset="1" /></linearGradient><clipPath
       id="clipPath36"><path
         d="M 0,50 50,50 50,0 0,0 0,50 z"
         id="path38" /></clipPath><clipPath
       id="clipPath48"><path
         d="m 40,38.432 c 0.534,-0.618 1.318,-1.73 1.318,-1.997 l 0,0 c 0,-0.395 1.022,-1.779 1.031,-1.789 l 0,0 c 0.028,0.018 0.028,0.018 -0.072,0.47 l 0,0 c 0.235,-0.447 0.504,-0.88 0.782,-1.295 l 0,0 c -0.17,0.432 -0.376,0.848 -0.61,1.247 l 0,0 c -0.039,0.061 -0.076,0.114 -0.117,0.172 l 0,0 c 0.017,-0.018 0.033,-0.038 0.041,-0.051 l 0,0 c -0.076,0.133 -0.159,0.271 -0.242,0.41 l 0,0 -0.01,0 c -0.629,1.015 -1.353,1.973 -2.15,2.871 l 0,0 L 40,38.432 z"
         id="path50" /></clipPath><linearGradient
       x1="0"
       y1="0"
       x2="1"
       y2="0"
       id="linearGradient56"
       gradientUnits="userSpaceOnUse"
       gradientTransform="matrix(-2e-7,4.6484375,4.6484375,2e-7,41.514648,33.820801)"
       spreadMethod="pad"><stop
         id="stop58"
         style="stop-color:#eef2c1;stop-opacity:1"
         offset="0" /><stop
         id="stop60"
         style="stop-color:#74c04f;stop-opacity:1"
         offset="0.66257697" /><stop
         id="stop62"
         style="stop-color:#74c04f;stop-opacity:1"
         offset="1" /></linearGradient><clipPath
       id="clipPath70"><path
         d="m 43.531,27.346 c 0.038,0.033 0.052,0.049 0.08,0.209 l 0,0 c 0.098,0.014 0.224,0.03 0.316,0.046 l 0,0 c 0.112,0.292 0.112,0.292 0.142,0.569 l 0,0 c -0.021,0.028 -0.055,1.517 -0.074,1.619 l 0,0 c 0.028,0.009 0.028,0.009 0.277,-0.219 l 0,0 c 0.047,0.154 -0.051,0.312 0.047,0.45 l 0,0 c 0,0 0.306,-0.356 0.628,-1.871 l 0,0 c -0.004,0.196 -0.076,0.38 -0.101,0.574 l 0,0 c -0.004,0.047 -0.012,0.089 -0.026,0.136 l 0,0 c -0.482,1.547 -0.482,1.547 -0.476,1.621 l 0,0 0.024,0 c 0.034,-0.051 0.065,-0.102 0.093,-0.153 l 0,0 c -0.317,1.109 -0.721,2.182 -1.215,3.221 l 0,0 c 0.105,-0.3 0.105,-0.3 0.105,-0.309 l 0,0 c -0.054,0.006 -0.049,0.069 -0.08,0.09 l 0,0 c -0.016,-0.012 -0.016,-0.021 -0.025,-0.037 l 0,0 c -0.259,0.439 -0.486,0.886 -0.701,1.345 l 0,0 c 0,-2.018 0.066,-6.467 0.986,-7.291 m 1.135,2.207 c 0,0.269 -0.07,0.526 -0.205,0.774 l 0,0 c 0.073,-0.256 0.141,-0.514 0.205,-0.774"
         id="path72" /></clipPath><linearGradient
       x1="0"
       y1="0"
       x2="1"
       y2="0"
       id="linearGradient78"
       gradientUnits="userSpaceOnUse"
       gradientTransform="matrix(-3e-7,7.2919922,7.2919922,3e-7,43.746094,27.345215)"
       spreadMethod="pad"><stop
         id="stop80"
         style="stop-color:#eef2c1;stop-opacity:1"
         offset="0" /><stop
         id="stop82"
         style="stop-color:#74c04f;stop-opacity:1"
         offset="0.66257697" /><stop
         id="stop84"
         style="stop-color:#74c04f;stop-opacity:1"
         offset="1" /></linearGradient><clipPath
       id="clipPath92"><path
         d="m 44.901,28.086 c -0.005,-0.018 0.004,-0.048 -0.005,-0.074 l 0,0 c -0.003,0 -0.003,0 -0.019,0.013 l 0,0 c 0.066,-0.319 0.066,-0.319 0.074,-0.336 l 0,0 c 0.022,0 0.042,-0.033 0.042,-0.033 l 0,0 c 0.021,-0.047 0.017,-0.094 0.034,-0.141 l 0,0 c -0.004,0.174 -0.034,0.357 -0.076,0.529 l 0,0 c -0.008,-0.012 -0.004,-0.026 -0.004,-0.032 l 0,0 c -0.042,0.012 -0.007,0.06 -0.046,0.082 l 0,0 0,-0.008 z"
         id="path94" /></clipPath><linearGradient
       x1="0"
       y1="0"
       x2="1"
       y2="0"
       id="linearGradient100"
       gradientUnits="userSpaceOnUse"
       gradientTransform="matrix(0,0.578125,0.578125,0,44.952148,27.515137)"
       spreadMethod="pad"><stop
         id="stop102"
         style="stop-color:#eef2c1;stop-opacity:1"
         offset="0" /><stop
         id="stop104"
         style="stop-color:#74c04f;stop-opacity:1"
         offset="0.66257697" /><stop
         id="stop106"
         style="stop-color:#74c04f;stop-opacity:1"
         offset="1" /></linearGradient><clipPath
       id="clipPath114"><path
         d="m 44.548,28.978 c 0.227,-1.434 0.198,-0.096 0,0.015 l 0,0 0,-0.015 z"
         id="path116" /></clipPath><linearGradient
       x1="0"
       y1="0"
       x2="1"
       y2="0"
       id="linearGradient122"
       gradientUnits="userSpaceOnUse"
       gradientTransform="matrix(0,0.6738281,0.6738281,0,44.62793,28.319824)"
       spreadMethod="pad"><stop
         id="stop124"
         style="stop-color:#eef2c1;stop-opacity:1"
         offset="0" /><stop
         id="stop126"
         style="stop-color:#74c04f;stop-opacity:1"
         offset="0.66257697" /><stop
         id="stop128"
         style="stop-color:#74c04f;stop-opacity:1"
         offset="1" /></linearGradient><clipPath
       id="clipPath136"><path
         d="m 44.435,29.462 c 0.084,-0.349 0.088,-0.355 0.093,-0.368 l 0,0 c 0.02,0.153 -0.005,0.3 -0.071,0.435 l 0,0 c -0.009,-0.014 -0.018,-0.042 -0.022,-0.067"
         id="path138" /></clipPath><linearGradient
       x1="0"
       y1="0"
       x2="1"
       y2="0"
       id="linearGradient144"
       gradientUnits="userSpaceOnUse"
       gradientTransform="matrix(0,0.4345703,0.4345703,0,44.484375,29.094727)"
       spreadMethod="pad"><stop
         id="stop146"
         style="stop-color:#eef2c1;stop-opacity:1"
         offset="0" /><stop
         id="stop148"
         style="stop-color:#74c04f;stop-opacity:1"
         offset="0.66257697" /><stop
         id="stop150"
         style="stop-color:#74c04f;stop-opacity:1"
         offset="1" /></linearGradient><clipPath
       id="clipPath158"><path
         d="M 42.533,33.296 C 42.516,33.26 42.512,33.249 42.512,33.242 l 0,0 -0.009,-0.003 c -0.019,0.01 -0.019,-0.023 -0.01,-0.055 l 0,0 c 0.015,-0.054 0.051,-0.107 0.057,0.028 l 0,0 -0.017,0.085 0,-10e-4 z"
         id="path160" /></clipPath><linearGradient
       x1="0"
       y1="0"
       x2="1"
       y2="0"
       id="linearGradient166"
       gradientUnits="userSpaceOnUse"
       gradientTransform="matrix(0,0.1704102,0.1704102,0,42.518555,33.126953)"
       spreadMethod="pad"><stop
         id="stop168"
         style="stop-color:#eef2c1;stop-opacity:1"
         offset="0" /><stop
         id="stop170"
         style="stop-color:#74c04f;stop-opacity:1"
         offset="0.66257697" /><stop
         id="stop172"
         style="stop-color:#74c04f;stop-opacity:1"
         offset="1" /></linearGradient><clipPath
       id="clipPath180"><path
         d="m 44.569,27.528 c -0.05,0.048 -0.087,0.109 -0.138,0.16 l 0,0 c -0.383,-0.574 -0.383,-0.574 -0.928,-0.46 l 0,0 c -0.055,-0.342 -1.759,-4.121 -1.626,-4.68 l 0,0 c -0.448,0.226 1,-4.256 1.27,-4.466 l 0,0 c 0.175,0.058 0.191,0.273 0.348,0.349 l 0,0 c 0.124,-0.134 0.163,-0.327 0.285,-0.464 l 0,0 c 0.041,0.011 0.041,0.011 0.163,0.102 l 0,0 c 0,-0.739 -0.537,-1.294 -0.701,-1.97 l 0,0 c 0.089,-0.023 0.149,-0.023 0.156,-0.023 l 0,0 c 1.385,3.142 1.994,6.356 1.827,9.643 l 0,0 -0.006,0.017 c -0.016,0.198 -0.025,0.274 -0.074,0.509 l 0,0 c -0.012,0.004 -0.026,0.013 -0.033,0.019 l 0,0 c -0.274,0.456 -0.161,0.981 -0.278,1.461 l 0,0 c -0.036,-0.019 -0.072,-0.051 -0.105,-0.073 l 0,0 c -0.022,0.036 -0.051,0.086 -0.063,0.124 l 0,0 -0.005,0.012 c -0.042,-0.082 -0.044,-0.179 -0.092,-0.26"
         id="path182" /></clipPath><linearGradient
       x1="0"
       y1="0"
       x2="1"
       y2="0"
       id="linearGradient188"
       gradientUnits="userSpaceOnUse"
       gradientTransform="matrix(-5e-7,11.711426,11.711426,5e-7,43.521484,16.076172)"
       spreadMethod="pad"><stop
         id="stop190"
         style="stop-color:#eef2c1;stop-opacity:1"
         offset="0" /><stop
         id="stop192"
         style="stop-color:#74c04f;stop-opacity:1"
         offset="0.66257697" /><stop
         id="stop194"
         style="stop-color:#74c04f;stop-opacity:1"
         offset="1" /></linearGradient><clipPath
       id="clipPath202"><path
         d="m 44.725,20.188 c 0.008,0.003 0.037,0.128 0.054,0.166 l 0,0 c 0,0.003 -0.004,0.033 -0.004,0.033 l 0,0 c -0.035,0.094 0.079,0.207 0.03,0.304 l 0,0 c -0.043,-0.174 -0.092,-0.489 -0.08,-0.503"
         id="path204" /></clipPath><linearGradient
       x1="0"
       y1="0"
       x2="1"
       y2="0"
       id="linearGradient210"
       gradientUnits="userSpaceOnUse"
       gradientTransform="matrix(0,0.5039063,0.5039063,0,44.769531,20.1875)"
       spreadMethod="pad"><stop
         id="stop212"
         style="stop-color:#eef2c1;stop-opacity:1"
         offset="0" /><stop
         id="stop214"
         style="stop-color:#74c04f;stop-opacity:1"
         offset="0.66257697" /><stop
         id="stop216"
         style="stop-color:#74c04f;stop-opacity:1"
         offset="1" /></linearGradient><clipPath
       id="clipPath224"><path
         d="M 0,50 50,50 50,0 0,0 0,50 z"
         id="path226" /></clipPath><clipPath
       id="clipPath240"><path
         d="m 44.901,28.086 c -0.005,-0.018 0.004,-0.048 -0.005,-0.074 l 0,0 c -0.003,0 -0.003,0 -0.019,0.013 l 0,0 c 0.066,-0.319 0.066,-0.319 0.074,-0.336 l 0,0 c 0.022,0 0.042,-0.033 0.042,-0.033 l 0,0 c 0.021,-0.047 0.017,-0.094 0.034,-0.141 l 0,0 c -0.004,0.174 -0.034,0.357 -0.076,0.529 l 0,0 c -0.008,-0.012 -0.004,-0.026 -0.004,-0.032 l 0,0 c -0.042,0.012 -0.007,0.06 -0.046,0.082 l 0,0 0,-0.008 z"
         id="path242" /></clipPath><radialGradient
       cx="0"
       cy="0"
       r="1"
       fx="0"
       fy="0"
       id="radialGradient248"
       gradientUnits="userSpaceOnUse"
       gradientTransform="matrix(0.2112007,0,0,-0.2112007,44.952148,27.804199)"
       spreadMethod="pad"><stop
         id="stop250"
         style="stop-color:#ffffff;stop-opacity:1"
         offset="0" /><stop
         id="stop252"
         style="stop-color:#f1b85f;stop-opacity:1"
         offset="1" /></radialGradient><clipPath
       id="clipPath260"><path
         d="m 44.548,28.978 c 0.227,-1.434 0.198,-0.096 0,0.015 l 0,0 0,-0.015 z"
         id="path262" /></clipPath><radialGradient
       cx="0"
       cy="0"
       r="1"
       fx="0"
       fy="0"
       id="radialGradient268"
       gradientUnits="userSpaceOnUse"
       gradientTransform="matrix(0.244871,0,0,-0.244871,44.62793,28.656738)"
       spreadMethod="pad"><stop
         id="stop270"
         style="stop-color:#ffffff;stop-opacity:1"
         offset="0" /><stop
         id="stop272"
         style="stop-color:#f1b85f;stop-opacity:1"
         offset="1" /></radialGradient><clipPath
       id="clipPath280"><path
         d="m 44.435,29.462 c 0.084,-0.349 0.088,-0.355 0.093,-0.368 l 0,0 c 0.02,0.153 -0.005,0.3 -0.071,0.435 l 0,0 c -0.009,-0.014 -0.018,-0.042 -0.022,-0.067"
         id="path282" /></clipPath><radialGradient
       cx="0"
       cy="0"
       r="1"
       fx="0"
       fy="0"
       id="radialGradient288"
       gradientUnits="userSpaceOnUse"
       gradientTransform="matrix(0.157784,0,0,-0.157784,44.484375,29.312012)"
       spreadMethod="pad"><stop
         id="stop290"
         style="stop-color:#ffffff;stop-opacity:1"
         offset="0" /><stop
         id="stop292"
         style="stop-color:#f1b85f;stop-opacity:1"
         offset="1" /></radialGradient><clipPath
       id="clipPath300"><path
         d="M 42.533,33.296 C 42.516,33.26 42.512,33.249 42.512,33.242 l 0,0 -0.009,-0.003 c -0.019,0.01 -0.019,-0.023 -0.01,-0.055 l 0,0 c 0.015,-0.054 0.051,-0.107 0.057,0.028 l 0,0 -0.017,0.085 0,-10e-4 z"
         id="path302" /></clipPath><radialGradient
       cx="0"
       cy="0"
       r="1"
       fx="0"
       fy="0"
       id="radialGradient308"
       gradientUnits="userSpaceOnUse"
       gradientTransform="matrix(0.0643356,0,0,-0.0643356,42.518555,33.211914)"
       spreadMethod="pad"><stop
         id="stop310"
         style="stop-color:#ffffff;stop-opacity:1"
         offset="0" /><stop
         id="stop312"
         style="stop-color:#f1b85f;stop-opacity:1"
         offset="1" /></radialGradient><clipPath
       id="clipPath320"><path
         d="M 0,50 50,50 50,0 0,0 0,50 z"
         id="path322" /></clipPath></defs><g
     transform="matrix(1.25,0,0,-1.25,0,30)"
     id="g10"><g
       transform="matrix(0.53903431,0,0,0.53903431,-1.4468577,-1.5535244)"
       id="g12"><g
         clip-path="url(#clipPath16)"
         id="g14"><g
           id="g20"><g
             id="g22"><path
               d="m 3.109,24.997 c 0,-12.069 9.819,-21.888 21.887,-21.888 l 0,0 c 12.073,0 21.895,9.819 21.895,21.888 l 0,0 c 0,12.074 -9.822,21.894 -21.895,21.894 l 0,0 c -12.068,0 -21.887,-9.82 -21.887,-21.894"
               id="path30"
               style="fill:url(#linearGradient24);stroke:none" /></g></g></g></g><g
       transform="matrix(0.53903431,0,0,0.53903431,-1.4468577,-1.5535244)"
       id="g32"><g
         clip-path="url(#clipPath36)"
         id="g34"><g
           transform="translate(26.6172,23.0938)"
           id="g40"><path
             d="M 0,0 -0.146,0.062 -0.243,0 C -0.133,-0.07 -0.084,-0.164 0,0 M 5.996,7.709 C 6.395,7.5 6.514,8.043 6.189,8.099 l -0.003,0 C 6.008,8.04 5.941,7.905 5.996,7.709 M 0.235,-0.475 c 0.025,0.034 0.055,0.065 0.068,0.103 l -0.157,0 c -0.007,-0.04 0.055,-0.119 0.089,-0.103 m 0.517,0.264 C 0.734,-0.221 0.693,-0.221 0.529,-0.263 l 0.261,-0.04 c 0,0.092 -0.024,0.092 -0.038,0.092 M -2.141,0.082 C -2.393,0.118 -2.998,0.269 -3.259,0.208 -3.754,0.07 -3.829,0 -3.897,-0.062 c 0.021,-0.19 0.314,-0.1 0.958,0.113 0.416,-0.106 0.826,-0.339 1.234,-0.436 l 0.004,0 c 0.005,0 0.018,0.013 0.021,0.018 -0.063,0.272 -0.217,0.424 -0.461,0.449 m 1.649,-0.857 c 0.707,0.063 -0.987,0.541 -0.989,0.541 -0.056,-0.049 -0.124,-0.125 -0.173,-0.178 0,-0.094 0.092,-0.154 0.549,-0.188 -0.243,-0.109 -0.247,-0.145 -0.247,-0.168 -0.038,0.045 1.029,0.01 0.86,-0.007 m 1.701,-9.491 c -0.012,-0.007 -0.07,-0.016 -0.117,-0.021 -0.214,0.043 -0.326,0.165 -0.352,0.362 0.08,-0.011 0.465,-0.341 0.469,-0.341 m 8.495,2.852 c -0.509,0.378 -1.716,1.178 -2.414,0.978 -0.163,0.11 -0.349,0.166 -0.555,0.166 0.022,0.067 0.022,0.067 0.245,0.38 -0.19,0.267 -0.14,0.585 -0.207,0.878 -0.701,0.416 -1.481,0.055 -2.036,0.596 l 0,0.066 C 4.724,-4.332 4.707,-4.316 4.699,-4.311 4.586,-4.321 4.586,-4.321 4.539,-4.307 4.506,-4.221 4.506,-4.221 4.488,-4.111 4.154,-3.982 4.154,-3.982 4.107,-3.982 3.939,-3.613 3.704,-3.676 3.465,-3.389 3.317,-3.471 3.317,-3.471 3.074,-3.496 2.84,-3.549 2.793,-3.549 2.685,-3.549 L 1.84,-3.484 c -0.005,0.005 -0.484,0.324 -0.486,0.33 -0.506,0.015 -0.686,-0.17 -0.561,-0.552 -0.05,-0.032 -0.105,-0.053 -0.222,0.03 0.034,0.199 0.034,0.199 -0.046,0.242 -0.055,0.192 0.185,0.255 0.185,0.425 -0.009,0 -0.022,0.003 -0.034,0.003 -0.793,-0.057 -1.414,-0.362 -1.68,-1.069 -0.382,0.073 -2.104,0.579 -2.377,0.073 0.248,-0.116 0.248,-0.116 0.71,-0.084 0.248,-0.264 0.274,-0.294 0.55,-0.162 -0.004,0.021 -0.017,0.049 -0.017,0.063 -0.045,0.023 -0.091,0.059 -0.13,0.081 1.454,1.709 -0.063,-3.761 0.147,-2.89 12.086,-0.024 12.086,-0.035 -0.012,-0.024 -0.067,-0.216 -0.583,-0.358 -0.345,-0.561 0.008,-0.062 0.008,-0.062 0.013,-0.223 2.843,-1.283 3.338,-4.563 1.651,-6.927 0.175,-0.202 0.206,-0.462 0.085,-0.771 0.01,-0.035 0.01,-0.035 -0.174,-0.625 -0.029,0.037 -0.029,0.037 -0.076,0.17 -0.015,0.015 -0.037,0.018 -0.049,0.025 -0.105,-0.107 -0.215,-0.445 -0.215,-0.449 0.118,-0.013 0.118,-0.013 0.155,-0.031 -0.34,-0.186 -0.424,-0.473 -0.26,-0.879 0.278,-0.309 0.555,-0.309 0.823,0 0.199,0.293 0.587,0.454 0.782,0.767 -0.009,0.012 -0.017,0.036 -0.017,0.055 -0.373,0.165 -0.088,0.36 -0.085,0.36 0.025,0.004 0.034,0.007 0.046,0.007 0.177,0.004 0.177,0.004 0.568,0.408 0.121,-0.044 0.217,0.002 0.255,0.03 -0.066,0.114 -0.217,0.023 -0.294,0.123 0.022,0.073 0.022,0.073 0.055,0.178 0.416,-0.166 0.656,-0.029 0.709,0.405 0.719,-0.036 0.824,0.057 1.266,0.45 -0.139,0.399 -0.119,0.488 -0.119,0.488 0.497,-0.117 2.058,-0.047 2.058,0.903 0.096,0.083 0.227,0.107 0.32,0.211 0.754,0.531 2.002,1.183 2.67,1.826 l 0.596,0.689 c 0.201,0.325 0.298,0.697 0.471,1.03 0.807,-0.111 1.699,1.386 0.948,1.945 m -7.512,6.197 c -0.03,0.024 0.509,-0.162 0.335,0.03 -0.107,0 -0.226,-0.01 -0.335,-0.03 m -17.343,9.655 c 0.428,-0.561 0.496,0.645 -0.446,0.645 0,0 0.009,-0.004 0.014,-0.004 C -15.6,9.062 -15.604,9.045 -15.616,9.035 -15.73,8.774 -15.273,8.6 -15.151,8.438 m 27.623,-21.635 c 1.784,1.771 3.255,3.858 4.309,6.179 l -0.16,0 C 16.389,-8.051 14.5,-11.166 12.472,-13.197 M -5.324,8.113 C -4.61,8.18 -2.57,7.993 -2.037,7.118 -2.083,6.926 -2.259,6.948 -2.558,7.187 L -2.724,6.699 C -2.696,6.538 -2.779,6.477 -2.964,6.513 -2.973,6.605 -2.986,6.719 -2.998,6.804 -3.116,6.779 -3.216,6.691 -3.343,6.704 -3.359,6.72 -3.373,6.746 -3.376,6.843 -3.149,7.159 -3.25,7.349 -3.688,7.417 -6.119,5.854 -4.027,7.47 -3.682,7.519 l 0.146,0.048 C -4.25,7.762 -5.182,7.54 -5.857,7.802 -5.871,7.81 -5.887,7.818 -5.9,7.823 c 0.496,0.294 0.496,0.294 0.576,0.29 m 3.728,-1.258 c 0.19,0.059 0.374,0.042 0.559,-0.055 0.046,0 0.089,0.032 0.051,0.112 C -0.471,6.444 -1.973,6.593 -1.953,6.594 -1.986,6.586 -2.033,6.565 -2.07,6.553 -2.028,6.75 -1.881,6.779 -1.596,6.855 M -1.709,6.436 C -2.222,5.98 -2.746,5.864 -3.292,6.09 -3.221,6.291 -1.86,6.425 -1.701,6.444 -1.705,6.44 -1.705,6.44 -1.709,6.436 m -1.755,-9.629 c 0.356,0.898 0.041,1.295 -0.932,1.179 l -0.723,0 c -0.025,0.508 0.483,0.84 0.453,1.35 0.063,0.057 0.139,0.133 0.199,0.189 -0.278,0.145 -1.155,0.063 -1.169,0.063 -1.049,-1.286 -1.889,-1.104 -2.519,0.536 l 0.194,1.449 c 0.654,1.31 4.32,0.852 5.052,0.214 -0.052,-0.034 -0.105,-0.105 -0.127,-0.166 0.168,-0.33 0.513,-0.51 0.705,-0.809 -2.44,-0.847 2.902,5.31 1.751,3.366 -0.147,0.308 -0.486,0.487 -0.592,0.83 C -1.07,5.136 -1.07,5.136 -0.844,5.32 -0.848,5.243 -0.856,5.14 -0.852,5.064 -0.729,5.008 -0.65,4.975 -0.471,5.096 -0.512,5.167 -0.559,5.262 -0.6,5.331 -0.133,5.124 -0.08,5.517 -0.039,5.831 0.113,5.885 0.139,5.907 0.16,6.066 0.434,5.994 0.807,5.9 1.096,6.082 0.605,6.672 1.911,6.8 2.275,7.201 2.6,7.214 2.92,7.312 3.242,7.263 2.709,7.271 2.447,6.918 2.428,6.874 3.113,6.926 3.751,7.118 4.346,7.435 4.338,7.464 4.328,7.51 4.32,7.54 4.199,7.601 4.187,7.608 4.146,7.8 3.969,7.788 3.918,7.762 3.751,7.414 3.616,7.409 3.436,7.391 3.295,7.382 L 3.024,7.513 2.695,7.856 C 2.726,7.905 2.762,7.981 2.789,8.04 2.654,8.096 2.654,8.096 2.478,8.178 2.726,8.214 2.726,8.214 2.859,8.314 2.768,9.127 1.423,8.188 0.925,7.832 2.036,8.256 3.157,8.645 4.287,9.013 0.248,9.056 -3.804,9.035 -7.845,9.035 -7.874,9.013 -7.92,8.988 -7.95,8.972 c -2.754,0.063 -5.185,0.063 -7.218,0.063 0.118,-0.063 0.437,-0.233 0.782,-0.737 -0.059,-0.185 -0.097,-0.322 -0.315,-0.322 -0.03,0.064 -0.08,0.141 -0.113,0.202 -0.042,0.002 -0.093,0.004 -0.131,0.01 -2.491,-3.202 2.923,-5.272 1.721,-6.693 0.227,-0.273 0.663,-0.17 0.853,-0.5 -0.022,-0.073 -0.059,-0.174 -0.092,-0.237 0.092,-0.276 0.344,-0.382 0.853,-0.613 -1.362,1.784 -1.589,2.524 -1.617,2.65 0.037,0.016 0.092,0.04 0.133,0.054 0.114,-0.05 0.279,-0.119 0.409,-0.307 l 1.18,-1.607 c 1.082,-1.247 1.082,-1.247 0.922,-1.58 1.575,-1.888 5.603,-0.676 6.837,-2.646 -0.088,-0.077 -0.213,-0.105 -0.29,-0.205 0.345,-0.433 0.693,-0.347 0.891,-0.299 -0.087,0.206 -0.278,0.369 -0.319,0.602 m 1.948,1.961 c 0.026,-0.03 0.571,-0.639 0.66,-0.102 -0.034,0.037 -0.101,0.097 -0.664,0.102 l 0.004,0 z m 2.087,-0.009 c 0.075,-0.154 0.92,0.011 1.011,0.089 -0.091,0.07 -0.133,0.165 -0.115,0.295 0,0 -0.459,0.148 -0.564,0.132 -0.341,-0.132 -0.723,-0.15 -1,-0.403 0.118,0.024 0.269,0.064 0.373,0.089 0.271,-0.154 0.271,-0.158 0.295,-0.202 m 9.408,19.649 c 0.103,-0.114 0.242,-0.196 0.376,-0.284 -0.126,0.101 -0.248,0.195 -0.376,0.284 M 9.886,18.47 C 9.919,18.45 9.947,18.424 9.979,18.408 9.953,18.437 9.922,18.46 9.886,18.47 m -1.194,0.79 c -0.046,0.025 -0.046,0.025 -0.049,0.025 0.075,-0.046 0.146,-0.088 0.222,-0.142 -0.012,0.008 -0.033,0.021 -0.051,0.026 0.022,-0.018 0.041,-0.03 0.063,-0.044 -0.063,0.03 -0.121,0.074 -0.185,0.108 0.332,-0.255 0.677,-0.484 1.037,-0.681 0.113,-0.073 0.126,-0.079 0.135,-0.086 0,0.004 0,0.007 -0.009,0.013 0.014,0 0.022,-0.006 0.031,-0.009 -0.383,0.271 -0.77,0.528 -1.165,0.771 L 8.692,19.26 z m -9.153,-36.78 c -0.034,0.074 -0.08,0.134 -0.147,0.185 -0.408,-0.153 -0.165,-0.099 -0.682,-0.106 0.262,-0.183 0.544,-0.27 0.845,-0.252 0.122,-0.016 0.122,-0.016 0.197,0.024 -0.088,0.023 -0.164,0.071 -0.213,0.149 m 10.303,33.333 0,0 0.006,0 -0.006,0.004 0,-0.004 z M 5.224,9.035 C 5.325,9.153 5.328,9.27 5.249,9.394 5.221,9.379 5.174,9.363 5.141,9.354 5.09,9.299 4.934,9.14 4.884,9.035 4.32,7.716 4.527,8.153 5.828,8.056 5.895,8.172 6.193,8.209 6.156,8.422 6.105,8.451 5.732,8.323 6.047,8.559 l 0,0.014 C 5.736,8.892 4.851,8.559 5.224,9.035 m 8.974,2.166 c -0.009,-0.008 -0.033,-0.016 -0.058,-0.075 0.003,-0.009 0.008,-0.017 0.008,-0.025 l 0.097,-0.082 c 0.196,-0.196 0.196,-0.196 0.205,-0.191 0,0.18 -0.083,0.304 -0.252,0.373 m -15.173,-26.72 0,-0.008 c -0.05,-0.354 0.064,-0.311 0.127,-0.012 -0.039,0.004 -0.089,0.012 -0.127,0.02 m 9.478,34.888 z m -28.97,-9.016 0,0 c -0.041,-0.069 -0.105,-0.176 -0.11,-0.191 0.064,0.052 0.097,0.116 0.11,0.191 m -0.016,-0.094 c 0.071,0.06 0.124,0.136 0.154,0.225 -0.022,-0.03 -0.151,-0.206 -0.154,-0.225 m -0.177,-0.129 0,0 c -0.005,-0.004 -0.017,-0.016 -0.017,-0.016 0,0 -0.025,-0.065 -0.025,-0.072 l 0.003,0 c 0.009,0.019 0.039,0.072 0.039,0.088 m 0.008,-0.044 c -0.063,-0.119 0.039,0.04 0.025,0.04 -0.008,0 -0.008,0 -0.025,-0.04 M -20.77,9.908 c 0,0.008 0,0.008 0.005,0.055 -0.008,-0.014 -0.022,-0.03 -0.033,-0.038 0.011,-0.009 0.025,-0.02 0.028,-0.017 m 0.727,0.657 c -0.004,0 0.109,-0.172 0.109,0 l -0.109,0 z m 10.316,1.389 c -0.372,-0.131 -0.872,-0.289 -1.245,-0.399 -0.479,0.443 1.187,0.427 1.245,0.399 m -1.417,0.751 c -0.492,0.057 -0.383,-0.441 -1.017,-0.072 0.244,0.057 0.475,0.135 0.697,0.238 -0.155,0.279 -0.155,0.279 -0.146,0.291 0.188,-0.062 0.381,-0.134 0.574,-0.215 0.304,0.291 0.66,0.372 1.066,0.243 0.5,0.212 -1.213,-0.477 -1.174,-0.485 m -1.265,1.293 c 0.034,0.092 0.138,0.115 0.185,0.187 0,0 0,0.004 -0.005,0.008 -0.201,-0.087 -0.415,-0.13 -0.638,-0.14 0.165,0.178 0.367,0.273 0.601,0.285 -0.109,0.25 -0.441,0.051 -0.638,0.051 -0.005,0.004 -0.016,0.004 -0.022,0.007 0.337,0.089 1.407,0.619 0.963,0.129 -0.344,1.039 1.007,-1.669 0.079,-0.254 -0.05,-0.013 -0.117,-0.04 -0.168,-0.053 -0.025,-0.123 -0.194,-0.222 -0.357,-0.22 m 4.661,-4.502 c -0.335,0.383 -0.335,0.383 -0.238,0.63 0.079,0.063 0.146,0.063 0.213,0.063 C -7.276,9.471 -7.248,9.408 -7.329,9.083 -3.448,9.028 0.437,9.013 4.32,9.035 5.221,9.647 5.221,9.647 5.216,9.766 5.195,9.941 5.115,10.006 5.002,10.105 4.68,10.044 4.67,10.061 4.566,10.471 c -0.74,0.625 -1.48,1.241 -2.218,1.86 l -0.135,0 c -1.288,-0.768 -2.536,-0.521 -3.75,0.725 -0.012,-0.448 -0.012,-0.448 0.247,-0.818 -0.096,-0.121 -0.226,-0.216 -0.327,-0.344 0.898,-0.718 0.803,-1.196 -0.28,-1.449 0.322,-1.41 0.004,-1.638 -0.962,-0.674 0.016,0.412 0.016,0.418 0,0.713 -0.219,0.155 -2.255,0.783 -2.368,0.802 l -0.009,0 c -0.206,-0.014 -0.408,-0.028 -0.61,-0.042 -0.003,0.102 0.009,0.245 0.022,0.344 -0.173,0.244 -0.524,0.153 -0.715,0.378 0.127,0.613 0.127,0.613 1.378,1.375 -0.021,0.035 -0.041,0.088 -0.054,0.123 0.075,0.056 0.189,0.125 0.276,0.169 0.446,0.151 0.798,0.231 1.147,0.774 -0.05,0.047 -0.117,0.108 -0.159,0.155 0.34,-0.083 0.981,-0.232 1.456,0.271 -0.163,0.262 -0.163,0.262 -0.21,0.376 0.08,0.036 0.191,0.085 0.268,0.124 -0.002,0.005 -0.751,0.565 -1.069,0.292 0.147,-0.292 -0.336,-0.8 -0.55,-0.854 -0.152,0.127 -0.156,0.127 -0.227,0.369 0.017,0.034 0.054,0.072 0.075,0.105 -0.046,0.069 -0.126,0.162 -0.198,0.214 -0.175,-0.035 -0.204,-0.044 -0.284,-0.25 -0.24,0.07 -0.307,0.347 -0.537,0.434 0.066,0.058 0.142,0.144 0.197,0.211 -0.031,0.057 -0.031,0.057 -0.462,0.542 0.083,0.139 0.105,0.172 0.238,0.318 0.358,-0.016 0.358,-0.016 0.765,0.354 -0.172,0.061 -0.248,0.094 -0.765,0.109 -0.175,-0.019 -0.613,-0.048 -0.415,-0.714 -0.478,-0.73 -0.478,-0.73 0.084,-0.846 -0.051,-0.061 -0.114,-0.145 -0.15,-0.214 0.036,-0.021 0.083,-0.036 0.121,-0.057 -0.052,-0.137 -0.052,-0.137 -0.466,-0.308 -0.025,-0.082 -0.075,-0.184 -0.135,-0.254 -0.028,0.028 -0.075,0.061 -0.105,0.084 -0.614,0.411 -1.31,0.579 -2.095,0.486 -0.214,0.021 -0.243,0.024 -0.651,-0.109 0.042,-0.012 0.101,-0.027 0.143,-0.036 l 0.105,-0.021 c 0.05,0.009 0.109,0.016 0.16,0.021 -0.295,-0.337 -0.32,-0.329 -0.917,-0.192 -0.008,0.002 -0.028,0.002 -0.041,0.002 -0.837,-0.063 -0.837,-0.063 -0.912,-0.057 0,0.039 0,0.09 -0.008,0.133 0.08,0.03 0.177,0.096 0.223,0.163 l -1.667,0.332 0,0.139 c -0.147,-0.005 -0.252,-0.112 -0.391,-0.148 -0.013,0.107 -0.055,0.248 -0.092,0.346 -0.042,-0.004 -0.098,-0.004 -0.134,-0.004 -0.152,-0.19 -0.177,-0.194 -0.337,-0.256 l -0.083,-0.024 c -0.033,0.024 -0.068,0.062 -0.094,0.086 -1.696,-0.27 -1.696,-0.27 -2.443,0.186 -0.034,-0.017 -0.084,-0.036 -0.126,-0.046 -0.085,0.22 -0.11,0.235 -0.257,0.308 -0.919,-0.344 -1.59,-0.948 -2.027,-1.809 0.021,0.033 0.05,0.075 0.071,0.107 -0.344,-0.175 -0.344,-0.175 -0.587,-0.632 0.037,-0.021 0.091,-0.051 0.129,-0.072 0.042,0.023 0.092,0.059 0.139,0.083 -0.15,-0.688 -0.89,-0.923 -1.158,-1.521 0.061,-0.14 0.061,-0.14 -0.08,-0.541 0.036,-0.018 0.091,-0.036 0.129,-0.053 0.039,0.027 0.089,0.059 0.122,0.084 0.014,-0.04 0.03,-0.091 0.042,-0.126 -0.299,-0.425 -0.713,-0.722 -1.07,-1.092 1.015,0.389 1.498,1.375 2.263,2.048 -0.05,-0.213 -0.252,-0.314 -0.37,-0.477 0.022,-0.034 0.05,-0.077 0.071,-0.11 0.211,0.042 0.404,0.227 0.702,0.513 0.29,-0.381 0.857,-0.419 0.86,-0.419 0.289,-0.521 0.289,-0.521 0.618,-0.509 0.143,-0.222 0.13,-0.261 0.083,-0.416 0.085,-0.054 0.141,-0.199 0.16,-0.297 l 0.11,-0.115 c -0.173,-0.588 0.34,-1.049 0.285,-1.608 0.055,-0.057 0.147,-0.122 0.227,-0.158 2.083,-0.022 4.514,-0.022 7.201,-0.022 C -8.142,9.27 -8.142,9.27 -8.108,9.496 -7.915,9.169 -7.915,9.169 -7.881,9.127 -7.713,9.035 -7.572,9.035 -7.437,9.035 -7.491,9.358 -7.491,9.358 -7.613,9.532 -7.652,9.52 -7.71,9.512 -7.748,9.496 M -20.832,9.92 c -0.022,-0.037 -0.043,-0.076 -0.055,-0.113 0.033,0.032 0.055,0.069 0.055,0.113 m 4.569,1.076 c 0.061,0.075 0.117,0.269 0.108,0.357 l -0.03,0.167 c -0.008,0.032 -0.078,0.051 -0.201,0.051 0,0 0,-0.005 -0.004,-0.005 0,-0.039 0.1,-0.591 0.127,-0.57 m 0.1,0.109 c 0.083,-0.261 -0.213,-0.752 -0.105,-0.91 l 0.005,-0.006 c 0.003,-0.831 0.453,0.548 0.1,0.916 m -2.478,0.56 -0.028,0.056 -0.055,-0.097 c -0.033,-0.028 -0.541,-0.399 -0.437,-0.588 0.134,0.126 0.272,0.257 0.412,0.393 -0.014,0.02 -0.026,0.044 -0.035,0.071 l 0.177,0.083 -0.034,0.082 z M 4.488,15.667 C 4.32,15.813 4.216,15.85 3.973,15.879 3.616,15.535 4.737,15.459 4.488,15.667 m -16.095,0.614 c 0.004,-0.003 0.022,-0.009 0.026,-0.017 -0.029,-0.131 -0.026,-0.149 -0.022,-0.16 0.197,-0.036 1.029,0.286 1.109,0.566 l 0.928,0.28 -0.147,0.158 c -0.1,0.138 -0.547,0.18 -0.731,0.254 l -0.009,0 c -0.155,-0.08 -0.326,-0.101 -0.503,-0.068 -0.188,-0.214 -1.011,-0.867 -0.651,-1.013 m 7.253,2.048 c 0.357,-0.183 0.277,0.141 0.088,0.121 -0.118,-0.03 -0.143,-0.089 -0.088,-0.121 m -0.458,0.731 c 0.163,-0.035 0.328,-0.004 0.492,-0.026 l 0,-0.009 c -0.812,-0.483 0.193,-0.567 0.563,-0.353 0,0.021 0.003,0.055 0.003,0.076 0.19,0.581 0.784,-0.049 0,0.561 0.008,0.02 0.033,0.033 0.033,0.06 -0.025,0.029 -0.558,0.326 -0.633,0.317 -0.063,-0.023 -0.403,-0.122 -0.27,-0.219 -0.07,-0.105 -0.805,-0.262 -0.188,-0.407 m -1.13,-1.003 c -0.122,0.017 -0.243,0.021 -0.37,0.012 -0.177,-0.409 0.038,0.119 -0.323,-0.098 0,-0.139 -0.072,-0.206 -0.213,-0.206 0.025,-0.153 0.378,-0.097 0.516,-0.042 0.054,-0.082 -0.135,-0.065 -0.13,-0.16 0.487,-0.455 0.785,0.519 0.587,0.515 -0.02,-0.004 -0.025,-0.009 -0.067,-0.021 m -0.055,-1.61 0.052,0.186 c -0.022,0.113 -0.224,0.142 -0.324,0.13 -0.113,-0.134 0.55,0.317 0.189,0.357 -0.047,0 -0.089,-0.018 -0.13,-0.052 -0.064,-0.004 -0.127,-0.004 -0.194,-0.004 -0.328,0.167 -0.919,-0.221 -0.281,-0.783 l 0.047,-0.083 0.138,0 c 0.008,0.004 0.03,0.004 0.091,0.083 0.035,0.005 0.086,0.005 0.127,0.012 0.251,0.053 0.273,0.118 0.285,0.154 m 1.226,1.961 c 0.03,0.042 -0.444,0.042 -0.486,0.05 0.021,-0.021 0.049,-0.046 0.063,-0.068 0.31,-0.029 0.39,-0.029 0.423,0.018 m -0.79,0.756 c 0.211,-0.049 0.161,0.178 -0.02,0.128 -0.113,-0.059 -0.105,-0.108 0.02,-0.128 m 0.009,-0.355 c -0.21,-0.04 0.648,-0.714 0.526,-0.095 -0.114,0.055 -0.261,0.13 -0.37,0.18 L -5.4,18.89 c -0.042,-0.058 -0.109,-0.071 -0.152,-0.081 m 7.458,-4.612 c 0.147,-0.159 0.256,-0.208 0.286,-0.195 l 0.369,0.317 c 0.072,0.082 0.093,0.238 0.093,0.243 -0.058,0.408 -1.608,0.469 -1.927,0.805 0.025,0.04 0.025,0.04 0.297,0.113 -0.395,0.732 -4.237,1.839 -4.496,1.226 0.03,-0.054 0.03,-0.054 0.146,-0.104 0,-0.011 0,-0.011 -0.188,-0.118 0.008,-0.033 0.008,-0.033 0.141,-0.147 -0.199,-0.353 -0.238,0.901 -0.066,0.749 -0.307,-0.026 -1.282,-0.187 -1.133,-0.87 0.016,-0.014 0.042,-0.022 0.053,-0.028 0.077,-0.011 0.16,-0.011 0.492,-0.08 -0.344,-0.015 -0.344,-0.015 -0.387,-0.04 0.072,-0.38 1.977,-0.505 2.554,-0.17 0.231,-0.077 0.575,-0.255 0.755,-0.418 -0.028,-0.042 -0.075,-0.065 -0.1,-0.106 0.08,-0.125 0.238,-0.078 0.357,-0.02 1.276,-0.482 0.33,-0.474 0.377,-1.19 -2.734,-1.278 2.189,-1.204 2.223,-1.183 -0.148,0.294 -0.486,0.326 -0.706,0.511 0.009,0.015 0.013,0.023 0.02,0.032 0.345,-0.093 0.614,-0.441 1.03,-0.289 -0.24,0.488 -0.593,0.855 -1.08,1.084 0.101,0.374 0.794,-0.023 0.89,-0.122 M 0.828,19.616 C 0.823,19.611 0.823,19.593 0.823,19.585 c -0.239,0 -0.445,0 -0.776,-0.325 0.378,-0.081 0.378,-0.081 0.406,-0.091 -0.314,-0.344 -0.713,-0.53 -1.205,-0.579 -0.013,-0.012 -0.021,-0.025 -0.024,-0.042 l 0.168,-0.065 C -0.332,18.408 -0.055,18.412 0.223,18.376 0.102,18.202 -0.113,18.277 -0.268,18.202 1.503,17.584 3.334,17.647 4.502,16.036 4.312,15.804 3.965,16.27 3.863,15.984 4.934,15.264 4.1,14.511 5.361,13.742 5.384,13.603 5.408,13.576 5.408,13.568 l 0.824,-0.813 c -0.003,0.013 0.025,-0.009 0.034,-0.014 1.41,-0.456 1.784,-0.809 1.343,0.392 0.076,0.151 0.214,0.269 0.239,0.443 -0.002,0.006 -0.002,0.006 -0.108,0.073 -0.013,0.053 -0.013,0.053 0.033,0.122 -0.005,0.034 -0.013,0.076 -0.025,0.109 l -0.086,0.116 c 0.272,-0.04 0.133,0.21 0.368,0.344 0.003,0.028 0.011,0.067 0.011,0.098 0.025,0.012 0.063,0.022 0.094,0.028 0.024,-0.033 0.024,-0.033 0.033,-0.147 0.429,0.088 0.607,0.124 0.701,0.945 0.037,-0.039 0.084,-0.1 0.113,-0.144 0.438,0.129 0.979,0.295 0.882,0.662 -0.215,0.12 -0.462,0.064 -0.679,0.145 0.044,0.04 0.044,0.04 0.09,0.118 -0.171,0.118 -0.171,0.118 -0.217,0.2 0.323,0.101 0.387,-0.391 0.701,-0.294 0.025,0.047 0.025,0.047 -0.931,0.735 0.142,0 0.243,-0.145 0.39,-0.126 0.008,0.016 0.011,0.031 0.011,0.044 -0.083,0.109 -0.306,0.248 -0.428,0.325 0.181,-0.057 0.265,-0.006 0.24,0.151 -0.041,0.006 -0.074,0.013 -0.29,0.124 0.093,0.034 0.104,0.034 0.235,0.035 -0.235,0.434 -0.744,0.543 -1.074,0.868 0.022,0.028 0.037,0.053 0.055,0.081 0.05,-0.012 0.107,0.007 0.162,0 -0.033,0.154 -1.162,1.085 -1.342,1.257 0.016,0.017 0.041,0.05 0.071,0.062 C 6.828,19.976 5.804,19.52 5.816,19.76 5.754,19.795 5.666,19.837 5.602,19.873 5.572,19.841 4.619,19.831 4.61,19.831 4.607,19.841 4.6,19.857 4.594,19.869 4.699,19.94 4.699,19.94 5.422,19.966 5.43,19.982 5.441,19.995 5.447,20.003 5.405,20.2 4.232,20.341 4.221,20.341 3.859,20.315 3.859,20.315 3.389,20.322 3.381,20.282 3.367,20.234 3.359,20.192 L 3.113,20.21 C 2.566,20.003 2.633,19.846 3.293,19.742 2.944,19.817 2.596,19.909 2.246,20.007 1.734,19.94 1.213,19.869 0.701,19.795 0.727,19.717 0.743,19.696 0.828,19.616 m -2.146,-4.855 c 0.163,0 0.318,0.051 0.462,0.151 0.049,0.38 -0.504,0.203 -0.581,-0.058 0.017,-0.07 0.056,-0.104 0.119,-0.093 m -0.898,-1.164 c -0.417,0.271 -1,0.292 -1.403,0.691 -0.055,-0.046 -0.113,-0.116 -0.168,-0.155 -0.017,-0.171 -0.072,-0.328 -0.089,-0.492 -0.091,-0.023 -0.213,-0.052 -0.314,-0.079 0.082,-0.198 0.314,0.056 0.458,-0.042 0.041,-0.415 0.629,0.186 0.768,0.234 0.201,-0.316 0.453,-0.37 0.748,-0.157 m 0.167,-0.787 c 0.306,-0.029 0.206,0.26 0.088,0.254 -0.117,0.019 -0.205,-0.019 -0.265,-0.105 0.026,-0.028 0.113,-0.144 0.177,-0.149 m -2.662,4.85 c -0.093,-0.04 -0.093,-0.04 -0.123,-0.076 0.089,-0.471 1.892,-0.188 2.016,-0.179 0.243,-0.05 0.63,-0.24 0.815,0.133 -0.105,0.544 -2,0.008 -2.403,0.358 0.089,0.033 0.191,-0.007 0.27,0.028 0.037,0.118 -0.159,0.084 -0.24,0.127 0.005,-0.043 -0.499,0.161 -0.554,0.172 l -0.504,0.037 c -0.193,-0.069 1.067,-0.448 0.723,-0.6 m 1.457,-4.525 c -0.038,-0.019 0.398,-0.078 0.591,0.071 l 0,0.053 c -0.205,0.029 -0.406,-0.01 -0.591,-0.124 m 0.45,6.303 c 0.141,0 0.238,0.02 0.414,0.029 l 0.017,0 c 0.185,0.032 0.361,0.118 0.555,0.126 -0.005,-0.008 -0.005,-0.025 -0.005,-0.033 -0.263,-0.04 -0.511,-0.134 -0.73,-0.275 0.011,-0.037 0.05,-0.08 0.064,-0.121 -0.359,0.178 -0.359,0.178 -0.837,0.128 0,-0.326 -0.105,-0.83 0.168,-0.674 -0.105,-0.103 -0.105,-0.103 0.299,-0.215 0.003,-0.01 0.008,-0.018 0.008,-0.025 -0.294,0.025 -0.58,0.059 -0.87,0.113 0.047,-0.067 0.122,-0.101 0.177,-0.149 -0.222,-0.669 -0.252,-0.218 0.82,-0.334 0.218,0.074 0.218,0.074 0.411,-0.021 -0.005,-0.016 -0.018,-0.042 -0.021,-0.063 0.008,-0.007 0.021,-0.012 0.03,-0.021 0.082,0.014 0.965,0.517 1.066,0.811 -0.135,0.219 -0.093,0.32 0.133,0.302 l 0.488,0.123 c 0.214,0.073 0.893,0.396 0.962,0.564 -0.025,0.018 -0.025,0.018 -0.286,0.039 0.207,0.156 0.507,0.032 0.697,0.229 -0.041,0.105 -0.555,0.198 -0.647,0.209 l -0.902,0.062 -0.014,0 C -1.234,20.226 -1.638,20.217 -2.053,20.217 -2.351,20.189 -2.619,19.986 -2.939,20.075 -3.241,19.774 -3.674,19.99 -4.006,19.821 l 0.348,-0.293 c 0.307,-0.102 0.609,-0.09 0.854,-0.09 m -4.511,-1.931 c 0.144,-0.034 0.332,0.134 0.193,0.134 l -0.066,0 C -7.31,17.618 -7.353,17.569 -7.315,17.507 m 0.425,0.762 c 0.025,0.016 0.045,0.04 0.05,0.04 -0.03,-0.024 -0.119,0.185 -0.143,0.185 -0.025,0 -0.059,-0.003 -0.08,-0.015 -0.05,-0.16 0.013,-0.227 0.173,-0.21 m -2.152,-0.271 c -0.099,-0.011 0.006,-0.216 -0.188,-0.145 l 0.059,-0.01 c -0.047,-0.026 -0.114,-0.061 -0.164,-0.087 l 0.18,-0.016 c -0.276,-0.04 -0.456,-0.145 -0.461,-0.15 0.268,-0.145 0.5,-0.119 0.697,0.07 0.043,-0.172 0.168,-0.208 0.391,-0.101 -2.066,-0.555 2.365,0.592 0.78,0.592 -0.012,-0.005 -0.062,-0.008 -0.315,-0.132 0.008,-0.053 0.06,-0.074 0.077,-0.123 -0.031,-0.043 -0.106,0 -0.122,-0.066 0.028,-0.036 0.105,-0.044 0.096,-0.109 -0.148,-0.061 -0.428,0.002 -0.432,0.002 -0.093,0.201 -0.093,0.201 -0.29,0.222 0.063,0.129 -0.257,0.076 -0.308,0.053 m 2.039,0.105 0,0 c -0.011,-0.078 0.061,-0.052 0.1,-0.084 -0.022,-0.042 -0.031,-0.082 -0.031,-0.123 0.141,-0.037 0.169,0.186 -0.069,0.207 m -0.795,0.525 c 0.795,0.132 0.071,0.141 -0.235,0.086 0.058,-0.03 0.163,-0.082 0.235,-0.086 m -0.471,-0.299 c 0.164,0 0.329,0.032 0.484,0.087 0.042,0.025 -0.025,0.126 -0.03,0.162 -0.038,0.004 -0.063,0.004 -0.08,0.004 -0.122,-0.004 -0.314,-0.103 -0.395,-0.137 -0.058,-0.103 0,-0.111 0.021,-0.116 m -1.15,-0.433 c 0,0.005 0,0 -0.004,0 -0.538,-0.203 -0.24,0 0.004,0 m 2.922,-2.212 c -0.125,-0.152 -0.279,-0.251 -0.47,-0.295 0.138,0.007 0.265,-0.022 0.384,-0.089 0.149,-0.063 0.368,-0.055 0.511,0.014 0.008,0.011 0.014,0.105 -0.42,0.374 0,-0.004 0,-0.004 -0.005,-0.004 m -0.68,0.036 0.022,0 c -0.047,0.019 -0.105,0.05 -0.152,0.071 -0.179,0.063 -0.643,0.254 -0.659,0.294 0.121,0.185 0.164,0.382 0.126,0.601 -0.067,0.089 -0.445,0.222 -0.45,0.222 -0.049,-0.056 -0.154,-0.399 -0.113,-0.526 -0.177,0.065 -0.29,0.199 -0.331,0.392 -0.017,-0.04 -0.037,-0.088 -0.056,-0.13 -0.227,-0.156 -0.323,-0.139 -0.276,0.05 -0.189,0.004 -0.374,-0.005 -0.556,-0.024 0.028,0.087 0.182,0.055 0.169,0.164 -0.185,0.085 -1.21,-0.35 -1.218,-0.513 0,-0.007 0.017,-0.009 0.022,-0.018 l 0.168,-0.087 c 0.147,-0.022 0.277,0.034 0.423,0.012 l 0,-0.016 c -0.113,-0.076 -0.381,-0.097 -0.587,-0.104 0.357,-0.113 0.728,-0.197 1.103,-0.239 -0.289,-0.196 -1.909,-0.263 -0.533,-0.38 -0.008,-0.056 -0.024,-0.139 -0.033,-0.197 0.042,-0.028 0.042,-0.028 0.467,-0.02 l 0.017,0 c 0.041,0.007 0.107,0.013 0.532,0.07 0.136,0.193 0.412,0.047 0.55,0.226 l 0.018,0.013 c 0.336,-0.281 0.671,-0.31 1.012,-0.083 -0.08,0.004 -0.159,0.004 -0.245,0.004 -0.012,0.004 -0.033,0.006 -0.045,0.013 0.004,0.053 0.012,0.084 0.625,0.205 m 0.55,2.904 c 0.13,-0.006 0.832,-0.141 0.865,-0.046 -0.138,0.195 -0.335,0.468 -0.813,0.425 -0.428,-0.089 0.163,-0.179 0.171,-0.198 0.012,0.012 -0.582,-0.173 -0.223,-0.181 m 0.734,0.745 c 0.131,-0.149 0.144,0.111 0.069,0.105 -0.025,-0.007 -0.076,-0.036 -0.088,-0.076 0,-0.008 0.003,-0.008 0.019,-0.029 m -4.295,-1.516 c 0.047,-0.006 0.08,-0.006 0.122,-0.006 0.149,0.042 0.149,0.042 0.157,0.031 -0.014,-0.071 -0.052,-0.166 0.108,-0.048 l 0.312,0.195 c 0.074,0.049 0.166,0.077 0.234,0.135 -0.038,-0.047 -0.084,-0.105 -0.126,-0.152 0.096,-0.084 0.273,0.054 0.364,0.087 0.047,0.081 0.098,0.174 0.098,0.174 0.214,0.191 0.201,-0.021 0.101,0.147 l -0.005,0 c -0.133,-0.111 -0.293,-0.143 -0.478,-0.082 0.361,0.175 -1.072,-0.481 -0.887,-0.481 m 2.314,-1.046 c 0.694,-0.583 -0.364,0.422 -0.101,0.126 l 0.101,-0.126 z"
             id="path42"
             style="fill:#4ab754;fill-opacity:1;fill-rule:nonzero;stroke:none" /></g></g></g><g
       transform="matrix(0.53903431,0,0,0.53903431,-1.4468577,-1.5535244)"
       id="g44"><g
         clip-path="url(#clipPath48)"
         id="g46"><g
           id="g52"><g
             id="g54"><path
               d="m 40,38.432 c 0.534,-0.618 1.318,-1.73 1.318,-1.997 l 0,0 c 0,-0.395 1.022,-1.779 1.031,-1.789 l 0,0 c 0.028,0.018 0.028,0.018 -0.072,0.47 l 0,0 c 0.235,-0.447 0.504,-0.88 0.782,-1.295 l 0,0 c -0.17,0.432 -0.376,0.848 -0.61,1.247 l 0,0 c -0.039,0.061 -0.076,0.114 -0.117,0.172 l 0,0 c 0.017,-0.018 0.033,-0.038 0.041,-0.051 l 0,0 c -0.076,0.133 -0.159,0.271 -0.242,0.41 l 0,0 -0.01,0 c -0.629,1.015 -1.353,1.973 -2.15,2.871 l 0,0 L 40,38.432 z"
               id="path64"
               style="fill:url(#linearGradient56);stroke:none" /></g></g></g></g><g
       transform="matrix(0.53903431,0,0,0.53903431,-1.4468577,-1.5535244)"
       id="g66"><g
         clip-path="url(#clipPath70)"
         id="g68"><g
           id="g74"><g
             id="g76"><path
               d="m 43.531,27.346 c 0.038,0.033 0.052,0.049 0.08,0.209 l 0,0 c 0.098,0.014 0.224,0.03 0.316,0.046 l 0,0 c 0.112,0.292 0.112,0.292 0.142,0.569 l 0,0 c -0.021,0.028 -0.055,1.517 -0.074,1.619 l 0,0 c 0.028,0.009 0.028,0.009 0.277,-0.219 l 0,0 c 0.047,0.154 -0.051,0.312 0.047,0.45 l 0,0 c 0,0 0.306,-0.356 0.628,-1.871 l 0,0 c -0.004,0.196 -0.076,0.38 -0.101,0.574 l 0,0 c -0.004,0.047 -0.012,0.089 -0.026,0.136 l 0,0 c -0.482,1.547 -0.482,1.547 -0.476,1.621 l 0,0 0.024,0 c 0.034,-0.051 0.065,-0.102 0.093,-0.153 l 0,0 c -0.317,1.109 -0.721,2.182 -1.215,3.221 l 0,0 c 0.105,-0.3 0.105,-0.3 0.105,-0.309 l 0,0 c -0.054,0.006 -0.049,0.069 -0.08,0.09 l 0,0 c -0.016,-0.012 -0.016,-0.021 -0.025,-0.037 l 0,0 c -0.259,0.439 -0.486,0.886 -0.701,1.345 l 0,0 c 0,-2.018 0.066,-6.467 0.986,-7.291 m 1.135,2.207 c 0,0.269 -0.07,0.526 -0.205,0.774 l 0,0 c 0.073,-0.256 0.141,-0.514 0.205,-0.774"
               id="path86"
               style="fill:url(#linearGradient78);stroke:none" /></g></g></g></g><g
       transform="matrix(0.53903431,0,0,0.53903431,-1.4468577,-1.5535244)"
       id="g88"><g
         clip-path="url(#clipPath92)"
         id="g90"><g
           id="g96"><g
             id="g98"><path
               d="m 44.901,28.086 c -0.005,-0.018 0.004,-0.048 -0.005,-0.074 l 0,0 c -0.003,0 -0.003,0 -0.019,0.013 l 0,0 c 0.066,-0.319 0.066,-0.319 0.074,-0.336 l 0,0 c 0.022,0 0.042,-0.033 0.042,-0.033 l 0,0 c 0.021,-0.047 0.017,-0.094 0.034,-0.141 l 0,0 c -0.004,0.174 -0.034,0.357 -0.076,0.529 l 0,0 c -0.008,-0.012 -0.004,-0.026 -0.004,-0.032 l 0,0 c -0.042,0.012 -0.007,0.06 -0.046,0.082 l 0,0 0,-0.008 z"
               id="path108"
               style="fill:url(#linearGradient100);stroke:none" /></g></g></g></g><g
       transform="matrix(0.53903431,0,0,0.53903431,-1.4468577,-1.5535244)"
       id="g110"><g
         clip-path="url(#clipPath114)"
         id="g112"><g
           id="g118"><g
             id="g120"><path
               d="m 44.548,28.978 c 0.227,-1.434 0.198,-0.096 0,0.015 l 0,0 0,-0.015 z"
               id="path130"
               style="fill:url(#linearGradient122);stroke:none" /></g></g></g></g><g
       transform="matrix(0.53903431,0,0,0.53903431,-1.4468577,-1.5535244)"
       id="g132"><g
         clip-path="url(#clipPath136)"
         id="g134"><g
           id="g140"><g
             id="g142"><path
               d="m 44.435,29.462 c 0.084,-0.349 0.088,-0.355 0.093,-0.368 l 0,0 c 0.02,0.153 -0.005,0.3 -0.071,0.435 l 0,0 c -0.009,-0.014 -0.018,-0.042 -0.022,-0.067"
               id="path152"
               style="fill:url(#linearGradient144);stroke:none" /></g></g></g></g><g
       transform="matrix(0.53903431,0,0,0.53903431,-1.4468577,-1.5535244)"
       id="g154"><g
         clip-path="url(#clipPath158)"
         id="g156"><g
           id="g162"><g
             id="g164"><path
               d="M 42.533,33.296 C 42.516,33.26 42.512,33.249 42.512,33.242 l 0,0 -0.009,-0.003 c -0.019,0.01 -0.019,-0.023 -0.01,-0.055 l 0,0 c 0.015,-0.054 0.051,-0.107 0.057,0.028 l 0,0 -0.017,0.085 0,-10e-4 z"
               id="path174"
               style="fill:url(#linearGradient166);stroke:none" /></g></g></g></g><g
       transform="matrix(0.53903431,0,0,0.53903431,-1.4468577,-1.5535244)"
       id="g176"><g
         clip-path="url(#clipPath180)"
         id="g178"><g
           id="g184"><g
             id="g186"><path
               d="m 44.569,27.528 c -0.05,0.048 -0.087,0.109 -0.138,0.16 l 0,0 c -0.383,-0.574 -0.383,-0.574 -0.928,-0.46 l 0,0 c -0.055,-0.342 -1.759,-4.121 -1.626,-4.68 l 0,0 c -0.448,0.226 1,-4.256 1.27,-4.466 l 0,0 c 0.175,0.058 0.191,0.273 0.348,0.349 l 0,0 c 0.124,-0.134 0.163,-0.327 0.285,-0.464 l 0,0 c 0.041,0.011 0.041,0.011 0.163,0.102 l 0,0 c 0,-0.739 -0.537,-1.294 -0.701,-1.97 l 0,0 c 0.089,-0.023 0.149,-0.023 0.156,-0.023 l 0,0 c 1.385,3.142 1.994,6.356 1.827,9.643 l 0,0 -0.006,0.017 c -0.016,0.198 -0.025,0.274 -0.074,0.509 l 0,0 c -0.012,0.004 -0.026,0.013 -0.033,0.019 l 0,0 c -0.274,0.456 -0.161,0.981 -0.278,1.461 l 0,0 c -0.036,-0.019 -0.072,-0.051 -0.105,-0.073 l 0,0 c -0.022,0.036 -0.051,0.086 -0.063,0.124 l 0,0 -0.005,0.012 c -0.042,-0.082 -0.044,-0.179 -0.092,-0.26"
               id="path196"
               style="fill:url(#linearGradient188);stroke:none" /></g></g></g></g><g
       transform="matrix(0.53903431,0,0,0.53903431,-1.4468577,-1.5535244)"
       id="g198"><g
         clip-path="url(#clipPath202)"
         id="g200"><g
           id="g206"><g
             id="g208"><path
               d="m 44.725,20.188 c 0.008,0.003 0.037,0.128 0.054,0.166 l 0,0 c 0,0.003 -0.004,0.033 -0.004,0.033 l 0,0 c -0.035,0.094 0.079,0.207 0.03,0.304 l 0,0 c -0.043,-0.174 -0.092,-0.489 -0.08,-0.503"
               id="path218"
               style="fill:url(#linearGradient210);stroke:none" /></g></g></g></g><g
       transform="matrix(0.53903431,0,0,0.53903431,-1.4468577,-1.5535244)"
       id="g220"><g
         clip-path="url(#clipPath224)"
         id="g222"><g
           transform="translate(41.3184,36.4346)"
           id="g228"><path
             d="M 0,0 C 0,-0.394 1.021,-1.778 1.03,-1.789 1.059,-1.77 1.059,-1.77 0.959,-1.318 1.193,-1.766 1.462,-2.198 1.74,-2.614 1.571,-2.181 1.365,-1.766 1.13,-1.367 1.092,-1.306 1.055,-1.253 1.014,-1.194 1.03,-1.212 1.047,-1.233 1.055,-1.245 0.979,-1.112 0.896,-0.974 0.812,-0.836 l -0.009,0 C 0.174,0.179 -0.55,1.138 -1.348,2.035 l 0.03,-0.038 C -0.784,1.38 0,0.267 0,0"
             id="path230"
             style="fill:#3cb879;fill-opacity:1;fill-rule:nonzero;stroke:none" /></g><g
           transform="translate(42.5449,34.6372)"
           id="g232"><path
             d="m 0,0 c 0,-2.018 0.066,-6.467 0.986,-7.292 0.038,0.034 0.052,0.05 0.08,0.21 0.098,0.013 0.224,0.03 0.316,0.046 0.112,0.291 0.112,0.291 0.142,0.569 -0.021,0.028 -0.054,1.516 -0.074,1.619 0.028,0.009 0.028,0.009 0.277,-0.218 0.046,0.153 -0.051,0.311 0.046,0.449 0,0 0.307,-0.357 0.629,-1.871 -0.004,0.196 -0.076,0.38 -0.101,0.573 -0.003,0.048 -0.012,0.089 -0.026,0.137 -0.482,1.547 -0.482,1.547 -0.476,1.621 l 0.024,0 C 2.02,-4.453 2.121,-4.759 2.121,-5.083 1.781,-3.699 1.31,-2.368 0.701,-1.09 0.807,-1.389 0.807,-1.389 0.807,-1.398 0.752,-1.392 0.757,-1.329 0.727,-1.308 0.71,-1.32 0.71,-1.329 0.701,-1.345 0.441,-0.906 0.215,-0.46 0,0"
             id="path234"
             style="fill:#3cb879;fill-opacity:1;fill-rule:nonzero;stroke:none" /></g></g></g><g
       transform="matrix(0.53903431,0,0,0.53903431,-1.4468577,-1.5535244)"
       id="g236"><g
         clip-path="url(#clipPath240)"
         id="g238"><g
           id="g244"><g
             id="g246"><path
               d="m 44.901,28.086 c -0.005,-0.018 0.004,-0.048 -0.005,-0.074 l 0,0 c -0.003,0 -0.003,0 -0.019,0.013 l 0,0 c 0.066,-0.319 0.066,-0.319 0.074,-0.336 l 0,0 c 0.022,0 0.042,-0.033 0.042,-0.033 l 0,0 c 0.021,-0.047 0.017,-0.094 0.034,-0.141 l 0,0 c -0.004,0.174 -0.034,0.357 -0.076,0.529 l 0,0 c -0.008,-0.012 -0.004,-0.026 -0.004,-0.032 l 0,0 c -0.042,0.012 -0.007,0.06 -0.046,0.082 l 0,0 0,-0.008 z"
               id="path254"
               style="fill:url(#radialGradient248);stroke:none" /></g></g></g></g><g
       transform="matrix(0.53903431,0,0,0.53903431,-1.4468577,-1.5535244)"
       id="g256"><g
         clip-path="url(#clipPath260)"
         id="g258"><g
           id="g264"><g
             id="g266"><path
               d="m 44.548,28.978 c 0.227,-1.434 0.198,-0.096 0,0.015 l 0,0 0,-0.015 z"
               id="path274"
               style="fill:url(#radialGradient268);stroke:none" /></g></g></g></g><g
       transform="matrix(0.53903431,0,0,0.53903431,-1.4468577,-1.5535244)"
       id="g276"><g
         clip-path="url(#clipPath280)"
         id="g278"><g
           id="g284"><g
             id="g286"><path
               d="m 44.435,29.462 c 0.084,-0.349 0.088,-0.355 0.093,-0.368 l 0,0 c 0.02,0.153 -0.005,0.3 -0.071,0.435 l 0,0 c -0.009,-0.014 -0.018,-0.042 -0.022,-0.067"
               id="path294"
               style="fill:url(#radialGradient288);stroke:none" /></g></g></g></g><g
       transform="matrix(0.53903431,0,0,0.53903431,-1.4468577,-1.5535244)"
       id="g296"><g
         clip-path="url(#clipPath300)"
         id="g298"><g
           id="g304"><g
             id="g306"><path
               d="M 42.533,33.296 C 42.516,33.26 42.512,33.249 42.512,33.242 l 0,0 -0.009,-0.003 c -0.019,0.01 -0.019,-0.023 -0.01,-0.055 l 0,0 c 0.015,-0.054 0.051,-0.107 0.057,0.028 l 0,0 -0.017,0.085 0,-10e-4 z"
               id="path314"
               style="fill:url(#radialGradient308);stroke:none" /></g></g></g></g><g
       transform="matrix(0.53903431,0,0,0.53903431,-1.4468577,-1.5535244)"
       id="g316"><g
         clip-path="url(#clipPath320)"
         id="g318"><g
           transform="translate(45.2246,25.7197)"
           id="g324"><path
             d="M 0,0 -0.006,0.016 C -0.021,0.215 -0.03,0.29 -0.08,0.525 -0.092,0.529 -0.105,0.538 -0.113,0.544 -0.387,1 -0.273,1.525 -0.391,2.006 -0.426,1.987 -0.462,1.955 -0.495,1.933 -0.518,1.968 -0.547,2.019 -0.559,2.056 L -0.563,2.068 C -0.605,1.987 -0.608,1.89 -0.655,1.809 -0.705,1.856 -0.743,1.917 -0.793,1.968 -1.177,1.395 -1.177,1.395 -1.722,1.508 c -0.054,-0.342 -1.758,-4.12 -1.626,-4.68 -0.448,0.226 1,-4.256 1.27,-4.466 0.175,0.059 0.191,0.273 0.349,0.349 0.124,-0.134 0.163,-0.326 0.284,-0.464 0.042,0.012 0.042,0.012 0.164,0.103 0,-0.74 -0.537,-1.294 -0.701,-1.97 0.087,-0.024 0.148,-0.024 0.156,-0.024 C -0.441,-6.502 0.168,-3.287 0,0"
             id="path326"
             style="fill:#3cb879;fill-opacity:1;fill-rule:nonzero;stroke:none" /></g><g
           transform="translate(44.7754,20.3867)"
           id="g328"><path
             d="m 0,0 c 0,0 0.004,-0.029 0.004,-0.033 -0.017,-0.038 -0.047,-0.162 -0.055,-0.166 -0.011,0.014 0.038,0.33 0.08,0.504 C 0.079,0.207 -0.035,0.095 0,0"
             id="path330"
             style="fill:#3cb879;fill-opacity:1;fill-rule:nonzero;stroke:none" /></g></g></g></g></svg>