<?xml version="1.0" encoding="UTF-8"?><svg class="dokumaran" xmlns="http://www.w3.org/2000/svg" xmlns:xlink="http://www.w3.org/1999/xlink" viewBox="0 0 512 512"><style><![CDATA[svg.dokumaran .B{stroke:#111342}svg.dokumaran .C{stroke-linejoin:round}svg.dokumaran .D{stroke-miterlimit:10}svg.dokumaran .E{stroke-linecap:round}svg.dokumaran .F{stroke-width:14.719}svg.dokumaran .G{stroke-width:14.72}]]></style><g transform="matrix(1.032354 0 0 1.032354 -16.819975 -5.287889)"><ellipse ry="197.076" rx="200.442" cy="294.072" cx="258.955" fill="#fff"/><path d="M302.847 225.119l30.245 28.131v99.3H220.991V225.309z" fill="#ffcf60"/><g fill="none" class="B C D G"><path d="M329.555 252.577v89.505c0 2.748-3.058 5.065-6.682 5.065H212.414c-3.625 0-6.681-2.278-6.681-5.065V217.319c0-2.787 3.005-5.065 6.681-5.065h71.125" class="E"/><path d="M329.555 254.94h-36.295c-3.62 0-6.58-2.923-6.58-6.5v-35.854z"/><path d="M229.973 252.495h35.201m-35.201 32.912h70.406m-70.406 28.671h70.406" class="E"/></g><g fill="#fff" class="F B C"><ellipse ry="69.957" rx="70.813" cy="364.215" cx="95.434"/><ellipse ry="69.957" rx="70.813" cy="93.094" cx="260.274"/><ellipse ry="69.957" rx="70.813" cy="364.215" cx="433.106"/></g><g fill="none" class="D B C"><path d="M354.994 124.082c53.239 29.587 90.936 83.237 97.992 146.031m-385.481-6.425c8.8-59.829 45.526-110.715 96.689-139.335m-26.283 316.708c33.337 26.585 75.739 42.5 121.93 42.5 45.348 0 87.065-15.356 120.125-41.088" class="E F"/><use xlink:href="#B" class="G"/><use xlink:href="#C" class="E F"/><use xlink:href="#B" x="174.059" y="269.878" class="G"/><use xlink:href="#C" x="174.059" y="269.878" class="E F"/><use xlink:href="#B" x="-163.613" y="269.878" class="G"/><use xlink:href="#C" x="-163.612" y="269.878" class="E F"/></g></g><defs ><path id="B" d="M277.574 65.126c0 4.848-1.511 14.163-4.015 17.589-3.099 4.239-7.719 6.929-12.88 6.929-4.24 0-8.114-1.816-11.081-4.813-3.563-3.602-5.814-13.785-5.814-19.704 0-10.848 7.564-14.765 16.895-14.765s16.895 3.917 16.895 14.765z"/><path id="C" d="M217.716 149.008v-25.845c0-9.966 8.178-18.046 18.267-18.046h7.887l16.404 14.478 16.768-14.478h5.07c10.088 0 18.267 8.08 18.267 18.046v27.587"/></defs></svg>
