<?xml version="1.0" encoding="UTF-8"?><svg class="sharedresources" style="enable-background:new 0 0 512 512" viewBox="0 0 512 512" xmlns="http://www.w3.org/2000/svg"><style>svg.sharedresources .st0{opacity:.6;fill:#6a71b5}svg.sharedresources .st1{fill:none;stroke:#111342;stroke-width:15.1545;stroke-linecap:round;stroke-linejoin:round;stroke-miterlimit:10}svg.sharedresources .st2{fill:#6a71b5}svg.sharedresources .st3{display:none;fill:#b783b9}</style><g transform="matrix(1.0261 0 0 1.0261 -13.182 -10.825)"><path id="XMLID_56_" class="st1" transform="matrix(1.0463 0 0 .99964 -12.069 .47572)" d="M402.05 387.82V487.99H295.69 32.32V33.35h73.97H337.84 402.05V171.07" style="fill:#fff"/><ellipse class="st2" cx="404.92" cy="291.77" rx="95.248" ry="90.997" style="fill:#ff72ac;stroke-width:1.0227"/><ellipse class="st1" cx="394.35" cy="281.67" rx="108.9" ry="104.03"/><g transform="matrix(1.0463 0 0 .99964 -12.069 .47572)"><path class="st1" d="m315.88 284.01c0-9.15 7.42-16.57 16.57-16.57s16.57 7.42 16.57 16.57-7.42 16.57-16.57 16.57c-9.15-.01-16.57-7.43-16.57-16.57z"/><g><g><path class="st1" d="m407.86 221.96c7.92-4.57 18.05-1.85 22.62 6.08s1.85 18.06-6.08 22.63-18.06 1.84-22.63-6.09c-4.57-7.92-1.85-18.05 6.09-22.62z"/><path class="st1" d="M401.77 244.59 356.89 270.54z"/></g><g><path class="st1" d="m407.86 346.05c7.92 4.57 18.05 1.85 22.62-6.08s1.85-18.06-6.08-22.63-18.06-1.85-22.63 6.08-1.85 18.06 6.09 22.63z"/><path class="st1" d="M401.77 323.42 356.89 297.47z"/></g></g></g><g transform="matrix(1.0463 0 0 .99964 -12.069 .47572)"><path class="st2" d="m221.71 438.07H112.23c-7.43.0-13.45-6.02-13.45-13.45V315.95c0-7.43 6.02-13.45 13.45-13.45h109.48c7.43.0 13.45 6.02 13.45 13.45v108.67c0 7.43-6.02 13.45-13.45 13.45z" style="fill:#ff72ac"/><path class="st1" d="m216.02 434.04h-123.35c-8.37.0-15.15-6.78-15.15-15.15v-122.46c0-8.37 6.78-15.15 15.15-15.15h123.36c8.37.0 15.15 6.78 15.15 15.15v122.45c0 8.37-6.79 15.16-15.16 15.16z"/><path class="st1" d="m162.48 350.59c-12.05.0-21.82-9.77-21.82-21.82s9.77-21.82 21.82-21.82 21.82 9.77 21.82 21.82-9.77 21.82-21.82 21.82z"/><path class="st1" d="M77.51 391.3 109.34 357.66 162.48 398.68 200.26 370.69 231.18 398.68"/></g><g transform="matrix(1.0463 0 0 .99964 -12.069 .47572)"><circle class="st3" cx="164.8" cy="159.74" r="65.92"/><circle class="st1" cx="157.22" cy="152.16" r="72.74"/><path class="st1" d="M188.58 154.39 135.33 123.65v61.47z"/></g></g></svg>
