<?xml version="1.0" encoding="UTF-8" standalone="no"?>
<svg class="sharedresources"
   xmlns:dc="http://purl.org/dc/elements/1.1/"
   xmlns:cc="http://creativecommons.org/ns#"
   xmlns:rdf="http://www.w3.org/1999/02/22-rdf-syntax-ns#"
   xmlns:svg="http://www.w3.org/2000/svg"
   xmlns="http://www.w3.org/2000/svg"
   xml:space="preserve"
   style="enable-background:new 0 0 512 512;"
   viewBox="0 0 512 512"
   
   
   
   version="1.1"><metadata
   id="metadata62"><rdf:RDF><cc:Work
       rdf:about=""><dc:format>image/svg+xml</dc:format><dc:type
         rdf:resource="http://purl.org/dc/dcmitype/StillImage" /><dc:title></dc:title></cc:Work></rdf:RDF></metadata><defs
   id="defs60">
	
	
	
	
	
	
	
</defs>
<style
   id="style10"
   type="text/css">
	svg.sharedresources .st0{opacity:0.6;fill:#6A71B5;}
	svg.sharedresources .st1{fill:none;stroke:#111342;stroke-width:15.1545;stroke-linecap:round;stroke-linejoin:round;stroke-miterlimit:10;}
	svg.sharedresources .st2{fill:#6A71B5;}
	svg.sharedresources .st3{display:none;fill:#B783B9;}
</style>
<g
   transform="matrix(1.0261417,0,0,1.0261417,-13.181754,-10.824993)"
   id="g227"><polyline
     points="402.05,387.82 402.05,487.99 295.69,487.99 32.32,487.99 32.32,33.35 106.29,33.35    337.84,33.35 402.05,33.35 402.05,171.07  "
     class="st1"
     id="XMLID_56_"
     transform="matrix(1.0463336,0,0,0.99963503,-12.068707,0.47571543)" /><ellipse
     id="ellipse15"
     cy="291.76935"
     cx="404.91614"
     class="st2"
     rx="95.247749"
     ry="90.996773"
     style="stroke-width:1.02272" /><ellipse
     id="ellipse17"
     ry="104.03202"
     rx="108.9024"
     cy="281.67303"
     cx="394.34821"
     class="st1" /><g
     id="g35"
     transform="matrix(1.0463336,0,0,0.99963503,-12.068707,0.47571543)">
		<path
   id="path19"
   d="m 315.88,284.01 c 0,-9.15 7.42,-16.57 16.57,-16.57 9.15,0 16.57,7.42 16.57,16.57 0,9.15 -7.42,16.57 -16.57,16.57 -9.15,-0.01 -16.57,-7.43 -16.57,-16.57 z"
   class="st1" />
		<g
   id="g33">
			<g
   id="g25">
				<path
   id="path21"
   d="m 407.86,221.96 c 7.92,-4.57 18.05,-1.85 22.62,6.08 4.57,7.93 1.85,18.06 -6.08,22.63 -7.93,4.57 -18.06,1.84 -22.63,-6.09 -4.57,-7.92 -1.85,-18.05 6.09,-22.62 z"
   class="st1" />
				<line
   id="line23"
   y2="270.54001"
   x2="356.89001"
   y1="244.59"
   x1="401.76999"
   class="st1" />
			</g>
			<g
   id="g31">
				<path
   id="path27"
   d="m 407.86,346.05 c 7.92,4.57 18.05,1.85 22.62,-6.08 4.57,-7.93 1.85,-18.06 -6.08,-22.63 -7.93,-4.57 -18.06,-1.85 -22.63,6.08 -4.57,7.93 -1.85,18.06 6.09,22.63 z"
   class="st1" />
				<line
   id="line29"
   y2="297.47"
   x2="356.89001"
   y1="323.42001"
   x1="401.76999"
   class="st1" />
			</g>
		</g>
	</g><g
     id="g45"
     transform="matrix(1.0463336,0,0,0.99963503,-12.068707,0.47571543)">
		<path
   id="path37"
   d="M 221.71,438.07 H 112.23 c -7.43,0 -13.45,-6.02 -13.45,-13.45 V 315.95 c 0,-7.43 6.02,-13.45 13.45,-13.45 h 109.48 c 7.43,0 13.45,6.02 13.45,13.45 v 108.67 c 0,7.43 -6.02,13.45 -13.45,13.45 z"
   class="st2" />
		<path
   id="path39"
   d="M 216.02,434.04 H 92.67 c -8.37,0 -15.15,-6.78 -15.15,-15.15 V 296.43 c 0,-8.37 6.78,-15.15 15.15,-15.15 h 123.36 c 8.37,0 15.15,6.78 15.15,15.15 v 122.45 c 0,8.37 -6.79,15.16 -15.16,15.16 z"
   class="st1" />
		<path
   id="path41"
   d="m 162.48,350.59 v 0 c -12.05,0 -21.82,-9.77 -21.82,-21.82 v 0 c 0,-12.05 9.77,-21.82 21.82,-21.82 v 0 c 12.05,0 21.82,9.77 21.82,21.82 v 0 c 0,12.05 -9.77,21.82 -21.82,21.82 z"
   class="st1" />
		<polyline
   id="polyline43"
   points="77.51,391.3 109.34,357.66 162.48,398.68 200.26,370.69 231.18,398.68   "
   class="st1" />
	</g><g
     id="g53"
     transform="matrix(1.0463336,0,0,0.99963503,-12.068707,0.47571543)">
		<circle
   id="circle47"
   r="65.919998"
   cy="159.74001"
   cx="164.8"
   class="st3" />
		<circle
   id="circle49"
   r="72.739998"
   cy="152.16"
   cx="157.22"
   class="st1" />
		<polygon
   id="polygon51"
   points="135.33,123.65 135.33,185.12 188.58,154.39 "
   class="st1" />
	</g></g>
</svg>
