<?xml version="1.0" encoding="UTF-8"?><svg xmlns="http://www.w3.org/2000/svg" viewBox="0 0 512 512"><path d="M401.279 198.163c59.731 18.448 101.848 63.126 101.848 115.308 0 32.086-15.921 61.323-42.073 83.378-8.283 7.003 17.368 72.99 7.192 78.401-10.521 5.6-56.925-49.432-69.06-45.836-18.337 5.444-38.277 8.439-59.14 8.439-80.517 0-147.417-44.522-160.688-103.039" fill="#fff" stroke="#111342" stroke-linecap="round" stroke-linejoin="round" stroke-miterlimit="10" stroke-width="15.745"/><path d="M494.886 313.471c0-22.1-3.943-36.682-17.203-54.663-6.101-4.636-9.443-12.487-15.644-18.779-9.256-9.391-21.722-17.206-33.809-20.939l.493 6.516c-7.938 77.21-92.619 137.976-195.858 137.976-8.818 0-25.405-.434-33.911-1.314 3.218 14.173 20.02 22.337 28.916 34.417 29.459 22.267 66.927 32.937 111.683 32.937 20.864 0 45.44-2.48 63.776-7.946 12.113-3.596 47.207 48.883 57.728 43.283 10.143-5.433-15.15-64.413-6.689-71.212 39.914-24.121 40.886-52.217 40.517-80.276z" fill="#ffcf60"/><g stroke="#111342" stroke-linejoin="round" stroke-miterlimit="10" stroke-width="15.745"><path d="M401.892 186.239c0 4.008-.223 7.994-.635 11.913-7.938 77.21-92.619 137.976-195.858 137.976-8.818 0-17.524-.434-26.03-1.314-15.731-1.592-30.895-4.609-45.257-8.84-14.607-4.364-70.541 61.979-83.222 55.222-12.247-6.535 18.671-86.05 8.673-94.489-31.496-26.575-50.69-61.812-50.69-100.468 0-82.754 87.976-149.866 196.515-149.866 108.528-.011 196.504 67.101 196.504 149.866z" fill="#fff"/><path d="M114.718 158.829h181.329m-181.329 71.966h181.329" stroke-linecap="round" fill="none"/></g></svg>
