<?xml version="1.0" encoding="UTF-8" standalone="no"?>
<svg
   xmlns:dc="http://purl.org/dc/elements/1.1/"
   xmlns:cc="http://creativecommons.org/ns#"
   xmlns:rdf="http://www.w3.org/1999/02/22-rdf-syntax-ns#"
   xmlns:svg="http://www.w3.org/2000/svg"
   xmlns="http://www.w3.org/2000/svg"
   xml:space="preserve"
   style="enable-background:new 0 0 512 512;"
   viewBox="0 0 512 512"
   y="0px"
   x="0px"
   id="Layer_1"
   version="1.1"><metadata
   id="metadata31"><rdf:RDF><cc:Work
       rdf:about=""><dc:format>image/svg+xml</dc:format><dc:type
         rdf:resource="http://purl.org/dc/dcmitype/StillImage" /><dc:title></dc:title></cc:Work></rdf:RDF></metadata><defs
   id="defs29">
	
	
	
	
	
	
</defs>
<style
   id="style10"
   type="text/css">
	.st0{opacity:0.6;fill:#FBA919;}
	.st1{fill:#FBA919;}
	.st2{fill:none;stroke:#111342;stroke-width:14.798;stroke-linecap:round;stroke-linejoin:round;stroke-miterlimit:10;}
</style>
<g
   transform="matrix(1.063999,0,0,1.063999,-32.338412,-22.461373)"
   id="g85"><path
     id="path14"
     d="m 463.72601,394.07848 c 24.56878,-20.71813 39.53188,-48.20629 39.53188,-78.35223 0,-20.77045 -7.09439,-40.28527 -19.55667,-57.18415 -14.29342,-10.86133 -31.38065,-32.43749 -50.35135,-38.29716 l -0.0209,12.90174 c -7.46062,72.56581 -87.04757,129.67671 -184.07752,129.67671 -8.28725,0 -42.27337,-0.40808 -50.26764,-1.23471 3.02401,13.32029 34.79182,25.83489 43.15232,37.18801 27.68697,20.92741 65.80625,33.86055 107.87035,33.86055 19.60899,0 38.34948,-2.81474 55.58321,-7.95242 11.38451,-3.37977 55.01816,48.36325 64.90636,43.10001 9.53244,-5.10629 -14.56547,-67.12468 -6.77001,-73.70635 z"
     class="st1"
     style="stroke-width:1.04637" /><path
     id="path16"
     d="m 408.11141,196.14702 c 0,3.76693 -0.20927,7.51294 -0.59643,11.19617 -7.46062,72.5658 -87.04757,129.6767 -184.07752,129.6767 -8.28725,0 -16.46987,-0.40808 -24.46414,-1.23471 -14.78522,-1.49631 -29.03679,-4.33198 -42.53497,-8.30819 -13.72838,-4.10177 -66.298038,58.25146 -78.2162,51.89999 -11.510076,-6.1422 17.547635,-80.87399 8.151227,-88.80548 C 56.771553,265.59464 38.732124,232.47701 38.732124,196.14702 38.732124,118.37029 121.41633,55.295074 223.427,55.295074 325.4272,55.28461 408.11141,118.35983 408.11141,196.14702 Z"
     class="st2" /><path
     id="path18"
     d="m 407.53591,207.35365 c 56.13778,17.33836 95.72198,59.32921 95.72198,108.3726 0,30.1564 -14.9631,57.6341 -39.54235,78.3627 -7.78499,6.58167 16.32338,68.60005 6.75956,73.68541 -9.8882,5.26325 -53.50093,-46.45885 -64.90637,-43.07907 -17.23372,5.11675 -35.97422,7.93149 -55.58321,7.93149 -75.67352,0 -138.54993,-41.84436 -151.02267,-96.8416"
     class="st2" /><line
     id="line20"
     y2="170.38538"
     x2="308.63293"
     y1="170.38538"
     x1="138.21059"
     class="st2" /><line
     id="line22"
     y2="238.02277"
     x2="308.63293"
     y1="238.02277"
     x1="138.21059"
     class="st2" /></g>
</svg>
