<?xml version="1.0" encoding="UTF-8" standalone="no"?>
<!-- Created with Inkscape (http://www.inkscape.org/) -->

<svg
   xmlns:dc="http://purl.org/dc/elements/1.1/"
   xmlns:cc="http://creativecommons.org/ns#"
   xmlns:rdf="http://www.w3.org/1999/02/22-rdf-syntax-ns#"
   xmlns:svg="http://www.w3.org/2000/svg"
   xmlns="http://www.w3.org/2000/svg"
   version="1.1"
   width="16"
   height="16"
   id="svg2"
   xml:space="preserve"><metadata
     id="metadata8"><rdf:RDF><cc:Work
         rdf:about=""><dc:format>image/svg+xml</dc:format><dc:type
           rdf:resource="http://purl.org/dc/dcmitype/StillImage" /><dc:title></dc:title></cc:Work></rdf:RDF></metadata><defs
     id="defs6"><clipPath
       id="clipPath16"><path
         d="M 8.475,27.817 8.411,27.79 C 8.372,27.763 3.022,24.253 3.573,17.166 l 0,0 c 0.279,-3.578 6.092,-4.502 8.584,-4.732 l 0,0 c 0.008,0 0.931,-0.049 1.51,-0.051 l 0,0 0.028,0 c 0.573,0 1.562,0.041 1.568,0.041 l 0,0 c 2.492,0.22 8.312,1.113 8.609,4.689 l 0,0 c 0.586,7.084 -4.746,10.627 -4.786,10.65 l 0,0 -0.067,0.027 -2.877,0.982 -0.065,0.001 -1.438,0.005 -3.268,0.008 -2.896,-0.969 z"
         id="path18" /></clipPath><radialGradient
       cx="0"
       cy="0"
       r="1"
       fx="0"
       fy="0"
       id="radialGradient24"
       gradientUnits="userSpaceOnUse"
       gradientTransform="matrix(9.2502813,0,0,-9.2502823,13.725586,20.583984)"
       spreadMethod="pad"><stop
         id="stop26"
         style="stop-color:#ffffff;stop-opacity:1"
         offset="0" /><stop
         id="stop28"
         style="stop-color:#abd046;stop-opacity:1"
         offset="0.85276097" /><stop
         id="stop30"
         style="stop-color:#abd046;stop-opacity:1"
         offset="1" /></radialGradient><clipPath
       id="clipPath38"><path
         d="M 0,50 55,50 55,0 0,0 0,50 z"
         id="path40" /></clipPath><clipPath
       id="clipPath50"><path
         d="m 6.028,32.125 c 0,-4.158 3.372,-7.532 7.531,-7.532 l 0,0 c 4.16,0 7.534,3.374 7.534,7.532 l 0,0 c 0,4.162 -3.374,7.536 -7.534,7.536 l 0,0 c -4.159,0 -7.531,-3.374 -7.531,-7.536"
         id="path52" /></clipPath><radialGradient
       cx="0"
       cy="0"
       r="1"
       fx="0"
       fy="0"
       id="radialGradient58"
       gradientUnits="userSpaceOnUse"
       gradientTransform="matrix(7.5328474,0,0,-7.5328474,13.561523,32.127441)"
       spreadMethod="pad"><stop
         id="stop60"
         style="stop-color:#ffffff;stop-opacity:1"
         offset="0" /><stop
         id="stop62"
         style="stop-color:#abd046;stop-opacity:1"
         offset="0.85276097" /><stop
         id="stop64"
         style="stop-color:#abd046;stop-opacity:1"
         offset="1" /></radialGradient><clipPath
       id="clipPath72"><path
         d="M 0,50 55,50 55,0 0,0 0,50 z"
         id="path74" /></clipPath><clipPath
       id="clipPath84"><path
         d="m 17.482,21.919 -0.084,-0.037 c -0.05,-0.03 -6.821,-4.479 -6.122,-13.444 l 0,0 c 0.353,-4.524 7.707,-5.69 10.864,-5.99 l 0,0 c 0.01,0 1.176,-0.057 1.906,-0.061 l 0,0 0.037,0 c 0.728,0 1.975,0.051 1.988,0.051 l 0,0 c 3.153,0.283 10.512,1.411 10.891,5.936 l 0,0 C 37.7,17.337 30.956,21.82 30.905,21.852 l 0,0 -0.085,0.03 -3.639,1.242 -0.082,0.004 -1.82,0.005 -4.135,0.011 -3.662,-1.225 z"
         id="path86" /></clipPath><radialGradient
       cx="0"
       cy="0"
       r="1"
       fx="0"
       fy="0"
       id="radialGradient92"
       gradientUnits="userSpaceOnUse"
       gradientTransform="matrix(11.70572,0,0,-11.705721,24.12207,12.766602)"
       spreadMethod="pad"><stop
         id="stop94"
         style="stop-color:#c1e6f9;stop-opacity:1"
         offset="0" /><stop
         id="stop96"
         style="stop-color:#75bfea;stop-opacity:1"
         offset="1" /></radialGradient><clipPath
       id="clipPath104"><path
         d="M 0,50 55,50 55,0 0,0 0,50 z"
         id="path106" /></clipPath><clipPath
       id="clipPath116"><path
         d="m 14.384,27.37 c 0,-5.261 4.267,-9.533 9.53,-9.533 l 0,0 c 5.263,0 9.535,4.272 9.535,9.533 l 0,0 c 0,5.265 -4.272,9.532 -9.535,9.532 l 0,0 c -5.263,0 -9.53,-4.267 -9.53,-9.532"
         id="path118" /></clipPath><radialGradient
       cx="0"
       cy="0"
       r="1"
       fx="0"
       fy="0"
       id="radialGradient124"
       gradientUnits="userSpaceOnUse"
       gradientTransform="matrix(9.5320635,0,0,-9.5320635,23.916504,27.369629)"
       spreadMethod="pad"><stop
         id="stop126"
         style="stop-color:#c1e6f9;stop-opacity:1"
         offset="0" /><stop
         id="stop128"
         style="stop-color:#75bfea;stop-opacity:1"
         offset="1" /></radialGradient><clipPath
       id="clipPath136"><path
         d="M 0,50 55,50 55,0 0,0 0,50 z"
         id="path138" /></clipPath><clipPath
       id="clipPath148"><path
         d="m 31.087,39.661 c 0,-2.102 1.301,-3.761 2.901,-5.252 l 0,0 c -0.016,-0.052 1.847,-1.824 2.919,-1.918 l 0,0 c -0.079,-0.237 -0.052,-0.157 -0.025,-0.078 l 0,0 c 0.011,0.032 0.021,0.064 0.025,0.076 l 0,0 c -0.231,-1.44 -0.047,-1.658 -0.429,-3.071 l 0,0 -0.234,-0.287 c 0.638,0.142 1.237,0.672 3.046,2.132 l 0,0 c 0.036,0.021 0.234,0.189 0.268,0.219 l 0,0 c 0.016,0.013 0.082,0.004 0.147,-0.004 l 0,0 c 0.065,-0.008 0.131,-0.016 0.149,-0.003 l 0,0 c 0.131,-0.002 0.264,-0.002 0.393,0 l 0,0 c 1.67,-0.169 0.632,-0.186 1.338,-0.176 l 0,0 c 4.427,0.065 10.502,3.75 10.502,8.362 l 0,0 c 0,4.614 -4.71,8.362 -10.502,8.362 l 0,0 c -5.793,0 -10.498,-3.748 -10.498,-8.362"
         id="path150" /></clipPath><radialGradient
       cx="0"
       cy="0"
       r="1"
       fx="0"
       fy="0"
       id="radialGradient156"
       gradientUnits="userSpaceOnUse"
       gradientTransform="matrix(9.6668177,0,0,-10.429812,41.586914,38.577637)"
       spreadMethod="pad"><stop
         id="stop158"
         style="stop-color:#c1e6f9;stop-opacity:1"
         offset="0" /><stop
         id="stop160"
         style="stop-color:#75bfea;stop-opacity:1"
         offset="1" /></radialGradient></defs><g
     transform="matrix(1.25,0,0,-1.25,0,16)"
     id="g10"><g
       transform="matrix(0.25278668,0,0,0.25278668,-0.46645103,0.10299818)"
       id="g12"><g
         clip-path="url(#clipPath16)"
         id="g14"><g
           id="g20"><g
             id="g22"><path
               d="M 8.475,27.817 8.411,27.79 C 8.372,27.763 3.022,24.253 3.573,17.166 l 0,0 c 0.279,-3.578 6.092,-4.502 8.584,-4.732 l 0,0 c 0.008,0 0.931,-0.049 1.51,-0.051 l 0,0 0.028,0 c 0.573,0 1.562,0.041 1.568,0.041 l 0,0 c 2.492,0.22 8.312,1.113 8.609,4.689 l 0,0 c 0.586,7.084 -4.746,10.627 -4.786,10.65 l 0,0 -0.067,0.027 -2.877,0.982 -0.065,0.001 -1.438,0.005 -3.268,0.008 -2.896,-0.969 z"
               id="path32"
               style="fill:url(#radialGradient24);stroke:none" /></g></g></g></g><g
       transform="matrix(0.25278668,0,0,0.25278668,-0.46645103,0.10299818)"
       id="g34"><g
         clip-path="url(#clipPath38)"
         id="g36"><g
           transform="translate(8.4116,27.7905)"
           id="g42"><path
             d="M 0,0 0.064,0.027 2.959,0.995 6.228,0.988 7.665,0.983 7.73,0.982 10.607,0 10.675,-0.027 c 0.039,-0.024 5.372,-3.567 4.785,-10.65 -0.297,-3.576 -6.117,-4.469 -8.609,-4.69 -0.006,0 -0.995,-0.041 -1.567,-0.041 l -0.029,0 c -0.579,0.002 -1.502,0.051 -1.509,0.051 -2.492,0.231 -8.306,1.154 -8.584,4.732 C -5.389,-3.538 -0.04,-0.027 0,0 z"
             id="path44"
             style="fill:none;stroke:#89c761;stroke-width:1;stroke-linecap:butt;stroke-linejoin:miter;stroke-miterlimit:4;stroke-opacity:1;stroke-dasharray:none" /></g></g></g><g
       transform="matrix(0.25278668,0,0,0.25278668,-0.46645103,0.10299818)"
       id="g46"><g
         clip-path="url(#clipPath50)"
         id="g48"><g
           id="g54"><g
             id="g56"><path
               d="m 6.028,32.125 c 0,-4.158 3.372,-7.532 7.531,-7.532 l 0,0 c 4.16,0 7.534,3.374 7.534,7.532 l 0,0 c 0,4.162 -3.374,7.536 -7.534,7.536 l 0,0 c -4.159,0 -7.531,-3.374 -7.531,-7.536"
               id="path66"
               style="fill:url(#radialGradient58);stroke:none" /></g></g></g></g><g
       transform="matrix(0.25278668,0,0,0.25278668,-0.46645103,0.10299818)"
       id="g68"><g
         clip-path="url(#clipPath72)"
         id="g70"><g
           transform="translate(13.5591,39.6611)"
           id="g76"><path
             d="m 0,0 c 4.16,0 7.535,-3.374 7.535,-7.537 0,-4.157 -3.375,-7.53 -7.535,-7.53 -4.159,0 -7.531,3.373 -7.531,7.53 C -7.531,-3.374 -4.159,0 0,0 z"
             id="path78"
             style="fill:none;stroke:#89c761;stroke-width:1;stroke-linecap:butt;stroke-linejoin:miter;stroke-miterlimit:4;stroke-opacity:1;stroke-dasharray:none" /></g></g></g><g
       transform="matrix(0.25278668,0,0,0.25278668,-0.46645103,0.10299818)"
       id="g80"><g
         clip-path="url(#clipPath84)"
         id="g82"><g
           id="g88"><g
             id="g90"><path
               d="m 17.482,21.919 -0.084,-0.037 c -0.05,-0.03 -6.821,-4.479 -6.122,-13.444 l 0,0 c 0.353,-4.524 7.707,-5.69 10.864,-5.99 l 0,0 c 0.01,0 1.176,-0.057 1.906,-0.061 l 0,0 0.037,0 c 0.728,0 1.975,0.051 1.988,0.051 l 0,0 c 3.153,0.283 10.512,1.411 10.891,5.936 l 0,0 C 37.7,17.337 30.956,21.82 30.905,21.852 l 0,0 -0.085,0.03 -3.639,1.242 -0.082,0.004 -1.82,0.005 -4.135,0.011 -3.662,-1.225 z"
               id="path98"
               style="fill:url(#radialGradient92);stroke:none" /></g></g></g></g><g
       transform="matrix(0.25278668,0,0,0.25278668,-0.46645103,0.26303876)"
       id="g100"><g
         clip-path="url(#clipPath104)"
         id="g102"><g
           transform="translate(17.3975,21.8818)"
           id="g108"><path
             d="M 0,0 0.085,0.037 3.746,1.263 7.881,1.251 9.702,1.246 9.784,1.242 13.423,0 13.508,-0.03 c 0.05,-0.032 6.795,-4.515 6.056,-13.478 -0.378,-4.524 -7.738,-5.653 -10.89,-5.935 -0.014,0 -1.26,-0.052 -1.988,-0.052 l -0.037,0 c -0.73,0.005 -1.897,0.061 -1.906,0.061 -3.158,0.3 -10.512,1.466 -10.864,5.991 C -6.82,-4.479 -0.049,-0.03 0,0 z"
             id="path110"
             style="fill:none;stroke:#40b9eb;stroke-width:1.5;stroke-linecap:butt;stroke-linejoin:miter;stroke-miterlimit:4;stroke-opacity:1;stroke-dasharray:none" /></g></g></g><g
       transform="matrix(0.25278668,0,0,0.25278668,-0.46645103,0.10299818)"
       id="g112"><g
         clip-path="url(#clipPath116)"
         id="g114"><g
           id="g120"><g
             id="g122"><path
               d="m 14.384,27.37 c 0,-5.261 4.267,-9.533 9.53,-9.533 l 0,0 c 5.263,0 9.535,4.272 9.535,9.533 l 0,0 c 0,5.265 -4.272,9.532 -9.535,9.532 l 0,0 c -5.263,0 -9.53,-4.267 -9.53,-9.532"
               id="path130"
               style="fill:url(#radialGradient124);stroke:none" /></g></g></g></g><g
       transform="matrix(0.25278668,0,0,0.25278668,-0.46645103,0.10299818)"
       id="g132"><g
         clip-path="url(#clipPath136)"
         id="g134"><g
           transform="translate(23.9141,36.9019)"
           id="g140"><path
             d="m 0,0 c 5.263,0 9.534,-4.267 9.534,-9.532 0,-5.261 -4.271,-9.533 -9.534,-9.533 -5.263,0 -9.53,4.272 -9.53,9.533 C -9.53,-4.267 -5.263,0 0,0 z"
             id="path142"
             style="fill:none;stroke:#40b9eb;stroke-width:1.5;stroke-linecap:butt;stroke-linejoin:miter;stroke-miterlimit:4;stroke-opacity:1;stroke-dasharray:none" /></g></g></g><g
       transform="matrix(0.25278668,0,0,0.2360995,-0.46645103,0.90436669)"
       id="g144"><g
         clip-path="url(#clipPath148)"
         id="g146"><g
           id="g152"><g
             id="g154"><path
               d="m 31.087,39.661 c 0,-2.102 1.301,-3.761 2.901,-5.252 l 0,0 c -0.016,-0.052 1.847,-1.824 2.919,-1.918 l 0,0 c -0.079,-0.237 -0.052,-0.157 -0.025,-0.078 l 0,0 c 0.011,0.032 0.021,0.064 0.025,0.076 l 0,0 c -0.231,-1.44 -0.047,-1.658 -0.429,-3.071 l 0,0 -0.234,-0.287 c 0.638,0.142 1.237,0.672 3.046,2.132 l 0,0 c 0.036,0.021 0.234,0.189 0.268,0.219 l 0,0 c 0.016,0.013 0.082,0.004 0.147,-0.004 l 0,0 c 0.065,-0.008 0.131,-0.016 0.149,-0.003 l 0,0 c 0.131,-0.002 0.264,-0.002 0.393,0 l 0,0 c 1.67,-0.169 0.632,-0.186 1.338,-0.176 l 0,0 c 4.427,0.065 10.502,3.75 10.502,8.362 l 0,0 c 0,4.614 -4.71,8.362 -10.502,8.362 l 0,0 c -5.793,0 -10.498,-3.748 -10.498,-8.362"
               id="path162"
               style="fill:url(#radialGradient156);stroke:none" /></g></g></g></g></g></svg>