<?xml version="1.0" encoding="UTF-8" standalone="no"?>
<svg
   xmlns:dc="http://purl.org/dc/elements/1.1/"
   xmlns:cc="http://creativecommons.org/ns#"
   xmlns:rdf="http://www.w3.org/1999/02/22-rdf-syntax-ns#"
   xmlns:svg="http://www.w3.org/2000/svg"
   xmlns="http://www.w3.org/2000/svg"
   xml:space="preserve"
   style="enable-background:new 0 0 512 512;"
   viewBox="0 0 512 512"
   y="0px"
   x="0px"
   id="Layer_1"
   version="1.1"><metadata
   id="metadata67"><rdf:RDF><cc:Work
       rdf:about=""><dc:format>image/svg+xml</dc:format><dc:type
         rdf:resource="http://purl.org/dc/dcmitype/StillImage" /><dc:title></dc:title></cc:Work></rdf:RDF></metadata><defs
   id="defs65">
	

		
		
	</defs>
<style
   id="style10"
   type="text/css">
	.st0{opacity:0.6;fill:#B783B9;}
	.st1{fill:none;stroke:#111342;stroke-width:14.6108;stroke-linecap:round;stroke-linejoin:round;stroke-miterlimit:10;}
	.st2{fill:#B783B9;}
</style>
<g
   transform="matrix(1.1696415,0,0,1.1696421,-63.01501,-60.130881)"
   id="g56">
			<path
   id="path14"
   d="m 463.88,192.84 v 272.33 c 0,8.59 -9.44,15.82 -20.62,15.82 H 102.32 c -11.19,0 -20.62,-7.12 -20.62,-15.82 V 75.39 c 0,-8.71 9.27,-15.82 20.62,-15.82 h 226.84"
   class="st1" />
			<g
   id="g52">
				<rect
   id="rect16"
   height="42.470001"
   width="62.34"
   class="st2"
   y="383.07999"
   x="323.95001" />
				<rect
   id="rect18"
   height="42.470001"
   width="62.34"
   class="st2"
   y="261.32001"
   x="158.36" />
				<rect
   id="rect20"
   height="42.470001"
   width="62.34"
   class="st2"
   y="261.32001"
   x="241.16" />
				<rect
   id="rect22"
   height="42.470001"
   width="62.34"
   class="st2"
   y="261.32001"
   x="323.95001" />
				<rect
   id="rect24"
   height="42.470001"
   width="62.34"
   class="st2"
   y="322.20001"
   x="158.36" />
				<rect
   id="rect26"
   height="42.470001"
   width="62.34"
   class="st2"
   y="322.20001"
   x="241.16" />
				<rect
   id="rect28"
   height="42.470001"
   width="62.34"
   class="st2"
   y="322.20001"
   x="323.95001" />
				<rect
   id="rect30"
   height="42.470001"
   width="62.34"
   class="st2"
   y="383.07999"
   x="158.36" />
				<rect
   id="rect32"
   height="42.470001"
   width="62.34"
   class="st2"
   y="383.07999"
   x="241.16" />
				<rect
   id="rect34"
   height="61.950001"
   width="81.82"
   class="st1"
   y="363.60001"
   x="304.47" />
				<rect
   id="rect36"
   height="61.950001"
   width="81.82"
   class="st1"
   y="241.84"
   x="138.88" />
				<rect
   id="rect38"
   height="61.950001"
   width="81.82"
   class="st1"
   y="241.84"
   x="221.67999" />
				<rect
   id="rect40"
   height="61.950001"
   width="81.82"
   class="st1"
   y="241.84"
   x="304.47" />
				<rect
   id="rect42"
   height="61.950001"
   width="81.82"
   class="st1"
   y="302.72"
   x="138.88" />
				<rect
   id="rect44"
   height="61.950001"
   width="81.82"
   class="st1"
   y="302.72"
   x="221.67999" />
				<rect
   id="rect46"
   height="61.950001"
   width="81.82"
   class="st1"
   y="302.72"
   x="304.47" />
				<rect
   id="rect48"
   height="61.950001"
   width="81.82"
   class="st1"
   y="363.60001"
   x="138.88" />
				<rect
   id="rect50"
   height="61.950001"
   width="81.82"
   class="st1"
   y="363.60001"
   x="221.67999" />
			</g>
			<path
   id="path54"
   d="M 463.88,192.92 H 351.86 c -11.17,0 -20.31,-9.13 -20.31,-20.3 V 60.6 Z"
   class="st1" />
		</g>
</svg>
