<?xml version="1.0" encoding="UTF-8" standalone="no"?>
<!-- Created with Inkscape (http://www.inkscape.org/) -->

<svg
   xmlns:dc="http://purl.org/dc/elements/1.1/"
   xmlns:cc="http://creativecommons.org/ns#"
   xmlns:rdf="http://www.w3.org/1999/02/22-rdf-syntax-ns#"
   xmlns:svg="http://www.w3.org/2000/svg"
   xmlns="http://www.w3.org/2000/svg"
   version="1.1"
   width="16"
   height="16"
   id="svg2"
   xml:space="preserve"><metadata
     id="metadata8"><rdf:RDF><cc:Work
         rdf:about=""><dc:format>image/svg+xml</dc:format><dc:type
           rdf:resource="http://purl.org/dc/dcmitype/StillImage" /><dc:title></dc:title></cc:Work></rdf:RDF></metadata><defs
     id="defs6"><clipPath
       id="clipPath26"><path
         d="m 4.793,47.398 c -1.256,0 -2.278,-1.047 -2.278,-2.322 l 0,0 0,-38.44 c 0,-1.277 1.022,-2.319 2.278,-2.319 l 0,0 31.426,0 c 1.258,0 2.283,1.042 2.136,2.243 l 0,0 0,30.467 C 38.309,36.909 38.01,36.774 37.6,36.735 l 0,0 -6.42,-0.613 c -1.146,-0.109 -2.01,0.748 -1.922,1.906 l 0,0 0.673,8.596 c 0.03,0.35 0.114,0.602 0.232,0.774 l 0,0 -25.37,0 z"
         id="path28" /></clipPath><linearGradient
       x1="0"
       y1="0"
       x2="1"
       y2="0"
       id="linearGradient34"
       gradientUnits="userSpaceOnUse"
       gradientTransform="matrix(-1.9e-6,43.080078,43.080078,1.9e-6,20.441894,4.3173828)"
       spreadMethod="pad"><stop
         id="stop36"
         style="stop-color:#e0dfdf;stop-opacity:1"
         offset="0" /><stop
         id="stop38"
         style="stop-color:#fafafa;stop-opacity:1"
         offset="0.95705497" /><stop
         id="stop40"
         style="stop-color:#fafafa;stop-opacity:1"
         offset="1" /></linearGradient><clipPath
       id="clipPath48"><path
         d="M 0,50 50,50 50,0 0,0 0,50 z"
         id="path50" /></clipPath><clipPath
       id="clipPath74"><path
         d="m 20.696,12.249 c -0.019,-0.244 -0.018,-0.484 0.007,-0.722 l 0,0 C 21.039,8.192 25.588,5.561 31.354,5.525 l 0,0 c 5.11,-0.029 9.686,1.749 11.247,4.53 l 0,0 0,4.44 -21.905,2.195 0,-4.441 z"
         id="path76" /></clipPath><linearGradient
       x1="0"
       y1="0"
       x2="1"
       y2="0"
       id="linearGradient82"
       gradientUnits="userSpaceOnUse"
       gradientTransform="matrix(1.5032964,20.757158,20.757158,-1.5032964,31.079102,5.5039062)"
       spreadMethod="pad"><stop
         id="stop84"
         style="stop-color:#eef8fe;stop-opacity:1"
         offset="0" /><stop
         id="stop86"
         style="stop-color:#0091d4;stop-opacity:1"
         offset="1" /></linearGradient><clipPath
       id="clipPath94"><path
         d="M 0,50 50,50 50,0 0,0 0,50 z"
         id="path96" /></clipPath><clipPath
       id="clipPath106"><path
         d="M 32.065,24.476 C 26.174,24.455 21.11,21.456 20.783,17.793 l 0,0 10.685,0.041 7.975,4.726 c -1.81,1.184 -4.385,1.917 -7.298,1.917 l 0,0 c -0.027,0 -0.053,0 -0.08,-0.001"
         id="path108" /></clipPath><linearGradient
       x1="0"
       y1="0"
       x2="1"
       y2="0"
       id="linearGradient114"
       gradientUnits="userSpaceOnUse"
       gradientTransform="matrix(1.0658147,13.283582,19.029859,0.0847443,29.393555,11.18457)"
       spreadMethod="pad"><stop
         id="stop116"
         style="stop-color:#d4e056;stop-opacity:1"
         offset="0" /><stop
         id="stop118"
         style="stop-color:#d0dd3a;stop-opacity:1"
         offset="0.55828202" /><stop
         id="stop120"
         style="stop-color:#65a04e;stop-opacity:1"
         offset="1" /></linearGradient><clipPath
       id="clipPath128"><path
         d="m 32.585,17.436 10.107,-2.098 c 0.318,0.579 0.348,5.213 -2.417,6.676 l 0,0 -7.69,-4.578 z"
         id="path130" /></clipPath><linearGradient
       x1="0"
       y1="0"
       x2="1"
       y2="0"
       id="linearGradient136"
       gradientUnits="userSpaceOnUse"
       gradientTransform="matrix(1.0951401,13.649074,19.553457,0.087076,37.194336,10.355469)"
       spreadMethod="pad"><stop
         id="stop138"
         style="stop-color:#eebcaa;stop-opacity:1"
         offset="0" /><stop
         id="stop140"
         style="stop-color:#f1b85f;stop-opacity:1"
         offset="0.55828202" /><stop
         id="stop142"
         style="stop-color:#f9a35a;stop-opacity:1"
         offset="1" /></linearGradient><clipPath
       id="clipPath150"><path
         d="m 31.354,9.966 c 5.11,-0.029 9.679,1.559 11.239,4.339 l 0,0 -10.698,2.318 -11.199,0.067 c -0.298,-3.67 4.482,-6.685 10.658,-6.724"
         id="path152" /></clipPath><linearGradient
       x1="0"
       y1="0"
       x2="1"
       y2="0"
       id="linearGradient158"
       gradientUnits="userSpaceOnUse"
       gradientTransform="matrix(22.058884,-0.1495945,-1.0651851,-14.717938,20.456055,13.371094)"
       spreadMethod="pad"><stop
         id="stop160"
         style="stop-color:#c1e6f9;stop-opacity:1"
         offset="0" /><stop
         id="stop162"
         style="stop-color:#75bfea;stop-opacity:1"
         offset="1" /></linearGradient><clipPath
       id="clipPath170"><path
         d="M 0,50 50,50 50,0 0,0 0,50 z"
         id="path172" /></clipPath><clipPath
       id="clipPath180"><path
         d="m 29.857,46.612 -0.674,-8.74 c -0.086,-1.177 0.778,-2.048 1.924,-1.937 l 0,0 6.418,0.624 c 0.41,0.038 0.711,0.176 0.904,0.372 l 0,0 -8.34,10.467 c -0.117,-0.176 -0.204,-0.431 -0.232,-0.786"
         id="path182" /></clipPath><linearGradient
       x1="0"
       y1="0"
       x2="1"
       y2="0"
       id="linearGradient188"
       gradientUnits="userSpaceOnUse"
       gradientTransform="matrix(9.2509766,0,0,-9.2509766,29.177734,41.662109)"
       spreadMethod="pad"><stop
         id="stop190"
         style="stop-color:#e0dfdf;stop-opacity:1"
         offset="0" /><stop
         id="stop192"
         style="stop-color:#e1e1e1;stop-opacity:1"
         offset="0.54707402" /><stop
         id="stop194"
         style="stop-color:#ffffff;stop-opacity:1"
         offset="1" /></linearGradient></defs><g
     transform="matrix(1.25,0,0,-1.25,0,16)"
     id="g10"><g
       transform="matrix(0.2878299,0,0,0.2878299,2.6534403,10.196007)"
       id="g12"><path
         d="M 0,0 15.378,0 0,0 z"
         id="path14"
         style="fill:#b0b2bd;fill-opacity:1;fill-rule:nonzero;stroke:none" /></g><path
       d="m 2.6533828,10.113688 4.4262483,0 0,0.164639 -4.4262483,0 0,-0.164639 z"
       id="path16"
       style="fill:#b0b2bd;fill-opacity:1;fill-rule:nonzero;stroke:none" /><path
       d="m 7.0796311,9.6427982 -4.4262483,0 0,1.1061308 4.4262483,0 0,-1.1061308 z"
       id="path18"
       style="fill:#b0b2bd;fill-opacity:1;fill-rule:nonzero;stroke:none" /><path
       d="m 2.7348386,9.7236788 4.2627613,0 0,0.9426432 -4.2627613,0 0,-0.9426432 z m 4.4248093,-0.1620486 -4.5868575,0 0,1.2676028 4.5868575,0 0,-1.2676028 z"
       id="path20"
       style="fill:#b0b2bd;fill-opacity:1;fill-rule:nonzero;stroke:none" /><g
       transform="matrix(0.2878299,0,0,0.2878299,0.2577745,-0.99222841)"
       id="g22"><g
         clip-path="url(#clipPath26)"
         id="g24"><g
           id="g30"><g
             id="g32"><path
               d="m 4.793,47.398 c -1.256,0 -2.278,-1.047 -2.278,-2.322 l 0,0 0,-38.44 c 0,-1.277 1.022,-2.319 2.278,-2.319 l 0,0 31.426,0 c 1.258,0 2.283,1.042 2.136,2.243 l 0,0 0,30.467 C 38.309,36.909 38.01,36.774 37.6,36.735 l 0,0 -6.42,-0.613 c -1.146,-0.109 -2.01,0.748 -1.922,1.906 l 0,0 0.673,8.596 c 0.03,0.35 0.114,0.602 0.232,0.774 l 0,0 -25.37,0 z"
               id="path42"
               style="fill:url(#linearGradient34);stroke:none" /></g></g></g></g><g
       transform="matrix(0.2878299,0,0,0.2878299,0.2577745,-0.99222841)"
       id="g44"><g
         clip-path="url(#clipPath48)"
         id="g46"><path
           d="m 33.61,14.877 -24.891,0 0,15.039 24.891,0 0,-15.039 z"
           id="path52"
           style="fill:none;stroke:#b0b2bd;stroke-width:1;stroke-linecap:butt;stroke-linejoin:miter;stroke-miterlimit:4;stroke-opacity:1;stroke-dasharray:none" /><g
           transform="translate(8.7197,25.248)"
           id="g54"><path
             d="M 0,0 25.408,0"
             id="path56"
             style="fill:none;stroke:#b0b2bd;stroke-width:1;stroke-linecap:butt;stroke-linejoin:miter;stroke-miterlimit:4;stroke-opacity:1;stroke-dasharray:none" /></g><g
           transform="translate(8.7197,20.0625)"
           id="g58"><path
             d="M 0,0 25.408,0"
             id="path60"
             style="fill:none;stroke:#b0b2bd;stroke-width:1;stroke-linecap:butt;stroke-linejoin:miter;stroke-miterlimit:4;stroke-opacity:1;stroke-dasharray:none" /></g><g
           transform="translate(17.0166,14.877)"
           id="g62"><path
             d="M 0,0 0,15.038"
             id="path64"
             style="fill:none;stroke:#b0b2bd;stroke-width:1;stroke-linecap:butt;stroke-linejoin:miter;stroke-miterlimit:4;stroke-opacity:1;stroke-dasharray:none" /></g><g
           transform="translate(25.313,14.877)"
           id="g66"><path
             d="M 0,0 0,15.038"
             id="path68"
             style="fill:none;stroke:#b0b2bd;stroke-width:1;stroke-linecap:butt;stroke-linejoin:miter;stroke-miterlimit:4;stroke-opacity:1;stroke-dasharray:none" /></g></g></g><g
       transform="matrix(0.2878299,0,0,0.2878299,0.2577745,-0.99222841)"
       id="g70"><g
         clip-path="url(#clipPath74)"
         id="g72"><g
           id="g78"><g
             id="g80"><path
               d="m 20.696,12.249 c -0.019,-0.244 -0.018,-0.484 0.007,-0.722 l 0,0 C 21.039,8.192 25.588,5.561 31.354,5.525 l 0,0 c 5.11,-0.029 9.686,1.749 11.247,4.53 l 0,0 0,4.44 -21.905,2.195 0,-4.441 z"
               id="path88"
               style="fill:url(#linearGradient82);stroke:none" /></g></g></g></g><g
       transform="matrix(0.2878299,0,0,0.2878299,0.2577745,-0.99222841)"
       id="g90"><g
         clip-path="url(#clipPath94)"
         id="g92"><g
           transform="translate(42.8213,20.1406)"
           id="g98"><path
             d="m 0,0 c 2.545,-3.469 -0.132,-7.592 -5.979,-9.21 -5.848,-1.618 -12.651,-0.117 -15.196,3.353 -2.545,3.467 0.132,7.592 5.98,9.21 C -9.348,4.971 -2.546,3.471 0,0"
             id="path100"
             style="fill:#ffffff;fill-opacity:1;fill-rule:nonzero;stroke:none" /></g></g></g><g
       transform="matrix(0.2878299,0,0,0.2878299,0.2577745,-0.99222841)"
       id="g102"><g
         clip-path="url(#clipPath106)"
         id="g104"><g
           id="g110"><g
             id="g112"><path
               d="M 32.065,24.476 C 26.174,24.455 21.11,21.456 20.783,17.793 l 0,0 10.685,0.041 7.975,4.726 c -1.81,1.184 -4.385,1.917 -7.298,1.917 l 0,0 c -0.027,0 -0.053,0 -0.08,-0.001"
               id="path122"
               style="fill:url(#linearGradient114);stroke:none" /></g></g></g></g><g
       transform="matrix(0.2878299,0,0,0.2878299,0.2577745,-0.99222841)"
       id="g124"><g
         clip-path="url(#clipPath128)"
         id="g126"><g
           id="g132"><g
             id="g134"><path
               d="m 32.585,17.436 10.107,-2.098 c 0.318,0.579 0.348,5.213 -2.417,6.676 l 0,0 -7.69,-4.578 z"
               id="path144"
               style="fill:url(#linearGradient136);stroke:none" /></g></g></g></g><g
       transform="matrix(0.2878299,0,0,0.2878299,0.2577745,-0.99222841)"
       id="g146"><g
         clip-path="url(#clipPath150)"
         id="g148"><g
           id="g154"><g
             id="g156"><path
               d="m 31.354,9.966 c 5.11,-0.029 9.679,1.559 11.239,4.339 l 0,0 -10.698,2.318 -11.199,0.067 c -0.298,-3.67 4.482,-6.685 10.658,-6.724"
               id="path164"
               style="fill:url(#linearGradient158);stroke:none" /></g></g></g></g><g
       transform="matrix(0.2878299,0,0,0.2878299,0.2577745,-0.99222841)"
       id="g166"><g
         clip-path="url(#clipPath170)"
         id="g168"><path
           d="m 31.899,38.458 -23.647,0 0,4.191 23.647,0 0,-4.191 z"
           id="path174"
           style="fill:#b0b2bd;fill-opacity:1;fill-rule:nonzero;stroke:none" /></g></g><g
       transform="matrix(0.2878299,0,0,0.2878299,0.2577745,-0.99222841)"
       id="g176"><g
         clip-path="url(#clipPath180)"
         id="g178"><g
           id="g184"><g
             id="g186"><path
               d="m 29.857,46.612 -0.674,-8.74 c -0.086,-1.177 0.778,-2.048 1.924,-1.937 l 0,0 6.418,0.624 c 0.41,0.038 0.711,0.176 0.904,0.372 l 0,0 -8.34,10.467 c -0.117,-0.176 -0.204,-0.431 -0.232,-0.786"
               id="path196"
               style="fill:url(#linearGradient188);stroke:none" /></g></g></g></g></g></svg>