<?xml version="1.0" encoding="UTF-8"?><svg xmlns="http://www.w3.org/2000/svg" viewBox="0 0 512 512"><g transform="matrix(1.169642 0 0 1.169642 -63.01501 -60.130881)"><path d="M463.88 192.84v272.33c0 8.59-9.44 15.82-20.62 15.82H102.32c-11.19 0-20.62-7.12-20.62-15.82V75.39c0-8.71 9.27-15.82 20.62-15.82h226.84" fill="#fff" stroke="#111342" stroke-width="14.611" stroke-linecap="round" stroke-linejoin="round" stroke-miterlimit="10"/><g fill="#ff72ac"><path d="M323.95 383.08h62.34v42.47h-62.34zM158.36 261.32h62.34v42.47h-62.34z"/><path d="M241.16 261.32h62.34v42.47h-62.34zm82.79 0h62.34v42.47h-62.34zM158.36 322.2h62.34v42.47h-62.34zm82.8 0h62.34v42.47h-62.34zm82.79 0h62.34v42.47h-62.34zm-165.59 60.88h62.34v42.47h-62.34zm82.8 0h62.34v42.47h-62.34z"/></g><g stroke="#111342" stroke-width="14.611" stroke-linejoin="round" stroke-miterlimit="10" fill="none"><path d="M304.47 363.6h81.82v61.95h-81.82zM138.88 241.84h81.82v61.95h-81.82zm82.8 0h81.82v61.95h-81.82zm82.79 0h81.82v61.95h-81.82z"/><path d="M138.88 302.72h81.82v61.95h-81.82zm82.8 0h81.82v61.95h-81.82z"/><path d="M304.47 302.72h81.82v61.95h-81.82zM138.88 363.6h81.82v61.95h-81.82zm82.8 0h81.82v61.95h-81.82zm242.2-170.68H351.86c-11.17 0-20.31-9.13-20.31-20.3V60.6z"/></g></g></svg>
