<?xml version="1.0" encoding="UTF-8"?><svg viewBox="0 0 512 512" xmlns="http://www.w3.org/2000/svg"><defs><clipPath id="A"><path d="M3.334 49.5C1.769 49.5.5 48.23.5 46.665h0V3.335C.5 1.769 1.769.5 3.334.5h0 43.332C48.23.5 49.5 1.769 49.5 3.335h0v43.33c0 1.565-1.27 2.835-2.834 2.835h0z"/></clipPath><linearGradient spreadMethod="pad" gradientUnits="userSpaceOnUse" id="B" y2="25" x2="49.5" y1="25" x1=".5"><stop offset="0" stop-color="#f04d45"/><stop offset="1" stop-color="#9f3335"/></linearGradient><clipPath id="C"><path d="M0 50h50V0H0z"/></clipPath></defs><g transform="matrix(10.408171 0 0 -10.408171 -4.204074 516.204084)"><g clip-path="url(#A)"><path d="M3.334 49.5C1.769 49.5.5 48.23.5 46.665h0V3.335C.5 1.769 1.769.5 3.334.5h0 43.332C48.23.5 49.5 1.769 49.5 3.335h0v43.33c0 1.565-1.27 2.835-2.834 2.835h0z" fill="url(#B)"/></g><g clip-path="url(#C)"><path d="M26.251 41.369h-3.218V24.993c.977-.298 1.912-.446 2.804-.446 2.337 0 4.163.749 5.479 2.246s1.977 3.595 1.977 6.293c0 2.464-.648 4.46-1.944 5.989s-2.995 2.294-5.098 2.294M9.779 43.536h19.594c4.035 0 7.217-.936 9.543-2.804s3.488-4.301 3.488-7.296c0-3.229-1.29-5.874-3.871-7.933s-6.133-3.091-10.657-3.091c-1.571 0-3.186.106-4.843.319V11.835c0-1.721.345-2.963 1.036-3.728s1.938-1.306 3.744-1.625V5.367H9.779v1.115c1.933.382 3.223.961 3.871 1.737s.972 2.129.972 4.062v24.914c0 1.742-.308 2.943-.924 3.601s-1.922 1.2-3.919 1.625z" fill="#fff"/></g></g></svg>
