<?xml version="1.0" encoding="UTF-8" standalone="no"?>
<!-- Created with Inkscape (http://www.inkscape.org/) -->

<svg
   xmlns:dc="http://purl.org/dc/elements/1.1/"
   xmlns:cc="http://creativecommons.org/ns#"
   xmlns:rdf="http://www.w3.org/1999/02/22-rdf-syntax-ns#"
   xmlns:svg="http://www.w3.org/2000/svg"
   xmlns="http://www.w3.org/2000/svg"
   version="1.1"
   width="16.110737"
   height="15.997209"
   id="svg20050">
  <defs
     id="defs20052">
    <clipPath
       id="clipPath5882">
      <path
         d="m 0,1505.001 539.578,0 L 539.578,0 0,0 0,1505.001 z"
         id="path5884" />
    </clipPath>
    <clipPath
       id="clipPath5862">
      <path
         d="m 335.63,708.736 -13.704,-23.735 13.704,-23.734 27.406,0 13.703,23.734 -13.703,23.735 -27.406,0 z"
         id="path5864" />
    </clipPath>
    <linearGradient
       x1="0"
       y1="0"
       x2="1"
       y2="0"
       id="linearGradient5870"
       gradientUnits="userSpaceOnUse"
       gradientTransform="matrix(54.8125,0,0,-54.8125,321.92676,685.00098)"
       spreadMethod="pad">
      <stop
         id="stop5872"
         style="stop-color:#ef2e33;stop-opacity:1"
         offset="0" />
      <stop
         id="stop5874"
         style="stop-color:#9a1a1f;stop-opacity:1"
         offset="1" />
    </linearGradient>
    <clipPath
       id="clipPath36">
      <path
         d="m 0,1505.001 539.578,0 L 539.578,0 0,0 0,1505.001 z"
         id="path38" />
    </clipPath>
    <clipPath
       id="clipPath16">
      <path
         d="m 332.002,658.001 c 0,-2.251 11.138,-4.071 24.88,-4.071 l 0,0 c 13.738,0 24.882,1.82 24.882,4.071 l 0,0 c 0,2.245 -11.144,4.064 -24.882,4.064 l 0,0 c -13.742,0 -24.88,-1.819 -24.88,-4.064"
         id="path18" />
    </clipPath>
    <radialGradient
       cx="0"
       cy="0"
       r="1"
       fx="0"
       fy="0"
       id="radialGradient24"
       gradientUnits="userSpaceOnUse"
       gradientTransform="matrix(24.885254,0,0,-4.0671082,356.88281,657.99805)"
       spreadMethod="pad">
      <stop
         id="stop26"
         style="stop-color:#a7a5a6;stop-opacity:1"
         offset="0" />
      <stop
         id="stop28"
         style="stop-color:#ffffff;stop-opacity:1"
         offset="1" />
    </radialGradient>
  </defs>
  <metadata
     id="metadata20055">
    <rdf:RDF>
      <cc:Work
         rdf:about="">
        <dc:format>image/svg+xml</dc:format>
        <dc:type
           rdf:resource="http://purl.org/dc/dcmitype/StillImage" />
        <dc:title></dc:title>
      </cc:Work>
    </rdf:RDF>
  </metadata>
  <g
     transform="matrix(0.50780244,0,0,0.53333333,-170.51769,-287.03799)"
     id="layer1">
    <g
       transform="matrix(0.52332184,0,0,-0.52332184,166.33044,910.40685)"
       id="g12">
      <g
         clip-path="url(#clipPath16)"
         id="g14">
        <g
           id="g20">
          <g
             id="g22">
            <path
               d="m 332.002,658.001 c 0,-2.251 11.138,-4.071 24.88,-4.071 l 0,0 c 13.738,0 24.882,1.82 24.882,4.071 l 0,0 c 0,2.245 -11.144,4.064 -24.882,4.064 l 0,0 c -13.742,0 -24.88,-1.819 -24.88,-4.064"
               id="path30"
               style="fill:url(#radialGradient24);stroke:none" />
          </g>
        </g>
      </g>
    </g>
    <g
       transform="matrix(0.52332184,0,0,-0.52332184,168.84238,910.40685)"
       id="g32">
      <g
         clip-path="url(#clipPath36)"
         id="g34">
        <g
           transform="translate(334.4629,659.2461)"
           id="g40">
          <path
             d="M 0,0 -14.869,25.755 0,51.51 29.74,51.51 44.609,25.755 29.74,0 0,0 z"
             id="path42"
             style="fill:#ffffff;fill-opacity:1;fill-rule:nonzero;stroke:none" />
        </g>
        <g
           transform="translate(334.4629,659.2461)"
           id="g44">
          <path
             d="M 0,0 -14.869,25.755 0,51.51 29.74,51.51 44.609,25.755 29.74,0 0,0 z"
             id="path46"
             style="fill:none;stroke:#bf1b2c;stroke-width:1;stroke-linecap:butt;stroke-linejoin:miter;stroke-miterlimit:4;stroke-opacity:1;stroke-dasharray:none" />
        </g>
      </g>
    </g>
    <g
       transform="matrix(0.52332184,0,0,-0.52332184,168.84238,910.40685)"
       id="g5858">
      <g
         clip-path="url(#clipPath5862)"
         id="g5860">
        <g
           id="g5866">
          <g
             id="g5868">
            <path
               d="m 335.63,708.736 -13.704,-23.735 13.704,-23.734 27.406,0 13.703,23.734 -13.703,23.735 -27.406,0 z"
               id="path5876"
               style="fill:url(#linearGradient5870);stroke:none" />
          </g>
        </g>
      </g>
    </g>
    <g
       transform="matrix(0.52332184,0,0,-0.52332184,168.84238,910.40685)"
       id="g5878">
      <g
         clip-path="url(#clipPath5882)"
         id="g5880">
        <g
           transform="translate(334.4277,678.9209)"
           id="g5886">
          <path
             d="M 0,0 C -0.811,0 -1.523,0.094 -2.137,0.281 -2.75,0.47 -3.32,0.703 -3.848,0.981 l 0,3.024 0.243,0 c 0.531,-0.541 1.117,-0.957 1.755,-1.247 0.641,-0.29 1.262,-0.436 1.864,-0.436 0.152,0 0.351,0.021 0.601,0.06 0.248,0.04 0.448,0.102 0.6,0.188 C 1.4,2.667 1.557,2.802 1.684,2.976 1.813,3.149 1.877,3.378 1.877,3.663 1.877,3.981 1.771,4.24 1.563,4.44 1.355,4.64 1.105,4.784 0.816,4.876 0.457,4.989 0.072,5.098 -0.338,5.2 -0.748,5.303 -1.131,5.428 -1.486,5.575 -2.307,5.923 -2.895,6.39 -3.25,6.976 c -0.355,0.587 -0.533,1.321 -0.533,2.203 0,1.19 0.42,2.153 1.258,2.89 0.839,0.738 1.886,1.106 3.142,1.106 0.631,0 1.258,-0.076 1.881,-0.231 0.623,-0.153 1.182,-0.361 1.674,-0.623 l 0,-2.903 -0.234,0 c -0.393,0.404 -0.874,0.746 -1.44,1.024 -0.566,0.28 -1.148,0.419 -1.744,0.419 -0.233,0 -0.441,-0.02 -0.627,-0.059 -0.184,-0.04 -0.379,-0.117 -0.582,-0.232 -0.166,-0.091 -0.311,-0.225 -0.43,-0.405 -0.121,-0.179 -0.181,-0.38 -0.181,-0.602 0,-0.325 0.095,-0.582 0.287,-0.773 C -0.588,8.6 -0.217,8.428 0.334,8.273 0.689,8.177 1.031,8.083 1.361,7.992 1.689,7.901 2.043,7.775 2.416,7.616 3.15,7.298 3.697,6.869 4.055,6.331 4.412,5.793 4.592,5.083 4.592,4.201 4.592,2.938 4.178,1.921 3.352,1.152 2.523,0.384 1.406,0 0,0"
             id="path5888"
             style="fill:#ffffff;fill-opacity:1;fill-rule:nonzero;stroke:none" />
        </g>
        <g
           transform="translate(342.4102,679.1514)"
           id="g5890">
          <path
             d="m 0,0 0,10.289 -3.127,0 0,2.425 8.914,0 0,-2.425 -3.127,0 L 2.66,0 0,0 z"
             id="path5892"
             style="fill:#ffffff;fill-opacity:1;fill-rule:nonzero;stroke:none" />
        </g>
        <g
           transform="translate(356.1895,685.5127)"
           id="g5894">
          <path
             d="M 0,0 C 0,0.757 -0.066,1.401 -0.197,1.934 -0.326,2.466 -0.5,2.903 -0.719,3.245 -0.947,3.592 -1.203,3.841 -1.49,3.992 -1.777,4.143 -2.074,4.218 -2.383,4.218 -2.709,4.218 -3.006,4.148 -3.271,4.009 -3.537,3.869 -3.793,3.62 -4.039,3.262 -4.258,2.932 -4.434,2.493 -4.568,1.947 -4.703,1.4 -4.771,0.748 -4.771,-0.009 c 0,-0.779 0.064,-1.427 0.191,-1.942 0.129,-0.516 0.305,-0.946 0.527,-1.294 0.227,-0.353 0.485,-0.605 0.776,-0.755 0.289,-0.151 0.586,-0.227 0.894,-0.227 0.313,0 0.617,0.081 0.91,0.244 0.295,0.162 0.547,0.414 0.762,0.755 0.227,0.371 0.402,0.801 0.525,1.294 C -0.063,-1.441 0,-0.797 0,0 m 2.744,-0.009 c 0,-2.054 -0.459,-3.672 -1.373,-4.849 -0.914,-1.179 -2.168,-1.768 -3.76,-1.768 -1.597,0 -2.851,0.596 -3.761,1.789 -0.911,1.192 -1.366,2.802 -1.366,4.828 0,2.044 0.455,3.659 1.366,4.846 0.91,1.187 2.164,1.78 3.761,1.78 1.592,0 2.846,-0.591 3.76,-1.771 0.914,-1.182 1.373,-2.8 1.373,-4.855"
             id="path5896"
             style="fill:#ffffff;fill-opacity:1;fill-rule:nonzero;stroke:none" />
        </g>
        <g
           transform="translate(365.9199,687.7754)"
           id="g5898">
          <path
             d="m 0,0 c 0,0.358 -0.07,0.667 -0.213,0.927 -0.142,0.259 -0.312,0.436 -0.512,0.533 -0.25,0.131 -0.492,0.206 -0.72,0.227 -0.231,0.019 -0.543,0.029 -0.936,0.029 l -0.377,0 0,-3.808 0.186,0 c 0.25,0 0.488,0.003 0.711,0.009 0.222,0.005 0.416,0.025 0.582,0.06 0.142,0.028 0.293,0.084 0.451,0.166 0.16,0.083 0.281,0.175 0.367,0.277 0.18,0.211 0.303,0.431 0.365,0.658 C -0.031,-0.694 0,-0.387 0,0 M 2.73,0.077 C 2.73,-0.516 2.652,-1.079 2.496,-1.614 2.34,-2.148 2.115,-2.596 1.82,-2.954 1.641,-3.177 1.443,-3.381 1.227,-3.569 1.012,-3.757 0.773,-3.916 0.514,-4.047 0.252,-4.179 -0.031,-4.281 -0.336,-4.354 -0.643,-4.429 -0.984,-4.466 -1.363,-4.466 l -1.395,0 0,-4.158 -2.658,0 0,12.714 4.109,0 c 0.612,0 1.139,-0.067 1.582,-0.2 C 0.717,3.756 1.119,3.544 1.48,3.253 1.877,2.935 2.186,2.509 2.404,1.977 2.621,1.444 2.73,0.812 2.73,0.077"
             id="path5900"
             style="fill:#ffffff;fill-opacity:1;fill-rule:nonzero;stroke:none" />
        </g>
      </g>
    </g>
  </g>
</svg>
