<?xml version="1.0" encoding="UTF-8" standalone="no"?>
<!-- Created with Inkscape (http://www.inkscape.org/) -->

<svg
   xmlns:dc="http://purl.org/dc/elements/1.1/"
   xmlns:cc="http://creativecommons.org/ns#"
   xmlns:rdf="http://www.w3.org/1999/02/22-rdf-syntax-ns#"
   xmlns:svg="http://www.w3.org/2000/svg"
   xmlns="http://www.w3.org/2000/svg"
   version="1.1"
   width="30.942953"
   height="29.995132"
   id="svg21999">
  <defs
     id="defs22001">
    <clipPath
       id="clipPath6208">
      <path
         d="m 0,1505.001 539.578,0 L 539.578,0 0,0 0,1505.001 z"
         id="path6210" />
    </clipPath>
    <clipPath
       id="clipPath6188">
      <path
         d="m 326.128,475.34 c 0,-4.763 3.862,-8.626 8.628,-8.626 l 0,0 c 4.764,0 8.63,3.863 8.63,8.626 l 0,0 c 0,4.768 -3.866,8.631 -8.63,8.631 l 0,0 c -4.766,0 -8.628,-3.863 -8.628,-8.631"
         id="path6190" />
    </clipPath>
    <radialGradient
       cx="0"
       cy="0"
       r="1"
       fx="0"
       fy="0"
       id="radialGradient6196"
       gradientUnits="userSpaceOnUse"
       gradientTransform="matrix(8.6289063,0,0,-8.6289063,334.75684,475.34277)"
       spreadMethod="pad">
      <stop
         id="stop6198"
         style="stop-color:#c5ebfb;stop-opacity:1"
         offset="0" />
      <stop
         id="stop6200"
         style="stop-color:#7cc2ed;stop-opacity:1"
         offset="1" />
    </radialGradient>
    <clipPath
       id="clipPath1242">
      <path
         d="m 353.962,492.26 c -1.412,-4.549 1.131,-9.383 5.683,-10.796 l 0,0 c 4.549,-1.412 9.386,1.131 10.799,5.682 l 0,0 c 1.413,4.552 -1.134,9.388 -5.684,10.801 l 0,0 c -0.852,0.264 -1.713,0.39 -2.56,0.39 l 0,0 c -3.681,-10e-4 -7.09,-2.376 -8.238,-6.077"
         id="path1244" />
    </clipPath>
    <linearGradient
       x1="0"
       y1="0"
       x2="1"
       y2="0"
       id="linearGradient1250"
       gradientUnits="userSpaceOnUse"
       gradientTransform="matrix(16.48201,-5.1149292,-5.1149292,-16.48201,353.96289,492.26172)"
       spreadMethod="pad">
      <stop
         id="stop1252"
         style="stop-color:#eeb09e;stop-opacity:1"
         offset="0" />
      <stop
         id="stop1254"
         style="stop-color:#eeaf3f;stop-opacity:1"
         offset="0.55828899" />
      <stop
         id="stop1256"
         style="stop-color:#f7933c;stop-opacity:1"
         offset="1" />
    </linearGradient>
    <clipPath
       id="clipPath1222">
      <path
         d="m 354.962,483.224 c 0,-2.739 5.311,-4.956 11.859,-4.956 l 0,0 c 6.55,0 11.861,2.217 11.861,4.956 l 0,0 c 0,2.733 -5.311,4.949 -11.861,4.949 l 0,0 c -6.548,0 -11.859,-2.216 -11.859,-4.949"
         id="path1224" />
    </clipPath>
    <radialGradient
       cx="0"
       cy="0"
       r="1"
       fx="0"
       fy="0"
       id="radialGradient1230"
       gradientUnits="userSpaceOnUse"
       gradientTransform="matrix(11.862198,0,0,-4.951355,366.82227,483.2207)"
       spreadMethod="pad">
      <stop
         id="stop1232"
         style="stop-color:#a7a5a6;stop-opacity:1"
         offset="0" />
      <stop
         id="stop1234"
         style="stop-color:#ffffff;stop-opacity:1"
         offset="1" />
    </radialGradient>
    <clipPath
       id="clipPath1206">
      <path
         d="m 0,1505.001 539.578,0 L 539.578,0 0,0 0,1505.001 z"
         id="path1208" />
    </clipPath>
    <clipPath
       id="clipPath1184">
      <path
         d="m 359.645,468.111 c -4.552,-1.413 -7.095,-6.248 -5.683,-10.798 l 0,0 c 1.412,-4.553 6.246,-7.098 10.798,-5.685 l 0,0 c 4.55,1.412 7.097,6.248 5.684,10.801 l 0,0 c -1.148,3.698 -4.56,6.071 -8.24,6.072 l 0,0 c -0.847,0 -1.708,-0.126 -2.559,-0.39"
         id="path1186" />
    </clipPath>
    <radialGradient
       cx="0"
       cy="0"
       r="1"
       fx="0"
       fy="0"
       id="radialGradient1192"
       gradientUnits="userSpaceOnUse"
       gradientTransform="matrix(8.2405396,2.557312,-2.557312,8.2405396,362.20312,459.87109)"
       spreadMethod="pad">
      <stop
         id="stop1194"
         style="stop-color:#ffffff;stop-opacity:1"
         offset="0" />
      <stop
         id="stop1196"
         style="stop-color:#9bd41f;stop-opacity:1"
         offset="0.852768" />
      <stop
         id="stop1198"
         style="stop-color:#9bd41f;stop-opacity:1"
         offset="1" />
    </radialGradient>
    <clipPath
       id="clipPath1164">
      <path
         d="m 354.962,452.35 c 0,-2.733 5.311,-4.948 11.859,-4.948 l 0,0 c 6.55,0 11.861,2.215 11.861,4.948 l 0,0 c 0,2.74 -5.311,4.955 -11.861,4.955 l 0,0 c -6.548,0 -11.859,-2.215 -11.859,-4.955"
         id="path1166" />
    </clipPath>
    <radialGradient
       cx="0"
       cy="0"
       r="1"
       fx="0"
       fy="0"
       id="radialGradient1172"
       gradientUnits="userSpaceOnUse"
       gradientTransform="matrix(11.862198,0,0,4.951355,366.82227,452.35352)"
       spreadMethod="pad">
      <stop
         id="stop1174"
         style="stop-color:#a7a5a6;stop-opacity:1"
         offset="0" />
      <stop
         id="stop1176"
         style="stop-color:#ffffff;stop-opacity:1"
         offset="1" />
    </radialGradient>
    <clipPath
       id="clipPath1152">
      <path
         d="m 0,1505.001 539.578,0 L 539.578,0 0,0 0,1505.001 z"
         id="path1154" />
    </clipPath>
    <clipPath
       id="clipPath1132">
      <path
         d="m 329.213,469.956 c 0,-2.74 5.311,-4.956 11.859,-4.956 l 0,0 c 6.55,0 11.861,2.216 11.861,4.956 l 0,0 c 0,2.732 -5.311,4.948 -11.861,4.948 l 0,0 c -6.548,0 -11.859,-2.216 -11.859,-4.948"
         id="path1134" />
    </clipPath>
    <radialGradient
       cx="0"
       cy="0"
       r="1"
       fx="0"
       fy="0"
       id="radialGradient1140"
       gradientUnits="userSpaceOnUse"
       gradientTransform="matrix(11.862198,0,0,-4.951355,341.07324,469.95215)"
       spreadMethod="pad">
      <stop
         id="stop1142"
         style="stop-color:#a7a5a6;stop-opacity:1"
         offset="0" />
      <stop
         id="stop1144"
         style="stop-color:#ffffff;stop-opacity:1"
         offset="1" />
    </radialGradient>
    <clipPath
       id="clipPath6208-3">
      <path
         d="m 0,1505.001 539.578,0 L 539.578,0 0,0 0,1505.001 z"
         id="path6210-5" />
    </clipPath>
    <clipPath
       id="clipPath6188-2">
      <path
         d="m 326.128,475.34 c 0,-4.763 3.862,-8.626 8.628,-8.626 l 0,0 c 4.764,0 8.63,3.863 8.63,8.626 l 0,0 c 0,4.768 -3.866,8.631 -8.63,8.631 l 0,0 c -4.766,0 -8.628,-3.863 -8.628,-8.631"
         id="path6190-0" />
    </clipPath>
    <radialGradient
       cx="0"
       cy="0"
       r="1"
       fx="0"
       fy="0"
       id="radialGradient6196-2"
       gradientUnits="userSpaceOnUse"
       gradientTransform="matrix(8.6289063,0,0,-8.6289063,334.75684,475.34277)"
       spreadMethod="pad">
      <stop
         id="stop6198-8"
         style="stop-color:#c5ebfb;stop-opacity:1"
         offset="0" />
      <stop
         id="stop6200-3"
         style="stop-color:#7cc2ed;stop-opacity:1"
         offset="1" />
    </radialGradient>
    <clipPath
       id="clipPath1242-9">
      <path
         d="m 353.962,492.26 c -1.412,-4.549 1.131,-9.383 5.683,-10.796 l 0,0 c 4.549,-1.412 9.386,1.131 10.799,5.682 l 0,0 c 1.413,4.552 -1.134,9.388 -5.684,10.801 l 0,0 c -0.852,0.264 -1.713,0.39 -2.56,0.39 l 0,0 c -3.681,-10e-4 -7.09,-2.376 -8.238,-6.077"
         id="path1244-2" />
    </clipPath>
    <linearGradient
       x1="0"
       y1="0"
       x2="1"
       y2="0"
       id="linearGradient1250-8"
       gradientUnits="userSpaceOnUse"
       gradientTransform="matrix(16.48201,-5.1149292,-5.1149292,-16.48201,353.96289,492.26172)"
       spreadMethod="pad">
      <stop
         id="stop1252-2"
         style="stop-color:#eeb09e;stop-opacity:1"
         offset="0" />
      <stop
         id="stop1254-6"
         style="stop-color:#eeaf3f;stop-opacity:1"
         offset="0.55828899" />
      <stop
         id="stop1256-5"
         style="stop-color:#f7933c;stop-opacity:1"
         offset="1" />
    </linearGradient>
    <clipPath
       id="clipPath1222-0">
      <path
         d="m 354.962,483.224 c 0,-2.739 5.311,-4.956 11.859,-4.956 l 0,0 c 6.55,0 11.861,2.217 11.861,4.956 l 0,0 c 0,2.733 -5.311,4.949 -11.861,4.949 l 0,0 c -6.548,0 -11.859,-2.216 -11.859,-4.949"
         id="path1224-8" />
    </clipPath>
    <radialGradient
       cx="0"
       cy="0"
       r="1"
       fx="0"
       fy="0"
       id="radialGradient1230-5"
       gradientUnits="userSpaceOnUse"
       gradientTransform="matrix(11.862198,0,0,-4.951355,366.82227,483.2207)"
       spreadMethod="pad">
      <stop
         id="stop1232-5"
         style="stop-color:#a7a5a6;stop-opacity:1"
         offset="0" />
      <stop
         id="stop1234-6"
         style="stop-color:#ffffff;stop-opacity:1"
         offset="1" />
    </radialGradient>
    <clipPath
       id="clipPath1206-3">
      <path
         d="m 0,1505.001 539.578,0 L 539.578,0 0,0 0,1505.001 z"
         id="path1208-3" />
    </clipPath>
    <clipPath
       id="clipPath1184-1">
      <path
         d="m 359.645,468.111 c -4.552,-1.413 -7.095,-6.248 -5.683,-10.798 l 0,0 c 1.412,-4.553 6.246,-7.098 10.798,-5.685 l 0,0 c 4.55,1.412 7.097,6.248 5.684,10.801 l 0,0 c -1.148,3.698 -4.56,6.071 -8.24,6.072 l 0,0 c -0.847,0 -1.708,-0.126 -2.559,-0.39"
         id="path1186-4" />
    </clipPath>
    <radialGradient
       cx="0"
       cy="0"
       r="1"
       fx="0"
       fy="0"
       id="radialGradient1192-3"
       gradientUnits="userSpaceOnUse"
       gradientTransform="matrix(8.2405396,2.557312,-2.557312,8.2405396,362.20312,459.87109)"
       spreadMethod="pad">
      <stop
         id="stop1194-4"
         style="stop-color:#ffffff;stop-opacity:1"
         offset="0" />
      <stop
         id="stop1196-1"
         style="stop-color:#9bd41f;stop-opacity:1"
         offset="0.852768" />
      <stop
         id="stop1198-4"
         style="stop-color:#9bd41f;stop-opacity:1"
         offset="1" />
    </radialGradient>
    <clipPath
       id="clipPath1164-3">
      <path
         d="m 354.962,452.35 c 0,-2.733 5.311,-4.948 11.859,-4.948 l 0,0 c 6.55,0 11.861,2.215 11.861,4.948 l 0,0 c 0,2.74 -5.311,4.955 -11.861,4.955 l 0,0 c -6.548,0 -11.859,-2.215 -11.859,-4.955"
         id="path1166-5" />
    </clipPath>
    <radialGradient
       cx="0"
       cy="0"
       r="1"
       fx="0"
       fy="0"
       id="radialGradient1172-6"
       gradientUnits="userSpaceOnUse"
       gradientTransform="matrix(11.862198,0,0,4.951355,366.82227,452.35352)"
       spreadMethod="pad">
      <stop
         id="stop1174-3"
         style="stop-color:#a7a5a6;stop-opacity:1"
         offset="0" />
      <stop
         id="stop1176-8"
         style="stop-color:#ffffff;stop-opacity:1"
         offset="1" />
    </radialGradient>
    <clipPath
       id="clipPath1152-1">
      <path
         d="m 0,1505.001 539.578,0 L 539.578,0 0,0 0,1505.001 z"
         id="path1154-8" />
    </clipPath>
    <clipPath
       id="clipPath1132-2">
      <path
         d="m 329.213,469.956 c 0,-2.74 5.311,-4.956 11.859,-4.956 l 0,0 c 6.55,0 11.861,2.216 11.861,4.956 l 0,0 c 0,2.732 -5.311,4.948 -11.861,4.948 l 0,0 c -6.548,0 -11.859,-2.216 -11.859,-4.948"
         id="path1134-1" />
    </clipPath>
    <radialGradient
       cx="0"
       cy="0"
       r="1"
       fx="0"
       fy="0"
       id="radialGradient1140-2"
       gradientUnits="userSpaceOnUse"
       gradientTransform="matrix(11.862198,0,0,-4.951355,341.07324,469.95215)"
       spreadMethod="pad">
      <stop
         id="stop1142-0"
         style="stop-color:#a7a5a6;stop-opacity:1"
         offset="0" />
      <stop
         id="stop1144-6"
         style="stop-color:#ffffff;stop-opacity:1"
         offset="1" />
    </radialGradient>
    <clipPath
       id="clipPath1264">
      <path
         d="m 0,1505.001 539.578,0 L 539.578,0 0,0 0,1505.001 z"
         id="path1266" />
    </clipPath>
  </defs>
  <metadata
     id="metadata22004">
    <rdf:RDF>
      <cc:Work
         rdf:about="">
        <dc:format>image/svg+xml</dc:format>
        <dc:type
           rdf:resource="http://purl.org/dc/dcmitype/StillImage" />
        <dc:title></dc:title>
      </cc:Work>
    </rdf:RDF>
  </metadata>
  <g
     transform="translate(-436.16588,-772.03858)"
     id="layer1">
    <g
       transform="matrix(0.58326693,0,0,-0.58326693,246.23614,1062.9885)"
       id="g1128">
      <g
         clip-path="url(#clipPath1132-2)"
         id="g1130">
        <g
           id="g1136">
          <g
             id="g1138">
            <path
               d="m 329.213,469.956 c 0,-2.74 5.311,-4.956 11.859,-4.956 l 0,0 c 6.55,0 11.861,2.216 11.861,4.956 l 0,0 c 0,2.732 -5.311,4.948 -11.861,4.948 l 0,0 c -6.548,0 -11.859,-2.216 -11.859,-4.948"
               id="path1146"
               style="fill:url(#radialGradient1140-2);stroke:none" />
          </g>
        </g>
      </g>
    </g>
    <g
       transform="matrix(0.58326693,0,0,-0.58326693,246.23614,1062.9885)"
       id="g1148">
      <g
         clip-path="url(#clipPath1152-1)"
         id="g1150">
        <g
           transform="translate(338.6113,470.0977)"
           id="g1156">
          <path
             d="M 0,0 18.037,-9.242"
             id="path1158"
             style="fill:none;stroke:#3f51ac;stroke-width:1;stroke-linecap:butt;stroke-linejoin:miter;stroke-miterlimit:4;stroke-opacity:1;stroke-dasharray:none" />
        </g>
      </g>
    </g>
    <g
       transform="matrix(0.58326693,0,0,-0.58326693,246.23614,1062.9885)"
       id="g1160">
      <g
         clip-path="url(#clipPath1164-3)"
         id="g1162">
        <g
           id="g1168">
          <g
             id="g1170">
            <path
               d="m 354.962,452.35 c 0,-2.733 5.311,-4.948 11.859,-4.948 l 0,0 c 6.55,0 11.861,2.215 11.861,4.948 l 0,0 c 0,2.74 -5.311,4.955 -11.861,4.955 l 0,0 c -6.548,0 -11.859,-2.215 -11.859,-4.955"
               id="path1178"
               style="fill:url(#radialGradient1172-6);stroke:none" />
          </g>
        </g>
      </g>
    </g>
    <g
       transform="matrix(0.58326693,0,0,-0.58326693,246.23614,1062.9885)"
       id="g1180">
      <g
         clip-path="url(#clipPath1184-1)"
         id="g1182">
        <g
           id="g1188">
          <g
             id="g1190">
            <path
               d="m 359.645,468.111 c -4.552,-1.413 -7.095,-6.248 -5.683,-10.798 l 0,0 c 1.412,-4.553 6.246,-7.098 10.798,-5.685 l 0,0 c 4.55,1.412 7.097,6.248 5.684,10.801 l 0,0 c -1.148,3.698 -4.56,6.071 -8.24,6.072 l 0,0 c -0.847,0 -1.708,-0.126 -2.559,-0.39"
               id="path1200"
               style="fill:url(#radialGradient1192-3);stroke:none" />
          </g>
        </g>
      </g>
    </g>
    <g
       transform="matrix(0.58326693,0,0,-0.58326693,246.23614,1062.9885)"
       id="g1202">
      <g
         clip-path="url(#clipPath1206-3)"
         id="g1204">
        <g
           transform="translate(364.7598,451.6279)"
           id="g1210">
          <path
             d="M 0,0 C 4.55,1.412 7.097,6.248 5.684,10.801 4.271,15.351 -0.565,17.895 -5.115,16.482 -9.667,15.069 -12.21,10.235 -10.798,5.686 -9.386,1.133 -4.552,-1.413 0,0 z"
             id="path1212"
             style="fill:none;stroke:#3e65a4;stroke-width:1;stroke-linecap:butt;stroke-linejoin:miter;stroke-miterlimit:4;stroke-opacity:1;stroke-dasharray:none" />
        </g>
        <g
           transform="translate(338.876,478.9912)"
           id="g1214">
          <path
             d="M 0,0 17.508,10.211"
             id="path1216"
             style="fill:none;stroke:#3f51ac;stroke-width:1;stroke-linecap:butt;stroke-linejoin:miter;stroke-miterlimit:4;stroke-opacity:1;stroke-dasharray:none" />
        </g>
      </g>
    </g>
    <g
       transform="matrix(0.58326693,0,0,-0.58326693,246.23614,1062.9885)"
       id="g1218">
      <g
         clip-path="url(#clipPath1222-0)"
         id="g1220">
        <g
           id="g1226">
          <g
             id="g1228">
            <path
               d="m 354.962,483.224 c 0,-2.739 5.311,-4.956 11.859,-4.956 l 0,0 c 6.55,0 11.861,2.217 11.861,4.956 l 0,0 c 0,2.733 -5.311,4.949 -11.861,4.949 l 0,0 c -6.548,0 -11.859,-2.216 -11.859,-4.949"
               id="path1236"
               style="fill:url(#radialGradient1230-5);stroke:none" />
          </g>
        </g>
      </g>
    </g>
    <g
       transform="matrix(0.58326693,0,0,-0.58326693,246.23614,1062.9885)"
       id="g1238">
      <g
         clip-path="url(#clipPath1242-9)"
         id="g1240">
        <g
           id="g1246">
          <g
             id="g1248">
            <path
               d="m 353.962,492.26 c -1.412,-4.549 1.131,-9.383 5.683,-10.796 l 0,0 c 4.549,-1.412 9.386,1.131 10.799,5.682 l 0,0 c 1.413,4.552 -1.134,9.388 -5.684,10.801 l 0,0 c -0.852,0.264 -1.713,0.39 -2.56,0.39 l 0,0 c -3.681,-10e-4 -7.09,-2.376 -8.238,-6.077"
               id="path1258"
               style="fill:url(#linearGradient1250-8);stroke:none" />
          </g>
        </g>
      </g>
    </g>
    <g
       transform="matrix(0.58326693,0,0,-0.58326693,458.98847,772.55288)"
       id="g1268">
      <path
         d="m 0,0 c 4.55,-1.412 7.097,-6.248 5.684,-10.801 -1.413,-4.55 -6.249,-7.094 -10.799,-5.681 -4.552,1.413 -7.095,6.247 -5.683,10.796 C -9.386,-1.133 -4.552,1.413 0,0 z"
         id="path1270"
         style="fill:none;stroke:#3e65a4;stroke-width:1;stroke-linecap:butt;stroke-linejoin:miter;stroke-miterlimit:4;stroke-opacity:1;stroke-dasharray:none" />
    </g>
    <g
       transform="matrix(0.58326693,0,0,-0.58326693,246.23614,1062.9885)"
       id="g6184">
      <g
         clip-path="url(#clipPath6188-2)"
         id="g6186">
        <g
           id="g6192">
          <g
             id="g6194">
            <path
               d="m 326.128,475.34 c 0,-4.763 3.862,-8.626 8.628,-8.626 l 0,0 c 4.764,0 8.63,3.863 8.63,8.626 l 0,0 c 0,4.768 -3.866,8.631 -8.63,8.631 l 0,0 c -4.766,0 -8.628,-3.863 -8.628,-8.631"
               id="path6202"
               style="fill:url(#radialGradient6196-2);stroke:none" />
          </g>
        </g>
      </g>
    </g>
    <g
       transform="matrix(0.58326693,0,0,-0.58326693,246.23614,1062.9885)"
       id="g6204">
      <g
         clip-path="url(#clipPath6208-3)"
         id="g6206">
        <g
           transform="translate(334.7559,483.9717)"
           id="g6212">
          <path
             d="m 0,0 c 4.764,0 8.63,-3.864 8.63,-8.631 0,-4.764 -3.866,-8.627 -8.63,-8.627 -4.766,0 -8.628,3.863 -8.628,8.627 C -8.628,-3.864 -4.766,0 0,0 z"
             id="path6214"
             style="fill:none;stroke:#3e65a4;stroke-width:1;stroke-linecap:butt;stroke-linejoin:miter;stroke-miterlimit:4;stroke-opacity:1;stroke-dasharray:none" />
        </g>
      </g>
    </g>
  </g>
</svg>
