<?xml version="1.0" encoding="UTF-8" standalone="no"?>
<!-- Created with Inkscape (http://www.inkscape.org/) -->

<svg
   xmlns:dc="http://purl.org/dc/elements/1.1/"
   xmlns:cc="http://creativecommons.org/ns#"
   xmlns:rdf="http://www.w3.org/1999/02/22-rdf-syntax-ns#"
   xmlns:svg="http://www.w3.org/2000/svg"
   xmlns="http://www.w3.org/2000/svg"
   version="1.1"
   width="16.074812"
   height="15.998022"
   id="svg14826">
  <defs
     id="defs14828">
    <clipPath
       id="clipPath4674">
      <path
         d="m 0,1505.001 539.578,0 L 539.578,0 0,0 0,1505.001 z"
         id="path4676" />
    </clipPath>
    <clipPath
       id="clipPath4652">
      <path
         d="m 374.111,1078.573 -10.909,-10.791 c -0.217,-0.217 -0.573,-0.217 -0.793,0 l 0,0 -3.215,3.218 c -0.217,0.213 -0.575,0.213 -0.793,0 l 0,0 -2.377,-2.383 c -0.217,-0.219 -0.217,-0.574 0,-0.793 l 0,0 6.388,-6.385 c 0.219,-0.22 0.573,-0.22 0.792,0 l 0,0 14.077,13.963 c 0.216,0.219 0.216,0.574 0,0.794 l 0,0 -2.38,2.377 c -0.109,0.109 -0.253,0.164 -0.396,0.164 l 0,0 c -0.143,0 -0.285,-0.055 -0.394,-0.164"
         id="path4654" />
    </clipPath>
    <radialGradient
       cx="0"
       cy="0"
       r="1"
       fx="0"
       fy="0"
       id="radialGradient4660"
       gradientUnits="userSpaceOnUse"
       gradientTransform="matrix(9.8159332,0,0,-9.8159332,366.65137,1070.0049)"
       spreadMethod="pad">
      <stop
         id="stop4662"
         style="stop-color:#ffffff;stop-opacity:1"
         offset="0" />
      <stop
         id="stop4664"
         style="stop-color:#9bd41f;stop-opacity:1"
         offset="0.852768" />
      <stop
         id="stop4666"
         style="stop-color:#9bd41f;stop-opacity:1"
         offset="1" />
    </radialGradient>
    <clipPath
       id="clipPath4584">
      <path
         d="m 0,1505.001 539.578,0 L 539.578,0 0,0 0,1505.001 z"
         id="path4586" />
    </clipPath>
    <clipPath
       id="clipPath4564">
      <path
         d="m 332.942,1106.59 c -2.08,0 -3.788,-1.603 -3.788,-3.559 l 0,0 0,-7.025 38.269,0 0,7.025 c 0,1.956 -1.704,3.559 -3.789,3.559 l 0,0 -30.692,0 z"
         id="path4566" />
    </clipPath>
    <radialGradient
       cx="0"
       cy="0"
       r="1"
       fx="0"
       fy="0"
       id="radialGradient4572"
       gradientUnits="userSpaceOnUse"
       gradientTransform="matrix(14.037582,0,0,-14.037582,348.28906,1101.2979)"
       spreadMethod="pad">
      <stop
         id="stop4574"
         style="stop-color:#c5ebfb;stop-opacity:1"
         offset="0" />
      <stop
         id="stop4576"
         style="stop-color:#7cc2ed;stop-opacity:1"
         offset="1" />
    </radialGradient>
    <clipPath
       id="clipPath4552">
      <path
         d="m 0,1505.001 539.578,0 L 539.578,0 0,0 0,1505.001 z"
         id="path4554" />
    </clipPath>
    <clipPath
       id="clipPath4530">
      <path
         d="m 333.3,1107.441 c -2.715,0 -4.919,-2.072 -4.919,-4.619 l 0,0 0,-37.996 c 0,-2.545 2.204,-4.619 4.919,-4.619 l 0,0 29.979,0 c 2.714,0 4.918,2.074 4.918,4.619 l 0,0 0,37.996 c 0,2.547 -2.204,4.619 -4.918,4.619 l 0,0 -29.979,0 z"
         id="path4532" />
    </clipPath>
    <linearGradient
       x1="0"
       y1="0"
       x2="1"
       y2="0"
       id="linearGradient4538"
       gradientUnits="userSpaceOnUse"
       gradientTransform="matrix(39.816406,0,0,-39.816406,328.38086,1083.8242)"
       spreadMethod="pad">
      <stop
         id="stop4540"
         style="stop-color:#e1e0df;stop-opacity:1"
         offset="0" />
      <stop
         id="stop4542"
         style="stop-color:#e2e2e0;stop-opacity:1"
         offset="0.54707301" />
      <stop
         id="stop4544"
         style="stop-color:#ffffff;stop-opacity:1"
         offset="1" />
    </linearGradient>
    <clipPath
       id="clipPath4510">
      <path
         d="m 327.734,1062.379 c 0,-2.508 10.687,-4.537 23.868,-4.537 l 0,0 c 13.181,0 23.868,2.029 23.868,4.537 l 0,0 c 0,2.504 -10.687,4.533 -23.868,4.533 l 0,0 c -13.181,0 -23.868,-2.029 -23.868,-4.533"
         id="path4512" />
    </clipPath>
    <radialGradient
       cx="0"
       cy="0"
       r="1"
       fx="0"
       fy="0"
       id="radialGradient4518"
       gradientUnits="userSpaceOnUse"
       gradientTransform="matrix(23.87352,0,0,-4.5341644,351.60156,1062.377)"
       spreadMethod="pad">
      <stop
         id="stop4520"
         style="stop-color:#a7a5a6;stop-opacity:1"
         offset="0" />
      <stop
         id="stop4522"
         style="stop-color:#ffffff;stop-opacity:1"
         offset="1" />
    </radialGradient>
  </defs>
  <metadata
     id="metadata14831">
    <rdf:RDF>
      <cc:Work
         rdf:about="">
        <dc:format>image/svg+xml</dc:format>
        <dc:type
           rdf:resource="http://purl.org/dc/dcmitype/StillImage" />
        <dc:title></dc:title>
      </cc:Work>
    </rdf:RDF>
  </metadata>
  <g
     transform="translate(-343.38544,-550.49421)"
     id="layer1">
    <g
       transform="matrix(0.31779085,0,0,-0.29299683,239.23457,876.43659)"
       id="g4506">
      <g
         clip-path="url(#clipPath4510)"
         id="g4508">
        <g
           id="g4514">
          <g
             id="g4516">
            <path
               d="m 327.734,1062.379 c 0,-2.508 10.687,-4.537 23.868,-4.537 l 0,0 c 13.181,0 23.868,2.029 23.868,4.537 l 0,0 c 0,2.504 -10.687,4.533 -23.868,4.533 l 0,0 c -13.181,0 -23.868,-2.029 -23.868,-4.533"
               id="path4524"
               style="fill:url(#radialGradient4518);stroke:none" />
          </g>
        </g>
      </g>
    </g>
    <g
       transform="matrix(0.31779085,0,0,-0.29299683,239.23457,876.43659)"
       id="g4526">
      <g
         clip-path="url(#clipPath4530)"
         id="g4528">
        <g
           id="g4534">
          <g
             id="g4536">
            <path
               d="m 333.3,1107.441 c -2.715,0 -4.919,-2.072 -4.919,-4.619 l 0,0 0,-37.996 c 0,-2.545 2.204,-4.619 4.919,-4.619 l 0,0 29.979,0 c 2.714,0 4.918,2.074 4.918,4.619 l 0,0 0,37.996 c 0,2.547 -2.204,4.619 -4.918,4.619 l 0,0 -29.979,0 z"
               id="path4546"
               style="fill:url(#linearGradient4538);stroke:none" />
          </g>
        </g>
      </g>
    </g>
    <g
       transform="matrix(0.31779085,0,0,-0.29299683,239.23457,876.43659)"
       id="g4548">
      <g
         clip-path="url(#clipPath4552)"
         id="g4550">
        <g
           transform="translate(328.3809,1102.8223)"
           id="g4556">
          <path
             d="m 0,0 c 0,2.547 2.204,4.619 4.919,4.619 l 29.978,0 c 2.715,0 4.919,-2.072 4.919,-4.619 l 0,-37.996 c 0,-2.545 -2.204,-4.619 -4.919,-4.619 l -29.978,0 C 2.204,-42.615 0,-40.541 0,-37.996 L 0,0 z"
             id="path4558"
             style="fill:none;stroke:#7acc46;stroke-width:1.03400004;stroke-linecap:butt;stroke-linejoin:miter;stroke-miterlimit:4;stroke-opacity:1;stroke-dasharray:none" />
        </g>
      </g>
    </g>
    <g
       transform="matrix(0.31779085,0,0,-0.29299683,239.23457,876.43659)"
       id="g4560">
      <g
         clip-path="url(#clipPath4564)"
         id="g4562">
        <g
           id="g4568">
          <g
             id="g4570">
            <path
               d="m 332.942,1106.59 c -2.08,0 -3.788,-1.603 -3.788,-3.559 l 0,0 0,-7.025 38.269,0 0,7.025 c 0,1.956 -1.704,3.559 -3.789,3.559 l 0,0 -30.692,0 z"
               id="path4578"
               style="fill:url(#radialGradient4572);stroke:none" />
          </g>
        </g>
      </g>
    </g>
    <g
       transform="matrix(0.31779085,0,0,-0.29299683,239.23457,876.43659)"
       id="g4580">
      <g
         clip-path="url(#clipPath4584)"
         id="g4582">
        <g
           transform="translate(341.6211,1103.998)"
           id="g4588">
          <path
             d="m 0,0 c 0,-1.461 -1.354,-2.648 -3.019,-2.648 -1.671,0 -3.019,1.187 -3.019,2.648 0,1.459 1.348,2.645 3.019,2.645 C -1.354,2.645 0,1.459 0,0"
             id="path4590"
             style="fill:#2f225e;fill-opacity:1;fill-rule:nonzero;stroke:none" />
        </g>
        <g
           transform="translate(340.9521,1104.2871)"
           id="g4592">
          <path
             d="m 0,0 c 0,-1.148 -0.938,-2.084 -2.076,-2.084 l -0.572,0 c -1.145,0 -2.081,0.936 -2.081,2.084 l 0,5.725 c 0,1.15 0.936,2.088 2.081,2.088 l 0.572,0 C -0.938,7.813 0,6.875 0,5.725 L 0,0 z"
             id="path4594"
             style="fill:#efaf3f;fill-opacity:1;fill-rule:nonzero;stroke:none" />
        </g>
        <g
           transform="translate(340.9521,1104.2871)"
           id="g4596">
          <path
             d="m 0,0 c 0,-1.148 -0.938,-2.084 -2.076,-2.084 l -0.572,0 c -1.145,0 -2.081,0.936 -2.081,2.084 l 0,5.725 c 0,1.15 0.936,2.088 2.081,2.088 l 0.572,0 C -0.938,7.813 0,6.875 0,5.725 L 0,0 z"
             id="path4598"
             style="fill:none;stroke:#3e65a4;stroke-width:0.69999999;stroke-linecap:butt;stroke-linejoin:miter;stroke-miterlimit:4;stroke-opacity:1;stroke-dasharray:none" />
        </g>
        <g
           transform="translate(339.3428,1110.8613)"
           id="g4600">
          <path
             d="M 0,0 C 0.18,0 0.694,-0.326 0.694,-3.854 0.694,-7.338 0.18,-7.699 0,-7.699 c -0.176,0 -0.693,0.361 -0.693,3.845 C -0.693,-0.326 -0.176,0 0,0"
             id="path4602"
             style="fill:#ffffff;fill-opacity:1;fill-rule:nonzero;stroke:none" />
        </g>
        <g
           transform="translate(351.3086,1103.998)"
           id="g4604">
          <path
             d="m 0,0 c 0,-1.461 -1.356,-2.648 -3.019,-2.648 -1.671,0 -3.019,1.187 -3.019,2.648 0,1.459 1.348,2.645 3.019,2.645 C -1.356,2.645 0,1.459 0,0"
             id="path4606"
             style="fill:#2f225e;fill-opacity:1;fill-rule:nonzero;stroke:none" />
        </g>
        <g
           transform="translate(350.6387,1104.2871)"
           id="g4608">
          <path
             d="m 0,0 c 0,-1.148 -0.937,-2.084 -2.075,-2.084 l -0.572,0 c -1.145,0 -2.081,0.936 -2.081,2.084 l 0,5.725 c 0,1.15 0.936,2.088 2.081,2.088 l 0.572,0 C -0.937,7.813 0,6.875 0,5.725 L 0,0 z"
             id="path4610"
             style="fill:#efaf3f;fill-opacity:1;fill-rule:nonzero;stroke:none" />
        </g>
        <g
           transform="translate(350.6387,1104.2871)"
           id="g4612">
          <path
             d="m 0,0 c 0,-1.148 -0.937,-2.084 -2.075,-2.084 l -0.572,0 c -1.145,0 -2.081,0.936 -2.081,2.084 l 0,5.725 c 0,1.15 0.936,2.088 2.081,2.088 l 0.572,0 C -0.937,7.813 0,6.875 0,5.725 L 0,0 z"
             id="path4614"
             style="fill:none;stroke:#3e65a4;stroke-width:0.69999999;stroke-linecap:butt;stroke-linejoin:miter;stroke-miterlimit:4;stroke-opacity:1;stroke-dasharray:none" />
        </g>
        <g
           transform="translate(349.0293,1110.8613)"
           id="g4616">
          <path
             d="m 0,0 c 0.181,0 0.695,-0.326 0.695,-3.854 0,-3.484 -0.514,-3.845 -0.695,-3.845 -0.177,0 -0.691,0.361 -0.691,3.845 C -0.691,-0.326 -0.177,0 0,0"
             id="path4618"
             style="fill:#ffffff;fill-opacity:1;fill-rule:nonzero;stroke:none" />
        </g>
        <g
           transform="translate(360.9951,1103.998)"
           id="g4620">
          <path
             d="m 0,0 c 0,-1.461 -1.355,-2.648 -3.02,-2.648 -1.67,0 -3.019,1.187 -3.019,2.648 0,1.459 1.349,2.645 3.019,2.645 C -1.355,2.645 0,1.459 0,0"
             id="path4622"
             style="fill:#2f225e;fill-opacity:1;fill-rule:nonzero;stroke:none" />
        </g>
        <g
           transform="translate(360.3252,1104.2871)"
           id="g4624">
          <path
             d="m 0,0 c 0,-1.148 -0.938,-2.084 -2.076,-2.084 l -0.572,0 c -1.145,0 -2.081,0.936 -2.081,2.084 l 0,5.725 c 0,1.15 0.936,2.088 2.081,2.088 l 0.572,0 C -0.938,7.813 0,6.875 0,5.725 L 0,0 z"
             id="path4626"
             style="fill:#efaf3f;fill-opacity:1;fill-rule:nonzero;stroke:none" />
        </g>
        <g
           transform="translate(360.3252,1104.2871)"
           id="g4628">
          <path
             d="m 0,0 c 0,-1.148 -0.938,-2.084 -2.076,-2.084 l -0.572,0 c -1.145,0 -2.081,0.936 -2.081,2.084 l 0,5.725 c 0,1.15 0.936,2.088 2.081,2.088 l 0.572,0 C -0.938,7.813 0,6.875 0,5.725 L 0,0 z"
             id="path4630"
             style="fill:none;stroke:#3e65a4;stroke-width:0.69999999;stroke-linecap:butt;stroke-linejoin:miter;stroke-miterlimit:4;stroke-opacity:1;stroke-dasharray:none" />
        </g>
        <g
           transform="translate(358.7168,1110.8613)"
           id="g4632">
          <path
             d="M 0,0 C 0.18,0 0.694,-0.326 0.694,-3.854 0.694,-7.338 0.18,-7.699 0,-7.699 c -0.176,0 -0.692,0.361 -0.692,3.845 C -0.692,-0.326 -0.176,0 0,0"
             id="path4634"
             style="fill:#ffffff;fill-opacity:1;fill-rule:nonzero;stroke:none" />
        </g>
        <g
           transform="translate(363.3818,1087.3809)"
           id="g4636">
          <path
             d="m 0,0 -30.162,0 0,1.494 30.156,0 L 0,0 z"
             id="path4638"
             style="fill:#adacba;fill-opacity:1;fill-rule:nonzero;stroke:none" />
        </g>
        <g
           transform="translate(363.3818,1080.1309)"
           id="g4640">
          <path
             d="m 0,0 -30.162,0 0,1.494 30.156,0 L 0,0 z"
             id="path4642"
             style="fill:#adacba;fill-opacity:1;fill-rule:nonzero;stroke:none" />
        </g>
        <g
           transform="translate(363.3818,1072.8809)"
           id="g4644">
          <path
             d="m 0,0 -30.162,0 0,1.492 30.156,0 L 0,0 z"
             id="path4646"
             style="fill:#adacba;fill-opacity:1;fill-rule:nonzero;stroke:none" />
        </g>
      </g>
    </g>
    <g
       transform="matrix(0.31779085,0,0,-0.29299683,239.23457,876.43659)"
       id="g4648">
      <g
         clip-path="url(#clipPath4652)"
         id="g4650">
        <g
           id="g4656">
          <g
             id="g4658">
            <path
               d="m 374.111,1078.573 -10.909,-10.791 c -0.217,-0.217 -0.573,-0.217 -0.793,0 l 0,0 -3.215,3.218 c -0.217,0.213 -0.575,0.213 -0.793,0 l 0,0 -2.377,-2.383 c -0.217,-0.219 -0.217,-0.574 0,-0.793 l 0,0 6.388,-6.385 c 0.219,-0.22 0.573,-0.22 0.792,0 l 0,0 14.077,13.963 c 0.216,0.219 0.216,0.574 0,0.794 l 0,0 -2.38,2.377 c -0.109,0.109 -0.253,0.164 -0.396,0.164 l 0,0 c -0.143,0 -0.285,-0.055 -0.394,-0.164"
               id="path4668"
               style="fill:url(#radialGradient4660);stroke:none" />
          </g>
        </g>
      </g>
    </g>
    <g
       transform="matrix(0.31779085,0,0,-0.29299683,239.23457,876.43659)"
       id="g4670">
      <g
         clip-path="url(#clipPath4674)"
         id="g4672">
        <g
           transform="translate(377.2813,1075.4023)"
           id="g4678">
          <path
             d="M 0,0 C 0.216,0.219 0.216,0.574 0,0.793 L -2.38,3.17 c -0.22,0.219 -0.573,0.219 -0.79,0 L -14.079,-7.621 c -0.217,-0.217 -0.573,-0.217 -0.793,0 l -3.216,3.219 c -0.217,0.213 -0.574,0.213 -0.793,0 l -2.377,-2.383 c -0.217,-0.219 -0.217,-0.574 0,-0.793 l 6.389,-6.385 c 0.219,-0.221 0.573,-0.221 0.792,0 L 0,0 z"
             id="path4680"
             style="fill:none;stroke:#7acc46;stroke-width:1.74800003;stroke-linecap:butt;stroke-linejoin:miter;stroke-miterlimit:4;stroke-opacity:1;stroke-dasharray:none" />
        </g>
      </g>
    </g>
  </g>
</svg>
