<?xml version="1.0" encoding="UTF-8" standalone="no"?>
<!-- Created with Inkscape (http://www.inkscape.org/) -->

<svg
   xmlns:dc="http://purl.org/dc/elements/1.1/"
   xmlns:cc="http://creativecommons.org/ns#"
   xmlns:rdf="http://www.w3.org/1999/02/22-rdf-syntax-ns#"
   xmlns:svg="http://www.w3.org/2000/svg"
   xmlns="http://www.w3.org/2000/svg"
   version="1.1"
   width="30.187975"
   height="30"
   id="svg19795">
  <defs
     id="defs19797">
    <clipPath
       id="clipPath4706">
      <path
         d="m 0,1505.001 539.578,0 L 539.578,0 0,0 0,1505.001 z"
         id="path4708" />
    </clipPath>
    <clipPath
       id="clipPath4686">
      <path
         d="M 81.413,700.447 79.6,698.634 c -0.237,-0.24 -0.623,-0.24 -0.86,0 l 0,0 -1.811,1.813 c -0.234,0.235 -0.62,0.235 -0.856,0 l 0,0 -2.58,-2.579 c -0.235,-0.237 -0.235,-0.623 0,-0.858 l 0,0 1.814,-1.814 c 0.234,-0.238 0.237,-0.619 0,-0.86 l 0,0 -1.814,-1.811 c -0.235,-0.235 -0.235,-0.622 0,-0.857 l 0,0 2.58,-2.579 c 0.236,-0.234 0.622,-0.234 0.859,0 l 0,0 1.808,1.814 c 0.24,0.237 0.623,0.237 0.861,0 l 0,0 1.812,-1.814 c 0.237,-0.234 0.623,-0.234 0.857,0 l 0,0 2.579,2.579 c 0.236,0.235 0.236,0.622 0,0.857 l 0,0 -1.814,1.811 c -0.238,0.241 -0.238,0.622 0,0.86 l 0,0 1.814,1.814 c 0.236,0.235 0.236,0.621 0,0.858 l 0,0 -2.579,2.579 c -0.117,0.118 -0.272,0.176 -0.427,0.176 l 0,0 c -0.156,0 -0.312,-0.058 -0.43,-0.176"
         id="path4688" />
    </clipPath>
    <linearGradient
       x1="0"
       y1="0"
       x2="1"
       y2="0"
       id="linearGradient4694"
       gradientUnits="userSpaceOnUse"
       gradientTransform="matrix(11.709473,0,0,-11.709473,73.316406,694.76758)"
       spreadMethod="pad">
      <stop
         id="stop4696"
         style="stop-color:#ef2e33;stop-opacity:1"
         offset="0" />
      <stop
         id="stop4698"
         style="stop-color:#9a1a1f;stop-opacity:1"
         offset="1" />
    </linearGradient>
    <clipPath
       id="clipPath4498">
      <path
         d="m 0,1505.001 539.578,0 L 539.578,0 0,0 0,1505.001 z"
         id="path4500" />
    </clipPath>
    <clipPath
       id="clipPath4476">
      <path
         d="M 104.71,677.574 93.802,666.782 c -0.217,-0.217 -0.574,-0.217 -0.793,0 l 0,0 -3.216,3.219 c -0.217,0.213 -0.574,0.213 -0.793,0 l 0,0 -2.377,-2.382 c -0.217,-0.22 -0.217,-0.575 0,-0.794 l 0,0 6.388,-6.384 c 0.219,-0.222 0.574,-0.222 0.792,0 l 0,0 14.078,13.963 c 0.215,0.218 0.215,0.573 0,0.792 l 0,0 -2.38,2.378 c -0.11,0.109 -0.253,0.163 -0.396,0.163 l 0,0 c -0.143,0 -0.286,-0.054 -0.395,-0.163"
         id="path4478" />
    </clipPath>
    <radialGradient
       cx="0"
       cy="0"
       r="1"
       fx="0"
       fy="0"
       id="radialGradient4484"
       gradientUnits="userSpaceOnUse"
       gradientTransform="matrix(9.8149719,0,0,-9.8149719,97.251953,669.00586)"
       spreadMethod="pad">
      <stop
         id="stop4486"
         style="stop-color:#ffffff;stop-opacity:1"
         offset="0" />
      <stop
         id="stop4488"
         style="stop-color:#9bd41f;stop-opacity:1"
         offset="0.852768" />
      <stop
         id="stop4490"
         style="stop-color:#9bd41f;stop-opacity:1"
         offset="1" />
    </radialGradient>
    <clipPath
       id="clipPath4214">
      <path
         d="m 90.927,706.08 -0.751,-9.733 c -0.097,-1.311 0.865,-2.281 2.142,-2.156 l 0,0 7.148,0.694 c 0.455,0.042 0.79,0.196 1.005,0.414 l 0,0 -9.287,11.656 c -0.13,-0.196 -0.226,-0.48 -0.257,-0.875"
         id="path4216" />
    </clipPath>
    <linearGradient
       x1="0"
       y1="0"
       x2="1"
       y2="0"
       id="linearGradient4222"
       gradientUnits="userSpaceOnUse"
       gradientTransform="matrix(10.300781,0,0,-10.300781,90.169922,700.56738)"
       spreadMethod="pad">
      <stop
         id="stop4224"
         style="stop-color:#e1e0df;stop-opacity:1"
         offset="0" />
      <stop
         id="stop4226"
         style="stop-color:#e2e2e0;stop-opacity:1"
         offset="0.54707301" />
      <stop
         id="stop4228"
         style="stop-color:#ffffff;stop-opacity:1"
         offset="1" />
    </linearGradient>
    <clipPath
       id="clipPath4192">
      <path
         d="m 63.014,706.955 c -1.398,0 -2.537,-1.166 -2.537,-2.586 l 0,0 0,-42.808 c 0,-1.422 1.139,-2.58 2.537,-2.58 l 0,0 34.997,0 c 1.399,0 2.542,1.158 2.378,2.497 l 0,0 0,33.929 c -0.05,-0.133 -0.385,-0.283 -0.84,-0.326 l 0,0 -7.15,-0.683 c -1.276,-0.122 -2.238,0.833 -2.14,2.123 l 0,0 0.75,9.572 c 0.032,0.389 0.127,0.671 0.257,0.862 l 0,0 -28.252,0 z"
         id="path4194" />
    </clipPath>
    <linearGradient
       x1="0"
       y1="0"
       x2="1"
       y2="0"
       id="linearGradient4200"
       gradientUnits="userSpaceOnUse"
       gradientTransform="matrix(0,47.974609,47.974609,0,80.440918,658.98047)"
       spreadMethod="pad">
      <stop
         id="stop4202"
         style="stop-color:#e1e0df;stop-opacity:1"
         offset="0" />
      <stop
         id="stop4204"
         style="stop-color:#fcfcfc;stop-opacity:1"
         offset="0.95706201" />
      <stop
         id="stop4206"
         style="stop-color:#fcfcfc;stop-opacity:1"
         offset="1" />
    </linearGradient>
    <clipPath
       id="clipPath386">
      <path
         d="m 60.919,661.381 c 0,-2.509 11.189,-4.539 24.992,-4.539 l 0,0 c 13.801,0 24.993,2.03 24.993,4.539 l 0,0 c 0,2.504 -11.192,4.532 -24.993,4.532 l 0,0 c -13.803,0 -24.992,-2.028 -24.992,-4.532"
         id="path388" />
    </clipPath>
    <radialGradient
       cx="0"
       cy="0"
       r="1"
       fx="0"
       fy="0"
       id="radialGradient394"
       gradientUnits="userSpaceOnUse"
       gradientTransform="matrix(24.99826,0,0,-4.5339966,85.912109,661.37793)"
       spreadMethod="pad">
      <stop
         id="stop396"
         style="stop-color:#a7a5a6;stop-opacity:1"
         offset="0" />
      <stop
         id="stop398"
         style="stop-color:#ffffff;stop-opacity:1"
         offset="1" />
    </radialGradient>
  </defs>
  <metadata
     id="metadata19800">
    <rdf:RDF>
      <cc:Work
         rdf:about="">
        <dc:format>image/svg+xml</dc:format>
        <dc:type
           rdf:resource="http://purl.org/dc/dcmitype/StillImage" />
        <dc:title></dc:title>
      </cc:Work>
    </rdf:RDF>
  </metadata>
  <g
     transform="translate(-343.48312,-533.6828)"
     id="layer1">
    <g
       transform="matrix(0.59864706,0,0,-0.59864706,307.27874,956.89933)"
       id="g382">
      <g
         clip-path="url(#clipPath386)"
         id="g384">
        <g
           id="g390">
          <g
             id="g392">
            <path
               d="m 60.919,661.381 c 0,-2.509 11.189,-4.539 24.992,-4.539 l 0,0 c 13.801,0 24.993,2.03 24.993,4.539 l 0,0 c 0,2.504 -11.192,4.532 -24.993,4.532 l 0,0 c -13.803,0 -24.992,-2.028 -24.992,-4.532"
               id="path400"
               style="fill:url(#radialGradient394);stroke:none" />
          </g>
        </g>
      </g>
    </g>
    <g
       transform="matrix(0.59864706,0,0,-0.59864706,307.27874,956.89933)"
       id="g4188">
      <g
         clip-path="url(#clipPath4192)"
         id="g4190">
        <g
           id="g4196">
          <g
             id="g4198">
            <path
               d="m 63.014,706.955 c -1.398,0 -2.537,-1.166 -2.537,-2.586 l 0,0 0,-42.808 c 0,-1.422 1.139,-2.58 2.537,-2.58 l 0,0 34.997,0 c 1.399,0 2.542,1.158 2.378,2.497 l 0,0 0,33.929 c -0.05,-0.133 -0.385,-0.283 -0.84,-0.326 l 0,0 -7.15,-0.683 c -1.276,-0.122 -2.238,0.833 -2.14,2.123 l 0,0 0.75,9.572 c 0.032,0.389 0.127,0.671 0.257,0.862 l 0,0 -28.252,0 z"
               id="path4208"
               style="fill:url(#linearGradient4200);stroke:none" />
          </g>
        </g>
      </g>
    </g>
    <g
       transform="matrix(0.59864706,0,0,-0.59864706,307.27874,956.89933)"
       id="g4210">
      <g
         clip-path="url(#clipPath4214)"
         id="g4212">
        <g
           id="g4218">
          <g
             id="g4220">
            <path
               d="m 90.927,706.08 -0.751,-9.733 c -0.097,-1.311 0.865,-2.281 2.142,-2.156 l 0,0 7.148,0.694 c 0.455,0.042 0.79,0.196 1.005,0.414 l 0,0 -9.287,11.656 c -0.13,-0.196 -0.226,-0.48 -0.257,-0.875"
               id="path4230"
               style="fill:url(#linearGradient4222);stroke:none" />
          </g>
        </g>
      </g>
    </g>
    <path
       d="m 363.72038,546.49565 -16.36461,0 0,-0.52083 16.36461,0 0,0.52083 z"
       id="path4240"
       style="fill:#adacba;fill-opacity:1;fill-rule:nonzero;stroke:none" />
    <path
       d="m 347.49166,546.35556 16.09343,0 0,-0.23886 -16.09343,0 0,0.23886 z m 16.36522,0.27957 -16.64,0 0,-0.80099 16.637,0 0.003,0.80099 z"
       id="path4242"
       style="fill:#adacba;fill-opacity:1;fill-rule:nonzero;stroke:none" />
    <path
       d="m 363.72038,548.66095 -16.36461,0 0,-0.51902 16.36461,0 0,0.51902 z"
       id="path4244"
       style="fill:#adacba;fill-opacity:1;fill-rule:nonzero;stroke:none" />
    <path
       d="m 347.49166,548.52386 16.09343,0 0,-0.24484 -16.09343,0 0,0.24484 z m 16.36522,0.27837 -16.64,0 0,-0.80278 16.637,0 0.003,0.80278 z"
       id="path4246"
       style="fill:#adacba;fill-opacity:1;fill-rule:nonzero;stroke:none" />
    <path
       d="m 363.72038,550.82387 -16.36461,0 0,-0.52143 16.36461,0 0,0.52143 z"
       id="path4248"
       style="fill:#adacba;fill-opacity:1;fill-rule:nonzero;stroke:none" />
    <path
       d="m 347.49166,550.68498 16.09343,0 0,-0.24185 -16.09343,0 0,0.24185 z m 16.36522,0.27957 -16.64,0 0,-0.80159 16.637,0 0.003,0.80159 z"
       id="path4250"
       style="fill:#adacba;fill-opacity:1;fill-rule:nonzero;stroke:none" />
    <path
       d="m 363.72038,552.98977 -16.36461,0 0,-0.51903 16.36461,0 0,0.51903 z"
       id="path4252"
       style="fill:#adacba;fill-opacity:1;fill-rule:nonzero;stroke:none" />
    <path
       d="m 347.49166,552.85328 16.09343,0 0,-0.24724 -16.09343,0 0,0.24724 z m 16.36522,0.27418 -16.64,0 0,-0.79979 16.637,0 0.003,0.79979 z"
       id="path4254"
       style="fill:#adacba;fill-opacity:1;fill-rule:nonzero;stroke:none" />
    <path
       d="m 363.72038,555.15568 -16.36461,0 0,-0.52442 16.36461,0 0,0.52442 z"
       id="path4256"
       style="fill:#adacba;fill-opacity:1;fill-rule:nonzero;stroke:none" />
    <path
       d="m 347.49166,555.01619 16.09343,0 0,-0.24544 -16.09343,0 0,0.24544 z m 16.36522,0.27777 -16.64,0 0,-0.80218 16.637,0 0.003,0.80218 z"
       id="path4258"
       style="fill:#adacba;fill-opacity:1;fill-rule:nonzero;stroke:none" />
    <path
       d="m 363.72038,557.31679 -16.36461,0 0,-0.51903 16.36461,0 0,0.51903 z"
       id="path4260"
       style="fill:#adacba;fill-opacity:1;fill-rule:nonzero;stroke:none" />
    <path
       d="m 347.49166,557.1815 16.09343,0 0,-0.24545 -16.09343,0 0,0.24545 z m 16.36522,0.27538 -16.64,0 0,-0.80099 16.637,0 0.003,0.80099 z"
       id="path4262"
       style="fill:#adacba;fill-opacity:1;fill-rule:nonzero;stroke:none" />
    <g
       transform="matrix(0.59864706,0,0,-0.59864706,307.27874,956.89933)"
       id="g4472">
      <g
         clip-path="url(#clipPath4476)"
         id="g4474">
        <g
           id="g4480">
          <g
             id="g4482">
            <path
               d="M 104.71,677.574 93.802,666.782 c -0.217,-0.217 -0.574,-0.217 -0.793,0 l 0,0 -3.216,3.219 c -0.217,0.213 -0.574,0.213 -0.793,0 l 0,0 -2.377,-2.382 c -0.217,-0.22 -0.217,-0.575 0,-0.794 l 0,0 6.388,-6.384 c 0.219,-0.222 0.574,-0.222 0.792,0 l 0,0 14.078,13.963 c 0.215,0.218 0.215,0.573 0,0.792 l 0,0 -2.38,2.378 c -0.11,0.109 -0.253,0.163 -0.396,0.163 l 0,0 c -0.143,0 -0.286,-0.054 -0.395,-0.163"
               id="path4492"
               style="fill:url(#radialGradient4484);stroke:none" />
          </g>
        </g>
      </g>
    </g>
    <g
       transform="matrix(0.59864706,0,0,-0.59864706,307.27874,956.89933)"
       id="g4494">
      <g
         clip-path="url(#clipPath4498)"
         id="g4496">
        <g
           transform="translate(107.8809,674.4043)"
           id="g4502">
          <path
             d="M 0,0 C 0.216,0.218 0.216,0.573 0,0.792 L -2.38,3.17 c -0.22,0.218 -0.573,0.218 -0.79,0 L -14.079,-7.622 c -0.217,-0.217 -0.573,-0.217 -0.793,0 l -3.216,3.219 c -0.217,0.213 -0.574,0.213 -0.793,0 l -2.377,-2.382 c -0.217,-0.22 -0.217,-0.575 0,-0.794 l 6.389,-6.385 c 0.219,-0.221 0.573,-0.221 0.792,0 L 0,0 z"
             id="path4504"
             style="fill:none;stroke:#7acc46;stroke-width:1.74800003;stroke-linecap:butt;stroke-linejoin:miter;stroke-miterlimit:4;stroke-opacity:1;stroke-dasharray:none" />
        </g>
      </g>
    </g>
    <g
       transform="matrix(0.59864706,0,0,-0.59864706,307.27874,956.89933)"
       id="g4682">
      <g
         clip-path="url(#clipPath4686)"
         id="g4684">
        <g
           id="g4690">
          <g
             id="g4692">
            <path
               d="M 81.413,700.447 79.6,698.634 c -0.237,-0.24 -0.623,-0.24 -0.86,0 l 0,0 -1.811,1.813 c -0.234,0.235 -0.62,0.235 -0.856,0 l 0,0 -2.58,-2.579 c -0.235,-0.237 -0.235,-0.623 0,-0.858 l 0,0 1.814,-1.814 c 0.234,-0.238 0.237,-0.619 0,-0.86 l 0,0 -1.814,-1.811 c -0.235,-0.235 -0.235,-0.622 0,-0.857 l 0,0 2.58,-2.579 c 0.236,-0.234 0.622,-0.234 0.859,0 l 0,0 1.808,1.814 c 0.24,0.237 0.623,0.237 0.861,0 l 0,0 1.812,-1.814 c 0.237,-0.234 0.623,-0.234 0.857,0 l 0,0 2.579,2.579 c 0.236,0.235 0.236,0.622 0,0.857 l 0,0 -1.814,1.811 c -0.238,0.241 -0.238,0.622 0,0.86 l 0,0 1.814,1.814 c 0.236,0.235 0.236,0.621 0,0.858 l 0,0 -2.579,2.579 c -0.117,0.118 -0.272,0.176 -0.427,0.176 l 0,0 c -0.156,0 -0.312,-0.058 -0.43,-0.176"
               id="path4700"
               style="fill:url(#linearGradient4694);stroke:none" />
          </g>
        </g>
      </g>
    </g>
    <g
       transform="matrix(0.59864706,0,0,-0.59864706,307.27874,956.89933)"
       id="g4702">
      <g
         clip-path="url(#clipPath4706)"
         id="g4704">
        <g
           transform="translate(82.2695,700.4463)"
           id="g4710">
          <path
             d="M 0,0 C -0.233,0.236 -0.62,0.236 -0.856,0 L -2.67,-1.813 c -0.236,-0.24 -0.623,-0.24 -0.859,0 L -5.34,0 c -0.234,0.236 -0.62,0.236 -0.856,0 l -2.58,-2.578 c -0.236,-0.236 -0.236,-0.623 0,-0.858 l 1.814,-1.814 c 0.233,-0.238 0.236,-0.619 0,-0.859 l -1.814,-1.813 c -0.236,-0.234 -0.236,-0.621 0,-0.856 l 2.58,-2.579 c 0.236,-0.235 0.622,-0.235 0.858,0 l 1.809,1.814 c 0.239,0.236 0.623,0.236 0.861,0 l 1.812,-1.814 c 0.236,-0.235 0.623,-0.235 0.856,0 l 2.58,2.579 c 0.235,0.235 0.235,0.622 0,0.856 l -1.814,1.813 c -0.239,0.24 -0.239,0.621 0,0.859 l 1.814,1.814 c 0.235,0.235 0.235,0.622 0,0.858 L 0,0 z"
             id="path4712"
             style="fill:none;stroke:#3f51ac;stroke-width:1;stroke-linecap:butt;stroke-linejoin:miter;stroke-miterlimit:4;stroke-opacity:1;stroke-dasharray:none" />
        </g>
      </g>
    </g>
  </g>
</svg>
