<?xml version="1.0" encoding="UTF-8" standalone="no"?>
<!-- Created with Inkscape (http://www.inkscape.org/) -->

<svg
   xmlns:dc="http://purl.org/dc/elements/1.1/"
   xmlns:cc="http://creativecommons.org/ns#"
   xmlns:rdf="http://www.w3.org/1999/02/22-rdf-syntax-ns#"
   xmlns:svg="http://www.w3.org/2000/svg"
   xmlns="http://www.w3.org/2000/svg"
   xmlns:xlink="http://www.w3.org/1999/xlink"
   version="1.1"
   width="16"
   height="16"
   id="svg14513">
  <metadata
     id="metadata14551">
    <rdf:RDF>
      <cc:Work
         rdf:about="">
        <dc:format>image/svg+xml</dc:format>
        <dc:type
           rdf:resource="http://purl.org/dc/dcmitype/StillImage" />
        <dc:title></dc:title>
      </cc:Work>
    </rdf:RDF>
  </metadata>
  <defs
     id="defs14515">
    <linearGradient
       x1="-819.20001"
       x2="819.20001"
       id="gradient0"
       gradientUnits="userSpaceOnUse"
       gradientTransform="matrix(0.00177002,-0.01509094,0.00569153,6.8664551e-4,10.9,13.95)"
       spreadMethod="pad">
      <stop
         id="stop14518"
         style="stop-color:#ffffff;stop-opacity:1"
         offset="0.36862746" />
      <stop
         id="stop14520"
         style="stop-color:#a4c0ec;stop-opacity:1"
         offset="1" />
    </linearGradient>
    <linearGradient
       x1="-819.20001"
       x2="819.20001"
       id="gradient1"
       gradientUnits="userSpaceOnUse"
       gradientTransform="matrix(0.00854492,9.765625e-4,-4.8828125e-4,0.00431824,10.55,16.55)"
       spreadMethod="pad">
      <stop
         id="stop14523"
         style="stop-color:#bbd87b;stop-opacity:1"
         offset="0" />
      <stop
         id="stop14525"
         style="stop-color:#86b523;stop-opacity:1"
         offset="0.52549022" />
      <stop
         id="stop14527"
         style="stop-color:#d2e79f;stop-opacity:1"
         offset="1" />
    </linearGradient>
    <linearGradient
       x1="-819.20001"
       x2="819.20001"
       id="linearGradient14557"
       xlink:href="#gradient1"
       gradientUnits="userSpaceOnUse"
       gradientTransform="matrix(0.0046503,5.314626e-4,-2.657313e-4,0.00235006,6.8414968,9.006803)"
       spreadMethod="pad" />
    <linearGradient
       x1="-819.20001"
       x2="819.20001"
       id="linearGradient14560"
       xlink:href="#gradient0"
       gradientUnits="userSpaceOnUse"
       gradientTransform="matrix(9.6327621e-4,-0.00821276,0.00309743,3.7368464e-4,7.031973,7.591837)"
       spreadMethod="pad" />
  </defs>
  <path
     d="m 14.814286,5.061225 0.05442,0.244897 -1.197279,10.367347 -0.08163,0.244898 L 13.372109,16 2.569388,14.77551 2.4061227,14.639456 2.3517009,14.394558 3.5489799,4 3.6578234,3.782313 3.8482996,3.700683 14.651021,4.925173 14.814286,5.061228"
     id="path14531"
     style="fill:#b3b3b3;stroke:none" />
  <path
     d="M 13.453742,15.70068 2.6238098,14.44898 3.8210887,3.891157 14.62381,5.142857 13.453742,15.70068"
     id="path14533"
     style="fill:#eaeaea;stroke:none" />
  <path
     d="m 13.562585,3.07483 0.05442,0.272109 -1.197279,10.367347 -0.08163,0.244898 -0.190477,0.08163 L 1.3176873,12.789114 1.154422,12.653059 1.1,12.435372 2.2972789,2.040814 2.4061225,1.795916 q 0.081633,-0.08163 0.1904762,-0.08163 l 10.8027213,1.2517 0.163265,0.108844"
     id="path14535"
     style="fill:#b3b3b3;stroke:none" />
  <path
     d="M 11.957143,13.469388 1.2632655,12.244898 2.4605445,1.877551 13.127211,3.102041 11.957143,13.469388"
     id="path14537"
     style="fill:#ffffff;stroke:none" />
  <path
     d="M 10.433334,11.183673 2.9231295,10.340136 3.6578234,4 11.168028,4.843538 10.433334,11.183673"
     id="path14539"
     style="fill:url(#linearGradient14560);stroke:none" />
  <path
     d="m 8.5013609,8.353741 q 1.115646,-0.92517 1.5782311,-0.952381 0.408163,0.02721 0.734694,0.571429 L 10.460545,11.238095 2.9231295,10.367347 3.0863948,8.843537 3.7122452,8.408163 Q 4.936735,7.755102 5.7258505,8.544218 L 6.4605444,9.22449 7.031973,9.387755 Q 7.2768709,9.333335 7.6306124,9.061224 L 8.5013609,8.353741"
     id="path14541"
     style="fill:url(#linearGradient14557);stroke:none" />
  <path
     d="M 4.5829935,0.734694 Q 4.6102044,0.489796 4.936735,0.244898 5.3176872,0 5.7530614,0 6.1612246,0 6.4061226,0.244898 6.7054423,0.489796 6.7054423,0.789116 L 6.32449,4.707483 5.8891158,5.170068 5.1816328,5.414966 4.4197282,5.170068 Q 4.1476193,4.979592 4.1748302,4.707483 L 4.5829935,0.734694"
     id="path14543"
     style="fill:#bbbbbb;stroke:none" />
  <path
     d="M 5.5353743,0.789116 5.2088437,4.59864"
     id="path14547"
     style="fill:none;stroke:#ffffff;stroke-width:0.13605443;stroke-linecap:round;stroke-linejoin:round" />
</svg>
