<?xml version="1.0" encoding="UTF-8" standalone="no"?>
<!-- Created with Inkscape (http://www.inkscape.org/) -->

<svg
   xmlns:dc="http://purl.org/dc/elements/1.1/"
   xmlns:cc="http://creativecommons.org/ns#"
   xmlns:rdf="http://www.w3.org/1999/02/22-rdf-syntax-ns#"
   xmlns:svg="http://www.w3.org/2000/svg"
   xmlns="http://www.w3.org/2000/svg"
   version="1.1"
   width="28.132278"
   height="30"
   id="svg15113">
  <defs
     id="defs15115">
    <clipPath
       id="clipPath370">
      <path
         d="m 0,1505.001 539.578,0 L 539.578,0 0,0 0,1505.001 z"
         id="path372" />
    </clipPath>
    <clipPath
       id="clipPath350">
      <path
         d="m 55.687,995.106 c 1.167,-3.606 8.629,-6.39 17.685,-6.39 l 0,0 c 9.055,0 16.52,2.784 17.685,6.39 l 0,0 c -1.165,3.605 -8.63,6.389 -17.685,6.389 l 0,0 c -9.056,0 -16.518,-2.784 -17.685,-6.389"
         id="path352" />
    </clipPath>
    <linearGradient
       x1="0"
       y1="0"
       x2="1"
       y2="0"
       id="linearGradient358"
       gradientUnits="userSpaceOnUse"
       gradientTransform="matrix(35.724167,0,0,-35.724167,55.510254,995.10547)"
       spreadMethod="pad">
      <stop
         id="stop360"
         style="stop-color:#f1fbfe;stop-opacity:1"
         offset="0" />
      <stop
         id="stop362"
         style="stop-color:#8fcff2;stop-opacity:1"
         offset="1" />
    </linearGradient>
    <clipPath
       id="clipPath328">
      <path
         d="m 55.509,996.088 c 0,-0.334 0.072,-0.66 0.178,-0.982 l 0,0 c 1.167,3.605 8.629,6.389 17.685,6.389 l 0,0 c 9.055,0 16.52,-2.784 17.685,-6.389 l 0,0 c 0.105,0.322 0.178,0.648 0.178,0.982 l 0,0 c 0,4.072 -7.999,7.373 -17.863,7.373 l 0,0 c -9.866,0 -17.863,-3.301 -17.863,-7.373"
         id="path330" />
    </clipPath>
    <linearGradient
       x1="0"
       y1="0"
       x2="1"
       y2="0"
       id="linearGradient336"
       gradientUnits="userSpaceOnUse"
       gradientTransform="matrix(35.725586,0,0,-35.725586,55.509277,999.2832)"
       spreadMethod="pad">
      <stop
         id="stop338"
         style="stop-color:#c9e432;stop-opacity:1"
         offset="0" />
      <stop
         id="stop340"
         style="stop-color:#c4e112;stop-opacity:1"
         offset="0.39999399" />
      <stop
         id="stop342"
         style="stop-color:#53a135;stop-opacity:1"
         offset="1" />
    </linearGradient>
    <clipPath
       id="clipPath306">
      <path
         d="m 55.478,995.873 0,-31.689 c 0.065,-0.073 0.031,-0.242 0.031,-0.413 l 0,0 c 0,-4.07 7.997,-7.371 17.863,-7.371 l 0,0 c 9.864,0 17.863,3.301 17.863,7.371 l 0,0 c 0,0.169 -0.033,0.334 0.002,0.562 l 0,0 0,31.694 -35.759,-0.154 z"
         id="path308" />
    </clipPath>
    <linearGradient
       x1="0"
       y1="0"
       x2="1"
       y2="0"
       id="linearGradient314"
       gradientUnits="userSpaceOnUse"
       gradientTransform="matrix(35.758301,0,0,-35.758301,55.478027,976.21387)"
       spreadMethod="pad">
      <stop
         id="stop316"
         style="stop-color:#c9e432;stop-opacity:1"
         offset="0" />
      <stop
         id="stop318"
         style="stop-color:#c4e112;stop-opacity:1"
         offset="0.55828899" />
      <stop
         id="stop320"
         style="stop-color:#53a135;stop-opacity:1"
         offset="1" />
    </linearGradient>
    <clipPath
       id="clipPath286">
      <path
         d="m 58.313,958.846 c 0,-2.25 9.584,-4.07 21.408,-4.07 l 0,0 c 11.823,0 21.411,1.82 21.411,4.07 l 0,0 c 0,2.246 -9.588,4.065 -21.411,4.065 l 0,0 c -11.824,0 -21.408,-1.819 -21.408,-4.065"
         id="path288" />
    </clipPath>
    <radialGradient
       cx="0"
       cy="0"
       r="1"
       fx="0"
       fy="0"
       id="radialGradient294"
       gradientUnits="userSpaceOnUse"
       gradientTransform="matrix(21.414322,0,0,-4.0671082,79.72168,958.84375)"
       spreadMethod="pad">
      <stop
         id="stop296"
         style="stop-color:#a7a5a6;stop-opacity:1"
         offset="0" />
      <stop
         id="stop298"
         style="stop-color:#ffffff;stop-opacity:1"
         offset="1" />
    </radialGradient>
  </defs>
  <metadata
     id="metadata15118">
    <rdf:RDF>
      <cc:Work
         rdf:about="">
        <dc:format>image/svg+xml</dc:format>
        <dc:type
           rdf:resource="http://purl.org/dc/dcmitype/StillImage" />
        <dc:title></dc:title>
      </cc:Work>
    </rdf:RDF>
  </metadata>
  <g
     transform="translate(-346.46625,-532.79029)"
     id="layer1">
    <g
       transform="matrix(0.61620622,0,0,-0.61620622,312.28036,1151.1292)"
       id="g282">
      <g
         clip-path="url(#clipPath286)"
         id="g284">
        <g
           id="g290">
          <g
             id="g292">
            <path
               d="m 58.313,958.846 c 0,-2.25 9.584,-4.07 21.408,-4.07 l 0,0 c 11.823,0 21.411,1.82 21.411,4.07 l 0,0 c 0,2.246 -9.588,4.065 -21.411,4.065 l 0,0 c -11.824,0 -21.408,-1.819 -21.408,-4.065"
               id="path300"
               style="fill:url(#radialGradient294);stroke:none" />
          </g>
        </g>
      </g>
    </g>
    <g
       transform="matrix(0.61620622,0,0,-0.61620622,312.28036,1151.1292)"
       id="g302">
      <g
         clip-path="url(#clipPath306)"
         id="g304">
        <g
           id="g310">
          <g
             id="g312">
            <path
               d="m 55.478,995.873 0,-31.689 c 0.065,-0.073 0.031,-0.242 0.031,-0.413 l 0,0 c 0,-4.07 7.997,-7.371 17.863,-7.371 l 0,0 c 9.864,0 17.863,3.301 17.863,7.371 l 0,0 c 0,0.169 -0.033,0.334 0.002,0.562 l 0,0 0,31.694 -35.759,-0.154 z"
               id="path322"
               style="fill:url(#linearGradient314);stroke:none" />
          </g>
        </g>
      </g>
    </g>
    <g
       transform="matrix(0.61620622,0,0,-0.61620622,312.28036,1151.1292)"
       id="g324">
      <g
         clip-path="url(#clipPath328)"
         id="g326">
        <g
           id="g332">
          <g
             id="g334">
            <path
               d="m 55.509,996.088 c 0,-0.334 0.072,-0.66 0.178,-0.982 l 0,0 c 1.167,3.605 8.629,6.389 17.685,6.389 l 0,0 c 9.055,0 16.52,-2.784 17.685,-6.389 l 0,0 c 0.105,0.322 0.178,0.648 0.178,0.982 l 0,0 c 0,4.072 -7.999,7.373 -17.863,7.373 l 0,0 c -9.866,0 -17.863,-3.301 -17.863,-7.373"
               id="path344"
               style="fill:url(#linearGradient336);stroke:none" />
          </g>
        </g>
      </g>
    </g>
    <g
       transform="matrix(0.61620622,0,0,-0.61620622,312.28036,1151.1292)"
       id="g346">
      <g
         clip-path="url(#clipPath350)"
         id="g348">
        <g
           id="g354">
          <g
             id="g356">
            <path
               d="m 55.687,995.106 c 1.167,-3.606 8.629,-6.39 17.685,-6.39 l 0,0 c 9.055,0 16.52,2.784 17.685,6.39 l 0,0 c -1.165,3.605 -8.63,6.389 -17.685,6.389 l 0,0 c -9.056,0 -16.518,-2.784 -17.685,-6.389"
               id="path364"
               style="fill:url(#linearGradient358);stroke:none" />
          </g>
        </g>
      </g>
    </g>
    <g
       transform="matrix(0.61620622,0,0,-0.61620622,312.28036,1151.1292)"
       id="g366">
      <g
         clip-path="url(#clipPath370)"
         id="g368">
        <g
           transform="translate(86.9341,957.127)"
           id="g374">
          <path
             d="m 0,0 c -0.468,0 -0.847,0.382 -0.847,0.848 l 0,3.59 c 0,0.467 -0.382,0.846 -0.847,0.846 l -3.592,0 c -0.467,0 -0.85,0.384 -0.85,0.852 l 0,4.913 c 0,0.469 0.383,0.85 0.85,0.85 l 3.592,0 c 0.465,0 0.847,0.381 0.847,0.847 l 0,3.589 c 0,0.469 0.379,0.848 0.847,0.848 l 4.913,0 c 0.469,0 0.849,-0.379 0.849,-0.848 l 0,-3.589 c 0,-0.466 0.383,-0.847 0.849,-0.847 l 3.591,0 c 0.465,0 0.848,-0.381 0.848,-0.85 l 0,-4.913 c 0,-0.468 -0.383,-0.852 -0.848,-0.852 l -3.591,0 C 6.145,5.284 5.762,4.905 5.762,4.438 l 0,-3.59 C 5.762,0.382 5.382,0 4.913,0 L 0,0 z"
             id="path376"
             style="fill:#efaf3f;fill-opacity:1;fill-rule:nonzero;stroke:none" />
        </g>
        <g
           transform="translate(86.9341,957.127)"
           id="g378">
          <path
             d="m 0,0 c -0.468,0 -0.847,0.382 -0.847,0.848 l 0,3.59 c 0,0.467 -0.382,0.846 -0.847,0.846 l -3.592,0 c -0.467,0 -0.85,0.384 -0.85,0.852 l 0,4.913 c 0,0.469 0.383,0.85 0.85,0.85 l 3.592,0 c 0.465,0 0.847,0.381 0.847,0.847 l 0,3.589 c 0,0.469 0.379,0.848 0.847,0.848 l 4.913,0 c 0.469,0 0.849,-0.379 0.849,-0.848 l 0,-3.589 c 0,-0.466 0.383,-0.847 0.849,-0.847 l 3.591,0 c 0.465,0 0.848,-0.381 0.848,-0.85 l 0,-4.913 c 0,-0.468 -0.383,-0.852 -0.848,-0.852 l -3.591,0 C 6.145,5.284 5.762,4.905 5.762,4.438 l 0,-3.59 C 5.762,0.382 5.382,0 4.913,0 L 0,0 z"
             id="path380"
             style="fill:none;stroke:#3f51ac;stroke-width:0.69999999;stroke-linecap:butt;stroke-linejoin:miter;stroke-miterlimit:4;stroke-opacity:1;stroke-dasharray:none" />
        </g>
      </g>
    </g>
  </g>
</svg>
