<?xml version="1.0" encoding="UTF-8" standalone="no"?>
<!-- Created with Inkscape (http://www.inkscape.org/) -->

<svg
   xmlns:dc="http://purl.org/dc/elements/1.1/"
   xmlns:cc="http://creativecommons.org/ns#"
   xmlns:rdf="http://www.w3.org/1999/02/22-rdf-syntax-ns#"
   xmlns:svg="http://www.w3.org/2000/svg"
   xmlns="http://www.w3.org/2000/svg"
   xmlns:xlink="http://www.w3.org/1999/xlink"
   version="1.1"
   width="30"
   height="30"
   id="svg14513">
  <metadata
     id="metadata14551">
    <rdf:RDF>
      <cc:Work
         rdf:about="">
        <dc:format>image/svg+xml</dc:format>
        <dc:type
           rdf:resource="http://purl.org/dc/dcmitype/StillImage" />
        <dc:title></dc:title>
      </cc:Work>
    </rdf:RDF>
  </metadata>
  <defs
     id="defs14515">
    <linearGradient
       x1="-819.20001"
       x2="819.20001"
       id="gradient0"
       gradientUnits="userSpaceOnUse"
       gradientTransform="matrix(0.00177002,-0.01509094,0.00569153,6.8664551e-4,10.9,13.95)"
       spreadMethod="pad">
      <stop
         id="stop14518"
         style="stop-color:#ffffff;stop-opacity:1"
         offset="0.36862746" />
      <stop
         id="stop14520"
         style="stop-color:#a4c0ec;stop-opacity:1"
         offset="1" />
    </linearGradient>
    <linearGradient
       x1="-819.20001"
       x2="819.20001"
       id="gradient1"
       gradientUnits="userSpaceOnUse"
       gradientTransform="matrix(0.00854492,9.765625e-4,-4.8828125e-4,0.00431824,10.55,16.55)"
       spreadMethod="pad">
      <stop
         id="stop14523"
         style="stop-color:#bbd87b;stop-opacity:1"
         offset="0" />
      <stop
         id="stop14525"
         style="stop-color:#86b523;stop-opacity:1"
         offset="0.52549022" />
      <stop
         id="stop14527"
         style="stop-color:#d2e79f;stop-opacity:1"
         offset="1" />
    </linearGradient>
    <linearGradient
       x1="-819.20001"
       x2="819.20001"
       id="linearGradient14557"
       xlink:href="#gradient1"
       gradientUnits="userSpaceOnUse"
       gradientTransform="matrix(0.00854492,9.765625e-4,-4.8828125e-4,0.00431824,13.216666,16.783)"
       spreadMethod="pad" />
    <linearGradient
       x1="-819.20001"
       x2="819.20001"
       id="linearGradient14560"
       xlink:href="#gradient0"
       gradientUnits="userSpaceOnUse"
       gradientTransform="matrix(0.00177002,-0.01509094,0.00569153,6.8664551e-4,13.566666,14.183)"
       spreadMethod="pad" />
  </defs>
  <path
     d="m 27.866666,9.5330007 0.1,0.4499996 -2.2,19.0499997 -0.15,0.45 -0.4,0.15 -19.8499997,-2.25 -0.3,-0.25 -0.1,-0.45 2.2,-19.0999993 0.2,-0.4 0.35,-0.15 19.8499997,2.25 0.3,0.25"
     id="path14531"
     style="fill:#b3b3b3;stroke:none" />
  <path
     d="m 25.366666,29.083 -19.8999997,-2.3 2.2,-19.3999993 19.8499997,2.2999996 -2.15,19.3999997"
     id="path14533"
     style="fill:#eaeaea;stroke:none" />
  <path
     d="m 25.566666,5.8830007 0.1,0.5 -2.2,19.0499993 -0.15,0.45 -0.35,0.15 -19.8999997,-2.3 -0.3,-0.25 -0.1,-0.4 2.2,-19.0999993 0.2,-0.45 q 0.15,-0.15 0.35,-0.15 l 19.8499997,2.3 0.3,0.2"
     id="path14535"
     style="fill:#b3b3b3;stroke:none" />
  <path
     d="m 22.616666,24.983 -19.6499997,-2.25 2.2,-19.0499993 19.5999997,2.25 -2.15,19.0499993"
     id="path14537"
     style="fill:#ffffff;stroke:none" />
  <path
     d="m 19.816666,20.783 -13.7999997,-1.55 1.35,-11.6499993 13.7999997,1.55 -1.35,11.6499993"
     id="path14539"
     style="fill:url(#linearGradient14560);stroke:none" />
  <path
     d="m 16.266666,15.583 q 2.05,-1.7 2.9,-1.75 0.75,0.05 1.35,1.05 l -0.65,6 -13.8499997,-1.6 0.3,-2.8 1.15,-0.8 q 2.25,-1.2 3.6999997,0.25 l 1.35,1.25 1.05,0.3 q 0.45,-0.1 1.1,-0.6 l 1.6,-1.3"
     id="path14541"
     style="fill:url(#linearGradient14557);stroke:none" />
  <path
     d="m 9.0666663,1.5830007 q 0.05,-0.45 0.65,-0.89999997 0.6999997,-0.45000002 1.4999997,-0.45000002 0.75,0 1.2,0.45000002 0.55,0.44999997 0.55,0.99999997 l -0.7,7.2 -0.8,0.8499996 -1.3,0.4499997 -1.3999997,-0.4499997 q -0.5,-0.3499996 -0.45,-0.8499996 l 0.75,-7.3"
     id="path14543"
     style="fill:#bbbbbb;stroke:none" />
  <path
     d="m 10.816666,1.6830007 -0.6,7"
     id="path14547"
     style="fill:none;stroke:#ffffff;stroke-width:0.25;stroke-linecap:round;stroke-linejoin:round" />
</svg>
