<?xml version="1.0" encoding="UTF-8" standalone="no"?>
<!-- Created with Inkscape (http://www.inkscape.org/) -->

<svg
   xmlns:dc="http://purl.org/dc/elements/1.1/"
   xmlns:cc="http://creativecommons.org/ns#"
   xmlns:rdf="http://www.w3.org/1999/02/22-rdf-syntax-ns#"
   xmlns:svg="http://www.w3.org/2000/svg"
   xmlns="http://www.w3.org/2000/svg"
   version="1.1"
   width="16"
   height="16.004065"
   id="svg17054">
  <defs
     id="defs17056">
    <clipPath
       id="clipPath5788">
      <path
         d="m 0,1505.001 539.578,0 L 539.578,0 0,0 0,1505.001 z"
         id="path5790" />
    </clipPath>
    <clipPath
       id="clipPath5766">
      <path
         d="m 361.699,894.462 0,-4.435 c 0,-0.208 -0.175,-0.385 -0.387,-0.385 l 0,0 -7.119,0 c -1.076,0 -1.945,-0.876 -1.945,-1.957 l 0,0 0,-7.193 c 0,-1.077 0.869,-1.947 1.945,-1.947 l 0,0 7.119,0 c 0.212,0 0.387,-0.181 0.387,-0.399 l 0,0 0,-4.428 c 0,-1.004 0.658,-1.457 1.258,-1.457 l 0,0 c 0.311,0 0.625,0.104 0.932,0.324 l 0,0 14.348,10.192 c 0.456,0.322 0.718,0.804 0.718,1.314 l 0,0 c 0,0.507 -0.262,0.986 -0.718,1.316 l 0,0 -14.348,10.189 c -0.307,0.219 -0.621,0.328 -0.932,0.328 l 0,0 c -0.6,0 -1.258,-0.456 -1.258,-1.462"
         id="path5768" />
    </clipPath>
    <radialGradient
       cx="0"
       cy="0"
       r="1"
       fx="0"
       fy="0"
       id="radialGradient5774"
       gradientUnits="userSpaceOnUse"
       gradientTransform="matrix(12.61528,0,0,-12.61528,365.60156,884.0918)"
       spreadMethod="pad">
      <stop
         id="stop5776"
         style="stop-color:#ffffff;stop-opacity:1"
         offset="0" />
      <stop
         id="stop5778"
         style="stop-color:#9bd41f;stop-opacity:1"
         offset="0.852768" />
      <stop
         id="stop5780"
         style="stop-color:#9bd41f;stop-opacity:1"
         offset="1" />
    </radialGradient>
    <clipPath
       id="clipPath4564">
      <path
         d="m 332.942,1106.59 c -2.08,0 -3.788,-1.603 -3.788,-3.559 l 0,0 0,-7.025 38.269,0 0,7.025 c 0,1.956 -1.704,3.559 -3.789,3.559 l 0,0 -30.692,0 z"
         id="path4566" />
    </clipPath>
    <radialGradient
       cx="0"
       cy="0"
       r="1"
       fx="0"
       fy="0"
       id="radialGradient4572"
       gradientUnits="userSpaceOnUse"
       gradientTransform="matrix(14.037582,0,0,-14.037582,348.28906,1101.2979)"
       spreadMethod="pad">
      <stop
         id="stop4574"
         style="stop-color:#c5ebfb;stop-opacity:1"
         offset="0" />
      <stop
         id="stop4576"
         style="stop-color:#7cc2ed;stop-opacity:1"
         offset="1" />
    </radialGradient>
    <clipPath
       id="clipPath4552">
      <path
         d="m 0,1505.001 539.578,0 L 539.578,0 0,0 0,1505.001 z"
         id="path4554" />
    </clipPath>
    <clipPath
       id="clipPath4530">
      <path
         d="m 333.3,1107.441 c -2.715,0 -4.919,-2.072 -4.919,-4.619 l 0,0 0,-37.996 c 0,-2.545 2.204,-4.619 4.919,-4.619 l 0,0 29.979,0 c 2.714,0 4.918,2.074 4.918,4.619 l 0,0 0,37.996 c 0,2.547 -2.204,4.619 -4.918,4.619 l 0,0 -29.979,0 z"
         id="path4532" />
    </clipPath>
    <linearGradient
       x1="0"
       y1="0"
       x2="1"
       y2="0"
       id="linearGradient4538"
       gradientUnits="userSpaceOnUse"
       gradientTransform="matrix(39.816406,0,0,-39.816406,328.38086,1083.8242)"
       spreadMethod="pad">
      <stop
         id="stop4540"
         style="stop-color:#e1e0df;stop-opacity:1"
         offset="0" />
      <stop
         id="stop4542"
         style="stop-color:#e2e2e0;stop-opacity:1"
         offset="0.54707301" />
      <stop
         id="stop4544"
         style="stop-color:#ffffff;stop-opacity:1"
         offset="1" />
    </linearGradient>
    <clipPath
       id="clipPath4510">
      <path
         d="m 327.734,1062.379 c 0,-2.508 10.687,-4.537 23.868,-4.537 l 0,0 c 13.181,0 23.868,2.029 23.868,4.537 l 0,0 c 0,2.504 -10.687,4.533 -23.868,4.533 l 0,0 c -13.181,0 -23.868,-2.029 -23.868,-4.533"
         id="path4512" />
    </clipPath>
    <radialGradient
       cx="0"
       cy="0"
       r="1"
       fx="0"
       fy="0"
       id="radialGradient4518"
       gradientUnits="userSpaceOnUse"
       gradientTransform="matrix(23.87352,0,0,-4.5341644,351.60156,1062.377)"
       spreadMethod="pad">
      <stop
         id="stop4520"
         style="stop-color:#a7a5a6;stop-opacity:1"
         offset="0" />
      <stop
         id="stop4522"
         style="stop-color:#ffffff;stop-opacity:1"
         offset="1" />
    </radialGradient>
  </defs>
  <metadata
     id="metadata17059">
    <rdf:RDF>
      <cc:Work
         rdf:about="">
        <dc:format>image/svg+xml</dc:format>
        <dc:type
           rdf:resource="http://purl.org/dc/dcmitype/StillImage" />
        <dc:title></dc:title>
      </cc:Work>
    </rdf:RDF>
  </metadata>
  <g
     transform="translate(-343.12408,-547.68083)"
     id="layer1">
    <g
       transform="matrix(0.33517681,0,0,-0.31925741,233.27524,901.40879)"
       id="g4506">
      <g
         clip-path="url(#clipPath4510)"
         id="g4508">
        <g
           id="g4514">
          <g
             id="g4516">
            <path
               d="m 327.734,1062.379 c 0,-2.508 10.687,-4.537 23.868,-4.537 l 0,0 c 13.181,0 23.868,2.029 23.868,4.537 l 0,0 c 0,2.504 -10.687,4.533 -23.868,4.533 l 0,0 c -13.181,0 -23.868,-2.029 -23.868,-4.533"
               id="path4524"
               style="fill:url(#radialGradient4518);stroke:none" />
          </g>
        </g>
      </g>
    </g>
    <g
       transform="matrix(0.33517681,0,0,-0.31925741,233.27524,901.40879)"
       id="g4526">
      <g
         clip-path="url(#clipPath4530)"
         id="g4528">
        <g
           id="g4534">
          <g
             id="g4536">
            <path
               d="m 333.3,1107.441 c -2.715,0 -4.919,-2.072 -4.919,-4.619 l 0,0 0,-37.996 c 0,-2.545 2.204,-4.619 4.919,-4.619 l 0,0 29.979,0 c 2.714,0 4.918,2.074 4.918,4.619 l 0,0 0,37.996 c 0,2.547 -2.204,4.619 -4.918,4.619 l 0,0 -29.979,0 z"
               id="path4546"
               style="fill:url(#linearGradient4538);stroke:none" />
          </g>
        </g>
      </g>
    </g>
    <g
       transform="matrix(0.33517681,0,0,-0.31925741,233.27524,901.40879)"
       id="g4548">
      <g
         clip-path="url(#clipPath4552)"
         id="g4550">
        <g
           transform="translate(328.3809,1102.8223)"
           id="g4556">
          <path
             d="m 0,0 c 0,2.547 2.204,4.619 4.919,4.619 l 29.978,0 c 2.715,0 4.919,-2.072 4.919,-4.619 l 0,-37.996 c 0,-2.545 -2.204,-4.619 -4.919,-4.619 l -29.978,0 C 2.204,-42.615 0,-40.541 0,-37.996 L 0,0 z"
             id="path4558"
             style="fill:none;stroke:#7acc46;stroke-width:1.03400004;stroke-linecap:butt;stroke-linejoin:miter;stroke-miterlimit:4;stroke-opacity:1;stroke-dasharray:none" />
        </g>
      </g>
    </g>
    <g
       transform="matrix(0.33517681,0,0,-0.31925741,233.27524,901.40879)"
       id="g4560">
      <g
         clip-path="url(#clipPath4564)"
         id="g4562">
        <g
           id="g4568">
          <g
             id="g4570">
            <path
               d="m 332.942,1106.59 c -2.08,0 -3.788,-1.603 -3.788,-3.559 l 0,0 0,-7.025 38.269,0 0,7.025 c 0,1.956 -1.704,3.559 -3.789,3.559 l 0,0 -30.692,0 z"
               id="path4578"
               style="fill:url(#radialGradient4572);stroke:none" />
          </g>
        </g>
      </g>
    </g>
    <g
       transform="matrix(0.33517681,0,0,-0.31925741,355.07239,554.25437)"
       id="g4636">
      <path
         d="m 0,0 -30.162,0 0,1.494 30.156,0 L 0,0 z"
         id="path4638"
         style="fill:#adacba;fill-opacity:1;fill-rule:nonzero;stroke:none" />
    </g>
    <g
       transform="matrix(0.33517681,0,0,-0.31925741,355.07239,556.56899)"
       id="g4640">
      <path
         d="m 0,0 -30.162,0 0,1.494 30.156,0 L 0,0 z"
         id="path4642"
         style="fill:#adacba;fill-opacity:1;fill-rule:nonzero;stroke:none" />
    </g>
    <g
       transform="matrix(0.33517681,0,0,-0.31925741,355.07239,558.8836)"
       id="g4644">
      <path
         d="m 0,0 -30.162,0 0,1.492 30.156,0 L 0,0 z"
         id="path4646"
         style="fill:#adacba;fill-opacity:1;fill-rule:nonzero;stroke:none" />
    </g>
    <g
       transform="matrix(0.29402594,0,0,-0.28006102,246.93016,803.65754)"
       id="g5762">
      <g
         clip-path="url(#clipPath5766)"
         id="g5764">
        <g
           id="g5770">
          <g
             id="g5772">
            <path
               d="m 361.699,894.462 0,-4.435 c 0,-0.208 -0.175,-0.385 -0.387,-0.385 l 0,0 -7.119,0 c -1.076,0 -1.945,-0.876 -1.945,-1.957 l 0,0 0,-7.193 c 0,-1.077 0.869,-1.947 1.945,-1.947 l 0,0 7.119,0 c 0.212,0 0.387,-0.181 0.387,-0.399 l 0,0 0,-4.428 c 0,-1.004 0.658,-1.457 1.258,-1.457 l 0,0 c 0.311,0 0.625,0.104 0.932,0.324 l 0,0 14.348,10.192 c 0.456,0.322 0.718,0.804 0.718,1.314 l 0,0 c 0,0.507 -0.262,0.986 -0.718,1.316 l 0,0 -14.348,10.189 c -0.307,0.219 -0.621,0.328 -0.932,0.328 l 0,0 c -0.6,0 -1.258,-0.456 -1.258,-1.462"
               id="path5782"
               style="fill:url(#radialGradient5774);stroke:none" />
          </g>
        </g>
      </g>
    </g>
    <g
       transform="matrix(0.29402594,0,0,-0.28006102,246.93016,803.65754)"
       id="g5784">
      <g
         clip-path="url(#clipPath5788)"
         id="g5786">
        <g
           transform="translate(362.957,895.9238)"
           id="g5792">
          <path
             d="m 0,0 c -0.6,0 -1.258,-0.456 -1.258,-1.462 l 0,-4.434 c 0,-0.208 -0.176,-0.386 -0.387,-0.386 l -7.119,0 c -1.076,0 -1.945,-0.875 -1.945,-1.956 l 0,-7.195 c 0,-1.076 0.869,-1.946 1.945,-1.946 l 7.119,0 c 0.211,0 0.387,-0.181 0.387,-0.398 l 0,-4.429 c 0,-1.004 0.658,-1.457 1.258,-1.457 0.311,0 0.625,0.104 0.932,0.324 l 14.347,10.192 c 0.457,0.322 0.719,0.804 0.719,1.314 0,0.508 -0.262,0.986 -0.719,1.316 L 0.932,-0.327 C 0.625,-0.108 0.311,0 0,0 z"
             id="path5794"
             style="fill:none;stroke:#7acc46;stroke-width:1.74800003;stroke-linecap:butt;stroke-linejoin:miter;stroke-miterlimit:4;stroke-opacity:1;stroke-dasharray:none" />
        </g>
      </g>
    </g>
  </g>
</svg>
