<?xml version="1.0" encoding="UTF-8" standalone="no"?>
<!-- Created with Inkscape (http://www.inkscape.org/) -->

<svg
   xmlns:dc="http://purl.org/dc/elements/1.1/"
   xmlns:cc="http://creativecommons.org/ns#"
   xmlns:rdf="http://www.w3.org/1999/02/22-rdf-syntax-ns#"
   xmlns:svg="http://www.w3.org/2000/svg"
   xmlns="http://www.w3.org/2000/svg"
   xmlns:xlink="http://www.w3.org/1999/xlink"
   version="1.1"
   width="16"
   height="15.996163"
   id="svg24816">
  <defs
     id="defs24818">
    <clipPath
       id="clipPath6220">
      <path
         d="m 318.518,874.169 -3,-1.893 c -0.828,-0.523 -1.5,-1.618 -1.5,-2.446 l 0,0 c 0,-0.828 0.672,-1.076 1.5,-0.553 l 0,0 3,1.892 c 0.829,0.521 1.5,1.617 1.5,2.445 l 0,0 c 0,0.535 -0.28,0.828 -0.701,0.828 l 0,0 c -0.231,0 -0.505,-0.088 -0.799,-0.273"
         id="path6222" />
    </clipPath>
    <linearGradient
       x1="0"
       y1="0"
       x2="1"
       y2="0"
       id="linearGradient6228"
       gradientUnits="userSpaceOnUse"
       gradientTransform="matrix(6,0,0,-6,314.01855,871.72266)"
       spreadMethod="pad">
      <stop
         id="stop6230"
         style="stop-color:#e1e0df;stop-opacity:1"
         offset="0" />
      <stop
         id="stop6232"
         style="stop-color:#e2e2e0;stop-opacity:1"
         offset="0.54707301" />
      <stop
         id="stop6234"
         style="stop-color:#ffffff;stop-opacity:1"
         offset="1" />
    </linearGradient>
    <clipPath
       id="clipPath5752">
      <path
         d="m 0,1505.001 539.578,0 L 539.578,0 0,0 0,1505.001 z"
         id="path5754" />
    </clipPath>
    <clipPath
       id="clipPath5730">
      <path
         d="m 329.648,855.951 36,0 0,49.667 -36,0 0,-49.667 z"
         id="path5732" />
    </clipPath>
    <linearGradient
       x1="0"
       y1="0"
       x2="1"
       y2="0"
       id="linearGradient5738"
       gradientUnits="userSpaceOnUse"
       gradientTransform="matrix(36,0,0,-36,329.64844,880.78516)"
       spreadMethod="pad">
      <stop
         id="stop5740"
         style="stop-color:#e1e0df;stop-opacity:1"
         offset="0" />
      <stop
         id="stop5742"
         style="stop-color:#e2e2e0;stop-opacity:1"
         offset="0.54707301" />
      <stop
         id="stop5744"
         style="stop-color:#ffffff;stop-opacity:1"
         offset="1" />
    </linearGradient>
    <clipPath
       id="clipPath5710">
      <path
         d="m 331.346,856.618 c 0,-2.25 10.328,-4.071 23.068,-4.071 l 0,0 c 12.736,0 23.067,1.821 23.067,4.071 l 0,0 c 0,2.247 -10.331,4.065 -23.067,4.065 l 0,0 c -12.74,0 -23.068,-1.818 -23.068,-4.065"
         id="path5712" />
    </clipPath>
    <radialGradient
       cx="0"
       cy="0"
       r="1"
       fx="0"
       fy="0"
       id="radialGradient5718"
       gradientUnits="userSpaceOnUse"
       gradientTransform="matrix(23.071106,0,0,-4.0669403,354.41602,856.61523)"
       spreadMethod="pad">
      <stop
         id="stop5720"
         style="stop-color:#a7a5a6;stop-opacity:1"
         offset="0" />
      <stop
         id="stop5722"
         style="stop-color:#ffffff;stop-opacity:1"
         offset="1" />
    </radialGradient>
    <radialGradient
       cx="0"
       cy="0"
       r="1"
       fx="0"
       fy="0"
       id="radialGradient3042"
       xlink:href="#radialGradient5718"
       gradientUnits="userSpaceOnUse"
       gradientTransform="matrix(23.071106,0,0,-4.0669403,354.41602,856.61523)"
       spreadMethod="pad" />
    <linearGradient
       x1="0"
       y1="0"
       x2="1"
       y2="0"
       id="linearGradient3044"
       xlink:href="#linearGradient6228"
       gradientUnits="userSpaceOnUse"
       gradientTransform="matrix(6,0,0,-6,314.01855,871.72266)"
       spreadMethod="pad" />
    <linearGradient
       x1="0"
       y1="0"
       x2="1"
       y2="0"
       id="linearGradient3046"
       xlink:href="#linearGradient5738"
       gradientUnits="userSpaceOnUse"
       gradientTransform="matrix(36,0,0,-36,329.64844,880.78516)"
       spreadMethod="pad" />
  </defs>
  <metadata
     id="metadata24821">
    <rdf:RDF>
      <cc:Work
         rdf:about="">
        <dc:format>image/svg+xml</dc:format>
        <dc:type
           rdf:resource="http://purl.org/dc/dcmitype/StillImage" />
        <dc:title></dc:title>
      </cc:Work>
    </rdf:RDF>
  </metadata>
  <g
     transform="matrix(0.2394722,0,0,-0.25409853,-74.396206,230.24373)"
     id="g5706">
    <g
       clip-path="url(#clipPath5710)"
       id="g5708">
      <g
         id="g5714">
        <g
           id="g5716">
          <path
             d="m 331.346,856.618 c 0,-2.25 10.328,-4.071 23.068,-4.071 l 0,0 c 12.736,0 23.067,1.821 23.067,4.071 l 0,0 c 0,2.247 -10.331,4.065 -23.067,4.065 l 0,0 c -12.74,0 -23.068,-1.818 -23.068,-4.065"
             id="path5724"
             style="fill:url(#radialGradient3042);stroke:none" />
        </g>
      </g>
    </g>
  </g>
  <g
     transform="matrix(0.2394722,0,0,-0.25409853,-74.396206,230.24373)"
     id="g5726">
    <g
       clip-path="url(#clipPath5730)"
       id="g5728">
      <g
         id="g5734">
        <g
           id="g5736">
          <path
             d="m 329.648,855.951 36,0 0,49.667 -36,0 0,-49.667 z"
             id="path5746"
             style="fill:url(#linearGradient3046);stroke:none" />
        </g>
      </g>
    </g>
  </g>
  <g
     transform="matrix(0.2394722,0,0,-0.25409853,-74.396206,230.24373)"
     id="g5748">
    <g
       clip-path="url(#clipPath5752)"
       id="g5750">
      <path
         d="m 365.648,855.951 -36,0 0,49.667 36,0 0,-49.667 z"
         id="path5756"
         style="fill:none;stroke:#7acc46;stroke-width:1.03400004;stroke-linecap:butt;stroke-linejoin:miter;stroke-miterlimit:4;stroke-opacity:1;stroke-dasharray:none" />
      <g
         transform="translate(329.3154,855.5273)"
         id="g5758">
        <path
           d="m 0,0 -18.648,-12.36 0,50.334 L 0,50.333 0,0 z"
           id="path5760"
           style="fill:#7acc46;fill-opacity:1;fill-rule:nonzero;stroke:none" />
      </g>
    </g>
  </g>
  <g
     transform="matrix(0.2394722,0,0,-0.25409853,-74.396206,230.24373)"
     id="g6216">
    <g
       clip-path="url(#clipPath6220)"
       id="g6218">
      <g
         id="g6224">
        <g
           id="g6226">
          <path
             d="m 318.518,874.169 -3,-1.893 c -0.828,-0.523 -1.5,-1.618 -1.5,-2.446 l 0,0 c 0,-0.828 0.672,-1.076 1.5,-0.553 l 0,0 3,1.892 c 0.829,0.521 1.5,1.617 1.5,2.445 l 0,0 c 0,0.535 -0.28,0.828 -0.701,0.828 l 0,0 c -0.231,0 -0.505,-0.088 -0.799,-0.273"
             id="path6236"
             style="fill:url(#linearGradient3044);stroke:none" />
        </g>
      </g>
    </g>
  </g>
</svg>
