<?xml version="1.0" encoding="UTF-8" standalone="no"?>
<!-- Created with Inkscape (http://www.inkscape.org/) -->

<svg
   xmlns:dc="http://purl.org/dc/elements/1.1/"
   xmlns:cc="http://creativecommons.org/ns#"
   xmlns:rdf="http://www.w3.org/1999/02/22-rdf-syntax-ns#"
   xmlns:svg="http://www.w3.org/2000/svg"
   xmlns="http://www.w3.org/2000/svg"
   xmlns:xlink="http://www.w3.org/1999/xlink"
   version="1.1"
   width="33.084614"
   height="30.008007"
   id="svg23877">
  <defs
     id="defs23879">
    <clipPath
       id="clipPath142">
      <path
         d="m 65.108,75.832 c 0,-4.646 2.156,-9.008 5.877,-12.414 l 0,0 c 0.009,-0.052 0.016,-0.106 0.024,-0.166 l 0,0 c -0.049,-0.156 0.201,-0.592 0.144,-0.75 l 0,0 C 71.097,62.357 70.91,61.799 70.845,61.65 l 0,0 c -1.034,-2.807 -2.569,-5.425 -4.734,-7.638 l 0,0 c 1.109,0.236 5.218,0.578 9.853,4.051 l 0,0 c 0.116,0.082 0.526,0.415 0.647,0.509 l 0,0 c 0.112,0.086 0.568,0.02 0.683,0.11 l 0,0 c 0.306,0.056 0.617,0.127 0.923,0.201 l 0,0 c 3.511,-1.462 7.495,-2.272 11.635,-2.272 l 0,0 c 13.656,0 24.748,8.612 24.748,19.221 l 0,0 c 0,10.601 -11.092,19.207 -24.748,19.207 l 0,0 c -13.655,0 -24.744,-8.606 -24.744,-19.207"
         id="path144" />
    </clipPath>
    <radialGradient
       cx="0"
       cy="0"
       r="1"
       fx="0"
       fy="0"
       id="radialGradient150"
       gradientUnits="userSpaceOnUse"
       gradientTransform="matrix(31.901291,0,0,-33.457916,90.314941,84.875977)"
       spreadMethod="pad">
      <stop
         id="stop152"
         style="stop-color:#ffffff;stop-opacity:1"
         offset="0" />
      <stop
         id="stop154"
         style="stop-color:#9bd41f;stop-opacity:1"
         offset="0.852768" />
      <stop
         id="stop156"
         style="stop-color:#9bd41f;stop-opacity:1"
         offset="1" />
    </radialGradient>
    <clipPath
       id="clipPath122">
      <path
         d="m 76.867,51.353 c 0,-2.25 9.586,-4.07 21.41,-4.07 l 0,0 c 11.823,0 21.41,1.82 21.41,4.07 l 0,0 c 0,2.247 -9.587,4.065 -21.41,4.065 l 0,0 c -11.824,0 -21.41,-1.818 -21.41,-4.065"
         id="path124" />
    </clipPath>
    <radialGradient
       cx="0"
       cy="0"
       r="1"
       fx="0"
       fy="0"
       id="radialGradient130"
       gradientUnits="userSpaceOnUse"
       gradientTransform="matrix(21.414322,0,0,-4.0671082,98.277344,51.350586)"
       spreadMethod="pad">
      <stop
         id="stop132"
         style="stop-color:#a7a5a6;stop-opacity:1"
         offset="0" />
      <stop
         id="stop134"
         style="stop-color:#ffffff;stop-opacity:1"
         offset="1" />
    </radialGradient>
    <clipPath
       id="clipPath142-6">
      <path
         d="m 65.108,75.832 c 0,-4.646 2.156,-9.008 5.877,-12.414 l 0,0 c 0.009,-0.052 0.016,-0.106 0.024,-0.166 l 0,0 c -0.049,-0.156 0.201,-0.592 0.144,-0.75 l 0,0 C 71.097,62.357 70.91,61.799 70.845,61.65 l 0,0 c -1.034,-2.807 -2.569,-5.425 -4.734,-7.638 l 0,0 c 1.109,0.236 5.218,0.578 9.853,4.051 l 0,0 c 0.116,0.082 0.526,0.415 0.647,0.509 l 0,0 c 0.112,0.086 0.568,0.02 0.683,0.11 l 0,0 c 0.306,0.056 0.617,0.127 0.923,0.201 l 0,0 c 3.511,-1.462 7.495,-2.272 11.635,-2.272 l 0,0 c 13.656,0 24.748,8.612 24.748,19.221 l 0,0 c 0,10.601 -11.092,19.207 -24.748,19.207 l 0,0 c -13.655,0 -24.744,-8.606 -24.744,-19.207"
         id="path144-1" />
    </clipPath>
    <radialGradient
       cx="0"
       cy="0"
       r="1"
       fx="0"
       fy="0"
       id="radialGradient150-0"
       gradientUnits="userSpaceOnUse"
       gradientTransform="matrix(31.901291,0,0,-33.457916,90.314941,84.875977)"
       spreadMethod="pad">
      <stop
         id="stop152-4"
         style="stop-color:#ffffff;stop-opacity:1"
         offset="0" />
      <stop
         id="stop154-2"
         style="stop-color:#9bd41f;stop-opacity:1"
         offset="0.852768" />
      <stop
         id="stop156-3"
         style="stop-color:#9bd41f;stop-opacity:1"
         offset="1" />
    </radialGradient>
    <clipPath
       id="clipPath122-1">
      <path
         d="m 76.867,51.353 c 0,-2.25 9.586,-4.07 21.41,-4.07 l 0,0 c 11.823,0 21.41,1.82 21.41,4.07 l 0,0 c 0,2.247 -9.587,4.065 -21.41,4.065 l 0,0 c -11.824,0 -21.41,-1.818 -21.41,-4.065"
         id="path124-1" />
    </clipPath>
    <radialGradient
       cx="0"
       cy="0"
       r="1"
       fx="0"
       fy="0"
       id="radialGradient130-2"
       gradientUnits="userSpaceOnUse"
       gradientTransform="matrix(21.414322,0,0,-4.0671082,98.277344,51.350586)"
       spreadMethod="pad">
      <stop
         id="stop132-6"
         style="stop-color:#a7a5a6;stop-opacity:1"
         offset="0" />
      <stop
         id="stop134-5"
         style="stop-color:#ffffff;stop-opacity:1"
         offset="1" />
    </radialGradient>
    <clipPath
       id="clipPath164">
      <path
         d="m 0,1505.001 539.578,0 L 539.578,0 0,0 0,1505.001 z"
         id="path166" />
    </clipPath>
    <radialGradient
       cx="0"
       cy="0"
       r="1"
       fx="0"
       fy="0"
       id="radialGradient3033"
       xlink:href="#radialGradient150-0"
       gradientUnits="userSpaceOnUse"
       gradientTransform="matrix(31.901291,0,0,-33.457916,90.314941,84.875977)"
       spreadMethod="pad" />
  </defs>
  <metadata
     id="metadata23882">
    <rdf:RDF>
      <cc:Work
         rdf:about="">
        <dc:format>image/svg+xml</dc:format>
        <dc:type
           rdf:resource="http://purl.org/dc/dcmitype/StillImage" />
        <dc:title></dc:title>
      </cc:Work>
    </rdf:RDF>
  </metadata>
  <g
     transform="matrix(0.62409195,0,0,-0.66659477,-39.359675,64.160235)"
     id="g138">
    <g
       clip-path="url(#clipPath142-6)"
       id="g140">
      <g
         id="g146">
        <g
           id="g148">
          <path
             d="m 65.108,75.832 c 0,-4.646 2.156,-9.008 5.877,-12.414 l 0,0 c 0.009,-0.052 0.016,-0.106 0.024,-0.166 l 0,0 c -0.049,-0.156 0.201,-0.592 0.144,-0.75 l 0,0 C 71.097,62.357 70.91,61.799 70.845,61.65 l 0,0 c -1.034,-2.807 -2.569,-5.425 -4.734,-7.638 l 0,0 c 1.109,0.236 5.218,0.578 9.853,4.051 l 0,0 c 0.116,0.082 0.526,0.415 0.647,0.509 l 0,0 c 0.112,0.086 0.568,0.02 0.683,0.11 l 0,0 c 0.306,0.056 0.617,0.127 0.923,0.201 l 0,0 c 3.511,-1.462 7.495,-2.272 11.635,-2.272 l 0,0 c 13.656,0 24.748,8.612 24.748,19.221 l 0,0 c 0,10.601 -11.092,19.207 -24.748,19.207 l 0,0 c -13.655,0 -24.744,-8.606 -24.744,-19.207"
             id="path158"
             style="fill:url(#radialGradient3033);stroke:none" />
        </g>
      </g>
    </g>
  </g>
  <g
     transform="matrix(0.62409195,0,0,-0.66659477,32.161005,13.610957)"
     id="g168">
    <path
       d="m 0,0 c 0,-10.609 -11.092,-19.221 -24.748,-19.221 -4.14,0 -8.123,0.81 -11.635,2.272 -0.305,-0.074 -0.617,-0.145 -0.923,-0.201 -0.115,-0.09 -0.57,-0.025 -0.683,-0.11 -0.12,-0.094 -0.531,-0.428 -0.647,-0.51 -4.635,-3.471 -8.744,-3.814 -9.852,-4.05 2.164,2.213 3.7,4.831 4.734,7.638 0.065,0.149 0.252,0.707 0.308,0.852 0.056,0.158 -0.194,0.595 -0.145,0.75 -0.008,0.06 -0.014,0.114 -0.024,0.166 -3.72,3.406 -5.877,7.768 -5.877,12.414 0,10.602 11.089,19.207 24.744,19.207 C -11.092,19.207 0,10.602 0,0 z"
       id="path170"
       style="fill:none;stroke:#7acc46;stroke-width:1.74800003;stroke-linecap:butt;stroke-linejoin:miter;stroke-miterlimit:4;stroke-opacity:1;stroke-dasharray:none" />
  </g>
</svg>
