<?xml version="1.0" encoding="UTF-8" standalone="no"?>
<!-- Created with Inkscape (http://www.inkscape.org/) -->

<svg
   xmlns:dc="http://purl.org/dc/elements/1.1/"
   xmlns:cc="http://creativecommons.org/ns#"
   xmlns:rdf="http://www.w3.org/1999/02/22-rdf-syntax-ns#"
   xmlns:svg="http://www.w3.org/2000/svg"
   xmlns="http://www.w3.org/2000/svg"
   version="1.1"
   width="30"
   height="30"
   id="svg2"
   xml:space="preserve"><metadata
     id="metadata8"><rdf:RDF><cc:Work
         rdf:about=""><dc:format>image/svg+xml</dc:format><dc:type
           rdf:resource="http://purl.org/dc/dcmitype/StillImage" /><dc:title></dc:title></cc:Work></rdf:RDF></metadata><defs
     id="defs6"><clipPath
       id="clipPath16"><path
         d="M 0,50 50,50 50,0 0,0 0,50 z"
         id="path18" /></clipPath></defs><g
     transform="matrix(1.25,0,0,-1.25,0,30)"
     id="g10"><g
       transform="matrix(0.519523,0,0,0.519523,-0.985485,-0.97357619)"
       id="g12"><g
         clip-path="url(#clipPath16)"
         id="g14"><g
           transform="translate(25.1489,21.041)"
           id="g20"><path
             d="M 0,0 C -2.167,0 -3.925,1.758 -3.925,3.925 -3.925,6.093 -2.167,7.85 0,7.85 2.167,7.85 3.925,6.093 3.925,3.925 3.925,1.758 2.167,0 0,0 m 0,11.55 c -4.211,0 -7.625,-3.414 -7.625,-7.625 0,-4.211 3.414,-7.625 7.625,-7.625 4.211,0 7.625,3.414 7.625,7.625 0,4.211 -3.414,7.625 -7.625,7.625"
             id="path22"
             style="fill:#2b7e9f;fill-opacity:1;fill-rule:nonzero;stroke:none" /></g><g
           transform="translate(13.5972,33.3174)"
           id="g24"><path
             d="M 0,0 C 0.615,-0.417 0.913,-1.009 0.544,-1.552 L 0.31,-1.898 C -0.058,-2.44 -0.855,-2.543 -1.47,-2.126 L -8.282,2.49 C -8.897,2.907 -9.098,3.685 -8.73,4.228 l 0.63,0.8 c 0.368,0.543 1.13,0.557 1.746,0.139 L 0,0 z"
             id="path26"
             style="fill:#70bf59;fill-opacity:1;fill-rule:nonzero;stroke:none" /></g><g
           transform="translate(18.0039,36.9434)"
           id="g28"><path
             d="m 0,0 c 0.449,-0.592 0.541,-1.249 0.019,-1.645 l -0.333,-0.252 c -0.523,-0.397 -1.311,-0.239 -1.76,0.354 l -4.974,6.554 c -0.449,0.593 -0.389,1.394 0.133,1.791 l 0.853,0.555 c 0.522,0.397 1.249,0.165 1.698,-0.426 L 0,0 z"
             id="path30"
             style="fill:#ee3a49;fill-opacity:1;fill-rule:nonzero;stroke:none" /></g><g
           transform="translate(23.5356,38.4556)"
           id="g32"><path
             d="m 0,0 c 0.15,-0.728 -0.05,-1.36 -0.692,-1.492 l -0.41,-0.084 c -0.642,-0.132 -1.285,0.35 -1.435,1.078 l -1.661,8.059 c -0.15,0.728 0.249,1.425 0.891,1.558 l 1.01,0.133 c 0.642,0.133 1.198,-0.389 1.348,-1.117 L 0,0 z"
             id="path34"
             style="fill:#27a2c5;fill-opacity:1;fill-rule:nonzero;stroke:none" /></g><g
           transform="translate(29.1426,37.625)"
           id="g36"><path
             d="m 0,0 c -0.136,-0.731 -0.559,-1.242 -1.203,-1.122 l -0.412,0.076 c -0.645,0.119 -1.058,0.808 -0.923,1.539 l 1.494,8.091 c 0.136,0.731 0.769,1.227 1.413,1.108 L 1.354,9.437 C 1.999,9.317 2.318,8.625 2.184,7.894 L 0,0 z"
             id="path38"
             style="fill:#f9d02c;fill-opacity:1;fill-rule:nonzero;stroke:none" /></g><g
           transform="translate(34.2285,35.1699)"
           id="g40"><path
             d="m 0,0 c -0.453,-0.589 -1.062,-0.852 -1.582,-0.452 l -0.331,0.255 c -0.521,0.398 -0.575,1.2 -0.123,1.79 L 2.973,8.121 C 3.426,8.71 4.215,8.864 4.734,8.465 L 5.496,7.789 C 6.017,7.39 5.985,6.628 5.533,6.039 L 0,0 z"
             id="path42"
             style="fill:#31ab97;fill-opacity:1;fill-rule:nonzero;stroke:none" /></g><g
           transform="translate(37.5879,31.1152)"
           id="g44"><path
             d="M 0,0 C -0.617,-0.413 -1.279,-0.466 -1.643,0.079 L -1.875,0.426 C -2.24,0.971 -2.036,1.748 -1.418,2.162 L 5.418,6.74 C 6.035,7.154 6.832,7.046 7.197,6.502 L 7.702,5.618 C 8.066,5.073 7.793,4.361 7.176,3.947 L 0,0 z"
             id="path46"
             style="fill:#ee3a49;fill-opacity:1;fill-rule:nonzero;stroke:none" /></g><g
           transform="translate(38.4219,25.4346)"
           id="g48"><path
             d="m 0,0 c -0.735,-0.107 -1.354,0.13 -1.448,0.779 l -0.06,0.413 c -0.095,0.65 0.425,1.262 1.16,1.37 L 7.795,3.745 C 8.531,3.852 9.203,3.411 9.298,2.762 L 9.372,1.747 C 9.466,1.098 8.912,0.574 8.177,0.467 L 0,0 z"
             id="path50"
             style="fill:#b8cf47;fill-opacity:1;fill-rule:nonzero;stroke:none" /></g><g
           transform="translate(37.541,20.3057)"
           id="g52"><path
             d="m 0,0 c -0.721,0.178 -1.206,0.631 -1.049,1.267 l 0.101,0.406 C -0.791,2.31 -0.08,2.682 0.643,2.504 L 8.632,0.534 C 9.354,0.357 9.811,-0.304 9.654,-0.94 L 9.34,-1.909 C 9.184,-2.546 8.474,-2.823 7.752,-2.646 L 0,0 z"
             id="path54"
             style="fill:#f9d02c;fill-opacity:1;fill-rule:nonzero;stroke:none" /></g><g
           transform="translate(35.3984,16.2793)"
           id="g56"><path
             d="m 0,0 c -0.584,0.459 -0.84,1.071 -0.434,1.587 l 0.259,0.328 C 0.23,2.431 1.033,2.477 1.616,2.017 L 8.084,-3.07 C 8.668,-3.53 8.813,-4.32 8.408,-4.836 L 7.723,-5.59 C 7.316,-6.105 6.555,-6.064 5.971,-5.605 L 0,0 z"
             id="path58"
             style="fill:#27a2c5;fill-opacity:1;fill-rule:nonzero;stroke:none" /></g><g
           transform="translate(31.1035,12.6768)"
           id="g60"><path
             d="M 0,0 C -0.376,0.642 -0.391,1.304 0.176,1.636 L 0.535,1.848 C 1.102,2.18 1.865,1.93 2.241,1.289 l 4.167,-7.095 c 0.377,-0.64 0.223,-1.43 -0.342,-1.762 L 5.154,-8.02 C 4.588,-8.353 3.894,-8.036 3.518,-7.396 L 0,0 z"
             id="path62"
             style="fill:#70bf59;fill-opacity:1;fill-rule:nonzero;stroke:none" /></g><g
           transform="translate(26.1934,11.5957)"
           id="g64"><path
             d="m 0,0 c -0.143,0.73 0.064,1.36 0.709,1.485 l 0.41,0.079 C 1.763,1.69 2.399,1.201 2.542,0.472 L 4.117,-7.604 C 4.26,-8.334 3.852,-9.027 3.209,-9.152 L 2.198,-9.275 C 1.555,-9.401 1.004,-8.873 0.861,-8.145 L 0,0 z"
             id="path66"
             style="fill:#ee3a49;fill-opacity:1;fill-rule:nonzero;stroke:none" /></g><g
           transform="translate(21.5044,12.4648)"
           id="g68"><path
             d="M 0,0 C 0.09,0.738 0.48,1.273 1.132,1.194 L 1.546,1.144 C 2.198,1.064 2.653,0.402 2.563,-0.335 L 1.573,-8.504 C 1.483,-9.241 0.882,-9.775 0.231,-9.696 l -0.999,0.194 c -0.651,0.079 -1.012,0.75 -0.922,1.488 L 0,0 z"
             id="path70"
             style="fill:#dd9b3a;fill-opacity:1;fill-rule:nonzero;stroke:none" /></g><g
           transform="translate(16.9736,14.3047)"
           id="g72"><path
             d="M 0,0 C 0.377,0.641 0.949,0.976 1.515,0.643 L 1.874,0.43 C 2.44,0.098 2.593,-0.691 2.215,-1.331 l -4.173,-7.093 c -0.376,-0.64 -1.14,-0.889 -1.706,-0.556 l -0.838,0.578 c -0.565,0.332 -0.628,1.091 -0.25,1.732 L 0,0 z"
             id="path74"
             style="fill:#27a2c5;fill-opacity:1;fill-rule:nonzero;stroke:none" /></g><g
           transform="translate(13.4741,18.248)"
           id="g76"><path
             d="M 0,0 C 0.582,0.463 1.236,0.57 1.645,0.058 L 1.905,-0.27 C 2.313,-0.782 2.173,-1.574 1.592,-2.037 l -6.436,-5.127 c -0.581,-0.463 -1.384,-0.422 -1.793,0.091 l -0.575,0.84 c -0.409,0.512 -0.195,1.245 0.386,1.708 L 0,0 z"
             id="path78"
             style="fill:#ee3a49;fill-opacity:1;fill-rule:nonzero;stroke:none" /></g><g
           transform="translate(11.333,23.3457)"
           id="g80"><path
             d="M 0,0 C 0.685,0.289 1.345,0.215 1.599,-0.389 L 1.76,-0.774 C 2.015,-1.379 1.666,-2.103 0.981,-2.391 l -7.583,-3.193 c -0.685,-0.289 -1.447,-0.032 -1.701,0.572 l -0.327,0.964 c -0.255,0.605 0.15,1.251 0.835,1.539 L 0,0 z"
             id="path82"
             style="fill:#f9d02c;fill-opacity:1;fill-rule:nonzero;stroke:none" /></g><g
           transform="translate(12.2715,28.1001)"
           id="g84"><path
             d="M 0,0 C 0.742,-0.04 1.303,-0.394 1.267,-1.049 L 1.245,-1.466 C 1.209,-2.121 0.58,-2.62 -0.163,-2.58 l -8.216,0.441 c -0.742,0.04 -1.315,0.604 -1.28,1.259 l 0.127,1.01 c 0.035,0.655 0.681,1.06 1.423,1.019 L 0,0 z"
             id="path86"
             style="fill:#b8d543;fill-opacity:1;fill-rule:nonzero;stroke:none" /></g></g></g></g></svg>