<?xml version="1.0" encoding="UTF-8" standalone="no"?>
<!-- Created with Inkscape (http://www.inkscape.org/) -->

<svg
   xmlns:dc="http://purl.org/dc/elements/1.1/"
   xmlns:cc="http://creativecommons.org/ns#"
   xmlns:rdf="http://www.w3.org/1999/02/22-rdf-syntax-ns#"
   xmlns:svg="http://www.w3.org/2000/svg"
   xmlns="http://www.w3.org/2000/svg"
   version="1.1"
   width="29.84593"
   height="30"
   id="svg13332">
  <defs
     id="defs13334">
    <clipPath
       id="clipPath2920">
      <path
         d="m 0,1505.001 539.578,0 L 539.578,0 0,0 0,1505.001 z"
         id="path2922" />
    </clipPath>
  </defs>
  <metadata
     id="metadata13337">
    <rdf:RDF>
      <cc:Work
         rdf:about="">
        <dc:format>image/svg+xml</dc:format>
        <dc:type
           rdf:resource="http://purl.org/dc/dcmitype/StillImage" />
        <dc:title></dc:title>
      </cc:Work>
    </rdf:RDF>
  </metadata>
  <g
     transform="translate(-346.75397,-530.75403)"
     id="layer1">
    <g
       transform="matrix(0.66040106,0,0,-0.66040106,313.33043,1321.7357)"
       id="g2916">
      <g
         clip-path="url(#clipPath2920)"
         id="g2918">
        <g
           transform="translate(73.1489,1171.042)"
           id="g2924">
          <path
             d="M 0,0 C -2.167,0 -3.925,1.757 -3.925,3.925 -3.925,6.093 -2.167,7.85 0,7.85 2.167,7.85 3.925,6.093 3.925,3.925 3.925,1.757 2.167,0 0,0 m 0,11.55 c -4.211,0 -7.625,-3.414 -7.625,-7.625 0,-4.211 3.414,-7.625 7.625,-7.625 4.211,0 7.625,3.414 7.625,7.625 0,4.211 -3.414,7.625 -7.625,7.625"
             id="path2926"
             style="fill:#3077a0;fill-opacity:1;fill-rule:nonzero;stroke:none" />
        </g>
        <g
           transform="translate(61.5972,1183.3184)"
           id="g2928">
          <path
             d="M 0,0 C 0.615,-0.417 0.913,-1.009 0.544,-1.552 L 0.31,-1.898 C -0.058,-2.44 -0.855,-2.543 -1.47,-2.126 L -8.282,2.49 C -8.897,2.907 -9.098,3.685 -8.73,4.228 l 0.63,0.8 c 0.368,0.543 1.13,0.557 1.746,0.139 L 0,0 z"
             id="path2930"
             style="fill:#60c33f;fill-opacity:1;fill-rule:nonzero;stroke:none" />
        </g>
        <g
           transform="translate(66.0039,1186.9443)"
           id="g2932">
          <path
             d="m 0,0 c 0.449,-0.592 0.541,-1.249 0.019,-1.645 l -0.333,-0.252 c -0.523,-0.397 -1.311,-0.239 -1.76,0.354 l -4.974,6.554 c -0.449,0.593 -0.39,1.394 0.133,1.791 l 0.853,0.555 c 0.522,0.397 1.249,0.165 1.698,-0.426 L 0,0 z"
             id="path2934"
             style="fill:#ed1c3a;fill-opacity:1;fill-rule:nonzero;stroke:none" />
        </g>
        <g
           transform="translate(71.5356,1188.4565)"
           id="g2936">
          <path
             d="m 0,0 c 0.15,-0.728 -0.05,-1.36 -0.692,-1.492 l -0.41,-0.084 c -0.642,-0.132 -1.285,0.35 -1.435,1.078 l -1.661,8.059 c -0.15,0.728 0.249,1.425 0.891,1.558 l 1.01,0.133 c 0.642,0.133 1.198,-0.389 1.348,-1.117 L 0,0 z"
             id="path2938"
             style="fill:#3fa1c6;fill-opacity:1;fill-rule:nonzero;stroke:none" />
        </g>
        <g
           transform="translate(77.1421,1187.626)"
           id="g2940">
          <path
             d="m 0,0 c -0.135,-0.731 -0.559,-1.242 -1.203,-1.122 l -0.411,0.076 c -0.645,0.119 -1.058,0.808 -0.924,1.539 l 1.495,8.091 c 0.135,0.731 0.768,1.227 1.413,1.108 L 1.355,9.437 C 2,9.317 2.318,8.625 2.184,7.894 L 0,0 z"
             id="path2942"
             style="fill:#f5ce08;fill-opacity:1;fill-rule:nonzero;stroke:none" />
        </g>
        <g
           transform="translate(82.228,1185.1709)"
           id="g2944">
          <path
             d="m 0,0 c -0.452,-0.589 -1.061,-0.852 -1.581,-0.452 l -0.332,0.255 c -0.52,0.398 -0.575,1.2 -0.123,1.79 l 5.01,6.528 C 3.426,8.71 4.215,8.864 4.735,8.465 L 5.497,7.789 C 6.017,7.39 5.986,6.628 5.533,6.039 L 0,0 z"
             id="path2946"
             style="fill:#3dad90;fill-opacity:1;fill-rule:nonzero;stroke:none" />
        </g>
        <g
           transform="translate(85.5879,1181.1162)"
           id="g2948">
          <path
             d="m 0,0 c -0.618,-0.413 -1.279,-0.466 -1.643,0.079 l -0.232,0.347 c -0.366,0.545 -0.161,1.322 0.457,1.736 L 5.418,6.74 C 6.036,7.154 6.833,7.046 7.198,6.502 L 7.702,5.618 C 8.067,5.073 7.793,4.361 7.176,3.947 L 0,0 z"
             id="path2950"
             style="fill:#ed1c3a;fill-opacity:1;fill-rule:nonzero;stroke:none" />
        </g>
        <g
           transform="translate(86.4224,1175.4355)"
           id="g2952">
          <path
             d="m 0,0 c -0.736,-0.107 -1.355,0.13 -1.449,0.779 l -0.06,0.413 c -0.094,0.65 0.426,1.262 1.161,1.37 L 7.794,3.745 C 8.53,3.852 9.203,3.411 9.297,2.762 L 9.372,1.747 C 9.465,1.098 8.912,0.574 8.176,0.467 L 0,0 z"
             id="path2954"
             style="fill:#a9d423;fill-opacity:1;fill-rule:nonzero;stroke:none" />
        </g>
        <g
           transform="translate(85.5415,1170.3066)"
           id="g2956">
          <path
             d="m 0,0 c -0.722,0.178 -1.207,0.631 -1.049,1.267 l 0.1,0.406 C -0.792,2.31 -0.08,2.682 0.642,2.504 L 8.631,0.535 C 9.353,0.357 9.811,-0.304 9.654,-0.941 L 9.34,-1.909 C 9.183,-2.546 8.473,-2.823 7.751,-2.646 L 0,0 z"
             id="path2958"
             style="fill:#f5ce08;fill-opacity:1;fill-rule:nonzero;stroke:none" />
        </g>
        <g
           transform="translate(83.3979,1166.2803)"
           id="g2960">
          <path
             d="m 0,0 c -0.584,0.459 -0.839,1.071 -0.433,1.587 l 0.259,0.328 C 0.23,2.431 1.033,2.476 1.617,2.017 L 8.084,-3.071 C 8.668,-3.53 8.813,-4.321 8.408,-4.836 L 7.723,-5.589 C 7.317,-6.105 6.556,-6.065 5.972,-5.605 L 0,0 z"
             id="path2962"
             style="fill:#3fa1c6;fill-opacity:1;fill-rule:nonzero;stroke:none" />
        </g>
        <g
           transform="translate(79.1035,1162.6777)"
           id="g2964">
          <path
             d="M 0,0 C -0.376,0.642 -0.39,1.304 0.175,1.636 L 0.536,1.848 C 1.101,2.18 1.865,1.93 2.241,1.289 L 6.409,-5.806 C 6.785,-6.447 6.631,-7.236 6.066,-7.568 L 5.154,-8.02 C 4.588,-8.352 3.894,-8.037 3.518,-7.396 L 0,0 z"
             id="path2966"
             style="fill:#60c33f;fill-opacity:1;fill-rule:nonzero;stroke:none" />
        </g>
        <g
           transform="translate(74.1938,1161.5967)"
           id="g2968">
          <path
             d="m 0,0 c -0.143,0.73 0.064,1.36 0.708,1.485 l 0.411,0.08 C 1.762,1.69 2.399,1.201 2.542,0.472 L 4.117,-7.604 C 4.259,-8.334 3.852,-9.027 3.208,-9.153 L 2.198,-9.276 C 1.554,-9.401 1.004,-8.874 0.861,-8.144 L 0,0 z"
             id="path2970"
             style="fill:#ed1c3a;fill-opacity:1;fill-rule:nonzero;stroke:none" />
        </g>
        <g
           transform="translate(69.5044,1162.4658)"
           id="g2972">
          <path
             d="M 0,0 C 0.09,0.738 0.48,1.274 1.132,1.194 L 1.546,1.144 C 2.198,1.064 2.653,0.403 2.563,-0.335 L 1.573,-8.503 C 1.483,-9.241 0.882,-9.775 0.231,-9.696 l -0.999,0.194 c -0.651,0.079 -1.012,0.751 -0.922,1.488 L 0,0 z"
             id="path2974"
             style="fill:#da9017;fill-opacity:1;fill-rule:nonzero;stroke:none" />
        </g>
        <g
           transform="translate(64.9736,1164.3062)"
           id="g2976">
          <path
             d="M 0,0 C 0.377,0.64 0.949,0.975 1.515,0.642 L 1.874,0.43 C 2.44,0.098 2.593,-0.691 2.215,-1.332 l -4.173,-7.092 c -0.376,-0.64 -1.14,-0.89 -1.706,-0.557 l -0.838,0.578 c -0.565,0.332 -0.628,1.092 -0.25,1.733 L 0,0 z"
             id="path2978"
             style="fill:#3fa1c6;fill-opacity:1;fill-rule:nonzero;stroke:none" />
        </g>
        <g
           transform="translate(61.4741,1168.2495)"
           id="g2980">
          <path
             d="M 0,0 C 0.582,0.462 1.236,0.57 1.645,0.057 L 1.905,-0.27 C 2.313,-0.783 2.173,-1.574 1.592,-2.037 l -6.436,-5.128 c -0.581,-0.462 -1.384,-0.421 -1.793,0.091 l -0.575,0.84 c -0.409,0.513 -0.195,1.245 0.386,1.708 L 0,0 z"
             id="path2982"
             style="fill:#ed1c3a;fill-opacity:1;fill-rule:nonzero;stroke:none" />
        </g>
        <g
           transform="translate(59.333,1173.3472)"
           id="g2984">
          <path
             d="M 0,0 C 0.685,0.289 1.345,0.215 1.599,-0.39 L 1.76,-0.775 C 2.015,-1.379 1.666,-2.103 0.981,-2.392 l -7.583,-3.193 c -0.685,-0.289 -1.447,-0.032 -1.701,0.572 l -0.327,0.965 c -0.255,0.604 0.15,1.251 0.835,1.539 L 0,0 z"
             id="path2986"
             style="fill:#f5ce08;fill-opacity:1;fill-rule:nonzero;stroke:none" />
        </g>
        <g
           transform="translate(60.2715,1178.1011)"
           id="g2988">
          <path
             d="M 0,0 C 0.742,-0.04 1.303,-0.394 1.267,-1.049 L 1.245,-1.466 C 1.209,-2.121 0.58,-2.62 -0.163,-2.58 l -8.216,0.441 c -0.742,0.04 -1.315,0.604 -1.28,1.259 l 0.127,1.01 c 0.035,0.655 0.681,1.06 1.423,1.019 L 0,0 z"
             id="path2990"
             style="fill:#a9d91c;fill-opacity:1;fill-rule:nonzero;stroke:none" />
        </g>
      </g>
    </g>
  </g>
</svg>
