<?xml version="1.0" encoding="UTF-8" standalone="no"?>
<!-- Created with Inkscape (http://www.inkscape.org/) -->

<svg
   xmlns:dc="http://purl.org/dc/elements/1.1/"
   xmlns:cc="http://creativecommons.org/ns#"
   xmlns:rdf="http://www.w3.org/1999/02/22-rdf-syntax-ns#"
   xmlns:svg="http://www.w3.org/2000/svg"
   xmlns="http://www.w3.org/2000/svg"
   version="1.1"
   width="30"
   height="30"
   id="svg2"
   xml:space="preserve"><metadata
     id="metadata8"><rdf:RDF><cc:Work
         rdf:about=""><dc:format>image/svg+xml</dc:format><dc:type
           rdf:resource="http://purl.org/dc/dcmitype/StillImage" /><dc:title></dc:title></cc:Work></rdf:RDF></metadata><defs
     id="defs6"><clipPath
       id="clipPath16"><path
         d="m 21.36,29.685 -16.649,0 c -0.824,0 -1.494,-0.718 -1.494,-1.591 l 0,0 0,-26.321 c 0,-0.876 0.67,-1.588 1.494,-1.588 l 0,0 20.623,0 c 0.825,0 1.497,0.712 1.401,1.537 l 0,0 0,20.861 c -0.832,1.486 -5.091,7.102 -5.369,7.103 l 0,0 c -0.003,0 -0.005,-0.001 -0.006,-0.001"
         id="path18" /></clipPath><linearGradient
       x1="0"
       y1="0"
       x2="1"
       y2="0"
       id="linearGradient24"
       gradientUnits="userSpaceOnUse"
       gradientTransform="matrix(-1.3e-6,29.499512,29.499512,1.3e-6,14.980957,0.1855469)"
       spreadMethod="pad"><stop
         id="stop26"
         style="stop-color:#dfdedd;stop-opacity:1"
         offset="0" /><stop
         id="stop28"
         style="stop-color:#dfdfdf;stop-opacity:1"
         offset="0.54707402" /><stop
         id="stop30"
         style="stop-color:#ffffff;stop-opacity:1"
         offset="1" /></linearGradient><clipPath
       id="clipPath38"><path
         d="m 0,30.003 30,0 L 30,0 0,0 0,30.003 z"
         id="path40" /></clipPath><clipPath
       id="clipPath80"><path
         d="m 6.09863,12.54 11.28517,0 0,-7.84176 -11.28517,0 0,7.84176 z"
         id="path82" /></clipPath><clipPath
       id="clipPath104"><path
         d="m 6.53223,24.856 5.49807,0 0,-3.7808 -5.49807,0 0,3.7808 z"
         id="path106" /></clipPath></defs><g
     transform="matrix(1.25,0,0,-1.25,0,30)"
     id="g10"><g
       transform="matrix(0.78658801,0,0,0.78658801,0.60638883,0.16)"
       id="g12"><g
         clip-path="url(#clipPath16)"
         id="g14"><g
           id="g20"><g
             id="g22"><path
               d="m 21.36,29.685 -16.649,0 c -0.824,0 -1.494,-0.718 -1.494,-1.591 l 0,0 0,-26.321 c 0,-0.876 0.67,-1.588 1.494,-1.588 l 0,0 20.623,0 c 0.825,0 1.497,0.712 1.401,1.537 l 0,0 0,20.861 c -0.832,1.486 -5.091,7.102 -5.369,7.103 l 0,0 c -0.003,0 -0.005,-0.001 -0.006,-0.001"
               id="path32"
               style="fill:url(#linearGradient24);stroke:none" /></g></g></g></g><g
       transform="matrix(0.78658801,0,0,0.78658801,0.60638883,0.16)"
       id="g34"><g
         clip-path="url(#clipPath38)"
         id="g36"><g
           transform="translate(21.3594,29.6846)"
           id="g42"><path
             d="m 0,0 -16.648,0 c -0.824,0 -1.495,-0.717 -1.495,-1.59 l 0,-26.321 c 0,-0.876 0.671,-1.588 1.495,-1.588 l 20.623,0 c 0.825,0 1.497,0.712 1.401,1.536 l 0,20.861 C 4.537,-5.604 0.215,0.093 0,0 z"
             id="path44"
             style="fill:none;stroke:#84c459;stroke-width:0.75;stroke-linecap:butt;stroke-linejoin:miter;stroke-miterlimit:4;stroke-opacity:1;stroke-dasharray:none" /></g><g
           transform="translate(21.3125,29.6846)"
           id="g46"><path
             d="m 0,0 c -0.078,-0.121 -0.134,-0.295 -0.153,-0.538 l -0.441,-5.985 c -0.057,-0.806 0.508,-1.403 1.26,-1.326 l 4.214,0.427 c 0.267,0.026 0.466,0.121 0.591,0.255 L 0,0 z"
             id="path48"
             style="fill:#84c459;fill-opacity:1;fill-rule:nonzero;stroke:none" /></g><g
           transform="translate(23.2715,12.6318)"
           id="g50"><path
             d="m 0,0 -11.076,0 0,0.822 11.073,0 L 0,0 z"
             id="path52"
             style="fill:#adaeba;fill-opacity:1;fill-rule:nonzero;stroke:none" /></g><path
           d="m 7.052,15.215 4.168,0 0,-4.169 -4.168,0 0,4.169 z"
           id="path54"
           style="fill:none;stroke:#84c459;stroke-width:1.25600004;stroke-linecap:butt;stroke-linejoin:miter;stroke-miterlimit:4;stroke-opacity:1;stroke-dasharray:none" /><g
           transform="translate(23.2715,19.7031)"
           id="g56"><path
             d="m 0,0 -11.076,0 0,0.823 11.073,0 L 0,0 z"
             id="path58"
             style="fill:#adaeba;fill-opacity:1;fill-rule:nonzero;stroke:none" /></g><g
           transform="translate(23.2715,5.8545)"
           id="g60"><path
             d="m 0,0 -11.076,0 0,0.823 11.073,0 L 0,0 z"
             id="path62"
             style="fill:#adaeba;fill-opacity:1;fill-rule:nonzero;stroke:none" /></g><path
           d="m 7.052,8.438 4.168,0 0,-4.17 -4.168,0 0,4.17 z"
           id="path64"
           style="fill:none;stroke:#00adee;stroke-width:0.93400002;stroke-linecap:butt;stroke-linejoin:miter;stroke-miterlimit:4;stroke-opacity:1;stroke-dasharray:none" /><path
           d="m 7.052,21.789 4.168,0 0,-4.17 -4.168,0 0,4.17 z"
           id="path66"
           style="fill:none;stroke:#00adee;stroke-width:0.93400002;stroke-linecap:butt;stroke-linejoin:miter;stroke-miterlimit:4;stroke-opacity:1;stroke-dasharray:none" /><g
           transform="translate(7.083,6.2637)"
           id="g68"><path
             d="m 0,0 4.106,-2.778 c 1.2,3.381 3.238,5.791 6.119,7.233"
             id="path70"
             style="fill:none;stroke:#979797;stroke-width:3.5;stroke-linecap:round;stroke-linejoin:round;stroke-miterlimit:4;stroke-opacity:1;stroke-dasharray:none" /></g><g
           transform="translate(6.7549,7.1094)"
           id="g72"><path
             d="M 0,0 3.888,-2.695 C 5.187,0.562 7.24,2.91 10.047,4.346"
             id="path74"
             style="fill:none;stroke:#77a836;stroke-width:3.25;stroke-linecap:round;stroke-linejoin:round;stroke-miterlimit:4;stroke-opacity:1;stroke-dasharray:none" /></g><g
           id="g76"><g
             id="g78" /><g
             id="g84"><g
               clip-path="url(#clipPath80)"
               id="g86"
               style="opacity:0.60000598"><g
                 transform="translate(6.3486,7.8428)"
                 id="g88"><path
                   d="m 0,0 4.45,-2.895 c 0.739,1.366 1.391,2.938 2.335,3.853 0.913,0.925 1.944,2.009 4,3.489"
                   id="path90"
                   style="fill:none;stroke:#ffffff;stroke-width:0.5;stroke-linecap:round;stroke-linejoin:round;stroke-miterlimit:4;stroke-opacity:1;stroke-dasharray:none" /></g></g></g></g><g
           transform="translate(7.8179,23.0352)"
           id="g92"><path
             d="M 0,0 0.396,-0.256 1.58,-1.443 2.944,0.465 3.328,0.843 3.42,0.917 C 3.576,1.04 3.742,1.119 3.916,1.155 L 4.625,1.033 4.885,0.33 4.75,-0.118 4.437,-0.63 2.81,-2.593 4.553,-4.096 4.633,-4.146 4.936,-4.477 5.015,-4.906 4.94,-5.191 4.626,-5.704 3.889,-6.209 l -0.425,0.006 -0.476,0.307 -1.537,1.438 -1.664,-2.296 -0.528,-0.53 -0.5,-0.281 -0.672,0.076 c -0.211,0.137 -0.3,0.358 -0.265,0.662 l 0.099,0.494 0.458,0.664 1.799,2.364 -1.404,1.128 -0.335,0.417 -0.084,0.388 c 0.007,0.308 0.11,0.591 0.31,0.85 L -0.514,-0.027 0,0"
             id="path94"
             style="fill:#999999;fill-opacity:1;fill-rule:nonzero;stroke:none" /></g><g
           transform="translate(12.2432,24.5542)"
           id="g96"><path
             d="M 0,0 0.27,-0.621 0.134,-1.068 -0.184,-1.621 -1.806,-3.543 -0.062,-5.046 0.012,-5.139 0.278,-5.421 0.395,-5.897 0.357,-6.23 0.048,-6.7 l -0.78,-0.501 -0.467,0.011 -0.438,0.26 -1.533,1.479 -1.622,-2.3 -0.57,-0.526 -0.457,-0.284 -0.709,0.123 c -0.212,0.135 -0.302,0.343 -0.27,0.619 l 0.098,0.495 0.458,0.664 1.799,2.364 -1.403,1.127 -0.335,0.417 -0.126,0.393 c 0.038,0.333 0.156,0.628 0.356,0.886 0.255,0.251 0.542,0.415 0.863,0.492 l 0.425,-0.007 0.434,-0.302 1.188,-1.144 1.365,1.908 0.383,0.377 0.051,0.078 c 0.157,0.124 0.336,0.215 0.542,0.276 L 0,0"
             id="path98"
             style="fill:#c63131;fill-opacity:1;fill-rule:nonzero;stroke:none" /></g><g
           id="g100"><g
             id="g102" /><g
             id="g108"><g
               clip-path="url(#clipPath104)"
               id="g110"
               style="opacity:0.60000598"><g
                 transform="translate(6.7822,23.2778)"
                 id="g112"><path
                   d="M 0,0 C 0.547,-0.173 1.338,-0.825 2.373,-1.953 L 4.998,1.328"
                   id="path114"
                   style="fill:none;stroke:#ffffff;stroke-width:0.5;stroke-linecap:round;stroke-linejoin:round;stroke-miterlimit:4;stroke-opacity:1;stroke-dasharray:none" /></g></g></g></g></g></g></g></svg>