<?xml version="1.0" encoding="UTF-8" standalone="no"?>
<svg class="mc"
   xmlns:dc="http://purl.org/dc/elements/1.1/"
   xmlns:cc="http://creativecommons.org/ns#"
   xmlns:rdf="http://www.w3.org/1999/02/22-rdf-syntax-ns#"
   xmlns:svg="http://www.w3.org/2000/svg"
   xmlns="http://www.w3.org/2000/svg"
   version="1.1"
   
   
   
   viewBox="0 0 512 512"
   style="enable-background:new 0 0 512 512;"
   xml:space="preserve"><metadata
   id="metadata70"><rdf:RDF><cc:Work
       rdf:about=""><dc:format>image/svg+xml</dc:format><dc:type
         rdf:resource="http://purl.org/dc/dcmitype/StillImage" /><dc:title></dc:title></cc:Work></rdf:RDF></metadata><defs
   id="defs68">
	
	
	

		
		
		
		
		
		
		
		
		
		
		
		
		
		
		
		
		
	
		
		
		
		
	</defs>
<style
   type="text/css"
   id="style10">
	svg.mc .st0{opacity:0.6;fill:#FBA919;}
	svg.mc .st1{fill:#FBA919;}
	svg.mc .st2{fill:none;stroke:#111342;stroke-width:14.5329;stroke-linecap:round;stroke-linejoin:round;stroke-miterlimit:10;}
	svg.mc .st3{fill:#FBA919;stroke:#111342;stroke-width:16.1561;stroke-linecap:round;stroke-linejoin:round;stroke-miterlimit:10;}
</style>
<circle
   style="stroke-width:1.30489"
   class="st1"
   cx="95.72406"
   cy="137.12436"
   r="23.709883"
   id="circle14" /><circle
   style="fill:#111342;fill-opacity:1;stroke-width:0.963121"
   class="st1"
   cx="85.963615"
   cy="249.66913"
   r="17.5"
   id="circle16" /><circle
   style="stroke-width:1.30489"
   class="st1"
   cx="95.72406"
   cy="388.81189"
   r="23.709883"
   id="circle18" /><path
   class="st2"
   d="m 20.503223,455.56499 c 0,26.09075 24.670805,47.43181 54.832367,47.43181 h 361.74319 c 30.16157,0 54.83236,-21.34106 54.83236,-47.43181 V 56.435039 c 0,-26.090751 -24.67079,-47.4318161 -54.83236,-47.4318161 H 75.33559 c -30.161562,0 -54.832367,21.3410651 -54.832367,47.4318161 z"
   id="path30" /><circle
   class="st2"
   cx="86.250534"
   cy="127.6378"
   r="30.808496"
   id="circle38" /><circle
   class="st2"
   cx="86.250534"
   cy="250.07579"
   r="30.808496"
   id="circle40" /><circle
   class="st2"
   cx="86.250534"
   cy="379.32538"
   r="30.808496"
   id="circle42" /><g
   transform="matrix(1.3098836,0,0,0.99282773,-52.427906,1.9298788)"
   id="g1103"><line
     id="line44"
     y2="126.8418"
     x2="370.45599"
     y1="126.8418"
     x1="172.47778"
     class="st2" /><line
     id="line46"
     y2="221.6683"
     x2="370.45599"
     y1="221.6683"
     x1="172.47778"
     class="st2" /><line
     id="line48"
     y2="316.48178"
     x2="370.45599"
     y1="316.48178"
     x1="172.47778"
     class="st2" /><line
     id="line50"
     y2="411.30823"
     x2="370.45599"
     y1="411.30823"
     x1="172.47778"
     class="st2" /></g>
</svg>
