<?xml version="1.0" encoding="UTF-8" standalone="no"?>
<!-- Created with Inkscape (http://www.inkscape.org/) -->

<svg
   xmlns:dc="http://purl.org/dc/elements/1.1/"
   xmlns:cc="http://creativecommons.org/ns#"
   xmlns:rdf="http://www.w3.org/1999/02/22-rdf-syntax-ns#"
   xmlns:svg="http://www.w3.org/2000/svg"
   xmlns="http://www.w3.org/2000/svg"
   version="1.1"
   width="30"
   height="30"
   id="svg2"
   xml:space="preserve"><metadata
     id="metadata8"><rdf:RDF><cc:Work
         rdf:about=""><dc:format>image/svg+xml</dc:format><dc:type
           rdf:resource="http://purl.org/dc/dcmitype/StillImage" /><dc:title></dc:title></cc:Work></rdf:RDF></metadata><defs
     id="defs6"><clipPath
       id="clipPath16"><path
         d="m 35.348,48.998 -27.09,0 c -1.34,0 -2.431,-1.167 -2.431,-2.587 l 0,0 0,-42.828 C 5.827,2.159 6.918,1 8.258,1 l 0,0 33.557,0 c 1.342,0 2.436,1.159 2.28,2.5 l 0,0 0,33.944 C 42.74,39.861 35.812,49 35.357,49 l 0,0 c -0.003,0 -0.007,-10e-4 -0.009,-0.002"
         id="path18" /></clipPath><linearGradient
       x1="0"
       y1="0"
       x2="1"
       y2="0"
       id="linearGradient24"
       gradientUnits="userSpaceOnUse"
       gradientTransform="matrix(-2.1e-6,47.999512,47.999512,2.1e-6,24.968262,1)"
       spreadMethod="pad"><stop
         id="stop26"
         style="stop-color:#e0dfdf;stop-opacity:1"
         offset="0" /><stop
         id="stop28"
         style="stop-color:#e1e1e1;stop-opacity:1"
         offset="0.54707402" /><stop
         id="stop30"
         style="stop-color:#ffffff;stop-opacity:1"
         offset="1" /></linearGradient><clipPath
       id="clipPath38"><path
         d="M 0,50 50,50 50,0 0,0 0,50 z"
         id="path40" /></clipPath><clipPath
       id="clipPath70"><path
         d="M 26.309,23.004 16.07,12.2 c -0.203,-0.216 -0.536,-0.216 -0.744,0 l 0,0 -3.018,3.221 c -0.204,0.215 -0.539,0.215 -0.744,0 l 0,0 -2.232,-2.383 c -0.202,-0.22 -0.202,-0.576 0,-0.793 l 0,0 5.997,-6.393 c 0.206,-0.221 0.538,-0.221 0.743,0 l 0,0 13.214,13.978 c 0.202,0.218 0.202,0.574 0,0.793 l 0,0 -2.233,2.381 c -0.103,0.109 -0.238,0.163 -0.373,0.163 l 0,0 c -0.134,0 -0.269,-0.054 -0.371,-0.163"
         id="path72" /></clipPath><radialGradient
       cx="0"
       cy="0"
       r="1"
       fx="0"
       fy="0"
       id="radialGradient78"
       gradientUnits="userSpaceOnUse"
       gradientTransform="matrix(9.2128448,0,0,-9.8255692,19.309082,14.426758)"
       spreadMethod="pad"><stop
         id="stop80"
         style="stop-color:#ffffff;stop-opacity:1"
         offset="0" /><stop
         id="stop82"
         style="stop-color:#abd046;stop-opacity:1"
         offset="0.85276097" /><stop
         id="stop84"
         style="stop-color:#abd046;stop-opacity:1"
         offset="1" /></radialGradient><clipPath
       id="clipPath92"><path
         d="M 0,50 50,50 50,0 0,0 0,50 z"
         id="path94" /></clipPath><clipPath
       id="clipPath104"><path
         d="m 16.833,39.23 -1.831,-1.854 c -0.241,-0.244 -0.631,-0.244 -0.869,0 l 0,0 -1.83,1.854 c -0.237,0.243 -0.627,0.243 -0.865,0 l 0,0 -2.608,-2.634 c -0.238,-0.243 -0.238,-0.637 0,-0.877 l 0,0 1.833,-1.855 c 0.238,-0.244 0.239,-0.633 0,-0.879 l 0,0 -1.833,-1.853 c -0.238,-0.239 -0.238,-0.634 0,-0.875 l 0,0 2.608,-2.636 c 0.238,-0.239 0.628,-0.239 0.867,0 l 0,0 1.828,1.856 c 0.241,0.24 0.628,0.24 0.87,0 l 0,0 1.83,-1.856 c 0.24,-0.239 0.631,-0.239 0.866,0 l 0,0 2.608,2.636 c 0.237,0.241 0.237,0.636 0,0.875 l 0,0 -1.834,1.853 c -0.24,0.246 -0.24,0.635 0,0.879 l 0,0 1.834,1.855 c 0.237,0.24 0.237,0.634 0,0.877 l 0,0 -2.608,2.634 c -0.118,0.122 -0.274,0.182 -0.431,0.182 l 0,0 c -0.157,0 -0.315,-0.06 -0.435,-0.182"
         id="path106" /></clipPath><linearGradient
       x1="0"
       y1="0"
       x2="1"
       y2="0"
       id="linearGradient112"
       gradientUnits="userSpaceOnUse"
       gradientTransform="matrix(11.833008,0,0,-11.833008,8.6518555,33.426758)"
       spreadMethod="pad"><stop
         id="stop114"
         style="stop-color:#f04d45;stop-opacity:1"
         offset="0" /><stop
         id="stop116"
         style="stop-color:#9f3335;stop-opacity:1"
         offset="1" /></linearGradient><clipPath
       id="clipPath124"><path
         d="M 0,50 50,50 50,0 0,0 0,50 z"
         id="path126" /></clipPath></defs><g
     transform="matrix(1.25,0,0,-1.25,0,30)"
     id="g10"><g
       transform="matrix(0.48410407,0,0,0.48410407,0.38560984,-0.29089838)"
       id="g12"><g
         clip-path="url(#clipPath16)"
         id="g14"><g
           id="g20"><g
             id="g22"><path
               d="m 35.348,48.998 -27.09,0 c -1.34,0 -2.431,-1.167 -2.431,-2.587 l 0,0 0,-42.828 C 5.827,2.159 6.918,1 8.258,1 l 0,0 33.557,0 c 1.342,0 2.436,1.159 2.28,2.5 l 0,0 0,33.944 C 42.74,39.861 35.812,49 35.357,49 l 0,0 c -0.003,0 -0.007,-10e-4 -0.009,-0.002"
               id="path32"
               style="fill:url(#linearGradient24);stroke:none" /></g></g></g></g><g
       transform="matrix(0.48410407,0,0,0.48410407,0.38560984,-0.13056504)"
       id="g34"><g
         clip-path="url(#clipPath38)"
         id="g36"><g
           transform="translate(35.3477,48.998)"
           id="g42"><path
             d="m 0,0 -27.089,0 c -1.34,0 -2.432,-1.167 -2.432,-2.587 l 0,-42.828 c 0,-1.424 1.092,-2.583 2.432,-2.583 l 33.556,0 c 1.343,0 2.436,1.159 2.28,2.5 l 0,33.943 C 7.382,-9.117 0.35,0.152 0,0 z"
             id="path44"
             style="fill:none;stroke:#89c761;stroke-width:0.75;stroke-linecap:butt;stroke-linejoin:miter;stroke-miterlimit:4;stroke-opacity:1;stroke-dasharray:none" /></g><g
           transform="translate(35.2705,48.998)"
           id="g46"><path
             d="m 0,0 c -0.126,-0.196 -0.217,-0.48 -0.248,-0.875 l -0.718,-9.739 c -0.094,-1.31 0.827,-2.282 2.051,-2.157 l 6.855,0.694 c 0.436,0.043 0.758,0.198 0.962,0.416 L 0,0 z"
             id="path48"
             style="fill:#89c761;fill-opacity:1;fill-rule:nonzero;stroke:none" /></g><g
           transform="translate(38.458,21.252)"
           id="g50"><path
             d="m 0,0 -18.021,0 0,1.338 18.017,0 L 0,0 z"
             id="path52"
             style="fill:#b0b2bd;fill-opacity:1;fill-rule:nonzero;stroke:none" /></g><path
           d="m 12.067,25.456 6.783,0 0,-6.785 -6.783,0 0,6.785 z"
           id="path54"
           style="fill:none;stroke:#89c761;stroke-width:1.25600004;stroke-linecap:butt;stroke-linejoin:miter;stroke-miterlimit:4;stroke-opacity:1;stroke-dasharray:none" /><g
           transform="translate(38.458,32.7578)"
           id="g56"><path
             d="m 0,0 -18.021,0 0,1.338 18.017,0 L 0,0 z"
             id="path58"
             style="fill:#b0b2bd;fill-opacity:1;fill-rule:nonzero;stroke:none" /></g><g
           transform="translate(38.458,10.2246)"
           id="g60"><path
             d="m 0,0 -18.021,0 0,1.339 18.017,0 L 0,0 z"
             id="path62"
             style="fill:#b0b2bd;fill-opacity:1;fill-rule:nonzero;stroke:none" /></g><path
           d="m 12.067,14.429 6.783,0 0,-6.785 -6.783,0 0,6.785 z"
           id="path64"
           style="fill:none;stroke:#00b0f0;stroke-width:0.93400002;stroke-linecap:butt;stroke-linejoin:miter;stroke-miterlimit:4;stroke-opacity:1;stroke-dasharray:none" /></g></g><g
       transform="matrix(0.48410407,0,0,0.48410407,0.38560984,-0.29089838)"
       id="g66"><g
         clip-path="url(#clipPath70)"
         id="g68"><g
           id="g74"><g
             id="g76"><path
               d="M 26.309,23.004 16.07,12.2 c -0.203,-0.216 -0.536,-0.216 -0.744,0 l 0,0 -3.018,3.221 c -0.204,0.215 -0.539,0.215 -0.744,0 l 0,0 -2.232,-2.383 c -0.202,-0.22 -0.202,-0.576 0,-0.793 l 0,0 5.997,-6.393 c 0.206,-0.221 0.538,-0.221 0.743,0 l 0,0 13.214,13.978 c 0.202,0.218 0.202,0.574 0,0.793 l 0,0 -2.233,2.381 c -0.103,0.109 -0.238,0.163 -0.373,0.163 l 0,0 c -0.134,0 -0.269,-0.054 -0.371,-0.163"
               id="path86"
               style="fill:url(#radialGradient78);stroke:none" /></g></g></g></g><g
       transform="matrix(0.48410407,0,0,0.48410407,0.38560984,-0.29089838)"
       id="g88"><g
         clip-path="url(#clipPath92)"
         id="g90"><g
           transform="translate(29.2861,19.8301)"
           id="g96"><path
             d="m 0,0 c 0.201,0.218 0.201,0.574 0,0.793 l -2.233,2.381 c -0.207,0.218 -0.539,0.218 -0.745,0 L -13.215,-7.63 c -0.204,-0.217 -0.537,-0.217 -0.745,0 l -3.018,3.221 c -0.204,0.215 -0.539,0.215 -0.744,0 l -2.232,-2.383 c -0.202,-0.221 -0.202,-0.576 0,-0.793 l 5.997,-6.394 c 0.206,-0.22 0.538,-0.22 0.743,0 L 0,0 z"
             id="path98"
             style="fill:none;stroke:#22984f;stroke-width:1;stroke-linecap:butt;stroke-linejoin:miter;stroke-miterlimit:4;stroke-opacity:1;stroke-dasharray:none" /></g></g></g><g
       transform="matrix(0.48410407,0,0,0.48410407,0.38560984,-0.29089838)"
       id="g100"><g
         clip-path="url(#clipPath104)"
         id="g102"><g
           id="g108"><g
             id="g110"><path
               d="m 16.833,39.23 -1.831,-1.854 c -0.241,-0.244 -0.631,-0.244 -0.869,0 l 0,0 -1.83,1.854 c -0.237,0.243 -0.627,0.243 -0.865,0 l 0,0 -2.608,-2.634 c -0.238,-0.243 -0.238,-0.637 0,-0.877 l 0,0 1.833,-1.855 c 0.238,-0.244 0.239,-0.633 0,-0.879 l 0,0 -1.833,-1.853 c -0.238,-0.239 -0.238,-0.634 0,-0.875 l 0,0 2.608,-2.636 c 0.238,-0.239 0.628,-0.239 0.867,0 l 0,0 1.828,1.856 c 0.241,0.24 0.628,0.24 0.87,0 l 0,0 1.83,-1.856 c 0.24,-0.239 0.631,-0.239 0.866,0 l 0,0 2.608,2.636 c 0.237,0.241 0.237,0.636 0,0.875 l 0,0 -1.834,1.853 c -0.24,0.246 -0.24,0.635 0,0.879 l 0,0 1.834,1.855 c 0.237,0.24 0.237,0.634 0,0.877 l 0,0 -2.608,2.634 c -0.118,0.122 -0.274,0.182 -0.431,0.182 l 0,0 c -0.157,0 -0.315,-0.06 -0.435,-0.182"
               id="path118"
               style="fill:url(#linearGradient112);stroke:none" /></g></g></g></g><g
       transform="matrix(0.48410407,0,0,0.48410407,0.38560984,-0.29089838)"
       id="g120"><g
         clip-path="url(#clipPath124)"
         id="g122"><g
           transform="translate(17.6987,39.2305)"
           id="g128"><path
             d="m 0,0 c -0.235,0.243 -0.625,0.243 -0.866,0 l -1.831,-1.854 c -0.241,-0.244 -0.63,-0.244 -0.869,0 L -5.396,0 c -0.237,0.243 -0.627,0.243 -0.865,0 l -2.608,-2.635 c -0.237,-0.242 -0.237,-0.637 0,-0.876 l 1.834,-1.855 c 0.237,-0.244 0.238,-0.634 0,-0.88 l -1.834,-1.852 c -0.237,-0.239 -0.237,-0.634 0,-0.875 l 2.608,-2.636 c 0.238,-0.24 0.628,-0.24 0.867,0 l 1.828,1.856 c 0.241,0.24 0.628,0.24 0.87,0 l 1.83,-1.856 c 0.241,-0.24 0.631,-0.24 0.866,0 l 2.608,2.636 c 0.237,0.241 0.237,0.636 0,0.875 l -1.834,1.852 c -0.24,0.246 -0.24,0.636 0,0.88 l 1.834,1.855 c 0.237,0.239 0.237,0.634 0,0.876 L 0,0 z"
             id="path130"
             style="fill:none;stroke:#4961ab;stroke-width:0.75;stroke-linecap:butt;stroke-linejoin:miter;stroke-miterlimit:4;stroke-opacity:1;stroke-dasharray:none" /></g></g></g></g></svg>