<?xml version="1.0" encoding="UTF-8" standalone="no"?>
<svg
   xmlns:dc="http://purl.org/dc/elements/1.1/"
   xmlns:cc="http://creativecommons.org/ns#"
   xmlns:rdf="http://www.w3.org/1999/02/22-rdf-syntax-ns#"
   xmlns:svg="http://www.w3.org/2000/svg"
   xmlns="http://www.w3.org/2000/svg"
   xml:space="preserve"
   style="enable-background:new 0 0 512 512;"
   viewBox="0 0 512 512"
   y="0px"
   x="0px"
   id="Layer_1"
   version="1.1"><metadata
   id="metadata176"><rdf:RDF><cc:Work
       rdf:about=""><dc:format>image/svg+xml</dc:format><dc:type
         rdf:resource="http://purl.org/dc/dcmitype/StillImage" /><dc:title></dc:title></cc:Work></rdf:RDF></metadata><defs
   id="defs174">
	
	
	
	
	
	
	
	
	
	
</defs>
<style
   id="style137"
   type="text/css">
	.st0{opacity:0.6;fill:#87CB9D;}
	.st1{fill:#87CB9D;}
	.st2{fill:none;stroke:#111342;stroke-width:13.7072;stroke-linecap:round;stroke-linejoin:round;stroke-miterlimit:10;}
	.st3{display:none;}
	
		.st4{display:inline;fill:none;stroke:#111342;stroke-width:13.7072;stroke-linecap:round;stroke-linejoin:round;stroke-miterlimit:10;}
	
		.st5{display:none;fill:none;stroke:#111342;stroke-width:13.7072;stroke-linecap:round;stroke-linejoin:round;stroke-miterlimit:10;}
</style>
<g
   transform="matrix(1.1163314,0,0,1.1163314,-25.955384,-33.644103)"
   class="st3"
   id="g157">
		<path
   class="st4"
   d="m 196.51,181.72 c 0,17.58 -9.38,32.97 -23.4,41.44 -7.29,4.4 -15.83,6.93 -24.97,6.93 -26.71,0 -48.37,-21.66 -48.37,-48.37 0,-26.71 21.66,-48.37 48.37,-48.37 26.71,0 48.37,21.65 48.37,48.37 z"
   id="path153" />
		<line
   class="st4"
   x1="196.50999"
   y1="235.64999"
   x2="180.85001"
   y2="219.98"
   id="line155" />
	</g><path
   class="st5"
   d="m 308.46401,347.25933 38.79252,-87.97807 c 3.04758,-6.98824 7.13336,-11.24146 12.25732,-12.75967 2.6457,-0.73678 5.01233,-1.09401 7.09987,-1.09401 8.22736,0 14.33369,4.62162 18.34132,13.85368 l 38.79252,87.97807"
   id="path159" /><line
   class="st5"
   x1="324.09265"
   y1="316.90628"
   x2="410.35156"
   y2="316.90628"
   id="line161" /><g
   transform="matrix(1.0203154,0,0,1.0203154,-0.02031545,-14.945482)"
   id="g261"><g
     id="g147"
     transform="matrix(1.1163314,0,0,1.1163314,-25.955384,-33.644103)">
		<path
   id="path141"
   d="m 215.95,300.21 h -47.12 l -68.73,59.65 c -5.58,4.84 -14.25,0.67 -13.94,-6.71 l 2.19,-52.94 H 68.91 C 47.97,300.21 31,283.24 31,262.3 V 145.12 c 0,-20.94 16.97,-37.91 37.91,-37.91 h 147.04 c 20.94,0 37.91,16.97 37.91,37.91 V 262.3 c 0.01,20.94 -16.97,37.91 -37.91,37.91 z"
   class="st1" />
		<path
   id="path143"
   d="m 250.22,300.21 h -81.39 l -68.73,59.65 c -5.58,4.84 -14.25,0.67 -13.94,-6.71 l 2.19,-52.94 H 68.91 C 47.97,300.21 31,283.24 31,262.3 V 110.85 C 31,89.91 47.97,72.94 68.91,72.94 h 181.31 c 20.94,0 37.91,16.97 37.91,37.91 V 262.3 c 0,20.94 -16.97,37.91 -37.91,37.91 z"
   class="st2" />
		<path
   id="path145"
   d="m 288.12,174.03 h 139.01 c 20.95,0 37.92,16.97 37.92,37.92 V 363.4 c 0,20.95 -16.97,37.92 -37.92,37.92 H 407.7 l 2.19,52.93 c 0.32,7.38 -8.36,11.56 -13.94,6.72 l -68.72,-59.65 h -81.4 c -20.93,0 -37.9,-16.97 -37.9,-37.92 v -63.19"
   class="st2" />
	</g><line
     id="line149"
     y2="253.90053"
     x2="149.43144"
     y1="238.30539"
     x1="149.43144"
     class="st2" /><path
     id="path151"
     d="m 117.7053,134.70984 c 0,-17.92829 16.57753,-32.45176 37.02872,-32.45176 20.45119,0 37.02871,14.53464 37.02871,32.45176 0,0 0.81492,14.78022 -18.41947,27.9641 -12.82665,9.98 -22.79549,25.65329 -22.79549,43.45878"
     class="st2" /><line
     id="line163"
     y2="230.65851"
     x2="441.7428"
     y1="230.65851"
     x1="361.81348"
     class="st2" /><line
     id="line165"
     y2="296.9686"
     x2="441.7428"
     y1="296.9686"
     x1="336.31647"
     class="st2" /><line
     id="line167"
     y2="358.46732"
     x2="439.19757"
     y1="358.46732"
     x1="265.92062"
     class="st2" /></g>
</svg>
