<?xml version="1.0" encoding="UTF-8" standalone="no"?>
<!-- Created with Inkscape (http://www.inkscape.org/) -->

<svg
   xmlns:dc="http://purl.org/dc/elements/1.1/"
   xmlns:cc="http://creativecommons.org/ns#"
   xmlns:rdf="http://www.w3.org/1999/02/22-rdf-syntax-ns#"
   xmlns:svg="http://www.w3.org/2000/svg"
   xmlns="http://www.w3.org/2000/svg"
   version="1.1"
   width="30"
   height="30"
   id="svg2"
   xml:space="preserve"><metadata
     id="metadata8"><rdf:RDF><cc:Work
         rdf:about=""><dc:format>image/svg+xml</dc:format><dc:type
           rdf:resource="http://purl.org/dc/dcmitype/StillImage" /><dc:title></dc:title></cc:Work></rdf:RDF></metadata><defs
     id="defs6"><clipPath
       id="clipPath16"><path
         d="M 0,30 30,30 30,0 0,0 0,30 z"
         id="path18" /></clipPath><clipPath
       id="clipPath24"><path
         d="M 0,30 30,30 30,0 0,0 0,30 z"
         id="path26" /></clipPath><clipPath
       id="clipPath38"><path
         d="m 1.3501,28.7007 27.3501,0 0,-27.35109 -27.3501,0 0,27.35109 z"
         id="path40" /></clipPath><clipPath
       id="clipPath54"><path
         d="m 1.8999,28.1504 26.2505,0 0,-26.25001 -26.2505,0 0,26.25001 z"
         id="path56" /></clipPath><clipPath
       id="clipPath70"><path
         d="m 2.4502,27.6006 25.1494,0 0,-25.20021 -25.1494,0 0,25.20021 z"
         id="path72" /></clipPath><clipPath
       id="clipPath90"><path
         d="M 6.85,23.5 C 4.617,21.299 3.5,18.617 3.5,15.45 l 0,0 c 0,-3.134 1.117,-5.817 3.35,-8.049 l 0,0 C 9.049,5.2 11.733,4.1 14.9,4.1 l 0,0 c 3.133,0 5.8,1.1 8,3.301 l 0,0 c 2.233,2.232 3.35,4.915 3.35,8.049 l 0,0 c 0,3.167 -1.117,5.849 -3.35,8.05 l 0,0 c -2.2,2.234 -4.867,3.35 -8,3.35 l 0,0 c -3.167,0 -5.851,-1.116 -8.05,-3.35"
         id="path92" /></clipPath><linearGradient
       x1="0"
       y1="0"
       x2="1"
       y2="0"
       id="linearGradient98"
       gradientUnits="userSpaceOnUse"
       gradientTransform="matrix(5.1500926,-20.350361,22.000391,5.5500984,12.744629,23.879883)"
       spreadMethod="pad"><stop
         id="stop100"
         style="stop-color:#ccea9d;stop-opacity:1"
         offset="0" /><stop
         id="stop102"
         style="stop-color:#afdf68;stop-opacity:1"
         offset="0.20784301" /><stop
         id="stop104"
         style="stop-color:#afdf68;stop-opacity:1"
         offset="0.20784301" /><stop
         id="stop106"
         style="stop-color:#85b320;stop-opacity:1"
         offset="1" /></linearGradient><clipPath
       id="clipPath114"><path
         d="M 0,30 30,30 30,0 0,0 0,30 z"
         id="path116" /></clipPath><clipPath
       id="clipPath126"><path
         d="m 10.4502,10.4502 8.7002,0 0,-3.4004 -8.7002,0 0,3.4004 z"
         id="path128" /></clipPath><clipPath
       id="clipPath142"><path
         d="m 4.09912,26.5156 21.70268,0 0,-12.8652 -21.70268,0 0,12.8652 z"
         id="path144" /></clipPath><clipPath
       id="clipPath162"><path
         d="m 14.85,27.25 c -3.3,0.033 -6.1,-1.117 -8.4,-3.45 l 0,0 C 4.15,21.5 3,18.7 3,15.4 l 0,0 C 3,12.133 4.15,9.349 6.45,7.05 l 0,0 c 2.3,-2.3 5.1,-3.45 8.4,-3.45 l 0,0 c 3.267,0 6.051,1.15 8.35,3.45 l 0,0 c 2.3,2.299 3.466,5.083 3.5,8.35 l 0,0 c -0.034,3.3 -1.2,6.1 -3.5,8.4 l 0,0 c -2.267,2.301 -5.005,3.451 -8.212,3.451 l 0,0 c -0.046,0 -0.092,0 -0.138,-0.001 M 7,7.55 C 4.834,9.716 3.75,12.334 3.75,15.4 l 0,0 c 0,3.1 1.084,5.733 3.25,7.9 l 0,0 c 2.167,2.166 4.8,3.25 7.9,3.25 l 0,0 c 3.067,0 5.684,-1.084 7.85,-3.25 l 0,0 C 24.916,21.133 26,18.5 26,15.4 l 0,0 C 26,12.334 24.916,9.716 22.75,7.55 l 0,0 C 20.584,5.383 17.967,4.3 14.9,4.3 l 0,0 C 11.8,4.3 9.167,5.383 7,7.55"
         id="path164" /></clipPath><linearGradient
       x1="0"
       y1="0"
       x2="1"
       y2="0"
       id="linearGradient170"
       gradientUnits="userSpaceOnUse"
       gradientTransform="matrix(16.774981,-16.774981,16.774981,16.774981,6.4121094,23.837891)"
       spreadMethod="pad"><stop
         id="stop172"
         style="stop-color:#afdf68;stop-opacity:1"
         offset="0" /><stop
         id="stop174"
         style="stop-color:#85b320;stop-opacity:1"
         offset="1" /></linearGradient></defs><g
     transform="matrix(1.25,0,0,-1.25,0,30)"
     id="g10"><g
       transform="scale(0.78666667,0.78666667)"
       id="g12"><g
         clip-path="url(#clipPath16)"
         id="g14"><g
           id="g20"><g
             id="g22" /><g
             id="g28"><g
               clip-path="url(#clipPath24)"
               id="g30"
               style="opacity:0"><path
                 d="M 30,0 0,0 0,30 30,30 30,0 z"
                 id="path32"
                 style="fill:#010101;fill-opacity:1;fill-rule:nonzero;stroke:none" /></g></g></g><g
           id="g34"><g
             id="g36" /><g
             id="g42"><g
               clip-path="url(#clipPath38)"
               id="g44"
               style="opacity:0.24705499"><g
                 transform="translate(24.2998,24.2998)"
                 id="g46"><path
                   d="m 0,0 c -2.566,2.6 -5.649,3.883 -9.25,3.85 -3.633,0.033 -6.733,-1.25 -9.3,-3.85 -2.567,-2.533 -3.85,-5.617 -3.85,-9.25 0,-3.667 1.283,-6.767 3.85,-9.3 2.567,-2.566 5.667,-3.849 9.3,-3.849 3.601,0 6.684,1.283 9.25,3.849 2.567,2.533 3.851,5.633 3.851,9.3 C 3.851,-5.617 2.567,-2.533 0,0 m 0.4,0.45 c 2.667,-2.666 4,-5.9 4,-9.7 0,-3.8 -1.333,-7.033 -4,-9.7 -2.667,-2.666 -5.883,-4 -9.65,-4 -3.8,0 -7.033,1.334 -9.7,4 -2.667,2.667 -4,5.9 -4,9.7 0,3.8 1.333,7.034 4,9.7 2.667,2.667 5.9,3.984 9.7,3.95 3.767,0.034 6.983,-1.283 9.65,-3.95"
                   id="path48"
                   style="fill:#cccccc;fill-opacity:1;fill-rule:nonzero;stroke:none" /></g></g></g></g><g
           id="g50"><g
             id="g52" /><g
             id="g58"><g
               clip-path="url(#clipPath54)"
               id="g60"
               style="opacity:0.49803204"><g
                 transform="translate(23.9502,23.8999)"
                 id="g62"><path
                   d="m 0,0 c -2.467,2.5 -5.434,3.733 -8.9,3.7 -3.5,0.033 -6.483,-1.2 -8.95,-3.7 -2.434,-2.433 -3.65,-5.383 -3.65,-8.85 0,-3.466 1.216,-6.45 3.65,-8.95 2.467,-2.467 5.45,-3.7 8.95,-3.7 3.466,0 6.433,1.233 8.9,3.7 2.433,2.5 3.649,5.484 3.649,8.95 C 3.649,-5.383 2.433,-2.433 0,0 M 0.35,0.4 C 2.917,-2.133 4.2,-5.217 4.2,-8.85 4.2,-12.517 2.917,-15.617 0.35,-18.15 -2.217,-20.716 -5.3,-22 -8.9,-22 c -3.634,0 -6.733,1.284 -9.3,3.85 -2.567,2.533 -3.85,5.633 -3.85,9.3 0,3.633 1.283,6.717 3.85,9.25 2.567,2.6 5.666,3.883 9.3,3.85 C -5.3,4.283 -2.217,3 0.35,0.4"
                   id="path64"
                   style="fill:#cccccc;fill-opacity:1;fill-rule:nonzero;stroke:none" /></g></g></g></g><g
           id="g66"><g
             id="g68" /><g
             id="g74"><g
               clip-path="url(#clipPath70)"
               id="g76"
               style="opacity:0.74902302"><g
                 transform="translate(23.5498,23.5498)"
                 id="g78"><path
                   d="m 0,0 c -2.333,2.367 -5.167,3.534 -8.5,3.5 -3.367,0.034 -6.216,-1.133 -8.55,-3.5 -2.367,-2.333 -3.55,-5.167 -3.55,-8.5 0,-3.333 1.183,-6.183 3.55,-8.55 2.334,-2.367 5.183,-3.55 8.55,-3.55 3.333,0 6.167,1.183 8.5,3.55 2.333,2.367 3.5,5.217 3.5,8.55 0,3.333 -1.167,6.167 -3.5,8.5 m 0.4,0.35 c 2.433,-2.433 3.65,-5.383 3.65,-8.85 0,-3.466 -1.217,-6.45 -3.65,-8.95 -2.466,-2.467 -5.433,-3.699 -8.9,-3.699 -3.5,0 -6.483,1.232 -8.95,3.699 -2.433,2.5 -3.65,5.484 -3.65,8.95 0,3.467 1.217,6.417 3.65,8.85 2.467,2.5 5.45,3.733 8.95,3.7 3.467,0.033 6.434,-1.2 8.9,-3.7"
                   id="path80"
                   style="fill:#cccccc;fill-opacity:1;fill-rule:nonzero;stroke:none" /></g></g></g></g><g
           transform="translate(23.5498,23.5498)"
           id="g82"><path
             d="m 0,0 c 2.333,-2.333 3.5,-5.167 3.5,-8.5 0,-3.333 -1.167,-6.183 -3.5,-8.55 -2.333,-2.367 -5.167,-3.55 -8.5,-3.55 -3.367,0 -6.216,1.183 -8.55,3.55 -2.367,2.367 -3.55,5.217 -3.55,8.55 0,3.333 1.183,6.167 3.55,8.5 2.334,2.367 5.183,3.534 8.55,3.5 C -5.167,3.534 -2.333,2.367 0,0"
             id="path84"
             style="fill:#cccccc;fill-opacity:1;fill-rule:nonzero;stroke:none" /></g></g></g><g
       transform="scale(0.78666667,0.78666667)"
       id="g86"><g
         clip-path="url(#clipPath90)"
         id="g88"><g
           id="g94"><g
             id="g96"><path
               d="M 6.85,23.5 C 4.617,21.299 3.5,18.617 3.5,15.45 l 0,0 c 0,-3.134 1.117,-5.817 3.35,-8.049 l 0,0 C 9.049,5.2 11.733,4.1 14.9,4.1 l 0,0 c 3.133,0 5.8,1.1 8,3.301 l 0,0 c 2.233,2.232 3.35,4.915 3.35,8.049 l 0,0 c 0,3.167 -1.117,5.849 -3.35,8.05 l 0,0 c -2.2,2.234 -4.867,3.35 -8,3.35 l 0,0 c -3.167,0 -5.851,-1.116 -8.05,-3.35"
               id="path108"
               style="fill:url(#linearGradient98);stroke:none" /></g></g></g></g><g
       transform="scale(0.78666667,0.78666667)"
       id="g110"><g
         clip-path="url(#clipPath114)"
         id="g112"><g
           transform="translate(15.0498,8.8496)"
           id="g118"><path
             d="m 0,0 c -0.333,0 -0.633,0.117 -0.9,0.351 -0.267,0.2 -0.4,0.5 -0.4,0.899 0,0.367 0.133,0.667 0.4,0.9 C -0.667,2.384 -0.367,2.5 0,2.5 0.333,2.5 0.616,2.384 0.851,2.15 1.116,1.917 1.25,1.617 1.25,1.25 1.25,0.851 1.116,0.551 0.851,0.351 0.616,0.117 0.333,0 0,0 M 4.2,10.05 4.2,8.75 4,8.15 3.3,7.2 1.851,5.9 1.4,5.45 1.15,5.051 1.05,4.75 0.9,4.15 C 0.8,3.584 0.467,3.301 -0.1,3.301 l -0.75,0.25 C -1.017,3.75 -1.1,4.033 -1.1,4.4 l 0.2,1.25 0.55,0.9 1,0.95 L 1.4,8.25 1.8,8.8 1.95,9.4 C 1.95,9.867 1.8,10.25 1.5,10.55 1.134,10.851 0.684,11 0.15,11 -0.45,11 -0.9,10.851 -1.2,10.55 -1.5,10.217 -1.75,9.75 -1.95,9.15 -2.15,8.517 -2.517,8.2 -3.05,8.2 c -0.3,0 -0.567,0.117 -0.8,0.35 -0.2,0.234 -0.3,0.467 -0.3,0.7 0,0.534 0.167,1.083 0.5,1.65 0.367,0.534 0.867,0.984 1.5,1.35 0.667,0.367 1.434,0.55 2.3,0.55 0.833,0 1.567,-0.15 2.201,-0.449 C 2.95,12.05 3.417,11.634 3.75,11.101 L 4.2,10.05"
             id="path120"
             style="fill:#95c33b;fill-opacity:1;fill-rule:nonzero;stroke:none" /></g><g
           id="g122"><g
             id="g124" /><g
             id="g130"><g
               clip-path="url(#clipPath126)"
               id="g132"
               style="opacity:0.10195899"><g
                 transform="translate(11.7998,7.4502)"
                 id="g134"><path
                   d="M 0,0 C -0.9,0.366 -1.35,0.783 -1.35,1.25 -1.35,1.75 -0.9,2.167 0,2.5 0.8,2.833 1.8,3 3,3 4.167,3 5.167,2.833 6,2.5 6.9,2.167 7.351,1.75 7.351,1.25 7.351,0.783 6.9,0.366 6,0 L 3,-0.4 0,0"
                   id="path136"
                   style="fill:#ffffff;fill-opacity:1;fill-rule:nonzero;stroke:none" /></g></g></g></g><g
           id="g138"><g
             id="g140" /><g
             id="g146"><g
               clip-path="url(#clipPath142)"
               id="g148"
               style="opacity:0.19999701"><g
                 transform="translate(4.1001,13.6504)"
                 id="g150"><path
                   d="M 0,0 C -0.033,4.433 0.95,7.533 2.95,9.3 L 3,9.399 C 4.4,11.1 6.267,12.2 8.6,12.7 10.9,13.2 13.683,12.566 16.95,10.8 20.183,9.066 21.767,5.6 21.7,0.399 14.167,3.566 6.933,3.433 0,0"
                   id="path152"
                   style="fill:#ffffff;fill-opacity:1;fill-rule:nonzero;stroke:none" /></g></g></g></g><g
           transform="translate(14.25,11.4004)"
           id="g154"><path
             d="m 0,0 c 0.333,0 0.617,-0.101 0.85,-0.301 0.267,-0.265 0.4,-0.566 0.4,-0.899 0,-0.366 -0.133,-0.684 -0.4,-0.95 L 0,-2.45 c -0.367,0 -0.683,0.099 -0.95,0.3 -0.233,0.233 -0.35,0.549 -0.35,0.95 0,0.333 0.117,0.634 0.35,0.899 C -0.683,-0.101 -0.367,0 0,0 M -1.2,8.1 C -1.5,7.766 -1.75,7.3 -1.95,6.7 -2.15,6.066 -2.517,5.75 -3.05,5.75 c -0.333,0 -0.6,0.116 -0.8,0.35 -0.233,0.2 -0.35,0.433 -0.35,0.7 0,0.533 0.183,1.066 0.55,1.599 0.333,0.567 0.817,1.018 1.45,1.351 0.7,0.366 1.483,0.55 2.35,0.55 L 2.3,9.899 C 2.934,9.566 3.416,9.149 3.75,8.649 4.084,8.149 4.25,7.583 4.25,6.95 L 3.95,5.7 3.3,4.75 1.85,3.45 1.4,3 1.15,2.6 1,2.3 0.85,1.699 C 0.75,1.133 0.433,0.85 -0.1,0.85 L -0.8,1.1 c -0.233,0.2 -0.35,0.483 -0.35,0.849 l 0.2,1.251 0.6,0.9 1,0.95 0.75,0.7 0.4,0.55 0.15,0.65 C 1.95,7.383 1.783,7.766 1.45,8.1 1.117,8.433 0.683,8.6 0.15,8.6 -0.45,8.6 -0.9,8.433 -1.2,8.1"
             id="path156"
             style="fill:#ffffff;fill-opacity:1;fill-rule:nonzero;stroke:none" /></g></g></g><g
       transform="scale(0.78666667,0.78666667)"
       id="g158"><g
         clip-path="url(#clipPath162)"
         id="g160"><g
           id="g166"><g
             id="g168"><path
               d="m 14.85,27.25 c -3.3,0.033 -6.1,-1.117 -8.4,-3.45 l 0,0 C 4.15,21.5 3,18.7 3,15.4 l 0,0 C 3,12.133 4.15,9.349 6.45,7.05 l 0,0 c 2.3,-2.3 5.1,-3.45 8.4,-3.45 l 0,0 c 3.267,0 6.051,1.15 8.35,3.45 l 0,0 c 2.3,2.299 3.466,5.083 3.5,8.35 l 0,0 c -0.034,3.3 -1.2,6.1 -3.5,8.4 l 0,0 c -2.267,2.301 -5.005,3.451 -8.212,3.451 l 0,0 c -0.046,0 -0.092,0 -0.138,-0.001 M 7,7.55 C 4.834,9.716 3.75,12.334 3.75,15.4 l 0,0 c 0,3.1 1.084,5.733 3.25,7.9 l 0,0 c 2.167,2.166 4.8,3.25 7.9,3.25 l 0,0 c 3.067,0 5.684,-1.084 7.85,-3.25 l 0,0 C 24.916,21.133 26,18.5 26,15.4 l 0,0 C 26,12.334 24.916,9.716 22.75,7.55 l 0,0 C 20.584,5.383 17.967,4.3 14.9,4.3 l 0,0 C 11.8,4.3 9.167,5.383 7,7.55"
               id="path176"
               style="fill:url(#linearGradient170);stroke:none" /></g></g></g></g></g></svg>