<?xml version="1.0" encoding="UTF-8"?><svg class="qa" xmlns="http://www.w3.org/2000/svg" viewBox="0 0 512 512"><g fill="#fff" stroke="#111342" stroke-width="13.707" stroke-linejoin="round" stroke-miterlimit="10"><path d="M301.669 148.949h158.334c23.862 0 43.191 19.329 43.191 43.191v172.503c0 23.862-19.329 43.191-43.191 43.191h-22.131l2.494 60.288c.364 8.406-9.522 13.167-15.878 7.654l-78.273-67.942H253.5c-23.839 0-43.168-19.329-43.168-43.191v-71.974" stroke-linecap="round"/><path d="M258.5 292.669h-92.704l-78.284 67.942c-6.356 5.513-16.231.763-15.878-7.643l2.494-60.299H51.986c-23.851 0-43.18-19.329-43.18-43.18V76.986c0-23.851 19.329-43.18 43.18-43.18H258.5c23.851 0 43.18 19.329 43.18 43.18v172.503c0 23.851-19.329 43.18-43.18 43.18z"/></g><path d="M238.386 284.973l-75.476.321-73.474 67.621c-6.356 5.513-10.459 5.894-10.106-2.512l2.795-59.875-3.507-5.234-32.096-.308c-14.414-.138-29.779-12.315-30.032-34.522 1.301-46.32-2.849-97.801.695-139.416-6.351-20.634 24.803-40.511 30.991-39.183l171.29.975c23.85.136 43.18 19.329 43.18 43.18v133.469c.011 23.851-.41 35.382-24.26 35.484z" fill="#1ad9b2"/><g stroke="#111342" stroke-linecap="round" stroke-linejoin="round" stroke-miterlimit="10" fill="none"><path d="M132.447 242.201v15.912m-32.371-121.612c0-18.293 16.914-33.111 37.781-33.111s37.781 14.83 37.781 33.111c0 0 .831 15.08-18.794 28.532-13.087 10.183-23.259 26.174-23.259 44.342" stroke-width="18"/><path d="M369.144 220.399h81.553m-107.568 67.657h107.568m-179.394 62.748H448.1" stroke-width="15"/></g></svg>
