<?xml version="1.0" encoding="UTF-8" standalone="no"?>
<!-- Created with Inkscape (http://www.inkscape.org/) -->

<svg
   xmlns:dc="http://purl.org/dc/elements/1.1/"
   xmlns:cc="http://creativecommons.org/ns#"
   xmlns:rdf="http://www.w3.org/1999/02/22-rdf-syntax-ns#"
   xmlns:svg="http://www.w3.org/2000/svg"
   xmlns="http://www.w3.org/2000/svg"
   version="1.1"
   width="16"
   height="16"
   id="svg3087"
   xml:space="preserve"><metadata
     id="metadata3093"><rdf:RDF><cc:Work
         rdf:about=""><dc:format>image/svg+xml</dc:format><dc:type
           rdf:resource="http://purl.org/dc/dcmitype/StillImage" /><dc:title></dc:title></cc:Work></rdf:RDF></metadata><defs
     id="defs3091"><clipPath
       id="clipPath3101"><path
         d="M 2.558,22.704 C 2.558,11.693 11.488,2.76 22.505,2.76 l 0,0 c 11.012,0 19.948,8.933 19.948,19.944 l 0,0 c 0,11.02 -8.936,19.952 -19.948,19.952 l 0,0 C 11.488,42.656 2.558,33.724 2.558,22.704"
         id="path3103" /></clipPath><radialGradient
       cx="0"
       cy="0"
       r="1"
       fx="-0.36568901"
       fy="0.42640099"
       id="radialGradient3109"
       gradientUnits="userSpaceOnUse"
       gradientTransform="matrix(1.0439703,-19.920179,-19.920179,-1.0439703,16.838379,22.041016)"
       spreadMethod="pad"><stop
         id="stop3111"
         style="stop-color:#ffffff;stop-opacity:1"
         offset="0" /><stop
         id="stop3113"
         style="stop-color:#abd046;stop-opacity:1"
         offset="0.48466301" /><stop
         id="stop3115"
         style="stop-color:#abd046;stop-opacity:1"
         offset="1" /></radialGradient><clipPath
       id="clipPath3123"><path
         d="m 0,44.75 44.625,0 L 44.625,0 0,0 0,44.75 z"
         id="path3125" /></clipPath></defs><g
     transform="matrix(1.25,0,0,-1.25,-2.1108964,18.349198)"
     id="g3095"><g
       transform="matrix(0.29776913,0,0,0.29776913,1.3873037,1.5176765)"
       id="g3097"><g
         clip-path="url(#clipPath3101)"
         id="g3099"><g
           id="g3105"><g
             id="g3107"><path
               d="M 2.558,22.704 C 2.558,11.693 11.488,2.76 22.505,2.76 l 0,0 c 11.012,0 19.948,8.933 19.948,19.944 l 0,0 c 0,11.02 -8.936,19.952 -19.948,19.952 l 0,0 C 11.488,42.656 2.558,33.724 2.558,22.704"
               id="path3117"
               style="fill:url(#radialGradient3109);stroke:none" /></g></g></g></g><g
       transform="matrix(0.29776913,0,0,0.29776913,1.3873037,1.5176765)"
       id="g3119"><g
         clip-path="url(#clipPath3123)"
         id="g3121"><g
           transform="translate(22.5049,42.6553)"
           id="g3127"><path
             d="m 0,0 c 11.012,0 19.948,-8.932 19.948,-19.951 0,-11.012 -8.936,-19.944 -19.948,-19.944 -11.017,0 -19.947,8.932 -19.947,19.944 C -19.947,-8.932 -11.017,0 0,0 z"
             id="path3129"
             style="fill:none;stroke:#89c761;stroke-width:1.74800003;stroke-linecap:butt;stroke-linejoin:miter;stroke-miterlimit:4;stroke-opacity:1;stroke-dasharray:none" /></g><path
           d="m 26.005,9.883 -7.547,0 0,4.586 7.547,0 0,-4.586 z m 7.193,19.556 c 0,-1.171 -0.183,-2.205 -0.551,-3.104 -0.367,-0.898 -0.887,-1.677 -1.56,-2.338 -0.672,-0.662 -1.479,-1.252 -2.419,-1.775 -0.94,-0.521 -2.003,-0.995 -3.186,-1.425 l 0,-3.965 -6.577,0 0,5.86 c 0.885,0.221 1.686,0.447 2.402,0.679 0.715,0.231 1.466,0.608 2.251,1.13 0.735,0.464 1.31,1.003 1.728,1.619 0.418,0.614 0.626,1.31 0.626,2.088 0,1.159 -0.401,1.986 -1.205,2.479 -0.804,0.493 -1.934,0.739 -3.392,0.739 -0.896,0 -1.908,-0.179 -3.035,-0.539 -1.127,-0.358 -2.158,-0.822 -3.092,-1.389 l -0.748,0 0,5.298 c 0.797,0.314 2.025,0.641 3.681,0.983 1.657,0.341 3.338,0.512 5.044,0.512 3.077,0 5.519,-0.632 7.324,-1.895 1.807,-1.265 2.709,-2.916 2.709,-4.957"
           id="path3131"
           style="fill:#ffffff;fill-opacity:1;fill-rule:nonzero;stroke:none" /></g></g></g></svg>