<svg xmlns="http://www.w3.org/2000/svg" viewBox="0 0 70 24.285" height="91.786" width="264.567" xmlns:v="https://vecta.io/nano"><style><![CDATA[.B{font-family:sans-serif}.C{stroke:#fff}.D{stroke-linejoin:round}.E{font-weight:bold}.F{fill:#fff}.G{stroke-width:.796}.H{font-size:4.787px}]]></style><g transform="matrix(.768695 0 0 .768695 -9.231581 -22.224386)"><g transform="matrix(.159631 0 0 .159631 15.786679 29.762814)"><rect ry="9.289" y="37.91" x="21.279" height="45.133" width="160.76" fill="#777" stroke-width="4.987" class="C D"/><text transform="scale(.97903888 1.0214099)" y="69.991" x="39.055" xml:space="preserve" font-size="29.986" class="B E F"><tspan y="69.991" x="39.055">Default</tspan></text></g><rect ry="1.483" y="35.814" x="44.846" height="7.205" width="25.662" fill="#337ab7" class="C D G"/><text transform="scale(.97903887 1.0214099)" y="40.312" x="48.03" xml:space="preserve" class="B E F H"><tspan y="40.312" x="48.03">Primary</tspan></text><rect ry="1.483" y="35.814" x="70.508" height="7.205" width="25.662" fill="#5cb85c" class="C D G"/><text transform="scale(.97903887 1.0214099)" y="40.312" x="74.783" xml:space="preserve" class="B E F H"><tspan y="40.312" x="74.783">Success</tspan></text><rect width="25.662" height="7.205" x="18.912" y="46.398" ry="1.483" fill="#5bc0de" class="C D G"/><text xml:space="preserve" x="26.946" y="50.673" transform="scale(.97903887 1.0214099)" class="B E F H"><tspan x="26.946" y="50.673">Info</tspan></text><rect ry="1.483" y="46.398" x="44.574" height="7.205" width="25.662" fill="#f0ad4e" class="C D G"/><text transform="scale(.97903887 1.0214099)" y="50.673" x="47.242" xml:space="preserve" class="B E F H"><tspan y="50.673" x="47.242">Warning</tspan></text><rect width="25.662" height="7.205" x="70.237" y="46.398" ry="1.483" fill="#d9534f" class="C D G"/><text xml:space="preserve" x="75.046" y="50.673" transform="scale(.97903887 1.0214099)" class="B E F H"><tspan x="75.046" y="50.673">Danger</tspan></text></g></svg>