<svg xmlns="http://www.w3.org/2000/svg" width="400" height="240" viewBox="0 0 105.833 63.5"  xmlns:v="https://vecta.io/nano"><style><![CDATA[.B{font-family:sans-serif}.C{font-size:10.583px}.D{font-weight:400}.E{font-size:3.175px}]]></style><g stroke="#337ab7"><rect width="81.551" height="29.492" x="12.485" y="17.689" ry="3.259" fill="#fff" stroke-width=".508" stroke-linejoin="round"/><path d="M12.363 22.679l81.557.238" fill="none" stroke-width=".265"/></g><path d="M14.647 17.635l76.064.11c.857.001 2.732.986 2.921 1.822l.385 1.698c.189.836.266 1.494-.591 1.493l-80.564-.147c-.857-.002-.462-.551-.344-1.401l.307-2.192c.119-.849.965-1.384 1.822-1.383z" fill="#337ab7"/><text xml:space="preserve" x="12.788" y="24.121" fill="#000" class="B C"><tspan x="13.846" y="21.475" font-weight="normal" fill="#fff" class="E">Panel Title</tspan></text><text xml:space="preserve" x="13.428" y="30.471" fill="#000" class="B C"><tspan x="14.486" y="27.825" font-weight="normal" class="E">Panel content</tspan></text><path d="M91.966 47.002l-76.063.223c-.857.003-2.736-.974-2.929-1.81l-.392-1.696c-.193-.835-.273-1.493.584-1.495l80.846-.207c.857-.002.182.55.068 1.399l-.297 2.195c-.115.85-.959 1.388-1.816 1.391z" fill="#337ab7"/><text y="48.427" x="13.269" xml:space="preserve" fill="#000" class="B C"><tspan y="45.781" x="14.327" font-weight="normal" fill="#fff" class="E">Panel Footer</tspan></text></svg>