<svg xmlns="http://www.w3.org/2000/svg" width="400" height="240" viewBox="0 0 105.833 63.5"  xmlns:v="https://vecta.io/nano"><style><![CDATA[.B{font-size:3.881px}.C{font-family:Arial}.D{font-style:italic}.E{fill:#9c6e63}.F{font-family:sans-serif}]]></style><defs><linearGradient id="A" x1="219.097" y1="337.052" x2="216.239" y2="217.463" gradientUnits="userSpaceOnUse"><stop offset="0%" stop-color="#9c6e63"/><stop offset="100%" stop-color="#9c6e63" stop-opacity="0"/></linearGradient><radialGradient id="B" gradientUnits="userSpaceOnUse" cx="171.072" cy="209.516" r="19.583"><stop offset="0%"/><stop offset="14.8516%"/><stop offset="18.4817%" stop-color="#452f22"/><stop offset="36.5728%" stop-color="#452f22"/><stop offset="41.5839%" stop-color="#fff"/></radialGradient><radialGradient id="C" gradientUnits="userSpaceOnUse" cx="258.077" cy="210.944" r="18.324"><stop offset="0%"/><stop offset="14.6426%"/><stop offset="18.8113%" stop-color="#452f22"/><stop offset="36.6339%" stop-color="#452f22"/><stop offset="41.5839%" stop-color="#fff"/></radialGradient></defs><text xml:space="preserve" font-size="3.598" fill="#000" x="0" y="0" class="F"><tspan x="8.39" y="25.246"><tspan class="B C D">&amp;quot;It is the same with people as it is with riding a bike. </tspan></tspan><tspan x="8.39" y="30.096"><tspan class="B C D">Only when moving can one comfortably maintain </tspan></tspan><tspan x="8.39" y="34.947"><tspan class="B C D">one's balance.&amp;quot;</tspan></tspan></text><g transform="matrix(.044794 0 0 .039141 41.608692 38.007064)"><path d="M134.188 346c3.813 16.442 27.668 18.803 43.932 27.119s28.914 14.462 50.961 9.039 45.575-35.604 48.248-41.149c3.375-7 1.062-22.805 1.062-22.805s-8.469 14.422-20.396 23.099-35.419 18.077-51.322 16.631-42.286-13.739-53.129-20.608-29.482-37.444-28.856-28.576c.673 9.535 5.5 20 9.5 37.25z" class="E"/><path d="M185.002 452.884l-59.53-122.775 3.841-1.734 1.093 4.625s16.065 14.715 25.461 21.143c12.086 8.269 36.802 21.557 48.556 24.113s16.864 4.089 16.864 4.089l13.288-10.734c5.622-4.6 12.776-10.223 19.42-15.335 4.858-3.738 25.207-25.855 25.207-25.855l-.577-9.171 4.75 4.563-.187 9.062-8.505 80.184-89.681 37.825z" fill="#c5c0ba"/><path d="M289.591 292.571c.884-6.011 3.182-11.314 3.182-11.314s11.138-3.005 14.851-19.799c2.197-9.939-.736-32.571.707-39.069 3.614-16.27 7.554-26.79 7.193-50.291s-3.614-52.425-18.794-69.779-48.793-31.817-88.911-31.094c-24.976.45-62.165 4.7-79.152 26.032s-29.637 36.516-29.275 59.294-30.117 36.071-19.868 84.492c8.9 42.044 26.012 33.373 32.156 46.389s13.012 17.716 19.156 29.647 11.204 18.077 20.601 23.139 10.481 2.53 23.854 10.123 25.661 11.931 41.925 12.293 21.686-4.339 32.167-13.016 12.829-5.963 23.854-16.992c14.818-14.823 14.67-28.603 16.354-40.055z" fill="#d2ab97"/><path d="M104.84 262.872c-2.475-9.193-1.357-20.362-1.768-25.81-.707-9.369-9.583-18.195-9.072-23.562s19.585 8.893 21.448 16.844c2.171 9.266 7.079 11.709 8.662 19.093 1.061 4.95.63 23.854-.176 31.997-.884 8.927 1.579 16.739 2.816 23.191l2.46 11.9s-15.133-22.805-16.768-27.843c-1.874-5.774-5.151-16.707-7.602-25.81zm191.469 5.48c3.053-7.901 3.182-16.793 4.243-22.804 1.099-6.226 4.244-19.269 4.244-19.269s-9.194 12.904-13.614 30.052c-1.991 7.725-.176 30.937-.176 30.937s2.297-11.138 5.303-18.916z" fill="#b89380"/><path d="M219.385 447.237s4.055-8.203-15.541-21.123c-3.795-2.502-23.493-21.685-23.493-21.685s12.65-4.698 19.517-7.951c6.734-3.19 17.07-10.728 17.07-10.728l21.241 6.571c7.409 2.349 19.878 5.241 19.878 5.241l-12.288 8.855 2.711 34.696s2.295 4.424 2.487 5.957c.162 1.293-2.487-5.957-2.487-5.957l-29.095 6.124zm-49.97-50.835l-.766-17.635s-8.177-4.089-14.31-8.434c-5.048-3.576-15.843-12.779-15.843-12.779l14.565 29.902 16.354 8.946zm90.202-2.301l18.909-15.59s3.066-12.778 3.833-21.468 1.533-21.469 1.533-21.469-6.643 3.834-11.243 12.268-12.01 19.168-12.01 19.168l-1.022 27.091z" fill="#404040"/><path d="M104.813 295.386c-6.144 9.039-17.348 21.693-17.348 21.693s-.562-5.006.592-8.468c1.789-5.367-.23-12.14-.23-12.14s-4.337 6.508-7.59 13.377-5.088 9.88-5.088 9.88-2.428-9.456 2.428-18.785 7.668-14.057 7.668-14.057-6.007 8.562-10.224 12.907-9.457 4.728-9.457 4.728 4.984-5.495 7.796-11.373.256-10.862.256-10.862-13.438 11.817-20.321 15.207c-8.563 4.217-25.561 3.834-25.561 3.706s13.675-6.773 18.659-12.779 3.578-10.862 3.578-10.862-3.976 6.39-9.598 9.201-12.521-.512-18.909 5.111-4.658 6.121-4.658 6.121-2.115-13.077 1.084-19.156c3.614-6.867 6.144-10.3 10.481-14.276s7.409-5.06 7.409-5.06-2.711-5.42-1.265-10.661 1.626-10.12 1.626-10.12-6.686 4.156-7.951 8.312-3.072 6.687-3.072 6.687-3.433-4.337-1.626-9.216.904-8.494.904-8.494-9.397 8.313-10.481 12.65-5.241 13.011-5.241 13.011S1.265 254.801 0 249.922s-1.807-12.47.904-17.168 12.65-14.999 17.891-19.697 13.734-17.097 13.734-17.097-8.674-3.616-12.65-2.893-7.59 3.254-7.59 3.254.723-11.931 8.313-16.631 12.65-12.293 12.65-12.293-11.204 1.085-18.071-3.977-9.397-19.885-9.397-19.885 6.506 5.061 12.288 6.146 13.011-5.423 13.011-5.423-19.517-7.954-23.493-14.823-2.53-13.739-2.53-13.739 9.758 3.615 15.18 7.592 9.758 0 9.758 0-2.53-13.377-9.397-15.185-10.481-1.446-10.481-1.446 6.144-13.016 18.071-12.654 13.373-4.339 13.373-4.339-2.891-9.039-8.674-7.593-10.843 4.339-10.843 4.339 5.783-10.485 19.517-13.377 16.626-2.169 16.626-2.169-1.084-11.57 7.228-20.247c10.446-10.904 22.77-8.677 22.77-8.677s3.253-11.57-.723-14.823-9.397-7.954-9.397-7.954 10.481-4.7 16.626-.723 12.289 9.039 12.289 9.039-.904-14.286 5.421-19.346c7.457-5.965 13.373-6.324 13.373-6.324s-.362 9.4 6.505 12.654 15 .898 21.325-.367 20.059-.361 20.059-.361-.181-3.253-6.687-6.506-8.493-3.253-8.493-3.253 10.481-.361 22.95 4.156c13.006 4.712 25.119 15.18 25.119 15.18s-7.951-10.3-12.83-15.18-14.613-19.685-14.613-19.685 21.479 8.486 29.911 18.965 8.688 14.057 8.688 14.057 2.555-11.757 0-17.635c-3.331-7.662-3.932-25.496-3.932-24.051S233.482 0 232.035 7.954s-4.863 24.585-4.863 24.585 15.706-11.208 16.067-19.524 2.53-12.654 2.53-12.654 4.337 10.123 3.253 17.354c-1.007 6.717-3.976 14.462-3.976 14.462s8.674-5.423 15.541-7.231 13.012-.723 13.012-.723-7.951 6.869-9.397 9.4-3.615 6.869-3.615 6.869 12.289-5.423 23.493-9.762 24.577 0 24.577 0-11.566.723-16.626 5.062-13.734 9.4-13.734 9.4 12.812-1.741 23.854-5.423c10.843-3.615 15.18-3.615 15.18-3.615s-5.874 5.504-11.114 9.466c-5.044 3.813-9.487 8.612-9.487 8.612s15.541-1.085 26.384 2.531 22.36 4.831 22.36 4.831-11.498 6.645-17.12 6.645-12.266-1.789-12.266-1.789 21.34 8.463 29.642 13.801c10.732 6.901 19.931 19.936 19.931 19.936s-5.11-1.534-12.265-1.789-13.032 2.555-13.032 2.555 17.886 1.279 26.83 4.09c8.345 2.623 16.354 9.712 16.354 9.712s-5.621 3.322-11.754 5.111-13.543 6.901-13.543 6.901 16.354-3.067 24.275 9.201 17.376 31.18 17.376 31.18-11.244-13.29-17.121-15.846-11.243-3.578-11.243-3.578 12.265 7.411 21.464 20.446c12.227 17.325 19.421 41.66 19.421 41.66s-5.622-7.668-10.477-11.757-10.988-10.734-10.988-10.734 7.922 11.245 8.944 16.612-.511 10.735-.511 10.735-9.71-4.856-13.543-10.99-6.644-11.246-6.644-11.246 2.044 11.246 3.577 16.102 4.344 10.478 4.344 10.478-13.543-10.223-13.543-16.357-2.555-10.989-2.555-10.989.256 20.957 3.322 31.436l5.901 19.38s-7.5-7.25-10.75-18c-1.453-4.806-2.817-13.393-2.817-13.393s-6.388.256-8.688-1.789-3.833-6.389-3.833-6.389 4.357 14.924 6.899 20.702c2.811 6.389 8.178 19.679 11.755 24.024s7.666 14.568 7.666 14.568-7.666-1.277-8.944-4.6-3.322-5.112-3.322-5.112.256 6.645 1.789 9.712 3.833 6.645 3.833 6.645-10.732-6.644-15.843-13.545-7.41-6.646-7.41-6.646 4.855 15.335 7.41 19.169 1.789 8.434 1.789 8.434-5.622 1.278-10.988-4.856-14.31-13.801-14.31-13.801 3.323 11.245 3.067 18.146-3.578 13.545-3.578 13.545-3.322-5.878-5.877-7.923l-6.388-5.111s2.811 5.367 4.6 11.501 1.022 12.012 1.022 12.012-7.155 3.578-14.31 3.834c-5.088.182-13.032-1.278-13.032-1.278s9.455-1.023 13.032-6.39 1.788-13.801-1.278-15.079-20.186 3.578-20.186 3.578l.766-5.878s10.477-6.645 10.988-10.734-3.067-13.802-.767-19.68 7.58-17.916 2.811-19.424c-2.246-.71.256-14.567-1.022-25.046s-4.855-36.293-7.921-45.238-16.354-21.213-20.187-31.436-2.524-27.909-13.543-31.436c-12.776-4.089-28.619 2.811-41.651 2.556s-34.752-7.412-50.85-3.067-25.553 14.824-33.474 25.558-16.099 24.535-14.821 36.036-3.798 33.572-9.637 43.581c-5.25 9-17 19.25-17 19.25S87.518 207.239 85 206.625c-10.477-2.556-6.553 11.383-5.531 20.839s3.066 14.568 4.855 18.402 5.622 7.411 4.6 14.312 6.047 13.062 13.032 17.124c2.948 1.714 6.169-3.052 6.169-3.052l4.625 14.25s-1.793-2.153-7.937 6.886z" fill="#7f8283"/><path d="M183.965 303.702c8.313-1.446 16.626 1.446 31.806 2.892s31.082-1.085 35.419 0 7.59 3.254-1.807 5.062-26.745 3.615-37.949 2.169l-27.83-3.977c-6.144-1.085-7.952-4.7.361-6.146z" fill="#45222a"/><path d="M214.325 323.587c9.758 0 20.601-1.808 28.191-5.785s19.156-7.954 19.156-7.954l-32.89 2.169c-9.397.723-19.463 1.995-28.338-1.414-6.673-2.563-13.876-1.15-19.886-3.978-4.59-2.16-7.074 1.777-7.074 1.777l14.818 7.954c6.506 3.615 16.265 7.231 26.023 7.231z" fill="#a65463"/><path d="M257.006 315.552l-7.371-7.601-4.596 4.773-4.289-4.224-3.717 4.047-3.712-5.215-3.977 5.569-3.978-6.364-5.391 3.624-3.623-3.624-5.391 3.182-3.005-3.359-4.861 4.419-2.345-5.029-5.5 2.25-3.625-3.25-5 2.125-3.642-2.46-3.295 3.585-2.311-1.994-1.68 4.42-3.197-.926-.375 6.25s-2.619-3.563-3.125-5c-3.875-11-.75-22.25 18.375-24.375 8.332-.926 17.119 4.428 27.962 4.428s17.553-3.269 26.696-2.121c10.389 1.305 16.104 5.621 21.569 12.198 2.093 2.519 2.873 4.539 3.656 8.22.617 2.9-.795 5.303-.795 5.303l-4.508-4.596-4.949 5.745zm-92.863-136.051c9.036-1.988 22.047-2.713 23.854 1.987s1.264 8.924-7.41 8.924-18.916 3.044-24.337 5.213-15.947 16.131-16.375 10.75c-.875-11 14.691-24.767 24.268-26.874zm100.114 1.626c9.397 1.085 22.868 12.248 22.868 23.248 0 7.018-7.896-8.096-23.125-11.375-9.084-1.956-15.827 4.936-18.718-2.657s9.578-10.301 18.975-9.216z" fill="#7f7f7f"/><path d="M219.243 286.247c8.688-.511 12.069-4.339 15.141-6.869s8.494 1.988 10.301-2.53-3.253-16.445-6.506-24.758-8.702-18.054-9.036-24.576c-.361-7.048-5.782-15.18-9.758-14.457s-11.214 7.122-10.481 14.457c.723 7.228-2.169 20.601-7.229 26.926s-11.747 12.107-10.301 18.974 10.301 3.072 13.915 5.421 5.266 7.923 13.954 7.412z" fill="url(#A)"/><path d="M163.274 207.455c4.855-2.811 14.318-4.782 19.173-.948s9.966 8.179 9.966 8.179-8.689 1.278-12.266 2.3-12.214 2.235-15.945.894c-4.335-1.559-8.585-3.45-8.585-3.45s2.802-4.164 7.657-6.975z" fill="url(#B)"/><path d="M251.552 207.636c5.421-1.807 13.734-1.085 18.613 3.433s5.421 6.144 5.421 6.144-3.072 1.807-7.951 3.072c-5.352 1.388-14.457.362-18.433-2.71-4.065-3.141-7.77-4.337-7.77-4.337s4.699-3.795 10.12-5.602z" fill="url(#C)"/><path d="M148.726 137.34c7.951-3.614 15.644-6.568 20.24-8.313 2.349-.892 10.301-6.506 10.301-6.506s-7.183 7.06-13.192 9.217c-5.435 1.951-16.06 6.83-19.337 8.674-4.518 2.543-14.638 9.577-16.264 12.649s-2.53 8.132-2.53 8.132-.361-5.421 1.085-8.312 11.746-11.927 19.697-15.541zm40.209-2.259c6.144-.271 21.505.904 27.197.994l28.101.271s-19.246 1.716-26.023 1.897-21.776-1.264-29.366-.903-21.775 2.439-21.775 2.439 15.722-4.427 21.866-4.698zm-46.805 21.775c4.518-3.072 16.806-6.867 22.77-7.951s23.944-2.169 23.944-2.169-10.155 1.982-17.619 2.892c-7.409.904-12.412 2.245-18.342 4.156-13.734 4.427-17.168 10.933-17.168 10.933s1.897-4.789 6.415-7.861zm64.4-9.132c9.585 0 19.426 1.533 26.711 1.661s12.653.895 12.653.895-10.388.511-18.056.128-12.904-1.47-19.55-1.598-14.027.064-14.027.064 2.684-1.15 12.269-1.15zm-40.667 18.082c8.432-.511 18.373.32 18.373.32s-14.602.639-21.376 1.661-11.372 3.195-14.736 6.773c-2.282 2.428-5.879 8.306-5.879 8.306s2.428-6.389 4.601-9.584 10.585-6.965 19.017-7.476zm84.604-4.432c9.758-.181 16.626 2.349 21.505 4.518s7.491 4.515 7.491 4.515-8.166-3.539-13.417-5.048c-5.559-1.597-10.351-2.236-15.207-2.172s-18.656.702-18.656.702 8.526-2.334 18.284-2.515zm20.602-9.939c7.883 1.337 10.842 7.409 10.842 7.409s-3.508-4.395-10.051-5.817c-5.878-1.278-14.525-2.134-14.525-2.134s8.491-.347 13.734.542zm-.209-12.401c6.408 1.173 11.142 2.914 14.31 5.879 1.866 1.746 3.832 6.389 3.832 6.389s-3.206-4.024-6.82-6.373-7.015-2.883-11.565-3.975c-4.518-1.084-9.939-2.078-9.939-2.078s3.885-.995 10.182.158zm-134.874 58.843c1.265-5.512 3.32-11.433 3.32-11.433s-3.23 3.573-4.729 10.096c-1.564 6.805-1.661 14.823-1.661 14.823l3.07-13.486zm15.461 10.419c2.173-2.811 12.098-10.147 18.148-12.523 6.498-2.552 15.848-.256 15.848-.256s-6.518.128-11.119 1.15-9.783 3.292-13.58 6.18c-6.415 4.879-14.096 12.83-14.096 12.83s2.626-4.57 4.799-7.381zm35.146-6.645c3.502 2.415 9.33 9.073 9.33 9.073l-9.103-6.837c-4.054-3.067-10.579-5.175-10.579-5.175s6.646.383 10.352 2.939zm-37.917 19.232c-3.132 1.859-6.801 3.078-11.5 3.259s-6.453-.351-8.961-1.146c-2.029-.643-4.608-3.343-4.608-3.343l3.976 1.626c1.988.813 5.187 1.638 8.251 1.393 3.195-.256 7.987-.83 9.911-1.844 2.838-1.496 6.957-6.145 6.957-6.145s-1.287 4.575-4.026 6.2zm51.306-3.194c-1.181 2.98-4.698 6.581-4.698 6.581s4.379-2.173 5.879-5.112c2.361-4.624-.256-10.478-.256-10.478s.417 5.623-.925 9.009zm-63.488 27.922c2.652-3.768 7.506-7.888 11.961-11.05 2.801-1.988 6.774-4.655 9.939-4.517 4.156.181 7.942.591 12.289-.452 4.518-1.084 16.805-5.067 16.805-5.067s-10.677 5.7-15.72 7.029c-5.241 1.381-10.495.934-12.47.749-4.04-.379-8.446 3.019-13.373 6.867-8.179 6.389-14.16 15.641-14.16 15.641s2.301-5.75 4.729-9.2zm93.734-32.373c1.265-3.253 3.975-5.241 3.975-5.241s-2.211 3.302-2.467 5.347 0 6.07 1.789 8.562 6.389 9.776 6.389 9.776-7.347-7.924-8.114-9.649-2.837-5.542-1.572-8.795zm13.914-9.216c2.711-2.711 6.867-5.964 11.114-6.687s8.584-.451 11.837.904 6.596 4.789 6.596 4.789-6.054-2.982-10.301-3.795-8.661.134-12.74 2.53c-5.692 3.343-10.933 9.035-10.933 9.035s1.716-4.065 4.427-6.776zm18.795 29.094l9.577 1.897-.09 2.078s-3.249-1.301-7.997-2.554l-7.725-1.963s3.073-.07 6.235.542zm12.74-2.193c.904-2.259 1.504-5.743 2.71-5.939 1.265-.206 1.415 1.433.678 2.234-1.039 1.13-.632 3.117-1.355 3.84s-.678 5.22-.678 5.22-2.259-3.096-1.355-5.355zm13.562 7.595c-1.626-2.53-2.268-6.306-2.268-6.306s-1.084 4.518 1.265 7.59 8.313 3.795 8.313 3.795-5.684-2.549-7.31-5.079zm2.792-23.832l5.24-8.179s-.639 4.6-2.684 7.284-5.112 5.239-5.112 5.239.511-1.149 2.556-4.344z" class="E"/><path d="M270.688 208.68c-3.579-2.3-8.188-4.415-11.886-3.962-6.262.767-10.097 3.706-10.097 3.706s4.601-1.15 8.435-1.278c3.966-.132 7.796.128 10.608 2.684s7.243 6.964 7.243 6.964c.192-1.661-.725-5.814-4.303-8.114zm-113.106 1.661c1.661-1.917 3.962-4.601 7.668-5.623s7.007-1.803 10.096-1.278c5.258.895 9.987 5.271 9.987 5.271s-4.755-2.039-8.964-2.971c-3.464-.767-7.682-.287-10.078.831-3.058 1.427-5.622 3.254-7.048 4.536-1.386 1.246-3.962 4.473-3.962 4.473s.64-3.322 2.301-5.239z"/><path d="M163.003 341.723c-3.323-4.525-9.217-19.336-9.217-19.336s1.084 8.854 3.253 13.914 3.994 8.114 5.693 9.759c2.891 2.801 4.518 1.446.271-4.337zm50.344-18.392c4.345-.128 10.694-.619 10.694-.619s-4.984 2.74-9.457 2.74-11.377-2.274-11.377-2.274 5.795.281 10.14.153zm-31.922-54.718c-4.374 5.086-10.988 15.334-10.988 15.334l10.277-10.734c7.029-7.412 14.442-13.035 14.442-13.035s-7.796 1.534-13.731 8.435zm85.899 59.358c-1.406 2.364-8.119 11.564-9.379 13.215-7.071 9.265 2.298 2.651 3.834.176 1.264-2.038 3.123-5.38 4.395-7.258 2.683-3.961 5.43-12.778 5.43-12.778l-4.28 6.645zm-9.574-46.221c-2.676-3.456-5.875-6.625-5.875-6.625l4.639 7.832 5.1 6.869s-.864-4.201-3.864-8.076z" class="E"/><path d="M255.619 209.127c.581-1.387 2.045-.511 2.045-.511s-.588.282-1.055 1.086l-.798 1.501s-.754-.732-.192-2.076zm-82.97-2.524c.882.46 1.132 1.803 1.132 1.803s-.562-.468-1.343-.781c-.902-.361-1.719-.812-1.719-.812s1.175-.603 1.93-.21z" fill-opacity=".515" fill="#fff"/><path d="M87.391 89.452c16.865 10.735 31.174 42.937 31.174 42.937s-5.622-47.537-34.752-54.693c-20.249-4.975-44.973 0-44.973 0s30.825.475 48.55 11.757zm-41.49 58.783c14.33-9.42 22.394-17.716 39.034-11.931s26.022 24.586 26.022 24.586-12.272-9.466-24.576-14.462c-19.591-7.954-21.324 4.338-36.865 10.123-24.81 9.235-33.974-1.085-33.974-1.085s17.71 1.085 30.36-7.231zm11.204-48.086c16.625 3.615 26.746 21.332 26.746 21.332s-19.878-13.377-28.553-15.185-30.36-4.339-30.36-4.339 15.508-5.431 32.167-1.808zM19.517 222.353c7.951-8.316 39.757-45.917 56.382-48.448 14.689-2.236 24.577 10.485 24.577 10.485s-17.568-3.832-27.107-1.446c-14.457 3.615-39.571 31.756-44.455 36.517C14.818 233.2 7.59 246.215 7.59 246.215s3.976-15.546 11.927-23.862zm47.347 10.485c-2.891 9.762-12.595 22.964-20.421 29.553-6.867 5.783-19.698 17.087-19.698 17.087s10.481-3.354 18.613-9.317c7.843-5.752 20.782-17.348 20.782-17.348s.904 10.663-2.169 17.988c-2.796 6.668-8.313 16.992-8.313 16.992s11.204-8.316 16.987-18.439 2.53-22.054 1.446-33.985c-1.146-12.607-4.337-22.416-4.337-22.416s-.179 10.727-2.891 19.885zM102.25 32c7.91 11.3 17.75 16.75 27.25 20.25S145.25 59 145.25 59s2.25-7-7.25-14.5c-10.234-8.079-18.27-13.566-20.25-20-2-6.5 4.25-14 4.25-14s-2 13.5 9 20.75c8.35 5.503 25 14.5 26 31.75l1 18.5S148.25 71 133.75 64s-28.981-18.186-31-23c-3.25-7.75-13.5-17.5-13.5-17.5s7.75 1 13 8.5zm74.722-20.863S198.25 22 205 27.5c5.087 4.145 11.341 14.142 11.928 25.888.707 14.142-7.428 26.362-7.428 26.362s3.594-22.282 1.594-30.782c-1.384-5.881-7.579-15.605-14.144-21.39-10.431-9.193-19.978-16.441-19.978-16.441zm61.172 39.245c6.884-8.463 21.745-19.976 21.745-19.976s-12.216 4.61-17.149 8.839c-5.378 4.61-12.296 15.184-15.477 20.839s-8.92 22.295-8.92 22.295 8.542-18.156 19.801-31.997zm-70.613-14.331s13.784 6.715 19.086 16.612 3.534 24.387 3.534 24.387-5.301-16.965-8.482-23.68-14.138-17.318-14.138-17.318zM329 79.75C316.25 75 294 73 284.25 77S270.5 88.25 270.5 88.25 285.329 82.492 293 81c9-1.75 22 0 30.75 2.5 10.269 2.934 28.25 9 28.25 9s-15.592-9.99-23-12.75zM283.25 51.5C277 55.75 273 61 273 61s4.75-1 11-5.75S297.25 46 297.25 46s-7.75 1.25-14 5.5zm80.25 61s-16.804 3.645-22.108 6.473c-2.902 1.547-12.998 8.469-16.619 12.728-3.006 3.536-11.845 16.794-11.845 16.794s15.373-13.774 26.873-22.274S363.5 112.5 363.5 112.5zm-66.66 17.61s-5.657-14.319 8.84-17.678c6.184-1.433 21.215 1.238 21.215 1.238l-17.326 1.414c-13.083 1.237-12.729 15.026-12.729 15.026zm84.508 34.472c-9.691-7.703-21.865-12.247-36.848-10.582-13.5 1.5-29.5 21.5-29.5 21.5s8.625-7.875 21.125-12.375 19.941-1.902 19.941-1.902 6.519 4.785 9.194 9.723c2.298 4.243 5.304 9.37 5.304 9.37s-.33-5.602-2.299-10.077c-1.945-4.419-5.48-7.955-5.48-7.955s10.077 2.475 17.856 8.132c4.782 3.477 16.265 13.435 16.265 13.435s-8.663-13.789-15.558-19.269zM316.5 189.875s14.75-.875 23 6.625 8.5 12.75 11.75 22l11.375 32s-13.25-19.625-16-29.375S343.25 207.25 337 201.25s-20.5-11.375-20.5-11.375zm15.381 86.512s3.534-15.905-3.181-27.568-19.086-15.905-19.086-15.905 5.302 7.07 12.724 15.552 9.543 27.921 9.543 27.921z" fill="#adadad"/><path d="M88 219.75c3.75 5 6 8.25 5.5 13.25s-.5 7.5 2 12 2.5 18.25-1.25 10.75-10.25-20.25-10.75-27 .75-14 4.5-9zm117 42.5c.375 4.25.5-9.875.5-9.875s-3 5.625-2.875 9.625 4.75 14.25 4.75 14.25-2.75-18.25-2.375-14zm33.25 6.5c.75-4.5 0-9.875 0-9.875s2.75 4.75 2.125 8.625-3.125 8.125-3.125 8.125l1-6.875zm-32.75 8c4.175 2.184 4.688 6.625 4.688 6.625s-2.188-2.312-5.563-4.437-7.375-1.813-7.375-1.813 4.188-2.5 8.25-.375zm26.848 1.855c3.712-1.945 7.424.177 7.424.177s-2.474-.53-5.214 1.149-6.363 3.447-6.363 3.447.441-2.828 4.153-4.773z" class="E"/><path d="M168.84 370.885c.564 5.632 1.945 19.092 1.945 23.335s-.531 9.899 1.06 10.606 16.442-4.419 21.746-6.717 14.32-6.895 16.442-8.486 4.244-4.242 6.542-4.242 6.541 1.237 13.613 3.535 15.436 4.531 19.094 5.48c3.747.972 6.84 2.21 8.608 1.149s1.561-12.549 1.679-17.854l.619-19.269s.955 15.424.911 19.932l-.353 14.407c-.088 2.652-1.238 4.331-3.094 5.127s-12.684-2.652-17.28-3.801-13.745-4.287-16.794-5.171c-2.931-.85-4.994-2.21-6.673-2.033s-6.74 4.331-9.745 6.099-11.312 6.541-15.643 8.486c-4.111 1.846-15.378 4.773-17.057 5.215s-4.242.442-5.479-1.945-.265-7.867-.442-10.43.177-10.607-.177-13.259-1.679-20.86-1.679-20.86 1.591 5.039 2.157 10.696z"/></g></svg>