<?xml version="1.0" encoding="UTF-8" standalone="no"?>
<svg
   xmlns:dc="http://purl.org/dc/elements/1.1/"
   xmlns:cc="http://creativecommons.org/ns#"
   xmlns:rdf="http://www.w3.org/1999/02/22-rdf-syntax-ns#"
   xmlns:svg="http://www.w3.org/2000/svg"
   xmlns="http://www.w3.org/2000/svg"
   xml:space="preserve"
   style="enable-background:new 0 0 512 512;"
   viewBox="0 0 512 512"
   y="0px"
   x="0px"
   id="Layer_1"
   version="1.1"><metadata
   id="metadata47"><rdf:RDF><cc:Work
       rdf:about=""><dc:format>image/svg+xml</dc:format><dc:type
         rdf:resource="http://purl.org/dc/dcmitype/StillImage" /><dc:title></dc:title></cc:Work></rdf:RDF></metadata><defs
   id="defs45">
	
	
</defs>
<style
   id="style10"
   type="text/css">
	.st0{opacity:0.6;fill:#87CB9D;}
	.st1{fill:none;stroke:#111342;stroke-width:16;stroke-linecap:round;stroke-linejoin:round;stroke-miterlimit:10;}
	.st2{fill:none;stroke:#87CB9D;stroke-width:16;stroke-linecap:round;stroke-linejoin:round;stroke-miterlimit:10;}
	.st3{fill:#87CB9D;}
</style>
<g
   transform="translate(-20.219592)"
   id="g164"><g
     id="g143"><g
       transform="matrix(0.99974264,0,0,1.0286961,-0.211538,-6.8283773)"
       id="XMLID_54_">
		<polygon
   id="XMLID_66_"
   class="st1"
   points="159.41,15.61 403.88,15.61 471.68,15.61 471.68,495.61 359.39,495.61 81.32,495.61 81.32,15.61 " />
		<polyline
   id="XMLID_63_"
   class="st1"
   points="139.55,258.01 161.76,280.35 196.61,246.51   " />
		<polyline
   id="XMLID_42_"
   class="st1"
   points="139.55,135.34 161.76,157.68 196.61,123.84   " />
		<g
   id="g18">
			<line
   id="XMLID_62_"
   class="st2"
   x1="266.89999"
   y1="152.23"
   x2="436.82999"
   y2="152.23" />
		</g>
		<g
   id="g21">
			<line
   id="XMLID_61_"
   class="st2"
   x1="266.89999"
   y1="268.72"
   x2="436.82999"
   y2="268.72" />
		</g>
		<g
   id="g24">
			<line
   id="XMLID_60_"
   class="st2"
   x1="266.89999"
   y1="389.17999"
   x2="436.82999"
   y2="389.17999" />
		</g>
		<g
   id="g27">
			<line
   id="XMLID_59_"
   class="st1"
   x1="251"
   y1="140.3"
   x2="420.94"
   y2="140.3" />
		</g>
		<g
   id="g30">
			<line
   id="XMLID_58_"
   class="st1"
   x1="251"
   y1="256.79001"
   x2="420.94"
   y2="256.79001" />
		</g>
		<g
   id="g33">
			<line
   id="XMLID_57_"
   class="st1"
   x1="251"
   y1="377.26001"
   x2="420.94"
   y2="377.26001" />
		</g>
		<path
   class="st3"
   d="m 200.52,367.65 v 34.15 c 0,7.51 -6.15,13.66 -13.66,13.66 h -43.98 v -34.15 c 0,-7.51 6.15,-13.66 13.66,-13.66 z"
   id="path35" />
		<path
   class="st1"
   d="m 200.52,367.65 v 34.15 c 0,7.51 -6.15,13.66 -13.66,13.66 h -43.98 c -7.51,0 -13.66,-6.15 -13.66,-13.66 v -34.15 c 0,-7.51 6.15,-13.66 13.66,-13.66 h 43.98 c 7.52,0 13.66,6.15 13.66,13.66 z"
   id="path37" />
	</g></g></g>
</svg>
