<?xml version="1.0" encoding="UTF-8" standalone="no"?>
<!-- Created with Inkscape (http://www.inkscape.org/) -->

<svg
   xmlns:dc="http://purl.org/dc/elements/1.1/"
   xmlns:cc="http://creativecommons.org/ns#"
   xmlns:rdf="http://www.w3.org/1999/02/22-rdf-syntax-ns#"
   xmlns:svg="http://www.w3.org/2000/svg"
   xmlns="http://www.w3.org/2000/svg"
   version="1.1"
   width="30"
   height="30"
   id="svg2"
   xml:space="preserve"><metadata
     id="metadata8"><rdf:RDF><cc:Work
         rdf:about=""><dc:format>image/svg+xml</dc:format><dc:type
           rdf:resource="http://purl.org/dc/dcmitype/StillImage" /><dc:title></dc:title></cc:Work></rdf:RDF></metadata><defs
     id="defs6"><clipPath
       id="clipPath20"><path
         d="m 0,29.5 28.768,0 0,-29.5 L 0,0 0,29.5 z"
         id="path22" /></clipPath><clipPath
       id="clipPath28"><path
         d="m 4.1499,27.1499 22.6499,0 0,-25.9497 -22.6499,0 0,25.9497 z"
         id="path30" /></clipPath><clipPath
       id="clipPath44"><path
         d="m 4.25,27 22.4004,0 0,-25.65039 -22.4004,0 L 4.25,27 z"
         id="path46" /></clipPath><clipPath
       id="clipPath60"><path
         d="m 4.3833,26.8999 22.1665,0 0,-25.4497 -22.1665,0 0,25.4497 z"
         id="path62" /></clipPath><clipPath
       id="clipPath76"><path
         d="M 21.8,27.15 25.55,5.3 7.7,2.25 3.95,24.1 21.8,27.15 z"
         id="path78" /></clipPath><linearGradient
       x1="0"
       y1="0"
       x2="1"
       y2="0"
       id="linearGradient84"
       gradientUnits="userSpaceOnUse"
       gradientTransform="matrix(4.6499996,-26.949999,22.524998,3.8749998,12.424805,28.175293)"
       spreadMethod="pad"><stop
         id="stop86"
         style="stop-color:#ffffff;stop-opacity:1"
         offset="0" /><stop
         id="stop88"
         style="stop-color:#e1e1e1;stop-opacity:1"
         offset="1" /></linearGradient><clipPath
       id="clipPath96"><path
         d="m 0,29.5 28.768,0 0,-29.5 L 0,0 0,29.5 z"
         id="path98" /></clipPath><clipPath
       id="clipPath124"><path
         d="m 9.3999,24.1499 6.2002,0 0,-4.75 -6.2002,0 0,4.75 z"
         id="path126" /></clipPath><clipPath
       id="clipPath148"><path
         d="m 12.0498,21.3999 11.3501,0 0,-11.1499 -11.3501,0 0,11.1499 z"
         id="path150" /></clipPath></defs><g
     transform="matrix(1.25,0,0,-1.25,0,30)"
     id="g10"><g
       transform="matrix(0.88889224,0,0,0.88889224,2.4278941,20.144875)"
       id="g12"><path
         d="m 0,0 17.85,3.05 0.1,0 0.1,-0.05 3.75,-21.9 -0.05,-0.05 -0.05,-0.1 -17.85,-3.051 -0.15,0 0,0.051 -3.75,21.9 L -0.1,-0.1 0,0 z"
         id="path14"
         style="fill:#cccccc;fill-opacity:1;fill-rule:nonzero;stroke:none" /></g><g
       transform="matrix(0.88889224,0,0,0.88889224,-1.6610991,-0.92204847)"
       id="g16"><g
         clip-path="url(#clipPath20)"
         id="g18"><g
           id="g24"><g
             id="g26" /><g
             id="g32"><g
               clip-path="url(#clipPath28)"
               id="g34"
               style="opacity:0.24705499"><g
                 transform="translate(4.5498,23.9502)"
                 id="g36"><path
                   d="m 0,0 -0.2,-0.15 -0.1,-0.3 3.75,-21.901 0.2,-0.199 0.25,-0.051 17.85,3.051 0.3,0.15 0.051,0.3 L 18.35,2.8 18.2,3 17.85,3.05 0,0 M 0,0.15 17.85,3.2 18.3,3.15 18.5,2.8 l 3.75,-21.9 -0.1,-0.35 -0.35,-0.25 -17.85,-3.05 -0.4,0.05 -0.2,0.349 -3.75,21.901 0.1,0.35 c 0.067,0.133 0.167,0.217 0.3,0.25"
                   id="path38"
                   style="fill:#cccccc;fill-opacity:1;fill-rule:nonzero;stroke:none" /></g></g></g></g><g
           id="g40"><g
             id="g42" /><g
             id="g48"><g
               clip-path="url(#clipPath44)"
               id="g50"
               style="opacity:0.49803204"><g
                 transform="translate(4.6001,23.8501)"
                 id="g52"><path
                   d="M 0,0 -0.15,-0.15 C -0.217,-0.184 -0.233,-0.233 -0.2,-0.3 l 3.75,-21.9 0.15,-0.15 0.15,-0.05 17.85,3.05 0.2,0.15 0.05,0.15 L 18.2,2.85 18.05,3 17.85,3.05 0,0 M -0.05,0.1 17.8,3.15 18.15,3.1 18.3,2.9 22.05,-19 22,-19.3 21.7,-19.45 3.85,-22.5 l -0.25,0.05 -0.2,0.2 -3.75,21.9 0.1,0.3 0.2,0.15"
                   id="path54"
                   style="fill:#cccccc;fill-opacity:1;fill-rule:nonzero;stroke:none" /></g></g></g></g><g
           id="g56"><g
             id="g58" /><g
             id="g64"><g
               clip-path="url(#clipPath60)"
               id="g66"
               style="opacity:0.74902302"><g
                 transform="translate(4.6001,23.7002)"
                 id="g68"><path
                   d="m 0,0 -0.1,-0.1 0.05,-0.05 3.75,-21.9 0,-0.051 0.15,0 17.85,3.051 0.05,0.1 0.05,0.05 -3.75,21.9 -0.1,0.05 -0.1,0 L 0,0 M 0,0.15 17.85,3.2 18.05,3.15 18.2,3 21.95,-18.9 21.9,-19.05 21.7,-19.2 3.85,-22.25 3.7,-22.2 3.55,-22.05 -0.2,-0.15 C -0.233,-0.083 -0.217,-0.034 -0.15,0 L 0,0.15"
                   id="path70"
                   style="fill:#cccccc;fill-opacity:1;fill-rule:nonzero;stroke:none" /></g></g></g></g></g></g><g
       transform="matrix(0.88889224,0,0,0.88889224,-1.6610991,-0.92204847)"
       id="g72"><g
         clip-path="url(#clipPath76)"
         id="g74"><g
           id="g80"><g
             id="g82"><path
               d="M 21.8,27.15 25.55,5.3 7.7,2.25 3.95,24.1 21.8,27.15 z"
               id="path90"
               style="fill:url(#linearGradient84);stroke:none" /></g></g></g></g><g
       transform="matrix(0.88889224,0,0,0.88889224,-1.6610991,-0.92204847)"
       id="g92"><g
         clip-path="url(#clipPath96)"
         id="g94"><g
           transform="translate(10.8999,21.5)"
           id="g100"><path
             d="M 0,0 0.5,-0.25 2.05,-1.5 3.4,0.95 3.8,1.45 3.9,1.55 C 4.067,1.717 4.25,1.833 4.45,1.9 L 5.3,1.85 5.7,1.05 5.6,0.5 5.3,-0.15 3.65,-2.7 5.9,-4.25 6,-4.3 6.4,-4.65 6.55,-5.15 6.5,-5.5 6.2,-6.15 5.4,-6.85 4.9,-6.9 l -0.6,0.3 -2,1.5 -1.65,-2.95 -0.55,-0.7 -0.55,-0.4 -0.8,0 c -0.267,0.133 -0.4,0.383 -0.4,0.75 l 0.05,0.6 0.45,0.85 1.8,3.05 -1.8,1.15 -0.45,0.45 -0.15,0.45 c -0.033,0.367 0.05,0.717 0.25,1.05 L -0.6,-0.1 0,0"
             id="path102"
             style="fill:#999999;fill-opacity:1;fill-rule:nonzero;stroke:none" /></g><g
           transform="translate(15.8999,23.8999)"
           id="g104"><path
             d="M 0,0 0.4,-0.7 0.3,-1.25 0,-1.95 -1.65,-4.45 0.6,-6 l 0.1,-0.1 0.35,-0.3 0.2,-0.55 0,-0.4 -0.3,-0.6 -0.85,-0.7 -0.55,-0.05 -0.55,0.25 -2,1.55 -1.6,-2.95 -0.6,-0.7 -0.5,-0.4 -0.85,0.05 c -0.266,0.133 -0.4,0.367 -0.4,0.7 l 0.05,0.6 0.45,0.85 1.8,3.05 -1.8,1.15 -0.45,0.45 -0.2,0.45 c 0,0.4 0.1,0.767 0.3,1.1 0.267,0.333 0.583,0.567 0.95,0.7 l 0.5,0.05 0.55,-0.3 1.55,-1.2 1.35,2.45 0.4,0.5 0.05,0.1 c 0.167,0.167 0.367,0.3 0.6,0.4 L 0,0"
             id="path106"
             style="fill:#c63131;fill-opacity:1;fill-rule:nonzero;stroke:none" /></g><g
           transform="translate(21.7998,27.1499)"
           id="g108"><path
             d="M 0,0 3.75,-21.85 -14.1,-24.9 -17.85,-3.05"
             id="path110"
             style="fill:none;stroke:#bfbfbf;stroke-width:1;stroke-linecap:round;stroke-linejoin:round;stroke-miterlimit:4;stroke-opacity:1;stroke-dasharray:none" /></g><g
           transform="translate(3.9502,24.1001)"
           id="g112"><path
             d="m 0,0 0.05,0 17.8,3.05 0.55,0.1"
             id="path114"
             style="fill:none;stroke:#cccccc;stroke-width:1;stroke-linecap:round;stroke-linejoin:round;stroke-miterlimit:4;stroke-opacity:1;stroke-dasharray:none" /></g><g
           transform="translate(3.9502,24.1001)"
           id="g116"><path
             d="M 0,0 -0.4,-0.05"
             id="path118"
             style="fill:none;stroke:#cccccc;stroke-width:1;stroke-linecap:round;stroke-linejoin:round;stroke-miterlimit:4;stroke-opacity:1;stroke-dasharray:none" /></g><g
           id="g120"><g
             id="g122" /><g
             id="g128"><g
               clip-path="url(#clipPath124)"
               id="g130"
               style="opacity:0.60000598"><g
                 transform="translate(9.6499,21.6499)"
                 id="g132"><path
                   d="M 0,0 C 0.667,-0.133 1.684,-0.8 3.05,-2 L 5.7,2.25"
                   id="path134"
                   style="fill:none;stroke:#ffffff;stroke-width:0.5;stroke-linecap:round;stroke-linejoin:round;stroke-miterlimit:4;stroke-opacity:1;stroke-dasharray:none" /></g></g></g></g><g
           transform="translate(14.9502,10.4502)"
           id="g136"><path
             d="M 0,0 5.35,-1.8 C 5.417,2.5 6.583,6.017 8.85,8.75"
             id="path138"
             style="fill:none;stroke:#999999;stroke-width:3.5;stroke-linecap:round;stroke-linejoin:round;stroke-miterlimit:4;stroke-opacity:1;stroke-dasharray:none" /></g><g
           transform="translate(14.2998,11.2002)"
           id="g140"><path
             d="M 0,0 5.4,-1.9 C 5.6,2.3 6.8,5.75 9,8.45"
             id="path142"
             style="fill:none;stroke:#a5bf37;stroke-width:3;stroke-linecap:round;stroke-linejoin:round;stroke-miterlimit:4;stroke-opacity:1;stroke-dasharray:none" /></g><g
           id="g144"><g
             id="g146" /><g
             id="g152"><g
               clip-path="url(#clipPath148)"
               id="g154"
               style="opacity:0.60000598"><g
                 transform="translate(12.2998,12.5498)"
                 id="g156"><path
                   d="M 0,0 6.5,-2.05 C 6.767,-0.216 7.2,1.4 7.8,2.8 8.367,4.2 9.383,6.133 10.85,8.6"
                   id="path158"
                   style="fill:none;stroke:#ffffff;stroke-width:0.5;stroke-linecap:round;stroke-linejoin:round;stroke-miterlimit:4;stroke-opacity:1;stroke-dasharray:none" /></g></g></g></g></g></g></g></svg>