<?xml version="1.0" encoding="UTF-8"?><svg class="sharedtaskList" xmlns="http://www.w3.org/2000/svg" viewBox="0 0 512 512"><style><![CDATA[svg.sharedtaskList .D{stroke-linejoin:round}svg.sharedtaskList .E{stroke-miterlimit:10}svg.sharedtaskList .F{stroke-width:16.229}svg.sharedtaskList .G{stroke:#111342}svg.sharedtaskList .H{stroke-linecap:round}]]></style><g class="D E F G"><path d="M451.127 503.004H338.866 60.868V9.23h78.07 244.407 67.783z" fill="#fff"/><path d="M119.083 258.585l22.204 22.981 34.841-34.811m-57.045-114.36l22.204 22.981 34.841-34.811" fill="none" class="H"/></g><path d="M246.4 149.77h169.886M246.4 269.603h169.886M246.4 393.52h169.886" fill="none" stroke="#ff72ac" class="D E F H"/><path d="M230.504 137.498H400.4M230.504 257.33H400.4M230.504 381.257H400.4" fill="none" class="G D E F H"/><path d="M180.037 371.372v35.13c0 7.726-6.148 14.052-13.656 14.052h-43.969v-35.13c0-7.726 6.148-14.052 13.656-14.052z" fill="#ff72ac"/><path d="M180.037 371.372v35.13c0 7.726-6.148 14.052-13.656 14.052h-43.969c-7.508 0-13.656-6.326-13.656-14.052v-35.13c0-7.726 6.148-14.052 13.656-14.052h43.969c7.518 0 13.656 6.326 13.656 14.052z" fill="none" class="D E F G"/></svg>