<?xml version="1.0" encoding="UTF-8" standalone="no"?>
<!-- Generator: Adobe Illustrator 16.0.0, SVG Export Plug-In . SVG Version: 6.00 Build 0)  -->

<svg
   xmlns:dc="http://purl.org/dc/elements/1.1/"
   xmlns:cc="http://creativecommons.org/ns#"
   xmlns:rdf="http://www.w3.org/1999/02/22-rdf-syntax-ns#"
   xmlns:svg="http://www.w3.org/2000/svg"
   xmlns="http://www.w3.org/2000/svg"
   xmlns:sodipodi="http://sodipodi.sourceforge.net/DTD/sodipodi-0.dtd"
   xmlns:inkscape="http://www.inkscape.org/namespaces/inkscape"
   version="1.1"
   id="svg4200"
   sodipodi:docname="wookie__smal2l.svg"
   inkscape:version="0.91 r13725"
   
   
   width="30"
   height="30"
   viewBox="11.833 0 30 29.999998"
   enable-background="new 11.833 0 94.5 66.286"
   xml:space="preserve"><metadata
     id="metadata53"><rdf:RDF><cc:Work
         rdf:about=""><dc:format>image/svg+xml</dc:format><dc:type
           rdf:resource="http://purl.org/dc/dcmitype/StillImage" /><dc:title></dc:title></cc:Work></rdf:RDF></metadata><defs
     id="defs51" /><filter
     id="filter5391"
     style="color-interpolation-filters:sRGB"
     inkscape:label="Drop Shadow"><feFlood
       flood-opacity="0.498039"
       flood-color="rgb(0,0,0)"
       result="flood"
       id="feFlood5393" /><feComposite
       operator="in"
       in="flood"
       in2="SourceGraphic"
       result="composite1"
       id="feComposite5395" /><feGaussianBlur
       in="composite1"
       result="blur"
       stdDeviation="3"
       id="feGaussianBlur5397" /><feOffset
       dx="6"
       dy="6"
       result="offset"
       id="feOffset5399" /><feComposite
       operator="over"
       in="SourceGraphic"
       in2="offset"
       result="composite2"
       id="feComposite5401" /></filter><filter
     id="filter5379"
     style="color-interpolation-filters:sRGB"
     inkscape:label="Drop Shadow"><feFlood
       flood-opacity="0.498039"
       flood-color="rgb(0,0,0)"
       result="flood"
       id="feFlood5381" /><feComposite
       operator="in"
       in="flood"
       in2="SourceGraphic"
       result="composite1"
       id="feComposite5383" /><feGaussianBlur
       in="composite1"
       result="blur"
       stdDeviation="3"
       id="feGaussianBlur5385" /><feOffset
       dx="6"
       dy="6"
       result="offset"
       id="feOffset5387" /><feComposite
       operator="over"
       in="SourceGraphic"
       in2="offset"
       result="composite2"
       id="feComposite5389" /></filter><filter
     id="filter5367"
     style="color-interpolation-filters:sRGB"
     inkscape:label="Drop Shadow"><feFlood
       flood-opacity="0.498039"
       flood-color="rgb(0,0,0)"
       result="flood"
       id="feFlood5369" /><feComposite
       operator="in"
       in="flood"
       in2="SourceGraphic"
       result="composite1"
       id="feComposite5371" /><feGaussianBlur
       in="composite1"
       result="blur"
       stdDeviation="3"
       id="feGaussianBlur5373" /><feOffset
       dx="6"
       dy="6"
       result="offset"
       id="feOffset5375" /><feComposite
       operator="over"
       in="SourceGraphic"
       in2="offset"
       result="composite2"
       id="feComposite5377" /></filter><sodipodi:namedview
     showguides="false"
     showgrid="false"
     inkscape:cy="28.284848"
     inkscape:cx="12.646815"
     inkscape:zoom="9.6277333"
     borderopacity="1.0"
     pagecolor="#ffffff"
     bordercolor="#666666"
     id="base"
     inkscape:window-maximized="1"
     inkscape:window-y="-8"
     inkscape:window-x="-8"
     inkscape:window-height="1138"
     inkscape:window-width="1920"
     inkscape:current-layer="svg4200"
     inkscape:document-units="px"
     inkscape:pageshadow="2"
     inkscape:pageopacity="0.0"><sodipodi:guide
       orientation="1,0"
       position="106.25,962.00002"
       id="guide4898" /></sodipodi:namedview><ellipse
     id="path4208"
     cx="113.643"
     cy="177.017"
     rx="186.284"
     ry="176"
     style="fill:#ff00ff;fill-opacity:0" /><path
     id="rect4754"
     d="m 387.345,120.752 237.072,0 c 0.178,0 0.32,0.145 0.32,0.32 l 0,291.931 c 0,0.177 -0.143,0.319 -0.32,0.319 l -237.072,0 c -0.178,0 -0.32,-0.144 -0.32,-0.319 l 0,-291.931 c 0,-0.176 0.142,-0.32 0.32,-0.32 z"
     inkscape:connector-curvature="0"
     style="fill:#d4aa00;fill-opacity:0" /><g
     id="g10"
     enable-background="new    "
     transform="matrix(0.373423,0,0,0.36203103,6.5671293,3.5756181)"><path
       id="path12"
       d="M 68.307,52.079 59.628,19.89 50.839,52.079 c -0.685,2.441 -1.228,4.193 -1.629,5.256 -0.403,1.061 -1.105,2.014 -2.106,2.855 -1.001,0.841 -2.332,1.263 -3.992,1.263 -1.343,0 -2.448,-0.25 -3.313,-0.75 -0.867,-0.5 -1.569,-1.209 -2.105,-2.124 -0.537,-0.916 -0.977,-2.002 -1.318,-3.26 C 36.035,54.061 35.73,52.897 35.46,51.822 L 26.524,15.676 c -0.537,-2.1 -0.807,-3.699 -0.807,-4.797 0,-1.392 0.488,-2.563 1.466,-3.516 0.976,-0.952 2.185,-1.428 3.625,-1.428 1.978,0 3.308,0.635 3.991,1.904 0.683,1.269 1.283,3.112 1.795,5.529 l 7.031,31.348 7.873,-29.332 c 0.586,-2.246 1.111,-3.955 1.576,-5.127 0.463,-1.172 1.221,-2.186 2.271,-3.041 1.049,-0.854 2.478,-1.281 4.284,-1.281 1.832,0 3.254,0.445 4.267,1.336 1.013,0.893 1.715,1.861 2.106,2.912 0.39,1.05 0.916,2.783 1.574,5.199 l 7.947,29.334 7.031,-31.349 c 0.342,-1.635 0.665,-2.917 0.97,-3.845 0.306,-0.928 0.83,-1.758 1.575,-2.49 0.744,-0.732 1.824,-1.1 3.24,-1.1 1.416,0 2.619,0.471 3.607,1.41 0.989,0.94 1.483,2.119 1.483,3.535 0,1 -0.269,2.6 -0.806,4.797 l -8.937,36.145 c -0.61,2.441 -1.117,4.229 -1.521,5.365 -0.402,1.135 -1.086,2.13 -2.051,2.984 -0.965,0.854 -2.326,1.281 -4.082,1.281 -1.662,0 -2.992,-0.416 -3.992,-1.244 -1.002,-0.83 -1.697,-1.765 -2.088,-2.802 -0.388,-1.033 -0.937,-2.809 -1.645,-5.324 z"
       inkscape:connector-curvature="0" /></g><g
     id="g24"
     enable-background="new    "
     transform="matrix(0.373423,0,0,0.36203103,6.5671293,3.5756181)"><path
       id="path26"
       d="M 68.307,52.079 59.628,19.89 50.839,52.079 c -0.685,2.441 -1.228,4.193 -1.629,5.256 -0.403,1.061 -1.105,2.014 -2.106,2.855 -1.001,0.841 -2.332,1.263 -3.992,1.263 -1.343,0 -2.448,-0.25 -3.313,-0.75 -0.867,-0.5 -1.569,-1.209 -2.105,-2.124 -0.537,-0.916 -0.977,-2.002 -1.318,-3.26 C 36.035,54.061 35.73,52.897 35.46,51.822 L 26.524,15.676 c -0.537,-2.1 -0.807,-3.699 -0.807,-4.797 0,-1.392 0.488,-2.563 1.466,-3.516 0.976,-0.952 2.185,-1.428 3.625,-1.428 1.978,0 3.308,0.635 3.991,1.904 0.683,1.269 1.283,3.112 1.795,5.529 l 7.031,31.348 7.873,-29.332 c 0.586,-2.246 1.111,-3.955 1.576,-5.127 0.463,-1.172 1.221,-2.186 2.271,-3.041 1.049,-0.854 2.478,-1.281 4.284,-1.281 1.832,0 3.254,0.445 4.267,1.336 1.013,0.893 1.715,1.861 2.106,2.912 0.39,1.05 0.916,2.783 1.574,5.199 l 7.947,29.334 7.031,-31.349 c 0.342,-1.635 0.665,-2.917 0.97,-3.845 0.306,-0.928 0.83,-1.758 1.575,-2.49 0.744,-0.732 1.824,-1.1 3.24,-1.1 1.416,0 2.619,0.471 3.607,1.41 0.989,0.94 1.483,2.119 1.483,3.535 0,1 -0.269,2.6 -0.806,4.797 l -8.937,36.145 c -0.61,2.441 -1.117,4.229 -1.521,5.365 -0.402,1.135 -1.086,2.13 -2.051,2.984 -0.965,0.854 -2.326,1.281 -4.082,1.281 -1.662,0 -2.992,-0.416 -3.992,-1.244 -1.002,-0.83 -1.697,-1.765 -2.088,-2.802 -0.388,-1.033 -0.937,-2.809 -1.645,-5.324 z"
       inkscape:connector-curvature="0"
       style="fill:none;stroke:#000000" /></g><path
     id="path4775"
     inkscape:connector-curvature="0"
     d="m 21.805,-28.127003 c -2.165,-0.721 -4.3,-1.529 -6.45,-2.288 -1.175,-0.446 -2.331,-0.954 -3.578,-1.149 -0.675,-0.082 -1.355,-0.067 -2.035,-0.063 -0.791,0.03 -1.584,0.205 -2.348,0.413 -0.727,0.146 -1.42,0.39 -2.131,0.588 -0.627,0.155 -1.164,0.51 -1.765,0.735 -1.541,0.582 -4.595,2.455 1.614,-1.092 -0.661,0.418 -1.327,0.85 -1.896,1.391 -0.441,0.586 -0.439,0.855 0.149,1.269 1.006,0.496 2.11,0.703 3.211,0.862 1.754,0.229 3.496,0.531 5.237,0.839 1.604,0.244 3.206,0.492 4.821,0.639 1.238,0.104 2.48,0.117 3.721,0.125 0.973,0 1.943,0 2.915,-0.006 0.7,-0.023 1.385,-0.024 2.074,0.098 0.61,0.189 1.214,0.373 1.805,0.617 0.808,0.406 1.576,0.885 2.34,1.365 0.132,0.074 0.263,0.148 0.394,0.223 l -3.494,2.27 0,0 c -0.133,-0.078 -0.266,-0.158 -0.398,-0.236 -0.75,-0.467 -1.505,-0.938 -2.318,-1.287 -0.575,-0.213 -1.157,-0.41 -1.758,-0.539 -0.668,-0.088 -1.344,-0.047 -2.018,-0.057 -0.968,-0.002 -1.938,0.002 -2.904,-0.007 -1.24,-0.017 -2.479,-0.058 -3.713,-0.174 -1.613,-0.171 -3.218,-0.419 -4.82,-0.677 -1.748,-0.303 -3.494,-0.615 -5.256,-0.816 -1.158,-0.188 -2.352,-0.404 -3.377,-1.001 -0.684,-0.556 -0.89,-1.053 -0.461,-1.876 0.471,-0.646 1.205,-1.059 1.854,-1.509 1.859,-1.078 3.582,-2.25 5.57,-3.009 0.59,-0.266 1.166,-0.557 1.799,-0.709 0.697,-0.217 1.408,-0.373 2.115,-0.553 0.796,-0.18 1.603,-0.369 2.424,-0.345 0.692,0 1.39,0 2.072,0.135 1.225,0.268 2.355,0.811 3.518,1.27 2.154,0.798 4.306,1.619 6.529,2.21 l -3.442,2.344 0,0 z"
     style="fill:#d4aa00;fill-opacity:0" /><path
     id="path4777"
     inkscape:connector-curvature="0"
     d="m 18.822119,5.4162249 c -0.548151,-0.045093 -1.081021,0.032786 -1.617246,0.1389898 -0.733722,0.2112861 -1.477877,0.4214527 -2.173218,0.7408023 -0.801915,0.4635599 0.597337,-0.3450621 0.851476,-0.4848021 0.07564,-0.041351 -0.146819,0.092426 -0.216876,0.143468 -0.219482,0.1594853 -0.420706,0.3458075 -0.629011,0.5198292 -0.266434,0.224327 -0.551504,0.4255517 -0.810857,0.6577043 -0.166569,0.1494336 -0.317859,0.3178594 -0.488529,0.4624434 -0.494861,0.372264 -0.977799,0.585039 -1.581472,0.922275 -0.109178,0.06038 -0.231407,0.100614 -0.341336,0.160237 -0.548519,0.256001 -0.23066,0.111794 1.095181,-0.639817 0.03653,-0.02087 -0.07191,0.04248 -0.10658,0.06634 -0.111793,0.07491 -0.212029,0.165823 -0.315622,0.252277 -0.07639,0.07229 -0.256376,0.185199 -0.212031,0.322702 0.105452,0.330901 0.655096,0.745274 0.882777,0.951714 0.889484,0.7724772 1.849771,1.4551482 2.784343,2.1709852 0.320096,0.244822 1.190949,0.944262 1.508063,1.197655 1.220014,0.992705 2.428849,1.997707 3.566135,3.085062 0.735214,0.6782 1.38323,1.440243 2.027519,2.203031 0.333138,0.42555 0.636093,0.873461 0.947617,1.314289 0.2206,0.320842 0.448281,0.636466 0.674473,0.95358 l -1.338885,0.787381 0,0 c -0.215382,-0.322331 -0.433374,-0.643918 -0.657329,-0.960659 -0.312269,-0.436731 -0.618578,-0.877188 -0.934573,-1.311683 -0.611872,-0.77881 -1.252432,-1.533773 -1.974233,-2.214581 -1.118282,-1.093318 -2.311093,-2.104281 -3.517693,-3.099595 -1.424963,-1.142506 -2.899115,-2.221289 -4.33973,-3.345164 -0.262336,-0.219854 -1.094806,-0.7925992 -1.031459,-1.2270942 0.01828,-0.120733 0.09241,-0.16955 0.171039,-0.24594 0.10658,-0.08496 0.203088,-0.178492 0.308916,-0.263826 0.437478,-0.353633 1.465583,-0.859302 1.552407,-0.908489 0.04099,-0.02347 0.08496,-0.04099 0.1267,-0.06224 0.04359,-0.0205 0.08607,-0.04062 0.129673,-0.06074 1.02438,-0.4672859 -1.695872,1.064995 -0.87756,0.52579 0.195634,-0.112169 0.331647,-0.296991 0.500079,-0.443066 0.254885,-0.250038 0.549267,-0.4505171 0.826137,-0.6748442 0.269787,-0.2172483 0.547403,-0.5108856 0.839178,-0.6849072 0.510139,-0.304073 1.024753,-0.5999461 1.540481,-0.8947029 0.07974,-0.045453 0.163212,-0.084205 0.245195,-0.1255877 0.707638,-0.2925193 1.447695,-0.5112567 2.186636,-0.708755 0.5515,-0.1024772 1.101886,-0.1579979 1.664195,-0.1367507 l -1.263986,0.9166873 0,0 z"
     style="fill:#d4aa00;fill-opacity:0" /><path
     id="path4779"
     inkscape:connector-curvature="0"
     d="m 28.021,-25.573003 c -3.096,-2.674 -6.539,-4.924 -10.02,-7.061 -0.668,-0.355 -1.822,-1.046 -2.617,-1.217 -0.442,-0.094 -0.903,-0.096 -1.355,-0.084 -1.847,0.052 -3.488,0.779 -5.177,1.443 -1.683,0.773 -2.347,1.046 -3.97,1.91 -0.588,0.313 -2.342,1.275 -1.744,0.98 0.65,-0.32 1.229,-0.791 1.902,-1.059 0.422,-0.168 -0.767,0.493 -1.139,0.754 -0.29,0.203 -0.564,0.426 -0.847,0.637 -0.57,0.531 -1.647,1.23 -1.726,2.103 0.073,0.108 0.022,0.065 0.164,0.113 l -3.553,2.259 0,0 c -0.277,-0.255 -0.161,-0.107 -0.348,-0.441 -0.012,-0.099 -0.045,-0.195 -0.039,-0.295 0.058,-0.915 1.13,-1.687 1.727,-2.235 2.188,-1.678 4.467,-2.895 6.907,-4.297 1.849,-1.063 3.769,-1.991 5.728,-2.83 2.144,-0.819 4.476,-1.825 6.823,-1.197 0.718,0.191 1.989,0.988 2.574,1.326 3.454,2.265 6.873,4.586 10.235,6.984 l -3.525,2.207 0,0 z"
     style="fill:#d4aa00;fill-opacity:0" /><path
     id="path4775-3"
     inkscape:connector-curvature="0"
     d="M 18.683002,5.2694716 C 18.0406,5.0244742 17.40721,4.7504678 16.768413,4.4925391 16.419814,4.34085 16.076984,4.1689039 15.706755,4.1025013 c -0.200073,-0.027621 -0.402311,-0.022735 -0.603827,-0.021329 -0.234682,0.00964 -0.470086,0.069201 -0.696838,0.1401503 -0.215575,0.049277 -0.421417,0.1324522 -0.632308,0.1992127 -0.186015,0.053118 -0.345353,0.1736998 -0.523438,0.2505887 -0.457107,0.1974656 -1.364114,0.8332019 0.478737,-0.3711669 -0.195748,0.1418991 -0.393661,0.2879855 -0.56237,0.4725213 -0.130868,0.1985149 -0.130508,0.2907819 0.04434,0.4305791 0.298131,0.1684582 0.625819,0.2390564 0.952789,0.2928805 0.520193,0.077945 1.037504,0.1803404 1.554453,0.2851891 0.475854,0.082472 0.951345,0.166711 1.430804,0.2166894 0.367703,0.035303 0.73577,0.039487 1.104196,0.041939 0.288756,6.995e-4 0.576792,0 0.865187,-0.00213 0.207645,-0.00784 0.410965,-0.00801 0.615365,0.033554 0.180968,0.064314 0.360133,0.1265193 0.535694,0.2096959 0.239369,0.1380582 0.467563,0.3002189 0.694314,0.4634355 0.03893,0.025153 0.07822,0.050683 0.116794,0.075836 l -1.037144,0.7706402 0,0 c -0.0393,-0.0269 -0.07894,-0.05382 -0.118246,-0.08038 C 19.702828,7.3521044 19.478962,7.1916809 19.237429,7.0732013 19.066556,7.0005029 18.893879,6.9340971 18.715794,6.890764 18.51716,6.8600046 18.317086,6.8747469 18.117373,6.8708407 17.829698,6.8701412 17.542021,6.8715385 17.254707,6.8687159 16.887002,6.8625051 16.519297,6.8487926 16.153035,6.8093053 15.673937,6.7513166 15.198083,6.6674389 14.722229,6.5793739 14.203837,6.4766188 13.685446,6.3707241 13.162367,6.302571 12.818817,6.2382735 12.46445,6.1652156 12.160193,5.9625085 11.957594,5.773782 11.896671,5.6046244 12.023573,5.3253764 c 0.139153,-0.219834 0.35725,-0.3592831 0.550113,-0.5127112 0.551198,-0.3659254 1.062379,-0.7640028 1.653231,-1.0219316 0.17448,-0.09017 0.345354,-0.1890778 0.533173,-0.2404537 0.206561,-0.073744 0.417812,-0.1261597 0.62762,-0.1876804 0.236485,-0.061519 0.475854,-0.1247705 0.720269,-0.117432 0.205482,0 0.412045,-3.498e-4 0.614645,0.045077 0.363738,0.091576 0.698999,0.2757552 1.043991,0.4312803 0.639158,0.2708602 1.277594,0.54976 1.937661,0.7503718 l -1.021283,0.7975522 0,0 z"
     style="fill:#d4aa00;fill-opacity:0" /><path
     id="path4777-3"
     inkscape:connector-curvature="0"
     d="m 19.644801,6.2952473 c -0.436557,-0.040876 -0.861942,0.030057 -1.288408,0.1265193 -0.583641,0.1929202 -1.176654,0.3840966 -1.730376,0.6752283 -0.638797,0.4221929 0.474772,-0.3141996 0.67773,-0.4421147 0.06057,-0.037395 -0.116435,0.083878 -0.172315,0.1303601 -0.17484,0.14574 -0.33562,0.3152458 -0.501089,0.4742684 -0.212331,0.2041061 -0.439442,0.3868931 -0.646007,0.5990371 -0.132664,0.136653 -0.252345,0.289035 -0.388612,0.421495 -0.39402,0.33901 -0.778668,0.532983 -1.259931,0.839491 -0.08615,0.05523 -0.18385,0.09226 -0.271812,0.146084 -0.43656,0.233465 -0.183132,0.101709 0.872759,-0.582962 0.0292,-0.01922 -0.05732,0.03879 -0.08471,0.06011 -0.08904,0.06884 -0.169432,0.15133 -0.251265,0.229969 -0.06129,0.06606 -0.20368,0.168459 -0.169073,0.294277 0.08399,0.301618 0.521637,0.679422 0.702966,0.8671022 0.708733,0.704238 1.473341,1.326693 2.217402,1.978157 0.254871,0.223329 0.948463,0.860462 1.20045,1.09113 0.971894,0.904499 1.934055,1.82088 2.840338,2.811356 0.585444,0.618609 1.101672,1.312362 1.614657,2.007514 0.264964,0.387591 0.506855,0.795455 0.754876,1.198074 0.175561,0.292531 0.357249,0.579817 0.536778,0.8692 l -1.065984,0.717518 0,0 c -0.171957,-0.294277 -0.344997,-0.587156 -0.52308,-0.876191 -0.249103,-0.397728 -0.492798,-0.79895 -0.744063,-1.19493 -0.487387,-0.709131 -0.998208,-1.39729 -1.572117,-2.017649 -0.891142,-0.996416 -1.840686,-1.918041 -2.801406,-2.824636 -1.135197,-1.041154 -2.309329,-2.024289 -3.456424,-3.047968 -0.209086,-0.20061 -0.872398,-0.722759 -0.821207,-1.1187412 0.01405,-0.10975 0.07355,-0.154124 0.135901,-0.224028 0.08401,-0.07724 0.161136,-0.162509 0.245497,-0.240453 0.348601,-0.321537 1.166564,-0.782524 1.2365,-0.827261 0.03244,-0.02131 0.06706,-0.0381 0.100581,-0.05662 0.0346,-0.01888 0.06813,-0.0374 0.102739,-0.05557 0.81616,-0.425687 -1.350413,0.970554 -0.698999,0.479161 0.156461,-0.102053 0.264242,-0.270511 0.398708,-0.404369 0.202598,-0.227172 0.436919,-0.41031 0.657543,-0.614415 0.214855,-0.197817 0.435837,-0.4655325 0.668357,-0.6238541 0.405916,-0.277151 0.816519,-0.5466138 1.226763,-0.8157267 0.06345,-0.041253 0.130132,-0.076196 0.195029,-0.114294 0.563453,-0.2666679 1.153222,-0.4658807 1.74119,-0.6458712 0.439442,-0.094011 0.878163,-0.1439911 1.32554,-0.1247705 l -1.005421,0.8363464 0,0 z"
     style="fill:#d4aa00;fill-opacity:0" /><path
     id="path4779-7"
     inkscape:connector-curvature="0"
     d="m 16.320283,16.407593 c -0.457599,-0.466216 -0.966361,-0.858828 -1.480688,-1.231334 -0.09856,-0.06211 -0.269281,-0.182573 -0.386689,-0.212193 -0.06553,-0.01652 -0.133563,-0.01705 -0.200525,-0.01472 -0.27287,0.009 -0.515403,0.135718 -0.765117,0.251868 -0.248637,0.134281 -0.346834,0.182214 -0.586675,0.332832 -0.08689,0.05439 -0.346115,0.222246 -0.257612,0.170904 0.09604,-0.05601 0.181317,-0.137873 0.280771,-0.184547 0.06265,-0.02926 -0.113097,0.08617 -0.168211,0.131767 -0.04272,0.03519 -0.0833,0.07396 -0.125126,0.111124 -0.08402,0.09227 -0.24343,0.214527 -0.25492,0.366402 0.01094,0.01885 0.0034,0.01149 0.02424,0.01975 l -0.524919,0.393868 0,0 c -0.04111,-0.04434 -0.02388,-0.01867 -0.05135,-0.07719 -0.002,-0.01706 -0.0066,-0.03393 -0.0057,-0.05117 0.0081,-0.159594 0.166775,-0.294235 0.25492,-0.38956 0.323317,-0.292799 0.659919,-0.504992 1.020756,-0.74968 0.273051,-0.185085 0.557053,-0.347372 0.84644,-0.493682 0.316676,-0.142719 0.661535,-0.318111 1.008369,-0.208603 0.106276,0.03357 0.294056,0.172519 0.380406,0.231223 0.510557,0.394945 1.015728,0.799945 1.512643,1.218229 l -0.52097,0.384713 0,0 z"
     style="fill:#d4aa00;fill-opacity:0" /><path
     id="path4787"
     sodipodi:nodetypes="cccccccc"
     inkscape:connector-curvature="0"
     d="M 17.707458,7.3262595 C 17.277272,6.5080697 17.775416,6.3817203 16.710791,5.8357783 16.137214,5.4943821 14.890726,4.785163 14.046794,4.7949384 l -0.02239,0.00719 1.081432,0.5546306 c 0.597854,0.4000485 1.862263,1.4209765 1.806997,2.9903808 l 0.638173,-0.09123 0.156462,-0.929697 z"
     style="stroke:#000000;stroke-width:0.25212017" /><path
     id="path4787-9"
     sodipodi:nodetypes="cccccccc"
     inkscape:connector-curvature="0"
     d="m 22.33902,24.35982 c -0.668051,-0.738543 0.104945,-1.21027 -1.43917,-1.211717 -0.897336,-0.293606 -2.419035,-0.646226 -3.236831,-0.553544 l -0.636687,0.02388 c 0.328986,0.05719 0.827134,0.163277 0.9709,0.167618 1.268892,0.312434 3.193888,1.078493 3.106879,2.495484 l 0.991064,-0.08255 0.243845,-0.839188 z"
     style="stroke:#000000;stroke-width:0.29848498" /><path
     id="path4787-0"
     sodipodi:nodetypes="cccccccc"
     inkscape:connector-curvature="0"
     d="M 18.360572,11.833186 C 17.709321,10.980602 18.462886,10.848462 16.852318,10.27971 15.984482,9.9234718 14.559874,9.3663048 13.698015,9.6396388 l -0.514204,0.183186 0.945506,0.1929632 c 1.236778,0.361308 4.181965,2.620382 4.09757,4.25676 1.460458,-3.337564 -0.434291,-0.92716 -0.103817,-0.826879 l 0.237499,-1.612483 z"
     style="stroke:#000000;stroke-width:0.31664851" /><path
     id="path4858"
     sodipodi:nodetypes="cccaaccascccc"
     inkscape:connector-curvature="0"
     d="M 18.076398,10.397732 17.430003,10.008548 C 17.194372,9.7127678 18.323604,6.5029997 17.541649,6.5142232 17.543149,6.4729542 17.14022,7.5539778 16.808248,7.7266658 16.277242,8.0025338 15.659227,7.6607858 15.161829,7.2513187 14.342911,6.5775793 13.167003,4.1613856 13.167003,4.1613856 l -0.128089,0.1639979 c 0,0 0.578805,2.395561 1.080686,3.3614583 0.805848,1.551304 3.428024,3.7796052 2.982155,3.6840282 l -0.103442,-0.0228 0.384999,1.254803 0.462299,-0.324382 0.230774,-1.880753 z" /><path
     id="path4858-2"
     sodipodi:nodetypes="cccacc"
     inkscape:connector-curvature="0"
     d="m 19.309441,18.958317 c -1.093381,-0.653827 -2.72188,-3.335754 -2.72188,-3.335754 l -0.489556,0.149155 c 0,0 1.072845,2.820585 1.868981,3.906315 1.234908,1.685256 4.942254,3.846582 4.339921,3.817982 1.679656,0.363478 -1.954497,-4.067058 -2.997466,-4.537698 l 0,0 z" /><g
     id="path4877"
     sodipodi:nodetypes="ccccc"
     inkscape:connector-curvature="0"
     style="filter:url(#filter5367)"
     transform="matrix(0.373423,0,0,0.36203103,6.5671293,3.5756181)"><path
       d="m 20.21,17.341 0.412,-0.205 c 4.322,8.817 16.625,8.685 14.674,16.772 -1.309,0.055 -10.352,-7.955 -10.352,-7.955 -5.601,-5.969 -3.876,-8.762 -4.734,-8.612 z"
       id="path41"
       inkscape:connector-curvature="0" /></g><g
     id="path4879"
     sodipodi:nodetypes="scacccccccs"
     inkscape:connector-curvature="0"
     style="filter:url(#filter5379)"
     transform="matrix(0.38600062,0,0,0.38600062,5.8856507,2.8440828)"><path
       d="m 15.605,24.326 c -0.541,-1.519 1.365,-0.425 1.365,-0.425 0,0 1.309,0.68 1.974,0.984 1.099,0.505 2.221,0.939 3.333,1.401 8.391,2.983 2.615,0.999 14.215,6.073 l 0.759,3.48 -0.151,4.016 -2.596,0.323 -0.883,-0.385 C 29.786,36.481 25.212,33.849 21.816,30.812 19.608,28.779 15.605,24.326 15.605,24.326 l 0,0 z"
       id="path44"
       inkscape:connector-curvature="0" /></g><g
     id="path4896"
     sodipodi:nodetypes="ccscsssssccccc"
     inkscape:connector-curvature="0"
     style="filter:url(#filter5391)"
     transform="matrix(0.373423,0,0,0.36203103,6.5671293,3.5756181)"><path
       d="m 41.576,52.228 -4.697,-5.099 c 0,0 5.148,1.164 -1.341,-1.395 -3.415,-1.346 -4.055,0.744 -2.051,-0.602 0.01,0.029 -9.649,-4.558 -14.319,-3.482 -0.582,0.134 0.814,-0.275 3.541,1.123 3.34,1.712 4.404,2.461 7.408,5.283 13.957,13.116 13.734,7.728 11.607,11.172 -0.275,0.445 -1.732,-3.789 -2.059,-5.088 l -1.058,-4.23 c 1.029,2.907 0.304,-12.233 1.71,6.531 -0.315,-26.258 -1.028,-10.719 0.094,-9.125 l 1.064,7.396 0.101,-2.484 z"
       id="path47"
       inkscape:connector-curvature="0" /><path
       d="m 41.576,52.228 -4.697,-5.099 c 0,0 5.148,1.164 -1.341,-1.395 -3.415,-1.346 -4.055,0.744 -2.051,-0.602 0.01,0.029 -9.649,-4.558 -14.319,-3.482 -0.582,0.134 0.814,-0.275 3.541,1.123 3.34,1.712 4.404,2.461 7.408,5.283 13.957,13.116 13.734,7.728 11.607,11.172 -0.275,0.445 -1.732,-3.789 -2.059,-5.088 l -1.058,-4.23 c 1.029,2.907 0.304,-12.233 1.71,6.531 -0.315,-26.258 -1.028,-10.719 0.094,-9.125 l 1.064,7.396 0.101,-2.484 z"
       id="path49"
       inkscape:connector-curvature="0"
       style="fill:none;stroke:#000000;stroke-width:0.99949998" /></g></svg>