<?xml version="1.0" encoding="UTF-8" standalone="no"?>
<!-- Generator: Adobe Illustrator 16.0.0, SVG Export Plug-In . SVG Version: 6.00 Build 0)  -->

<svg
   xmlns:dc="http://purl.org/dc/elements/1.1/"
   xmlns:cc="http://creativecommons.org/ns#"
   xmlns:rdf="http://www.w3.org/1999/02/22-rdf-syntax-ns#"
   xmlns:svg="http://www.w3.org/2000/svg"
   xmlns="http://www.w3.org/2000/svg"
   xmlns:sodipodi="http://sodipodi.sourceforge.net/DTD/sodipodi-0.dtd"
   xmlns:inkscape="http://www.inkscape.org/namespaces/inkscape"
   version="1.1"
   id="svg4200"
   sodipodi:docname="wookie__smal2l.svg"
   inkscape:version="0.91 r13725"
   x="0px"
   y="0px"
   width="40"
   height="30"
   viewBox="11.833 0 40 29.999998"
   enable-background="new 11.833 0 94.5 66.286"
   xml:space="preserve"><metadata
     id="metadata53"><rdf:RDF><cc:Work
         rdf:about=""><dc:format>image/svg+xml</dc:format><dc:type
           rdf:resource="http://purl.org/dc/dcmitype/StillImage" /><dc:title></dc:title></cc:Work></rdf:RDF></metadata><defs
     id="defs51" /><filter
     id="filter5391"
     style="color-interpolation-filters:sRGB"
     inkscape:label="Drop Shadow"><feFlood
       flood-opacity="0.498039"
       flood-color="rgb(0,0,0)"
       result="flood"
       id="feFlood5393" /><feComposite
       operator="in"
       in="flood"
       in2="SourceGraphic"
       result="composite1"
       id="feComposite5395" /><feGaussianBlur
       in="composite1"
       result="blur"
       stdDeviation="3"
       id="feGaussianBlur5397" /><feOffset
       dx="6"
       dy="6"
       result="offset"
       id="feOffset5399" /><feComposite
       operator="over"
       in="SourceGraphic"
       in2="offset"
       result="composite2"
       id="feComposite5401" /></filter><filter
     id="filter5379"
     style="color-interpolation-filters:sRGB"
     inkscape:label="Drop Shadow"><feFlood
       flood-opacity="0.498039"
       flood-color="rgb(0,0,0)"
       result="flood"
       id="feFlood5381" /><feComposite
       operator="in"
       in="flood"
       in2="SourceGraphic"
       result="composite1"
       id="feComposite5383" /><feGaussianBlur
       in="composite1"
       result="blur"
       stdDeviation="3"
       id="feGaussianBlur5385" /><feOffset
       dx="6"
       dy="6"
       result="offset"
       id="feOffset5387" /><feComposite
       operator="over"
       in="SourceGraphic"
       in2="offset"
       result="composite2"
       id="feComposite5389" /></filter><filter
     id="filter5367"
     style="color-interpolation-filters:sRGB"
     inkscape:label="Drop Shadow"><feFlood
       flood-opacity="0.498039"
       flood-color="rgb(0,0,0)"
       result="flood"
       id="feFlood5369" /><feComposite
       operator="in"
       in="flood"
       in2="SourceGraphic"
       result="composite1"
       id="feComposite5371" /><feGaussianBlur
       in="composite1"
       result="blur"
       stdDeviation="3"
       id="feGaussianBlur5373" /><feOffset
       dx="6"
       dy="6"
       result="offset"
       id="feOffset5375" /><feComposite
       operator="over"
       in="SourceGraphic"
       in2="offset"
       result="composite2"
       id="feComposite5377" /></filter><sodipodi:namedview
     showguides="false"
     showgrid="false"
     inkscape:cy="28.284848"
     inkscape:cx="12.646815"
     inkscape:zoom="9.6277333"
     borderopacity="1.0"
     pagecolor="#ffffff"
     bordercolor="#666666"
     id="base"
     inkscape:window-maximized="1"
     inkscape:window-y="-8"
     inkscape:window-x="-8"
     inkscape:window-height="1138"
     inkscape:window-width="1920"
     inkscape:current-layer="svg4200"
     inkscape:document-units="px"
     inkscape:pageshadow="2"
     inkscape:pageopacity="0.0"><sodipodi:guide
       orientation="1,0"
       position="106.25,962.00002"
       id="guide4898" /></sodipodi:namedview><ellipse
     id="path4208"
     cx="113.643"
     cy="177.017"
     rx="186.284"
     ry="176"
     style="fill:#ff00ff;fill-opacity:0" /><path
     id="rect4754"
     d="m 387.345,120.752 237.072,0 c 0.178,0 0.32,0.145 0.32,0.32 l 0,291.931 c 0,0.177 -0.143,0.319 -0.32,0.319 l -237.072,0 c -0.178,0 -0.32,-0.144 -0.32,-0.319 l 0,-291.931 c 0,-0.176 0.142,-0.32 0.32,-0.32 z"
     inkscape:connector-curvature="0"
     style="fill:#d4aa00;fill-opacity:0" /><g
     id="g10"
     enable-background="new    "
     transform="matrix(0.47425543,0,0,0.45978738,5.0937689,0.11598431)"><path
       id="path12"
       d="M 68.307,52.079 59.628,19.89 50.839,52.079 c -0.685,2.441 -1.228,4.193 -1.629,5.256 -0.403,1.061 -1.105,2.014 -2.106,2.855 -1.001,0.841 -2.332,1.263 -3.992,1.263 -1.343,0 -2.448,-0.25 -3.313,-0.75 -0.867,-0.5 -1.569,-1.209 -2.105,-2.124 -0.537,-0.916 -0.977,-2.002 -1.318,-3.26 C 36.035,54.061 35.73,52.897 35.46,51.822 L 26.524,15.676 c -0.537,-2.1 -0.807,-3.699 -0.807,-4.797 0,-1.392 0.488,-2.563 1.466,-3.516 0.976,-0.952 2.185,-1.428 3.625,-1.428 1.978,0 3.308,0.635 3.991,1.904 0.683,1.269 1.283,3.112 1.795,5.529 l 7.031,31.348 7.873,-29.332 c 0.586,-2.246 1.111,-3.955 1.576,-5.127 0.463,-1.172 1.221,-2.186 2.271,-3.041 1.049,-0.854 2.478,-1.281 4.284,-1.281 1.832,0 3.254,0.445 4.267,1.336 1.013,0.893 1.715,1.861 2.106,2.912 0.39,1.05 0.916,2.783 1.574,5.199 l 7.947,29.334 7.031,-31.349 c 0.342,-1.635 0.665,-2.917 0.97,-3.845 0.306,-0.928 0.83,-1.758 1.575,-2.49 0.744,-0.732 1.824,-1.1 3.24,-1.1 1.416,0 2.619,0.471 3.607,1.41 0.989,0.94 1.483,2.119 1.483,3.535 0,1 -0.269,2.6 -0.806,4.797 l -8.937,36.145 c -0.61,2.441 -1.117,4.229 -1.521,5.365 -0.402,1.135 -1.086,2.13 -2.051,2.984 -0.965,0.854 -2.326,1.281 -4.082,1.281 -1.662,0 -2.992,-0.416 -3.992,-1.244 -1.002,-0.83 -1.697,-1.765 -2.088,-2.802 -0.388,-1.033 -0.937,-2.809 -1.645,-5.324 z"
       inkscape:connector-curvature="0" /></g><g
     id="g24"
     enable-background="new    "
     transform="matrix(0.47425543,0,0,0.45978738,5.0937689,0.11598431)"><path
       id="path26"
       d="M 68.307,52.079 59.628,19.89 50.839,52.079 c -0.685,2.441 -1.228,4.193 -1.629,5.256 -0.403,1.061 -1.105,2.014 -2.106,2.855 -1.001,0.841 -2.332,1.263 -3.992,1.263 -1.343,0 -2.448,-0.25 -3.313,-0.75 -0.867,-0.5 -1.569,-1.209 -2.105,-2.124 -0.537,-0.916 -0.977,-2.002 -1.318,-3.26 C 36.035,54.061 35.73,52.897 35.46,51.822 L 26.524,15.676 c -0.537,-2.1 -0.807,-3.699 -0.807,-4.797 0,-1.392 0.488,-2.563 1.466,-3.516 0.976,-0.952 2.185,-1.428 3.625,-1.428 1.978,0 3.308,0.635 3.991,1.904 0.683,1.269 1.283,3.112 1.795,5.529 l 7.031,31.348 7.873,-29.332 c 0.586,-2.246 1.111,-3.955 1.576,-5.127 0.463,-1.172 1.221,-2.186 2.271,-3.041 1.049,-0.854 2.478,-1.281 4.284,-1.281 1.832,0 3.254,0.445 4.267,1.336 1.013,0.893 1.715,1.861 2.106,2.912 0.39,1.05 0.916,2.783 1.574,5.199 l 7.947,29.334 7.031,-31.349 c 0.342,-1.635 0.665,-2.917 0.97,-3.845 0.306,-0.928 0.83,-1.758 1.575,-2.49 0.744,-0.732 1.824,-1.1 3.24,-1.1 1.416,0 2.619,0.471 3.607,1.41 0.989,0.94 1.483,2.119 1.483,3.535 0,1 -0.269,2.6 -0.806,4.797 l -8.937,36.145 c -0.61,2.441 -1.117,4.229 -1.521,5.365 -0.402,1.135 -1.086,2.13 -2.051,2.984 -0.965,0.854 -2.326,1.281 -4.082,1.281 -1.662,0 -2.992,-0.416 -3.992,-1.244 -1.002,-0.83 -1.697,-1.765 -2.088,-2.802 -0.388,-1.033 -0.937,-2.809 -1.645,-5.324 z"
       inkscape:connector-curvature="0"
       style="fill:none;stroke:#000000" /></g><path
     id="path4775"
     inkscape:connector-curvature="0"
     d="m 21.805,-28.127003 c -2.165,-0.721 -4.3,-1.529 -6.45,-2.288 -1.175,-0.446 -2.331,-0.954 -3.578,-1.149 -0.675,-0.082 -1.355,-0.067 -2.035,-0.063 -0.791,0.03 -1.584,0.205 -2.348,0.413 -0.727,0.146 -1.42,0.39 -2.131,0.588 -0.627,0.155 -1.164,0.51 -1.765,0.735 -1.541,0.582 -4.595,2.455 1.614,-1.092 -0.661,0.418 -1.327,0.85 -1.896,1.391 -0.441,0.586 -0.439,0.855 0.149,1.269 1.006,0.496 2.11,0.703 3.211,0.862 1.754,0.229 3.496,0.531 5.237,0.839 1.604,0.244 3.206,0.492 4.821,0.639 1.238,0.104 2.48,0.117 3.721,0.125 0.973,0 1.943,0 2.915,-0.006 0.7,-0.023 1.385,-0.024 2.074,0.098 0.61,0.189 1.214,0.373 1.805,0.617 0.808,0.406 1.576,0.885 2.34,1.365 0.132,0.074 0.263,0.148 0.394,0.223 l -3.494,2.27 0,0 c -0.133,-0.078 -0.266,-0.158 -0.398,-0.236 -0.75,-0.467 -1.505,-0.938 -2.318,-1.287 -0.575,-0.213 -1.157,-0.41 -1.758,-0.539 -0.668,-0.088 -1.344,-0.047 -2.018,-0.057 -0.968,-0.002 -1.938,0.002 -2.904,-0.007 -1.24,-0.017 -2.479,-0.058 -3.713,-0.174 -1.613,-0.171 -3.218,-0.419 -4.82,-0.677 -1.748,-0.303 -3.494,-0.615 -5.256,-0.816 -1.158,-0.188 -2.352,-0.404 -3.377,-1.001 -0.684,-0.556 -0.89,-1.053 -0.461,-1.876 0.471,-0.646 1.205,-1.059 1.854,-1.509 1.859,-1.078 3.582,-2.25 5.57,-3.009 0.59,-0.266 1.166,-0.557 1.799,-0.709 0.697,-0.217 1.408,-0.373 2.115,-0.553 0.796,-0.18 1.603,-0.369 2.424,-0.345 0.692,0 1.39,0 2.072,0.135 1.225,0.268 2.355,0.811 3.518,1.27 2.154,0.798 4.306,1.619 6.529,2.21 l -3.442,2.344 0,0 z"
     style="fill:#d4aa00;fill-opacity:0" /><path
     id="path4777"
     inkscape:connector-curvature="0"
     d="m 20.657875,2.4535954 c -0.696163,-0.057269 -1.37292,0.041639 -2.053938,0.1765201 -0.931843,0.268338 -1.876936,0.5352542 -2.760035,0.9408353 -1.018449,0.5887312 0.758632,-0.4382365 1.081394,-0.6157094 0.09606,-0.052516 -0.186463,0.1173826 -0.275437,0.1822076 -0.278748,0.2025498 -0.534306,0.4391831 -0.798858,0.6601945 -0.338377,0.2849002 -0.700422,0.54046 -1.029807,0.8352989 -0.211546,0.189784 -0.403688,0.4036881 -0.620442,0.5873135 -0.628484,0.4727829 -1.241827,0.7430119 -2.008504,1.1713099 -0.138659,0.076677 -0.293892,0.1277819 -0.433504,0.2035046 -0.696632,0.3251258 -0.292944,0.14198 1.390904,-0.8125821 0.04639,-0.026507 -0.09133,0.053948 -0.135359,0.084254 -0.14198,0.095131 -0.269282,0.2105995 -0.400848,0.3203973 -0.09702,0.09181 -0.325602,0.2352073 -0.269283,0.4098385 0.133926,0.4202524 0.831986,0.9465145 1.121146,1.208698 1.129664,0.9810629 2.34925,1.8480707 3.536177,2.7571989 0.406528,0.31093 1.512531,1.199233 1.915273,1.521048 1.549444,1.260757 3.084691,2.537132 4.52907,3.918097 0.933738,0.861329 1.756732,1.82914 2.574994,2.797898 0.423092,0.540458 0.807851,1.109314 1.203494,1.669176 0.280167,0.407476 0.569327,0.808325 0.856596,1.211067 l -1.700414,0.999991 0,0 c -0.27354,-0.409367 -0.550395,-0.81779 -0.834822,-1.220058 -0.396589,-0.554658 -0.785608,-1.114047 -1.186929,-1.665866 -0.77709,-0.989106 -1.590616,-1.947925 -2.507319,-2.812567 C 20.431182,15.593124 18.916285,14.309179 17.383877,13.045108 15.574142,11.5941 13.701937,10.224022 11.872324,8.7966754 11.539152,8.5174565 10.481896,7.7900582 10.562349,7.2382397 10.585559,7.0849055 10.679711,7.0229075 10.779572,6.92589 c 0.135358,-0.1078965 0.257926,-0.2266885 0.39233,-0.3350645 0.555606,-0.4491217 1.861322,-1.091332 1.971591,-1.1538011 0.05206,-0.029808 0.107897,-0.052059 0.160911,-0.079044 0.05536,-0.02603 0.109308,-0.051582 0.164688,-0.077134 1.300985,-0.5934638 -2.153795,1.3525669 -1.11452,0.6677647 0.248459,-0.1424574 0.421199,-0.3771852 0.635111,-0.5627036 0.323709,-0.3175536 0.697581,-0.5721669 1.049212,-0.8570672 0.342636,-0.2759102 0.695214,-0.648836 1.065775,-0.8698473 0.647888,-0.3861794 1.301459,-0.7619447 1.956445,-1.1362924 0.101275,-0.057726 0.207282,-0.1069416 0.311403,-0.1594991 0.898715,-0.371506 1.838604,-0.6493073 2.777075,-0.9001344 0.700418,-0.1301483 1.39942,-0.2006609 2.113565,-0.1736764 l -1.60529,1.164213 0,0 z"
     style="fill:#d4aa00;fill-opacity:0" /><path
     id="path4779"
     inkscape:connector-curvature="0"
     d="m 28.021,-25.573003 c -3.096,-2.674 -6.539,-4.924 -10.02,-7.061 -0.668,-0.355 -1.822,-1.046 -2.617,-1.217 -0.442,-0.094 -0.903,-0.096 -1.355,-0.084 -1.847,0.052 -3.488,0.779 -5.177,1.443 -1.683,0.773 -2.347,1.046 -3.97,1.91 -0.588,0.313 -2.342,1.275 -1.744,0.98 0.65,-0.32 1.229,-0.791 1.902,-1.059 0.422,-0.168 -0.767,0.493 -1.139,0.754 -0.29,0.203 -0.564,0.426 -0.847,0.637 -0.57,0.531 -1.647,1.23 -1.726,2.103 0.073,0.108 0.022,0.065 0.164,0.113 l -3.553,2.259 0,0 c -0.277,-0.255 -0.161,-0.107 -0.348,-0.441 -0.012,-0.099 -0.045,-0.195 -0.039,-0.295 0.058,-0.915 1.13,-1.687 1.727,-2.235 2.188,-1.678 4.467,-2.895 6.907,-4.297 1.849,-1.063 3.769,-1.991 5.728,-2.83 2.144,-0.819 4.476,-1.825 6.823,-1.197 0.718,0.191 1.989,0.988 2.574,1.326 3.454,2.265 6.873,4.586 10.235,6.984 l -3.525,2.207 0,0 z"
     style="fill:#d4aa00;fill-opacity:0" /><path
     id="path4775-3"
     inkscape:connector-curvature="0"
     d="M 20.481193,2.2672155 C 19.665329,1.9560635 18.86091,1.6080693 18.049624,1.2804941 17.606895,1.0878456 17.171494,0.86947038 16.701295,0.78513758 16.447197,0.75005778 16.19035,0.75626418 15.934421,0.75804928 c -0.298052,0.012247 -0.59702,0.087887 -0.885,0.1779939 -0.273785,0.062583 -0.535209,0.16821732 -0.803045,0.25300462 -0.236243,0.067461 -0.438606,0.2206025 -0.664777,0.3182531 -0.580536,0.2507857 -1.732455,1.0581847 0.608006,-0.4713901 -0.248604,0.1802149 -0.499958,0.3657479 -0.714223,0.6001124 -0.166204,0.2521183 -0.165747,0.3692995 0.05631,0.546845 0.378632,0.2139456 0.794804,0.3036068 1.210062,0.3719647 0.660657,0.098992 1.317653,0.2290362 1.97419,0.3621964 0.604345,0.1047413 1.208229,0.2117266 1.817153,0.2752003 0.466991,0.044836 0.934444,0.05015 1.402353,0.053263 0.366726,8.884e-4 0.732538,0 1.098807,-0.0027 0.263713,-0.00996 0.521934,-0.010171 0.781527,0.042615 0.229833,0.08168 0.457377,0.1606823 0.680343,0.2663183 0.304004,0.175337 0.593815,0.3812847 0.881794,0.5885734 0.04944,0.031945 0.09934,0.064368 0.148331,0.096314 l -1.317196,0.9787299 0,0 C 22.159139,5.1811781 22.108802,5.1469909 22.058881,5.1132602 21.776395,4.912205 21.49208,4.7084637 21.185328,4.5579919 20.968315,4.4656634 20.749012,4.3813265 20.52284,4.3262926 20.27057,4.2872274 20.016472,4.3059505 19.762832,4.3009895 19.397479,4.3001011 19.032123,4.3018758 18.667228,4.298291 18.200234,4.2904032 17.733241,4.2729879 17.26808,4.2228382 16.659615,4.1491913 16.05527,4.0426648 15.450925,3.9308203 14.792555,3.8003191 14.134187,3.6658304 13.469866,3.5792745 13.03355,3.4976153 12.583496,3.4048301 12.197082,3.1473876 11.939777,2.9077009 11.862404,2.692867 12.023572,2.3382159 12.2003,2.0590218 12.477287,1.8819184 12.722228,1.6870613 13.422262,1.222328 14.071473,0.71676098 14.821867,0.38918575 c 0.221594,-0.11451806 0.438608,-0.24013298 0.677142,-0.30538149 0.262337,-0.093657 0.53063,-0.16022565 0.797091,-0.23835823 0.300342,-0.0781305 0.604345,-0.15846128 0.914758,-0.14914125 0.260967,0 0.523306,-4.4421e-4 0.780612,0.0572486 0.461956,0.11630319 0.887744,0.3502152 1.325892,0.54773551 0.811745,0.34399839 1.622573,0.69820734 2.460872,0.95298876 l -1.297052,1.0129088 0,0 z"
     style="fill:#d4aa00;fill-opacity:0" /><path
     id="path4777-3"
     inkscape:connector-curvature="0"
     d="m 21.7027,3.5699732 c -0.554438,-0.051914 -1.094686,0.038173 -1.636307,0.1606823 -0.741237,0.245013 -1.494376,0.4878112 -2.197615,0.8575549 -0.811287,0.5361944 0.60297,-0.3990405 0.860732,-0.5614955 0.07693,-0.047493 -0.147875,0.1065265 -0.218844,0.1655602 -0.222051,0.185093 -0.426245,0.4003691 -0.636394,0.6023314 -0.269666,0.2592193 -0.558102,0.4913628 -0.820443,0.7607906 -0.168487,0.1735518 -0.320484,0.3670805 -0.493546,0.5353081 -0.500415,0.4305501 -0.988926,0.6768999 -1.60014,1.0661721 -0.109411,0.070139 -0.233494,0.117175 -0.345208,0.1855288 -0.55444,0.2965057 -0.232582,0.1291727 1.108423,-0.7403737 0.03709,-0.024411 -0.0728,0.049257 -0.107585,0.076345 -0.113085,0.08743 -0.215182,0.1921919 -0.319112,0.2920657 -0.07784,0.083901 -0.258678,0.2139455 -0.214726,0.3737373 0.106672,0.3830616 0.66249,0.8628813 0.892782,1.1012395 0.900107,0.8943971 1.871176,1.6849291 2.81615,2.5123031 0.323692,0.283632 1.204569,1.092805 1.524597,1.385759 1.234327,1.148733 2.456293,2.312557 3.607292,3.570483 0.743527,0.785648 1.399148,1.666729 2.05065,2.549587 0.336511,0.492249 0.643717,1.010246 0.958709,1.521581 0.222967,0.371521 0.453715,0.73638 0.68172,1.103903 l -1.353823,0.911264 0,0 C 26.041623,21.626561 25.821859,21.254598 25.595689,20.887518 25.279323,20.382395 24.969825,19.872834 24.650713,19.36993 24.03172,18.469319 23.382967,17.595341 22.65409,16.807472 21.522319,15.542001 20.316378,14.371517 19.096242,13.220122 17.654517,11.897833 16.163343,10.64923 14.706508,9.3491353 14.440964,9.094356 13.598543,8.4312161 13.663557,7.9283101 c 0.01785,-0.1393853 0.09341,-0.1957414 0.172597,-0.2845204 0.106693,-0.098099 0.204646,-0.2063899 0.311787,-0.3053815 0.442731,-0.4083585 1.481561,-0.9938225 1.570382,-1.0506394 0.0412,-0.027068 0.08517,-0.048385 0.12774,-0.071903 0.04394,-0.023975 0.08652,-0.047493 0.130481,-0.070575 1.036541,-0.5406324 -1.715054,1.2326249 -0.887745,0.608544 0.19871,-0.1296086 0.335594,-0.3435542 0.506369,-0.5135565 0.257303,-0.2885141 0.554896,-0.5211039 0.835093,-0.7803211 0.272871,-0.2512319 0.553523,-0.5912366 0.848829,-0.7923085 0.515522,-0.3519879 1.036997,-0.6942115 1.558016,-1.0359909 0.08058,-0.052392 0.16527,-0.096771 0.247691,-0.1451559 0.715597,-0.3386741 1.464617,-0.5916787 2.21135,-0.8202706 0.5581,-0.1193961 1.115286,-0.1828719 1.683464,-0.1584613 l -1.276907,1.0621784 0,0 z"
     style="fill:#d4aa00;fill-opacity:0" /><path
     id="path4779-7"
     inkscape:connector-curvature="0"
     d="m 17.480489,16.412874 c -0.581161,-0.592104 -1.2273,-1.09073 -1.880507,-1.563821 -0.125169,-0.07888 -0.341993,-0.231871 -0.491103,-0.26949 -0.08322,-0.02098 -0.169628,-0.02166 -0.254671,-0.01869 -0.346552,0.0114 -0.654574,0.172364 -0.971716,0.319877 -0.315774,0.170541 -0.440487,0.231416 -0.74509,0.422704 -0.110349,0.06908 -0.439574,0.282258 -0.327173,0.217052 0.121978,-0.07113 0.230276,-0.175101 0.356585,-0.234379 0.07957,-0.03716 -0.143636,0.109437 -0.213631,0.167348 -0.05426,0.04469 -0.10579,0.09393 -0.158913,0.141129 -0.106702,0.11719 -0.309162,0.272455 -0.323754,0.465339 0.0139,0.02394 0.0043,0.01459 0.03078,0.02508 l -0.666659,0.500222 0,0 c -0.05221,-0.05632 -0.03033,-0.02371 -0.06521,-0.09804 -0.0025,-0.02166 -0.0084,-0.04309 -0.0073,-0.06498 0.01026,-0.202688 0.211808,-0.373685 0.323754,-0.49475 0.410619,-0.371861 0.838111,-0.641351 1.296382,-0.95211 0.346781,-0.235063 0.70747,-0.441171 1.074998,-0.626987 0.402185,-0.181256 0.840164,-0.404008 1.280651,-0.264931 0.134973,0.04263 0.373457,0.219103 0.483123,0.293658 0.648419,0.50159 1.289998,1.015948 1.92109,1.547178 l -0.661643,0.488594 0,0 z"
     style="fill:#d4aa00;fill-opacity:0" /><path
     id="path4787"
     sodipodi:nodetypes="cccccccc"
     inkscape:connector-curvature="0"
     d="M 19.242231,4.8793814 C 18.695886,3.8402624 19.328539,3.6797959 17.976442,2.9864375 17.247987,2.5528568 15.66492,1.652133 14.593107,1.6645479 l -0.02844,0.00913 1.373442,0.704393 c 0.759288,0.5080704 2.365115,1.8046714 2.294926,3.7978502 l 0.810494,-0.1158673 0.19871,-1.1807358 z"
     style="stroke:#000000;stroke-width:0.32019815" /><path
     id="path4787-9"
     sodipodi:nodetypes="cccccccc"
     inkscape:connector-curvature="0"
     d="m 25.124417,26.512378 c -0.84844,-0.937966 0.133283,-1.53707 -1.827778,-1.538907 -1.139636,-0.372886 -3.072227,-0.820721 -4.110846,-0.703014 l -0.808607,0.03033 c 0.41782,0.07263 1.050478,0.207365 1.233065,0.212879 1.611521,0.396798 4.056308,1.36971 3.945804,3.169319 l 1.258674,-0.104846 0.309688,-1.065788 z"
     style="stroke:#000000;stroke-width:0.3790825" /><path
     id="path4787-0"
     sodipodi:nodetypes="cccccccc"
     inkscape:connector-curvature="0"
     d="M 20.071701,10.603277 C 19.244597,9.5204765 20.201642,9.3526558 18.156185,8.6303285 17.054014,8.1778981 15.24473,7.4702835 14.15015,7.8174246 l -0.65305,0.23265 1.200814,0.245067 c 1.570735,0.4588693 5.311187,3.3279424 5.204004,5.4061784 1.854813,-4.2387792 -0.551559,-1.177513 -0.13185,-1.050154 l 0.301629,-2.047889 z"
     style="stroke:#000000;stroke-width:0.40215057" /><path
     id="path4858"
     sodipodi:nodetypes="cccaaccascccc"
     inkscape:connector-curvature="0"
     d="M 19.710793,8.7802191 18.889857,8.2859461 C 18.590601,7.910299 20.02475,3.8338234 19.03165,3.8480775 19.03355,3.7956655 18.521827,5.1685888 18.100215,5.3879064 17.425825,5.7382648 16.640933,5.3042334 16.009226,4.784205 14.969183,3.9285411 13.475753,0.85992198 13.475753,0.85992198 L 13.313078,1.0682029 c 0,0 0.735095,3.0424151 1.372494,4.2691262 1.023445,1.9701902 4.353667,4.8001809 3.787403,4.6787959 l -0.131373,-0.02896 0.488957,1.5936278 0.587129,-0.411973 0.293089,-2.3885966 z" /><path
     id="path4858-2"
     sodipodi:nodetypes="cccacc"
     inkscape:connector-curvature="0"
     d="M 21.276785,19.65235 C 19.888167,18.821975 17.819938,15.415869 17.819938,15.415869 L 17.19819,15.6053 c 0,0 1.362537,3.582205 2.373648,4.961106 1.56836,2.140311 6.276771,4.885243 5.511795,4.84892 2.1332,0.461626 -2.482254,-5.165253 -3.806848,-5.762976 l 0,0 z" /><g
     id="path4877"
     sodipodi:nodetypes="ccccc"
     inkscape:connector-curvature="0"
     style="filter:url(#filter5367)"
     transform="matrix(0.47425543,0,0,0.45978738,5.0937689,0.11598431)"><path
       d="m 20.21,17.341 0.412,-0.205 c 4.322,8.817 16.625,8.685 14.674,16.772 -1.309,0.055 -10.352,-7.955 -10.352,-7.955 -5.601,-5.969 -3.876,-8.762 -4.734,-8.612 z"
       id="path41"
       inkscape:connector-curvature="0" /></g><g
     id="path4879"
     sodipodi:nodetypes="scacccccccs"
     inkscape:connector-curvature="0"
     style="filter:url(#filter5379)"
     transform="matrix(0.49022928,0,0,0.49022928,4.228276,-0.8130816)"><path
       d="m 15.605,24.326 c -0.541,-1.519 1.365,-0.425 1.365,-0.425 0,0 1.309,0.68 1.974,0.984 1.099,0.505 2.221,0.939 3.333,1.401 8.391,2.983 2.615,0.999 14.215,6.073 l 0.759,3.48 -0.151,4.016 -2.596,0.323 -0.883,-0.385 C 29.786,36.481 25.212,33.849 21.816,30.812 19.608,28.779 15.605,24.326 15.605,24.326 l 0,0 z"
       id="path44"
       inkscape:connector-curvature="0" /></g><g
     id="path4896"
     sodipodi:nodetypes="ccscsssssccccc"
     inkscape:connector-curvature="0"
     style="filter:url(#filter5391)"
     transform="matrix(0.47425543,0,0,0.45978738,5.0937689,0.11598431)"><path
       d="m 41.576,52.228 -4.697,-5.099 c 0,0 5.148,1.164 -1.341,-1.395 -3.415,-1.346 -4.055,0.744 -2.051,-0.602 0.01,0.029 -9.649,-4.558 -14.319,-3.482 -0.582,0.134 0.814,-0.275 3.541,1.123 3.34,1.712 4.404,2.461 7.408,5.283 13.957,13.116 13.734,7.728 11.607,11.172 -0.275,0.445 -1.732,-3.789 -2.059,-5.088 l -1.058,-4.23 c 1.029,2.907 0.304,-12.233 1.71,6.531 -0.315,-26.258 -1.028,-10.719 0.094,-9.125 l 1.064,7.396 0.101,-2.484 z"
       id="path47"
       inkscape:connector-curvature="0" /><path
       d="m 41.576,52.228 -4.697,-5.099 c 0,0 5.148,1.164 -1.341,-1.395 -3.415,-1.346 -4.055,0.744 -2.051,-0.602 0.01,0.029 -9.649,-4.558 -14.319,-3.482 -0.582,0.134 0.814,-0.275 3.541,1.123 3.34,1.712 4.404,2.461 7.408,5.283 13.957,13.116 13.734,7.728 11.607,11.172 -0.275,0.445 -1.732,-3.789 -2.059,-5.088 l -1.058,-4.23 c 1.029,2.907 0.304,-12.233 1.71,6.531 -0.315,-26.258 -1.028,-10.719 0.094,-9.125 l 1.064,7.396 0.101,-2.484 z"
       id="path49"
       inkscape:connector-curvature="0"
       style="fill:none;stroke:#000000;stroke-width:0.99949998" /></g></svg>