<?xml version="1.0" encoding="utf-8"?>
<!-- Generator: Adobe Illustrator 16.0.0, SVG Export Plug-In . SVG Version: 6.00 Build 0)  -->
<!DOCTYPE svg PUBLIC "-//W3C//DTD SVG 1.1//EN" "http://www.w3.org/Graphics/SVG/1.1/DTD/svg11.dtd">
<svg version="1.1"
	 id="svg4200" xmlns:dc="http://purl.org/dc/elements/1.1/" xmlns:cc="http://creativecommons.org/ns#" xmlns:rdf="http://www.w3.org/1999/02/22-rdf-syntax-ns#" xmlns:svg="http://www.w3.org/2000/svg" xmlns:sodipodi="http://sodipodi.sourceforge.net/DTD/sodipodi-0.dtd" xmlns:inkscape="http://www.inkscape.org/namespaces/inkscape" sodipodi:docname="wookie_logo_ok.svg" inkscape:version="0.91 r13725"
	 xmlns="http://www.w3.org/2000/svg" xmlns:xlink="http://www.w3.org/1999/xlink" x="0px" y="0px" width="30px" height="30px"
	 viewBox="11.833 0 94.5 66.286" enable-background="new 11.833 0 94.5 66.286" xml:space="preserve">
<filter  id="filter5391" style="color-interpolation-filters:sRGB" inkscape:label="Drop Shadow">
	<feFlood  flood-opacity="0.498039" flood-color="rgb(0,0,0)" result="flood" id="feFlood5393"></feFlood>
	<feComposite  operator="in" in="flood" in2="SourceGraphic" result="composite1" id="feComposite5395"></feComposite>
	<feGaussianBlur  in="composite1" result="blur" stdDeviation="3" id="feGaussianBlur5397"></feGaussianBlur>
	<feOffset  dx="6" dy="6" result="offset" id="feOffset5399"></feOffset>
	<feComposite  operator="over" in="SourceGraphic" in2="offset" result="composite2" id="feComposite5401"></feComposite>
</filter>
<filter  id="filter5379" style="color-interpolation-filters:sRGB" inkscape:label="Drop Shadow">
	<feFlood  flood-opacity="0.498039" flood-color="rgb(0,0,0)" result="flood" id="feFlood5381"></feFlood>
	<feComposite  operator="in" in="flood" in2="SourceGraphic" result="composite1" id="feComposite5383"></feComposite>
	<feGaussianBlur  in="composite1" result="blur" stdDeviation="3" id="feGaussianBlur5385"></feGaussianBlur>
	<feOffset  dx="6" dy="6" result="offset" id="feOffset5387"></feOffset>
	<feComposite  operator="over" in="SourceGraphic" in2="offset" result="composite2" id="feComposite5389"></feComposite>
</filter>
<filter  id="filter5367" style="color-interpolation-filters:sRGB" inkscape:label="Drop Shadow">
	<feFlood  flood-opacity="0.498039" flood-color="rgb(0,0,0)" result="flood" id="feFlood5369"></feFlood>
	<feComposite  operator="in" in="flood" in2="SourceGraphic" result="composite1" id="feComposite5371"></feComposite>
	<feGaussianBlur  in="composite1" result="blur" stdDeviation="3" id="feGaussianBlur5373"></feGaussianBlur>
	<feOffset  dx="6" dy="6" result="offset" id="feOffset5375"></feOffset>
	<feComposite  operator="over" in="SourceGraphic" in2="offset" result="composite2" id="feComposite5377"></feComposite>
</filter>
<sodipodi:namedview  showguides="false" showgrid="false" inkscape:cy="26.688038" inkscape:cx="41.536586" inkscape:zoom="13.615671" borderopacity="1.0" pagecolor="#ffffff" bordercolor="#666666" id="base" inkscape:window-maximized="1" inkscape:window-y="-8" inkscape:window-x="1912" inkscape:window-height="1178" inkscape:window-width="1920" inkscape:current-layer="svg4200" inkscape:document-units="px" inkscape:pageshadow="2" inkscape:pageopacity="0.0">
	<sodipodi:guide  orientation="1,0" position="106.25,962.00002" id="guide4898"></sodipodi:guide>
</sodipodi:namedview>
<ellipse id="path4208" fill="#FF00FF" fill-opacity="0" cx="113.643" cy="213.303" rx="186.284" ry="176"/>
<path id="rect4754" fill="#D4AA00" fill-opacity="0" d="M387.345,157.038h237.072c0.178,0,0.32,0.145,0.32,0.32v291.931
	c0,0.177-0.143,0.319-0.32,0.319H387.345c-0.178,0-0.32-0.144-0.32-0.319V157.358C387.025,157.182,387.167,157.038,387.345,157.038z
	"/>
<g id="g10" enable-background="new    ">
	<path id="path12" d="M68.307,52.079l-8.679-32.189l-8.789,32.189c-0.685,2.441-1.228,4.193-1.629,5.256
		c-0.403,1.061-1.105,2.014-2.106,2.855s-2.332,1.263-3.992,1.263c-1.343,0-2.448-0.25-3.313-0.75
		c-0.867-0.5-1.569-1.209-2.105-2.124c-0.537-0.916-0.977-2.002-1.318-3.26s-0.646-2.422-0.916-3.497l-8.936-36.146
		c-0.537-2.1-0.807-3.699-0.807-4.797c0-1.392,0.488-2.563,1.466-3.516c0.976-0.952,2.185-1.428,3.625-1.428
		c1.978,0,3.308,0.635,3.991,1.904s1.283,3.112,1.795,5.529l7.031,31.348l7.873-29.332c0.586-2.246,1.111-3.955,1.576-5.127
		c0.463-1.172,1.221-2.186,2.271-3.041c1.049-0.854,2.478-1.281,4.284-1.281c1.832,0,3.254,0.445,4.267,1.336
		c1.013,0.893,1.715,1.861,2.106,2.912c0.39,1.05,0.916,2.783,1.574,5.199l7.947,29.334l7.031-31.349
		c0.342-1.635,0.665-2.917,0.97-3.845c0.306-0.928,0.83-1.758,1.575-2.49c0.744-0.732,1.824-1.1,3.24-1.1s2.619,0.471,3.607,1.41
		c0.989,0.94,1.483,2.119,1.483,3.535c0,1-0.269,2.6-0.806,4.797l-8.937,36.145c-0.61,2.441-1.117,4.229-1.521,5.365
		c-0.402,1.135-1.086,2.13-2.051,2.984c-0.965,0.854-2.326,1.281-4.082,1.281c-1.662,0-2.992-0.416-3.992-1.244
		c-1.002-0.83-1.697-1.765-2.088-2.802C69.564,56.37,69.015,54.594,68.307,52.079z"/>
</g>
<g id="g24" enable-background="new    ">
	<path id="path26" fill="none" stroke="#000000" d="M68.307,52.079l-8.679-32.189l-8.789,32.189
		c-0.685,2.441-1.228,4.193-1.629,5.256c-0.403,1.061-1.105,2.014-2.106,2.855s-2.332,1.263-3.992,1.263
		c-1.343,0-2.448-0.25-3.313-0.75c-0.867-0.5-1.569-1.209-2.105-2.124c-0.537-0.916-0.977-2.002-1.318-3.26
		s-0.646-2.422-0.916-3.497l-8.936-36.146c-0.537-2.1-0.807-3.699-0.807-4.797c0-1.392,0.488-2.563,1.466-3.516
		c0.976-0.952,2.185-1.428,3.625-1.428c1.978,0,3.308,0.635,3.991,1.904s1.283,3.112,1.795,5.529l7.031,31.348l7.873-29.332
		c0.586-2.246,1.111-3.955,1.576-5.127c0.463-1.172,1.221-2.186,2.271-3.041c1.049-0.854,2.478-1.281,4.284-1.281
		c1.832,0,3.254,0.445,4.267,1.336c1.013,0.893,1.715,1.861,2.106,2.912c0.39,1.05,0.916,2.783,1.574,5.199l7.947,29.334
		l7.031-31.349c0.342-1.635,0.665-2.917,0.97-3.845c0.306-0.928,0.83-1.758,1.575-2.49c0.744-0.732,1.824-1.1,3.24-1.1
		s2.619,0.471,3.607,1.41c0.989,0.94,1.483,2.119,1.483,3.535c0,1-0.269,2.6-0.806,4.797l-8.937,36.145
		c-0.61,2.441-1.117,4.229-1.521,5.365c-0.402,1.135-1.086,2.13-2.051,2.984c-0.965,0.854-2.326,1.281-4.082,1.281
		c-1.662,0-2.992-0.416-3.992-1.244c-1.002-0.83-1.697-1.765-2.088-2.802C69.564,56.37,69.015,54.594,68.307,52.079z"/>
</g>
<path id="path4775" inkscape:connector-curvature="0" fill="#D4AA00" fill-opacity="0" d="M21.805,8.159
	c-2.165-0.721-4.3-1.529-6.45-2.288c-1.175-0.446-2.331-0.954-3.578-1.149c-0.675-0.082-1.355-0.067-2.035-0.063
	c-0.791,0.03-1.584,0.205-2.348,0.413c-0.727,0.146-1.42,0.39-2.131,0.588C4.636,5.815,4.099,6.17,3.498,6.395
	C1.957,6.977-1.097,8.85,5.112,5.303c-0.661,0.418-1.327,0.85-1.896,1.391C2.775,7.28,2.777,7.549,3.365,7.963
	c1.006,0.496,2.11,0.703,3.211,0.862c1.754,0.229,3.496,0.531,5.237,0.839c1.604,0.244,3.206,0.492,4.821,0.639
	c1.238,0.104,2.48,0.117,3.721,0.125c0.973,0,1.943,0,2.915-0.006c0.7-0.023,1.385-0.024,2.074,0.098
	c0.61,0.189,1.214,0.373,1.805,0.617c0.808,0.406,1.576,0.885,2.34,1.365c0.132,0.074,0.263,0.148,0.394,0.223l-3.494,2.27l0,0
	c-0.133-0.078-0.266-0.158-0.398-0.236c-0.75-0.467-1.505-0.938-2.318-1.287c-0.575-0.213-1.157-0.41-1.758-0.539
	c-0.668-0.088-1.344-0.047-2.018-0.057c-0.968-0.002-1.938,0.002-2.904-0.007c-1.24-0.017-2.479-0.058-3.713-0.174
	c-1.613-0.171-3.218-0.419-4.82-0.677c-1.748-0.303-3.494-0.615-5.256-0.816c-1.158-0.188-2.352-0.404-3.377-1.001
	c-0.684-0.556-0.89-1.053-0.461-1.876c0.471-0.646,1.205-1.059,1.854-1.509c1.859-1.078,3.582-2.25,5.57-3.009
	c0.59-0.266,1.166-0.557,1.799-0.709c0.697-0.217,1.408-0.373,2.115-0.553C11.5,2.365,12.307,2.176,13.128,2.2
	c0.692,0,1.39,0,2.072,0.135c1.225,0.268,2.355,0.811,3.518,1.27c2.154,0.798,4.306,1.619,6.529,2.21L21.805,8.159L21.805,8.159z"/>
<path id="path4777" inkscape:connector-curvature="0" fill="#D4AA00" fill-opacity="0" d="M25.044,11.18
	c-1.471-0.121-2.901,0.088-4.34,0.373c-1.969,0.567-3.966,1.131-5.832,1.988c-2.152,1.244,1.603-0.926,2.285-1.301
	c0.203-0.111-0.394,0.248-0.582,0.385c-0.589,0.428-1.129,0.928-1.688,1.395c-0.715,0.602-1.48,1.142-2.176,1.765
	c-0.447,0.401-0.853,0.853-1.311,1.241c-1.328,0.999-2.624,1.57-4.244,2.475c-0.293,0.162-0.621,0.27-0.916,0.43
	c-1.472,0.687-0.619,0.3,2.939-1.717c0.098-0.056-0.193,0.114-0.286,0.178c-0.3,0.201-0.569,0.445-0.847,0.677
	c-0.205,0.194-0.688,0.497-0.569,0.866c0.283,0.888,1.758,2,2.369,2.554c2.387,2.073,4.964,3.905,7.472,5.826
	c0.859,0.657,3.196,2.534,4.047,3.214c3.274,2.664,6.518,5.361,9.57,8.279c1.973,1.82,3.712,3.865,5.441,5.912
	c0.894,1.142,1.707,2.344,2.543,3.527c0.592,0.861,1.203,1.708,1.81,2.559l-3.593,2.113l0,0c-0.578-0.865-1.163-1.728-1.764-2.578
	c-0.838-1.172-1.66-2.354-2.508-3.52c-1.642-2.09-3.361-4.116-5.298-5.943c-3.001-2.934-6.202-5.647-9.44-8.318
	c-3.824-3.066-7.78-5.961-11.646-8.977c-0.704-0.59-2.938-2.127-2.768-3.293c0.049-0.324,0.248-0.455,0.459-0.66
	C4.457,20.402,4.716,20.151,5,19.922c1.174-0.949,3.933-2.306,4.166-2.438c0.11-0.063,0.228-0.11,0.34-0.167
	c0.117-0.055,0.231-0.109,0.348-0.163c2.749-1.254-4.551,2.858-2.355,1.411c0.525-0.301,0.89-0.797,1.342-1.189
	c0.684-0.671,1.474-1.209,2.217-1.811c0.724-0.583,1.469-1.371,2.252-1.838c1.369-0.816,2.75-1.61,4.134-2.401
	c0.214-0.122,0.438-0.226,0.658-0.337c1.899-0.785,3.885-1.372,5.868-1.902c1.48-0.275,2.957-0.424,4.466-0.367L25.044,11.18
	L25.044,11.18z"/>
<path id="path4779" inkscape:connector-curvature="0" fill="#D4AA00" fill-opacity="0" d="M28.021,10.713
	c-3.096-2.674-6.539-4.924-10.02-7.061c-0.668-0.355-1.822-1.046-2.617-1.217c-0.442-0.094-0.903-0.096-1.355-0.084
	c-1.847,0.052-3.488,0.779-5.177,1.443C7.169,4.567,6.505,4.84,4.882,5.704c-0.588,0.313-2.342,1.275-1.744,0.98
	c0.65-0.32,1.229-0.791,1.902-1.059c0.422-0.168-0.767,0.493-1.139,0.754c-0.29,0.203-0.564,0.426-0.847,0.637
	c-0.57,0.531-1.647,1.23-1.726,2.103c0.073,0.108,0.022,0.065,0.164,0.113l-3.553,2.259l0,0c-0.277-0.255-0.161-0.107-0.348-0.441
	c-0.012-0.099-0.045-0.195-0.039-0.295C-2.39,9.84-1.318,9.068-0.721,8.52c2.188-1.678,4.467-2.895,6.907-4.297
	c1.849-1.063,3.769-1.991,5.728-2.83c2.144-0.819,4.476-1.825,6.823-1.197c0.718,0.191,1.989,0.988,2.574,1.326
	c3.454,2.265,6.873,4.586,10.235,6.984L28.021,10.713L28.021,10.713z"/>
<path id="path4775-3" inkscape:connector-curvature="0" fill="#D4AA00" fill-opacity="0" d="M23.937,9.124
	c-1.782-0.701-3.539-1.485-5.311-2.223c-0.967-0.434-1.918-0.926-2.945-1.116c-0.555-0.079-1.116-0.065-1.675-0.061
	c-0.651,0.028-1.304,0.198-1.933,0.401c-0.598,0.141-1.169,0.379-1.754,0.57C9.803,6.847,9.361,7.192,8.867,7.412
	C7.599,7.977,5.083,9.796,10.195,6.35c-0.543,0.406-1.092,0.824-1.56,1.352C8.272,8.27,8.273,8.534,8.758,8.934
	c0.827,0.482,1.736,0.684,2.643,0.838c1.443,0.223,2.878,0.516,4.312,0.816c1.32,0.236,2.639,0.477,3.969,0.62
	c1.02,0.101,2.041,0.113,3.063,0.12c0.801,0.002,1.6,0,2.4-0.006c0.576-0.022,1.14-0.023,1.707,0.096
	c0.502,0.184,0.999,0.362,1.486,0.6c0.664,0.395,1.297,0.859,1.926,1.326c0.108,0.072,0.217,0.145,0.324,0.217l-2.877,2.205l0,0
	c-0.109-0.077-0.219-0.154-0.328-0.23c-0.617-0.453-1.238-0.912-1.908-1.251c-0.474-0.208-0.953-0.398-1.447-0.522
	c-0.551-0.088-1.106-0.046-1.66-0.057c-0.798-0.002-1.596,0.002-2.393-0.006c-1.02-0.018-2.04-0.057-3.056-0.17
	c-1.329-0.166-2.649-0.406-3.969-0.658c-1.438-0.294-2.876-0.597-4.327-0.792c-0.953-0.184-1.936-0.393-2.78-0.973
	c-0.562-0.54-0.731-1.024-0.379-1.823C5.85,8.655,6.455,8.256,6.99,7.817c1.529-1.047,2.947-2.186,4.586-2.924
	c0.484-0.258,0.958-0.541,1.479-0.688c0.573-0.211,1.159-0.361,1.741-0.537c0.656-0.176,1.32-0.357,1.998-0.336
	c0.57,0,1.143-0.001,1.705,0.129c1.009,0.262,1.939,0.789,2.896,1.234c1.773,0.775,3.544,1.573,5.375,2.147L23.937,9.124
	L23.937,9.124z"/>
<path id="path4777-3" inkscape:connector-curvature="0" fill="#D4AA00" fill-opacity="0" d="M26.605,12.059
	c-1.211-0.117-2.391,0.086-3.574,0.362c-1.619,0.552-3.264,1.099-4.8,1.932c-1.772,1.208,1.317-0.899,1.88-1.265
	c0.168-0.107-0.323,0.24-0.478,0.373c-0.485,0.417-0.931,0.902-1.39,1.357c-0.589,0.584-1.219,1.107-1.792,1.714
	c-0.368,0.391-0.7,0.827-1.078,1.206c-1.093,0.97-2.16,1.525-3.495,2.402c-0.239,0.158-0.51,0.264-0.754,0.418
	c-1.211,0.668-0.508,0.291,2.421-1.668c0.081-0.055-0.159,0.111-0.235,0.172c-0.247,0.197-0.47,0.433-0.697,0.658
	c-0.17,0.189-0.565,0.482-0.469,0.842c0.233,0.863,1.447,1.944,1.95,2.481c1.966,2.015,4.087,3.796,6.151,5.66
	c0.707,0.639,2.631,2.462,3.33,3.122c2.696,2.588,5.365,5.21,7.879,8.044c1.624,1.77,3.056,3.755,4.479,5.744
	c0.735,1.109,1.406,2.276,2.094,3.428c0.487,0.837,0.991,1.659,1.489,2.487l-2.957,2.053l0,0c-0.477-0.842-0.957-1.68-1.451-2.507
	c-0.691-1.138-1.367-2.286-2.064-3.419c-1.352-2.029-2.769-3.998-4.361-5.773c-2.472-2.851-5.106-5.488-7.771-8.082
	c-3.149-2.979-6.406-5.792-9.588-8.721c-0.58-0.574-2.42-2.068-2.278-3.201c0.039-0.314,0.204-0.441,0.377-0.641
	c0.233-0.221,0.447-0.465,0.681-0.688c0.967-0.92,3.236-2.239,3.43-2.367c0.09-0.061,0.186-0.109,0.279-0.162
	c0.096-0.054,0.189-0.107,0.285-0.159c2.264-1.218-3.746,2.777-1.939,1.371c0.434-0.292,0.733-0.774,1.106-1.157
	c0.562-0.65,1.212-1.174,1.824-1.758c0.596-0.566,1.209-1.332,1.854-1.785c1.126-0.793,2.265-1.564,3.403-2.334
	c0.176-0.118,0.361-0.218,0.541-0.327c1.563-0.763,3.199-1.333,4.83-1.848c1.219-0.269,2.436-0.412,3.677-0.357L26.605,12.059
	L26.605,12.059z"/>
<path id="path4779-7" inkscape:connector-curvature="0" fill="#D4AA00" fill-opacity="0" d="M29.054,11.605
	c-2.549-2.597-5.383-4.784-8.248-6.859c-0.549-0.346-1.5-1.017-2.154-1.182c-0.365-0.092-0.744-0.095-1.117-0.082
	c-1.52,0.05-2.871,0.756-4.262,1.403c-1.385,0.748-1.932,1.015-3.268,1.854C9.521,7.042,8.077,7.977,8.57,7.691
	c0.535-0.312,1.01-0.768,1.564-1.028c0.349-0.163-0.63,0.48-0.937,0.734C8.959,7.593,8.733,7.809,8.5,8.016
	C8.032,8.53,7.144,9.211,7.08,10.057c0.061,0.105,0.019,0.064,0.135,0.11l-2.924,2.194l0,0c-0.229-0.247-0.133-0.104-0.286-0.43
	c-0.011-0.095-0.037-0.189-0.032-0.285c0.045-0.889,0.929-1.639,1.42-2.17c1.801-1.631,3.676-2.813,5.686-4.176
	c1.521-1.031,3.103-1.935,4.715-2.75c1.764-0.795,3.685-1.772,5.617-1.162c0.592,0.187,1.638,0.961,2.119,1.288
	c2.844,2.2,5.658,4.456,8.426,6.786L29.054,11.605L29.054,11.605z"/>
<path id="path4787" sodipodi:nodetypes="cccccccc" inkscape:connector-curvature="0" stroke="#000000" stroke-width="0.6857" d="
	M29.833,10.36c-1.152-2.26,0.182-2.609-2.669-4.117c-1.536-0.943-4.874-2.902-7.134-2.875L19.97,3.388l2.896,1.532
	c1.601,1.105,4.987,3.925,4.839,8.26l1.709-0.252L29.833,10.36z"/>
<path id="path4787-9" sodipodi:nodetypes="cccccccc" inkscape:connector-curvature="0" stroke="#000000" stroke-width="0.8118" d="
	M42.236,57.41c-1.789-2.04,0.281-3.343-3.854-3.347c-2.403-0.811-6.478-1.785-8.668-1.529L28.009,52.6
	c0.881,0.158,2.215,0.451,2.6,0.463c3.398,0.863,8.553,2.979,8.32,6.893l2.654-0.228L42.236,57.41z"/>
<path id="path4787-0" sodipodi:nodetypes="cccccccc" inkscape:connector-curvature="0" stroke="#000000" stroke-width="0.8612" d="
	M31.582,22.809c-1.744-2.355,0.274-2.72-4.039-4.291c-2.324-0.984-6.139-2.523-8.447-1.768l-1.377,0.506l2.532,0.533
	c3.312,0.998,11.199,7.238,10.973,11.758c3.911-9.219-1.163-2.561-0.278-2.284L31.582,22.809z"/>
<path id="path4858" sodipodi:nodetypes="cccaaccascccc" inkscape:connector-curvature="0" d="M30.821,18.844l-1.731-1.075
	c-0.631-0.817,2.393-9.683,0.299-9.652c0.004-0.114-1.075,2.872-1.964,3.349c-1.422,0.762-3.077-0.182-4.409-1.313
	c-2.193-1.861-5.342-8.535-5.342-8.535l-0.343,0.453c0,0,1.55,6.617,2.894,9.285c2.158,4.285,9.18,10.44,7.986,10.176l-0.277-0.063
	l1.031,3.466l1.238-0.896L30.821,18.844z"/>
<path id="path4858-2" sodipodi:nodetypes="cccacc" inkscape:connector-curvature="0" d="M34.123,42.49
	c-2.928-1.806-7.289-9.214-7.289-9.214l-1.311,0.412c0,0,2.873,7.791,5.005,10.79c3.307,4.655,13.235,10.625,11.622,10.546
	C46.648,56.028,36.916,43.79,34.123,42.49L34.123,42.49z"/>
<g id="path4877" sodipodi:nodetypes="ccccc" inkscape:connector-curvature="0" filter="url(#filter5367)">
	<path d="M20.21,17.341l0.412-0.205c4.322,8.817,16.625,8.685,14.674,16.772c-1.309,0.055-10.352-7.955-10.352-7.955
		C19.343,19.984,21.068,17.191,20.21,17.341z"/>
</g>
<g id="path4879" sodipodi:nodetypes="scacccccccs" inkscape:connector-curvature="0" filter="url(#filter5379)">
	<path d="M15.605,24.326c-0.541-1.519,1.365-0.425,1.365-0.425s1.309,0.68,1.974,0.984c1.099,0.505,2.221,0.939,3.333,1.401
		c8.391,2.983,2.615,0.999,14.215,6.073l0.759,3.48l-0.151,4.016l-2.596,0.323l-0.883-0.385c-3.835-3.312-8.409-5.944-11.805-8.981
		C19.608,28.779,15.605,24.326,15.605,24.326L15.605,24.326z"/>
</g>
<g id="path4896" sodipodi:nodetypes="ccscsssssccccc" inkscape:connector-curvature="0" filter="url(#filter5391)">
	<path d="M41.576,52.228l-4.697-5.099c0,0,5.148,1.164-1.341-1.395c-3.415-1.346-4.055,0.744-2.051-0.602
		c0.01,0.029-9.649-4.558-14.319-3.482c-0.582,0.134,0.814-0.275,3.541,1.123c3.34,1.712,4.404,2.461,7.408,5.283
		c13.957,13.116,13.734,7.728,11.607,11.172c-0.275,0.445-1.732-3.789-2.059-5.088l-1.058-4.23c1.029,2.907,0.304-12.233,1.71,6.531
		c-0.315-26.258-1.028-10.719,0.094-9.125l1.064,7.396L41.576,52.228z"/>
	<path fill="none" stroke="#000000" stroke-width="0.9995" d="M41.576,52.228l-4.697-5.099c0,0,5.148,1.164-1.341-1.395
		c-3.415-1.346-4.055,0.744-2.051-0.602c0.01,0.029-9.649-4.558-14.319-3.482c-0.582,0.134,0.814-0.275,3.541,1.123
		c3.34,1.712,4.404,2.461,7.408,5.283c13.957,13.116,13.734,7.728,11.607,11.172c-0.275,0.445-1.732-3.789-2.059-5.088l-1.058-4.23
		c1.029,2.907,0.304-12.233,1.71,6.531c-0.315-26.258-1.028-10.719,0.094-9.125l1.064,7.396L41.576,52.228z"/>
</g>
</svg>
