<svg xmlns="http://www.w3.org/2000/svg" width="24" height="24"  xmlns:v="https://vecta.io/nano"><g transform="matrix(.068571 0 0 .068571 -1.714286 -1.714286)"><path d="M200 375c96.66 0 175-78.34 175-175S296.66 25 200 25 25 103.34 25 200s78.34 175 175 175" fill="#1fb1e9"/><path d="M51.421 236.094v-66.206c0-3.828 3.11-7.075 7.075-7.075 3.828 0 6.973 3.247 6.973 7.075v61.318H95.24c3.35 0 6.255 2.769 6.255 6.118 0 3.486-2.871 6.255-6.255 6.255H58.838c-4.785-.034-7.417-2.666-7.417-7.485zm131.011.957a7.24 7.24 0 0 1-7.212 7.212c-3.008 0-5.64-1.914-6.597-4.546l-4.204-11.519h-38.384l-4.204 11.519c-.957 2.632-3.589 4.546-6.597 4.546a7.24 7.24 0 0 1-7.212-7.212c0-.854.376-1.812.615-2.529l25.088-63.813c1.812-4.546 6.255-7.93 11.519-7.93s9.707 3.35 11.519 7.93l25.088 63.813c.205.752.581 1.709.581 2.529zm-22.456-21.226l-14.731-40.435-14.766 40.435zm103.325 21.363v-54.243l-23.892 58.789c-.615 1.572-2.051 2.529-3.726 2.529s-3.11-.957-3.726-2.529l-23.755-58.789v54.243c0 3.828-3.11 7.075-6.973 7.075-3.965 0-7.075-3.247-7.075-7.075v-62.754c0-6.357 5.161-11.621 11.621-11.621 4.922 0 9.126 3.008 10.801 7.314l19.072 47.271 19.209-47.271c1.675-4.307 5.879-7.314 10.801-7.314 6.494 0 11.621 5.264 11.621 11.621v62.754c0 3.828-3.11 7.075-7.075 7.075-3.794 0-6.904-3.247-6.904-7.075zm27.583-6.255c0-3.726 3.008-6.733 6.597-6.733 1.572 0 3.008.479 4.067 1.333 5.503 4.067 12.373 6.973 20.747 6.973 11.519 0 16.064-5.64 16.064-10.903 0-7.212-8.511-9.365-18.252-11.895-13.091-3.247-28.438-7.075-28.438-23.994 0-13.193 11.621-23.413 30.352-23.413 9.365 0 16.919 2.393 24.712 7.314 1.812 1.094 3.008 3.11 3.008 5.4 0 3.589-3.008 6.597-6.597 6.597-1.436 0-2.769-.479-3.726-1.196-5.742-3.828-12.476-5.64-18.594-5.64-9.468 0-14.766 3.965-14.766 9.946 0 6.255 8.169 8.271 17.637 10.664 13.193 3.35 28.916 7.451 28.916 24.849 0 13.33-9.365 24.712-30.967 24.712-11.895 0-21.123-3.35-28.198-8.75-1.47-1.162-2.563-3.076-2.563-5.264z" enable-background="new" fill="#fff"/></g></svg>