<?xml version="1.0" encoding="UTF-8" standalone="no"?>
<!-- Created with Inkscape (http://www.inkscape.org/) -->

<svg
   xmlns:dc="http://purl.org/dc/elements/1.1/"
   xmlns:cc="http://creativecommons.org/ns#"
   xmlns:rdf="http://www.w3.org/1999/02/22-rdf-syntax-ns#"
   xmlns:svg="http://www.w3.org/2000/svg"
   xmlns="http://www.w3.org/2000/svg"
   xmlns:sodipodi="http://sodipodi.sourceforge.net/DTD/sodipodi-0.dtd"
   xmlns:inkscape="http://www.inkscape.org/namespaces/inkscape"
   width="24"
   height="24"
   id="svg3214"
   version="1.1"
   inkscape:version="0.48.2 r9819"
   sodipodi:docname="lams.svg"
   inkscape:export-filename="/tmp/lams.png"
   inkscape:export-xdpi="90"
   inkscape:export-ydpi="90">
  <defs
     id="defs3216">
    <inkscape:perspective
       sodipodi:type="inkscape:persp3d"
       inkscape:vp_x="-9.7242229 : 6.5224317 : 1"
       inkscape:vp_y="0 : 1000 : 0"
       inkscape:vp_z="17.414609 : 9.1688973 : 1"
       inkscape:persp3d-origin="12 : 8 : 1"
       id="perspective3226" />
  </defs>
  <sodipodi:namedview
     id="base"
     pagecolor="#ffffff"
     bordercolor="#666666"
     borderopacity="1.0"
     inkscape:pageopacity="0.0"
     inkscape:pageshadow="2"
     inkscape:zoom="11.430329"
     inkscape:cx="27.324407"
     inkscape:cy="22.199681"
     inkscape:document-units="px"
     inkscape:current-layer="layer1"
     showgrid="false"
     inkscape:window-width="1920"
     inkscape:window-height="1056"
     inkscape:window-x="1920"
     inkscape:window-y="24"
     inkscape:window-maximized="1" />
  <metadata
     id="metadata3219">
    <rdf:RDF>
      <cc:Work
         rdf:about="">
        <dc:format>image/svg+xml</dc:format>
        <dc:type
           rdf:resource="http://purl.org/dc/dcmitype/StillImage" />
        <dc:title></dc:title>
      </cc:Work>
    </rdf:RDF>
  </metadata>
  <g
     inkscape:label="Layer 1"
     inkscape:groupmode="layer"
     id="layer1"
     transform="translate(0,-1028.3622)">
    <rect
       style="fill:#fff6d5;fill-opacity:1"
       id="rect3222"
       width="9.3880405"
       height="5.8269715"
       x="0.93047005"
       y="1029.2827" />
    <path
       style="fill:none;stroke:#000000;stroke-width:0.43606502;stroke-linecap:round;stroke-linejoin:round;stroke-miterlimit:4;stroke-opacity:1;stroke-dasharray:none;stroke-dashoffset:0"
       d="m 0.92563547,1030.6034 9.33740353,0 0,4.4119 -9.40814153,0 0.070738,-4.4119 z"
       id="path5508"
       inkscape:connector-curvature="0" />
    <rect
       style="fill:#add8e6;fill-opacity:1"
       id="rect3222-0"
       width="9.3880405"
       height="5.8269715"
       x="13.9446"
       y="1029.3699" />
    <path
       style="fill:none;stroke:#000000;stroke-width:0.43606502;stroke-linecap:round;stroke-linejoin:round;stroke-miterlimit:4;stroke-opacity:1;stroke-dasharray:none;stroke-dashoffset:0"
       d="m 13.939765,1030.6907 9.337404,0 0,4.4119 -9.408142,0 0.07074,-4.4119 z"
       id="path5508-0"
       inkscape:connector-curvature="0" />
    <rect
       style="fill:#fafad2;fill-opacity:1"
       id="rect3222-0-6-4"
       width="9.3880405"
       height="5.8269715"
       x="14.09695"
       y="1037.1902" />
    <path
       style="fill:#ffffe0;stroke:#000000;stroke-width:0.43606502000000003;stroke-linecap:round;stroke-linejoin:round;stroke-miterlimit:4;stroke-opacity:1;stroke-dasharray:none;stroke-dashoffset:0"
       d="m 14.092115,1038.511 9.337404,0 0,4.4119 -9.408142,0 0.07074,-4.4119 z"
       id="path5508-0-7-8"
       inkscape:connector-curvature="0" />
    <rect
       style="fill:#fa8072;fill-opacity:1"
       id="rect3222-0-6-9"
       width="9.3880405"
       height="5.8269715"
       x="14.025205"
       y="1045.2974" />
    <path
       style="fill:#fa8072;stroke:#000000;stroke-width:0.43606502000000003;stroke-linecap:round;stroke-linejoin:round;stroke-miterlimit:4;stroke-opacity:1;stroke-dasharray:none;stroke-dashoffset:0"
       d="m 14.02037,1046.6182 9.337405,0 0,4.4119 -9.408143,0 0.07074,-4.4119 z"
       id="path5508-0-7-9"
       inkscape:connector-curvature="0" />
    <path
       style="fill:none;stroke:#000000;stroke-width:0.6;stroke-linecap:butt;stroke-linejoin:miter;stroke-opacity:1;stroke-miterlimit:4;stroke-dasharray:none;marker-start:none"
       d="m 13.775042,4.4853566 -3.44376,0.071745 0,0"
       id="path5582"
       inkscape:connector-curvature="0"
       transform="translate(0,1028.3622)" />
    <path
       style="fill:none;stroke:#000000;stroke-width:0.6;stroke-linecap:butt;stroke-linejoin:miter;stroke-opacity:1;stroke-miterlimit:4;stroke-dasharray:none"
       d="m 9.9725567,15.462344 4.0177203,-3.156781 0,0"
       id="path6394"
       inkscape:connector-curvature="0"
       transform="translate(0,1028.3622)" />
    <path
       style="fill:none;stroke:#000000;stroke-width:0.6;stroke-linecap:butt;stroke-linejoin:miter;stroke-opacity:1;stroke-miterlimit:4;stroke-dasharray:none"
       d="m 10.044302,16.251539 3.87423,4.3047 0,0"
       id="path6396"
       inkscape:connector-curvature="0"
       transform="translate(0,1028.3622)" />
    <path
       style="fill:none;stroke:#000000;stroke-width:0.6;stroke-linecap:butt;stroke-linejoin:miter;stroke-opacity:1;stroke-miterlimit:4;stroke-dasharray:none"
       d="m 15.135173,6.5901773 -9.9734668,6.9114367 0,0.08749"
       id="path6417"
       inkscape:connector-curvature="0"
       transform="translate(0,1028.3622)" />
    <rect
       style="fill:#98fb98;fill-opacity:1"
       id="rect3222-0-6"
       width="9.3880405"
       height="5.8269715"
       x="0.79566735"
       y="1040.8132" />
    <path
       style="fill:#98fb98;stroke:#000000;stroke-width:0.43606502;stroke-linecap:round;stroke-linejoin:round;stroke-miterlimit:4;stroke-opacity:1;stroke-dasharray:none;stroke-dashoffset:0"
       d="m 0.7908326,1042.134 9.3374044,0 0,4.4119 -9.4081424,0 0.07074,-4.4119 z"
       id="path5508-0-7"
       inkscape:connector-curvature="0" />
    <path
       sodipodi:type="star"
       style="opacity:0.72999999999999998;fill:#228b22;fill-opacity:1;stroke-width:0.60000001999999997;stroke-linecap:round;stroke-linejoin:bevel;stroke-miterlimit:4;stroke-dasharray:none;stroke-dashoffset:0"
       id="path6453"
       sodipodi:sides="5"
       sodipodi:cx="4.8992467"
       sodipodi:cy="3.7906077"
       sodipodi:r1="1.5051755"
       sodipodi:r2="0.75258774"
       sodipodi:arg1="0.95054684"
       sodipodi:arg2="1.5788654"
       inkscape:flatsided="false"
       inkscape:rounded="0"
       inkscape:randomized="0"
       d="M 5.7741122,5.0154194 4.8931741,4.5431709 4.0047299,5.0011418 4.18164,4.0173871 3.4715394,3.3139473 4.461814,3.1782018 4.9113919,2.2854812 5.3465051,3.1853406 6.3344601,3.3370488 5.6131003,4.0289379 z"
       transform="translate(0.69989237,1029.0621)"
       inkscape:transform-center-x="-0.0037530721"
       inkscape:transform-center-y="-0.1401574" />
    <path
       sodipodi:type="arc"
       style="opacity:0.73000004;fill:#8b0000;fill-opacity:1;stroke-width:0.60000002;stroke-linecap:round;stroke-linejoin:bevel;stroke-miterlimit:4;stroke-dasharray:none;stroke-dashoffset:0"
       id="path6457"
       sodipodi:cx="9.3610601"
       sodipodi:cy="-17.68734"
       sodipodi:rx="1.5747578"
       sodipodi:ry="1.6185011"
       d="m 10.935818,-17.68734 a 1.5747578,1.6185011 0 1 1 -3.1495157,0 1.5747578,1.6185011 0 1 1 3.1495157,0 z"
       transform="matrix(0.77777777,0,0,0.70270269,11.178837,1045.3691)" />
    <path
       sodipodi:type="star"
       style="opacity:0.73000004;fill:#191970;fill-opacity:1;stroke-width:0.60000002;stroke-linecap:round;stroke-linejoin:bevel;stroke-miterlimit:4;stroke-dasharray:none;stroke-dashoffset:0"
       id="path6461"
       sodipodi:sides="5"
       sodipodi:cx="4.6367869"
       sodipodi:cy="-17.818569"
       sodipodi:r1="1.6622444"
       sodipodi:r2="1.3816864"
       sodipodi:arg1="-1.5707963"
       sodipodi:arg2="-0.9424778"
       inkscape:flatsided="false"
       inkscape:rounded="0"
       inkscape:randomized="0"
       d="m 4.636787,-19.480814 0.8121349,0.544437 0.7687535,0.604146 -0.2668266,0.940626 -0.3370191,0.91782 -0.9770428,0.0369 -0.9770428,-0.0369 -0.3370191,-0.91782 -0.2668265,-0.940626 0.7687535,-0.604146 z"
       transform="matrix(0.88931977,0,0,0.91377608,1.0381199,1060.6273)"
       inkscape:transform-center-y="-0.12817149" />
    <path
       sodipodi:type="spiral"
       style="fill:none;stroke:#00dc1d;stroke-width:0.30000000999999998;stroke-linecap:butt;stroke-linejoin:miter;stroke-miterlimit:3.70000004999999987;stroke-opacity:1;stroke-dasharray:none"
       id="path6463"
       sodipodi:cx="-18.372175"
       sodipodi:cy="-15.193973"
       sodipodi:expansion="1"
       sodipodi:revolution="2.9827797"
       sodipodi:radius="3.6585174"
       sodipodi:argument="-17.774311"
       sodipodi:t0="0"
       d="m -18.372175,-15.193973 c 0.08773,0.162299 -0.175493,0.198329 -0.26975,0.145811 -0.255433,-0.14232 -0.194908,-0.505815 -0.02187,-0.685311 0.309522,-0.321077 0.832536,-0.213519 1.100872,0.102068 0.393795,0.463136 0.234095,1.164199 -0.226007,1.516433 -0.613244,0.469473 -1.497685,0.255594 -1.931994,-0.349946 -0.546534,-0.762011 -0.277587,-1.832056 0.473886,-2.347556 0.910133,-0.62434 2.166927,-0.299869 2.763116,0.597825 0.702589,1.057902 0.322333,2.502112 -0.721764,3.178678 -1.205453,0.781122 -2.837506,0.344919 -3.594239,-0.845704 -0.859848,-1.352862 -0.36759,-3.173046 0.969643,-4.0098 1.500174,-0.938711 3.508694,-0.390322 4.425361,1.093583 0.93742,1.517499 0.507388,3.537565 -0.890191,4.615657"
       transform="matrix(0.48641612,0,0,0.41726269,27.509301,1047.0667)" />
    <rect
       style="opacity:0.73000004;fill:#000080;fill-opacity:1;stroke:#00dc1d;stroke-width:0.32610762;stroke-linecap:round;stroke-linejoin:bevel;stroke-miterlimit:3.70000005;stroke-opacity:1;stroke-dasharray:none;stroke-dashoffset:0"
       id="rect6465"
       width="2.5110021"
       height="2.161056"
       x="17.247904"
       y="1047.5634" />
  </g>
</svg>
