<?xml version="1.0" encoding="UTF-8" standalone="no"?>
<svg
   xmlns:dc="http://purl.org/dc/elements/1.1/"
   xmlns:cc="http://creativecommons.org/ns#"
   xmlns:rdf="http://www.w3.org/1999/02/22-rdf-syntax-ns#"
   xmlns:svg="http://www.w3.org/2000/svg"
   xmlns="http://www.w3.org/2000/svg"
   id="svg41"
   xml:space="preserve"
   style="enable-background:new 0 0 512 512;"
   viewBox="0 0 512 512"
   y="0px"
   x="0px"
   version="1.1"><metadata
   id="metadata47"><rdf:RDF><cc:Work
       rdf:about=""><dc:format>image/svg+xml</dc:format><dc:type
         rdf:resource="http://purl.org/dc/dcmitype/StillImage" /><dc:title></dc:title></cc:Work></rdf:RDF></metadata><defs
   id="defs45">
	

		
		
		
			
		
		
	</defs>

<g
   transform="matrix(1.1368379,0,0,1.1368379,-0.13683788,-33.926165)"
   id="g158"><g
     id="XMLID_258_"
     transform="matrix(1.2047449,0,0,1.2047449,-55.487898,-48.501831)">
			<path
   id="XMLID_34_"
   style="fill:#87cb9d"
   d="m 217.957,162.502 v 112.791 c 0,0.906 -0.734,1.64 -1.64,1.64 h -75.763 v 18.58 24.655 c 0,1.92 -2.398,2.792 -3.631,1.319 L 90.763,276.933 H 70.58 c -0.906,0 -1.64,-0.733 -1.64,-1.639 V 162.502 c 0,-0.905 0.734,-1.64 1.64,-1.64 h 145.737 c 0.906,0.001 1.64,0.736 1.64,1.64 z" />
			
				<path
   id="XMLID_265_"
   style="fill:none;stroke:#111342;stroke-width:15.8863;stroke-linecap:round;stroke-linejoin:round;stroke-miterlimit:10"
   d="M 169.483,119.91 V 79.965 c 0,-1.039 0.842,-1.881 1.881,-1.881 h 213.071 c 1.04,0 1.881,0.843 1.881,1.881 v 128.94 c 0,1.039 -0.842,1.881 -1.881,1.881 h -28.534 v 21.241 28.188 c 0,2.195 -2.743,3.192 -4.152,1.508 l -52.775,-50.937 h -65.361" />
			
				<path
   id="XMLID_264_"
   style="fill:none;stroke:#111342;stroke-width:15.8863;stroke-linecap:round;stroke-linejoin:round;stroke-miterlimit:10"
   d="M 225.202,147.387 V 276.34 c 0,1.036 -0.839,1.875 -1.875,1.875 h -86.619 v 21.242 28.188 c 0,2.195 -2.742,3.192 -4.151,1.508 L 79.783,278.215 H 56.706 c -1.035,0 -1.875,-0.839 -1.875,-1.874 V 147.387 c 0,-1.034 0.839,-1.875 1.875,-1.875 h 166.62 c 1.036,0 1.876,0.84 1.876,1.875 z" />
			
				<line
   id="XMLID_256_"
   style="fill:none;stroke:#111342;stroke-width:15.8863;stroke-linecap:round;stroke-linejoin:round;stroke-miterlimit:10"
   x1="206.069"
   y1="113.079"
   x2="341.358"
   y2="113.079" />
			
				<line
   id="XMLID_255_"
   style="fill:none;stroke:#111342;stroke-width:15.8863;stroke-linecap:round;stroke-linejoin:round;stroke-miterlimit:10"
   x1="256.73999"
   y1="147.076"
   x2="341.358"
   y2="147.076" />
			
				<line
   id="XMLID_1_"
   style="fill:none;stroke:#111342;stroke-width:15.8863;stroke-linecap:round;stroke-linejoin:round;stroke-miterlimit:10"
   x1="256.73999"
   y1="178.36301"
   x2="341.358"
   y2="178.36301" />
		</g><path
     style="fill:none;stroke:#111342;stroke-width:19.1389;stroke-linecap:round;stroke-linejoin:round;stroke-miterlimit:10"
     d="m 119.92175,168.84017 9.57532,19.40121 c 0.64333,1.30233 1.88542,2.20589 3.32268,2.41431 l 21.41073,3.11065 c 3.62026,0.52648 5.06475,4.9744 2.44563,7.52725 l -15.49302,15.10148 c -1.03969,1.01439 -1.51436,2.47454 -1.26859,3.90578 l 3.6576,21.32399 c 0.61804,3.60459 -3.16607,6.35382 -6.40322,4.65272 l -19.15062,-10.06805 c -1.28547,-0.67586 -2.82151,-0.67586 -4.10698,0 l -19.150623,10.06805 c -3.237149,1.70231 -7.021253,-1.04692 -6.403219,-4.65272 l 3.657606,-21.32399 c 0.245768,-1.43124 -0.228902,-2.89259 -1.269801,-3.90578 l -15.49302,-15.10148 c -2.619115,-2.55285 -1.173421,-7.00198 2.445632,-7.52725 l 21.410727,-3.11065 c 1.437258,-0.20842 2.680558,-1.11198 3.322688,-2.41431 l 9.57531,-19.40121 c 1.61918,-3.28052 6.2972,-3.28052 7.91517,0 z"
     id="path19" /><g
     id="g27"
     transform="matrix(1.2047449,0,0,1.2047449,-55.487898,-48.501831)">
			<g
   id="g23">
				
					<path
   style="fill:none;stroke:#111342;stroke-width:13.7869;stroke-linecap:round;stroke-linejoin:round;stroke-miterlimit:10"
   d="m 199.176,346.167 c 0,4.569 -1.407,13.347 -3.738,16.576 -2.885,3.995 -7.186,6.53 -11.991,6.53 -3.947,0 -7.554,-1.711 -10.316,-4.536 -3.317,-3.394 -5.413,-12.991 -5.413,-18.569 0,-10.223 7.042,-13.914 15.729,-13.914 8.687,0 15.729,3.691 15.729,13.913 z"
   id="path21" />
			</g>
			
				<path
   style="fill:none;stroke:#111342;stroke-width:13.7869;stroke-linecap:round;stroke-linejoin:round;stroke-miterlimit:10"
   d="M 143.449,425.217 V 400.86 c 0,-9.392 7.614,-17.006 17.006,-17.006 h 7.343 l 15.272,13.644 15.611,-13.644 h 4.72 c 9.392,0 17.006,7.614 17.006,17.006 v 25.997"
   id="path25" />
		</g><g
     id="g35"
     transform="matrix(1.2047449,0,0,1.2047449,-55.487898,-48.501831)">
			<g
   id="g31">
				
					<path
   style="fill:none;stroke:#111342;stroke-width:13.7869;stroke-linecap:round;stroke-linejoin:round;stroke-miterlimit:10"
   d="m 391.135,346.167 c 0,4.569 -1.407,13.347 -3.738,16.576 -2.885,3.995 -7.186,6.53 -11.991,6.53 -3.947,0 -7.554,-1.711 -10.316,-4.536 -3.317,-3.394 -5.413,-12.991 -5.413,-18.569 0,-10.223 7.042,-13.914 15.729,-13.914 8.687,-0.001 15.729,3.691 15.729,13.913 z"
   id="path29" />
			</g>
			
				<path
   style="fill:none;stroke:#111342;stroke-width:13.7869;stroke-linecap:round;stroke-linejoin:round;stroke-miterlimit:10"
   d="M 335.408,425.217 V 400.86 c 0,-9.392 7.614,-17.006 17.006,-17.006 h 7.343 l 15.272,13.644 15.611,-13.644 h 4.72 c 9.392,0 17.006,7.614 17.006,17.006 v 25.997"
   id="path33" />
		</g><g
     id="Layer_1"
     transform="matrix(1.2047449,0,0,1.2047449,-55.487898,-48.501831)">
</g></g>
</svg>
