<?xml version="1.0" encoding="UTF-8"?><svg class="peerreview" xmlns="http://www.w3.org/2000/svg" xmlns:xlink="http://www.w3.org/1999/xlink" viewBox="0 0 512 512"><style><![CDATA[svg.peerreview .Bp1{fill-opacity:.6}svg.peerreview .Cp1{stroke:#111342}svg.peerreview .Dp1{stroke-linejoin:round}svg.peerreview .Ep1{stroke-miterlimit:10}svg.peerreview .Fp1{stroke-linecap:round}svg.peerreview .Gp1{stroke-width:19.139}svg.peerreview .Hp1{stroke-width:16.61}]]></style><g transform="matrix(1.136838 0 0 1.136838 -.136838 -33.926165)"><g fill="#fff" class="Bp1"><path d="M158.02 54.963h243.428v156.105h-26.915l-7.775 40.671-62.058-46.297-146.68 5.626z"/><path d="M13.279 127.932h199.767v155.507H13.279z"/></g><path d="M207.095 147.272v135.884c0 1.091-.884 1.976-1.976 1.976h-91.275v22.384 29.703c0 2.313-2.889 3.364-4.374 1.589l-55.611-53.676H29.543c-1.091 0-1.976-.883-1.976-1.975V147.272c0-1.09.884-1.976 1.976-1.976h175.576a1.98 1.98 0 0 1 1.976 1.976z" fill="#2dbce9"/><g fill="none" class="Cp1 Dp1 Ep1 Gp1"><path d="M148.696 95.959V47.836c0-1.252 1.014-2.266 2.266-2.266h256.696c1.253 0 2.266 1.016 2.266 2.266v155.34c0 1.252-1.014 2.266-2.266 2.266h-34.376v25.59 33.959c0 2.644-3.305 3.846-5.002 1.817l-63.58-61.366h-78.743" class="Fp1"/><path d="M215.823 129.062v155.355a2.26 2.26 0 0 1-2.259 2.259H109.21v25.591 33.959c0 2.644-3.303 3.846-5.001 1.817L40.63 286.676H12.828a2.26 2.26 0 0 1-2.259-2.258V129.062a2.26 2.26 0 0 1 2.259-2.259h200.735a2.26 2.26 0 0 1 2.26 2.259z"/><path d="M192.773 87.73h162.989m-101.944 40.957h101.943M253.818 166.38h101.943" class="Fp1"/></g><g fill="#fff" class="Bp1 Cp1 Dp1 Ep1"><path d="M119.922 168.84l9.575 19.401c.643 1.302 1.885 2.206 3.323 2.414l21.411 3.111c3.62.526 5.065 4.974 2.446 7.527l-15.493 15.101c-1.04 1.014-1.514 2.475-1.269 3.906l3.658 21.324c.618 3.605-3.166 6.354-6.403 4.653l-19.151-10.068c-1.285-.676-2.822-.676-4.107 0l-19.151 10.068c-3.237 1.702-7.021-1.047-6.403-4.653l3.658-21.324a4.41 4.41 0 0 0-1.27-3.906l-15.493-15.101c-2.619-2.553-1.173-7.002 2.446-7.527l21.411-3.111a4.41 4.41 0 0 0 3.323-2.414l9.575-19.401c1.619-3.281 6.297-3.281 7.915 0z" class="Gp1"/><g class="Hp1"><use xlink:href="#Bp1"/><use xlink:href="#Cp1" class="Fp1"/></g></g><g fill="#2dbce9" class="Cp1 Dp1 Ep1 Hp1"><use xlink:href="#Bp1" x="231.262"/><use xlink:href="#Cp1" x="231.261" class="Fp1"/></g></g><defs ><path id="Bp1" d="M184.468 368.541c0 5.504-1.695 16.08-4.503 19.97-3.476 4.813-8.657 7.867-14.446 7.867-4.755 0-9.101-2.061-12.428-5.465-3.996-4.089-6.521-15.651-6.521-22.371 0-12.316 8.484-16.763 18.949-16.763s18.949 4.447 18.949 16.762z"/><path id="Cp1" d="M117.332 463.776v-29.344c0-11.315 9.173-20.488 20.488-20.488h8.846l18.399 16.438 18.807-16.438h5.686c11.315 0 20.488 9.173 20.488 20.488v31.32"/></defs></svg>
