<?xml version="1.0" encoding="UTF-8"?><svg class="chat" xmlns="http://www.w3.org/2000/svg" xmlns:xlink="http://www.w3.org/1999/xlink" viewBox="0 0 512 512"><path stroke-miterlimit="10" stroke-linejoin="round" stroke-width="15.913" stroke="#111342" fill="#fff" d="M91.487 41.457h329.025c45.426 0 82.262 36.825 82.262 82.262v151.58c0 45.426-36.825 82.262-82.262 82.262H254.666a5.5 5.5 0 0 0-4.414 2.223l-79.946 108.252c-4.714 6.379-14.846 3.05-14.846-4.89V363.039c0-3.029-2.45-5.479-5.479-5.479H91.487c-45.426 0-82.262-36.825-82.262-82.262v-151.59c0-45.426 36.835-82.251 82.262-82.251z"/><path fill="#ffcf60" d="M367.219 205.391c0 15.146 12.282 27.417 27.417 27.417 15.146 0 27.417-12.272 27.417-27.417s-12.272-27.417-27.417-27.417c-15.125-.01-27.417 12.261-27.417 27.417zm-140.786 0c0 15.146 12.272 27.427 27.407 27.427 15.156 0 27.427-12.282 27.427-27.427 0-15.156-12.272-27.427-27.427-27.427-15.125 0-27.407 12.272-27.407 27.427zm-139.226 0c0 15.146 12.272 27.427 27.407 27.427 15.156 0 27.427-12.282 27.427-27.427 0-15.156-12.272-27.427-27.427-27.427-15.135 0-27.407 12.272-27.407 27.427z"/><g stroke="#111342" fill="none" stroke-linejoin="round" stroke-miterlimit="10" stroke-width="15.913"><path d="M350.161 202.641c0 21.535 17.472 38.996 38.996 38.996 21.545 0 38.996-17.461 38.996-38.996 0-21.545-17.451-38.996-38.996-38.996-21.524 0-38.996 17.451-38.996 38.996z"/><use xlink:href="#Acc1"/><use x="-139.236" xlink:href="#Acc1"/></g><defs><path d="M209.385 202.641c0 21.535 17.451 38.996 38.975 38.996 21.545 0 38.996-17.461 38.996-38.996 0-21.545-17.451-38.996-38.996-38.996-21.524 0-38.975 17.451-38.975 38.996z" id="Acc1"/></defs></svg>
