<?xml version="1.0" encoding="UTF-8" standalone="no"?>
<svg class="chat"
   xmlns:dc="http://purl.org/dc/elements/1.1/"
   xmlns:cc="http://creativecommons.org/ns#"
   xmlns:rdf="http://www.w3.org/1999/02/22-rdf-syntax-ns#"
   xmlns:svg="http://www.w3.org/2000/svg"
   xmlns="http://www.w3.org/2000/svg"
   xml:space="preserve"
   style="enable-background:new 0 0 512 512;"
   viewBox="0 0 512 512"
   
   
   
   version="1.1"><metadata
   id="metadata138"><rdf:RDF><cc:Work
       rdf:about=""><dc:format>image/svg+xml</dc:format><dc:type
         rdf:resource="http://purl.org/dc/dcmitype/StillImage" /><dc:title></dc:title></cc:Work></rdf:RDF></metadata><defs
   id="defs136">
	
	
	
	
	
	
	
	
</defs>
<style
   id="style113"
   type="text/css">
	svg.chat .st0{opacity:0.6;fill:#38C1CE;}
	svg.chat .st1{fill:none;stroke:#111342;stroke-width:15.9132;stroke-linecap:round;stroke-linejoin:round;stroke-miterlimit:10;}
	svg.chat .st2{fill:#38C1CE;}
</style>
<g
   transform="translate(0,16.23086)"
   id="g173"><path
     id="path117"
     d="M 91.487275,25.22574 H 420.51274 c 45.42631,0 82.26153,36.824882 82.26153,82.26153 v 151.57957 c 0,45.42632 -36.82488,82.26154 -82.26153,82.26154 H 254.66637 c -1.73683,0 -3.38061,0.82706 -4.41444,2.22272 l -79.94576,108.25192 c -4.71425,6.37871 -14.84574,3.04979 -14.84574,-4.88999 V 346.80766 c 0,-3.02911 -2.45017,-5.47928 -5.47928,-5.47928 H 91.487275 c -45.426314,0 -82.2615348,-36.82488 -82.2615348,-82.26154 v -151.5899 c 0,-45.426318 36.8352208,-82.2512 82.2615348,-82.2512 z"
     class="st1" /><path
     id="path119"
     d="m 367.21901,189.15953 c 0,15.14555 12.28185,27.41706 27.41706,27.41706 15.14555,0 27.41707,-12.27151 27.41707,-27.41706 0,-15.14555 -12.27152,-27.41707 -27.41707,-27.41707 -15.12487,-0.0103 -27.41706,12.26118 -27.41706,27.41707 z"
     class="st2"
     style="stroke-width:1.03383" /><path
     id="path121"
     d="m 226.43258,189.15953 c 0,15.14555 12.27152,27.4274 27.40673,27.4274 15.15589,0 27.4274,-12.28185 27.4274,-27.4274 0,-15.15589 -12.27151,-27.4274 -27.4274,-27.4274 -15.12487,0 -27.40673,12.27151 -27.40673,27.4274 z"
     class="st2"
     style="stroke-width:1.03383" /><path
     id="path123"
     d="m 87.207235,189.15953 c 0,15.14555 12.271515,27.4274 27.406725,27.4274 15.15589,0 27.42741,-12.28185 27.42741,-27.4274 0,-15.15589 -12.27152,-27.4274 -27.42741,-27.4274 -15.13521,0 -27.406725,12.27151 -27.406725,27.4274 z"
     class="st2"
     style="stroke-width:1.03383" /><path
     id="path125"
     d="m 350.16088,186.40955 c 0,21.5346 17.47166,38.99592 38.99592,38.99592 21.54493,0 38.99591,-17.46132 38.99591,-38.99592 0,-21.54493 -17.45098,-38.99591 -38.99591,-38.99591 -21.52426,0 -38.99592,17.45098 -38.99592,38.99591 z"
     class="st1" /><path
     id="path127"
     d="m 209.38479,186.40955 c 0,21.5346 17.45098,38.99592 38.97524,38.99592 21.54494,0 38.99592,-17.46132 38.99592,-38.99592 0,-21.54493 -17.45098,-38.99591 -38.99592,-38.99591 -21.52426,0 -38.97524,17.45098 -38.97524,38.99591 z"
     class="st1" /><path
     id="path129"
     d="m 70.149106,186.40955 c 0,21.5346 17.450983,38.99592 38.975244,38.99592 21.54493,0 38.99591,-17.46132 38.99591,-38.99592 0,-21.54493 -17.45098,-38.99591 -38.99591,-38.99591 -21.524261,0 -38.975244,17.45098 -38.975244,38.99591 z"
     class="st1" /></g>
</svg>
