<?xml version="1.0" encoding="UTF-8" standalone="no"?>
<!-- Created with Inkscape (http://www.inkscape.org/) -->

<svg
   xmlns:dc="http://purl.org/dc/elements/1.1/"
   xmlns:cc="http://creativecommons.org/ns#"
   xmlns:rdf="http://www.w3.org/1999/02/22-rdf-syntax-ns#"
   xmlns:svg="http://www.w3.org/2000/svg"
   xmlns="http://www.w3.org/2000/svg"
   xmlns:xlink="http://www.w3.org/1999/xlink"
   version="1.1"
   width="16"
   height="16"
   id="svg3028">
  <defs
     id="defs3030">
    <radialGradient
       cx="0"
       cy="0"
       r="819.20001"
       id="radialGradient2999"
       xlink:href="#gradient0"
       gradientUnits="userSpaceOnUse"
       gradientTransform="matrix(0.00744747,-0.01291001,0.01415655,0.00817793,373.92826,535.65597)"
       spreadMethod="pad" />
    <radialGradient
       cx="0"
       cy="0"
       r="819.20001"
       id="gradient0"
       gradientUnits="userSpaceOnUse"
       gradientTransform="matrix(0.01431274,-0.02481079,0.02720642,0.01571655,12.25,21.45)"
       spreadMethod="pad">
      <stop
         id="stop7"
         style="stop-color:#d8eef3;stop-opacity:1"
         offset="0" />
      <stop
         id="stop9"
         style="stop-color:#4883d9;stop-opacity:1"
         offset="1" />
    </radialGradient>
  </defs>
  <metadata
     id="metadata3033">
    <rdf:RDF>
      <cc:Work
         rdf:about="">
        <dc:format>image/svg+xml</dc:format>
        <dc:type
           rdf:resource="http://purl.org/dc/dcmitype/StillImage" />
        <dc:title></dc:title>
      </cc:Work>
    </rdf:RDF>
  </metadata>
  <g
     transform="translate(-367.25002,-523.23002)"
     id="layer1">
    <path
       d="m 370.38995,527.01835 q 2.05534,-1.6911 4.83915,-1.66509 3.20009,0.026 5.12534,1.50898 2.21144,1.63907 1.66508,4.4489 -0.4683,2.39356 -3.48627,3.59034 -1.32686,0.49432 -2.57567,0.6244 -0.96263,2.23746 -3.51229,1.71712 l 0.0781,0 -0.20813,-0.052 -0.0781,-0.052 -0.052,-0.1561 -0.026,-0.052 0.026,-0.13009 0.052,-0.13008 0.1561,-0.10407 q 0.41627,-0.31221 0.65042,-1.27484 -2.26347,-0.62441 -3.48627,-2.08135 -1.19678,-1.43094 -1.09271,-3.04398 0.026,-0.7545 0.54636,-1.58704 0.52033,-0.88457 1.37889,-1.56101"
       id="path15"
       style="fill:#999999;stroke:none" />
    <path
       d="m 375.2291,525.06708 q -2.88788,-0.026 -5.04728,1.71711 -0.88458,0.7545 -1.43093,1.63907 -0.57238,0.91059 -0.59839,1.71712 -0.0781,1.74313 1.17076,3.2261 1.19678,1.48296 3.3822,2.13339 -0.20814,0.59839 -0.49432,0.83254 l -0.20814,0.18212 -0.10406,0.1561 -0.026,0.26017 0.10407,0.36423 0.1561,0.13009 0.36423,0.10407 q 2.6017,0.52034 3.66839,-1.74314 1.19678,-0.13008 2.47161,-0.6244 3.20008,-1.24882 3.69441,-3.79848 l 0,-0.026 q 0.54635,-2.93991 -1.76916,-4.68304 -2.0033,-1.56102 -5.33347,-1.58703 m 7.38881,6.32211 q -0.52034,2.73178 -3.8505,4.03263 -1.24882,0.44228 -2.39356,0.6244 -1.19678,2.36754 -4.03263,1.79517 l -0.39025,-0.18212 -0.20814,-0.20813 -0.1561,-0.28619 q -0.078,-0.3122 0.026,-0.57237 0.026,-0.18212 0.18212,-0.28619 l 0.28618,-0.20813 0.26017,-0.41628 q -2.10737,-0.70245 -3.25211,-2.10737 -1.32687,-1.61305 -1.2228,-3.43423 0.026,-0.88458 0.62441,-1.8472 0.57237,-0.96263 1.50898,-1.74314 2.21144,-1.79517 5.2294,-1.76915 3.43424,0.026 5.51559,1.63907 2.47161,1.87322 1.87322,4.96923"
       id="path17"
       style="fill:#999999;fill-opacity:0.49803922;stroke:none" />
    <path
       d="m 382.61791,531.38919 q 0.59839,-3.09601 -1.87322,-4.96923 -2.08135,-1.61305 -5.51559,-1.63907 -3.01796,-0.026 -5.2294,1.76915 -0.93661,0.78051 -1.50898,1.74314 -0.59839,0.96262 -0.62441,1.8472 -0.10407,1.82118 1.2228,3.43423 1.14474,1.40492 3.25211,2.10737 l -0.26017,0.41628 -0.28618,0.20813 q -0.1561,0.10407 -0.18212,0.28619 -0.10407,0.26017 -0.026,0.57237 l 0.1561,0.28619 0.20814,0.20813 0.39025,0.18212 q 2.83585,0.57237 4.03263,-1.79517 1.14474,-0.18212 2.39356,-0.6244 3.33016,-1.30085 3.8505,-4.03263 m -1.6911,-5.17737 q 2.62771,1.95127 2.0033,5.2294 -0.52033,2.88788 -4.05864,4.24076 l -2.28949,0.62441 q -1.27483,2.36754 -4.18872,1.82119 l -0.59839,-0.23416 -0.28619,-0.26017 -0.18212,-0.44228 0,0.052 q -0.13008,-0.39026 0,-0.72848 0.078,-0.23415 0.23416,-0.41627 l 0.36423,-0.26017 q -1.95127,-0.70245 -3.04398,-2.08135 -1.40491,-1.71712 -1.32686,-3.64237 0.026,-0.91059 0.70246,-1.97729 0.54635,-0.98864 1.53499,-1.79516 2.34153,-1.87322 5.43754,-1.84721 3.56432,0.052 5.69771,1.6911 l 0,0.026"
       id="path19"
       style="fill:#999999;fill-opacity:0.24705882;stroke:none" />
    <path
       d="m 375.2291,525.06708 q 3.33017,0.026 5.33347,1.58703 2.31551,1.74313 1.76916,4.68305 l 0,0.026 q -0.49433,2.54966 -3.69441,3.79847 -1.27483,0.49432 -2.47161,0.62441 -1.06669,2.26347 -3.66839,1.74313 l -0.36423,-0.10407 -0.1561,-0.13009 -0.10407,-0.36423 0.026,-0.26017 0.10406,-0.1561 0.20814,-0.18212 q 0.28618,-0.23415 0.49432,-0.83254 -2.18542,-0.65043 -3.3822,-2.13339 -1.24881,-1.48297 -1.17076,-3.2261 0.026,-0.80653 0.59839,-1.71712 0.54635,-0.88457 1.43093,-1.63907 2.1594,-1.74313 5.04728,-1.71711 m -4.83915,1.95127 q -0.85856,0.67644 -1.37889,1.56101 -0.52034,0.83254 -0.54636,1.58704 -0.10407,1.61304 1.09271,3.04398 1.2228,1.45694 3.48627,2.08135 -0.23415,0.96263 -0.65042,1.27483 l -0.1561,0.10407 -0.052,0.13008 -0.026,0.13009 0.026,0.052 0.052,0.1561 0.0781,0.052 0.20813,0.052 -0.0781,0 q 2.54966,0.52034 3.51229,-1.71712 1.24881,-0.13008 2.57567,-0.6244 3.01797,-1.19678 3.48627,-3.59034 0.54636,-2.80983 -1.66508,-4.4489 -1.92525,-1.48296 -5.12534,-1.50898 -2.78381,-0.026 -4.83915,1.66509"
       id="path21"
       style="fill:#999999;fill-opacity:0.74901961;stroke:none" />
    <path
       d="m 375.25512,525.27521 q 3.07,0.026 4.9172,1.48297 2.0033,1.58703 1.50898,4.26677 -0.4683,2.31551 -3.27813,3.46026 -1.40492,0.52033 -2.67975,0.65042 -0.83254,2.26347 -3.17406,1.79517 0.70246,-0.39026 0.98864,-1.95127 -2.41957,-0.59839 -3.66839,-2.13339 -1.09271,-1.35288 -1.01466,-2.9139 0.026,-0.67644 0.49433,-1.48296 0.49432,-0.83254 1.32686,-1.535 1.92525,-1.66508 4.57898,-1.63907"
       id="path23"
       style="fill:url(#radialGradient2999);stroke:none" />
    <path
       d="m 375.77546,528.86555 -1.24881,1.17076 q -0.31221,0.20814 -0.96263,0.33822 l -1.50898,0.1561 q -2.31551,0 -2.57568,-1.30084 -0.26017,-1.17077 1.24881,-2.34153 0.98865,-0.78051 1.61305,-0.96262 l 0.052,-0.026 q 1.71711,-0.62441 3.40822,-0.62441 1.87321,0 3.3822,0.72847 1.27483,0.59839 1.50898,1.27483 0.3122,0.96263 -1.48297,0.96263 l -1.43093,-0.10407 -0.23415,0 q -0.93661,0 -1.76915,0.72848"
       id="path25"
       style="fill:#ffffff;fill-opacity:0.2;stroke:none" />
    <path
       d="m 373.538,534.97953 q -0.28618,1.56101 -0.96262,1.95127 2.3155,0.4683 3.14804,-1.79517"
       id="path27"
       style="fill:none;stroke:#0068ba;stroke-width:0.39025396;stroke-linecap:round;stroke-linejoin:round" />
    <path
       d="m 373.56402,535.10961 q -1.45695,-0.23415 -2.80983,-1.27483 -1.89924,-1.535 -1.89924,-3.66838 0,-2.13339 1.89924,-3.64238 1.92525,-1.48296 4.63101,-1.48296 2.73178,0 4.63102,1.48296 1.92525,1.50899 1.92525,3.64238 0,2.13338 -1.92525,3.66838 -1.92525,1.48297 -4.47491,1.48297"
       id="path29"
       style="fill:none;stroke:#0068ba;stroke-width:0.39025396;stroke-linecap:round;stroke-linejoin:round" />
  </g>
</svg>
