<?xml version="1.0" encoding="UTF-8" standalone="no"?>
<!-- Created with Inkscape (http://www.inkscape.org/) -->

<svg
   xmlns:dc="http://purl.org/dc/elements/1.1/"
   xmlns:cc="http://creativecommons.org/ns#"
   xmlns:rdf="http://www.w3.org/1999/02/22-rdf-syntax-ns#"
   xmlns:svg="http://www.w3.org/2000/svg"
   xmlns="http://www.w3.org/2000/svg"
   version="1.1"
   width="100%"
   height="100%"
   id="svg2">
  <metadata
     id="metadata45">
    <rdf:RDF>
      <cc:Work
         rdf:about="">
        <dc:format>image/svg+xml</dc:format>
        <dc:type
           rdf:resource="http://purl.org/dc/dcmitype/StillImage" />
        <dc:title></dc:title>
      </cc:Work>
    </rdf:RDF>
  </metadata>
  <defs
     id="defs4">
    <linearGradient
       x1="-819.20001"
       x2="819.20001"
       id="gradient0"
       gradientUnits="userSpaceOnUse"
       gradientTransform="matrix(0.00283813,0.01644897,-0.01374817,0.00236511,14.75,14.8)"
       spreadMethod="pad">
      <stop
         id="stop7"
         style="stop-color:#ffffff;stop-opacity:1"
         offset="0.49803922" />
      <stop
         id="stop9"
         style="stop-color:#e1e1e1;stop-opacity:1"
         offset="1" />
    </linearGradient>
  </defs>
  <g
     id="g11">
    <path
       d="m 30,30.05 -30,0 0,-30 30,0 0,30"
       id="path13"
       style="fill:#010101;fill-opacity:0;stroke:none" />
    <path
       d="m 4.6,5.8 17.85,-3.05 0.1,0 0.1,0.05 3.75,21.9 -0.05,0.05 -0.05,0.1 -17.85,3.05 -0.15,0 0,-0.05 L 4.55,5.95 4.5,5.9 4.6,5.8"
       id="path15"
       style="fill:#cccccc;stroke:none" />
    <path
       d="M 4.55,5.4 22.4,2.35 22.85,2.4 23.05,2.75 26.8,24.65 26.7,25 26.35,25.25 8.5,28.3 8.1,28.25 7.9,27.9 4.15,6 4.25,5.65 q 0.1,-0.2 0.3,-0.25 m 0,0.15 L 4.35,5.7 4.25,6 8,27.9 8.2,28.1 8.45,28.15 26.3,25.1 26.6,24.95 26.65,24.65 22.9,2.75 22.75,2.55 22.4,2.5 4.55,5.55"
       id="path17"
       style="fill:#cccccc;fill-opacity:0.24705882;stroke:none" />
    <path
       d="M 4.55,5.55 22.4,2.5 l 0.35,0.05 0.15,0.2 3.75,21.9 -0.05,0.3 L 26.3,25.1 8.45,28.15 8.2,28.1 8,27.9 4.25,6 4.35,5.7 4.55,5.55 M 4.6,5.65 4.45,5.8 Q 4.35,5.85 4.4,5.95 L 8.15,27.85 8.3,28 8.45,28.05 26.3,25 26.5,24.85 26.55,24.7 22.8,2.8 22.65,2.65 22.45,2.6 4.6,5.65"
       id="path19"
       style="fill:#cccccc;fill-opacity:0.49803922;stroke:none" />
    <path
       d="M 4.6,5.65 22.45,2.6 22.65,2.65 22.8,2.8 26.55,24.7 26.5,24.85 26.3,25 8.45,28.05 8.3,28 8.15,27.85 4.4,5.95 Q 4.35,5.85 4.45,5.8 L 4.6,5.65 m 0,0.15 -0.1,0.1 0.05,0.05 3.75,21.9 0,0.05 0.15,0 17.85,-3.05 0.05,-0.1 0.05,-0.05 -3.75,-21.9 -0.1,-0.05 -0.1,0 L 4.6,5.8"
       id="path21"
       style="fill:#cccccc;fill-opacity:0.74901961;stroke:none" />
    <path
       d="M 21.8,2.35 25.55,24.2 7.7,27.25 3.95,5.4 21.8,2.35"
       id="path23"
       style="fill:url(#gradient0);stroke:none" />
    <path
       d="m 10.9,8 0.5,0.25 1.55,1.25 1.35,-2.45 0.4,-0.5 0.1,-0.1 Q 15.05,6.2 15.35,6.1 l 0.85,0.05 0.4,0.8 -0.1,0.55 -0.3,0.65 -1.65,2.55 2.25,1.55 0.1,0.05 0.4,0.35 0.15,0.5 -0.05,0.35 -0.3,0.65 -0.8,0.7 -0.5,0.05 -0.6,-0.3 -2,-1.5 -1.65,2.95 -0.55,0.7 -0.55,0.4 -0.8,0 Q 9.25,16.95 9.25,16.4 L 9.3,15.8 9.75,14.95 11.55,11.9 9.75,10.75 9.3,10.3 9.15,9.85 Q 9.1,9.3 9.4,8.8 L 10.3,8.1 10.9,8"
       id="path25"
       style="fill:#999999;stroke:none" />
    <path
       d="m 15.9,5.6 0.4,0.7 -0.1,0.55 -0.3,0.7 -1.65,2.5 2.25,1.55 0.1,0.1 0.35,0.3 0.2,0.55 0,0.4 -0.3,0.6 -0.85,0.7 -0.55,0.05 -0.55,-0.25 -2,-1.55 -1.6,2.95 -0.6,0.7 -0.5,0.4 L 9.35,16.5 Q 8.95,16.3 8.95,15.8 L 9,15.2 9.45,14.35 11.25,11.3 9.45,10.15 9,9.7 8.8,9.25 q 0,-0.6 0.3,-1.1 0.4,-0.5 0.95,-0.7 L 10.55,7.4 11.1,7.7 12.65,8.9 14,6.45 14.4,5.95 14.45,5.85 Q 14.7,5.6 15.05,5.45 L 15.9,5.6"
       id="path27"
       style="fill:#c63131;stroke:none" />
    <path
       d="M 21.8,2.35 25.55,24.2 7.7,27.25 3.95,5.4"
       id="path29"
       style="fill:none;stroke:#bfbfbf;stroke-width:1;stroke-linecap:round;stroke-linejoin:round" />
    <path
       d="M 3.95,5.4 4,5.4 21.8,2.35 22.35,2.25"
       id="path31"
       style="fill:none;stroke:#cccccc;stroke-width:1;stroke-linecap:round;stroke-linejoin:round" />
    <path
       d="M 3.95,5.4 3.55,5.45"
       id="path33"
       style="fill:none;stroke:#cccccc;stroke-width:1;stroke-linecap:round;stroke-linejoin:round" />
    <path
       d="m 9.65,7.85 q 1,0.2 3.05,2 L 15.35,5.6"
       id="path35"
       style="fill:none;stroke:#ffffff;stroke-width:0.5;stroke-linecap:round;stroke-linejoin:round;stroke-opacity:0.6" />
    <path
       d="m 14.95,19.05 5.35,1.8 Q 20.4,14.4 23.8,10.3"
       id="path37"
       style="fill:none;stroke:#999999;stroke-width:3.5;stroke-linecap:round;stroke-linejoin:round" />
    <path
       d="m 14.3,18.3 5.4,1.9 Q 20,13.9 23.3,9.85"
       id="path39"
       style="fill:none;stroke:#a5bf37;stroke-width:3;stroke-linecap:round;stroke-linejoin:round" />
    <path
       d="M 12.3,16.95 18.8,19 q 0.4,-2.75 1.3,-4.85 0.85,-2.1 3.05,-5.8"
       id="path41"
       style="fill:none;stroke:#ffffff;stroke-width:0.5;stroke-linecap:round;stroke-linejoin:round;stroke-opacity:0.6" />
  </g>
</svg>
