<?xml version="1.0" encoding="UTF-8" standalone="no"?>
<!-- Created with Inkscape (http://www.inkscape.org/) -->

<svg
   xmlns:dc="http://purl.org/dc/elements/1.1/"
   xmlns:cc="http://creativecommons.org/ns#"
   xmlns:rdf="http://www.w3.org/1999/02/22-rdf-syntax-ns#"
   xmlns:svg="http://www.w3.org/2000/svg"
   xmlns="http://www.w3.org/2000/svg"
   xmlns:xlink="http://www.w3.org/1999/xlink"
   version="1.1"
   width="100%"
   height="100%"
   id="svg2">
  <metadata
     id="metadata74">
    <rdf:RDF>
      <cc:Work
         rdf:about="">
        <dc:format>image/svg+xml</dc:format>
        <dc:type
           rdf:resource="http://purl.org/dc/dcmitype/StillImage" />
        <dc:title></dc:title>
      </cc:Work>
    </rdf:RDF>
  </metadata>
  <defs
     id="defs4">
    <linearGradient
       x1="-819.20001"
       x2="819.20001"
       id="gradient0"
       gradientUnits="userSpaceOnUse"
       gradientTransform="matrix(0,0.01669312,-0.01396179,0,14.7,15.45)"
       spreadMethod="pad">
      <stop
         id="stop7"
         style="stop-color:#ffffff;stop-opacity:1"
         offset="0.49803922" />
      <stop
         id="stop9"
         style="stop-color:#e1e1e1;stop-opacity:1"
         offset="1" />
    </linearGradient>
    <linearGradient
       x1="-819.20001"
       x2="819.20001"
       id="gradient1"
       gradientUnits="userSpaceOnUse"
       gradientTransform="matrix(0,0.00198364,-0.00292969,0,9.25,4.7)"
       spreadMethod="pad">
      <stop
         id="stop12"
         style="stop-color:#febe5f;stop-opacity:1"
         offset="0" />
      <stop
         id="stop14"
         style="stop-color:#996600;stop-opacity:1"
         offset="1" />
    </linearGradient>
    <linearGradient
       x1="-819.20001"
       x2="819.20001"
       id="gradient2"
       gradientUnits="userSpaceOnUse"
       gradientTransform="matrix(0,0.00198364,-0.00292969,0,14.55,4.7)"
       spreadMethod="pad">
      <stop
         id="stop17"
         style="stop-color:#febe5f;stop-opacity:1"
         offset="0" />
      <stop
         id="stop19"
         style="stop-color:#996600;stop-opacity:1"
         offset="1" />
    </linearGradient>
    <linearGradient
       x1="-819.20001"
       x2="819.20001"
       id="gradient3"
       gradientUnits="userSpaceOnUse"
       gradientTransform="matrix(0,0.00198364,-0.00292969,0,19.7,4.7)"
       spreadMethod="pad">
      <stop
         id="stop22"
         style="stop-color:#febe5f;stop-opacity:1"
         offset="0" />
      <stop
         id="stop24"
         style="stop-color:#996600;stop-opacity:1"
         offset="1" />
    </linearGradient>
    <linearGradient
       x1="-819.20001"
       x2="819.20001"
       id="linearGradient3059"
       xlink:href="#gradient3"
       gradientUnits="userSpaceOnUse"
       gradientTransform="matrix(0,0.00198364,-0.00292969,0,19.7,4.7)"
       spreadMethod="pad" />
    <linearGradient
       x1="-819.20001"
       x2="819.20001"
       id="linearGradient3063"
       xlink:href="#gradient2"
       gradientUnits="userSpaceOnUse"
       gradientTransform="matrix(0,0.00198364,-0.00292969,0,14.55,4.7)"
       spreadMethod="pad" />
    <linearGradient
       x1="-819.20001"
       x2="819.20001"
       id="linearGradient3067"
       xlink:href="#gradient1"
       gradientUnits="userSpaceOnUse"
       gradientTransform="matrix(0,0.00198364,-0.00292969,0,9.25,4.7)"
       spreadMethod="pad" />
    <linearGradient
       x1="-819.20001"
       x2="819.20001"
       id="linearGradient3074"
       xlink:href="#gradient0"
       gradientUnits="userSpaceOnUse"
       gradientTransform="matrix(0,0.01669312,-0.01396179,0,14.7,15.45)"
       spreadMethod="pad" />
  </defs>
  <path
     d="m 30,30.05 -30,0 0,-30 30,0 0,30"
     id="path28"
     style="fill:#010101;fill-opacity:0;stroke:none" />
  <path
     d="m 6.2,4.85 18.15,0 0.1,0.05 0.05,0.1 0,22.2 -0.05,0.1 -0.1,0.05 -18.15,0 L 6.1,27.3 6.05,27.2 6.05,5 6.1,4.9 6.2,4.85"
     id="path30"
     style="fill:#cccccc;stroke:none" />
  <path
     d="m 6.2,4.5 18.15,0 0.4,0.15 0.15,0.35 0,22.2 -0.15,0.4 -0.4,0.1 L 6.2,27.7 5.85,27.6 5.65,27.2 5.65,5 5.85,4.65 Q 6,4.5 6.2,4.5 M 6.2,4.6 5.95,4.75 5.8,5 l 0,22.2 0.15,0.3 0.25,0.1 18.15,0 0.25,-0.1 0.15,-0.3 L 24.75,5 24.6,4.75 Q 24.5,4.6 24.35,4.6 L 6.2,4.6"
     id="path32"
     style="fill:#cccccc;fill-opacity:0.24705882;stroke:none" />
  <path
     d="m 6.2,4.6 18.15,0 q 0.15,0 0.25,0.15 l 0.15,0.25 0,22.2 -0.15,0.3 -0.25,0.1 L 6.2,27.6 5.95,27.5 5.8,27.2 5.8,5 5.95,4.75 6.2,4.6 M 6.2,4.75 6,4.8 5.95,5 l 0,22.2 0.05,0.2 0.2,0.05 18.15,0 0.2,-0.05 0.05,-0.2 0,-22.2 -0.05,-0.2 -0.2,-0.05 -18.15,0"
     id="path34"
     style="fill:#cccccc;fill-opacity:0.49803922;stroke:none" />
  <path
     d="m 6.2,4.75 18.15,0 0.2,0.05 0.05,0.2 0,22.2 -0.05,0.2 -0.2,0.05 -18.15,0 L 6,27.4 5.95,27.2 5.95,5 6,4.8 6.2,4.75 m 0,0.1 L 6.1,4.9 6.05,5 l 0,22.2 0.05,0.1 0.1,0.05 18.15,0 0.1,-0.05 0.05,-0.1 0,-22.2 -0.05,-0.1 -0.1,-0.05 -18.15,0"
     id="path36"
     style="fill:#cccccc;fill-opacity:0.74901961;stroke:none" />
  <path
     d="m 23.75,4.35 0,22.2 -18.15,0 0,-22.2 18.15,0"
     id="path38"
     style="fill:url(#linearGradient3074);stroke:none" />
  <path
     d="m 23.7,4.4 0,22.15 -18.1,0 0,-22.15"
     id="path58"
     style="fill:none;stroke:#bfbfbf;stroke-width:1;stroke-linecap:round;stroke-linejoin:round" />
  <path
     d="m 5.6,4.4 0.05,0 18.05,0 0.6,0"
     id="path60"
     style="fill:none;stroke:#cccccc;stroke-width:1;stroke-linecap:round;stroke-linejoin:round" />
  <path
     d="m 5.6,4.4 -0.45,0"
     id="path62"
     style="fill:none;stroke:#cccccc;stroke-width:1;stroke-linecap:round;stroke-linejoin:round" />
  <path
     d="m 9.3,14.75 11,0"
     id="path64"
     style="fill:none;stroke:#cccccc;stroke-width:0.75;stroke-linecap:round;stroke-linejoin:round" />
  <path
     d="m 9.3,18.25 11,0"
     id="path66"
     style="fill:none;stroke:#cccccc;stroke-width:0.75;stroke-linecap:round;stroke-linejoin:round" />
  <path
     d="m 9.3,21.9 11,0"
     id="path68"
     style="fill:none;stroke:#cccccc;stroke-width:0.75;stroke-linecap:round;stroke-linejoin:round" />
  <path
     d="m 9.3,11.25 11,0"
     id="path70"
     style="fill:none;stroke:#cccccc;stroke-width:0.75;stroke-linecap:round;stroke-linejoin:round" />
  <path
     d="M 8.3,7.7 Q 7.9,7.45 7.9,7.1 l 0,-1.95 2.7,0 0,1.95 L 10.3,7.7 9.25,7.95 8.3,7.7"
     id="path40"
     style="fill:#d5d5d5;stroke:none" />
  <path
     d="m 13.65,7.7 q -0.4,-0.25 -0.4,-0.6 l 0,-1.95 2.7,0 0,1.95 -0.3,0.6 L 14.6,7.95 13.65,7.7"
     id="path42"
     style="fill:#d5d5d5;stroke:none" />
  <path
     d="M 18.8,7.7 Q 18.4,7.45 18.4,7.1 l 0,-1.95 2.7,0 0,1.95 L 20.8,7.7 19.75,7.95 18.8,7.7"
     id="path44"
     style="fill:#d5d5d5;stroke:none" />
  <path
     d="M 8.65,5.8 8.65,3.55 8.7,3.5 9,3.4 9.55,3.4 9.85,3.5 9.9,3.55 9.9,5.8 9.85,5.85 9.15,5.95 8.8,5.85 8.65,5.8"
     id="path46"
     style="fill:#ffcc33;stroke:none" />
  <path
     d="M 8.65,5.8 8.8,5.85 9.15,5.95 9.85,5.85 9.9,5.8 9.9,3.55 9.85,3.5 9.55,3.4 9,3.4 8.7,3.5 8.65,3.55 l 0,2.25 m 2.25,-1.9 0,1.6 q 0,0.65 -0.5,1.1 -0.45,0.5 -1.1,0.5 l -0.05,0 Q 8.6,7.1 8.1,6.6 7.65,6.15 7.65,5.5 l 0,-1.6 Q 7.65,3.25 8.1,2.75 8.6,2.3 9.25,2.3 l 0.05,0 q 0.65,0 1.1,0.45 0.5,0.5 0.5,1.15"
     id="path48"
     style="fill:url(#linearGradient3067);stroke:none" />
  <path
     d="m 13.95,5.8 0,-2.25 0.05,-0.05 0.3,-0.1 0.55,0 0.3,0.1 0.05,0.05 0,2.25 -0.05,0.05 -0.7,0.1 L 14.1,5.85 13.95,5.8"
     id="path50"
     style="fill:#ffcc33;stroke:none" />
  <path
     d="m 13.95,5.8 0.15,0.05 0.35,0.1 0.7,-0.1 0.05,-0.05 0,-2.25 -0.05,-0.05 -0.3,-0.1 -0.55,0 -0.3,0.1 -0.05,0.05 0,2.25 m 2.25,-1.9 0,1.6 q 0,0.65 -0.5,1.1 -0.45,0.5 -1.1,0.5 l -0.05,0 Q 13.9,7.1 13.4,6.6 12.95,6.15 12.95,5.5 l 0,-1.6 q 0,-0.65 0.45,-1.15 0.5,-0.45 1.15,-0.45 l 0.05,0 q 0.65,0 1.1,0.45 0.5,0.5 0.5,1.15"
     id="path52"
     style="fill:url(#linearGradient3063);stroke:none" />
  <path
     d="m 19.1,5.8 0,-2.25 0.05,-0.05 0.3,-0.1 0.55,0 0.3,0.1 0.05,0.05 0,2.25 L 20.3,5.85 19.6,5.95 19.25,5.85 19.1,5.8"
     id="path54"
     style="fill:#ffcc33;stroke:none" />
  <path
     d="m 19.1,5.8 0.15,0.05 0.35,0.1 0.7,-0.1 0.05,-0.05 0,-2.25 L 20.3,3.5 20,3.4 l -0.55,0 -0.3,0.1 -0.05,0.05 0,2.25 m 2.25,-1.9 0,1.6 q 0,0.65 -0.5,1.1 -0.45,0.5 -1.1,0.5 l -0.05,0 Q 19.05,7.1 18.55,6.6 18.1,6.15 18.1,5.5 l 0,-1.6 q 0,-0.65 0.45,-1.15 0.5,-0.45 1.15,-0.45 l 0.05,0 q 0.65,0 1.1,0.45 0.5,0.5 0.5,1.15"
     id="path56"
     style="fill:url(#linearGradient3059);stroke:none" />
</svg>
