<svg xmlns="http://www.w3.org/2000/svg" xmlns:xlink="http://www.w3.org/1999/xlink">
  <defs>
    <linearGradient gradientUnits="userSpaceOnUse" x1="-819.2" x2="819.2" spreadMethod="pad" gradientTransform="matrix(0 0.01055908203125 -0.008575439453125 0 14.55 11.55)" id="gradient0">
      <stop offset="0.4980392156862745" stop-color="#FFFFFF"/>
      <stop offset="1" stop-color="#E1E1E1"/>
    </linearGradient>
    <linearGradient gradientUnits="userSpaceOnUse" x1="-819.2" x2="819.2" spreadMethod="pad" gradientTransform="matrix(0.003265380859375 0.010040283203125 -0.008148193359375 0.002655029296875 8.15 17.4)" id="gradient1">
      <stop offset="0.4980392156862745" stop-color="#FFFFFF"/>
      <stop offset="1" stop-color="#E1E1E1"/>
    </linearGradient>
    <linearGradient gradientUnits="userSpaceOnUse" x1="-819.2" x2="819.2" spreadMethod="pad" gradientTransform="matrix(0.003021240234375 -0.010498046875 0.0074462890625 0.00213623046875 22.6 15.45)" id="gradient2">
      <stop offset="0" stop-color="#EAE1F2"/>
      <stop offset="1" stop-color="#9B95D9"/>
    </linearGradient>
    <radialGradient gradientUnits="userSpaceOnUse" r="819.2" cx="0" cy="0" fx="57.6" fy="0" spreadMethod="pad" gradientTransform="matrix(0.000946044921875 -0.0004425048828125 0.0004425048828125 0.0009613037109375 7.05 12.45)" id="gradient3">
      <stop offset="0" stop-color="#CCE393"/>
      <stop offset="1" stop-color="#799C27"/>
    </radialGradient>
    <linearGradient gradientUnits="userSpaceOnUse" x1="-819.2" x2="819.2" spreadMethod="pad" gradientTransform="matrix(0 0.0014190673828125 -0.0021820068359375 0 17.9 4.7)" id="gradient4">
      <stop offset="0" stop-color="#FEBE5F"/>
      <stop offset="1" stop-color="#996600"/>
    </linearGradient>
    <linearGradient gradientUnits="userSpaceOnUse" x1="-819.2" x2="819.2" spreadMethod="pad" gradientTransform="matrix(0 0.0014190673828125 -0.0021820068359375 0 14.8 4.7)" id="gradient5">
      <stop offset="0" stop-color="#FEBE5F"/>
      <stop offset="1" stop-color="#996600"/>
    </linearGradient>
    <linearGradient gradientUnits="userSpaceOnUse" x1="-819.2" x2="819.2" spreadMethod="pad" gradientTransform="matrix(0 0.0014190673828125 -0.0021820068359375 0 11.55 4.7)" id="gradient6">
      <stop offset="0" stop-color="#FEBE5F"/>
      <stop offset="1" stop-color="#996600"/>
    </linearGradient>
    <linearGradient gradientUnits="userSpaceOnUse" x1="-819.2" x2="819.2" spreadMethod="pad" gradientTransform="matrix(0.001129150390625 0.0014801025390625 -0.0006866455078125 0.000579833984375 4.45 15.25)" id="gradient7">
      <stop offset="0" stop-color="#CCE393"/>
      <stop offset="1" stop-color="#799C27"/>
    </linearGradient>
  </defs>
  <g>
    <path stroke="none" fill="#CCCCCC" d="M9.65 4.55 L20.2 4.55 20.25 4.6 20.25 4.65 20.25 18.7 20.25 18.75 20.2 18.75 9.65 18.75 9.65 4.55"/>
    <path stroke="none" fill="#CCCCCC" fill-opacity="0.24705882352941178" d="M9.65 18.95 L20.2 18.95 20.35 18.85 20.45 18.7 20.45 4.65 20.35 4.45 20.2 4.4 9.65 4.4 9.65 4.3 20.2 4.3 20.45 4.4 20.5 4.65 20.5 18.7 20.45 18.95 20.2 19.05 9.65 19.05 9.65 18.95"/>
    <path stroke="none" fill="#CCCCCC" fill-opacity="0.4980392156862745" d="M9.65 18.95 L9.65 18.85 20.2 18.85 20.3 18.8 20.35 18.7 20.35 4.65 20.3 4.55 20.2 4.5 9.65 4.5 9.65 4.4 20.2 4.4 20.35 4.45 20.45 4.65 20.45 18.7 20.35 18.85 20.2 18.95 9.65 18.95"/>
    <path stroke="none" fill="#CCCCCC" fill-opacity="0.7490196078431373" d="M9.65 18.75 L20.2 18.75 20.25 18.75 20.25 18.7 20.25 4.65 20.25 4.6 20.2 4.55 9.65 4.55 9.65 4.5 20.2 4.5 20.3 4.55 20.35 4.65 20.35 18.7 20.3 18.8 20.2 18.85 9.65 18.85 9.65 18.75"/>
    <path stroke="none" fill="url(#gradient0)" d="M20.15 4.5 L20.15 18.55 9 18.55 9 4.5 20.15 4.5"/>
    <path stroke="none" fill="#E5E5E5" d="M12.7 6.45 L12.5 6.05 12.5 4.85 13.95 4.85 13.95 6.05 13.75 6.45 13.25 6.65 Q12.9 6.65 12.7 6.45"/>
    <path stroke="none" fill="#E5E5E5" d="M15.4 6.45 L15.2 6.05 15.2 4.85 16.65 4.85 16.65 6.05 16.45 6.45 15.95 6.65 15.4 6.45"/>
    <path stroke="none" fill="#E5E5E5" d="M18 6.45 L17.8 6.05 17.8 4.85 19.25 4.85 19.25 6.05 19.05 6.45 18.55 6.65 Q18.2 6.65 18 6.45"/>
    <path stroke="none" fill="#E5E5E5" d="M10 6.45 L9.8 6.05 9.8 4.85 11.25 4.85 11.25 6.05 11.05 6.45 10.55 6.65 Q10.2 6.65 10 6.45"/>
    <path stroke="none" fill="#FFCC33" d="M11.65 3.6 L12.15 3.75 12.4 4 12.4 5.5 12.15 5.8 11.75 5.9 11.65 5.9 11.15 5.8 Q10.9 5.65 10.95 5.5 L10.95 4 11.15 3.75 Q11.3 3.6 11.55 3.6 L11.65 3.6 M14.15 3.75 Q14.3 3.6 14.55 3.6 L14.7 3.6 15.2 3.75 15.4 4 15.4 5.5 15.2 5.8 14.8 5.9 14.7 5.9 14.15 5.8 Q13.9 5.65 13.95 5.5 L13.95 4 14.15 3.75 M18.3 3.75 L18.5 4 18.5 5.5 18.3 5.8 17.85 5.9 17.75 5.9 17.25 5.8 17 5.5 17 4 17.25 3.75 Q17.45 3.6 17.7 3.6 L17.75 3.6 18.3 3.75"/>
    <path stroke="none" fill="#CCCCCC" d="M11.6 9.5 L15.9 22.7 15.95 22.75 15.9 22.8 5.5 26.2 1.15 12.9 11.6 9.5"/>
    <path stroke="none" fill="#CCCCCC" fill-opacity="0.24705882352941178" d="M5.55 26.35 L15.95 22.95 16.05 22.8 16.1 22.65 11.8 9.45 11.85 9.4 16.15 22.6 16.15 22.85 15.95 23 5.55 26.4 5.55 26.35"/>
    <path stroke="none" fill="#CCCCCC" fill-opacity="0.4980392156862745" d="M5.55 26.35 L5.5 26.25 15.9 22.85 16 22.75 16 22.65 11.7 9.45 11.8 9.45 16.1 22.65 16.05 22.8 15.95 22.95 5.55 26.35"/>
    <path stroke="none" fill="#CCCCCC" fill-opacity="0.7490196078431373" d="M11.7 9.45 L16 22.65 16 22.75 15.9 22.85 5.5 26.25 5.5 26.2 15.9 22.8 15.95 22.75 15.9 22.7 11.6 9.5 11.7 9.45"/>
    <path stroke="none" fill="url(#gradient1)" d="M0.65 12.45 L11.25 9 15.6 22.35 5.05 25.8 0.65 12.45"/>
    <path stroke="none" fill="url(#gradient2)" d="M15.65 14.15 Q15.65 13.4 16.15 12.5 16.7 11.6 17.55 10.85 19.7 9.05 22.55 9.1 25.9 9.15 27.85 10.7 30.05 12.45 29.5 15.3 29 17.8 26 19.05 L23.05 19.75 Q22.15 22.25 19.65 21.7 20.35 21.3 20.7 19.6 18.1 18.95 16.7 17.25 15.55 15.8 15.65 14.15"/>
    <path stroke="none" fill="#FFFFFF" fill-opacity="0.2" d="M22.9 9.25 Q25.1 9.3 26.75 10.05 28.1 10.7 28.35 11.45 28.7 12.5 26.75 12.5 L25.2 12.4 24.95 12.4 Q23.95 12.4 23.05 13.15 L21.65 14.45 20.65 14.8 19 15 Q16.5 14.95 16.2 13.55 15.95 12.3 17.55 11.05 18.65 10.2 19.35 10 L19.4 9.95 Q20.7 9.2 22.9 9.25"/>
    <path stroke="none" fill="#CCCCCC" d="M1.3 18.15 L7.65 12.25 Q8.5 12.55 8.45 13.05 L7.75 14.2 5.6 16.4 3.25 18.35 Q2.25 19.1 1.55 19.2 -0.2 19.45 1.3 18.15"/>
    <path stroke="none" fill="#999999" d="M1.1 17.8 Q1.2 18.3 1.9 18.5 L0.4 18.9 1.1 17.3 1.1 17.8"/>
    <path stroke="none" fill="#D1E3A4" d="M7.65 12.55 L7.8 13.05 7.6 13.55 2.4 18.15 1.9 18.3 Q1.6 18.25 1.4 18 L1.25 17.45 1.45 16.95 6.6 12.4 Q6.8 12.15 7.1 12.2 7.4 12.2 7.65 12.55"/>
    <path stroke="none" fill="url(#gradient3)" d="M6.75 12.05 L7.25 12 7.7 12.45 8 13 7.8 13.45 7.3 13.55 6.85 13.1 Q6.55 12.85 6.6 12.55 6.6 12.2 6.75 12.05"/>
    <path fill="none" stroke="#CCCCCC" stroke-width="0.5" stroke-linecap="butt" stroke-linejoin="miter" stroke-miterlimit="3" d="M9.05 4.55 L20.2 4.55"/>
    <path fill="none" stroke="#BFBFBF" stroke-width="0.5" stroke-linecap="butt" stroke-linejoin="miter" stroke-miterlimit="3" d="M20.2 4.55 L20.2 18.6 9.05 18.6 9.05 4.55"/>
    <path fill="none" stroke="url(#gradient4)" stroke-width="0.5" stroke-linecap="butt" stroke-linejoin="miter" stroke-miterlimit="3" d="M18.55 4 L18.55 5.5 18.35 5.8 18.05 5.9 17.9 5.9 17.45 5.8 17.25 5.5 17.25 4 17.45 3.75 Q17.6 3.6 17.9 3.6 L17.95 3.6 18.35 3.75 18.55 4"/>
    <path fill="none" stroke="url(#gradient5)" stroke-width="0.5" stroke-linecap="butt" stroke-linejoin="miter" stroke-miterlimit="3" d="M14.3 3.75 L14.5 3.65 14.8 3.6 14.9 3.6 15.25 3.75 15.45 4 15.45 5.5 15.25 5.8 15 5.9 14.8 5.9 14.5 5.9 14.3 5.8 14.1 5.5 14.1 4 14.3 3.75"/>
    <path fill="none" stroke="url(#gradient6)" stroke-width="0.5" stroke-linecap="butt" stroke-linejoin="miter" stroke-miterlimit="3" d="M10.95 4 L11.1 3.75 Q11.3 3.6 11.55 3.6 L11.65 3.6 Q11.85 3.6 12.05 3.75 L12.25 4 12.25 5.5 12.05 5.8 11.75 5.9 11.55 5.9 11.1 5.8 10.95 5.5 10.95 4"/>
    <path fill="none" stroke="#CCCCCC" stroke-width="0.5" stroke-linecap="round" stroke-linejoin="round" d="M10.95 10.6 L18.15 10.6 M10.9 12.35 L18.1 12.35 M10.9 14.15 L18.1 14.15 M10.9 16.05 L18.1 16.05 M10.95 8.7 L18.15 8.7"/>
    <path fill="none" stroke="#CCCCCC" stroke-width="0.5" stroke-linecap="butt" stroke-linejoin="miter" stroke-miterlimit="3" d="M0.75 12.5 L11.3 9.05"/>
    <path fill="none" stroke="#BFBFBF" stroke-width="0.5" stroke-linecap="butt" stroke-linejoin="miter" stroke-miterlimit="3" d="M11.3 9.05 L15.7 22.45 5.1 25.85 0.75 12.5"/>
    <path fill="none" stroke="#CCCCCC" stroke-width="0.5" stroke-linecap="round" stroke-linejoin="round" d="M3.7 15.95 L10.75 13.65 M5.85 22.6 L12.9 20.3 M5.3 20.95 L12.4 18.65 M4.75 19.25 L11.8 16.95 M4.25 17.6 L11.3 15.3"/>
    <path fill="none" stroke="#9791D5" stroke-width="0.25" stroke-linecap="butt" stroke-linejoin="miter" stroke-miterlimit="3" d="M17.65 10.85 L16.25 12.45 Q15.75 13.35 15.7 14.1 15.65 15.75 16.8 17.2 18.2 18.9 20.8 19.55 20.45 21.25 19.7 21.65 22.2 22.15 23.15 19.7 L26.05 19 Q29.1 17.8 29.55 15.3 30.1 12.35 27.95 10.7 25.95 9.1 22.6 9.05 19.75 9 17.65 10.85"/>
    <path fill="none" stroke="#999999" stroke-width="0.5" stroke-linecap="round" stroke-linejoin="round" d="M1.1 17.8 Q1.2 18.3 1.9 18.5 L0.4 18.9 1.1 17.3 1.1 17.8"/>
    <path fill="none" stroke="url(#gradient7)" stroke-width="0.5" stroke-linecap="round" stroke-linejoin="round" d="M7.65 12.55 Q7.4 12.2 7.1 12.2 6.8 12.15 6.6 12.4 L1.45 16.95 1.25 17.45 1.4 18 Q1.6 18.25 1.9 18.3 L2.4 18.15 7.6 13.55 7.8 13.05 7.65 12.55"/>
    <path fill="none" stroke="#FFFFFF" stroke-width="0.5" stroke-opacity="0.7019607843137254" stroke-linecap="round" stroke-linejoin="round" d="M1.55 17.05 L6.8 12.35"/>
    <path fill="none" stroke="#FFFFFF" stroke-width="0.5" stroke-linecap="round" stroke-linejoin="round" d="M6.55 12.85 L6.7 13.15 Q6.9 13.45 7.2 13.5"/>
  </g>
</svg>