<?xml version="1.0" encoding="UTF-8" standalone="no"?>
<!-- Created with Inkscape (http://www.inkscape.org/) -->

<svg
   xmlns:dc="http://purl.org/dc/elements/1.1/"
   xmlns:cc="http://creativecommons.org/ns#"
   xmlns:rdf="http://www.w3.org/1999/02/22-rdf-syntax-ns#"
   xmlns:svg="http://www.w3.org/2000/svg"
   xmlns="http://www.w3.org/2000/svg"
   xmlns:xlink="http://www.w3.org/1999/xlink"
   version="1.1"
   width="100%"
   height="100%"
   id="svg2">
  <metadata
     id="metadata51">
    <rdf:RDF>
      <cc:Work
         rdf:about="">
        <dc:format>image/svg+xml</dc:format>
        <dc:type
           rdf:resource="http://purl.org/dc/dcmitype/StillImage" />
        <dc:title></dc:title>
      </cc:Work>
    </rdf:RDF>
  </metadata>
  <defs
     id="defs4">
    <linearGradient
       x1="-819.20001"
       x2="819.20001"
       id="gradient0"
       gradientUnits="userSpaceOnUse"
       gradientTransform="matrix(1.5258789e-5,-0.00952148,-0.01245117,-1.5258789e-5,8.25,14.85)"
       spreadMethod="pad">
      <stop
         id="stop7"
         style="stop-color:#eaeaea;stop-opacity:1"
         offset="0.70588237" />
      <stop
         id="stop9"
         style="stop-color:#dddddd;stop-opacity:1"
         offset="1" />
    </linearGradient>
    <linearGradient
       x1="-819.20001"
       x2="819.20001"
       id="gradient1"
       gradientUnits="userSpaceOnUse"
       gradientTransform="matrix(-3.0517578e-5,-0.00952148,0.0214386,-1.5258789e-5,2.5,14.85)"
       spreadMethod="pad">
      <stop
         id="stop12"
         style="stop-color:#eaeaea;stop-opacity:1"
         offset="0.70588237" />
      <stop
         id="stop14"
         style="stop-color:#dddddd;stop-opacity:1"
         offset="1" />
    </linearGradient>
    <linearGradient
       x1="-819.20001"
       x2="819.20001"
       id="gradient2"
       gradientUnits="userSpaceOnUse"
       gradientTransform="matrix(0,0.00640869,-0.00906372,0,20.65,17.9)"
       spreadMethod="pad">
      <stop
         id="stop17"
         style="stop-color:#b1e16b;stop-opacity:1"
         offset="0.00392157" />
      <stop
         id="stop19"
         style="stop-color:#94bc32;stop-opacity:1"
         offset="1" />
    </linearGradient>
    <linearGradient
       x1="-819.20001"
       x2="819.20001"
       id="linearGradient3033"
       xlink:href="#gradient2"
       gradientUnits="userSpaceOnUse"
       gradientTransform="matrix(0,0.00640869,-0.00906372,0,20.65,17.9)"
       spreadMethod="pad" />
    <linearGradient
       x1="-819.20001"
       x2="819.20001"
       id="linearGradient3037"
       xlink:href="#gradient1"
       gradientUnits="userSpaceOnUse"
       gradientTransform="matrix(-3.0517578e-5,-0.00952148,0.0214386,-1.5258789e-5,2.5,14.85)"
       spreadMethod="pad" />
    <linearGradient
       x1="-819.20001"
       x2="819.20001"
       id="linearGradient3040"
       xlink:href="#gradient0"
       gradientUnits="userSpaceOnUse"
       gradientTransform="matrix(1.5258789e-5,-0.00952148,-0.01245117,-1.5258789e-5,8.25,14.85)"
       spreadMethod="pad" />
  </defs>
  <path
     d="m 30,30.05 -30,0 0,-30 30,0 0,30"
     id="path23"
     style="fill:#010101;fill-opacity:0;stroke:none" />
  <path
     d="m 1,24.35 9.85,0 0.1,-0.05 4.75,-5 0.05,-0.05 0,-14.7 -0.05,-0.1 -0.05,0 -14.65,0 -0.1,0 -0.05,0.1 0,19.7 0.05,0.05 0.1,0.05"
     id="path25"
     style="fill:#cccccc;stroke:none" />
  <path
     d="m 0.65,24.6 0.35,0.1 9.85,0 0.35,-0.15 4.75,-5 0.15,-0.3 0,-14.7 L 15.95,4.2 15.65,4.1 1,4.1 0.65,4.2 0.5,4.55 l 0,19.7 0.15,0.35 m 0.1,-0.1 -0.1,-0.25 0,-19.7 L 0.75,4.3 1,4.2 l 14.65,0 0.25,0.1 0.1,0.25 0,14.7 -0.1,0.25 -4.8,5 -0.25,0.1 -9.85,0 -0.25,-0.1"
     id="path27"
     style="fill:#cccccc;fill-opacity:0.24705882;stroke:none" />
  <path
     d="m 0.75,24.5 0.25,0.1 9.85,0 0.25,-0.1 4.8,-5 L 16,19.25 16,4.55 15.9,4.3 15.65,4.2 1,4.2 0.75,4.3 l -0.1,0.25 0,19.7 0.1,0.25 M 1,24.45 0.8,24.4 0.75,24.25 0.75,4.55 0.8,4.4 1,4.3 l 14.65,0 0.15,0.1 0.05,0.15 0,14.7 -0.05,0.15 -4.75,5 -0.2,0.05 -9.85,0"
     id="path29"
     style="fill:#cccccc;fill-opacity:0.49803922;stroke:none" />
  <path
     d="m 1,24.45 9.85,0 0.2,-0.05 4.75,-5 0.05,-0.15 0,-14.7 L 15.8,4.4 15.65,4.3 1,4.3 0.8,4.4 0.75,4.55 l 0,19.7 0.05,0.15 0.2,0.05 m 0,-0.1 -0.1,-0.05 -0.05,-0.05 0,-19.7 0.05,-0.1 0.1,0 14.65,0 0.05,0 0.05,0.1 0,14.7 -0.05,0.05 -4.75,5 -0.1,0.05 -9.85,0"
     id="path31"
     style="fill:#cccccc;fill-opacity:0.74901961;stroke:none" />
  <path
     d="m 9.65,25 -9.25,0 0,-20.4 15.6,0 0,11.95 -6.35,0 0,8.45"
     id="path33"
     style="fill:url(#linearGradient3040);stroke:none" />
  <path
     d="m 9.65,25 0,-8.45 6.35,0 0.05,0 0,8.45 -6.4,0"
     id="path35"
     style="fill:url(#linearGradient3037);stroke:none" />
  <path
     d="m 16,25.1 -15.55,-0.05 0,-20.4 15.6,0 L 16,25.1"
     id="path43"
     style="fill:none;stroke:#c8c8c8;stroke-width:0.75;stroke-linecap:round;stroke-linejoin:round" />
  <path
     d="m 1.6,5.5 13.5,0 0,12.05"
     id="path45"
     style="fill:none;stroke:#ffffff;stroke-width:0.75;stroke-linecap:round;stroke-linejoin:round" />
  <path
     d="m 19.8,10.2 q 0.1,-0.15 0.3,-0.15 l 0.35,0.1 8.65,7.5 0.15,0.25 0,0.3 -0.15,0.2 -8.75,7.35 L 20,25.9 19.65,25.75 19.5,25.4 19.45,22 12.75,22.05 12.4,21.9 12.25,21.55 12.2,15.15 q 0,-0.25 0.15,-0.35 0.15,-0.15 0.35,-0.15 l 6.9,-0.05 0.05,-4.05 q 0,-0.25 0.15,-0.35"
     id="path37"
     style="fill:#799c27;stroke:none" />
  <path
     d="m 12.7,21.5 -0.05,-6.4 7.4,-0.05 0.05,-4.55 8.65,7.5 -8.8,7.35 -0.05,-3.9 -7.2,0.05"
     id="path39"
     style="fill:url(#linearGradient3033);stroke:none" />
  <path
     d="m 21.65,11.2 1.8,1.65 3.35,2.8 2.8,2.55 -0.3,-0.1 -0.2,0 -0.1,0 -2.95,0.55 L 12.2,18 l 0,-3.3 7.3,0 0,-0.6 0.1,0 0,-3.5 0.1,-0.1 0.3,-0.4 q 0.2,-0.35 1.65,1.1"
     id="path41"
     style="fill:#ffffff;fill-opacity:0.2;stroke:none" />
  <path
     d="m 20.7,11.8 0,3.85 -7.25,0"
     id="path47"
     style="fill:none;stroke:#ffffff;stroke-width:1;stroke-linecap:round;stroke-linejoin:round;stroke-opacity:0.4" />
</svg>
