<svg xmlns="http://www.w3.org/2000/svg" xmlns:xlink="http://www.w3.org/1999/xlink">
  <defs>
    <linearGradient gradientUnits="userSpaceOnUse" x1="-819.2" x2="819.2" spreadMethod="pad" gradientTransform="matrix(0 0.0064697265625 -0.005828857421875 0 6.2 17.7)" id="gradient0">
      <stop offset="0" stop-color="#C0FE81"/>
      <stop offset="1" stop-color="#597E01"/>
    </linearGradient>
    <linearGradient gradientUnits="userSpaceOnUse" x1="-819.2" x2="819.2" spreadMethod="pad" gradientTransform="matrix(0 0.00567626953125 -0.0051116943359375 0 6.15 17.6)" id="gradient1">
      <stop offset="0" stop-color="#CDFE9A"/>
      <stop offset="1" stop-color="#72A001"/>
    </linearGradient>
    <linearGradient gradientUnits="userSpaceOnUse" x1="-819.2" x2="819.2" spreadMethod="pad" gradientTransform="matrix(0 0.0049285888671875 -0.0049285888671875 0 6.2 11.9)" id="gradient2">
      <stop offset="0" stop-color="#C0FE81"/>
      <stop offset="1" stop-color="#597E01"/>
    </linearGradient>
    <linearGradient gradientUnits="userSpaceOnUse" x1="-819.2" x2="819.2" spreadMethod="pad" gradientTransform="matrix(0 0.0041961669921875 -0.0041961669921875 0 6.1 11.85)" id="gradient3">
      <stop offset="0.06666666666666667" stop-color="#FFFFFF"/>
      <stop offset="1" stop-color="#89C102"/>
    </linearGradient>
    <linearGradient gradientUnits="userSpaceOnUse" x1="-819.2" x2="819.2" spreadMethod="pad" gradientTransform="matrix(0.0017852783203125 0.00665283203125 -0.0059814453125 0.0016021728515625 11.8 22.45)" id="gradient4">
      <stop offset="0" stop-color="#D8EEF3"/>
      <stop offset="1" stop-color="#4883D9"/>
    </linearGradient>
    <linearGradient gradientUnits="userSpaceOnUse" x1="-819.2" x2="819.2" spreadMethod="pad" gradientTransform="matrix(0 0.007476806640625 -0.00665283203125 0 11.85 22.3)" id="gradient5">
      <stop offset="0" stop-color="#D8EEF3"/>
      <stop offset="1" stop-color="#0068BA"/>
    </linearGradient>
    <linearGradient gradientUnits="userSpaceOnUse" x1="-819.2" x2="819.2" spreadMethod="pad" gradientTransform="matrix(0 0.0059814453125 -0.006011962890625 0 11.7 15.5)" id="gradient6">
      <stop offset="0" stop-color="#A9CEE7"/>
      <stop offset="1" stop-color="#4883D9"/>
    </linearGradient>
    <linearGradient gradientUnits="userSpaceOnUse" x1="-819.2" x2="819.2" spreadMethod="pad" gradientTransform="matrix(0.0015869140625 0.005889892578125 -0.0049285888671875 0.0013275146484375 11.9 15.45)" id="gradient7">
      <stop offset="0.3215686274509804" stop-color="#D8EEF3"/>
      <stop offset="0.6039215686274509" stop-color="#ACCCEC"/>
      <stop offset="1" stop-color="#4883D9"/>
    </linearGradient>
    <linearGradient gradientUnits="userSpaceOnUse" x1="-819.2" x2="819.2" spreadMethod="pad" gradientTransform="matrix(0.0023956298828125 0.0089263916015625 -0.009490966796875 0.0025482177734375 21.55 8.85)" id="gradient8">
      <stop offset="0" stop-color="#ABCBE9"/>
      <stop offset="1" stop-color="#ABCCE9"/>
    </linearGradient>
  </defs>
  <g>
    <path stroke="none" fill="#010101" fill-opacity="0" d="M30 30.05 L0 30.05 0 0.05 30 0.05 30 30.05"/>
    <path stroke="none" fill="#CCCCCC" d="M9.95 15.2 Q11.5 16.85 11.5 19.2 11.5 21.6 10.05 22.35 8.7 23.1 6.35 23.15 4.05 23.25 2.5 22.45 0.95 21.6 0.95 19.2 0.95 16.85 2.45 15.2 4 13.55 6.2 13.55 8.4 13.55 9.95 15.2"/>
    <path stroke="none" fill="#CCCCCC" fill-opacity="0.24705882352941178" d="M10.15 15 Q8.55 13.3 6.2 13.3 3.9 13.3 2.3 15 0.65 16.75 0.65 19.2 0.65 21.75 2.4 22.65 3.95 23.5 6.35 23.45 8.75 23.35 10.2 22.6 11.75 21.75 11.75 19.2 11.75 16.75 10.15 15 M10.25 14.95 Q11.9 16.7 11.9 19.2 11.9 21.85 10.25 22.7 8.8 23.5 6.35 23.55 3.9 23.65 2.3 22.75 0.55 21.85 0.55 19.2 0.55 16.7 2.2 14.95 3.85 13.15 6.2 13.15 8.6 13.15 10.25 14.95"/>
    <path stroke="none" fill="#CCCCCC" fill-opacity="0.4980392156862745" d="M10.15 15 Q11.75 16.75 11.75 19.2 11.75 21.75 10.2 22.6 8.75 23.35 6.35 23.45 3.95 23.5 2.4 22.65 0.65 21.75 0.65 19.2 0.65 16.75 2.3 15 3.9 13.3 6.2 13.3 8.55 13.3 10.15 15 M10.05 15.1 Q8.45 13.4 6.2 13.4 3.95 13.4 2.35 15.1 0.8 16.8 0.8 19.2 0.8 21.7 2.45 22.55 4 23.35 6.35 23.3 8.7 23.25 10.15 22.45 11.6 21.7 11.65 19.2 11.6 16.8 10.05 15.1"/>
    <path stroke="none" fill="#CCCCCC" fill-opacity="0.7490196078431373" d="M10.05 15.1 Q11.6 16.8 11.65 19.2 11.6 21.7 10.15 22.45 8.7 23.25 6.35 23.3 4 23.35 2.45 22.55 0.8 21.7 0.8 19.2 0.8 16.8 2.35 15.1 3.95 13.4 6.2 13.4 8.45 13.4 10.05 15.1 M9.95 15.2 Q8.4 13.55 6.2 13.55 4 13.55 2.45 15.2 0.95 16.85 0.95 19.2 0.95 21.6 2.5 22.45 4.05 23.25 6.35 23.15 8.7 23.1 10.05 22.35 11.5 21.6 11.5 19.2 11.5 16.85 9.95 15.2"/>
    <path stroke="none" fill="#CCCCCC" d="M16.25 19.35 Q18.1 21.3 18.1 24.1 18.1 26.95 16.4 27.85 14.75 28.7 12 28.8 9.25 28.9 7.45 27.9 5.6 26.95 5.6 24.1 5.6 21.3 7.4 19.35 9.25 17.4 11.85 17.4 14.4 17.4 16.25 19.35"/>
    <path stroke="none" fill="#CCCCCC" fill-opacity="0.24705882352941178" d="M16.45 19.15 Q14.55 17.1 11.85 17.1 9.1 17.1 7.2 19.15 5.3 21.2 5.3 24.1 5.3 27.15 7.3 28.2 9.15 29.2 12 29.1 14.85 29.05 16.55 28.1 18.4 27.15 18.4 24.1 18.4 21.2 16.45 19.15 M16.55 19.05 L16.6 19.05 Q18.55 21.15 18.55 24.1 18.55 27.25 16.6 28.25 14.9 29.2 12 29.25 9.1 29.35 7.2 28.3 5.1 27.25 5.1 24.1 5.1 21.15 7.05 19.05 9.05 16.95 11.85 16.95 14.6 16.95 16.55 19.05"/>
    <path stroke="none" fill="#CCCCCC" fill-opacity="0.4980392156862745" d="M16.45 19.15 Q18.4 21.2 18.4 24.1 18.4 27.15 16.55 28.1 14.85 29.05 12 29.1 9.15 29.2 7.3 28.2 5.3 27.15 5.3 24.1 5.3 21.2 7.2 19.15 9.1 17.1 11.85 17.1 14.55 17.1 16.45 19.15 M16.35 19.25 Q14.5 17.25 11.85 17.25 9.15 17.25 7.3 19.25 5.45 21.25 5.45 24.1 5.45 27.05 7.35 28.05 9.2 29.05 12 28.95 14.8 28.9 16.45 27.95 18.2 27.05 18.25 24.1 18.2 21.25 16.35 19.25"/>
    <path stroke="none" fill="#CCCCCC" fill-opacity="0.7490196078431373" d="M16.35 19.25 Q18.2 21.25 18.25 24.1 18.2 27.05 16.45 27.95 14.8 28.9 12 28.95 9.2 29.05 7.35 28.05 5.45 27.05 5.45 24.1 5.45 21.25 7.3 19.25 9.15 17.25 11.85 17.25 14.5 17.25 16.35 19.25 M16.25 19.35 Q14.4 17.4 11.85 17.4 9.25 17.4 7.4 19.35 5.6 21.3 5.6 24.1 5.6 26.95 7.45 27.9 9.25 28.9 12 28.8 14.75 28.7 16.4 27.85 18.1 26.95 18.1 24.1 18.1 21.3 16.25 19.35"/>
    <path stroke="none" fill="url(#gradient0)" d="M9.85 14.6 Q11.4 16.25 11.45 18.6 11.4 21 10.15 21.75 8.8 22.4 6.55 22.45 4.25 22.45 2.55 21.75 0.75 21 0.75 18.65 0.75 16.25 2.4 14.6 3.95 12.95 6.15 12.95 8.3 12.95 9.85 14.6"/>
    <path stroke="none" fill="url(#gradient1)" d="M6.15 13.4 Q8.1 13.4 9.45 14.9 10.8 16.35 10.8 18.4 10.8 20.5 9.65 21.15 8.4 21.75 6.45 21.75 4.55 21.75 3.05 21.15 1.5 20.5 1.5 18.4 1.5 16.35 2.85 14.9 4.2 13.4 6.15 13.4"/>
    <path stroke="none" fill="#FFFFFF" fill-opacity="0.2" d="M5.55 14.8 Q2.7 19.35 5.25 21.65 4.05 21.5 3.05 21.05 1.5 20.4 1.5 18.35 1.5 16.3 4.9 13.25 8.3 10.2 5.55 14.8"/>
    <path stroke="none" fill="url(#gradient2)" d="M10.15 11.8 Q10.15 13.5 8.95 14.75 7.75 15.9 6.1 15.9 4.45 15.9 3.2 14.75 2.05 13.5 2.05 11.8 2.05 10.15 3.2 8.95 4.45 7.75 6.1 7.75 7.75 7.75 8.95 8.95 10.15 10.15 10.15 11.8"/>
    <path stroke="none" fill="#74A205" fill-opacity="0.10196078431372549" d="M3.15 18.05 Q4.45 17.45 6.3 17.5 8.15 17.45 9.4 18.05 10.7 18.6 10.75 19.4 10.7 20.15 9.4 20.7 8.15 21.25 6.3 21.25 L3.15 20.7 Q1.9 20.15 1.9 19.4 1.9 18.6 3.15 18.05"/>
    <path stroke="none" fill="url(#gradient3)" d="M6.1 15.3 Q4.7 15.3 3.65 14.3 2.65 13.3 2.65 11.85 2.65 10.45 3.65 9.45 4.7 8.45 6.1 8.45 7.5 8.45 8.5 9.45 9.55 10.45 9.55 11.85 9.55 13.3 8.5 14.3 7.5 15.3 6.1 15.3"/>
    <path stroke="none" fill="#FFFFFF" fill-opacity="0.30196078431372547" d="M8.25 9.65 Q8.55 10.2 7.7 10.45 L7 10.6 6.9 10.6 Q6.45 10.7 6.15 11.25 L5.75 12.15 5.35 12.5 4.65 12.75 Q3.55 13.05 3.2 12.3 2.9 11.6 3.45 10.7 L4.05 9.9 Q4.8 9.3 5.6 9.1 L7.3 9.05 8.25 9.65"/>
    <path stroke="none" fill="url(#gradient4)" d="M11.85 17.35 Q14.15 17.35 15.85 19.1 17.5 20.9 17.5 23.35 17.45 25.85 16 26.7 14.55 27.45 12.25 27.45 9.9 27.45 8.05 26.7 6.2 25.85 6.2 23.35 6.2 20.9 7.85 19.1 9.45 17.35 11.85 17.35"/>
    <path stroke="none" fill="#FFFFFF" fill-opacity="0.2" d="M8.05 26.7 Q6.2 25.85 6.2 23.35 6.2 20.85 10.35 17.15 14.5 13.45 11.05 19.05 7.65 24.6 10.8 27.35 L8.05 26.7 M16.05 26.7 Q14.8 27.35 12.95 27.45 L14 27.1 16.4 26.35 Q17.5 25.85 16.05 26.7"/>
    <path stroke="none" fill="#58A2D1" fill-opacity="0.4980392156862745" d="M8.25 23 Q9.8 22.25 12 22.3 14.25 22.25 15.8 23 17.4 23.65 17.4 24.6 17.4 25.55 15.8 26.25 L12 26.9 Q9.8 26.9 8.25 26.25 6.65 25.55 6.65 24.6 6.65 23.65 8.25 23"/>
    <path stroke="none" fill="url(#gradient5)" d="M11.85 16.9 Q14.35 16.9 16.1 18.8 17.95 20.65 18 23.35 17.95 26.15 16.45 26.95 14.9 27.75 12.35 27.8 9.7 27.85 7.7 26.95 5.7 26.15 5.75 23.45 5.75 20.7 7.55 18.8 9.3 16.9 11.85 16.9 M11.95 18.3 Q9.9 18.35 8.5 19.45 7.1 20.55 6.9 23.1 6.7 25.6 8.45 26.2 L12.25 26.75 15.7 26.25 Q17.1 25.7 17 23.35 16.85 21 15.45 19.6 14 18.15 11.95 18.3"/>
    <path stroke="none" fill="url(#gradient6)" d="M15.25 12 Q16.65 13.45 16.65 15.5 16.65 17.5 15.25 18.95 13.8 20.4 11.8 20.45 9.75 20.4 8.3 18.95 6.85 17.5 6.85 15.5 6.85 13.45 8.3 12 9.75 10.6 11.8 10.6 13.8 10.6 15.25 12"/>
    <path stroke="none" fill="url(#gradient7)" d="M11.9 19.65 Q10.1 19.65 8.9 18.4 7.65 17.2 7.7 15.45 7.65 13.7 8.9 12.5 10.1 11.25 11.9 11.3 13.55 11.25 14.8 12.5 16 13.7 16.05 15.45 16 17.2 14.8 18.4 13.55 19.65 11.9 19.65"/>
    <path stroke="none" fill="#FFFFFF" fill-opacity="0.30196078431372547" d="M14.45 12.8 Q14.8 13.45 13.75 13.7 L12.9 13.9 12.75 13.9 Q12.25 14.05 11.9 14.7 L11.4 15.8 10.9 16.2 10.1 16.55 Q8.75 16.9 8.3 16 7.95 15.15 8.6 14.05 9 13.3 9.35 13.1 L9.35 13.05 Q10.2 12.35 11.2 12.05 12.3 11.75 13.3 12.05 14.15 12.3 14.45 12.8"/>
    <path stroke="none" fill="#CCCCCC" d="M26.8 2.25 L27.6 2.85 Q28.6 3.6 29.05 4.55 29.75 6 29.4 7.95 28.8 10.75 25.4 12.1 L22.3 12.85 20.05 16.35 Q18.05 19.25 19.7 14.55 21.4 9.9 20.35 11.15 L19.3 12.55 Q16.9 11.85 15.5 10.35 L15.25 10 14.95 9.55 Q13.95 8.1 14.05 6.5 14.1 5.65 14.7 4.7 L14.95 4.3 Q15.45 3.5 16.25 2.85 L17.15 2.25 Q19.2 0.9 21.75 0.95 24.75 1 26.8 2.25"/>
    <path stroke="none" fill="url(#gradient8)" d="M27.3 2.65 Q29.65 4.55 29.05 7.65 28.45 10.35 25.15 11.65 23.5 12.3 21.95 12.4 20.95 15.05 18.5 16.9 20.2 14.55 19.45 12.2 16.6 11.45 15.15 9.6 13.9 8 14 6.2 14.05 5.35 14.6 4.45 15.2 3.5 16.15 2.7 18.45 0.75 21.55 0.8 25.15 0.9 27.3 2.65"/>
    <path stroke="none" fill="#FFFFFF" fill-opacity="0.2" d="M24.2 4.15 Q23.1 4.15 22.15 4.95 L20.6 6.35 19.45 6.7 17.7 6.9 Q15 6.85 14.75 5.3 14.45 3.95 16.2 2.55 17.4 1.7 18.15 1.5 L18.2 1.45 Q20.25 0.75 22.2 0.8 24.4 0.8 26.2 1.65 27.65 2.35 27.9 3.15 28.25 4.3 26.15 4.3 L24.5 4.15 24.2 4.15"/>
  </g>
</svg>