<?xml version="1.0" encoding="UTF-8" standalone="no"?>
<!-- Created with Inkscape (http://www.inkscape.org/) -->

<svg
   xmlns:dc="http://purl.org/dc/elements/1.1/"
   xmlns:cc="http://creativecommons.org/ns#"
   xmlns:rdf="http://www.w3.org/1999/02/22-rdf-syntax-ns#"
   xmlns:svg="http://www.w3.org/2000/svg"
   xmlns="http://www.w3.org/2000/svg"
   version="1.1"
   width="30.007895"
   height="30.050686"
   id="svg2">
  <metadata
     id="metadata33">
    <rdf:RDF>
      <cc:Work
         rdf:about="">
        <dc:format>image/svg+xml</dc:format>
        <dc:type
           rdf:resource="http://purl.org/dc/dcmitype/StillImage" />
        <dc:title></dc:title>
      </cc:Work>
    </rdf:RDF>
  </metadata>
  <defs
     id="defs4">
    <radialGradient
       cx="0"
       cy="0"
       r="819.20001"
       id="gradient0"
       gradientUnits="userSpaceOnUse"
       gradientTransform="matrix(0.01431274,-0.02481079,0.02720642,0.01571655,12.25,21.45)"
       spreadMethod="pad">
      <stop
         id="stop7"
         style="stop-color:#d8eef3;stop-opacity:1"
         offset="0" />
      <stop
         id="stop9"
         style="stop-color:#4883d9;stop-opacity:1"
         offset="1" />
    </radialGradient>
  </defs>
  <g
     transform="translate(0.00789474,6.8493151e-4)"
     id="g11">
    <path
       d="m 30,30.05 -30,0 0,-30 30,0 0,30"
       id="path13"
       style="fill:#010101;fill-opacity:0;stroke:none" />
    <path
       d="m 5.45,4.85 q 3.95,-3.25 9.3,-3.2 6.15,0.05 9.85,2.9 4.25,3.15 3.2,8.55 -0.9,4.6 -6.7,6.9 -2.55,0.95 -4.95,1.2 -1.85,4.3 -6.75,3.3 l 0.15,0 L 9.15,24.4 9,24.3 8.9,24 8.85,23.9 8.9,23.65 9,23.4 9.3,23.2 q 0.8,-0.6 1.25,-2.45 -4.35,-1.2 -6.7,-4 Q 1.55,14 1.75,10.9 1.8,9.45 2.8,7.85 q 1,-1.7 2.65,-3"
       id="path15"
       style="fill:#999999;stroke:none" />
    <path
       d="M 14.75,1.1 Q 9.2,1.05 5.05,4.4 3.35,5.85 2.3,7.55 1.2,9.3 1.15,10.85 1,14.2 3.4,17.05 q 2.3,2.85 6.5,4.1 -0.4,1.15 -0.95,1.6 l -0.4,0.35 -0.2,0.3 -0.05,0.5 0.2,0.7 0.3,0.25 0.7,0.2 q 5,1 7.05,-3.35 2.3,-0.25 4.75,-1.2 6.15,-2.4 7.1,-7.3 l 0,-0.05 Q 29.45,7.5 25,4.15 21.15,1.15 14.75,1.1 m 14.2,12.15 q -1,5.25 -7.4,7.75 -2.4,0.85 -4.6,1.2 -2.3,4.55 -7.75,3.45 L 8.45,25.3 8.05,24.9 7.75,24.35 Q 7.6,23.75 7.8,23.25 7.85,22.9 8.15,22.7 L 8.7,22.3 9.2,21.5 Q 5.15,20.15 2.95,17.45 0.4,14.35 0.6,10.85 0.65,9.15 1.8,7.3 2.9,5.45 4.7,3.95 8.95,0.5 14.75,0.55 q 6.6,0.05 10.6,3.15 4.75,3.6 3.6,9.55"
       id="path17"
       style="fill:#999999;fill-opacity:0.49803922;stroke:none" />
    <path
       d="M 28.95,13.25 Q 30.1,7.3 25.35,3.7 21.35,0.6 14.75,0.55 8.95,0.5 4.7,3.95 2.9,5.45 1.8,7.3 0.65,9.15 0.6,10.85 q -0.2,3.5 2.35,6.6 2.2,2.7 6.25,4.05 l -0.5,0.8 -0.55,0.4 q -0.3,0.2 -0.35,0.55 -0.2,0.5 -0.05,1.1 l 0.3,0.55 0.4,0.4 0.75,0.35 q 5.45,1.1 7.75,-3.45 2.2,-0.35 4.6,-1.2 6.4,-2.5 7.4,-7.75 M 25.7,3.3 q 5.05,3.75 3.85,10.05 -1,5.55 -7.8,8.15 l -4.4,1.2 Q 14.9,27.25 9.3,26.2 L 8.15,25.75 7.6,25.25 7.25,24.4 l 0,0.1 Q 7,23.75 7.25,23.1 7.4,22.65 7.7,22.3 L 8.4,21.8 Q 4.65,20.45 2.55,17.8 -0.15,14.5 0,10.8 0.05,9.05 1.35,7 2.4,5.1 4.3,3.55 8.8,-0.05 14.75,0 21.6,0.1 25.7,3.25 l 0,0.05"
       id="path19"
       style="fill:#999999;fill-opacity:0.24705882;stroke:none" />
    <path
       d="m 14.75,1.1 q 6.4,0.05 10.25,3.05 4.45,3.35 3.4,9 l 0,0.05 q -0.95,4.9 -7.1,7.3 -2.45,0.95 -4.75,1.2 -2.05,4.35 -7.05,3.35 L 8.8,24.85 8.5,24.6 8.3,23.9 8.35,23.4 8.55,23.1 8.95,22.75 Q 9.5,22.3 9.9,21.15 5.7,19.9 3.4,17.05 1,14.2 1.15,10.85 1.2,9.3 2.3,7.55 3.35,5.85 5.05,4.4 9.2,1.05 14.75,1.1 m -9.3,3.75 q -1.65,1.3 -2.65,3 -1,1.6 -1.05,3.05 -0.2,3.1 2.1,5.85 2.35,2.8 6.7,4 Q 10.1,22.6 9.3,23.2 L 9,23.4 8.9,23.65 8.85,23.9 8.9,24 9,24.3 l 0.15,0.1 0.4,0.1 -0.15,0 q 4.9,1 6.75,-3.3 2.4,-0.25 4.95,-1.2 5.8,-2.3 6.7,-6.9 Q 28.85,7.7 24.6,4.55 20.9,1.7 14.75,1.65 9.4,1.6 5.45,4.85"
       id="path21"
       style="fill:#999999;fill-opacity:0.74901961;stroke:none" />
    <path
       d="m 14.8,1.5 q 5.9,0.05 9.45,2.85 3.85,3.05 2.9,8.2 -0.9,4.45 -6.3,6.65 -2.7,1 -5.15,1.25 -1.6,4.35 -6.1,3.45 1.35,-0.75 1.9,-3.75 Q 6.85,19 4.45,16.05 2.35,13.45 2.5,10.45 2.55,9.15 3.45,7.6 4.4,6 6,4.65 9.7,1.45 14.8,1.5"
       id="path23"
       style="fill:url(#gradient0);stroke:none" />
    <path
       d="m 15.8,8.4 -2.4,2.25 q -0.6,0.4 -1.85,0.65 l -2.9,0.3 Q 4.2,11.6 3.7,9.1 3.2,6.85 6.1,4.6 8,3.1 9.2,2.75 L 9.3,2.7 q 3.3,-1.2 6.55,-1.2 3.6,0 6.5,1.4 2.45,1.15 2.9,2.45 0.6,1.85 -2.85,1.85 L 19.65,7 19.2,7 q -1.8,0 -3.4,1.4"
       id="path25"
       style="fill:#ffffff;fill-opacity:0.2;stroke:none" />
    <path
       d="m 11.5,20.15 q -0.55,3 -1.85,3.75 4.45,0.9 6.05,-3.45"
       id="path27"
       style="fill:none;stroke:#0068ba;stroke-width:0.75;stroke-linecap:round;stroke-linejoin:round" />
    <path
       d="M 11.55,20.4 Q 8.75,19.95 6.15,17.95 2.5,15 2.5,10.9 q 0,-4.1 3.65,-7 3.7,-2.85 8.9,-2.85 5.25,0 8.9,2.85 3.7,2.9 3.7,7 0,4.1 -3.7,7.05 -3.7,2.85 -8.6,2.85"
       id="path29"
       style="fill:none;stroke:#0068ba;stroke-width:0.75;stroke-linecap:round;stroke-linejoin:round" />
  </g>
</svg>
