<svg xmlns="http://www.w3.org/2000/svg" xmlns:xlink="http://www.w3.org/1999/xlink">
  <defs>
    <linearGradient gradientUnits="userSpaceOnUse" x1="-819.2" x2="819.2" spreadMethod="pad" gradientTransform="matrix(0.0022125244140625 -0.018768310546875 0.0070953369140625 0.0008392333984375 17.75 12.75)" id="gradient0">
      <stop offset="0.3686274509803922" stop-color="#FFFFFF"/>
      <stop offset="1" stop-color="#A4C0EC"/>
    </linearGradient>
    <linearGradient gradientUnits="userSpaceOnUse" x1="-819.2" x2="819.2" spreadMethod="pad" gradientTransform="matrix(0.0106353759765625 0.001220703125 -0.0006103515625 0.0053558349609375 17.15 15.9)" id="gradient1">
      <stop offset="0" stop-color="#BBD87B"/>
      <stop offset="0.5254901960784314" stop-color="#86B523"/>
      <stop offset="1" stop-color="#D2E79F"/>
    </linearGradient>
    <linearGradient gradientUnits="userSpaceOnUse" x1="-819.2" x2="819.2" spreadMethod="pad" gradientTransform="matrix(0.0017852783203125 0.00665283203125 -0.0059814453125 0.0016021728515625 7.1 22.65)" id="gradient2">
      <stop offset="0" stop-color="#D8EEF3"/>
      <stop offset="1" stop-color="#4883D9"/>
    </linearGradient>
    <linearGradient gradientUnits="userSpaceOnUse" x1="-819.2" x2="819.2" spreadMethod="pad" gradientTransform="matrix(0 0.007476806640625 -0.00665283203125 0 7.15 22.5)" id="gradient3">
      <stop offset="0" stop-color="#D8EEF3"/>
      <stop offset="1" stop-color="#0068BA"/>
    </linearGradient>
    <linearGradient gradientUnits="userSpaceOnUse" x1="-819.2" x2="819.2" spreadMethod="pad" gradientTransform="matrix(0 0.0059814453125 -0.006011962890625 0 7 15.7)" id="gradient4">
      <stop offset="0" stop-color="#A9CEE7"/>
      <stop offset="1" stop-color="#4883D9"/>
    </linearGradient>
    <linearGradient gradientUnits="userSpaceOnUse" x1="-819.2" x2="819.2" spreadMethod="pad" gradientTransform="matrix(0.0015869140625 0.005889892578125 -0.0049285888671875 0.0013275146484375 7.2 15.65)" id="gradient5">
      <stop offset="0.3215686274509804" stop-color="#D8EEF3"/>
      <stop offset="0.6039215686274509" stop-color="#ACCCEC"/>
      <stop offset="1" stop-color="#4883D9"/>
    </linearGradient>
  </defs>
  <g>
    <path stroke="none" fill="#010101" fill-opacity="0" d="M30 30.05 L0 30.05 0 0.05 30 0.05 30 30.05"/>
    <path stroke="none" fill="#95C33B" d="M26.1 24.25 L26 25.2 26 23.3 26.1 24.25"/>
    <path stroke="none" fill="#AAAAAA" d="M29.55 4.95 L29.65 5.4 27.4 24.8 27.2 25.25 26.85 25.35 6.25 23.05 5.95 22.85 5.8 22.4 8.1 3 8.3 2.55 8.65 2.4 29.25 4.75 29.55 4.95"/>
    <path stroke="none" fill="#FFFFFF" d="M26.45 24.6 L6.4 22.3 8.6 3 28.65 5.3 26.45 24.6"/>
    <path stroke="none" fill="url(#gradient0)" d="M25.5 20.95 L8.3 19 9.95 4.6 27.15 6.55 25.5 20.95"/>
    <path stroke="none" fill="url(#gradient1)" d="M21 14.4 Q23.5 12.3 24.6 12.3 25.5 12.3 26.3 13.55 L25.45 21.05 8.2 19.05 8.6 15.5 Q9.3 14.95 10 14.55 12.85 13.05 14.6 14.9 L16.35 16.4 Q17 16.85 17.6 16.75 18.2 16.65 19 16.05 L21 14.4"/>
    <path stroke="none" fill="#CCCCCC" d="M11.7 19.85 Q13.55 21.85 13.55 24.65 13.55 27.5 11.85 28.45 10.15 29.35 7.4 29.4 4.6 29.5 2.75 28.55 0.85 27.5 0.85 24.65 0.85 21.85 2.7 19.85 4.55 17.85 7.2 17.85 9.85 17.85 11.7 19.85"/>
    <path stroke="none" fill="#CCCCCC" fill-opacity="0.24705882352941178" d="M11.9 19.65 Q10 17.55 7.2 17.55 4.45 17.55 2.5 19.65 0.55 21.7 0.55 24.65 0.55 27.75 2.6 28.8 4.5 29.8 7.4 29.75 10.25 29.65 12 28.7 13.85 27.75 13.85 24.65 13.85 21.7 11.9 19.65 M12 19.55 L12.05 19.55 Q14 21.65 14.05 24.65 14 27.85 12.05 28.85 10.3 29.8 7.4 29.9 4.45 29.95 2.55 28.95 0.4 27.85 0.4 24.65 0.4 21.65 2.35 19.55 4.35 17.4 7.2 17.4 10.05 17.4 12 19.55"/>
    <path stroke="none" fill="#CCCCCC" fill-opacity="0.4980392156862745" d="M11.9 19.65 Q13.85 21.7 13.85 24.65 13.85 27.75 12 28.7 10.25 29.65 7.4 29.75 4.5 29.8 2.6 28.8 0.55 27.75 0.55 24.65 0.55 21.7 2.5 19.65 4.45 17.55 7.2 17.55 10 17.55 11.9 19.65 M11.8 19.75 Q9.9 17.7 7.2 17.7 4.5 17.7 2.6 19.75 0.7 21.75 0.7 24.65 0.7 27.65 2.65 28.65 4.55 29.65 7.4 29.6 10.2 29.5 11.9 28.6 13.7 27.65 13.7 24.65 13.7 21.75 11.8 19.75"/>
    <path stroke="none" fill="#CCCCCC" fill-opacity="0.7490196078431373" d="M11.8 19.75 Q13.7 21.75 13.7 24.65 13.7 27.65 11.9 28.6 10.2 29.5 7.4 29.6 4.55 29.65 2.65 28.65 0.7 27.65 0.7 24.65 0.7 21.75 2.6 19.75 4.5 17.7 7.2 17.7 9.9 17.7 11.8 19.75 M11.7 19.85 Q9.85 17.85 7.2 17.85 4.55 17.85 2.7 19.85 0.85 21.85 0.85 24.65 0.85 27.5 2.75 28.55 4.6 29.5 7.4 29.4 10.15 29.35 11.85 28.45 13.55 27.5 13.55 24.65 13.55 21.85 11.7 19.85"/>
    <path stroke="none" fill="url(#gradient2)" d="M7.15 17.55 Q9.45 17.55 11.15 19.3 12.8 21.1 12.8 23.55 12.75 26.05 11.3 26.9 9.85 27.65 7.55 27.65 5.2 27.65 3.35 26.9 1.5 26.05 1.5 23.55 1.5 21.1 3.15 19.3 4.75 17.55 7.15 17.55"/>
    <path stroke="none" fill="#FFFFFF" fill-opacity="0.2" d="M3.35 26.9 Q1.5 26.05 1.5 23.55 1.5 21.05 5.65 17.35 9.8 13.65 6.35 19.25 2.95 24.8 6.1 27.55 L3.35 26.9 M11.7 26.55 Q12.8 26.05 11.35 26.9 10.1 27.55 8.25 27.65 8.5 27.45 9.3 27.3 L11.7 26.55"/>
    <path stroke="none" fill="#58A2D1" fill-opacity="0.4980392156862745" d="M3.55 23.2 Q5.1 22.45 7.3 22.5 9.55 22.45 11.1 23.2 12.7 23.85 12.7 24.8 12.7 25.75 11.1 26.45 9.55 27.1 7.3 27.1 5.1 27.1 3.55 26.45 1.95 25.75 1.95 24.8 1.95 23.85 3.55 23.2"/>
    <path stroke="none" fill="url(#gradient3)" d="M7.25 18.5 Q5.2 18.55 3.8 19.65 2.4 20.75 2.2 23.3 2 25.8 3.75 26.4 L7.55 26.95 11 26.45 Q12.4 25.9 12.3 23.55 12.15 21.2 10.75 19.8 9.3 18.35 7.25 18.5 M7.15 17.1 Q9.65 17.1 11.4 19 13.25 20.85 13.3 23.55 13.25 26.35 11.75 27.15 10.2 27.95 7.65 28 5 28.05 3 27.15 1 26.35 1.05 23.65 1.05 20.9 2.85 19 4.6 17.1 7.15 17.1"/>
    <path stroke="none" fill="url(#gradient4)" d="M10.55 12.2 Q11.95 13.65 11.95 15.7 11.95 17.7 10.55 19.15 9.1 20.6 7.1 20.65 5.05 20.6 3.6 19.15 2.15 17.7 2.15 15.7 2.15 13.65 3.6 12.2 5.05 10.8 7.1 10.8 9.1 10.8 10.55 12.2"/>
    <path stroke="none" fill="url(#gradient5)" d="M7.2 19.85 Q5.4 19.85 4.2 18.6 2.95 17.4 3 15.65 2.95 13.9 4.2 12.7 5.4 11.45 7.2 11.5 8.85 11.45 10.1 12.7 11.3 13.9 11.35 15.65 11.3 17.4 10.1 18.6 8.85 19.85 7.2 19.85"/>
    <path stroke="none" fill="#FFFFFF" fill-opacity="0.30196078431372547" d="M9.75 13 Q10.1 13.65 9.05 13.9 L8.2 14.1 8.05 14.1 Q7.55 14.25 7.2 14.9 L6.7 16 6.2 16.4 5.4 16.75 Q4.05 17.1 3.6 16.2 3.25 15.35 3.9 14.25 4.3 13.5 4.65 13.3 L4.65 13.25 6.5 12.25 Q7.6 11.95 8.6 12.25 9.45 12.5 9.75 13"/>
    <path stroke="none" fill="#BBBBBB" d="M12.8 1.25 Q12.85 0.85 13.35 0.5 13.9 0.15 14.55 0.15 15.15 0.15 15.55 0.5 16 0.85 16 1.3 L15.4 7.2 14.75 7.9 13.7 8.25 Q13.05 8.25 12.55 7.9 12.15 7.6 12.2 7.2 L12.8 1.25"/>
    <path fill="none" stroke="#FFFFFF" stroke-width="0.25" stroke-linecap="round" stroke-linejoin="round" d="M14.2 1.3 L13.7 7"/>
  </g>
</svg>