<svg xmlns="http://www.w3.org/2000/svg" xmlns:xlink="http://www.w3.org/1999/xlink">
  <defs>
    <linearGradient gradientUnits="userSpaceOnUse" x1="-819.2" x2="819.2" spreadMethod="pad" gradientTransform="matrix(0.0003509521484375 -0.0111541748046875 0.0106964111328125 0.0003204345703125 13.8 14.4)" id="gradient0">
      <stop offset="0" stop-color="#CF7A27"/>
      <stop offset="1" stop-color="#FCCA58"/>
    </linearGradient>
    <linearGradient gradientUnits="userSpaceOnUse" x1="-819.2" x2="819.2" spreadMethod="pad" gradientTransform="matrix(0.00250244140625 0.0105438232421875 -0.0075836181640625 0.002288818359375 13 8.5)" id="gradient1">
      <stop offset="0.4980392156862745" stop-color="#FFFFFF"/>
      <stop offset="1" stop-color="#E1E1E1"/>
    </linearGradient>
    <linearGradient gradientUnits="userSpaceOnUse" x1="-819.2" x2="819.2" spreadMethod="pad" gradientTransform="matrix(0.0003509521484375 -0.0111541748046875 0.010711669921875 0.000335693359375 13.6 14.3)" id="gradient2">
      <stop offset="0" stop-color="#CF7A27"/>
      <stop offset="1" stop-color="#FCCA58"/>
    </linearGradient>
  </defs>
  <g>
    <path stroke="none" fill="#D9D9D9" d="M27.4 22.95 Q27.4 24.8 23.35 26.1 19.35 27.4 13.7 27.4 8.05 27.4 4 26.1 0 24.8 0 22.95 0 21.1 4 19.8 8.05 18.5 13.7 18.5 19.35 18.5 23.35 19.8 27.4 21.1 27.4 22.95"/>
    <path stroke="none" fill="url(#gradient0)" d="M4.65 5.65 L22.9 5.65 22.9 23.2 4.65 23.2 4.65 5.65"/>
    <path stroke="none" fill="url(#gradient1)" d="M19.6 14 L9.75 17 Q8.85 9.55 6.4 2.95 L16.25 0 Q17.25 7.45 19.6 14"/>
    <path stroke="none" fill="url(#gradient2)" d="M5.9 22 L5.9 11.05 20.95 11.05 20.95 22 5.9 22"/>
    <path stroke="none" fill="#010101" fill-opacity="0" d="M30 30.05 L0 30.05 0 0.05 30 0.05 30 30.05"/>
    <path fill="none" stroke="#8F6114" stroke-width="0.5" stroke-linecap="round" stroke-linejoin="round" d="M4.65 5.65 L22.9 5.65 22.9 23.2 4.65 23.2 4.65 5.65"/>
    <path fill="none" stroke="#FFFFFF" stroke-width="0.5" stroke-opacity="0.6" stroke-linecap="round" stroke-linejoin="round" d="M5.4 6.35 L22.05 6.35"/>
    <path fill="none" stroke="#836841" stroke-width="0.2" stroke-linecap="round" stroke-linejoin="round" d="M16.2 0 Q17.05 7.45 19.5 14 L9.65 16.95 Q8.85 9.75 6.35 2.95 L16.2 0"/>
    <path fill="none" stroke="#CCCCCC" stroke-width="0.5" stroke-linecap="round" stroke-linejoin="round" d="M9.35 8.4 L15.8 6.5 M9.8 10.3 L16.25 8.35 M10.2 12.05 L16.65 10.1 M10.75 13.9 L17.15 11.95 M8.95 6.55 L15.4 4.65"/>
    <path fill="none" stroke="#8F6114" stroke-width="0.5" stroke-linecap="round" stroke-linejoin="round" d="M8.05 10.3 L7.4 10.3 7.4 11.15 19.45 11.15 19.45 10.3 18.75 10.3"/>
    <path fill="none" stroke="#FFFFFF" stroke-width="0.5" stroke-opacity="0.6" stroke-linecap="round" stroke-linejoin="round" d="M7.45 12.6 L19.5 12.6"/>
  </g>
</svg>