<svg xmlns="http://www.w3.org/2000/svg" xmlns:xlink="http://www.w3.org/1999/xlink">
  <defs>
    <linearGradient gradientUnits="userSpaceOnUse" x1="-819.2" x2="819.2" spreadMethod="pad" gradientTransform="matrix(0.005340576171875 0.0164337158203125 -0.013336181640625 0.00433349609375 14.75 14.6)" id="gradient0">
      <stop offset="0.4980392156862745" stop-color="#FFFFFF"/>
      <stop offset="1" stop-color="#E1E1E1"/>
    </linearGradient>
    <linearGradient gradientUnits="userSpaceOnUse" x1="-819.2" x2="819.2" spreadMethod="pad" gradientTransform="matrix(0.00604248046875 0.003509521484375 -0.003265380859375 0.005615234375 8.85 10.7)" id="gradient1">
      <stop offset="0" stop-color="#CCE393"/>
      <stop offset="1" stop-color="#799C27"/>
    </linearGradient>
    <radialGradient gradientUnits="userSpaceOnUse" r="819.2" cx="0" cy="0" spreadMethod="pad" gradientTransform="matrix(0.001617431640625 -0.0007476806640625 0.000762939453125 0.00164794921875 13.2 5.9)" id="gradient2">
      <stop offset="0" stop-color="#CCE393"/>
      <stop offset="1" stop-color="#799C27"/>
    </radialGradient>
  </defs>
  <g>
    <path stroke="none" fill="#010101" fill-opacity="0" d="M30 30.05 L0 30.05 0 0.05 30 0.05 30 30.05"/>
    <path stroke="none" fill="#CCCCCC" d="M20.45 1.55 L27.45 23.15 27.45 23.25 27.35 23.35 10.4 28.85 3.35 7.1 20.45 1.55"/>
    <path stroke="none" fill="#CCCCCC" fill-opacity="0.24705882352941178" d="M20.7 1.45 L20.85 1.4 27.85 23 27.85 23.45 27.5 23.7 10.55 29.2 10.5 29.1 27.45 23.6 27.7 23.4 27.7 23.05 20.7 1.45"/>
    <path stroke="none" fill="#CCCCCC" fill-opacity="0.4980392156862745" d="M20.7 1.45 L27.7 23.05 27.7 23.4 27.45 23.6 10.5 29.1 10.45 28.95 27.4 23.45 27.55 23.3 27.6 23.1 20.6 1.5 20.7 1.45"/>
    <path stroke="none" fill="#CCCCCC" fill-opacity="0.7490196078431373" d="M20.45 1.55 L20.6 1.5 27.6 23.1 27.55 23.3 27.4 23.45 10.45 28.95 10.4 28.85 27.35 23.35 27.45 23.25 27.45 23.15 20.45 1.55"/>
    <path stroke="none" fill="url(#gradient0)" d="M19.85 0.9 L26.95 22.75 9.6 28.35 2.5 6.5 19.85 0.9"/>
    <path stroke="none" fill="#CCCCCC" d="M3.4 15.5 L14.2 5.5 Q15.6 6 15.5 6.9 15.75 7.2 14.35 8.85 L10.7 12.6 6.75 15.9 Q4.95 17.2 3.8 17.35 0.8 17.75 3.4 15.5"/>
    <path stroke="none" fill="#999999" d="M3.35 14.7 Q3.55 15.55 4.75 15.9 L2.15 16.6 3.35 13.95 3.35 14.7"/>
    <path stroke="none" fill="url(#gradient1)" d="M12.6 5.4 L13.45 5.55 Q13.8 5.4 14.15 5.8 L14.2 5.85 Q14.6 6.25 14.6 6.8 14.6 7.35 14.25 7.7 L5.35 15.75 Q4.95 16.1 4.4 16 3.85 15.95 3.5 15.5 L3.45 15.45 Q3.05 15 3.05 14.5 3 13.95 3.4 13.6 L12.6 5.4"/>
    <path stroke="none" fill="#D1E3A4" d="M13.1 5.7 Q12.95 6.35 13.45 6.6 L14.4 6.9 Q14.9 6.9 13 8.5 L5.35 15.3 4.55 15.55 3.8 15.1 Q3.5 14.7 3.55 14.25 3.55 13.8 3.9 13.5 L11.55 6.65 Q13.25 5.1 13.1 5.7"/>
    <path stroke="none" fill="url(#gradient2)" d="M12.4 6 Q12.4 5.55 12.75 5.25 L13.55 5.2 14.4 5.85 14.8 6.85 14.5 7.6 13.7 7.7 Q13.2 7.55 12.85 7.05 12.4 6.55 12.4 6"/>
    <path fill="none" stroke="#BFBFBF" stroke-width="1" stroke-linecap="round" stroke-linejoin="round" d="M26.95 22.7 L9.65 28.3"/>
    <path fill="none" stroke="#CCCCCC" stroke-width="0.75" stroke-linecap="round" stroke-linejoin="round" d="M2.55 6.45 L19.85 0.8"/>
    <path fill="none" stroke="#BFBFBF" stroke-width="0.75" stroke-linecap="round" stroke-linejoin="round" d="M19.85 0.8 L26.95 22.7 M9.65 28.3 L2.55 6.45"/>
    <path fill="none" stroke="#CCCCCC" stroke-width="0.5" stroke-linecap="round" stroke-linejoin="round" d="M8.3 14.9 L19.8 11.15"/>
    <path fill="none" stroke="#CCCCCC" stroke-width="0.5" stroke-linecap="round" stroke-linejoin="round" d="M9.15 17.65 L20.65 13.85"/>
    <path fill="none" stroke="#CCCCCC" stroke-width="0.5" stroke-linecap="round" stroke-linejoin="round" d="M10.05 20.35 L21.6 16.55"/>
    <path fill="none" stroke="#CCCCCC" stroke-width="0.5" stroke-linecap="round" stroke-linejoin="round" d="M10.95 23.1 L22.45 19.35"/>
    <path fill="none" stroke="#CCCCCC" stroke-width="0.5" stroke-linecap="round" stroke-linejoin="round" d="M7.4 12.2 L18.95 8.45"/>
    <path fill="none" stroke="#999999" stroke-width="0.25" stroke-linecap="round" stroke-linejoin="round" d="M3.35 14.7 Q3.55 15.55 4.75 15.9 L2.15 16.6 3.35 13.95 3.35 14.7"/>
    <path fill="none" stroke="#FFFFFF" stroke-width="0.25" stroke-opacity="0.7019607843137254" stroke-linecap="round" stroke-linejoin="round" d="M3.8 14 L12.15 6.5"/>
    <path fill="none" stroke="#FFFFFF" stroke-width="0.25" stroke-linecap="round" stroke-linejoin="round" d="M12.5 6.55 L12.75 7.1 Q13.1 7.6 13.6 7.7"/>
  </g>
</svg>