<svg xmlns="http://www.w3.org/2000/svg" xmlns:xlink="http://www.w3.org/1999/xlink">
  <defs>
    <linearGradient gradientUnits="userSpaceOnUse" x1="-819.2" x2="819.2" spreadMethod="pad" gradientTransform="matrix(0 0.0131683349609375 -0.0145111083984375 0 10.2 16.25)" id="gradient0">
      <stop offset="0" stop-color="#CF7A27"/>
      <stop offset="1" stop-color="#FCCA58"/>
    </linearGradient>
    <linearGradient gradientUnits="userSpaceOnUse" x1="-819.2" x2="819.2" spreadMethod="pad" gradientTransform="matrix(0.0012359619140625 0.0116729736328125 -0.0097503662109375 0.00103759765625 10.3 16.4)" id="gradient1">
      <stop offset="0.4980392156862745" stop-color="#FFFFFF"/>
      <stop offset="1" stop-color="#E1E1E1"/>
    </linearGradient>
    <linearGradient gradientUnits="userSpaceOnUse" x1="-819.2" x2="819.2" spreadMethod="pad" gradientTransform="matrix(-0.005645751953125 -0.0032806396484375 0.004791259765625 -0.00830078125 15.1 8.05)" id="gradient2">
      <stop offset="0"/>
      <stop offset="1" stop-color="#FFFFFF"/>
    </linearGradient>
  </defs>
  <g>
    <path stroke="none" fill="#010101" fill-opacity="0" d="M30 30.05 L0 30.05 0 0.05 30 0.05 30 30.05"/>
    <path stroke="none" fill="#CCCCCC" fill-opacity="0.24705882352941178" d="M22.05 9 Q22.05 7.5 21.25 6.8 20.5 6.05 19 6.05 L4.5 6.05 Q1.4 6.05 1.45 9 L1.45 26.55 Q1.4 29.45 4.5 29.45 L19 29.45 Q20.5 29.45 21.25 28.75 22.05 28 22.05 26.55 L22.05 9 M22.2 9 L22.2 26.55 Q22.2 28.05 21.35 28.85 20.55 29.6 19 29.6 L4.5 29.6 Q1.25 29.6 1.3 26.55 L1.3 9 Q1.25 5.9 4.5 5.95 L19 5.95 Q20.55 5.9 21.35 6.7 22.2 7.45 22.2 9"/>
    <path stroke="none" fill="#CCCCCC" fill-opacity="0.4980392156862745" d="M21.9 9 Q21.9 7.6 21.2 6.9 20.45 6.2 19 6.2 L4.5 6.2 Q1.55 6.2 1.55 9 L1.55 26.55 Q1.55 29.35 4.5 29.35 L19 29.35 Q20.45 29.35 21.2 28.65 21.9 27.95 21.9 26.55 L21.9 9 M22.05 9 L22.05 26.55 Q22.05 28 21.25 28.75 20.5 29.45 19 29.45 L4.5 29.45 Q1.4 29.45 1.45 26.55 L1.45 9 Q1.4 6.05 4.5 6.05 L19 6.05 Q20.5 6.05 21.25 6.8 22.05 7.5 22.05 9"/>
    <path stroke="none" fill="#CCCCCC" fill-opacity="0.7490196078431373" d="M21.8 9 Q21.8 7.65 21.1 7 20.4 6.35 19 6.35 L4.5 6.35 Q1.7 6.35 1.7 9 L1.7 26.55 Q1.7 29.2 4.5 29.2 L19 29.2 Q20.4 29.2 21.1 28.55 21.8 27.85 21.8 26.55 L21.8 9 M21.9 9 L21.9 26.55 Q21.9 27.95 21.2 28.65 20.45 29.35 19 29.35 L4.5 29.35 Q1.55 29.35 1.55 26.55 L1.55 9 Q1.55 6.2 4.5 6.2 L19 6.2 Q20.45 6.2 21.2 6.9 21.9 7.6 21.9 9"/>
    <path stroke="none" fill="#CCCCCC" d="M21.8 9 L21.8 26.55 Q21.8 27.85 21.1 28.55 20.4 29.2 19 29.2 L4.5 29.2 Q1.7 29.2 1.7 26.55 L1.7 9 Q1.7 6.35 4.5 6.35 L19 6.35 Q20.4 6.35 21.1 7 21.8 7.65 21.8 9"/>
    <path stroke="none" fill="url(#gradient0)" d="M0.3 7.5 Q0.3 4.95 2.95 4.95 L17.45 4.95 Q20.1 4.95 20.1 7.5 L20.1 25.05 Q20.1 27.55 17.45 27.55 L2.95 27.55 Q0.3 27.55 0.3 25.05 L0.3 7.5"/>
    <path stroke="none" fill="#B16A23" fill-opacity="0.5019607843137255" d="M17.85 24.2 Q12.1 26.35 5.9 25.45 6.7 17.3 4.2 9.2 L16.1 7.95 16.4 8 16.55 12.05 Q16.5 16 17.35 19.95 L18.1 24.05 17.85 24.2"/>
    <path stroke="none" fill="url(#gradient1)" d="M17.4 23.5 L4.75 24.85 Q5.45 17.35 3.1 9.35 L15.75 8 Q14.65 15.75 17.4 23.5"/>
    <path stroke="none" fill="#CCCCCC" d="M9.5 11.8 Q9.5 11.05 10.3 10.45 11.05 9.95 12.1 10 13.15 9.95 13.85 10.45 14.7 11 14.7 11.8 14.7 12.55 13.85 13.1 13.15 13.6 12.1 13.6 11.05 13.6 10.3 13.1 9.5 12.55 9.5 11.8"/>
    <path stroke="none" fill="#CCCCCC" fill-opacity="0.24705882352941178" d="M14.4 9.65 L14.4 9.7 Q15.7 10.6 15.6 11.8 15.7 13 14.35 13.85 13.45 14.55 12.1 14.55 10.75 14.55 9.8 13.8 8.55 13 8.6 11.8 8.55 10.6 9.75 9.75 L9.8 9.65 Q10.8 9.05 12.1 9.05 13.45 9.05 14.4 9.65 M14.25 9.95 L14.2 9.95 Q13.35 9.35 12.1 9.35 10.85 9.35 9.95 9.9 L9.9 10 Q8.85 10.75 8.9 11.8 8.85 12.85 9.95 13.6 10.85 14.2 12.1 14.2 13.4 14.2 14.25 13.55 L14.2 13.6 Q15.35 12.85 15.3 11.8 15.35 10.75 14.25 9.95"/>
    <path stroke="none" fill="#CCCCCC" fill-opacity="0.4980392156862745" d="M14.25 9.95 Q15.35 10.75 15.3 11.8 15.35 12.85 14.2 13.6 L14.25 13.55 Q13.4 14.2 12.1 14.2 10.85 14.2 9.95 13.6 8.85 12.85 8.9 11.8 8.85 10.75 9.9 10 L9.95 9.9 Q10.85 9.35 12.1 9.35 13.35 9.35 14.2 9.95 L14.25 9.95 M14.05 10.2 Q13.25 9.65 12.1 9.65 11 9.65 10.15 10.2 L10.1 10.2 Q9.2 10.9 9.2 11.8 9.2 12.7 10.15 13.35 10.95 13.9 12.1 13.9 13.25 13.9 14 13.35 L14.1 13.3 Q15.05 12.65 15 11.8 15.05 10.9 14.05 10.2"/>
    <path stroke="none" fill="#CCCCCC" fill-opacity="0.7490196078431373" d="M14.05 10.2 Q15.05 10.9 15 11.8 15.05 12.65 14.1 13.3 L14 13.35 Q13.25 13.9 12.1 13.9 10.95 13.9 10.15 13.35 9.2 12.7 9.2 11.8 9.2 10.9 10.1 10.2 L10.15 10.2 Q11 9.65 12.1 9.65 13.25 9.65 14.05 10.2 M9.5 11.8 Q9.5 12.55 10.3 13.1 11.05 13.6 12.1 13.6 13.15 13.6 13.85 13.1 14.7 12.55 14.7 11.8 14.7 11 13.85 10.45 13.15 9.95 12.1 10 11.05 9.95 10.3 10.45 9.5 11.05 9.5 11.8"/>
    <path stroke="none" fill="#333333" d="M11.6 11.05 Q11.9 10.8 12.35 10.85 L13.05 11.05 Q13.4 11.25 13.4 11.6 L13.05 12.15 12.35 12.35 Q11.9 12.35 11.6 12.15 11.25 11.9 11.25 11.6 11.25 11.25 11.6 11.05"/>
    <path stroke="none" fill="#333333" fill-opacity="0.24705882352941178" d="M13.4 10.55 Q14 10.95 13.95 11.6 14 12.2 13.4 12.6 L13.4 12.65 12.35 12.95 Q11.7 12.95 11.3 12.65 L11.3 12.6 Q10.65 12.2 10.7 11.6 10.65 10.95 11.3 10.55 11.7 10.25 12.35 10.25 L13.4 10.55 M11.4 10.7 Q10.85 11.05 10.9 11.6 10.85 12.1 11.4 12.45 L12.35 12.75 13.25 12.45 Q13.8 12.1 13.8 11.6 13.8 11.05 13.25 10.7 L12.35 10.45 Q11.75 10.45 11.4 10.7"/>
    <path stroke="none" fill="#333333" fill-opacity="0.7490196078431373" d="M11.5 10.9 Q11.85 10.65 12.35 10.65 L13.15 10.9 Q13.6 11.15 13.6 11.6 L13.15 12.3 12.35 12.55 11.5 12.3 Q11.05 12 11.05 11.6 11.05 11.15 11.5 10.9 M11.6 11.05 Q11.25 11.25 11.25 11.6 11.25 11.9 11.6 12.15 11.9 12.35 12.35 12.35 L13.05 12.15 13.4 11.6 Q13.4 11.25 13.05 11.05 L12.35 10.85 Q11.9 10.8 11.6 11.05"/>
    <path stroke="none" fill="#333333" fill-opacity="0.4980392156862745" d="M11.5 10.9 Q11.05 11.15 11.05 11.6 11.05 12 11.5 12.3 L12.35 12.55 13.15 12.3 13.6 11.6 Q13.6 11.15 13.15 10.9 L12.35 10.65 Q11.85 10.65 11.5 10.9 M11.4 10.7 Q11.75 10.45 12.35 10.45 L13.25 10.7 Q13.8 11.05 13.8 11.6 13.8 12.1 13.25 12.45 L12.35 12.75 11.4 12.45 Q10.85 12.1 10.9 11.6 10.85 11.05 11.4 10.7"/>
    <path stroke="none" fill="url(#gradient2)" d="M18.95 0.25 Q20.95 0.3 20.95 3.15 L12.85 12.1 12.55 12.1 11.85 11.8 11.5 11.6 11.45 11.6 17 0.8 Q17.85 0.3 18.95 0.25"/>
    <path stroke="none" fill="#FFFFFF" fill-opacity="0.4980392156862745" d="M20.95 1.65 Q21.25 2.45 20.9 3.1 20.55 3.7 19.75 3.85 18.95 3.95 18.15 3.45 17.4 3 17.1 2.15 16.8 1.4 17.15 0.75 17.5 0.15 18.25 0.05 19.05 -0.1 19.85 0.4 20.6 0.9 20.95 1.65"/>
    <path fill="none" stroke="#FFFFFF" stroke-width="0.5" stroke-linecap="round" stroke-linejoin="round" d="M0.6 6.55 L0.6 25.55"/>
    <path fill="none" stroke="#8F6114" stroke-width="0.5" stroke-linecap="round" stroke-linejoin="round" d="M2.95 4.95 Q0.3 4.95 0.3 7.45 L0.3 25.05 Q0.75 27.3 2.95 27.55 L3.4 27.55 17.45 27.55 Q20.1 27.55 20.1 25.05 L20.1 7.45 Q20.1 4.95 17.45 4.95 L2.95 4.95"/>
    <path fill="none" stroke="#8D7147" stroke-width="0.75" stroke-linecap="round" stroke-linejoin="round" d="M17.45 23.45 L4.8 24.8 Q5.05 17.05 3.15 9.3 L15.8 7.95 Q15.25 15.7 17.45 23.45"/>
    <path fill="none" stroke="#CCCCCC" stroke-width="0.75" stroke-linecap="round" stroke-linejoin="round" d="M5.8 13.8 L13.95 12.95"/>
    <path fill="none" stroke="#CCCCCC" stroke-width="0.75" stroke-linecap="round" stroke-linejoin="round" d="M6.1 16.6 L14.25 15.75"/>
    <path fill="none" stroke="#CCCCCC" stroke-width="0.75" stroke-linecap="round" stroke-linejoin="round" d="M6.3 19.05 L14.5 18.2"/>
    <path fill="none" stroke="#CCCCCC" stroke-width="0.75" stroke-linecap="round" stroke-linejoin="round" d="M6.55 21.45 L14.75 20.6"/>
    <path fill="none" stroke="#FFFFFF" stroke-width="0.5" stroke-opacity="0.6" stroke-linecap="round" stroke-linejoin="round" d="M12.1 11.25 L16.8 2.7"/>
  </g>
</svg>