<?xml version="1.0" encoding="UTF-8" standalone="no"?>
<!-- Created with Inkscape (http://www.inkscape.org/) -->

<svg
   xmlns:dc="http://purl.org/dc/elements/1.1/"
   xmlns:cc="http://creativecommons.org/ns#"
   xmlns:rdf="http://www.w3.org/1999/02/22-rdf-syntax-ns#"
   xmlns:svg="http://www.w3.org/2000/svg"
   xmlns="http://www.w3.org/2000/svg"
   version="1.1"
   width="30"
   height="30"
   id="svg2">
  <metadata
     id="metadata44">
    <rdf:RDF>
      <cc:Work
         rdf:about="">
        <dc:format>image/svg+xml</dc:format>
        <dc:type
           rdf:resource="http://purl.org/dc/dcmitype/StillImage" />
        <dc:title></dc:title>
      </cc:Work>
    </rdf:RDF>
  </metadata>
  <defs
     id="defs4">
    <linearGradient
       x1="-819.20001"
       x2="819.20001"
       id="gradient0"
       gradientUnits="userSpaceOnUse"
       gradientTransform="matrix(0.00314331,0.01242065,-0.01342773,0.00338745,15.1,16.4)"
       spreadMethod="pad">
      <stop
         id="stop7"
         style="stop-color:#ccea9d;stop-opacity:1"
         offset="0.01568628" />
      <stop
         id="stop9"
         style="stop-color:#afdf68;stop-opacity:1"
         offset="0.20784314" />
      <stop
         id="stop11"
         style="stop-color:#85b320;stop-opacity:1"
         offset="1" />
    </linearGradient>
    <linearGradient
       x1="-819.20001"
       x2="819.20001"
       id="gradient1"
       gradientUnits="userSpaceOnUse"
       gradientTransform="matrix(0.01023865,0.01023865,-0.01023865,0.01023865,14.8,14.6)"
       spreadMethod="pad">
      <stop
         id="stop14"
         style="stop-color:#afdf68;stop-opacity:1"
         offset="0" />
      <stop
         id="stop16"
         style="stop-color:#85b320;stop-opacity:1"
         offset="1" />
    </linearGradient>
  </defs>
  <g
     transform="translate(0,-0.05)"
     id="g18">
    <path
       d="m 30,30.05 -30,0 0,-30 30,0 0,30"
       id="path20"
       style="fill:#010101;fill-opacity:0;stroke:none" />
    <path
       d="m 24.7,5.3 q 4,4 4,9.7 0,5.7 -4,9.7 -4,4 -9.65,4 -5.7,0 -9.7,-4 -4,-4 -4,-9.7 0,-5.7 4,-9.7 4,-4 9.7,-3.95 Q 20.7,1.3 24.7,5.3 M 24.3,5.75 Q 20.45,1.85 15.05,1.9 9.6,1.85 5.75,5.75 1.9,9.55 1.9,15 q 0,5.5 3.85,9.3 3.85,3.85 9.3,3.85 5.4,0 9.25,-3.85 3.85,-3.8 3.85,-9.3 0,-5.45 -3.85,-9.25"
       id="path22"
       style="fill:#cccccc;fill-opacity:0.24705882;stroke:none" />
    <path
       d="m 24.3,5.75 q 3.85,3.8 3.85,9.25 0,5.5 -3.85,9.3 -3.85,3.85 -9.25,3.85 -5.45,0 -9.3,-3.85 Q 1.9,20.5 1.9,15 1.9,9.55 5.75,5.75 9.6,1.85 15.05,1.9 20.45,1.85 24.3,5.75 m -0.35,0.4 Q 20.25,2.4 15.05,2.45 9.8,2.4 6.1,6.15 2.45,9.8 2.45,15 q 0,5.2 3.65,8.95 3.7,3.7 8.95,3.7 5.2,0 8.9,-3.7 Q 27.6,20.2 27.6,15 27.6,9.8 23.95,6.15"
       id="path24"
       style="fill:#cccccc;fill-opacity:0.49803922;stroke:none" />
    <path
       d="M 23.95,6.15 Q 27.6,9.8 27.6,15 q 0,5.2 -3.65,8.95 -3.7,3.7 -8.9,3.7 -5.25,0 -8.95,-3.7 Q 2.45,20.2 2.45,15 2.45,9.8 6.1,6.15 9.8,2.4 15.05,2.45 q 5.2,-0.05 8.9,3.7 M 23.55,6.5 Q 20.05,2.95 15.05,3 10,2.95 6.5,6.5 2.95,10 2.95,15 q 0,5 3.55,8.55 3.5,3.55 8.55,3.55 5,0 8.5,-3.55 3.5,-3.55 3.5,-8.55 0,-5 -3.5,-8.5"
       id="path26"
       style="fill:#cccccc;fill-opacity:0.74901961;stroke:none" />
    <path
       d="m 23.55,6.5 q 3.5,3.5 3.5,8.5 0,5 -3.5,8.55 -3.5,3.55 -8.5,3.55 Q 10,27.1 6.5,23.55 2.95,20 2.95,15 2.95,10 6.5,6.5 10,2.95 15.05,3 q 5,-0.05 8.5,3.5"
       id="path28"
       style="fill:#cccccc;stroke:none" />
    <path
       d="m 22.9,6.55 q 3.35,3.3 3.35,8.05 0,4.7 -3.35,8.05 -3.3,3.3 -8,3.3 -4.75,0 -8.05,-3.3 Q 3.5,19.3 3.5,14.6 3.5,9.85 6.85,6.55 10.15,3.2 14.9,3.2 q 4.7,0 8,3.35"
       id="path30"
       style="fill:url(#gradient0);stroke:none" />
    <path
       d="m 19.25,11.15 0,1.3 -0.2,0.6 -0.7,0.95 -1.45,1.3 -0.45,0.45 -0.25,0.4 -0.1,0.3 -0.15,0.6 q -0.15,0.85 -1,0.85 L 14.2,17.65 q -0.25,-0.3 -0.25,-0.85 l 0.2,-1.25 0.55,-0.9 1,-0.95 0.75,-0.75 0.4,-0.55 L 17,11.8 Q 17,11.1 16.55,10.65 16,10.2 15.2,10.2 q -0.9,0 -1.35,0.45 -0.45,0.5 -0.75,1.4 Q 12.8,13 12,13 q -0.45,0 -0.8,-0.35 -0.3,-0.35 -0.3,-0.7 0,-0.8 0.5,-1.65 0.55,-0.8 1.5,-1.35 1,-0.55 2.3,-0.55 1.25,0 2.2,0.45 0.9,0.45 1.4,1.25 l 0.45,1.05 m -4.2,10.05 q -0.5,0 -0.9,-0.35 -0.4,-0.3 -0.4,-0.9 0,-0.55 0.4,-0.9 0.35,-0.35 0.9,-0.35 0.5,0 0.85,0.35 0.4,0.35 0.4,0.9 0,0.6 -0.4,0.9 -0.35,0.35 -0.85,0.35"
       id="path32"
       style="fill:#95c33b;stroke:none" />
    <path
       d="m 11.8,22.6 q -1.35,-0.55 -1.35,-1.25 0,-0.75 1.35,-1.25 1.2,-0.5 3,-0.5 1.75,0 3,0.5 1.35,0.5 1.35,1.25 0,0.7 -1.35,1.25 l -3,0.4 -3,-0.4"
       id="path34"
       style="fill:#ffffff;fill-opacity:0.10196078;stroke:none" />
    <path
       d="M 4.1,16.4 Q 4.05,9.75 7.05,7.1 L 7.1,7 Q 9.2,4.45 12.7,3.7 16.15,2.95 21.05,5.6 25.9,8.2 25.8,16 14.5,11.25 4.1,16.4"
       id="path36"
       style="fill:#ffffff;fill-opacity:0.2;stroke:none" />
    <path
       d="m 13.05,10.55 q -0.45,0.5 -0.75,1.4 -0.3,0.95 -1.1,0.95 -0.5,0 -0.8,-0.35 -0.35,-0.3 -0.35,-0.7 0,-0.8 0.55,-1.6 Q 11.1,9.4 12.05,8.9 13.1,8.35 14.4,8.35 l 2.15,0.4 Q 17.5,9.25 18,10 q 0.5,0.75 0.5,1.7 l -0.3,1.25 -0.65,0.95 -1.45,1.3 -0.45,0.45 -0.25,0.4 -0.15,0.3 -0.15,0.6 q -0.15,0.85 -0.95,0.85 l -0.7,-0.25 Q 13.1,17.25 13.1,16.7 l 0.2,-1.25 0.6,-0.9 1,-0.95 0.75,-0.7 0.4,-0.55 0.15,-0.65 q 0,-0.65 -0.5,-1.15 -0.5,-0.5 -1.3,-0.5 -0.9,0 -1.35,0.5 m 1.2,8.1 q 0.5,0 0.85,0.3 0.4,0.4 0.4,0.9 0,0.55 -0.4,0.95 l -0.85,0.3 q -0.55,0 -0.95,-0.3 -0.35,-0.35 -0.35,-0.95 0,-0.5 0.35,-0.9 0.4,-0.3 0.95,-0.3"
       id="path38"
       style="fill:#ffffff;stroke:none" />
    <path
       d="M 22.75,22.5 Q 26,19.25 26,14.65 26,10 22.75,6.75 19.5,3.5 14.9,3.5 10.25,3.5 7,6.75 3.75,10 3.75,14.65 q 0,4.6 3.25,7.85 3.25,3.25 7.9,3.25 4.6,0 7.85,-3.25 M 26.7,14.65 Q 26.65,19.55 23.2,23 19.75,26.45 14.85,26.45 9.9,26.45 6.45,23 3,19.55 3,14.65 3,9.7 6.45,6.25 9.9,2.75 14.85,2.8 q 4.9,-0.05 8.35,3.45 3.45,3.45 3.5,8.4"
       id="path40"
       style="fill:url(#gradient1);stroke:none" />
  </g>
</svg>
