<?xml version="1.0" encoding="UTF-8" standalone="no"?>
<!-- Created with Inkscape (http://www.inkscape.org/) -->

<svg
   xmlns:dc="http://purl.org/dc/elements/1.1/"
   xmlns:cc="http://creativecommons.org/ns#"
   xmlns:rdf="http://www.w3.org/1999/02/22-rdf-syntax-ns#"
   xmlns:svg="http://www.w3.org/2000/svg"
   xmlns="http://www.w3.org/2000/svg"
   xmlns:xlink="http://www.w3.org/1999/xlink"
   version="1.1"
   width="100%"
   height="100%"
   id="svg2">
  <metadata
     id="metadata47">
    <rdf:RDF>
      <cc:Work
         rdf:about="">
        <dc:format>image/svg+xml</dc:format>
        <dc:type
           rdf:resource="http://purl.org/dc/dcmitype/StillImage" />
        <dc:title></dc:title>
      </cc:Work>
    </rdf:RDF>
  </metadata>
  <defs
     id="defs4">
    <linearGradient
       x1="-819.20001"
       x2="819.20001"
       id="gradient0"
       gradientUnits="userSpaceOnUse"
       gradientTransform="matrix(0.00514221,0.01580811,-0.01281738,0.00416565,14.55,14.75)"
       spreadMethod="pad">
      <stop
         id="stop7"
         style="stop-color:#ffffff;stop-opacity:1"
         offset="0.49803922" />
      <stop
         id="stop9"
         style="stop-color:#e1e1e1;stop-opacity:1"
         offset="1" />
    </linearGradient>
    <linearGradient
       x1="-819.20001"
       x2="819.20001"
       id="linearGradient3035"
       xlink:href="#gradient0"
       gradientUnits="userSpaceOnUse"
       gradientTransform="matrix(0.00514221,0.01580811,-0.01281738,0.00416565,14.55,14.75)"
       spreadMethod="pad" />
  </defs>
  <path
     d="m 30,30.05 -30,0 0,-30 30,0 0,30"
     id="path13"
     style="fill:#010101;fill-opacity:0;stroke:none" />
  <path
     d="m 19.9,2 6.75,20.8 0.05,0.1 -0.1,0.05 -16.35,5.3 L 3.45,7.35 19.9,2"
     id="path15"
     style="fill:#cccccc;stroke:none" />
  <path
     d="m 20.15,1.95 0.15,-0.05 6.75,20.8 0,0.4 -0.3,0.25 -16.35,5.3 -0.05,-0.15 16.35,-5.3 0.2,-0.2 0,-0.25 -6.75,-20.8"
     id="path17"
     style="fill:#cccccc;fill-opacity:0.24705882;stroke:none" />
  <path
     d="m 20.15,1.95 6.75,20.8 0,0.25 -0.2,0.2 -16.35,5.3 -0.05,-0.1 16.35,-5.3 0.1,-0.15 0.05,-0.2 -6.75,-20.8 0.1,0"
     id="path19"
     style="fill:#cccccc;fill-opacity:0.49803922;stroke:none" />
  <path
     d="m 19.9,2 0.15,-0.05 6.75,20.8 -0.05,0.2 -0.1,0.15 L 10.3,28.4 10.25,28.25 26.6,22.95 26.7,22.9 26.65,22.8 19.9,2"
     id="path21"
     style="fill:#cccccc;fill-opacity:0.74901961;stroke:none" />
  <path
     d="M 19.5,1.5 26.35,22.55 9.7,28 2.85,6.95 19.5,1.5"
     id="path23"
     style="fill:url(#linearGradient3035);stroke:none" />
  <path
     d="m 6.85,8.5 -2.3,0.1 -0.6,-1.85 14.2,-4.65 0.6,1.85 q 0.1,0.35 -1.85,1.3 -2,0.95 -5,1.9 L 6.85,8.5"
     id="path25"
     style="fill:#e5e5e5;stroke:none" />
  <path
     d="M 19.4,1.5 26.25,22.55 9.6,28 2.8,7"
     id="path29"
     style="fill:none;stroke:#bfbfbf;stroke-width:0.75;stroke-linecap:round;stroke-linejoin:round" />
  <path
     d="M 2.8,7 19.4,1.5"
     id="path31"
     style="fill:none;stroke:#cccccc;stroke-width:0.75;stroke-linecap:round;stroke-linejoin:round" />
  <path
     d="m 7.45,12.4 11.1,-3.65 m -8.4,12.05 11.1,-3.6 M 8.85,16.4 13.9,14.75 14.55,14.5 19.9,12.8"
     id="path37"
     style="fill:none;stroke:#cccccc;stroke-width:0.5;stroke-linecap:round;stroke-linejoin:round" />
  <path
     d="m 15,16.7 6.95,2.7 Q 22.5,11 27.2,5.9"
     id="path39"
     style="fill:none;stroke:#999999;stroke-width:4;stroke-linecap:round;stroke-linejoin:round" />
  <path
     d="m 14.35,15 6.9,2.8 Q 22.05,9.6 26.6,4.6"
     id="path41"
     style="fill:none;stroke:#7db9df;stroke-width:4;stroke-linecap:round;stroke-linejoin:round" />
  <path
     d="m 13.7,13.65 q 2.8,0.15 6.45,2.4 0.15,-2.55 2.15,-7.1 2,-4.6 4.55,-6.5"
     id="path43"
     style="fill:none;stroke:#ffffff;stroke-width:0.5;stroke-linecap:round;stroke-linejoin:round;stroke-opacity:0.6" />
  <path
     d="m 17.692916,3.5047229 0.15,-1.05 -0.55,-0.8 -0.9,-0.15 -11.4000005,3.45 q -0.5,0.15 -0.7,0.65 -0.25,0.45 -0.15,1 l 0.55,0.85 0.95,0.1 11.3500005,-3.45 q 0.45,-0.15 0.7,-0.6"
     id="path33"
     style="fill:none;stroke:#cce393;stroke-width:0.75;stroke-linecap:round;stroke-linejoin:round" />
  <path
     d="M 17.85,3.4 Q 17.6,3.85 17.15,4 L 5.8,7.45 4.85,7.35 4.3,6.5 Q 4.2,5.95 4.45,5.5 4.65,5 5.15,4.85 L 16.55,1.4 17.45,1.55 18,2.35 17.85,3.4"
     id="path27"
     style="fill:#d1e3a4;stroke:none" />
</svg>
