<svg xmlns="http://www.w3.org/2000/svg" xmlns:xlink="http://www.w3.org/1999/xlink">
  <defs>
    <linearGradient gradientUnits="userSpaceOnUse" x1="-819.2" x2="819.2" spreadMethod="pad" gradientTransform="matrix(0 0.016693115234375 -0.0139617919921875 0 14.7 15.45)" id="gradient0">
      <stop offset="0.4980392156862745" stop-color="#FFFFFF"/>
      <stop offset="1" stop-color="#E1E1E1"/>
    </linearGradient>
    <linearGradient gradientUnits="userSpaceOnUse" x1="-819.2" x2="819.2" spreadMethod="pad" gradientTransform="matrix(0 0.001983642578125 -0.0029296875 0 9.25 4.7)" id="gradient1">
      <stop offset="0" stop-color="#FEBE5F"/>
      <stop offset="1" stop-color="#996600"/>
    </linearGradient>
    <linearGradient gradientUnits="userSpaceOnUse" x1="-819.2" x2="819.2" spreadMethod="pad" gradientTransform="matrix(0 0.001983642578125 -0.0029296875 0 14.55 4.7)" id="gradient2">
      <stop offset="0" stop-color="#FEBE5F"/>
      <stop offset="1" stop-color="#996600"/>
    </linearGradient>
    <linearGradient gradientUnits="userSpaceOnUse" x1="-819.2" x2="819.2" spreadMethod="pad" gradientTransform="matrix(0 0.001983642578125 -0.0029296875 0 19.7 4.7)" id="gradient3">
      <stop offset="0" stop-color="#FEBE5F"/>
      <stop offset="1" stop-color="#996600"/>
    </linearGradient>
  </defs>
  <g>
    <path stroke="none" fill="#010101" fill-opacity="0" d="M30 30.05 L0 30.05 0 0.05 30 0.05 30 30.05"/>
    <path stroke="none" fill="#CCCCCC" d="M6.2 4.85 L24.35 4.85 24.45 4.9 24.5 5 24.5 27.2 24.45 27.3 24.35 27.35 6.2 27.35 6.1 27.3 6.05 27.2 6.05 5 6.1 4.9 6.2 4.85"/>
    <path stroke="none" fill="#CCCCCC" fill-opacity="0.24705882352941178" d="M6.2 4.5 L24.35 4.5 24.75 4.65 24.9 5 24.9 27.2 24.75 27.6 24.35 27.7 6.2 27.7 5.85 27.6 5.65 27.2 5.65 5 5.85 4.65 Q6 4.5 6.2 4.5 M6.2 4.6 L5.95 4.75 5.8 5 5.8 27.2 5.95 27.5 6.2 27.6 24.35 27.6 24.6 27.5 24.75 27.2 24.75 5 24.6 4.75 Q24.5 4.6 24.35 4.6 L6.2 4.6"/>
    <path stroke="none" fill="#CCCCCC" fill-opacity="0.4980392156862745" d="M6.2 4.6 L24.35 4.6 Q24.5 4.6 24.6 4.75 L24.75 5 24.75 27.2 24.6 27.5 24.35 27.6 6.2 27.6 5.95 27.5 5.8 27.2 5.8 5 5.95 4.75 6.2 4.6 M6.2 4.75 L6 4.8 5.95 5 5.95 27.2 6 27.4 6.2 27.45 24.35 27.45 24.55 27.4 24.6 27.2 24.6 5 24.55 4.8 24.35 4.75 6.2 4.75"/>
    <path stroke="none" fill="#CCCCCC" fill-opacity="0.7490196078431373" d="M6.2 4.75 L24.35 4.75 24.55 4.8 24.6 5 24.6 27.2 24.55 27.4 24.35 27.45 6.2 27.45 6 27.4 5.95 27.2 5.95 5 6 4.8 6.2 4.75 M6.2 4.85 L6.1 4.9 6.05 5 6.05 27.2 6.1 27.3 6.2 27.35 24.35 27.35 24.45 27.3 24.5 27.2 24.5 5 24.45 4.9 24.35 4.85 6.2 4.85"/>
    <path stroke="none" fill="url(#gradient0)" d="M23.75 4.35 L23.75 26.55 5.6 26.55 5.6 4.35 23.75 4.35"/>
    <path stroke="none" fill="#D5D5D5" d="M8.3 7.7 Q7.9 7.45 7.9 7.1 L7.9 5.15 10.6 5.15 10.6 7.1 10.3 7.7 9.25 7.95 8.3 7.7"/>
    <path stroke="none" fill="#D5D5D5" d="M13.65 7.7 Q13.25 7.45 13.25 7.1 L13.25 5.15 15.95 5.15 15.95 7.1 15.65 7.7 14.6 7.95 13.65 7.7"/>
    <path stroke="none" fill="#D5D5D5" d="M18.8 7.7 Q18.4 7.45 18.4 7.1 L18.4 5.15 21.1 5.15 21.1 7.1 20.8 7.7 19.75 7.95 18.8 7.7"/>
    <path stroke="none" fill="#FFCC33" d="M8.65 5.8 L8.65 3.55 8.7 3.5 9 3.4 9.55 3.4 9.85 3.5 9.9 3.55 9.9 5.8 9.85 5.85 9.15 5.95 8.8 5.85 8.65 5.8"/>
    <path stroke="none" fill="url(#gradient1)" d="M8.65 5.8 L8.8 5.85 9.15 5.95 9.85 5.85 9.9 5.8 9.9 3.55 9.85 3.5 9.55 3.4 9 3.4 8.7 3.5 8.65 3.55 8.65 5.8 M10.9 3.9 L10.9 5.5 Q10.9 6.15 10.4 6.6 9.95 7.1 9.3 7.1 L9.25 7.1 Q8.6 7.1 8.1 6.6 7.65 6.15 7.65 5.5 L7.65 3.9 Q7.65 3.25 8.1 2.75 8.6 2.3 9.25 2.3 L9.3 2.3 Q9.95 2.3 10.4 2.75 10.9 3.25 10.9 3.9"/>
    <path stroke="none" fill="#FFCC33" d="M13.95 5.8 L13.95 3.55 14 3.5 14.3 3.4 14.85 3.4 15.15 3.5 15.2 3.55 15.2 5.8 15.15 5.85 14.45 5.95 14.1 5.85 13.95 5.8"/>
    <path stroke="none" fill="url(#gradient2)" d="M13.95 5.8 L14.1 5.85 14.45 5.95 15.15 5.85 15.2 5.8 15.2 3.55 15.15 3.5 14.85 3.4 14.3 3.4 14 3.5 13.95 3.55 13.95 5.8 M16.2 3.9 L16.2 5.5 Q16.2 6.15 15.7 6.6 15.25 7.1 14.6 7.1 L14.55 7.1 Q13.9 7.1 13.4 6.6 12.95 6.15 12.95 5.5 L12.95 3.9 Q12.95 3.25 13.4 2.75 13.9 2.3 14.55 2.3 L14.6 2.3 Q15.25 2.3 15.7 2.75 16.2 3.25 16.2 3.9"/>
    <path stroke="none" fill="#FFCC33" d="M19.1 5.8 L19.1 3.55 19.15 3.5 19.45 3.4 20 3.4 20.3 3.5 20.35 3.55 20.35 5.8 20.3 5.85 19.6 5.95 19.25 5.85 19.1 5.8"/>
    <path stroke="none" fill="url(#gradient3)" d="M19.1 5.8 L19.25 5.85 19.6 5.95 20.3 5.85 20.35 5.8 20.35 3.55 20.3 3.5 20 3.4 19.45 3.4 19.15 3.5 19.1 3.55 19.1 5.8 M21.35 3.9 L21.35 5.5 Q21.35 6.15 20.85 6.6 20.4 7.1 19.75 7.1 L19.7 7.1 Q19.05 7.1 18.55 6.6 18.1 6.15 18.1 5.5 L18.1 3.9 Q18.1 3.25 18.55 2.75 19.05 2.3 19.7 2.3 L19.75 2.3 Q20.4 2.3 20.85 2.75 21.35 3.25 21.35 3.9"/>
    <path fill="none" stroke="#BFBFBF" stroke-width="1" stroke-linecap="round" stroke-linejoin="round" d="M23.7 4.4 L23.7 26.55 5.6 26.55 5.6 4.4"/>
    <path fill="none" stroke="#CCCCCC" stroke-width="1" stroke-linecap="round" stroke-linejoin="round" d="M5.6 4.4 L5.65 4.4 23.7 4.4 24.3 4.4"/>
    <path fill="none" stroke="#CCCCCC" stroke-width="1" stroke-linecap="round" stroke-linejoin="round" d="M5.6 4.4 L5.15 4.4"/>
    <path fill="none" stroke="#CCCCCC" stroke-width="0.75" stroke-linecap="round" stroke-linejoin="round" d="M9.3 14.75 L20.3 14.75"/>
    <path fill="none" stroke="#CCCCCC" stroke-width="0.75" stroke-linecap="round" stroke-linejoin="round" d="M9.3 18.25 L20.3 18.25"/>
    <path fill="none" stroke="#CCCCCC" stroke-width="0.75" stroke-linecap="round" stroke-linejoin="round" d="M9.3 21.9 L20.3 21.9"/>
    <path fill="none" stroke="#CCCCCC" stroke-width="0.75" stroke-linecap="round" stroke-linejoin="round" d="M9.3 11.25 L20.3 11.25"/>
  </g>
</svg>