<?xml version="1.0" encoding="UTF-8" standalone="no"?>
<!-- Created with Inkscape (http://www.inkscape.org/) -->

<svg
   xmlns:dc="http://purl.org/dc/elements/1.1/"
   xmlns:cc="http://creativecommons.org/ns#"
   xmlns:rdf="http://www.w3.org/1999/02/22-rdf-syntax-ns#"
   xmlns:svg="http://www.w3.org/2000/svg"
   xmlns="http://www.w3.org/2000/svg"
   xmlns:xlink="http://www.w3.org/1999/xlink"
   version="1.1"
   width="100%"
   height="100%"
   id="svg2">
  <metadata
     id="metadata145">
    <rdf:RDF>
      <cc:Work
         rdf:about="">
        <dc:format>image/svg+xml</dc:format>
        <dc:type
           rdf:resource="http://purl.org/dc/dcmitype/StillImage" />
        <dc:title></dc:title>
      </cc:Work>
    </rdf:RDF>
  </metadata>
  <defs
     id="defs4">
    <linearGradient
       x1="-819.20001"
       x2="819.20001"
       id="gradient0"
       gradientUnits="userSpaceOnUse"
       gradientTransform="matrix(0.00405884,0.01248169,-0.01013184,0.0032959,19.25,11.1)"
       spreadMethod="pad">
      <stop
         id="stop7"
         style="stop-color:#ffffff;stop-opacity:1"
         offset="0.49803922" />
      <stop
         id="stop9"
         style="stop-color:#e1e1e1;stop-opacity:1"
         offset="1" />
    </linearGradient>
    <linearGradient
       x1="-819.20001"
       x2="819.20001"
       id="gradient1"
       gradientUnits="userSpaceOnUse"
       gradientTransform="matrix(0.0045929,0.00267029,-0.00248718,0.00427246,23.5,5.3)"
       spreadMethod="pad">
      <stop
         id="stop12"
         style="stop-color:#cce393;stop-opacity:1"
         offset="0" />
      <stop
         id="stop14"
         style="stop-color:#799c27;stop-opacity:1"
         offset="1" />
    </linearGradient>
    <radialGradient
       cx="0"
       cy="0"
       r="819.20001"
       id="gradient2"
       gradientUnits="userSpaceOnUse"
       gradientTransform="matrix(0.0012207,-5.645752e-4,5.7983398e-4,0.00125122,26.85,1.65)"
       spreadMethod="pad">
      <stop
         id="stop17"
         style="stop-color:#cce393;stop-opacity:1"
         offset="0" />
      <stop
         id="stop19"
         style="stop-color:#799c27;stop-opacity:1"
         offset="1" />
    </radialGradient>
    <linearGradient
       x1="-819.20001"
       x2="819.20001"
       id="gradient3"
       gradientUnits="userSpaceOnUse"
       gradientTransform="matrix(0,0.00646973,-0.00582886,0,5.85,18.55)"
       spreadMethod="pad">
      <stop
         id="stop22"
         style="stop-color:#c0fe81;stop-opacity:1"
         offset="0" />
      <stop
         id="stop24"
         style="stop-color:#597e01;stop-opacity:1"
         offset="1" />
    </linearGradient>
    <linearGradient
       x1="-819.20001"
       x2="819.20001"
       id="gradient4"
       gradientUnits="userSpaceOnUse"
       gradientTransform="matrix(0,0.00567627,-0.00511169,0,5.8,18.45)"
       spreadMethod="pad">
      <stop
         id="stop27"
         style="stop-color:#cdfe9a;stop-opacity:1"
         offset="0" />
      <stop
         id="stop29"
         style="stop-color:#72a001;stop-opacity:1"
         offset="1" />
    </linearGradient>
    <linearGradient
       x1="-819.20001"
       x2="819.20001"
       id="gradient5"
       gradientUnits="userSpaceOnUse"
       gradientTransform="matrix(0,0.00492859,-0.00492859,0,5.85,12.75)"
       spreadMethod="pad">
      <stop
         id="stop32"
         style="stop-color:#c0fe81;stop-opacity:1"
         offset="0" />
      <stop
         id="stop34"
         style="stop-color:#597e01;stop-opacity:1"
         offset="1" />
    </linearGradient>
    <linearGradient
       x1="-819.20001"
       x2="819.20001"
       id="gradient6"
       gradientUnits="userSpaceOnUse"
       gradientTransform="matrix(0,0.00419617,-0.00419617,0,5.75,12.7)"
       spreadMethod="pad">
      <stop
         id="stop37"
         style="stop-color:#ffffff;stop-opacity:1"
         offset="0.06666667" />
      <stop
         id="stop39"
         style="stop-color:#89c102;stop-opacity:1"
         offset="1" />
    </linearGradient>
    <linearGradient
       x1="-819.20001"
       x2="819.20001"
       id="gradient7"
       gradientUnits="userSpaceOnUse"
       gradientTransform="matrix(0.00178528,0.00665283,-0.00598145,0.00160217,11.45,23.3)"
       spreadMethod="pad">
      <stop
         id="stop42"
         style="stop-color:#d8eef3;stop-opacity:1"
         offset="0" />
      <stop
         id="stop44"
         style="stop-color:#4883d9;stop-opacity:1"
         offset="1" />
    </linearGradient>
    <linearGradient
       x1="-819.20001"
       x2="819.20001"
       id="gradient8"
       gradientUnits="userSpaceOnUse"
       gradientTransform="matrix(0,0.00747681,-0.00665283,0,11.5,23.15)"
       spreadMethod="pad">
      <stop
         id="stop47"
         style="stop-color:#d8eef3;stop-opacity:1"
         offset="0" />
      <stop
         id="stop49"
         style="stop-color:#0068ba;stop-opacity:1"
         offset="1" />
    </linearGradient>
    <linearGradient
       x1="-819.20001"
       x2="819.20001"
       id="gradient9"
       gradientUnits="userSpaceOnUse"
       gradientTransform="matrix(0,0.00598145,-0.00601196,0,11.35,16.35)"
       spreadMethod="pad">
      <stop
         id="stop52"
         style="stop-color:#a9cee7;stop-opacity:1"
         offset="0" />
      <stop
         id="stop54"
         style="stop-color:#4883d9;stop-opacity:1"
         offset="1" />
    </linearGradient>
    <linearGradient
       x1="-819.20001"
       x2="819.20001"
       id="gradient10"
       gradientUnits="userSpaceOnUse"
       gradientTransform="matrix(0.00158691,0.00588989,-0.00492859,0.00132751,11.55,16.3)"
       spreadMethod="pad">
      <stop
         id="stop57"
         style="stop-color:#d8eef3;stop-opacity:1"
         offset="0.32156864" />
      <stop
         id="stop59"
         style="stop-color:#acccec;stop-opacity:1"
         offset="0.60392159" />
      <stop
         id="stop61"
         style="stop-color:#4883d9;stop-opacity:1"
         offset="1" />
    </linearGradient>
    <linearGradient
       x1="-819.20001"
       x2="819.20001"
       id="linearGradient3130"
       xlink:href="#gradient10"
       gradientUnits="userSpaceOnUse"
       gradientTransform="matrix(0.00158691,0.00588989,-0.00492859,0.00132751,11.55,16.3)"
       spreadMethod="pad" />
    <linearGradient
       x1="-819.20001"
       x2="819.20001"
       id="linearGradient3133"
       xlink:href="#gradient9"
       gradientUnits="userSpaceOnUse"
       gradientTransform="matrix(0,0.00598145,-0.00601196,0,11.35,16.35)"
       spreadMethod="pad" />
    <linearGradient
       x1="-819.20001"
       x2="819.20001"
       id="linearGradient3136"
       xlink:href="#gradient8"
       gradientUnits="userSpaceOnUse"
       gradientTransform="matrix(0,0.00747681,-0.00665283,0,11.5,23.15)"
       spreadMethod="pad" />
    <linearGradient
       x1="-819.20001"
       x2="819.20001"
       id="linearGradient3141"
       xlink:href="#gradient7"
       gradientUnits="userSpaceOnUse"
       gradientTransform="matrix(0.00178528,0.00665283,-0.00598145,0.00160217,11.45,23.3)"
       spreadMethod="pad" />
    <linearGradient
       x1="-819.20001"
       x2="819.20001"
       id="linearGradient3145"
       xlink:href="#gradient6"
       gradientUnits="userSpaceOnUse"
       gradientTransform="matrix(0,0.00419617,-0.00419617,0,5.75,12.7)"
       spreadMethod="pad" />
    <linearGradient
       x1="-819.20001"
       x2="819.20001"
       id="linearGradient3149"
       xlink:href="#gradient5"
       gradientUnits="userSpaceOnUse"
       gradientTransform="matrix(0,0.00492859,-0.00492859,0,5.85,12.75)"
       spreadMethod="pad" />
    <linearGradient
       x1="-819.20001"
       x2="819.20001"
       id="linearGradient3153"
       xlink:href="#gradient4"
       gradientUnits="userSpaceOnUse"
       gradientTransform="matrix(0,0.00567627,-0.00511169,0,5.8,18.45)"
       spreadMethod="pad" />
    <linearGradient
       x1="-819.20001"
       x2="819.20001"
       id="linearGradient3156"
       xlink:href="#gradient3"
       gradientUnits="userSpaceOnUse"
       gradientTransform="matrix(0,0.00646973,-0.00582886,0,5.85,18.55)"
       spreadMethod="pad" />
    <radialGradient
       cx="0"
       cy="0"
       r="819.20001"
       id="radialGradient3167"
       xlink:href="#gradient2"
       gradientUnits="userSpaceOnUse"
       gradientTransform="matrix(0.0012207,-5.645752e-4,5.7983398e-4,0.00125122,26.85,1.65)"
       spreadMethod="pad" />
    <linearGradient
       x1="-819.20001"
       x2="819.20001"
       id="linearGradient3171"
       xlink:href="#gradient1"
       gradientUnits="userSpaceOnUse"
       gradientTransform="matrix(0.0045929,0.00267029,-0.00248718,0.00427246,23.5,5.3)"
       spreadMethod="pad" />
    <linearGradient
       x1="-819.20001"
       x2="819.20001"
       id="linearGradient3176"
       xlink:href="#gradient0"
       gradientUnits="userSpaceOnUse"
       gradientTransform="matrix(0.00405884,0.01248169,-0.01013184,0.0032959,19.25,11.1)"
       spreadMethod="pad" />
  </defs>
  <g
     id="g3193">
    <path
       d="m 30,30.05 -30,0 0,-30 30,0 0,30"
       id="path65"
       style="fill:#010101;fill-opacity:0;stroke:none" />
    <path
       d="m 23.6,1.2 5.35,16.4 0,0.1 -0.05,0 L 16,21.9 10.6,5.4 23.6,1.2"
       id="path67"
       style="fill:#cccccc;stroke:none" />
    <path
       d="m 23.8,1.1 0.1,0 5.35,16.4 0,0.3 -0.25,0.2 -12.9,4.2 -0.05,-0.1 12.9,-4.2 0.2,-0.15 0,-0.25 L 23.8,1.1"
       id="path69"
       style="fill:#cccccc;fill-opacity:0.24705882;stroke:none" />
    <path
       d="m 23.8,1.1 5.35,16.4 0,0.25 -0.2,0.15 -12.9,4.2 L 16,22 l 12.9,-4.2 0.15,-0.1 0,-0.15 L 23.7,1.15 23.8,1.1"
       id="path71"
       style="fill:#cccccc;fill-opacity:0.49803922;stroke:none" />
    <path
       d="m 23.6,1.2 0.1,-0.05 5.35,16.4 0,0.15 -0.15,0.1 -12.9,4.2 0,-0.1 12.9,-4.2 0.05,0 0,-0.1 L 23.6,1.2"
       id="path73"
       style="fill:#cccccc;fill-opacity:0.74901961;stroke:none" />
    <path
       d="M 23.15,0.7 28.55,17.3 15.4,21.55 10,4.95 23.15,0.7"
       id="path75"
       style="fill:url(#linearGradient3176);stroke:none" />
    <path
       d="m 9.6,16.05 q 1.55,1.65 1.55,4 0,2.4 -1.45,3.15 Q 8.35,23.95 6,24 3.7,24.1 2.15,23.3 0.6,22.45 0.6,20.05 q 0,-2.35 1.5,-4 1.55,-1.65 3.75,-1.65 2.2,0 3.75,1.65"
       id="path87"
       style="fill:#cccccc;stroke:none" />
    <path
       d="m 9.9,15.8 q 1.65,1.75 1.65,4.25 0,2.65 -1.65,3.5 Q 8.45,24.35 6,24.4 3.55,24.5 1.95,23.6 0.2,22.7 0.2,20.05 q 0,-2.5 1.65,-4.25 1.65,-1.8 4,-1.8 2.4,0 4.05,1.8 m -0.1,0.05 q -1.6,-1.7 -3.95,-1.7 -2.3,0 -3.9,1.7 -1.65,1.75 -1.65,4.2 0,2.55 1.75,3.45 1.55,0.85 3.95,0.8 2.4,-0.1 3.85,-0.85 1.55,-0.85 1.55,-3.4 0,-2.45 -1.6,-4.2"
       id="path89"
       style="fill:#cccccc;fill-opacity:0.24705882;stroke:none" />
    <path
       d="m 9.8,15.85 q 1.6,1.75 1.6,4.2 0,2.55 -1.55,3.4 Q 8.4,24.2 6,24.3 3.6,24.35 2.05,23.5 0.3,22.6 0.3,20.05 q 0,-2.45 1.65,-4.2 1.6,-1.7 3.9,-1.7 2.35,0 3.95,1.7 m -0.1,0.1 q -1.6,-1.7 -3.85,-1.7 -2.25,0 -3.85,1.7 -1.55,1.7 -1.55,4.1 0,2.5 1.65,3.35 1.55,0.8 3.9,0.75 2.35,-0.05 3.8,-0.85 1.45,-0.75 1.5,-3.25 -0.05,-2.4 -1.6,-4.1"
       id="path91"
       style="fill:#cccccc;fill-opacity:0.49803922;stroke:none" />
    <path
       d="m 9.7,15.95 q 1.55,1.7 1.6,4.1 -0.05,2.5 -1.5,3.25 Q 8.35,24.1 6,24.15 3.65,24.2 2.1,23.4 0.45,22.55 0.45,20.05 q 0,-2.4 1.55,-4.1 1.6,-1.7 3.85,-1.7 2.25,0 3.85,1.7 m -0.1,0.1 Q 8.05,14.4 5.85,14.4 q -2.2,0 -3.75,1.65 -1.5,1.65 -1.5,4 0,2.4 1.55,3.25 1.55,0.8 3.85,0.7 2.35,-0.05 3.7,-0.8 1.45,-0.75 1.45,-3.15 0,-2.35 -1.55,-4"
       id="path93"
       style="fill:#cccccc;fill-opacity:0.74901961;stroke:none" />
    <path
       d="m 15.9,20.2 q 1.85,1.95 1.85,4.75 0,2.85 -1.7,3.75 -1.65,0.85 -4.4,0.95 -2.75,0.1 -4.55,-0.9 -1.85,-0.95 -1.85,-3.8 0,-2.8 1.8,-4.75 1.85,-1.95 4.45,-1.95 2.55,0 4.4,1.95"
       id="path95"
       style="fill:#cccccc;stroke:none" />
    <path
       d="m 16.2,19.9 0.05,0 q 1.95,2.1 1.95,5.05 0,3.15 -1.95,4.15 -1.7,0.95 -4.6,1 -2.9,0.1 -4.8,-0.95 -2.1,-1.05 -2.1,-4.2 0,-2.95 1.95,-5.05 2,-2.1 4.8,-2.1 2.75,0 4.7,2.1 M 16.1,20 q -1.9,-2.05 -4.6,-2.05 -2.75,0 -4.65,2.05 -1.9,2.05 -1.9,4.95 0,3.05 2,4.1 1.85,1 4.7,0.9 2.85,-0.05 4.55,-1 1.85,-0.95 1.85,-4 0,-2.9 -1.95,-4.95"
       id="path97"
       style="fill:#cccccc;fill-opacity:0.24705882;stroke:none" />
    <path
       d="M 23.15,0.6 28.6,17.25 M 15.4,21.5 10.05,4.9"
       id="path135"
       style="fill:none;stroke:#bfbfbf;stroke-width:0.75;stroke-linecap:round;stroke-linejoin:round" />
    <path
       d="m 16.1,20 q 1.95,2.05 1.95,4.95 0,3.05 -1.85,4 -1.7,0.95 -4.55,1 -2.85,0.1 -4.7,-0.9 -2,-1.05 -2,-4.1 0,-2.9 1.9,-4.95 1.9,-2.05 4.65,-2.05 2.7,0 4.6,2.05 M 16,20.1 q -1.85,-2 -4.5,-2 -2.7,0 -4.55,2 -1.85,2 -1.85,4.85 0,2.95 1.9,3.95 1.85,1 4.65,0.9 2.8,-0.05 4.45,-1 1.75,-0.9 1.8,-3.85 Q 17.85,22.1 16,20.1"
       id="path99"
       style="fill:#cccccc;fill-opacity:0.49803922;stroke:none" />
    <path
       d="M 28.6,17.25 15.4,21.5"
       id="path131"
       style="fill:none;stroke:#bfbfbf;stroke-width:1;stroke-linecap:round;stroke-linejoin:round" />
    <path
       d="m 16,20.1 q 1.85,2 1.9,4.85 -0.05,2.95 -1.8,3.85 -1.65,0.95 -4.45,1 -2.8,0.1 -4.65,-0.9 -1.9,-1 -1.9,-3.95 0,-2.85 1.85,-4.85 1.85,-2 4.55,-2 2.65,0 4.5,2 m -0.1,0.1 q -1.85,-1.95 -4.4,-1.95 -2.6,0 -4.45,1.95 -1.8,1.95 -1.8,4.75 0,2.85 1.85,3.8 1.8,1 4.55,0.9 2.75,-0.1 4.4,-0.95 1.7,-0.9 1.7,-3.75 0,-2.8 -1.85,-4.75"
       id="path101"
       style="fill:#cccccc;fill-opacity:0.74901961;stroke:none" />
    <path
       d="m 9.5,15.45 q 1.55,1.65 1.6,4 -0.05,2.4 -1.3,3.15 -1.35,0.65 -3.6,0.7 -2.3,0 -4,-0.7 -1.8,-0.75 -1.8,-3.1 0,-2.4 1.65,-4.05 1.55,-1.65 3.75,-1.65 2.15,0 3.7,1.65"
       id="path103"
       style="fill:url(#linearGradient3156);stroke:none" />
    <path
       d="m 5.8,14.25 q 1.95,0 3.3,1.5 1.35,1.45 1.35,3.5 0,2.1 -1.15,2.75 -1.25,0.6 -3.2,0.6 -1.9,0 -3.4,-0.6 -1.55,-0.65 -1.55,-2.75 0,-2.05 1.35,-3.5 1.35,-1.5 3.3,-1.5"
       id="path105"
       style="fill:url(#linearGradient3153);stroke:none" />
    <path
       d="M 5.2,15.65 Q 2.35,20.2 4.9,22.5 L 2.7,21.9 q -1.55,-0.65 -1.55,-2.7 0,-2.05 3.4,-5.1 3.4,-3.05 0.65,1.55"
       id="path107"
       style="fill:#ffffff;fill-opacity:0.2;stroke:none" />
    <path
       d="m 9.8,12.65 q 0,1.7 -1.2,2.95 -1.2,1.15 -2.85,1.15 -1.65,0 -2.9,-1.15 Q 1.7,14.35 1.7,12.65 1.7,11 2.85,9.8 4.1,8.6 5.75,8.6 7.4,8.6 8.6,9.8 9.8,11 9.8,12.65"
       id="path109"
       style="fill:url(#linearGradient3149);stroke:none" />
    <path
       d="m 2.8,18.9 q 1.3,-0.6 3.15,-0.55 1.85,-0.05 3.1,0.55 1.3,0.55 1.35,1.35 Q 10.35,21 9.05,21.55 7.8,22.1 5.95,22.1 4.1,22.1 2.8,21.55 1.55,21 1.55,20.25 q 0,-0.8 1.25,-1.35"
       id="path111"
       style="fill:#74a205;fill-opacity:0.10196078;stroke:none" />
    <path
       d="m 5.75,16.15 q -1.4,0 -2.45,-1 -1,-1 -1,-2.45 0,-1.4 1,-2.4 1.05,-1 2.45,-1 1.4,0 2.4,1 1.05,1 1.05,2.4 0,1.45 -1.05,2.45 -1,1 -2.4,1"
       id="path113"
       style="fill:url(#linearGradient3145);stroke:none" />
    <path
       d="m 7.9,10.5 q 0.3,0.55 -0.55,0.8 l -0.7,0.15 -0.1,0 Q 6.1,11.55 5.8,12.1 L 5.4,13 5,13.35 4.3,13.6 q -1.1,0.3 -1.45,-0.45 -0.3,-0.7 0.25,-1.6 l 0.6,-0.8 q 0.75,-0.6 1.55,-0.8 L 6.95,9.9 q 0.75,0.25 0.95,0.6"
       id="path115"
       style="fill:#ffffff;fill-opacity:0.30196078;stroke:none" />
    <path
       d="m 11.5,18.2 q 2.3,0 4,1.75 1.65,1.8 1.65,4.25 -0.05,2.5 -1.5,3.35 Q 14.2,28.3 11.9,28.3 9.55,28.3 7.7,27.55 5.85,26.7 5.85,24.2 q 0,-2.45 1.65,-4.25 1.6,-1.75 4,-1.75"
       id="path117"
       style="fill:url(#linearGradient3141);stroke:none" />
    <path
       d="m 10.7,19.9 q -3.4,5.55 -0.25,8.3 L 7.7,27.55 Q 5.85,26.7 5.85,24.2 5.85,21.7 10,18 q 4.15,-3.7 0.7,1.9 m 1.9,8.4 q 0.25,-0.2 1.05,-0.35 l 2.4,-0.75 q 1.1,-0.5 -0.35,0.35 -1.25,0.65 -3.1,0.75"
       id="path119"
       style="fill:#ffffff;fill-opacity:0.2;stroke:none" />
    <path
       d="m 7.9,23.85 q 1.55,-0.75 3.75,-0.7 2.25,-0.05 3.8,0.7 1.6,0.65 1.6,1.6 0,0.95 -1.6,1.65 l -3.8,0.65 q -2.2,0 -3.75,-0.65 -1.6,-0.7 -1.6,-1.65 0,-0.95 1.6,-1.6"
       id="path121"
       style="fill:#58a2d1;fill-opacity:0.49803922;stroke:none" />
    <path
       d="m 11.6,19.15 q -2.05,0.05 -3.45,1.15 -1.4,1.1 -1.6,3.65 -0.2,2.5 1.55,3.1 l 3.8,0.55 3.45,-0.5 q 1.4,-0.55 1.3,-2.9 Q 16.5,21.85 15.1,20.45 13.65,19 11.6,19.15 m -0.1,-1.4 q 2.5,0 4.25,1.9 1.85,1.85 1.9,4.55 Q 17.6,27 16.1,27.8 14.55,28.6 12,28.65 9.35,28.7 7.35,27.8 5.35,27 5.4,24.3 q 0,-2.75 1.8,-4.65 1.75,-1.9 4.3,-1.9"
       id="path123"
       style="fill:url(#linearGradient3136);stroke:none" />
    <path
       d="m 14.9,12.85 q 1.4,1.45 1.4,3.5 0,2 -1.4,3.45 -1.45,1.45 -3.45,1.5 Q 9.4,21.25 7.95,19.8 6.5,18.35 6.5,16.35 q 0,-2.05 1.45,-3.5 1.45,-1.4 3.5,-1.4 2,0 3.45,1.4"
       id="path125"
       style="fill:url(#linearGradient3133);stroke:none" />
    <path
       d="m 11.55,20.5 q -1.8,0 -3,-1.25 -1.25,-1.2 -1.2,-2.95 -0.05,-1.75 1.2,-2.95 1.2,-1.25 3,-1.2 1.65,-0.05 2.9,1.2 1.2,1.2 1.25,2.95 -0.05,1.75 -1.25,2.95 -1.25,1.25 -2.9,1.25"
       id="path127"
       style="fill:url(#linearGradient3130);stroke:none" />
    <path
       d="m 14.1,13.65 q 0.35,0.65 -0.7,0.9 l -0.85,0.2 -0.15,0 q -0.5,0.15 -0.85,0.8 l -0.5,1.1 -0.5,0.4 -0.8,0.35 Q 8.4,17.75 7.95,16.85 7.6,16 8.25,14.9 8.65,14.15 9,13.95 L 9,13.9 q 0.85,-0.7 1.85,-1 1.1,-0.3 2.1,0 0.85,0.25 1.15,0.75"
       id="path129"
       style="fill:#ffffff;fill-opacity:0.30196078;stroke:none" />
    <path
       d="M 10.05,4.9 23.15,0.6"
       id="path133"
       style="fill:none;stroke:#cccccc;stroke-width:0.75;stroke-linecap:round;stroke-linejoin:round" />
    <g
       id="g3183">
      <path
         d="m 19.4,8.9 8.2,-7.6 q 1.05,0.4 0.95,1.05 0.2,0.25 -0.85,1.5 l -2.8,2.85 -3,2.5 q -1.3,0.95 -2.2,1.1 -2.25,0.3 -0.3,-1.4"
         id="path77"
         style="fill:#cccccc;stroke:none" />
      <path
         d="M 19.35,8.35 Q 19.5,9 20.4,9.25 l -1.95,0.5 0.9,-2 0,0.6"
         id="path79"
         style="fill:#999999;stroke:none" />
      <path
         d="M 26.35,1.25 27,1.35 q 0.3,-0.1 0.55,0.2 L 27.6,1.6 27.9,2.3 27.65,3 20.85,9.1 Q 20.55,9.4 20.15,9.3 19.7,9.25 19.45,8.95 L 19.4,8.9 19.1,8.15 q 0,-0.4 0.3,-0.65 l 6.95,-6.25"
         id="path81"
         style="fill:url(#linearGradient3171);stroke:none" />
      <path
         d="M 26.75,1.5 Q 26.65,1.95 27,2.15 l 0.75,0.25 q 0.35,0 -1.05,1.2 l -5.85,5.15 -0.6,0.2 Q 19.9,8.9 19.7,8.6 19.45,8.3 19.5,8 q 0,-0.35 0.25,-0.6 l 5.8,-5.2 q 1.3,-1.2 1.2,-0.7"
         id="path83"
         style="fill:#d1e3a4;stroke:none" />
      <path
         d="m 26.25,1.75 0.2,-0.6 0.65,-0.05 0.65,0.5 0.3,0.75 -0.2,0.6 L 27.2,3 26.55,2.5 q -0.3,-0.4 -0.3,-0.75"
         id="path85"
         style="fill:url(#radialGradient3167);stroke:none" />
      <path
         d="M 19.35,8.35 Q 19.5,9 20.4,9.25 l -1.95,0.5 0.9,-2 0,0.6"
         id="path137"
         style="fill:none;stroke:#999999;stroke-width:0.25;stroke-linecap:round;stroke-linejoin:round" />
      <path
         d="M 19.7,7.8 26.05,2.1"
         id="path139"
         style="fill:none;stroke:#ffffff;stroke-width:0.25;stroke-linecap:round;stroke-linejoin:round;stroke-opacity:0.70196078" />
      <path
         d="m 26.3,2.15 0.2,0.4 q 0.25,0.4 0.6,0.45"
         id="path141"
         style="fill:none;stroke:#ffffff;stroke-width:0.25;stroke-linecap:round;stroke-linejoin:round" />
    </g>
  </g>
</svg>
