<?xml version="1.0" encoding="UTF-8" standalone="no"?>
<svg
   xmlns:dc="http://purl.org/dc/elements/1.1/"
   xmlns:cc="http://creativecommons.org/ns#"
   xmlns:rdf="http://www.w3.org/1999/02/22-rdf-syntax-ns#"
   xmlns:svg="http://www.w3.org/2000/svg"
   xmlns="http://www.w3.org/2000/svg"
   xml:space="preserve"
   style="enable-background:new 0 0 512 512;"
   viewBox="0 0 512 512"
   y="0px"
   x="0px"
   id="Layer_1"
   version="1.1"><metadata
   id="metadata55"><rdf:RDF><cc:Work
       rdf:about=""><dc:format>image/svg+xml</dc:format><dc:type
         rdf:resource="http://purl.org/dc/dcmitype/StillImage" /><dc:title></dc:title></cc:Work></rdf:RDF></metadata><defs
   id="defs53">
	
	
	
	
	
	
		
	
	
</defs>
<style
   id="style10"
   type="text/css">
	.st0{opacity:0.6;fill:#6A71B5;}
	.st1{fill:none;stroke:#111342;stroke-width:14.7604;stroke-linecap:round;stroke-linejoin:round;stroke-miterlimit:10;}
	.st2{fill:#6A71B5;}
	.st3{display:none;}
	
		.st4{display:inline;fill:none;stroke:#111342;stroke-width:14.7604;stroke-linecap:round;stroke-linejoin:round;stroke-miterlimit:10;}
	.st5{display:inline;}
</style>
<polyline
   transform="matrix(1.1016312,0,0,1.1016312,-26.131124,-25.01486)"
   class="st1"
   points="206.28,184.02 101.21,184.02 49.28,325.13 47.44,330.15 464.56,330.15 462.72,325.13 410.79,184.02    367.54,184.02  "
   id="polyline14" /><rect
   x="26.130259"
   y="333.15851"
   class="st1"
   width="459.52344"
   height="171.71124"
   id="rect16" /><line
   class="st1"
   x1="121.46542"
   y1="263.88791"
   x2="387.81784"
   y2="263.88791"
   id="line18" /><polygon
   transform="matrix(1.1016312,0,0,1.1016312,-26.131124,-25.01486)"
   class="st2"
   points="281.92,243.56 229.75,172.98 392.25,48.22 446.88,126.18 "
   id="polygon20" /><rect
   x="57.840355"
   y="236.9662"
   transform="rotate(-36.091822)"
   class="st1"
   width="251.71983"
   height="129.76532"
   id="rect22" /><polyline
   transform="matrix(1.1016312,0,0,1.1016312,-26.131124,-25.01486)"
   class="st1"
   points="284.29,155.43 301.47,177.02 339.63,117.92  "
   id="polyline24" /><g
   transform="matrix(1.1016312,0,0,1.1016312,-26.131124,-25.01486)"
   class="st3"
   id="g46">
		<path
   class="st4"
   d="m 163.9,386.62 -18.06,40.95 c -1.42,3.25 -3.32,5.23 -5.7,5.94 -1.23,0.34 -2.33,0.51 -3.3,0.51 -3.83,0 -6.67,-2.15 -8.54,-6.45 l -18.06,-40.95"
   id="path26" />
		<path
   class="st4"
   d="m 197.16,424.19 c -1.09,-1.55 -2,-3.19 -2.74,-4.92 -0.74,-1.73 -1.3,-3.47 -1.67,-5.23 -0.38,-1.75 -0.56,-3.53 -0.56,-5.32 0,-1.74 0.19,-3.5 0.56,-5.26 0.37,-1.76 0.94,-3.53 1.69,-5.28 0.75,-1.75 1.66,-3.39 2.72,-4.92 1.74,-2.54 3.85,-4.73 6.31,-6.57 2.47,-1.84 5.17,-3.25 8.11,-4.23 2.94,-0.98 5.96,-1.47 9.05,-1.47 2.32,0 4.61,0.28 6.88,0.84 2.26,0.56 4.43,1.37 6.5,2.45 2.07,1.08 3.96,2.36 5.66,3.87 1.71,1.5 3.2,3.2 4.48,5.12 3.31,4.79 4.97,9.95 4.97,15.46 0,2.74 -0.42,5.41 -1.27,8.04 -0.85,2.63 -2.08,5.1 -3.7,7.42 -1.28,1.86 -2.81,3.57 -4.57,5.13 -1.77,1.56 -3.62,2.85 -5.57,3.87 -1.95,1.02 -4.08,1.82 -6.41,2.41 -2.33,0.59 -4.65,0.89 -6.97,0.89 -3.1,0 -6.12,-0.48 -9.05,-1.45 -2.94,-0.97 -5.65,-2.38 -8.13,-4.24 -2.47,-1.87 -4.57,-4.07 -6.29,-6.61 z"
   id="path28" />
		<g
   class="st5"
   id="g34">
			<line
   class="st1"
   x1="277.10001"
   y1="382.53"
   x2="327.95001"
   y2="382.53"
   id="line30" />
			<line
   class="st1"
   x1="302.53"
   y1="382.53"
   x2="302.53"
   y2="433.03"
   id="line32" />
		</g>
		<g
   class="st5"
   id="g44">
			<line
   class="st1"
   x1="365.66"
   y1="382.53"
   x2="401.75"
   y2="382.53"
   id="line36" />
			<line
   class="st1"
   x1="365.66"
   y1="434.19"
   x2="401.75"
   y2="434.19"
   id="line38" />
			<line
   class="st1"
   x1="365.66"
   y1="407.13"
   x2="389.45001"
   y2="407.13"
   id="line40" />
			<line
   class="st1"
   x1="364.03"
   y1="382.53"
   x2="364.03"
   y2="433.03"
   id="line42" />
		</g>
	</g>
</svg>
