<?xml version="1.0" encoding="UTF-8" standalone="no"?>
<!-- Created with Inkscape (http://www.inkscape.org/) -->

<svg class="vote"
   xmlns:dc="http://purl.org/dc/elements/1.1/"
   xmlns:cc="http://creativecommons.org/ns#"
   xmlns:rdf="http://www.w3.org/1999/02/22-rdf-syntax-ns#"
   xmlns:svg="http://www.w3.org/2000/svg"
   xmlns="http://www.w3.org/2000/svg"
   version="1.1"
   width="30"
   height="30"
   id="svg2"
   xml:space="preserve"><metadata
     id="metadata8"><rdf:RDF><cc:Work
         rdf:about=""><dc:format>image/svg+xml</dc:format><dc:type
           rdf:resource="http://purl.org/dc/dcmitype/StillImage" /><dc:title></dc:title></cc:Work></rdf:RDF></metadata><defs
     id="defs6"><clipPath
       id="clipPath16"><path
         d="m 0,28.25 29.083,0 L 29.083,0 0,0 0,28.25 z"
         id="path18" /></clipPath><clipPath
       id="clipPath28"><path
         d="m 5.65,4.549 18.249,0 0,17.551 -18.249,0 0,-17.551 z"
         id="path30" /></clipPath><linearGradient
       x1="0"
       y1="0"
       x2="1"
       y2="0"
       id="linearGradient36"
       gradientUnits="userSpaceOnUse"
       gradientTransform="matrix(0.5749778,18.274288,-17.524322,0.5249798,14.48877,4.2133789)"
       spreadMethod="pad"><stop
         id="stop38"
         style="stop-color:#cf7a27;stop-opacity:1"
         offset="0" /><stop
         id="stop40"
         style="stop-color:#fcca58;stop-opacity:1"
         offset="1" /></linearGradient><clipPath
       id="clipPath48"><path
         d="m 0,28.25 29.083,0 L 29.083,0 0,0 0,28.25 z"
         id="path50" /></clipPath><clipPath
       id="clipPath58"><path
         d="M 7.4,24.799 C 9.033,20.4 10.15,15.717 10.75,10.75 l 0,0 9.85,3 c -1.567,4.367 -2.684,9.033 -3.35,14 l 0,0 -9.85,-2.951 z"
         id="path60" /></clipPath><linearGradient
       x1="0"
       y1="0"
       x2="1"
       y2="0"
       id="linearGradient66"
       gradientUnits="userSpaceOnUse"
       gradientTransform="matrix(4.099998,-17.274996,12.425003,3.7500026,-260.66162,420.93457)"
       spreadMethod="pad"><stop
         id="stop68"
         style="stop-color:#ffffff;stop-opacity:1"
         offset="0" /><stop
         id="stop70"
         style="stop-color:#e1e1e1;stop-opacity:1"
         offset="1" /></linearGradient><clipPath
       id="clipPath78"><path
         d="m 0,28.25 29.083,0 L 29.083,0 0,0 0,28.25 z"
         id="path80" /></clipPath><clipPath
       id="clipPath90"><path
         d="m 6.9,5.75 15.05,0 0,10.95 -15.05,0 0,-10.95 z"
         id="path92" /></clipPath><linearGradient
       x1="0"
       y1="0"
       x2="1"
       y2="0"
       id="linearGradient98"
       gradientUnits="userSpaceOnUse"
       gradientTransform="matrix(0.5750352,18.27611,-17.551073,0.5500336,14.207031,4.3154297)"
       spreadMethod="pad"><stop
         id="stop100"
         style="stop-color:#cf7a27;stop-opacity:1"
         offset="0" /><stop
         id="stop102"
         style="stop-color:#fcca58;stop-opacity:1"
         offset="1" /></linearGradient><clipPath
       id="clipPath110"><path
         d="m 0,28.25 29.083,0 L 29.083,0 0,0 0,28.25 z"
         id="path112" /></clipPath><clipPath
       id="clipPath118"><path
         d="m 6.1499,21.6499 17.1499,0 0,-0.5 -17.1499,0 0,0.5 z"
         id="path120" /></clipPath><clipPath
       id="clipPath138"><path
         d="m 8.2002,15.3999 12.5498,0 0,-0.5 -12.5498,0 0,0.5 z"
         id="path140" /></clipPath></defs><g
     transform="matrix(1.25,0,0,-1.25,0,30)"
     id="g10"><g
       transform="matrix(0.85817558,0,0,0.85817558,-0.57771885,-0.11058982)"
       id="g12"><g
         clip-path="url(#clipPath16)"
         id="g14"><g
           transform="translate(28.4004,4.7998)"
           id="g20"><path
             d="m 0,0 c 0,-1.233 -1.351,-2.283 -4.05,-3.149 -2.667,-0.868 -5.884,-1.301 -9.65,-1.301 -3.767,0 -7,0.433 -9.7,1.301 -2.667,0.866 -4,1.916 -4,3.149 0,1.233 1.333,2.284 4,3.15 2.7,0.867 5.933,1.3 9.7,1.3 3.766,0 6.983,-0.433 9.65,-1.3 C -1.351,2.284 0,1.233 0,0"
             id="path22"
             style="fill:#d9d9d9;fill-opacity:1;fill-rule:nonzero;stroke:none" /></g></g></g><g
       transform="matrix(0.85817558,0,0,0.85817558,-0.57771885,-0.11058982)"
       id="g24"><g
         clip-path="url(#clipPath28)"
         id="g26"><g
           id="g32"><g
             id="g34"><path
               d="m 5.65,4.549 18.249,0 0,17.551 -18.249,0 0,-17.551 z"
               id="path42"
               style="fill:url(#linearGradient36);stroke:none" /></g></g></g></g><g
       transform="matrix(0.85817558,0,0,0.85817558,-0.57771885,-0.11058982)"
       id="g44"><g
         clip-path="url(#clipPath48)"
         id="g46"><path
           d="m 5.65,22.1 18.25,0 0,-17.55 -18.25,0 0,17.55 z"
           id="path52"
           style="fill:none;stroke:#8f6114;stroke-width:0.5;stroke-linecap:round;stroke-linejoin:round;stroke-miterlimit:4;stroke-opacity:1;stroke-dasharray:none" /></g></g><g
       transform="matrix(0.85817558,0,0,0.85817558,-0.57771885,-0.11058982)"
       id="g54"><g
         clip-path="url(#clipPath58)"
         id="g56"><g
           id="g62"><g
             id="g64"><path
               d="M 7.4,24.799 C 9.033,20.4 10.15,15.717 10.75,10.75 l 0,0 9.85,3 c -1.567,4.367 -2.684,9.033 -3.35,14 l 0,0 -9.85,-2.951 z"
               id="path72"
               style="fill:url(#linearGradient66);stroke:none" /></g></g></g></g><g
       transform="matrix(0.85817558,0,0,0.85817558,-0.57771885,-0.11058982)"
       id="g74"><g
         clip-path="url(#clipPath78)"
         id="g76"><g
           transform="translate(17.2002,27.75)"
           id="g82"><path
             d="m 0,0 c 0.566,-4.967 1.667,-9.633 3.3,-14 l -9.85,-2.95 c -0.533,4.8 -1.634,9.467 -3.3,14 L 0,0"
             id="path84"
             style="fill:none;stroke:#836841;stroke-width:0.2;stroke-linecap:round;stroke-linejoin:round;stroke-miterlimit:4;stroke-opacity:1;stroke-dasharray:none" /></g></g></g><g
       transform="matrix(0.85817558,0,0,0.85817558,-0.57771885,-0.11058982)"
       id="g86"><g
         clip-path="url(#clipPath90)"
         id="g88"><g
           id="g94"><g
             id="g96"><path
               d="m 6.9,5.75 15.05,0 0,10.95 -15.05,0 0,-10.95 z"
               id="path104"
               style="fill:url(#linearGradient98);stroke:none" /></g></g></g></g><g
       transform="matrix(0.85817558,0,0,0.85817558,-0.57771885,-0.11058982)"
       id="g106"><g
         clip-path="url(#clipPath110)"
         id="g108"><g
           id="g114"><g
             id="g116" /><g
             id="g122"><g
               clip-path="url(#clipPath118)"
               id="g124"
               style="opacity:0.60000598"><g
                 transform="translate(6.3999,21.3999)"
                 id="g126"><path
                   d="M 0,0 16.65,0"
                   id="path128"
                   style="fill:none;stroke:#ffffff;stroke-width:0.5;stroke-linecap:round;stroke-linejoin:round;stroke-miterlimit:4;stroke-opacity:1;stroke-dasharray:none" /></g></g></g></g><g
           transform="translate(9.0498,17.4502)"
           id="g130"><path
             d="m 0,0 -0.65,0 0,-0.85 12.05,0 0,0.85 -0.7,0"
             id="path132"
             style="fill:none;stroke:#8f6114;stroke-width:0.5;stroke-linecap:round;stroke-linejoin:round;stroke-miterlimit:4;stroke-opacity:1;stroke-dasharray:none" /></g><g
           id="g134"><g
             id="g136" /><g
             id="g142"><g
               clip-path="url(#clipPath138)"
               id="g144"
               style="opacity:0.60000598"><g
                 transform="translate(8.4502,15.1499)"
                 id="g146"><path
                   d="M 0,0 12.05,0"
                   id="path148"
                   style="fill:none;stroke:#ffffff;stroke-width:0.5;stroke-linecap:round;stroke-linejoin:round;stroke-miterlimit:4;stroke-opacity:1;stroke-dasharray:none" /></g></g></g></g><g
           transform="translate(9.9502,21.2002)"
           id="g150"><path
             d="M 0,0 6.45,1.9 M 0.85,-3.75 7.3,-1.8 m -6.9,-0.05 6.45,1.9"
             id="path152"
             style="fill:none;stroke:#cccccc;stroke-width:0.5;stroke-linecap:round;stroke-linejoin:round;stroke-miterlimit:4;stroke-opacity:1;stroke-dasharray:none" /></g></g></g></g></svg>